# MagicaVoxel @ Ephtracy

# group
o 

# material
mtllib Decor-5.mtl
usemtl palette

# normals
vn -1 0 0
vn 1 0 0
vn 0 0 1
vn 0 0 -1
vn 0 -1 0
vn 0 1 0

# texcoords
vt 0.533203 0.5
vt 0.537109 0.5
vt 0.541016 0.5

# verts
v 8.1 0 3.3
v 8.1 0 2.5
v 8.1 0.1 3.2
v 8.1 0.1 2.5
v 8.1 0.2 3.2
v 8.1 0.2 2.5
v 8.1 0.3 3.3
v 8.1 0.3 2.5
v 9.2 0 3.3
v 9.2 0 2.5
v 9.2 0.1 3.2
v 9.2 0.1 2.5
v 9.2 0.2 3.2
v 9.2 0.2 2.5
v 9.2 0.3 3.3
v 9.2 0.3 2.5
v 8.1 0 3.3
v 8.1 0.3 3.3
v 8.2 0.1 3.3
v 8.2 0.2 3.3
v 8.5 0.1 3.3
v 8.5 0.2 3.3
v 8.8 0.1 3.3
v 8.8 0.2 3.3
v 9.1 0.1 3.3
v 9.1 0.2 3.3
v 9.2 0 3.3
v 9.2 0.3 3.3
v 8.1 0 2.5
v 8.1 0.1 2.5
v 8.1 0.2 2.5
v 8.1 0.3 2.5
v 9.2 0 2.5
v 9.2 0.1 2.5
v 9.2 0.2 2.5
v 9.2 0.3 2.5
v 8.1 0 3.3
v 9.2 0 3.3
v 8.1 0 2.5
v 9.2 0 2.5
v 8.1 0.3 3.3
v 9.2 0.3 3.3
v 8.3 0.3 3.2
v 8.5 0.3 3.2
v 8.8 0.3 3.1
v 9 0.3 3.1
v 8.8 0.3 2.7
v 9 0.3 2.7
v 8.3 0.3 2.6
v 8.5 0.3 2.6
v 8.1 0.3 2.5
v 9.2 0.3 2.5

# faces
f 3/2/1 2/2/1 1/2/1
f 4/2/1 2/2/1 3/2/1
f 5/2/1 3/2/1 1/2/1
f 5/1/1 4/1/1 3/1/1
f 6/1/1 4/1/1 5/1/1
f 7/2/1 5/2/1 1/2/1
f 7/2/1 6/2/1 5/2/1
f 8/2/1 6/2/1 7/2/1
f 9/2/2 10/2/2 11/2/2
f 11/2/2 10/2/2 12/2/2
f 9/2/2 11/2/2 13/2/2
f 11/1/2 12/1/2 13/1/2
f 13/1/2 12/1/2 14/1/2
f 9/2/2 13/2/2 15/2/2
f 13/2/2 14/2/2 15/2/2
f 15/2/2 14/2/2 16/2/2
f 19/2/3 18/2/3 17/2/3
f 20/2/3 18/2/3 19/2/3
f 21/2/3 19/2/3 17/2/3
f 21/3/3 20/3/3 19/3/3
f 22/2/3 18/2/3 20/2/3
f 22/3/3 20/3/3 21/3/3
f 23/2/3 21/2/3 17/2/3
f 23/2/3 22/2/3 21/2/3
f 24/2/3 18/2/3 22/2/3
f 24/2/3 22/2/3 23/2/3
f 25/2/3 23/2/3 17/2/3
f 25/3/3 24/3/3 23/3/3
f 26/2/3 18/2/3 24/2/3
f 26/3/3 24/3/3 25/3/3
f 27/2/3 25/2/3 17/2/3
f 27/2/3 26/2/3 25/2/3
f 28/2/3 18/2/3 26/2/3
f 28/2/3 26/2/3 27/2/3
f 29/2/4 30/2/4 33/2/4
f 30/1/4 31/1/4 34/1/4
f 33/2/4 30/2/4 34/2/4
f 31/2/4 32/2/4 35/2/4
f 34/1/4 31/1/4 35/1/4
f 35/2/4 32/2/4 36/2/4
f 39/2/5 38/2/5 37/2/5
f 40/2/5 38/2/5 39/2/5
f 41/2/6 42/2/6 43/2/6
f 43/2/6 42/2/6 44/2/6
f 44/2/6 42/2/6 45/2/6
f 45/2/6 42/2/6 46/2/6
f 44/2/6 45/2/6 47/2/6
f 45/3/6 46/3/6 47/3/6
f 46/2/6 42/2/6 48/2/6
f 47/3/6 46/3/6 48/3/6
f 41/2/6 43/2/6 49/2/6
f 43/3/6 44/3/6 49/3/6
f 47/2/6 48/2/6 50/2/6
f 49/3/6 44/3/6 50/3/6
f 44/2/6 47/2/6 50/2/6
f 41/2/6 49/2/6 51/2/6
f 49/2/6 50/2/6 51/2/6
f 48/2/6 42/2/6 52/2/6
f 51/2/6 50/2/6 52/2/6
f 50/2/6 48/2/6 52/2/6
