# MagicaVoxel @ Ephtracy

# group
o 

# material
mtllib Decor-3.mtl
usemtl palette

# normals
vn -1 0 0
vn 1 0 0
vn 0 0 1
vn 0 0 -1
vn 0 -1 0
vn 0 1 0

# texcoords
vt 0.474609 0.5
vt 0.478516 0.5
vt 0.533203 0.5

# verts
v 8.2 1 3.2
v 8.2 1 2.4
v 8.2 1.1 3.1
v 8.2 1.1 2.4
v 8.2 1.2 3.1
v 8.2 1.2 2.4
v 8.2 1.3 3.2
v 8.2 1.3 2.4
v 9.3 1 3.2
v 9.3 1 2.4
v 9.3 1.1 3.1
v 9.3 1.1 2.4
v 9.3 1.2 3.1
v 9.3 1.2 2.4
v 9.3 1.3 3.2
v 9.3 1.3 2.4
v 8.2 1 3.2
v 8.2 1.3 3.2
v 8.3 1.1 3.2
v 8.3 1.2 3.2
v 8.6 1.1 3.2
v 8.6 1.2 3.2
v 8.9 1.1 3.2
v 8.9 1.2 3.2
v 9.2 1.1 3.2
v 9.2 1.2 3.2
v 9.3 1 3.2
v 9.3 1.3 3.2
v 8.2 1 2.4
v 8.2 1.1 2.4
v 8.2 1.2 2.4
v 8.2 1.3 2.4
v 9.3 1 2.4
v 9.3 1.1 2.4
v 9.3 1.2 2.4
v 9.3 1.3 2.4
v 8.2 1 3.2
v 9.3 1 3.2
v 8.2 1 2.4
v 9.3 1 2.4
v 8.2 1.3 3.2
v 9.3 1.3 3.2
v 8.4 1.3 3.1
v 8.6 1.3 3.1
v 8.9 1.3 3
v 9.1 1.3 3
v 8.9 1.3 2.6
v 9.1 1.3 2.6
v 8.4 1.3 2.5
v 8.6 1.3 2.5
v 8.2 1.3 2.4
v 9.3 1.3 2.4

# faces
f 3/1/1 2/1/1 1/1/1
f 4/1/1 2/1/1 3/1/1
f 5/1/1 3/1/1 1/1/1
f 5/3/1 4/3/1 3/3/1
f 6/3/1 4/3/1 5/3/1
f 7/1/1 5/1/1 1/1/1
f 7/1/1 6/1/1 5/1/1
f 8/1/1 6/1/1 7/1/1
f 9/1/2 10/1/2 11/1/2
f 11/1/2 10/1/2 12/1/2
f 9/1/2 11/1/2 13/1/2
f 11/3/2 12/3/2 13/3/2
f 13/3/2 12/3/2 14/3/2
f 9/1/2 13/1/2 15/1/2
f 13/1/2 14/1/2 15/1/2
f 15/1/2 14/1/2 16/1/2
f 19/1/3 18/1/3 17/1/3
f 20/1/3 18/1/3 19/1/3
f 21/1/3 19/1/3 17/1/3
f 21/2/3 20/2/3 19/2/3
f 22/1/3 18/1/3 20/1/3
f 22/2/3 20/2/3 21/2/3
f 23/1/3 21/1/3 17/1/3
f 23/1/3 22/1/3 21/1/3
f 24/1/3 18/1/3 22/1/3
f 24/1/3 22/1/3 23/1/3
f 25/1/3 23/1/3 17/1/3
f 25/2/3 24/2/3 23/2/3
f 26/1/3 18/1/3 24/1/3
f 26/2/3 24/2/3 25/2/3
f 27/1/3 25/1/3 17/1/3
f 27/1/3 26/1/3 25/1/3
f 28/1/3 18/1/3 26/1/3
f 28/1/3 26/1/3 27/1/3
f 29/1/4 30/1/4 33/1/4
f 30/3/4 31/3/4 34/3/4
f 33/1/4 30/1/4 34/1/4
f 31/1/4 32/1/4 35/1/4
f 34/3/4 31/3/4 35/3/4
f 35/1/4 32/1/4 36/1/4
f 39/1/5 38/1/5 37/1/5
f 40/1/5 38/1/5 39/1/5
f 41/1/6 42/1/6 43/1/6
f 43/1/6 42/1/6 44/1/6
f 44/1/6 42/1/6 45/1/6
f 45/1/6 42/1/6 46/1/6
f 44/1/6 45/1/6 47/1/6
f 45/2/6 46/2/6 47/2/6
f 46/1/6 42/1/6 48/1/6
f 47/2/6 46/2/6 48/2/6
f 41/1/6 43/1/6 49/1/6
f 43/2/6 44/2/6 49/2/6
f 47/1/6 48/1/6 50/1/6
f 49/2/6 44/2/6 50/2/6
f 44/1/6 47/1/6 50/1/6
f 41/1/6 49/1/6 51/1/6
f 49/1/6 50/1/6 51/1/6
f 48/1/6 42/1/6 52/1/6
f 51/1/6 50/1/6 52/1/6
f 50/1/6 48/1/6 52/1/6
