# MagicaVoxel @ Ephtracy

# group
o 

# material
mtllib ConstructionMaterials-3.mtl
usemtl palette

# normals
vn -1 0 0
vn 1 0 0
vn 0 0 1
vn 0 0 -1
vn 0 -1 0
vn 0 1 0

# texcoords
vt 0.814453 0.5
vt 0.818359 0.5
vt 0.857422 0.5

# verts
v -22.3 0 12.1
v -22.3 0 12
v -22.3 3.5 12.1
v -22.3 3.5 12
v -22.2 1.6 12.2
v -22.2 1.6 12.1
v -22.2 1.8 12.2
v -22.2 1.8 12.1
v -22.1 1.6 12.2
v -22.1 1.6 12.1
v -22.1 1.7 12.2
v -22.1 1.7 12.1
v -21.9 1.7 12.2
v -21.9 1.7 12.1
v -21.9 1.8 12.2
v -21.9 1.8 12.1
v -20.2 0 12.1
v -20.2 0 12
v -20.2 3.5 12.1
v -20.2 3.5 12
v -22.2 1.6 12.2
v -22.2 1.8 12.2
v -22.1 1.6 12.2
v -22.1 1.7 12.2
v -21.9 1.7 12.2
v -21.9 1.8 12.2
v -22.3 0 12.1
v -22.3 3.5 12.1
v -22.2 1.6 12.1
v -22.2 1.8 12.1
v -22.1 1.6 12.1
v -22.1 1.7 12.1
v -22.1 2.2 12.1
v -22.1 3.3 12.1
v -21.9 1.7 12.1
v -21.9 1.8 12.1
v -20.4 2.2 12.1
v -20.4 3.3 12.1
v -20.2 0 12.1
v -20.2 3.5 12.1
v -22.3 0 12
v -22.3 3.5 12
v -22.1 2.2 12
v -22.1 3.3 12
v -20.4 2.2 12
v -20.4 3.3 12
v -20.2 0 12
v -20.2 3.5 12
v -22.3 0 12.1
v -20.2 0 12.1
v -22.3 0 12
v -20.2 0 12
v -22.2 1.6 12.2
v -22.1 1.6 12.2
v -22.2 1.6 12.1
v -22.1 1.6 12.1
v -22.1 1.7 12.2
v -21.9 1.7 12.2
v -22.1 1.7 12.1
v -21.9 1.7 12.1
v -22.2 1.8 12.2
v -21.9 1.8 12.2
v -22.2 1.8 12.1
v -21.9 1.8 12.1
v -22.3 3.5 12.1
v -20.2 3.5 12.1
v -22.3 3.5 12
v -20.2 3.5 12

# faces
f 3/1/1 2/1/1 1/1/1
f 4/1/1 2/1/1 3/1/1
f 7/3/1 6/3/1 5/3/1
f 8/3/1 6/3/1 7/3/1
f 9/3/2 10/3/2 11/3/2
f 11/3/2 10/3/2 12/3/2
f 13/3/2 14/3/2 15/3/2
f 15/3/2 14/3/2 16/3/2
f 17/1/2 18/1/2 19/1/2
f 19/1/2 18/1/2 20/1/2
f 23/3/3 22/3/3 21/3/3
f 24/3/3 22/3/3 23/3/3
f 25/3/3 22/3/3 24/3/3
f 26/3/3 22/3/3 25/3/3
f 29/1/3 28/1/3 27/1/3
f 30/1/3 28/1/3 29/1/3
f 31/1/3 29/1/3 27/1/3
f 33/1/3 28/1/3 30/1/3
f 34/1/3 28/1/3 33/1/3
f 35/1/3 32/1/3 31/1/3
f 36/1/3 33/1/3 30/1/3
f 37/2/3 34/2/3 33/2/3
f 37/1/3 36/1/3 35/1/3
f 37/1/3 33/1/3 36/1/3
f 38/1/3 28/1/3 34/1/3
f 38/2/3 34/2/3 37/2/3
f 39/1/3 37/1/3 35/1/3
f 39/1/3 31/1/3 27/1/3
f 39/1/3 38/1/3 37/1/3
f 39/1/3 35/1/3 31/1/3
f 40/1/3 28/1/3 38/1/3
f 40/1/3 38/1/3 39/1/3
f 41/1/4 42/1/4 43/1/4
f 43/1/4 42/1/4 44/1/4
f 41/1/4 43/1/4 45/1/4
f 43/2/4 44/2/4 45/2/4
f 44/1/4 42/1/4 46/1/4
f 45/2/4 44/2/4 46/2/4
f 41/1/4 45/1/4 47/1/4
f 45/1/4 46/1/4 47/1/4
f 46/1/4 42/1/4 48/1/4
f 47/1/4 46/1/4 48/1/4
f 51/1/5 50/1/5 49/1/5
f 52/1/5 50/1/5 51/1/5
f 55/3/5 54/3/5 53/3/5
f 56/3/5 54/3/5 55/3/5
f 59/3/5 58/3/5 57/3/5
f 60/3/5 58/3/5 59/3/5
f 61/3/6 62/3/6 63/3/6
f 63/3/6 62/3/6 64/3/6
f 65/1/6 66/1/6 67/1/6
f 67/1/6 66/1/6 68/1/6
