# MagicaVoxel @ Ephtracy

# group
o 

# material
mtllib ConstructionMaterials-1.mtl
usemtl palette

# normals
vn -1 0 0
vn 1 0 0
vn 0 0 1
vn 0 0 -1
vn 0 -1 0
vn 0 1 0

# texcoords
vt 0.787109 0.5
vt 0.861328 0.5

# verts
v -22.7 0 17.1
v -22.7 0 17
v -22.7 3.5 17.1
v -22.7 3.5 17
v -22.6 1.6 17.2
v -22.6 1.6 17.1
v -22.6 1.8 17.2
v -22.6 1.8 17.1
v -22.5 1.6 17.2
v -22.5 1.6 17.1
v -22.5 1.7 17.2
v -22.5 1.7 17.1
v -22.3 1.7 17.2
v -22.3 1.7 17.1
v -22.3 1.8 17.2
v -22.3 1.8 17.1
v -20.6 0 17.1
v -20.6 0 17
v -20.6 3.5 17.1
v -20.6 3.5 17
v -22.6 1.6 17.2
v -22.6 1.8 17.2
v -22.5 1.6 17.2
v -22.5 1.7 17.2
v -22.3 1.7 17.2
v -22.3 1.8 17.2
v -22.7 0 17.1
v -22.7 3.5 17.1
v -22.6 1.6 17.1
v -22.6 1.8 17.1
v -22.5 1.6 17.1
v -22.5 1.7 17.1
v -22.5 2.2 17.1
v -22.5 3.3 17.1
v -22.3 1.7 17.1
v -22.3 1.8 17.1
v -20.8 2.2 17.1
v -20.8 3.3 17.1
v -20.6 0 17.1
v -20.6 3.5 17.1
v -22.7 0 17
v -22.7 3.5 17
v -22.5 2.2 17
v -22.5 3.3 17
v -20.8 2.2 17
v -20.8 3.3 17
v -20.6 0 17
v -20.6 3.5 17
v -22.7 0 17.1
v -20.6 0 17.1
v -22.7 0 17
v -20.6 0 17
v -22.6 1.6 17.2
v -22.5 1.6 17.2
v -22.6 1.6 17.1
v -22.5 1.6 17.1
v -22.5 1.7 17.2
v -22.3 1.7 17.2
v -22.5 1.7 17.1
v -22.3 1.7 17.1
v -22.6 1.8 17.2
v -22.3 1.8 17.2
v -22.6 1.8 17.1
v -22.3 1.8 17.1
v -22.7 3.5 17.1
v -20.6 3.5 17.1
v -22.7 3.5 17
v -20.6 3.5 17

# faces
f 3/1/1 2/1/1 1/1/1
f 4/1/1 2/1/1 3/1/1
f 7/2/1 6/2/1 5/2/1
f 8/2/1 6/2/1 7/2/1
f 9/2/2 10/2/2 11/2/2
f 11/2/2 10/2/2 12/2/2
f 13/2/2 14/2/2 15/2/2
f 15/2/2 14/2/2 16/2/2
f 17/1/2 18/1/2 19/1/2
f 19/1/2 18/1/2 20/1/2
f 23/2/3 22/2/3 21/2/3
f 24/2/3 22/2/3 23/2/3
f 25/2/3 22/2/3 24/2/3
f 26/2/3 22/2/3 25/2/3
f 29/1/3 28/1/3 27/1/3
f 30/1/3 28/1/3 29/1/3
f 31/1/3 29/1/3 27/1/3
f 33/1/3 28/1/3 30/1/3
f 34/1/3 28/1/3 33/1/3
f 35/1/3 32/1/3 31/1/3
f 36/1/3 33/1/3 30/1/3
f 37/2/3 34/2/3 33/2/3
f 37/1/3 36/1/3 35/1/3
f 37/1/3 33/1/3 36/1/3
f 38/1/3 28/1/3 34/1/3
f 38/2/3 34/2/3 37/2/3
f 39/1/3 37/1/3 35/1/3
f 39/1/3 31/1/3 27/1/3
f 39/1/3 38/1/3 37/1/3
f 39/1/3 35/1/3 31/1/3
f 40/1/3 28/1/3 38/1/3
f 40/1/3 38/1/3 39/1/3
f 41/1/4 42/1/4 43/1/4
f 43/1/4 42/1/4 44/1/4
f 41/1/4 43/1/4 45/1/4
f 43/2/4 44/2/4 45/2/4
f 44/1/4 42/1/4 46/1/4
f 45/2/4 44/2/4 46/2/4
f 41/1/4 45/1/4 47/1/4
f 45/1/4 46/1/4 47/1/4
f 46/1/4 42/1/4 48/1/4
f 47/1/4 46/1/4 48/1/4
f 51/1/5 50/1/5 49/1/5
f 52/1/5 50/1/5 51/1/5
f 55/2/5 54/2/5 53/2/5
f 56/2/5 54/2/5 55/2/5
f 59/2/5 58/2/5 57/2/5
f 60/2/5 58/2/5 59/2/5
f 61/2/6 62/2/6 63/2/6
f 63/2/6 62/2/6 64/2/6
f 65/1/6 66/1/6 67/1/6
f 67/1/6 66/1/6 68/1/6
