# MagicaVoxel @ Ephtracy

# group
o 

# material
mtllib Animals-6.mtl
usemtl palette

# normals
vn -1 0 0
vn 1 0 0
vn 0 0 1
vn 0 0 -1
vn 0 -1 0
vn 0 1 0

# texcoords
vt 0.724609 0.5
vt 0.728516 0.5
vt 0.732422 0.5
vt 0.736328 0.5
vt 0.740234 0.5
vt 0.849609 0.5
vt 0.986328 0.5

# verts
v 8.7 0.2 0.7
v 8.7 0.2 0.2
v 8.7 0.6 0.7
v 8.7 0.6 0.2
v 8.8 0.2 0.8
v 8.8 0.2 0.7
v 8.8 0.2 0.2
v 8.8 0.2 0.1
v 8.8 0.6 0.7
v 8.8 0.6 0.2
v 8.8 1.7 0.8
v 8.8 1.7 0.1
v 8.9 0 0.8
v 8.9 0 0.5
v 8.9 0 0.4
v 8.9 0 0.1
v 8.9 0.1 0.8
v 8.9 0.1 0.5
v 8.9 0.1 0.4
v 8.9 0.1 0.1
v 8.9 0.7 0.9
v 8.9 0.7 0.8
v 8.9 0.7 0.1
v 8.9 0.7 0
v 8.9 1 0.9
v 8.9 1 0.8
v 8.9 1 0.1
v 8.9 1 0
v 8.9 1.7 0.7
v 8.9 1.7 0.2
v 8.9 1.8 0.7
v 8.9 1.8 0.2
v 9 0.1 0.7
v 9 0.1 0.6
v 9 0.1 0.3
v 9 0.1 0.2
v 9 0.2 0.7
v 9 0.2 0.6
v 9 0.2 0.3
v 9 0.2 0.2
v 9 1 0.9
v 9 1 0.8
v 9 1 0.1
v 9 1 0
v 9 1.3 0.9
v 9 1.3 0.8
v 9 1.3 0.1
v 9 1.3 0
v 9.1 0.1 0.7
v 9.1 0.1 0.6
v 9.1 0.1 0.3
v 9.1 0.1 0.2
v 9.1 0.2 0.7
v 9.1 0.2 0.6
v 9.1 0.2 0.3
v 9.1 0.2 0.2
v 9.3 0 0.8
v 9.3 0 0.5
v 9.3 0 0.4
v 9.3 0 0.1
v 9.3 0.1 0.8
v 9.3 0.1 0.5
v 9.3 0.1 0.4
v 9.3 0.1 0.1
v 9.3 0.7 0.9
v 9.3 0.7 0.8
v 9.3 0.7 0.1
v 9.3 0.7 0
v 9.3 1.2 0.8
v 9.3 1.2 0.1
v 9.3 1.3 0.9
v 9.3 1.3 0.8
v 9.3 1.3 0.1
v 9.3 1.3 0
v 9.4 0.2 0.8
v 9.4 0.2 0.1
v 9.4 1.2 0.8
v 9.4 1.2 0.6
v 9.4 1.2 0.3
v 9.4 1.2 0.1
v 9.4 1.3 0.8
v 9.4 1.3 0.6
v 9.4 1.3 0.3
v 9.4 1.3 0.1
v 9.4 1.4 0.7
v 9.4 1.4 0.6
v 9.4 1.4 0.5
v 9.4 1.4 0.4
v 9.4 1.4 0.3
v 9.4 1.4 0.2
v 9.4 1.5 0.7
v 9.4 1.5 0.6
v 9.4 1.5 0.3
v 9.4 1.5 0.2
v 9.4 1.6 0.6
v 9.4 1.6 0.5
v 9.4 1.6 0.4
v 9.4 1.6 0.3
v 9.4 1.7 0.8
v 9.4 1.7 0.7
v 9.4 1.7 0.5
v 9.4 1.7 0.4
v 9.4 1.7 0.2
v 9.4 1.7 0.1
v 9.4 1.8 0.7
v 9.4 1.8 0.2
v 9.5 1.2 0.6
v 9.5 1.2 0.3
v 9.5 1.3 0.6
v 9.5 1.3 0.3
v 9.6 1.3 0.6
v 9.6 1.3 0.3
v 9.6 1.4 0.6
v 9.6 1.4 0.3
v 8.9 0.7 0.9
v 8.9 1 0.9
v 9 1 0.9
v 9 1.3 0.9
v 9.3 0.7 0.9
v 9.3 1.3 0.9
v 8.8 0.2 0.8
v 8.8 1.7 0.8
v 8.9 0 0.8
v 8.9 0.1 0.8
v 8.9 0.2 0.8
v 8.9 0.5 0.8
v 8.9 0.7 0.8
v 8.9 1 0.8
v 9 1 0.8
v 9 1.3 0.8
v 9.3 0 0.8
v 9.3 0.1 0.8
v 9.3 0.5 0.8
v 9.3 0.7 0.8
v 9.3 1.2 0.8
v 9.3 1.3 0.8
v 9.4 0.2 0.8
v 9.4 1.2 0.8
v 9.4 1.3 0.8
v 9.4 1.7 0.8
v 8.7 0.2 0.7
v 8.7 0.6 0.7
v 8.8 0.2 0.7
v 8.8 0.6 0.7
v 8.9 1.7 0.7
v 8.9 1.8 0.7
v 9 0.1 0.7
v 9 0.2 0.7
v 9.1 0.1 0.7
v 9.1 0.2 0.7
v 9.4 1.7 0.7
v 9.4 1.8 0.7
v 9.4 1.2 0.6
v 9.4 1.3 0.6
v 9.4 1.4 0.6
v 9.5 1.2 0.6
v 9.5 1.3 0.6
v 9.6 1.3 0.6
v 9.6 1.4 0.6
v 8.9 0 0.4
v 8.9 0.1 0.4
v 9.3 0 0.4
v 9.3 0.1 0.4
v 9 0.1 0.3
v 9 0.2 0.3
v 9.1 0.1 0.3
v 9.1 0.2 0.3
v 9 0.1 0.6
v 9 0.2 0.6
v 9.1 0.1 0.6
v 9.1 0.2 0.6
v 8.9 0 0.5
v 8.9 0.1 0.5
v 9.3 0 0.5
v 9.3 0.1 0.5
v 9.4 1.2 0.3
v 9.4 1.3 0.3
v 9.4 1.4 0.3
v 9.5 1.2 0.3
v 9.5 1.3 0.3
v 9.6 1.3 0.3
v 9.6 1.4 0.3
v 8.7 0.2 0.2
v 8.7 0.6 0.2
v 8.8 0.2 0.2
v 8.8 0.6 0.2
v 8.9 1.7 0.2
v 8.9 1.8 0.2
v 9 0.1 0.2
v 9 0.2 0.2
v 9.1 0.1 0.2
v 9.1 0.2 0.2
v 9.4 1.7 0.2
v 9.4 1.8 0.2
v 8.8 0.2 0.1
v 8.8 1.7 0.1
v 8.9 0 0.1
v 8.9 0.1 0.1
v 8.9 0.2 0.1
v 8.9 0.5 0.1
v 8.9 0.7 0.1
v 8.9 1 0.1
v 9 1 0.1
v 9 1.3 0.1
v 9.3 0 0.1
v 9.3 0.1 0.1
v 9.3 0.5 0.1
v 9.3 0.7 0.1
v 9.3 1.2 0.1
v 9.3 1.3 0.1
v 9.4 0.2 0.1
v 9.4 1.2 0.1
v 9.4 1.3 0.1
v 9.4 1.7 0.1
v 8.9 0.7 0
v 8.9 1 0
v 9 1 0
v 9 1.3 0
v 9.3 0.7 0
v 9.3 1.3 0
v 8.9 0 0.8
v 9.3 0 0.8
v 8.9 0 0.5
v 9.3 0 0.5
v 8.9 0 0.4
v 9.3 0 0.4
v 8.9 0 0.1
v 9.3 0 0.1
v 8.8 0.2 0.8
v 8.9 0.2 0.8
v 9.4 0.2 0.8
v 8.7 0.2 0.7
v 8.8 0.2 0.7
v 8.9 0.2 0.7
v 9 0.2 0.7
v 9.1 0.2 0.7
v 9 0.2 0.6
v 9.1 0.2 0.6
v 9 0.2 0.3
v 9.1 0.2 0.3
v 8.7 0.2 0.2
v 8.8 0.2 0.2
v 8.9 0.2 0.2
v 9 0.2 0.2
v 9.1 0.2 0.2
v 8.8 0.2 0.1
v 8.9 0.2 0.1
v 9.4 0.2 0.1
v 8.9 0.7 0.9
v 9.3 0.7 0.9
v 8.9 0.7 0.8
v 9.3 0.7 0.8
v 8.9 0.7 0.1
v 9.3 0.7 0.1
v 8.9 0.7 0
v 9.3 0.7 0
v 9.4 1.2 0.6
v 9.5 1.2 0.6
v 9.4 1.2 0.3
v 9.5 1.2 0.3
v 9.5 1.3 0.6
v 9.6 1.3 0.6
v 9.5 1.3 0.3
v 9.6 1.3 0.3
v 8.9 0.1 0.8
v 9.3 0.1 0.8
v 9 0.1 0.7
v 9.1 0.1 0.7
v 9 0.1 0.6
v 9.1 0.1 0.6
v 8.9 0.1 0.5
v 9.3 0.1 0.5
v 8.9 0.1 0.4
v 9.3 0.1 0.4
v 9 0.1 0.3
v 9.1 0.1 0.3
v 9 0.1 0.2
v 9.1 0.1 0.2
v 8.9 0.1 0.1
v 9.3 0.1 0.1
v 8.7 0.6 0.7
v 8.8 0.6 0.7
v 8.7 0.6 0.2
v 8.8 0.6 0.2
v 8.9 1 0.9
v 9 1 0.9
v 8.9 1 0.8
v 9 1 0.8
v 8.9 1 0.1
v 9 1 0.1
v 8.9 1 0
v 9 1 0
v 9 1.3 0.9
v 9.3 1.3 0.9
v 9 1.3 0.8
v 9.3 1.3 0.8
v 9 1.3 0.1
v 9.3 1.3 0.1
v 9 1.3 0
v 9.3 1.3 0
v 9.4 1.4 0.6
v 9.6 1.4 0.6
v 9.4 1.4 0.5
v 9.4 1.4 0.4
v 9.4 1.4 0.3
v 9.6 1.4 0.3
v 8.8 1.7 0.8
v 9.4 1.7 0.8
v 8.9 1.7 0.7
v 9.4 1.7 0.7
v 8.9 1.7 0.2
v 9.4 1.7 0.2
v 8.8 1.7 0.1
v 9.4 1.7 0.1
v 8.9 1.8 0.7
v 9.4 1.8 0.7
v 8.9 1.8 0.2
v 9.4 1.8 0.2

# faces
f 3/1/1 2/1/1 1/1/1
f 4/1/1 2/1/1 3/1/1
f 9/1/1 6/1/1 5/1/1
f 10/1/1 8/1/1 7/1/1
f 11/1/1 9/1/1 5/1/1
f 11/1/1 10/1/1 9/1/1
f 12/1/1 8/1/1 10/1/1
f 12/1/1 10/1/1 11/1/1
f 17/6/1 14/6/1 13/6/1
f 18/6/1 14/6/1 17/6/1
f 19/6/1 16/6/1 15/6/1
f 20/6/1 16/6/1 19/6/1
f 25/1/1 22/1/1 21/1/1
f 26/1/1 22/1/1 25/1/1
f 27/1/1 24/1/1 23/1/1
f 28/1/1 24/1/1 27/1/1
f 31/1/1 30/1/1 29/1/1
f 32/1/1 30/1/1 31/1/1
f 37/6/1 34/6/1 33/6/1
f 38/6/1 34/6/1 37/6/1
f 39/6/1 36/6/1 35/6/1
f 40/6/1 36/6/1 39/6/1
f 45/1/1 42/1/1 41/1/1
f 46/1/1 42/1/1 45/1/1
f 47/1/1 44/1/1 43/1/1
f 48/1/1 44/1/1 47/1/1
f 49/6/2 50/6/2 53/6/2
f 53/6/2 50/6/2 54/6/2
f 51/6/2 52/6/2 55/6/2
f 55/6/2 52/6/2 56/6/2
f 57/6/2 58/6/2 61/6/2
f 61/6/2 58/6/2 62/6/2
f 59/6/2 60/6/2 63/6/2
f 63/6/2 60/6/2 64/6/2
f 65/1/2 66/1/2 69/1/2
f 67/1/2 68/1/2 70/1/2
f 65/1/2 69/1/2 71/1/2
f 71/1/2 69/1/2 72/1/2
f 70/1/2 68/1/2 73/1/2
f 73/1/2 68/1/2 74/1/2
f 75/2/2 76/2/2 77/2/2
f 77/2/2 76/2/2 78/2/2
f 78/2/2 76/2/2 79/2/2
f 79/2/2 76/2/2 80/2/2
f 77/3/2 78/3/2 81/3/2
f 81/3/2 78/3/2 82/3/2
f 79/3/2 80/3/2 83/3/2
f 83/3/2 80/3/2 84/3/2
f 81/1/2 82/1/2 85/1/2
f 85/1/2 82/1/2 86/1/2
f 83/1/2 84/1/2 89/1/2
f 89/1/2 84/1/2 90/1/2
f 81/1/2 85/1/2 91/1/2
f 85/5/2 86/5/2 91/5/2
f 86/5/2 87/5/2 91/5/2
f 91/5/2 87/5/2 92/5/2
f 89/5/2 90/5/2 93/5/2
f 88/5/2 89/5/2 93/5/2
f 90/1/2 84/1/2 94/1/2
f 93/5/2 90/5/2 94/5/2
f 92/5/2 87/5/2 95/5/2
f 91/7/2 92/7/2 95/7/2
f 87/1/2 88/1/2 96/1/2
f 95/5/2 87/5/2 96/5/2
f 88/5/2 93/5/2 97/5/2
f 96/1/2 88/1/2 97/1/2
f 93/7/2 94/7/2 98/7/2
f 97/5/2 93/5/2 98/5/2
f 81/1/2 91/1/2 99/1/2
f 91/7/2 95/7/2 100/7/2
f 99/1/2 91/1/2 100/1/2
f 95/7/2 96/7/2 100/7/2
f 96/1/2 97/1/2 101/1/2
f 100/7/2 96/7/2 101/7/2
f 97/7/2 98/7/2 102/7/2
f 101/1/2 97/1/2 102/1/2
f 94/1/2 84/1/2 103/1/2
f 102/7/2 98/7/2 103/7/2
f 98/7/2 94/7/2 103/7/2
f 103/1/2 84/1/2 104/1/2
f 100/1/2 101/1/2 105/1/2
f 101/1/2 102/1/2 105/1/2
f 102/1/2 103/1/2 105/1/2
f 105/1/2 103/1/2 106/1/2
f 107/4/2 108/4/2 109/4/2
f 109/4/2 108/4/2 110/4/2
f 111/6/2 112/6/2 113/6/2
f 113/6/2 112/6/2 114/6/2
f 117/1/3 116/1/3 115/1/3
f 119/1/3 117/1/3 115/1/3
f 119/1/3 118/1/3 117/1/3
f 120/1/3 118/1/3 119/1/3
f 125/1/3 122/1/3 121/1/3
f 126/1/3 122/1/3 125/1/3
f 127/1/3 122/1/3 126/1/3
f 128/1/3 122/1/3 127/1/3
f 129/1/3 122/1/3 128/1/3
f 130/1/3 122/1/3 129/1/3
f 131/6/3 124/6/3 123/6/3
f 132/6/3 124/6/3 131/6/3
f 133/2/3 126/2/3 125/2/3
f 133/1/3 127/1/3 126/1/3
f 134/1/3 127/1/3 133/1/3
f 136/1/3 122/1/3 130/1/3
f 137/2/3 135/2/3 134/2/3
f 137/2/3 133/2/3 125/2/3
f 137/2/3 134/2/3 133/2/3
f 138/3/3 136/3/3 135/3/3
f 138/2/3 135/2/3 137/2/3
f 139/1/3 122/1/3 136/1/3
f 139/3/3 136/3/3 138/3/3
f 140/1/3 122/1/3 139/1/3
f 143/1/3 142/1/3 141/1/3
f 144/1/3 142/1/3 143/1/3
f 149/6/3 148/6/3 147/6/3
f 150/6/3 148/6/3 149/6/3
f 151/1/3 146/1/3 145/1/3
f 152/1/3 146/1/3 151/1/3
f 156/4/3 154/4/3 153/4/3
f 157/6/3 155/6/3 154/6/3
f 157/4/3 154/4/3 156/4/3
f 158/6/3 155/6/3 157/6/3
f 159/6/3 155/6/3 158/6/3
f 162/6/3 161/6/3 160/6/3
f 163/6/3 161/6/3 162/6/3
f 166/6/3 165/6/3 164/6/3
f 167/6/3 165/6/3 166/6/3
f 168/6/4 169/6/4 170/6/4
f 170/6/4 169/6/4 171/6/4
f 172/6/4 173/6/4 174/6/4
f 174/6/4 173/6/4 175/6/4
f 176/4/4 177/4/4 179/4/4
f 177/6/4 178/6/4 180/6/4
f 179/4/4 177/4/4 180/4/4
f 180/6/4 178/6/4 181/6/4
f 181/6/4 178/6/4 182/6/4
f 183/1/4 184/1/4 185/1/4
f 185/1/4 184/1/4 186/1/4
f 189/6/4 190/6/4 191/6/4
f 191/6/4 190/6/4 192/6/4
f 187/1/4 188/1/4 193/1/4
f 193/1/4 188/1/4 194/1/4
f 195/1/4 196/1/4 199/1/4
f 199/1/4 196/1/4 200/1/4
f 200/1/4 196/1/4 201/1/4
f 201/1/4 196/1/4 202/1/4
f 202/1/4 196/1/4 203/1/4
f 203/1/4 196/1/4 204/1/4
f 197/6/4 198/6/4 205/6/4
f 205/6/4 198/6/4 206/6/4
f 199/2/4 200/2/4 207/2/4
f 200/1/4 201/1/4 207/1/4
f 207/1/4 201/1/4 208/1/4
f 204/1/4 196/1/4 210/1/4
f 208/2/4 209/2/4 211/2/4
f 199/2/4 207/2/4 211/2/4
f 207/2/4 208/2/4 211/2/4
f 209/3/4 210/3/4 212/3/4
f 211/2/4 209/2/4 212/2/4
f 210/1/4 196/1/4 213/1/4
f 212/3/4 210/3/4 213/3/4
f 213/1/4 196/1/4 214/1/4
f 215/1/4 216/1/4 217/1/4
f 215/1/4 217/1/4 219/1/4
f 217/1/4 218/1/4 219/1/4
f 219/1/4 218/1/4 220/1/4
f 223/6/5 222/6/5 221/6/5
f 224/6/5 222/6/5 223/6/5
f 227/6/5 226/6/5 225/6/5
f 228/6/5 226/6/5 227/6/5
f 233/1/5 230/1/5 229/1/5
f 234/2/5 231/2/5 230/2/5
f 234/1/5 230/1/5 233/1/5
f 235/2/5 231/2/5 234/2/5
f 236/2/5 231/2/5 235/2/5
f 237/2/5 234/2/5 233/2/5
f 237/2/5 235/2/5 234/2/5
f 238/2/5 231/2/5 236/2/5
f 239/2/5 237/2/5 233/2/5
f 239/2/5 238/2/5 237/2/5
f 240/2/5 231/2/5 238/2/5
f 240/2/5 238/2/5 239/2/5
f 241/1/5 233/1/5 232/1/5
f 242/2/5 239/2/5 233/2/5
f 242/1/5 233/1/5 241/1/5
f 243/2/5 239/2/5 242/2/5
f 244/2/5 239/2/5 243/2/5
f 245/2/5 231/2/5 240/2/5
f 246/1/5 243/1/5 242/1/5
f 247/2/5 244/2/5 243/2/5
f 247/1/5 243/1/5 246/1/5
f 247/2/5 245/2/5 244/2/5
f 248/2/5 231/2/5 245/2/5
f 248/2/5 245/2/5 247/2/5
f 251/1/5 250/1/5 249/1/5
f 252/1/5 250/1/5 251/1/5
f 255/1/5 254/1/5 253/1/5
f 256/1/5 254/1/5 255/1/5
f 259/4/5 258/4/5 257/4/5
f 260/4/5 258/4/5 259/4/5
f 263/6/5 262/6/5 261/6/5
f 264/6/5 262/6/5 263/6/5
f 265/6/6 266/6/6 267/6/6
f 267/6/6 266/6/6 268/6/6
f 265/6/6 267/6/6 269/6/6
f 268/6/6 266/6/6 270/6/6
f 265/6/6 269/6/6 271/6/6
f 269/6/6 270/6/6 271/6/6
f 270/6/6 266/6/6 272/6/6
f 271/6/6 270/6/6 272/6/6
f 273/6/6 274/6/6 275/6/6
f 275/6/6 274/6/6 276/6/6
f 273/6/6 275/6/6 277/6/6
f 276/6/6 274/6/6 278/6/6
f 273/6/6 277/6/6 279/6/6
f 277/6/6 278/6/6 279/6/6
f 278/6/6 274/6/6 280/6/6
f 279/6/6 278/6/6 280/6/6
f 281/1/6 282/1/6 283/1/6
f 283/1/6 282/1/6 284/1/6
f 285/1/6 286/1/6 287/1/6
f 287/1/6 286/1/6 288/1/6
f 289/1/6 290/1/6 291/1/6
f 291/1/6 290/1/6 292/1/6
f 293/1/6 294/1/6 295/1/6
f 295/1/6 294/1/6 296/1/6
f 297/1/6 298/1/6 299/1/6
f 299/1/6 298/1/6 300/1/6
f 301/6/6 302/6/6 303/6/6
f 303/6/6 302/6/6 304/6/6
f 304/6/6 302/6/6 305/6/6
f 305/6/6 302/6/6 306/6/6
f 307/1/6 308/1/6 309/1/6
f 309/1/6 308/1/6 310/1/6
f 307/1/6 309/1/6 311/1/6
f 307/1/6 311/1/6 313/1/6
f 311/1/6 312/1/6 313/1/6
f 313/1/6 312/1/6 314/1/6
f 315/1/6 316/1/6 317/1/6
f 317/1/6 316/1/6 318/1/6
