# MagicaVoxel @ Ephtracy

# group
o 

# material
mtllib Animals-4.mtl
usemtl palette

# normals
vn -1 0 0
vn 1 0 0
vn 0 0 1
vn 0 0 -1
vn 0 -1 0
vn 0 1 0

# texcoords
vt 0.724609 0.5
vt 0.728516 0.5
vt 0.732422 0.5
vt 0.736328 0.5
vt 0.740234 0.5
vt 0.849609 0.5
vt 0.986328 0.5

# verts
v 0.9 1.7 -1.2
v 0.9 1.7 -1.9
v 0.9 2.2 -1.2
v 0.9 2.2 -1.9
v 1 2.2 -1.3
v 1 2.2 -1.8
v 1 2.3 -1.3
v 1 2.3 -1.8
v 1.5 1.7 -1.2
v 1.5 1.7 -1.4
v 1.5 1.7 -1.7
v 1.5 1.7 -1.9
v 1.5 1.8 -1.2
v 1.5 1.8 -1.4
v 1.5 1.8 -1.7
v 1.5 1.8 -1.9
v 1.5 1.9 -1.3
v 1.5 1.9 -1.4
v 1.5 1.9 -1.5
v 1.5 1.9 -1.6
v 1.5 1.9 -1.7
v 1.5 1.9 -1.8
v 1.5 2 -1.3
v 1.5 2 -1.4
v 1.5 2 -1.7
v 1.5 2 -1.8
v 1.5 2.1 -1.4
v 1.5 2.1 -1.5
v 1.5 2.1 -1.6
v 1.5 2.1 -1.7
v 1.5 2.2 -1.2
v 1.5 2.2 -1.3
v 1.5 2.2 -1.5
v 1.5 2.2 -1.6
v 1.5 2.2 -1.8
v 1.5 2.2 -1.9
v 1.5 2.3 -1.3
v 1.5 2.3 -1.8
v 1.6 1.7 -1.4
v 1.6 1.7 -1.7
v 1.6 1.8 -1.4
v 1.6 1.8 -1.7
v 1.7 1.8 -1.4
v 1.7 1.8 -1.7
v 1.7 1.9 -1.4
v 1.7 1.9 -1.7
v 0.9 1.7 -1.2
v 0.9 2.2 -1.2
v 1.4 1.7 -1.2
v 1.4 1.8 -1.2
v 1.5 1.7 -1.2
v 1.5 1.8 -1.2
v 1.5 2.2 -1.2
v 1 2.2 -1.3
v 1 2.3 -1.3
v 1.5 2.2 -1.3
v 1.5 2.3 -1.3
v 1.5 1.7 -1.4
v 1.5 1.8 -1.4
v 1.5 1.9 -1.4
v 1.6 1.7 -1.4
v 1.6 1.8 -1.4
v 1.7 1.8 -1.4
v 1.7 1.9 -1.4
v 1.5 1.7 -1.7
v 1.5 1.8 -1.7
v 1.5 1.9 -1.7
v 1.6 1.7 -1.7
v 1.6 1.8 -1.7
v 1.7 1.8 -1.7
v 1.7 1.9 -1.7
v 1 2.2 -1.8
v 1 2.3 -1.8
v 1.5 2.2 -1.8
v 1.5 2.3 -1.8
v 0.9 1.7 -1.9
v 0.9 2.2 -1.9
v 1.4 1.7 -1.9
v 1.4 1.8 -1.9
v 1.5 1.7 -1.9
v 1.5 1.8 -1.9
v 1.5 2.2 -1.9
v 0.9 1.7 -1.2
v 1.4 1.7 -1.2
v 1.5 1.7 -1.2
v 1.4 1.7 -1.4
v 1.5 1.7 -1.4
v 1.6 1.7 -1.4
v 1.4 1.7 -1.7
v 1.5 1.7 -1.7
v 1.6 1.7 -1.7
v 0.9 1.7 -1.9
v 1.4 1.7 -1.9
v 1.5 1.7 -1.9
v 1.6 1.8 -1.4
v 1.7 1.8 -1.4
v 1.6 1.8 -1.7
v 1.7 1.8 -1.7
v 1.5 1.9 -1.4
v 1.7 1.9 -1.4
v 1.5 1.9 -1.5
v 1.5 1.9 -1.6
v 1.5 1.9 -1.7
v 1.7 1.9 -1.7
v 0.9 2.2 -1.2
v 1.5 2.2 -1.2
v 1 2.2 -1.3
v 1.5 2.2 -1.3
v 1 2.2 -1.8
v 1.5 2.2 -1.8
v 0.9 2.2 -1.9
v 1.5 2.2 -1.9
v 1 2.3 -1.3
v 1.5 2.3 -1.3
v 1 2.3 -1.8
v 1.5 2.3 -1.8

# faces
f 3/1/1 2/1/1 1/1/1
f 4/1/1 2/1/1 3/1/1
f 7/1/1 6/1/1 5/1/1
f 8/1/1 6/1/1 7/1/1
f 9/3/2 10/3/2 13/3/2
f 13/3/2 10/3/2 14/3/2
f 11/3/2 12/3/2 15/3/2
f 15/3/2 12/3/2 16/3/2
f 13/1/2 14/1/2 17/1/2
f 17/1/2 14/1/2 18/1/2
f 15/1/2 16/1/2 21/1/2
f 21/1/2 16/1/2 22/1/2
f 13/1/2 17/1/2 23/1/2
f 17/5/2 18/5/2 23/5/2
f 18/5/2 19/5/2 23/5/2
f 23/5/2 19/5/2 24/5/2
f 21/5/2 22/5/2 25/5/2
f 20/5/2 21/5/2 25/5/2
f 22/1/2 16/1/2 26/1/2
f 25/5/2 22/5/2 26/5/2
f 24/5/2 19/5/2 27/5/2
f 23/7/2 24/7/2 27/7/2
f 19/1/2 20/1/2 28/1/2
f 27/5/2 19/5/2 28/5/2
f 20/5/2 25/5/2 29/5/2
f 28/1/2 20/1/2 29/1/2
f 25/7/2 26/7/2 30/7/2
f 29/5/2 25/5/2 30/5/2
f 13/1/2 23/1/2 31/1/2
f 23/7/2 27/7/2 32/7/2
f 31/1/2 23/1/2 32/1/2
f 27/7/2 28/7/2 32/7/2
f 28/1/2 29/1/2 33/1/2
f 32/7/2 28/7/2 33/7/2
f 29/7/2 30/7/2 34/7/2
f 33/1/2 29/1/2 34/1/2
f 26/1/2 16/1/2 35/1/2
f 34/7/2 30/7/2 35/7/2
f 30/7/2 26/7/2 35/7/2
f 35/1/2 16/1/2 36/1/2
f 32/1/2 33/1/2 37/1/2
f 33/1/2 34/1/2 37/1/2
f 34/1/2 35/1/2 37/1/2
f 37/1/2 35/1/2 38/1/2
f 39/4/2 40/4/2 41/4/2
f 41/4/2 40/4/2 42/4/2
f 43/6/2 44/6/2 45/6/2
f 45/6/2 44/6/2 46/6/2
f 49/1/3 48/1/3 47/1/3
f 50/1/3 48/1/3 49/1/3
f 51/3/3 50/3/3 49/3/3
f 52/1/3 48/1/3 50/1/3
f 52/3/3 50/3/3 51/3/3
f 53/1/3 48/1/3 52/1/3
f 56/1/3 55/1/3 54/1/3
f 57/1/3 55/1/3 56/1/3
f 61/4/3 59/4/3 58/4/3
f 62/6/3 60/6/3 59/6/3
f 62/4/3 59/4/3 61/4/3
f 63/6/3 60/6/3 62/6/3
f 64/6/3 60/6/3 63/6/3
f 65/4/4 66/4/4 68/4/4
f 66/6/4 67/6/4 69/6/4
f 68/4/4 66/4/4 69/4/4
f 69/6/4 67/6/4 70/6/4
f 70/6/4 67/6/4 71/6/4
f 72/1/4 73/1/4 74/1/4
f 74/1/4 73/1/4 75/1/4
f 76/1/4 77/1/4 78/1/4
f 78/1/4 77/1/4 79/1/4
f 78/3/4 79/3/4 80/3/4
f 79/1/4 77/1/4 81/1/4
f 80/3/4 79/3/4 81/3/4
f 81/1/4 77/1/4 82/1/4
f 86/1/5 84/1/5 83/1/5
f 86/3/5 85/3/5 84/3/5
f 87/3/5 85/3/5 86/3/5
f 89/1/5 86/1/5 83/1/5
f 89/2/5 87/2/5 86/2/5
f 90/4/5 88/4/5 87/4/5
f 90/2/5 87/2/5 89/2/5
f 91/4/5 88/4/5 90/4/5
f 92/1/5 89/1/5 83/1/5
f 93/3/5 90/3/5 89/3/5
f 93/1/5 89/1/5 92/1/5
f 94/3/5 90/3/5 93/3/5
f 97/6/5 96/6/5 95/6/5
f 98/6/5 96/6/5 97/6/5
f 99/6/6 100/6/6 101/6/6
f 101/6/6 100/6/6 102/6/6
f 102/6/6 100/6/6 103/6/6
f 103/6/6 100/6/6 104/6/6
f 105/1/6 106/1/6 107/1/6
f 107/1/6 106/1/6 108/1/6
f 105/1/6 107/1/6 109/1/6
f 105/1/6 109/1/6 111/1/6
f 109/1/6 110/1/6 111/1/6
f 111/1/6 110/1/6 112/1/6
f 113/1/6 114/1/6 115/1/6
f 115/1/6 114/1/6 116/1/6
