# MagicaVoxel @ Ephtracy

# group
o 

# material
mtllib Animals-5.mtl
usemtl palette

# normals
vn -1 0 0
vn 1 0 0
vn 0 0 1
vn 0 0 -1
vn 0 -1 0
vn 0 1 0

# texcoords
vt 0.724609 0.5
vt 0.728516 0.5

# verts
v 0.6 0.5 -1.3
v 0.6 0.5 -1.8
v 0.6 0.9 -1.3
v 0.6 0.9 -1.8
v 0.7 0.5 -1.2
v 0.7 0.5 -1.3
v 0.7 0.5 -1.8
v 0.7 0.5 -1.9
v 0.7 0.9 -1.3
v 0.7 0.9 -1.8
v 0.7 1.5 -1.2
v 0.7 1.5 -1.9
v 1.3 0.5 -1.2
v 1.3 0.5 -1.9
v 1.3 1.5 -1.2
v 1.3 1.5 -1.9
v 0.7 0.5 -1.2
v 0.7 1.5 -1.2
v 0.8 0.5 -1.2
v 0.8 0.8 -1.2
v 1.2 0.8 -1.2
v 1.2 1.5 -1.2
v 1.3 0.5 -1.2
v 1.3 1.5 -1.2
v 0.6 0.5 -1.3
v 0.6 0.9 -1.3
v 0.7 0.5 -1.3
v 0.7 0.9 -1.3
v 0.6 0.5 -1.8
v 0.6 0.9 -1.8
v 0.7 0.5 -1.8
v 0.7 0.9 -1.8
v 0.7 0.5 -1.9
v 0.7 1.5 -1.9
v 0.8 0.5 -1.9
v 0.8 0.8 -1.9
v 1.2 0.8 -1.9
v 1.2 1.5 -1.9
v 1.3 0.5 -1.9
v 1.3 1.5 -1.9
v 0.7 0.5 -1.2
v 0.8 0.5 -1.2
v 1.3 0.5 -1.2
v 0.6 0.5 -1.3
v 0.7 0.5 -1.3
v 0.8 0.5 -1.3
v 0.6 0.5 -1.8
v 0.7 0.5 -1.8
v 0.8 0.5 -1.8
v 0.7 0.5 -1.9
v 0.8 0.5 -1.9
v 1.3 0.5 -1.9
v 0.6 0.9 -1.3
v 0.7 0.9 -1.3
v 0.6 0.9 -1.8
v 0.7 0.9 -1.8
v 0.7 1.5 -1.2
v 1.2 1.5 -1.2
v 1.3 1.5 -1.2
v 0.7 1.5 -1.9
v 1.2 1.5 -1.9
v 1.3 1.5 -1.9

# faces
f 3/1/1 2/1/1 1/1/1
f 4/1/1 2/1/1 3/1/1
f 9/1/1 6/1/1 5/1/1
f 10/1/1 8/1/1 7/1/1
f 11/1/1 9/1/1 5/1/1
f 11/1/1 10/1/1 9/1/1
f 12/1/1 8/1/1 10/1/1
f 12/1/1 10/1/1 11/1/1
f 13/2/2 14/2/2 15/2/2
f 15/2/2 14/2/2 16/2/2
f 19/1/3 18/1/3 17/1/3
f 20/1/3 18/1/3 19/1/3
f 21/2/3 20/2/3 19/2/3
f 21/1/3 18/1/3 20/1/3
f 22/1/3 18/1/3 21/1/3
f 23/2/3 21/2/3 19/2/3
f 23/2/3 22/2/3 21/2/3
f 24/2/3 22/2/3 23/2/3
f 27/1/3 26/1/3 25/1/3
f 28/1/3 26/1/3 27/1/3
f 29/1/4 30/1/4 31/1/4
f 31/1/4 30/1/4 32/1/4
f 33/1/4 34/1/4 35/1/4
f 35/1/4 34/1/4 36/1/4
f 35/2/4 36/2/4 37/2/4
f 36/1/4 34/1/4 37/1/4
f 37/1/4 34/1/4 38/1/4
f 35/2/4 37/2/4 39/2/4
f 37/2/4 38/2/4 39/2/4
f 39/2/4 38/2/4 40/2/4
f 45/1/5 42/1/5 41/1/5
f 46/2/5 43/2/5 42/2/5
f 46/1/5 42/1/5 45/1/5
f 47/1/5 45/1/5 44/1/5
f 48/2/5 46/2/5 45/2/5
f 48/1/5 45/1/5 47/1/5
f 49/2/5 43/2/5 46/2/5
f 49/2/5 46/2/5 48/2/5
f 50/1/5 49/1/5 48/1/5
f 51/2/5 43/2/5 49/2/5
f 51/1/5 49/1/5 50/1/5
f 52/2/5 43/2/5 51/2/5
f 53/1/6 54/1/6 55/1/6
f 55/1/6 54/1/6 56/1/6
f 57/1/6 58/1/6 60/1/6
f 58/2/6 59/2/6 61/2/6
f 60/1/6 58/1/6 61/1/6
f 61/2/6 59/2/6 62/2/6
