# MagicaVoxel @ Ephtracy

# group
o 

# material
mtllib Decor-40.mtl
usemtl palette

# normals
vn -1 0 0
vn 1 0 0
vn 0 0 1
vn 0 0 -1
vn 0 -1 0
vn 0 1 0

# texcoords
vt 0.908203 0.5
vt 0.939453 0.5
vt 0.943359 0.5

# verts
v 9.6 0 16.8
v 9.6 0 15.6
v 9.6 0.1 16.7
v 9.6 0.1 15.7
v 9.6 3.4 16.7
v 9.6 3.4 15.7
v 9.6 3.5 16.8
v 9.6 3.5 15.6
v 10.9 0.1 16.6
v 10.9 0.1 15.7
v 10.9 0.4 16.6
v 10.9 0.4 16.1
v 10.9 0.4 15.7
v 11 0.1 16.8
v 11 0.1 16.7
v 11 0.4 16.7
v 11 0.4 16.1
v 11 0.5 16.1
v 11 0.5 15.7
v 11 0.8 16.3
v 11 0.8 15.7
v 11 0.9 16.3
v 11 0.9 15.7
v 11 1.8 16.3
v 11 1.8 15.7
v 11 1.9 16.3
v 11 1.9 15.7
v 11 2.4 16.8
v 11 2.4 16.7
v 11 2.4 15.7
v 11 2.5 16.8
v 11 2.5 16.7
v 11 2.5 15.7
v 11 2.9 16.3
v 11 2.9 15.7
v 11 3 16.3
v 11 3 15.7
v 11 3.4 16.8
v 11 3.4 16.7
v 11 3.4 15.7
v 9.7 0.1 16.8
v 9.7 0.1 16.7
v 9.7 0.4 16.7
v 9.7 0.4 16.1
v 9.7 0.5 16.1
v 9.7 0.5 15.7
v 9.7 0.8 16.3
v 9.7 0.8 15.7
v 9.7 0.9 16.3
v 9.7 0.9 15.7
v 9.7 1.8 16.3
v 9.7 1.8 15.7
v 9.7 1.9 16.3
v 9.7 1.9 15.7
v 9.7 2.4 16.8
v 9.7 2.4 16.7
v 9.7 2.4 15.7
v 9.7 2.5 16.8
v 9.7 2.5 16.7
v 9.7 2.5 15.7
v 9.7 2.9 16.3
v 9.7 2.9 15.7
v 9.7 3 16.3
v 9.7 3 15.7
v 9.7 3.4 16.8
v 9.7 3.4 16.7
v 9.7 3.4 15.7
v 9.8 0.1 16.6
v 9.8 0.1 15.7
v 9.8 0.4 16.6
v 9.8 0.4 16.1
v 9.8 0.4 15.7
v 11.1 0 16.8
v 11.1 0 15.6
v 11.1 0.1 16.7
v 11.1 0.1 15.7
v 11.1 3.4 16.7
v 11.1 3.4 15.7
v 11.1 3.5 16.8
v 11.1 3.5 15.6
v 9.6 0 16.8
v 9.6 3.5 16.8
v 9.7 0.1 16.8
v 9.7 2.4 16.8
v 9.7 2.5 16.8
v 9.7 3.4 16.8
v 11 0.1 16.8
v 11 2.4 16.8
v 11 2.5 16.8
v 11 3.4 16.8
v 11.1 0 16.8
v 11.1 3.5 16.8
v 9.7 0.1 16.7
v 9.7 0.4 16.7
v 11 0.1 16.7
v 11 0.4 16.7
v 9.7 0.8 16.3
v 9.7 0.9 16.3
v 9.7 1.8 16.3
v 9.7 1.9 16.3
v 9.7 2.9 16.3
v 9.7 3 16.3
v 11 0.8 16.3
v 11 0.9 16.3
v 11 1.8 16.3
v 11 1.9 16.3
v 11 2.9 16.3
v 11 3 16.3
v 9.7 0.4 16.1
v 9.7 0.5 16.1
v 9.8 0.4 16.1
v 10.9 0.4 16.1
v 11 0.4 16.1
v 11 0.5 16.1
v 9.7 0.5 15.7
v 9.7 0.8 15.7
v 9.7 0.9 15.7
v 9.7 1.8 15.7
v 9.7 1.9 15.7
v 9.7 2.4 15.7
v 9.7 2.5 15.7
v 9.7 2.9 15.7
v 9.7 3 15.7
v 9.7 3.4 15.7
v 9.8 0.1 15.7
v 9.8 0.4 15.7
v 10.9 0.1 15.7
v 10.9 0.4 15.7
v 11 0.5 15.7
v 11 0.8 15.7
v 11 0.9 15.7
v 11 1.8 15.7
v 11 1.9 15.7
v 11 2.4 15.7
v 11 2.5 15.7
v 11 2.9 15.7
v 11 3 15.7
v 11 3.4 15.7
v 9.8 0.1 16.6
v 9.8 0.4 16.6
v 10.9 0.1 16.6
v 10.9 0.4 16.6
v 9.6 0 15.6
v 9.6 3.5 15.6
v 9.7 0.1 15.6
v 9.7 3.4 15.6
v 11 0.1 15.6
v 11 3.4 15.6
v 11.1 0 15.6
v 11.1 3.5 15.6
v 9.6 0 16.8
v 11.1 0 16.8
v 9.7 0 16.7
v 9.8 0 16.7
v 10.9 0 16.7
v 11 0 16.7
v 9.7 0 15.7
v 9.8 0 15.7
v 10.9 0 15.7
v 11 0 15.7
v 9.6 0 15.6
v 11.1 0 15.6
v 9.8 0.4 16.1
v 10.9 0.4 16.1
v 9.8 0.4 15.7
v 10.9 0.4 15.7
v 9.7 0.8 16.3
v 11 0.8 16.3
v 9.7 0.8 15.7
v 11 0.8 15.7
v 9.7 1.8 16.3
v 11 1.8 16.3
v 9.7 1.8 15.7
v 11 1.8 15.7
v 9.7 2.4 16.8
v 11 2.4 16.8
v 9.7 2.4 16.7
v 11 2.4 16.7
v 9.7 2.4 15.7
v 11 2.4 15.7
v 9.7 2.9 16.3
v 11 2.9 16.3
v 9.7 2.9 15.7
v 11 2.9 15.7
v 9.7 3.4 16.8
v 11 3.4 16.8
v 9.7 3.4 16.7
v 11 3.4 16.7
v 9.7 3.4 15.7
v 11 3.4 15.7
v 9.7 0.1 16.8
v 11 0.1 16.8
v 9.7 0.1 16.7
v 11 0.1 16.7
v 9.8 0.1 16.6
v 10.9 0.1 16.6
v 9.8 0.1 15.7
v 10.9 0.1 15.7
v 9.7 0.4 16.7
v 11 0.4 16.7
v 9.8 0.4 16.6
v 10.9 0.4 16.6
v 9.7 0.4 16.1
v 9.8 0.4 16.1
v 10.9 0.4 16.1
v 11 0.4 16.1
v 9.7 0.5 16.1
v 11 0.5 16.1
v 9.7 0.5 15.7
v 11 0.5 15.7
v 9.7 0.9 16.3
v 11 0.9 16.3
v 9.7 0.9 15.7
v 11 0.9 15.7
v 9.7 1.9 16.3
v 11 1.9 16.3
v 9.7 1.9 15.7
v 11 1.9 15.7
v 9.7 2.5 16.8
v 11 2.5 16.8
v 9.7 2.5 16.7
v 11 2.5 16.7
v 9.7 2.5 15.7
v 11 2.5 15.7
v 9.7 3 16.3
v 11 3 16.3
v 9.7 3 15.7
v 11 3 15.7
v 9.6 3.5 16.8
v 11.1 3.5 16.8
v 9.7 3.5 16.7
v 11 3.5 16.7
v 9.7 3.5 15.7
v 11 3.5 15.7
v 9.6 3.5 15.6
v 11.1 3.5 15.6

# faces
f 3/3/1 2/3/1 1/3/1
f 4/3/1 2/3/1 3/3/1
f 5/3/1 3/3/1 1/3/1
f 5/2/1 4/2/1 3/2/1
f 6/3/1 2/3/1 4/3/1
f 6/2/1 4/2/1 5/2/1
f 7/3/1 5/3/1 1/3/1
f 7/3/1 6/3/1 5/3/1
f 8/3/1 2/3/1 6/3/1
f 8/3/1 6/3/1 7/3/1
f 11/2/1 10/2/1 9/2/1
f 12/2/1 10/2/1 11/2/1
f 13/2/1 10/2/1 12/2/1
f 16/3/1 15/3/1 14/3/1
f 18/2/1 17/2/1 16/2/1
f 20/2/1 18/2/1 16/2/1
f 20/2/1 19/2/1 18/2/1
f 21/2/1 19/2/1 20/2/1
f 22/2/1 20/2/1 16/2/1
f 24/2/1 22/2/1 16/2/1
f 24/2/1 23/2/1 22/2/1
f 25/2/1 23/2/1 24/2/1
f 26/2/1 24/2/1 16/2/1
f 28/3/1 16/3/1 14/3/1
f 29/2/1 27/2/1 26/2/1
f 29/3/1 16/3/1 28/3/1
f 29/2/1 26/2/1 16/2/1
f 30/2/1 27/2/1 29/2/1
f 34/2/1 33/2/1 32/2/1
f 35/2/1 33/2/1 34/2/1
f 36/2/1 34/2/1 32/2/1
f 38/3/1 32/3/1 31/3/1
f 39/2/1 37/2/1 36/2/1
f 39/3/1 32/3/1 38/3/1
f 39/2/1 36/2/1 32/2/1
f 40/2/1 37/2/1 39/2/1
f 41/3/2 42/3/2 43/3/2
f 43/2/2 44/2/2 45/2/2
f 43/2/2 45/2/2 47/2/2
f 45/2/2 46/2/2 47/2/2
f 47/2/2 46/2/2 48/2/2
f 43/2/2 47/2/2 49/2/2
f 43/2/2 49/2/2 51/2/2
f 49/2/2 50/2/2 51/2/2
f 51/2/2 50/2/2 52/2/2
f 43/2/2 51/2/2 53/2/2
f 41/3/2 43/3/2 55/3/2
f 53/2/2 54/2/2 56/2/2
f 55/3/2 43/3/2 56/3/2
f 43/2/2 53/2/2 56/2/2
f 56/2/2 54/2/2 57/2/2
f 59/2/2 60/2/2 61/2/2
f 61/2/2 60/2/2 62/2/2
f 59/2/2 61/2/2 63/2/2
f 58/3/2 59/3/2 65/3/2
f 63/2/2 64/2/2 66/2/2
f 65/3/2 59/3/2 66/3/2
f 59/2/2 63/2/2 66/2/2
f 66/2/2 64/2/2 67/2/2
f 68/2/2 69/2/2 70/2/2
f 70/2/2 69/2/2 71/2/2
f 71/2/2 69/2/2 72/2/2
f 73/3/2 74/3/2 75/3/2
f 75/3/2 74/3/2 76/3/2
f 73/3/2 75/3/2 77/3/2
f 75/2/2 76/2/2 77/2/2
f 76/3/2 74/3/2 78/3/2
f 77/2/2 76/2/2 78/2/2
f 73/3/2 77/3/2 79/3/2
f 77/3/2 78/3/2 79/3/2
f 78/3/2 74/3/2 80/3/2
f 79/3/2 78/3/2 80/3/2
f 83/3/3 82/3/3 81/3/3
f 84/3/3 82/3/3 83/3/3
f 85/3/3 82/3/3 84/3/3
f 86/3/3 82/3/3 85/3/3
f 87/3/3 83/3/3 81/3/3
f 88/2/3 85/2/3 84/2/3
f 89/2/3 85/2/3 88/2/3
f 90/3/3 82/3/3 86/3/3
f 91/3/3 89/3/3 88/3/3
f 91/3/3 90/3/3 89/3/3
f 91/3/3 87/3/3 81/3/3
f 91/3/3 88/3/3 87/3/3
f 92/3/3 82/3/3 90/3/3
f 92/3/3 90/3/3 91/3/3
f 95/2/3 94/2/3 93/2/3
f 96/2/3 94/2/3 95/2/3
f 103/2/3 98/2/3 97/2/3
f 104/2/3 98/2/3 103/2/3
f 105/2/3 100/2/3 99/2/3
f 106/2/3 100/2/3 105/2/3
f 107/2/3 102/2/3 101/2/3
f 108/2/3 102/2/3 107/2/3
f 111/2/3 110/2/3 109/2/3
f 112/2/3 110/2/3 111/2/3
f 113/2/3 110/2/3 112/2/3
f 114/2/3 110/2/3 113/2/3
f 127/2/3 126/2/3 125/2/3
f 128/2/3 126/2/3 127/2/3
f 129/2/3 116/2/3 115/2/3
f 130/2/3 116/2/3 129/2/3
f 131/2/3 118/2/3 117/2/3
f 132/2/3 118/2/3 131/2/3
f 133/2/3 120/2/3 119/2/3
f 134/2/3 120/2/3 133/2/3
f 135/2/3 122/2/3 121/2/3
f 136/2/3 122/2/3 135/2/3
f 137/2/3 124/2/3 123/2/3
f 138/2/3 124/2/3 137/2/3
f 139/2/4 140/2/4 141/2/4
f 141/2/4 140/2/4 142/2/4
f 143/3/4 144/3/4 145/3/4
f 145/3/4 144/3/4 146/3/4
f 143/3/4 145/3/4 147/3/4
f 145/2/4 146/2/4 147/2/4
f 146/3/4 144/3/4 148/3/4
f 147/2/4 146/2/4 148/2/4
f 143/3/4 147/3/4 149/3/4
f 147/3/4 148/3/4 149/3/4
f 148/3/4 144/3/4 150/3/4
f 149/3/4 148/3/4 150/3/4
f 153/3/5 152/3/5 151/3/5
f 154/3/5 152/3/5 153/3/5
f 155/3/5 152/3/5 154/3/5
f 156/3/5 152/3/5 155/3/5
f 157/3/5 153/3/5 151/3/5
f 157/1/5 154/1/5 153/1/5
f 158/2/5 155/2/5 154/2/5
f 158/1/5 154/1/5 157/1/5
f 159/1/5 156/1/5 155/1/5
f 159/2/5 155/2/5 158/2/5
f 160/3/5 152/3/5 156/3/5
f 160/1/5 156/1/5 159/1/5
f 161/3/5 159/3/5 158/3/5
f 161/3/5 158/3/5 157/3/5
f 161/3/5 160/3/5 159/3/5
f 161/3/5 157/3/5 151/3/5
f 162/3/5 152/3/5 160/3/5
f 162/3/5 160/3/5 161/3/5
f 165/2/5 164/2/5 163/2/5
f 166/2/5 164/2/5 165/2/5
f 169/2/5 168/2/5 167/2/5
f 170/2/5 168/2/5 169/2/5
f 173/2/5 172/2/5 171/2/5
f 174/2/5 172/2/5 173/2/5
f 177/2/5 176/2/5 175/2/5
f 178/2/5 176/2/5 177/2/5
f 179/2/5 178/2/5 177/2/5
f 180/2/5 178/2/5 179/2/5
f 183/2/5 182/2/5 181/2/5
f 184/2/5 182/2/5 183/2/5
f 187/3/5 186/3/5 185/3/5
f 188/3/5 186/3/5 187/3/5
f 189/2/5 188/2/5 187/2/5
f 190/2/5 188/2/5 189/2/5
f 191/3/6 192/3/6 193/3/6
f 193/3/6 192/3/6 194/3/6
f 195/2/6 196/2/6 197/2/6
f 197/2/6 196/2/6 198/2/6
f 199/2/6 200/2/6 201/2/6
f 201/2/6 200/2/6 202/2/6
f 199/2/6 201/2/6 203/2/6
f 203/2/6 201/2/6 204/2/6
f 202/2/6 200/2/6 205/2/6
f 205/2/6 200/2/6 206/2/6
f 207/2/6 208/2/6 209/2/6
f 209/2/6 208/2/6 210/2/6
f 211/2/6 212/2/6 213/2/6
f 213/2/6 212/2/6 214/2/6
f 215/2/6 216/2/6 217/2/6
f 217/2/6 216/2/6 218/2/6
f 219/2/6 220/2/6 221/2/6
f 221/2/6 220/2/6 222/2/6
f 221/2/6 222/2/6 223/2/6
f 223/2/6 222/2/6 224/2/6
f 225/2/6 226/2/6 227/2/6
f 227/2/6 226/2/6 228/2/6
f 229/3/6 230/3/6 231/3/6
f 231/3/6 230/3/6 232/3/6
f 229/3/6 231/3/6 233/3/6
f 231/2/6 232/2/6 233/2/6
f 232/3/6 230/3/6 234/3/6
f 233/2/6 232/2/6 234/2/6
f 229/3/6 233/3/6 235/3/6
f 233/3/6 234/3/6 235/3/6
f 234/3/6 230/3/6 236/3/6
f 235/3/6 234/3/6 236/3/6
