# MagicaVoxel @ Ephtracy

# group
o 

# material
mtllib Decor-28.mtl
usemtl palette

# normals
vn -1 0 0
vn 1 0 0
vn 0 0 1
vn 0 0 -1
vn 0 -1 0
vn 0 1 0

# texcoords
vt 0.720703 0.5
vt 0.724609 0.5

# verts
v 4.2 4.9 -4.2
v 4.2 4.9 -4.5
v 4.2 6.6 -4.2
v 4.2 6.6 -4.5
v 4.3 4.9 -4.1
v 4.3 4.9 -4.2
v 4.3 4.9 -4.5
v 4.3 4.9 -4.6
v 4.3 6.6 -4.1
v 4.3 6.6 -4.2
v 4.3 6.6 -4.5
v 4.3 6.6 -4.6
v 4.6 4.9 -4.2
v 4.6 4.9 -4.3
v 4.6 4.9 -4.5
v 4.6 6.6 -4.2
v 4.6 6.6 -4.3
v 4.6 6.6 -4.5
v 4.3 4.9 -4.2
v 4.3 4.9 -4.5
v 4.3 6.6 -4.2
v 4.3 6.6 -4.5
v 4.6 4.9 -4.1
v 4.6 4.9 -4.2
v 4.6 4.9 -4.5
v 4.6 4.9 -4.6
v 4.6 6.6 -4.1
v 4.6 6.6 -4.2
v 4.6 6.6 -4.5
v 4.6 6.6 -4.6
v 4.7 4.9 -4.2
v 4.7 4.9 -4.3
v 4.7 4.9 -4.5
v 4.7 6.6 -4.2
v 4.7 6.6 -4.3
v 4.7 6.6 -4.5
v 4.3 4.9 -4.1
v 4.3 6.6 -4.1
v 4.5 4.9 -4.1
v 4.5 6.6 -4.1
v 4.6 4.9 -4.1
v 4.6 6.6 -4.1
v 4.2 4.9 -4.2
v 4.2 6.6 -4.2
v 4.3 4.9 -4.2
v 4.3 6.6 -4.2
v 4.6 4.9 -4.2
v 4.6 6.6 -4.2
v 4.7 4.9 -4.2
v 4.7 6.6 -4.2
v 4.3 4.9 -4.5
v 4.3 6.6 -4.5
v 4.6 4.9 -4.5
v 4.6 6.6 -4.5
v 4.3 4.9 -4.2
v 4.3 6.6 -4.2
v 4.5 4.9 -4.2
v 4.5 6.6 -4.2
v 4.6 4.9 -4.2
v 4.6 6.6 -4.2
v 4.2 4.9 -4.5
v 4.2 6.6 -4.5
v 4.3 4.9 -4.5
v 4.3 6.6 -4.5
v 4.6 4.9 -4.5
v 4.6 6.6 -4.5
v 4.7 4.9 -4.5
v 4.7 6.6 -4.5
v 4.3 4.9 -4.6
v 4.3 6.6 -4.6
v 4.6 4.9 -4.6
v 4.6 6.6 -4.6
v 4.3 4.9 -4.1
v 4.5 4.9 -4.1
v 4.6 4.9 -4.1
v 4.2 4.9 -4.2
v 4.3 4.9 -4.2
v 4.5 4.9 -4.2
v 4.6 4.9 -4.2
v 4.7 4.9 -4.2
v 4.6 4.9 -4.3
v 4.7 4.9 -4.3
v 4.2 4.9 -4.5
v 4.3 4.9 -4.5
v 4.6 4.9 -4.5
v 4.7 4.9 -4.5
v 4.3 4.9 -4.6
v 4.6 4.9 -4.6
v 4.3 6.6 -4.1
v 4.5 6.6 -4.1
v 4.6 6.6 -4.1
v 4.2 6.6 -4.2
v 4.3 6.6 -4.2
v 4.5 6.6 -4.2
v 4.6 6.6 -4.2
v 4.7 6.6 -4.2
v 4.6 6.6 -4.3
v 4.7 6.6 -4.3
v 4.2 6.6 -4.5
v 4.3 6.6 -4.5
v 4.6 6.6 -4.5
v 4.7 6.6 -4.5
v 4.3 6.6 -4.6
v 4.6 6.6 -4.6

# faces
f 3/1/1 2/1/1 1/1/1
f 4/1/1 2/1/1 3/1/1
f 9/1/1 6/1/1 5/1/1
f 10/1/1 6/1/1 9/1/1
f 11/1/1 8/1/1 7/1/1
f 12/1/1 8/1/1 11/1/1
f 16/2/1 14/2/1 13/2/1
f 17/1/1 15/1/1 14/1/1
f 17/2/1 14/2/1 16/2/1
f 18/1/1 15/1/1 17/1/1
f 19/1/2 20/1/2 21/1/2
f 21/1/2 20/1/2 22/1/2
f 23/2/2 24/2/2 27/2/2
f 27/2/2 24/2/2 28/2/2
f 25/1/2 26/1/2 29/1/2
f 29/1/2 26/1/2 30/1/2
f 31/2/2 32/2/2 34/2/2
f 32/1/2 33/1/2 35/1/2
f 34/2/2 32/2/2 35/2/2
f 35/1/2 33/1/2 36/1/2
f 39/1/3 38/1/3 37/1/3
f 40/1/3 38/1/3 39/1/3
f 41/2/3 40/2/3 39/2/3
f 42/2/3 40/2/3 41/2/3
f 45/1/3 44/1/3 43/1/3
f 46/1/3 44/1/3 45/1/3
f 49/2/3 48/2/3 47/2/3
f 50/2/3 48/2/3 49/2/3
f 53/1/3 52/1/3 51/1/3
f 54/1/3 52/1/3 53/1/3
f 55/1/4 56/1/4 57/1/4
f 57/1/4 56/1/4 58/1/4
f 57/2/4 58/2/4 59/2/4
f 59/2/4 58/2/4 60/2/4
f 61/1/4 62/1/4 63/1/4
f 63/1/4 62/1/4 64/1/4
f 65/1/4 66/1/4 67/1/4
f 67/1/4 66/1/4 68/1/4
f 69/1/4 70/1/4 71/1/4
f 71/1/4 70/1/4 72/1/4
f 77/1/5 74/1/5 73/1/5
f 78/2/5 75/2/5 74/2/5
f 78/1/5 74/1/5 77/1/5
f 79/2/5 75/2/5 78/2/5
f 81/2/5 80/2/5 79/2/5
f 82/2/5 80/2/5 81/2/5
f 83/1/5 77/1/5 76/1/5
f 84/1/5 77/1/5 83/1/5
f 85/1/5 82/1/5 81/1/5
f 86/1/5 82/1/5 85/1/5
f 87/1/5 85/1/5 84/1/5
f 88/1/5 85/1/5 87/1/5
f 89/1/6 90/1/6 93/1/6
f 90/2/6 91/2/6 94/2/6
f 93/1/6 90/1/6 94/1/6
f 94/2/6 91/2/6 95/2/6
f 95/2/6 96/2/6 97/2/6
f 97/2/6 96/2/6 98/2/6
f 92/1/6 93/1/6 99/1/6
f 99/1/6 93/1/6 100/1/6
f 97/1/6 98/1/6 101/1/6
f 101/1/6 98/1/6 102/1/6
f 100/1/6 101/1/6 103/1/6
f 103/1/6 101/1/6 104/1/6
