# MagicaVoxel @ Ephtracy

# group
o 

# material
mtllib Decor-27.mtl
usemtl palette

# normals
vn -1 0 0
vn 1 0 0
vn 0 0 1
vn 0 0 -1
vn 0 -1 0
vn 0 1 0

# texcoords
vt 0.720703 0.5
vt 0.724609 0.5

# verts
v 6.3 4.9 -4.2
v 6.3 4.9 -4.5
v 6.3 5.5 -4.2
v 6.3 5.5 -4.5
v 6.4 4.9 -4.1
v 6.4 4.9 -4.2
v 6.4 4.9 -4.5
v 6.4 4.9 -4.6
v 6.4 5.5 -4.1
v 6.4 5.5 -4.2
v 6.4 5.5 -4.5
v 6.4 5.5 -4.6
v 6.7 4.9 -4.2
v 6.7 4.9 -4.3
v 6.7 4.9 -4.5
v 6.7 5.1 -4.2
v 6.7 5.1 -4.3
v 6.7 5.1 -4.5
v 6.4 4.9 -4.2
v 6.4 4.9 -4.5
v 6.4 5.4 -4.2
v 6.4 5.4 -4.5
v 6.7 4.9 -4.1
v 6.7 4.9 -4.2
v 6.7 4.9 -4.5
v 6.7 4.9 -4.6
v 6.7 5.1 -4.1
v 6.7 5.1 -4.2
v 6.7 5.1 -4.5
v 6.7 5.1 -4.6
v 6.7 5.4 -4.1
v 6.7 5.4 -4.2
v 6.7 5.4 -4.5
v 6.7 5.4 -4.6
v 6.7 5.5 -4.1
v 6.7 5.5 -4.2
v 6.7 5.5 -4.5
v 6.7 5.5 -4.6
v 6.8 4.9 -4.2
v 6.8 4.9 -4.3
v 6.8 4.9 -4.5
v 6.8 5 -4.2
v 6.8 5 -4.3
v 6.8 5 -4.5
v 6.9 5 -4.2
v 6.9 5 -4.5
v 6.9 5.1 -4.1
v 6.9 5.1 -4.2
v 6.9 5.1 -4.5
v 6.9 5.1 -4.6
v 6.9 5.4 -4.1
v 6.9 5.4 -4.2
v 6.9 5.4 -4.5
v 6.9 5.4 -4.6
v 6.9 5.5 -4.2
v 6.9 5.5 -4.5
v 6.4 4.9 -4.1
v 6.4 5.5 -4.1
v 6.6 4.9 -4.1
v 6.6 5.1 -4.1
v 6.7 4.9 -4.1
v 6.7 5.1 -4.1
v 6.7 5.4 -4.1
v 6.7 5.5 -4.1
v 6.9 5.1 -4.1
v 6.9 5.4 -4.1
v 6.3 4.9 -4.2
v 6.3 5.5 -4.2
v 6.4 4.9 -4.2
v 6.4 5.5 -4.2
v 6.7 4.9 -4.2
v 6.7 5.1 -4.2
v 6.7 5.4 -4.2
v 6.7 5.5 -4.2
v 6.8 4.9 -4.2
v 6.8 5 -4.2
v 6.8 5.1 -4.2
v 6.9 5 -4.2
v 6.9 5.1 -4.2
v 6.9 5.4 -4.2
v 6.9 5.5 -4.2
v 6.4 4.9 -4.5
v 6.4 5.4 -4.5
v 6.7 4.9 -4.5
v 6.7 5.1 -4.5
v 6.9 5.1 -4.5
v 6.9 5.4 -4.5
v 6.4 4.9 -4.2
v 6.4 5.4 -4.2
v 6.6 4.9 -4.2
v 6.6 5.1 -4.2
v 6.7 4.9 -4.2
v 6.7 5.1 -4.2
v 6.8 5.1 -4.2
v 6.9 5.1 -4.2
v 6.9 5.4 -4.2
v 6.3 4.9 -4.5
v 6.3 5.5 -4.5
v 6.4 4.9 -4.5
v 6.4 5.5 -4.5
v 6.7 4.9 -4.5
v 6.7 5.1 -4.5
v 6.7 5.4 -4.5
v 6.7 5.5 -4.5
v 6.8 4.9 -4.5
v 6.8 5 -4.5
v 6.9 5 -4.5
v 6.9 5.1 -4.5
v 6.9 5.4 -4.5
v 6.9 5.5 -4.5
v 6.4 4.9 -4.6
v 6.4 5.5 -4.6
v 6.7 4.9 -4.6
v 6.7 5.1 -4.6
v 6.7 5.4 -4.6
v 6.7 5.5 -4.6
v 6.9 5.1 -4.6
v 6.9 5.4 -4.6
v 6.4 4.9 -4.1
v 6.6 4.9 -4.1
v 6.7 4.9 -4.1
v 6.3 4.9 -4.2
v 6.4 4.9 -4.2
v 6.6 4.9 -4.2
v 6.7 4.9 -4.2
v 6.8 4.9 -4.2
v 6.7 4.9 -4.3
v 6.8 4.9 -4.3
v 6.3 4.9 -4.5
v 6.4 4.9 -4.5
v 6.7 4.9 -4.5
v 6.8 4.9 -4.5
v 6.4 4.9 -4.6
v 6.7 4.9 -4.6
v 6.8 5 -4.2
v 6.9 5 -4.2
v 6.8 5 -4.3
v 6.8 5 -4.5
v 6.9 5 -4.5
v 6.7 5.1 -4.1
v 6.9 5.1 -4.1
v 6.7 5.1 -4.2
v 6.8 5.1 -4.2
v 6.9 5.1 -4.2
v 6.7 5.1 -4.5
v 6.9 5.1 -4.5
v 6.7 5.1 -4.6
v 6.9 5.1 -4.6
v 6.4 5.4 -4.2
v 6.9 5.4 -4.2
v 6.4 5.4 -4.5
v 6.9 5.4 -4.5
v 6.7 5.1 -4.2
v 6.8 5.1 -4.2
v 6.9 5.1 -4.2
v 6.7 5.1 -4.3
v 6.8 5.1 -4.3
v 6.7 5.1 -4.5
v 6.9 5.1 -4.5
v 6.7 5.4 -4.1
v 6.9 5.4 -4.1
v 6.7 5.4 -4.2
v 6.9 5.4 -4.2
v 6.7 5.4 -4.5
v 6.9 5.4 -4.5
v 6.7 5.4 -4.6
v 6.9 5.4 -4.6
v 6.4 5.5 -4.1
v 6.7 5.5 -4.1
v 6.3 5.5 -4.2
v 6.4 5.5 -4.2
v 6.7 5.5 -4.2
v 6.9 5.5 -4.2
v 6.3 5.5 -4.5
v 6.4 5.5 -4.5
v 6.7 5.5 -4.5
v 6.9 5.5 -4.5
v 6.4 5.5 -4.6
v 6.7 5.5 -4.6

# faces
f 3/1/1 2/1/1 1/1/1
f 4/1/1 2/1/1 3/1/1
f 9/1/1 6/1/1 5/1/1
f 10/1/1 6/1/1 9/1/1
f 11/1/1 8/1/1 7/1/1
f 12/1/1 8/1/1 11/1/1
f 16/2/1 14/2/1 13/2/1
f 17/1/1 15/1/1 14/1/1
f 17/2/1 14/2/1 16/2/1
f 18/1/1 15/1/1 17/1/1
f 19/1/2 20/1/2 21/1/2
f 21/1/2 20/1/2 22/1/2
f 23/2/2 24/2/2 27/2/2
f 27/2/2 24/2/2 28/2/2
f 25/1/2 26/1/2 29/1/2
f 29/1/2 26/1/2 30/1/2
f 31/1/2 32/1/2 35/1/2
f 35/1/2 32/1/2 36/1/2
f 33/1/2 34/1/2 37/1/2
f 37/1/2 34/1/2 38/1/2
f 39/2/2 40/2/2 42/2/2
f 40/1/2 41/1/2 43/1/2
f 42/2/2 40/2/2 43/2/2
f 43/1/2 41/1/2 44/1/2
f 45/1/2 46/1/2 48/1/2
f 48/1/2 46/1/2 49/1/2
f 47/1/2 48/1/2 51/1/2
f 51/1/2 48/1/2 52/1/2
f 49/1/2 50/1/2 53/1/2
f 53/1/2 50/1/2 54/1/2
f 52/1/2 53/1/2 55/1/2
f 55/1/2 53/1/2 56/1/2
f 59/1/3 58/1/3 57/1/3
f 60/1/3 58/1/3 59/1/3
f 61/2/3 60/2/3 59/2/3
f 62/1/3 58/1/3 60/1/3
f 62/2/3 60/2/3 61/2/3
f 63/1/3 58/1/3 62/1/3
f 64/1/3 58/1/3 63/1/3
f 65/1/3 63/1/3 62/1/3
f 66/1/3 63/1/3 65/1/3
f 69/1/3 68/1/3 67/1/3
f 70/1/3 68/1/3 69/1/3
f 75/2/3 72/2/3 71/2/3
f 76/2/3 72/2/3 75/2/3
f 77/2/3 72/2/3 76/2/3
f 78/1/3 77/1/3 76/1/3
f 79/1/3 77/1/3 78/1/3
f 80/1/3 74/1/3 73/1/3
f 81/1/3 74/1/3 80/1/3
f 84/1/3 83/1/3 82/1/3
f 85/1/3 83/1/3 84/1/3
f 86/1/3 83/1/3 85/1/3
f 87/1/3 83/1/3 86/1/3
f 88/1/4 89/1/4 90/1/4
f 90/1/4 89/1/4 91/1/4
f 90/2/4 91/2/4 92/2/4
f 91/1/4 89/1/4 93/1/4
f 92/2/4 91/2/4 93/2/4
f 93/1/4 89/1/4 94/1/4
f 94/1/4 89/1/4 95/1/4
f 95/1/4 89/1/4 96/1/4
f 97/1/4 98/1/4 99/1/4
f 99/1/4 98/1/4 100/1/4
f 101/1/4 102/1/4 105/1/4
f 105/1/4 102/1/4 106/1/4
f 106/1/4 102/1/4 107/1/4
f 107/1/4 102/1/4 108/1/4
f 103/1/4 104/1/4 109/1/4
f 109/1/4 104/1/4 110/1/4
f 111/1/4 112/1/4 113/1/4
f 113/1/4 112/1/4 114/1/4
f 114/1/4 112/1/4 115/1/4
f 115/1/4 112/1/4 116/1/4
f 114/1/4 115/1/4 117/1/4
f 117/1/4 115/1/4 118/1/4
f 123/1/5 120/1/5 119/1/5
f 124/2/5 121/2/5 120/2/5
f 124/1/5 120/1/5 123/1/5
f 125/2/5 121/2/5 124/2/5
f 127/2/5 126/2/5 125/2/5
f 128/2/5 126/2/5 127/2/5
f 129/1/5 123/1/5 122/1/5
f 130/1/5 123/1/5 129/1/5
f 131/1/5 128/1/5 127/1/5
f 132/1/5 128/1/5 131/1/5
f 133/1/5 131/1/5 130/1/5
f 134/1/5 131/1/5 133/1/5
f 137/1/5 136/1/5 135/1/5
f 138/1/5 136/1/5 137/1/5
f 139/1/5 136/1/5 138/1/5
f 142/1/5 141/1/5 140/1/5
f 143/1/5 141/1/5 142/1/5
f 144/1/5 141/1/5 143/1/5
f 147/1/5 146/1/5 145/1/5
f 148/1/5 146/1/5 147/1/5
f 151/1/5 150/1/5 149/1/5
f 152/1/5 150/1/5 151/1/5
f 153/2/6 154/2/6 156/2/6
f 154/1/6 155/1/6 157/1/6
f 156/2/6 154/2/6 157/2/6
f 156/1/6 157/1/6 158/1/6
f 157/1/6 155/1/6 159/1/6
f 158/1/6 157/1/6 159/1/6
f 160/1/6 161/1/6 162/1/6
f 162/1/6 161/1/6 163/1/6
f 164/1/6 165/1/6 166/1/6
f 166/1/6 165/1/6 167/1/6
f 168/1/6 169/1/6 171/1/6
f 171/1/6 169/1/6 172/1/6
f 170/1/6 171/1/6 174/1/6
f 172/1/6 173/1/6 174/1/6
f 171/1/6 172/1/6 174/1/6
f 174/1/6 173/1/6 175/1/6
f 175/1/6 173/1/6 176/1/6
f 176/1/6 173/1/6 177/1/6
f 175/1/6 176/1/6 178/1/6
f 178/1/6 176/1/6 179/1/6
