# MagicaVoxel @ Ephtracy

# group
o 

# material
mtllib ConstructionMaterials-72.mtl
usemtl palette

# normals
vn -1 0 0
vn 1 0 0
vn 0 0 1
vn 0 0 -1
vn 0 -1 0
vn 0 1 0

# texcoords
vt 0.876953 0.5
vt 0.880859 0.5
vt 0.884766 0.5
vt 0.892578 0.5

# verts
v 17.3 2 -5.2
v 17.3 2 -5.3
v 17.3 2 -5.4
v 17.3 2.3 -5.2
v 17.3 2.3 -5.3
v 17.3 2.6 -5.1
v 17.3 2.6 -5.2
v 17.3 2.9 -5.1
v 17.3 2.9 -5.2
v 17.3 2.9 -5.4
v 17.4 0 -5.3
v 17.4 0 -5.6
v 17.4 0.1 -5.3
v 17.4 0.1 -5.6
v 17.4 2 -5.4
v 17.4 2 -5.5
v 17.4 2.8 -5.4
v 17.4 2.8 -5.5
v 17.5 0.1 -5.4
v 17.5 0.1 -5.5
v 17.5 0.6 -5.4
v 17.5 0.6 -5.5
v 17.5 2 -5.4
v 17.5 2 -5.5
v 17.7 2.1 -5.2
v 17.7 2.1 -5.3
v 17.7 2.3 -5.2
v 17.7 2.3 -5.3
v 17.7 2.6 -5.1
v 17.7 2.6 -5.2
v 17.7 2.8 -5.1
v 17.7 2.8 -5.2
v 17.7 2.8 -5.3
v 17.4 2.1 -5.2
v 17.4 2.1 -5.3
v 17.4 2.3 -5.2
v 17.4 2.3 -5.3
v 17.4 2.6 -5.1
v 17.4 2.6 -5.2
v 17.4 2.8 -5.1
v 17.4 2.8 -5.2
v 17.4 2.8 -5.3
v 17.6 0.1 -5.4
v 17.6 0.1 -5.5
v 17.6 0.6 -5.4
v 17.6 0.6 -5.5
v 17.6 2 -5.4
v 17.6 2 -5.5
v 17.7 0 -5.3
v 17.7 0 -5.6
v 17.7 0.1 -5.3
v 17.7 0.1 -5.6
v 17.7 2 -5.4
v 17.7 2 -5.5
v 17.7 2.8 -5.4
v 17.7 2.8 -5.5
v 17.8 2 -5.2
v 17.8 2 -5.3
v 17.8 2 -5.4
v 17.8 2.3 -5.2
v 17.8 2.3 -5.3
v 17.8 2.6 -5.1
v 17.8 2.6 -5.2
v 17.8 2.9 -5.1
v 17.8 2.9 -5.2
v 17.8 2.9 -5.4
v 17.3 2.6 -5.1
v 17.3 2.9 -5.1
v 17.4 2.6 -5.1
v 17.4 2.8 -5.1
v 17.7 2.6 -5.1
v 17.7 2.8 -5.1
v 17.8 2.6 -5.1
v 17.8 2.9 -5.1
v 17.3 2 -5.2
v 17.3 2.3 -5.2
v 17.3 2.6 -5.2
v 17.4 2.1 -5.2
v 17.4 2.3 -5.2
v 17.4 2.6 -5.2
v 17.7 2.1 -5.2
v 17.7 2.3 -5.2
v 17.7 2.6 -5.2
v 17.8 2 -5.2
v 17.8 2.3 -5.2
v 17.8 2.6 -5.2
v 17.4 0 -5.3
v 17.4 0.1 -5.3
v 17.4 2.1 -5.3
v 17.4 2.3 -5.3
v 17.4 2.8 -5.3
v 17.5 2.2 -5.3
v 17.5 2.3 -5.3
v 17.5 2.4 -5.3
v 17.5 2.5 -5.3
v 17.5 2.6 -5.3
v 17.5 2.7 -5.3
v 17.6 2.2 -5.3
v 17.6 2.3 -5.3
v 17.6 2.4 -5.3
v 17.6 2.5 -5.3
v 17.6 2.6 -5.3
v 17.6 2.7 -5.3
v 17.7 0 -5.3
v 17.7 0.1 -5.3
v 17.7 2.1 -5.3
v 17.7 2.3 -5.3
v 17.7 2.8 -5.3
v 17.5 0.1 -5.4
v 17.5 0.6 -5.4
v 17.5 2 -5.4
v 17.6 0.1 -5.4
v 17.6 0.6 -5.4
v 17.6 2 -5.4
v 17.3 2 -5.4
v 17.3 2.9 -5.4
v 17.4 2 -5.4
v 17.4 2.8 -5.4
v 17.7 2 -5.4
v 17.7 2.8 -5.4
v 17.8 2 -5.4
v 17.8 2.9 -5.4
v 17.4 2 -5.5
v 17.4 2.8 -5.5
v 17.5 0.1 -5.5
v 17.5 0.6 -5.5
v 17.5 2 -5.5
v 17.6 0.1 -5.5
v 17.6 0.6 -5.5
v 17.6 2 -5.5
v 17.7 2 -5.5
v 17.7 2.8 -5.5
v 17.4 0 -5.6
v 17.4 0.1 -5.6
v 17.7 0 -5.6
v 17.7 0.1 -5.6
v 17.4 0 -5.3
v 17.7 0 -5.3
v 17.4 0 -5.6
v 17.7 0 -5.6
v 17.3 2 -5.2
v 17.8 2 -5.2
v 17.3 2 -5.3
v 17.8 2 -5.3
v 17.3 2 -5.4
v 17.4 2 -5.4
v 17.5 2 -5.4
v 17.6 2 -5.4
v 17.7 2 -5.4
v 17.8 2 -5.4
v 17.4 2 -5.5
v 17.5 2 -5.5
v 17.6 2 -5.5
v 17.7 2 -5.5
v 17.3 2.6 -5.1
v 17.4 2.6 -5.1
v 17.7 2.6 -5.1
v 17.8 2.6 -5.1
v 17.3 2.6 -5.2
v 17.4 2.6 -5.2
v 17.7 2.6 -5.2
v 17.8 2.6 -5.2
v 17.4 2.8 -5.1
v 17.7 2.8 -5.1
v 17.4 2.8 -5.2
v 17.7 2.8 -5.2
v 17.4 2.8 -5.3
v 17.7 2.8 -5.3
v 17.4 0.1 -5.3
v 17.7 0.1 -5.3
v 17.5 0.1 -5.4
v 17.6 0.1 -5.4
v 17.5 0.1 -5.5
v 17.6 0.1 -5.5
v 17.4 0.1 -5.6
v 17.7 0.1 -5.6
v 17.4 2.1 -5.2
v 17.7 2.1 -5.2
v 17.4 2.1 -5.3
v 17.7 2.1 -5.3
v 17.4 2.8 -5.4
v 17.7 2.8 -5.4
v 17.4 2.8 -5.5
v 17.7 2.8 -5.5
v 17.3 2.9 -5.1
v 17.8 2.9 -5.1
v 17.3 2.9 -5.2
v 17.8 2.9 -5.2
v 17.3 2.9 -5.4
v 17.8 2.9 -5.4

# faces
f 4/3/1 2/3/1 1/3/1
f 5/1/1 3/1/1 2/1/1
f 5/3/1 2/3/1 4/3/1
f 7/1/1 5/1/1 4/1/1
f 8/3/1 7/3/1 6/3/1
f 9/1/1 5/1/1 7/1/1
f 9/3/1 7/3/1 8/3/1
f 10/1/1 3/1/1 5/1/1
f 10/1/1 5/1/1 9/1/1
f 13/3/1 12/3/1 11/3/1
f 14/3/1 12/3/1 13/3/1
f 17/1/1 16/1/1 15/1/1
f 18/1/1 16/1/1 17/1/1
f 21/3/1 20/3/1 19/3/1
f 22/3/1 20/3/1 21/3/1
f 23/1/1 22/1/1 21/1/1
f 24/1/1 22/1/1 23/1/1
f 27/3/1 26/3/1 25/3/1
f 28/3/1 26/3/1 27/3/1
f 30/1/1 28/1/1 27/1/1
f 31/3/1 30/3/1 29/3/1
f 32/1/1 28/1/1 30/1/1
f 32/3/1 30/3/1 31/3/1
f 33/1/1 28/1/1 32/1/1
f 34/3/2 35/3/2 36/3/2
f 36/3/2 35/3/2 37/3/2
f 36/1/2 37/1/2 39/1/2
f 38/3/2 39/3/2 40/3/2
f 39/1/2 37/1/2 41/1/2
f 40/3/2 39/3/2 41/3/2
f 41/1/2 37/1/2 42/1/2
f 43/3/2 44/3/2 45/3/2
f 45/3/2 44/3/2 46/3/2
f 45/1/2 46/1/2 47/1/2
f 47/1/2 46/1/2 48/1/2
f 49/3/2 50/3/2 51/3/2
f 51/3/2 50/3/2 52/3/2
f 53/1/2 54/1/2 55/1/2
f 55/1/2 54/1/2 56/1/2
f 57/3/2 58/3/2 60/3/2
f 58/1/2 59/1/2 61/1/2
f 60/3/2 58/3/2 61/3/2
f 60/1/2 61/1/2 63/1/2
f 62/3/2 63/3/2 64/3/2
f 63/1/2 61/1/2 65/1/2
f 64/3/2 63/3/2 65/3/2
f 61/1/2 59/1/2 66/1/2
f 65/1/2 61/1/2 66/1/2
f 69/3/3 68/3/3 67/3/3
f 70/3/3 68/3/3 69/3/3
f 72/3/3 68/3/3 70/3/3
f 73/3/3 72/3/3 71/3/3
f 74/3/3 68/3/3 72/3/3
f 74/3/3 72/3/3 73/3/3
f 78/3/3 76/3/3 75/3/3
f 79/1/3 77/1/3 76/1/3
f 79/3/3 76/3/3 78/3/3
f 80/1/3 77/1/3 79/1/3
f 81/3/3 78/3/3 75/3/3
f 84/3/3 81/3/3 75/3/3
f 84/3/3 82/3/3 81/3/3
f 85/1/3 83/1/3 82/1/3
f 85/3/3 82/3/3 84/3/3
f 86/1/3 83/1/3 85/1/3
f 92/1/3 90/1/3 89/1/3
f 92/1/3 91/1/3 90/1/3
f 93/1/3 91/1/3 92/1/3
f 94/1/3 91/1/3 93/1/3
f 95/1/3 91/1/3 94/1/3
f 96/1/3 91/1/3 95/1/3
f 97/1/3 91/1/3 96/1/3
f 98/1/3 92/1/3 89/1/3
f 98/2/3 93/2/3 92/2/3
f 99/1/3 94/1/3 93/1/3
f 99/2/3 93/2/3 98/2/3
f 100/4/3 95/4/3 94/4/3
f 100/1/3 94/1/3 99/1/3
f 101/1/3 96/1/3 95/1/3
f 101/4/3 95/4/3 100/4/3
f 102/2/3 97/2/3 96/2/3
f 102/1/3 96/1/3 101/1/3
f 103/1/3 91/1/3 97/1/3
f 103/2/3 97/2/3 102/2/3
f 104/3/3 88/3/3 87/3/3
f 105/3/3 88/3/3 104/3/3
f 106/1/3 102/1/3 101/1/3
f 106/1/3 101/1/3 100/1/3
f 106/1/3 98/1/3 89/1/3
f 106/1/3 103/1/3 102/1/3
f 106/1/3 100/1/3 99/1/3
f 106/1/3 99/1/3 98/1/3
f 107/1/3 103/1/3 106/1/3
f 108/1/3 91/1/3 103/1/3
f 108/1/3 103/1/3 107/1/3
f 112/3/3 110/3/3 109/3/3
f 113/1/3 111/1/3 110/1/3
f 113/3/3 110/3/3 112/3/3
f 114/1/3 111/1/3 113/1/3
f 115/1/4 116/1/4 117/1/4
f 117/1/4 116/1/4 118/1/4
f 118/1/4 116/1/4 120/1/4
f 119/1/4 120/1/4 121/1/4
f 120/1/4 116/1/4 122/1/4
f 121/1/4 120/1/4 122/1/4
f 123/1/4 124/1/4 127/1/4
f 125/3/4 126/3/4 128/3/4
f 126/1/4 127/1/4 129/1/4
f 128/3/4 126/3/4 129/3/4
f 127/1/4 124/1/4 130/1/4
f 129/1/4 127/1/4 130/1/4
f 130/1/4 124/1/4 131/1/4
f 131/1/4 124/1/4 132/1/4
f 133/3/4 134/3/4 135/3/4
f 135/3/4 134/3/4 136/3/4
f 139/3/5 138/3/5 137/3/5
f 140/3/5 138/3/5 139/3/5
f 143/3/5 142/3/5 141/3/5
f 144/3/5 142/3/5 143/3/5
f 145/1/5 144/1/5 143/1/5
f 146/1/5 144/1/5 145/1/5
f 147/1/5 144/1/5 146/1/5
f 148/1/5 144/1/5 147/1/5
f 149/1/5 144/1/5 148/1/5
f 150/1/5 144/1/5 149/1/5
f 151/1/5 147/1/5 146/1/5
f 152/1/5 147/1/5 151/1/5
f 153/1/5 149/1/5 148/1/5
f 154/1/5 149/1/5 153/1/5
f 159/3/5 156/3/5 155/3/5
f 160/3/5 156/3/5 159/3/5
f 161/3/5 158/3/5 157/3/5
f 162/3/5 158/3/5 161/3/5
f 165/3/5 164/3/5 163/3/5
f 166/3/5 164/3/5 165/3/5
f 167/1/5 166/1/5 165/1/5
f 168/1/5 166/1/5 167/1/5
f 169/3/6 170/3/6 171/3/6
f 171/3/6 170/3/6 172/3/6
f 169/3/6 171/3/6 173/3/6
f 172/3/6 170/3/6 174/3/6
f 169/3/6 173/3/6 175/3/6
f 173/3/6 174/3/6 175/3/6
f 174/3/6 170/3/6 176/3/6
f 175/3/6 174/3/6 176/3/6
f 177/3/6 178/3/6 179/3/6
f 179/3/6 178/3/6 180/3/6
f 181/1/6 182/1/6 183/1/6
f 183/1/6 182/1/6 184/1/6
f 185/3/6 186/3/6 187/3/6
f 187/3/6 186/3/6 188/3/6
f 187/1/6 188/1/6 189/1/6
f 189/1/6 188/1/6 190/1/6
