# MagicaVoxel @ Ephtracy

# group
o 

# material
mtllib BlocksAndFloors-1.mtl
usemtl palette

# normals
vn -1 0 0
vn 1 0 0
vn 0 0 1
vn 0 0 -1
vn 0 -1 0
vn 0 1 0

# texcoords
vt 0.501953 0.5
vt 0.509766 0.5

# verts
v 20.8 0 -18.1
v 20.8 0 -20.1
v 20.8 0.1 -18.1
v 20.8 0.1 -20.1
v 22.8 0 -18.1
v 22.8 0 -20.1
v 22.8 0.1 -18.1
v 22.8 0.1 -20.1
v 20.8 0 -18.1
v 20.8 0.1 -18.1
v 20.9 0 -18.1
v 20.9 0.1 -18.1
v 21 0 -18.1
v 21 0.1 -18.1
v 21.1 0 -18.1
v 21.1 0.1 -18.1
v 21.2 0 -18.1
v 21.2 0.1 -18.1
v 21.3 0 -18.1
v 21.3 0.1 -18.1
v 21.4 0 -18.1
v 21.4 0.1 -18.1
v 21.5 0 -18.1
v 21.5 0.1 -18.1
v 21.6 0 -18.1
v 21.6 0.1 -18.1
v 21.7 0 -18.1
v 21.7 0.1 -18.1
v 21.8 0 -18.1
v 21.8 0.1 -18.1
v 21.9 0 -18.1
v 21.9 0.1 -18.1
v 22 0 -18.1
v 22 0.1 -18.1
v 22.1 0 -18.1
v 22.1 0.1 -18.1
v 22.2 0 -18.1
v 22.2 0.1 -18.1
v 22.3 0 -18.1
v 22.3 0.1 -18.1
v 22.4 0 -18.1
v 22.4 0.1 -18.1
v 22.5 0 -18.1
v 22.5 0.1 -18.1
v 22.6 0 -18.1
v 22.6 0.1 -18.1
v 22.7 0 -18.1
v 22.7 0.1 -18.1
v 22.8 0 -18.1
v 22.8 0.1 -18.1
v 20.8 0 -20.1
v 20.8 0.1 -20.1
v 20.9 0 -20.1
v 20.9 0.1 -20.1
v 21 0 -20.1
v 21 0.1 -20.1
v 21.1 0 -20.1
v 21.1 0.1 -20.1
v 21.2 0 -20.1
v 21.2 0.1 -20.1
v 21.3 0 -20.1
v 21.3 0.1 -20.1
v 21.4 0 -20.1
v 21.4 0.1 -20.1
v 21.5 0 -20.1
v 21.5 0.1 -20.1
v 21.6 0 -20.1
v 21.6 0.1 -20.1
v 21.7 0 -20.1
v 21.7 0.1 -20.1
v 21.8 0 -20.1
v 21.8 0.1 -20.1
v 21.9 0 -20.1
v 21.9 0.1 -20.1
v 22 0 -20.1
v 22 0.1 -20.1
v 22.1 0 -20.1
v 22.1 0.1 -20.1
v 22.2 0 -20.1
v 22.2 0.1 -20.1
v 22.3 0 -20.1
v 22.3 0.1 -20.1
v 22.4 0 -20.1
v 22.4 0.1 -20.1
v 22.5 0 -20.1
v 22.5 0.1 -20.1
v 22.6 0 -20.1
v 22.6 0.1 -20.1
v 22.7 0 -20.1
v 22.7 0.1 -20.1
v 22.8 0 -20.1
v 22.8 0.1 -20.1
v 20.8 0 -18.1
v 20.9 0 -18.1
v 21 0 -18.1
v 21.1 0 -18.1
v 21.2 0 -18.1
v 21.3 0 -18.1
v 21.4 0 -18.1
v 21.5 0 -18.1
v 21.6 0 -18.1
v 21.7 0 -18.1
v 21.8 0 -18.1
v 21.9 0 -18.1
v 22 0 -18.1
v 22.1 0 -18.1
v 22.2 0 -18.1
v 22.3 0 -18.1
v 22.4 0 -18.1
v 22.5 0 -18.1
v 22.6 0 -18.1
v 22.7 0 -18.1
v 22.8 0 -18.1
v 20.8 0 -20.1
v 20.9 0 -20.1
v 21 0 -20.1
v 21.1 0 -20.1
v 21.2 0 -20.1
v 21.3 0 -20.1
v 21.4 0 -20.1
v 21.5 0 -20.1
v 21.6 0 -20.1
v 21.7 0 -20.1
v 21.8 0 -20.1
v 21.9 0 -20.1
v 22 0 -20.1
v 22.1 0 -20.1
v 22.2 0 -20.1
v 22.3 0 -20.1
v 22.4 0 -20.1
v 22.5 0 -20.1
v 22.6 0 -20.1
v 22.7 0 -20.1
v 22.8 0 -20.1
v 20.8 0.1 -18.1
v 20.9 0.1 -18.1
v 21 0.1 -18.1
v 21.1 0.1 -18.1
v 21.2 0.1 -18.1
v 21.3 0.1 -18.1
v 21.4 0.1 -18.1
v 21.5 0.1 -18.1
v 21.6 0.1 -18.1
v 21.7 0.1 -18.1
v 21.8 0.1 -18.1
v 21.9 0.1 -18.1
v 22 0.1 -18.1
v 22.1 0.1 -18.1
v 22.2 0.1 -18.1
v 22.3 0.1 -18.1
v 22.4 0.1 -18.1
v 22.5 0.1 -18.1
v 22.6 0.1 -18.1
v 22.7 0.1 -18.1
v 22.8 0.1 -18.1
v 20.8 0.1 -20.1
v 20.9 0.1 -20.1
v 21 0.1 -20.1
v 21.1 0.1 -20.1
v 21.2 0.1 -20.1
v 21.3 0.1 -20.1
v 21.4 0.1 -20.1
v 21.5 0.1 -20.1
v 21.6 0.1 -20.1
v 21.7 0.1 -20.1
v 21.8 0.1 -20.1
v 21.9 0.1 -20.1
v 22 0.1 -20.1
v 22.1 0.1 -20.1
v 22.2 0.1 -20.1
v 22.3 0.1 -20.1
v 22.4 0.1 -20.1
v 22.5 0.1 -20.1
v 22.6 0.1 -20.1
v 22.7 0.1 -20.1
v 22.8 0.1 -20.1

# faces
f 3/1/1 2/1/1 1/1/1
f 4/1/1 2/1/1 3/1/1
f 5/2/2 6/2/2 7/2/2
f 7/2/2 6/2/2 8/2/2
f 11/1/3 10/1/3 9/1/3
f 12/1/3 10/1/3 11/1/3
f 13/2/3 12/2/3 11/2/3
f 14/2/3 12/2/3 13/2/3
f 15/1/3 14/1/3 13/1/3
f 16/1/3 14/1/3 15/1/3
f 17/2/3 16/2/3 15/2/3
f 18/2/3 16/2/3 17/2/3
f 19/1/3 18/1/3 17/1/3
f 20/1/3 18/1/3 19/1/3
f 21/2/3 20/2/3 19/2/3
f 22/2/3 20/2/3 21/2/3
f 23/1/3 22/1/3 21/1/3
f 24/1/3 22/1/3 23/1/3
f 25/2/3 24/2/3 23/2/3
f 26/2/3 24/2/3 25/2/3
f 27/1/3 26/1/3 25/1/3
f 28/1/3 26/1/3 27/1/3
f 29/2/3 28/2/3 27/2/3
f 30/2/3 28/2/3 29/2/3
f 31/1/3 30/1/3 29/1/3
f 32/1/3 30/1/3 31/1/3
f 33/2/3 32/2/3 31/2/3
f 34/2/3 32/2/3 33/2/3
f 35/1/3 34/1/3 33/1/3
f 36/1/3 34/1/3 35/1/3
f 37/2/3 36/2/3 35/2/3
f 38/2/3 36/2/3 37/2/3
f 39/1/3 38/1/3 37/1/3
f 40/1/3 38/1/3 39/1/3
f 41/2/3 40/2/3 39/2/3
f 42/2/3 40/2/3 41/2/3
f 43/1/3 42/1/3 41/1/3
f 44/1/3 42/1/3 43/1/3
f 45/2/3 44/2/3 43/2/3
f 46/2/3 44/2/3 45/2/3
f 47/1/3 46/1/3 45/1/3
f 48/1/3 46/1/3 47/1/3
f 49/2/3 48/2/3 47/2/3
f 50/2/3 48/2/3 49/2/3
f 51/1/4 52/1/4 53/1/4
f 53/1/4 52/1/4 54/1/4
f 53/2/4 54/2/4 55/2/4
f 55/2/4 54/2/4 56/2/4
f 55/1/4 56/1/4 57/1/4
f 57/1/4 56/1/4 58/1/4
f 57/2/4 58/2/4 59/2/4
f 59/2/4 58/2/4 60/2/4
f 59/1/4 60/1/4 61/1/4
f 61/1/4 60/1/4 62/1/4
f 61/2/4 62/2/4 63/2/4
f 63/2/4 62/2/4 64/2/4
f 63/1/4 64/1/4 65/1/4
f 65/1/4 64/1/4 66/1/4
f 65/2/4 66/2/4 67/2/4
f 67/2/4 66/2/4 68/2/4
f 67/1/4 68/1/4 69/1/4
f 69/1/4 68/1/4 70/1/4
f 69/2/4 70/2/4 71/2/4
f 71/2/4 70/2/4 72/2/4
f 71/1/4 72/1/4 73/1/4
f 73/1/4 72/1/4 74/1/4
f 73/2/4 74/2/4 75/2/4
f 75/2/4 74/2/4 76/2/4
f 75/1/4 76/1/4 77/1/4
f 77/1/4 76/1/4 78/1/4
f 77/2/4 78/2/4 79/2/4
f 79/2/4 78/2/4 80/2/4
f 79/1/4 80/1/4 81/1/4
f 81/1/4 80/1/4 82/1/4
f 81/2/4 82/2/4 83/2/4
f 83/2/4 82/2/4 84/2/4
f 83/1/4 84/1/4 85/1/4
f 85/1/4 84/1/4 86/1/4
f 85/2/4 86/2/4 87/2/4
f 87/2/4 86/2/4 88/2/4
f 87/1/4 88/1/4 89/1/4
f 89/1/4 88/1/4 90/1/4
f 89/2/4 90/2/4 91/2/4
f 91/2/4 90/2/4 92/2/4
f 114/1/5 94/1/5 93/1/5
f 115/2/5 95/2/5 94/2/5
f 115/1/5 94/1/5 114/1/5
f 116/1/5 96/1/5 95/1/5
f 116/2/5 95/2/5 115/2/5
f 117/2/5 97/2/5 96/2/5
f 117/1/5 96/1/5 116/1/5
f 118/1/5 98/1/5 97/1/5
f 118/2/5 97/2/5 117/2/5
f 119/2/5 99/2/5 98/2/5
f 119/1/5 98/1/5 118/1/5
f 120/1/5 100/1/5 99/1/5
f 120/2/5 99/2/5 119/2/5
f 121/2/5 101/2/5 100/2/5
f 121/1/5 100/1/5 120/1/5
f 122/1/5 102/1/5 101/1/5
f 122/2/5 101/2/5 121/2/5
f 123/2/5 103/2/5 102/2/5
f 123/1/5 102/1/5 122/1/5
f 124/1/5 104/1/5 103/1/5
f 124/2/5 103/2/5 123/2/5
f 125/2/5 105/2/5 104/2/5
f 125/1/5 104/1/5 124/1/5
f 126/1/5 106/1/5 105/1/5
f 126/2/5 105/2/5 125/2/5
f 127/2/5 107/2/5 106/2/5
f 127/1/5 106/1/5 126/1/5
f 128/1/5 108/1/5 107/1/5
f 128/2/5 107/2/5 127/2/5
f 129/2/5 109/2/5 108/2/5
f 129/1/5 108/1/5 128/1/5
f 130/1/5 110/1/5 109/1/5
f 130/2/5 109/2/5 129/2/5
f 131/2/5 111/2/5 110/2/5
f 131/1/5 110/1/5 130/1/5
f 132/1/5 112/1/5 111/1/5
f 132/2/5 111/2/5 131/2/5
f 133/2/5 113/2/5 112/2/5
f 133/1/5 112/1/5 132/1/5
f 134/2/5 113/2/5 133/2/5
f 135/1/6 136/1/6 156/1/6
f 136/2/6 137/2/6 157/2/6
f 156/1/6 136/1/6 157/1/6
f 137/1/6 138/1/6 158/1/6
f 157/2/6 137/2/6 158/2/6
f 138/2/6 139/2/6 159/2/6
f 158/1/6 138/1/6 159/1/6
f 139/1/6 140/1/6 160/1/6
f 159/2/6 139/2/6 160/2/6
f 140/2/6 141/2/6 161/2/6
f 160/1/6 140/1/6 161/1/6
f 141/1/6 142/1/6 162/1/6
f 161/2/6 141/2/6 162/2/6
f 142/2/6 143/2/6 163/2/6
f 162/1/6 142/1/6 163/1/6
f 143/1/6 144/1/6 164/1/6
f 163/2/6 143/2/6 164/2/6
f 144/2/6 145/2/6 165/2/6
f 164/1/6 144/1/6 165/1/6
f 145/1/6 146/1/6 166/1/6
f 165/2/6 145/2/6 166/2/6
f 146/2/6 147/2/6 167/2/6
f 166/1/6 146/1/6 167/1/6
f 147/1/6 148/1/6 168/1/6
f 167/2/6 147/2/6 168/2/6
f 148/2/6 149/2/6 169/2/6
f 168/1/6 148/1/6 169/1/6
f 149/1/6 150/1/6 170/1/6
f 169/2/6 149/2/6 170/2/6
f 150/2/6 151/2/6 171/2/6
f 170/1/6 150/1/6 171/1/6
f 151/1/6 152/1/6 172/1/6
f 171/2/6 151/2/6 172/2/6
f 152/2/6 153/2/6 173/2/6
f 172/1/6 152/1/6 173/1/6
f 153/1/6 154/1/6 174/1/6
f 173/2/6 153/2/6 174/2/6
f 154/2/6 155/2/6 175/2/6
f 174/1/6 154/1/6 175/1/6
f 175/2/6 155/2/6 176/2/6
