# MagicaVoxel @ Ephtracy

# group
o 

# material
mtllib Animals-13.mtl
usemtl palette

# normals
vn -1 0 0
vn 1 0 0
vn 0 0 1
vn 0 0 -1
vn 0 -1 0
vn 0 1 0

# texcoords
vt 0.751953 0.5
vt 0.755859 0.5
vt 0.759766 0.5
vt 0.767578 0.5
vt 0.771484 0.5
vt 0.775391 0.5
vt 0.888672 0.5
vt 0.974609 0.5
vt 0.978516 0.5

# verts
v 1 1.5 1.1
v 1 1.5 1
v 1 1.5 0.3
v 1 1.6 0.4
v 1 1.6 0.3
v 1 1.7 1.1
v 1 1.7 1
v 1 1.7 0.4
v 1 1.7 0.3
v 1 2.3 1.1
v 1 2.3 0.3
v 1.1 2 1.2
v 1.1 2 1.1
v 1.1 2 0.3
v 1.1 2 0.2
v 1.1 2.1 1.2
v 1.1 2.1 1.1
v 1.1 2.1 0.3
v 1.1 2.1 0.2
v 1.1 2.2 1.2
v 1.1 2.2 1.1
v 1.1 2.2 0.3
v 1.1 2.2 0.2
v 1.1 2.3 1.2
v 1.1 2.3 1.1
v 1.1 2.3 0.3
v 1.1 2.3 0.2
v 1.3 1.8 1.2
v 1.3 1.8 1.1
v 1.3 1.8 0.3
v 1.3 1.8 0.2
v 1.3 1.9 1.2
v 1.3 1.9 1.1
v 1.3 1.9 0.3
v 1.3 1.9 0.2
v 1.3 2.1 1.2
v 1.3 2.1 1.1
v 1.3 2.1 0.3
v 1.3 2.1 0.2
v 1.5 2.3 1
v 1.5 2.3 0.4
v 1.5 2.4 1
v 1.5 2.4 0.4
v 1.2 2 1.2
v 1.2 2 1.1
v 1.2 2 0.3
v 1.2 2 0.2
v 1.2 2.1 1.2
v 1.2 2.1 1.1
v 1.2 2.1 0.3
v 1.2 2.1 0.2
v 1.5 1.8 1.2
v 1.5 1.8 1.1
v 1.5 1.8 0.3
v 1.5 1.8 0.2
v 1.5 1.9 1.2
v 1.5 1.9 1.1
v 1.5 1.9 0.3
v 1.5 1.9 0.2
v 1.5 2 1.2
v 1.5 2 1.1
v 1.5 2 0.3
v 1.5 2 0.2
v 1.5 2.2 1.2
v 1.5 2.2 1.1
v 1.5 2.2 0.3
v 1.5 2.2 0.2
v 1.5 2.3 1.2
v 1.5 2.3 1.1
v 1.5 2.3 0.3
v 1.5 2.3 0.2
v 1.6 1.5 1.1
v 1.6 1.5 0.3
v 1.6 1.6 1
v 1.6 1.6 0.4
v 1.6 1.8 1
v 1.6 1.8 0.4
v 1.6 1.9 1
v 1.6 1.9 0.4
v 1.6 2.1 1
v 1.6 2.1 0.4
v 1.6 2.2 1
v 1.6 2.2 0.4
v 1.6 2.3 1.1
v 1.6 2.3 1
v 1.6 2.3 0.4
v 1.6 2.3 0.3
v 1.6 2.4 1
v 1.6 2.4 0.4
v 1.7 1.6 1
v 1.7 1.6 0.8
v 1.7 1.6 0.6
v 1.7 1.6 0.4
v 1.7 1.7 0.8
v 1.7 1.7 0.6
v 1.7 1.8 1
v 1.7 1.8 0.8
v 1.7 1.8 0.6
v 1.7 1.8 0.4
v 1.7 1.9 1
v 1.7 1.9 0.9
v 1.7 1.9 0.5
v 1.7 1.9 0.4
v 1.7 2 0.9
v 1.7 2 0.8
v 1.7 2 0.6
v 1.7 2 0.5
v 1.7 2.1 1
v 1.7 2.1 0.8
v 1.7 2.1 0.6
v 1.7 2.1 0.4
v 1.7 2.2 1
v 1.7 2.2 0.4
v 1.8 1.6 0.8
v 1.8 1.6 0.6
v 1.8 1.7 0.8
v 1.8 1.7 0.6
v 1.9 1.7 0.8
v 1.9 1.7 0.6
v 1.9 1.8 0.8
v 1.9 1.8 0.6
v 1.1 2 1.2
v 1.1 2.1 1.2
v 1.1 2.2 1.2
v 1.1 2.3 1.2
v 1.2 2 1.2
v 1.2 2.1 1.2
v 1.2 2.2 1.2
v 1.2 2.3 1.2
v 1.3 1.8 1.2
v 1.3 1.9 1.2
v 1.3 2.1 1.2
v 1.4 2 1.2
v 1.4 2.2 1.2
v 1.4 2.3 1.2
v 1.5 1.8 1.2
v 1.5 1.9 1.2
v 1.5 2 1.2
v 1.5 2.2 1.2
v 1.5 2.3 1.2
v 1 1.5 1.1
v 1 1.7 1.1
v 1 2.3 1.1
v 1.1 1.5 1.1
v 1.1 1.7 1.1
v 1.1 2 1.1
v 1.1 2.1 1.1
v 1.1 2.2 1.1
v 1.1 2.3 1.1
v 1.2 1.5 1.1
v 1.2 1.6 1.1
v 1.2 2 1.1
v 1.2 2.1 1.1
v 1.3 1.8 1.1
v 1.3 1.9 1.1
v 1.3 2.1 1.1
v 1.4 1.5 1.1
v 1.4 1.6 1.1
v 1.5 1.8 1.1
v 1.5 1.9 1.1
v 1.5 2 1.1
v 1.5 2.2 1.1
v 1.5 2.3 1.1
v 1.6 1.5 1.1
v 1.6 2.3 1.1
v 1.5 2.3 1
v 1.5 2.4 1
v 1.6 1.6 1
v 1.6 1.8 1
v 1.6 1.9 1
v 1.6 2.1 1
v 1.6 2.2 1
v 1.6 2.3 1
v 1.6 2.4 1
v 1.7 1.6 1
v 1.7 1.8 1
v 1.7 1.9 1
v 1.7 2.1 1
v 1.7 2.2 1
v 1.7 1.6 0.8
v 1.7 1.7 0.8
v 1.7 1.8 0.8
v 1.8 1.6 0.8
v 1.8 1.7 0.8
v 1.9 1.7 0.8
v 1.9 1.8 0.8
v 1.7 1.6 0.6
v 1.7 1.7 0.6
v 1.7 1.8 0.6
v 1.8 1.6 0.6
v 1.8 1.7 0.6
v 1.9 1.7 0.6
v 1.9 1.8 0.6
v 1.5 2.3 0.4
v 1.5 2.4 0.4
v 1.6 1.6 0.4
v 1.6 1.8 0.4
v 1.6 1.9 0.4
v 1.6 2.1 0.4
v 1.6 2.2 0.4
v 1.6 2.3 0.4
v 1.6 2.4 0.4
v 1.7 1.6 0.4
v 1.7 1.8 0.4
v 1.7 1.9 0.4
v 1.7 2.1 0.4
v 1.7 2.2 0.4
v 1 1.5 0.3
v 1 1.6 0.3
v 1 1.7 0.3
v 1 2.3 0.3
v 1.1 2 0.3
v 1.1 2.1 0.3
v 1.1 2.2 0.3
v 1.1 2.3 0.3
v 1.2 1.5 0.3
v 1.2 1.6 0.3
v 1.2 1.7 0.3
v 1.2 2 0.3
v 1.2 2.1 0.3
v 1.3 1.5 0.3
v 1.3 1.6 0.3
v 1.3 1.7 0.3
v 1.3 1.8 0.3
v 1.3 1.9 0.3
v 1.3 2.1 0.3
v 1.4 1.6 0.3
v 1.4 1.7 0.3
v 1.5 1.8 0.3
v 1.5 1.9 0.3
v 1.5 2 0.3
v 1.5 2.2 0.3
v 1.5 2.3 0.3
v 1.6 1.5 0.3
v 1.6 2.3 0.3
v 1.1 2 0.2
v 1.1 2.1 0.2
v 1.1 2.2 0.2
v 1.1 2.3 0.2
v 1.2 2 0.2
v 1.2 2.1 0.2
v 1.2 2.2 0.2
v 1.2 2.3 0.2
v 1.3 1.8 0.2
v 1.3 1.9 0.2
v 1.3 2.1 0.2
v 1.4 2 0.2
v 1.4 2.2 0.2
v 1.4 2.3 0.2
v 1.5 1.8 0.2
v 1.5 1.9 0.2
v 1.5 2 0.2
v 1.5 2.2 0.2
v 1.5 2.3 0.2
v 1 1.5 1.1
v 1.1 1.5 1.1
v 1.2 1.5 1.1
v 1.4 1.5 1.1
v 1.6 1.5 1.1
v 1 1.5 1
v 1.1 1.5 1
v 1.2 1.5 1
v 1.4 1.5 1
v 1.2 1.5 0.4
v 1.3 1.5 0.4
v 1 1.5 0.3
v 1.2 1.5 0.3
v 1.3 1.5 0.3
v 1.6 1.5 0.3
v 1.6 1.6 1
v 1.7 1.6 1
v 1.7 1.6 0.8
v 1.8 1.6 0.8
v 1.7 1.6 0.6
v 1.8 1.6 0.6
v 1.6 1.6 0.4
v 1.7 1.6 0.4
v 1.8 1.7 0.8
v 1.9 1.7 0.8
v 1.8 1.7 0.6
v 1.9 1.7 0.6
v 1.3 1.8 1.2
v 1.5 1.8 1.2
v 1.3 1.8 1.1
v 1.5 1.8 1.1
v 1.3 1.8 0.3
v 1.5 1.8 0.3
v 1.3 1.8 0.2
v 1.5 1.8 0.2
v 1.1 2 1.2
v 1.2 2 1.2
v 1.1 2 1.1
v 1.2 2 1.1
v 1.1 2 0.3
v 1.2 2 0.3
v 1.1 2 0.2
v 1.2 2 0.2
v 1.2 2.1 1.2
v 1.3 2.1 1.2
v 1.2 2.1 1.1
v 1.3 2.1 1.1
v 1.2 2.1 0.3
v 1.3 2.1 0.3
v 1.2 2.1 0.2
v 1.3 2.1 0.2
v 1.7 1.8 0.8
v 1.9 1.8 0.8
v 1.7 1.8 0.6
v 1.9 1.8 0.6
v 1.6 2.2 1
v 1.7 2.2 1
v 1.6 2.2 0.4
v 1.7 2.2 0.4
v 1.1 2.3 1.2
v 1.2 2.3 1.2
v 1.4 2.3 1.2
v 1.5 2.3 1.2
v 1 2.3 1.1
v 1.1 2.3 1.1
v 1.2 2.3 1.1
v 1.4 2.3 1.1
v 1.5 2.3 1.1
v 1.6 2.3 1.1
v 1.5 2.3 1
v 1.6 2.3 1
v 1.5 2.3 0.4
v 1.6 2.3 0.4
v 1 2.3 0.3
v 1.1 2.3 0.3
v 1.2 2.3 0.3
v 1.4 2.3 0.3
v 1.5 2.3 0.3
v 1.6 2.3 0.3
v 1.1 2.3 0.2
v 1.2 2.3 0.2
v 1.4 2.3 0.2
v 1.5 2.3 0.2
v 1.5 2.4 1
v 1.6 2.4 1
v 1.5 2.4 0.4
v 1.6 2.4 0.4

# faces
f 4/1/1 3/1/1 2/1/1
f 5/1/1 3/1/1 4/1/1
f 6/6/1 2/6/1 1/6/1
f 7/1/1 4/1/1 2/1/1
f 7/6/1 2/6/1 6/6/1
f 8/6/1 5/6/1 4/6/1
f 8/1/1 4/1/1 7/1/1
f 9/6/1 5/6/1 8/6/1
f 10/1/1 7/1/1 6/1/1
f 10/1/1 8/1/1 7/1/1
f 10/1/1 9/1/1 8/1/1
f 11/1/1 9/1/1 10/1/1
f 16/4/1 13/4/1 12/4/1
f 17/4/1 13/4/1 16/4/1
f 18/4/1 15/4/1 14/4/1
f 19/4/1 15/4/1 18/4/1
f 20/5/1 17/5/1 16/5/1
f 21/5/1 17/5/1 20/5/1
f 22/5/1 19/5/1 18/5/1
f 23/5/1 19/5/1 22/5/1
f 24/4/1 21/4/1 20/4/1
f 25/4/1 21/4/1 24/4/1
f 26/4/1 23/4/1 22/4/1
f 27/4/1 23/4/1 26/4/1
f 32/3/1 29/3/1 28/3/1
f 33/3/1 29/3/1 32/3/1
f 34/3/1 31/3/1 30/3/1
f 35/3/1 31/3/1 34/3/1
f 36/4/1 33/4/1 32/4/1
f 37/4/1 33/4/1 36/4/1
f 38/4/1 35/4/1 34/4/1
f 39/4/1 35/4/1 38/4/1
f 42/1/1 41/1/1 40/1/1
f 43/1/1 41/1/1 42/1/1
f 44/4/2 45/4/2 48/4/2
f 48/4/2 45/4/2 49/4/2
f 46/4/2 47/4/2 50/4/2
f 50/4/2 47/4/2 51/4/2
f 52/3/2 53/3/2 56/3/2
f 56/3/2 53/3/2 57/3/2
f 54/3/2 55/3/2 58/3/2
f 58/3/2 55/3/2 59/3/2
f 56/4/2 57/4/2 60/4/2
f 60/4/2 57/4/2 61/4/2
f 58/4/2 59/4/2 62/4/2
f 62/4/2 59/4/2 63/4/2
f 60/5/2 61/5/2 64/5/2
f 64/5/2 61/5/2 65/5/2
f 62/5/2 63/5/2 66/5/2
f 66/5/2 63/5/2 67/5/2
f 64/4/2 65/4/2 68/4/2
f 68/4/2 65/4/2 69/4/2
f 66/4/2 67/4/2 70/4/2
f 70/4/2 67/4/2 71/4/2
f 72/1/2 73/1/2 74/1/2
f 74/1/2 73/1/2 75/1/2
f 72/1/2 74/1/2 76/1/2
f 75/1/2 73/1/2 77/1/2
f 72/1/2 76/1/2 78/1/2
f 77/1/2 73/1/2 79/1/2
f 72/1/2 78/1/2 80/1/2
f 79/1/2 73/1/2 81/1/2
f 72/1/2 80/1/2 82/1/2
f 81/1/2 73/1/2 83/1/2
f 72/1/2 82/1/2 84/1/2
f 82/1/2 83/1/2 84/1/2
f 84/1/2 83/1/2 85/1/2
f 83/1/2 73/1/2 86/1/2
f 85/1/2 83/1/2 86/1/2
f 86/1/2 73/1/2 87/1/2
f 85/1/2 86/1/2 88/1/2
f 88/1/2 86/1/2 89/1/2
f 90/2/2 91/2/2 94/2/2
f 92/2/2 93/2/2 95/2/2
f 90/2/2 94/2/2 96/2/2
f 96/2/2 94/2/2 97/2/2
f 95/2/2 93/2/2 98/2/2
f 98/2/2 93/2/2 99/2/2
f 96/9/2 97/9/2 100/9/2
f 100/9/2 97/9/2 101/9/2
f 98/9/2 99/9/2 102/9/2
f 102/9/2 99/9/2 103/9/2
f 101/9/2 97/9/2 104/9/2
f 100/8/2 101/8/2 104/8/2
f 97/2/2 98/2/2 105/2/2
f 104/9/2 97/9/2 105/9/2
f 98/9/2 102/9/2 106/9/2
f 105/2/2 98/2/2 106/2/2
f 102/8/2 103/8/2 107/8/2
f 106/9/2 102/9/2 107/9/2
f 100/8/2 104/8/2 108/8/2
f 104/8/2 105/8/2 108/8/2
f 105/2/2 106/2/2 109/2/2
f 108/8/2 105/8/2 109/8/2
f 106/8/2 107/8/2 110/8/2
f 109/2/2 106/2/2 110/2/2
f 107/8/2 103/8/2 111/8/2
f 110/8/2 107/8/2 111/8/2
f 109/2/2 110/2/2 112/2/2
f 108/2/2 109/2/2 112/2/2
f 110/2/2 111/2/2 112/2/2
f 112/2/2 111/2/2 113/2/2
f 114/7/2 115/7/2 116/7/2
f 116/7/2 115/7/2 117/7/2
f 118/3/2 119/3/2 120/3/2
f 120/3/2 119/3/2 121/3/2
f 126/4/3 123/4/3 122/4/3
f 127/5/3 124/5/3 123/5/3
f 127/4/3 123/4/3 126/4/3
f 128/4/3 125/4/3 124/4/3
f 128/5/3 124/5/3 127/5/3
f 129/4/3 125/4/3 128/4/3
f 132/4/3 128/4/3 127/4/3
f 133/4/3 132/4/3 131/4/3
f 134/5/3 129/5/3 128/5/3
f 134/4/3 132/4/3 133/4/3
f 134/4/3 128/4/3 132/4/3
f 135/5/3 129/5/3 134/5/3
f 136/3/3 131/3/3 130/3/3
f 137/4/3 133/4/3 131/4/3
f 137/3/3 131/3/3 136/3/3
f 138/5/3 134/5/3 133/5/3
f 138/4/3 133/4/3 137/4/3
f 139/4/3 135/4/3 134/4/3
f 139/5/3 134/5/3 138/5/3
f 140/4/3 135/4/3 139/4/3
f 144/6/3 142/6/3 141/6/3
f 145/1/3 143/1/3 142/1/3
f 145/6/3 142/6/3 144/6/3
f 146/1/3 143/1/3 145/1/3
f 147/1/3 143/1/3 146/1/3
f 148/1/3 143/1/3 147/1/3
f 149/1/3 143/1/3 148/1/3
f 150/1/3 145/1/3 144/1/3
f 150/1/3 146/1/3 145/1/3
f 151/1/3 146/1/3 150/1/3
f 152/1/3 146/1/3 151/1/3
f 154/1/3 152/1/3 151/1/3
f 154/1/3 153/1/3 152/1/3
f 155/1/3 153/1/3 154/1/3
f 156/1/3 153/1/3 155/1/3
f 157/6/3 151/6/3 150/6/3
f 158/1/3 154/1/3 151/1/3
f 158/6/3 151/6/3 157/6/3
f 159/1/3 158/1/3 157/1/3
f 159/1/3 154/1/3 158/1/3
f 164/1/3 161/1/3 160/1/3
f 164/1/3 163/1/3 162/1/3
f 164/1/3 162/1/3 161/1/3
f 164/1/3 160/1/3 159/1/3
f 164/1/3 159/1/3 157/1/3
f 165/1/3 163/1/3 164/1/3
f 173/1/3 167/1/3 166/1/3
f 174/1/3 167/1/3 173/1/3
f 175/2/3 169/2/3 168/2/3
f 176/9/3 170/9/3 169/9/3
f 176/2/3 169/2/3 175/2/3
f 177/8/3 171/8/3 170/8/3
f 177/9/3 170/9/3 176/9/3
f 178/2/3 172/2/3 171/2/3
f 178/8/3 171/8/3 177/8/3
f 179/2/3 172/2/3 178/2/3
f 183/7/3 181/7/3 180/7/3
f 184/3/3 182/3/3 181/3/3
f 184/7/3 181/7/3 183/7/3
f 185/3/3 182/3/3 184/3/3
f 186/3/3 182/3/3 185/3/3
f 187/7/4 188/7/4 190/7/4
f 188/3/4 189/3/4 191/3/4
f 190/7/4 188/7/4 191/7/4
f 191/3/4 189/3/4 192/3/4
f 192/3/4 189/3/4 193/3/4
f 194/1/4 195/1/4 201/1/4
f 201/1/4 195/1/4 202/1/4
f 196/2/4 197/2/4 203/2/4
f 197/9/4 198/9/4 204/9/4
f 203/2/4 197/2/4 204/2/4
f 198/8/4 199/8/4 205/8/4
f 204/9/4 198/9/4 205/9/4
f 199/2/4 200/2/4 206/2/4
f 205/8/4 199/8/4 206/8/4
f 206/2/4 200/2/4 207/2/4
f 210/1/4 211/1/4 212/1/4
f 212/1/4 211/1/4 213/1/4
f 213/1/4 211/1/4 214/1/4
f 214/1/4 211/1/4 215/1/4
f 208/1/4 209/1/4 216/1/4
f 209/6/4 210/6/4 217/6/4
f 216/1/4 209/1/4 217/1/4
f 210/1/4 212/1/4 218/1/4
f 217/6/4 210/6/4 218/6/4
f 218/1/4 212/1/4 219/1/4
f 216/6/4 217/6/4 221/6/4
f 219/1/4 220/1/4 222/1/4
f 221/6/4 217/6/4 222/6/4
f 217/1/4 218/1/4 222/1/4
f 218/1/4 219/1/4 222/1/4
f 222/1/4 220/1/4 223/1/4
f 223/1/4 220/1/4 224/1/4
f 224/1/4 220/1/4 225/1/4
f 225/1/4 220/1/4 226/1/4
f 221/1/4 222/1/4 227/1/4
f 222/6/4 223/6/4 227/6/4
f 223/1/4 224/1/4 228/1/4
f 227/6/4 223/6/4 228/6/4
f 227/1/4 228/1/4 229/1/4
f 228/1/4 224/1/4 229/1/4
f 230/1/4 231/1/4 234/1/4
f 232/1/4 233/1/4 234/1/4
f 231/1/4 232/1/4 234/1/4
f 229/1/4 230/1/4 234/1/4
f 227/1/4 229/1/4 234/1/4
f 221/1/4 227/1/4 234/1/4
f 234/1/4 233/1/4 235/1/4
f 236/4/4 237/4/4 240/4/4
f 237/5/4 238/5/4 241/5/4
f 240/4/4 237/4/4 241/4/4
f 238/4/4 239/4/4 242/4/4
f 241/5/4 238/5/4 242/5/4
f 242/4/4 239/4/4 243/4/4
f 241/4/4 242/4/4 246/4/4
f 245/4/4 246/4/4 247/4/4
f 242/5/4 243/5/4 248/5/4
f 247/4/4 246/4/4 248/4/4
f 246/4/4 242/4/4 248/4/4
f 248/5/4 243/5/4 249/5/4
f 244/3/4 245/3/4 250/3/4
f 245/4/4 247/4/4 251/4/4
f 250/3/4 245/3/4 251/3/4
f 247/5/4 248/5/4 252/5/4
f 251/4/4 247/4/4 252/4/4
f 248/4/4 249/4/4 253/4/4
f 252/5/4 248/5/4 253/5/4
f 253/4/4 249/4/4 254/4/4
f 260/6/5 256/6/5 255/6/5
f 261/1/5 257/1/5 256/1/5
f 261/6/5 256/6/5 260/6/5
f 262/6/5 258/6/5 257/6/5
f 262/1/5 257/1/5 261/1/5
f 263/1/5 259/1/5 258/1/5
f 263/6/5 258/6/5 262/6/5
f 264/1/5 262/1/5 261/1/5
f 264/1/5 261/1/5 260/1/5
f 264/1/5 263/1/5 262/1/5
f 265/1/5 263/1/5 264/1/5
f 266/1/5 264/1/5 260/1/5
f 267/6/5 265/6/5 264/6/5
f 267/1/5 264/1/5 266/1/5
f 268/1/5 263/1/5 265/1/5
f 268/6/5 265/6/5 267/6/5
f 269/1/5 259/1/5 263/1/5
f 269/1/5 263/1/5 268/1/5
f 272/2/5 271/2/5 270/2/5
f 274/2/5 272/2/5 270/2/5
f 274/7/5 273/7/5 272/7/5
f 275/7/5 273/7/5 274/7/5
f 276/2/5 274/2/5 270/2/5
f 277/2/5 274/2/5 276/2/5
f 280/3/5 279/3/5 278/3/5
f 281/3/5 279/3/5 280/3/5
f 284/3/5 283/3/5 282/3/5
f 285/3/5 283/3/5 284/3/5
f 288/3/5 287/3/5 286/3/5
f 289/3/5 287/3/5 288/3/5
f 292/4/5 291/4/5 290/4/5
f 293/4/5 291/4/5 292/4/5
f 296/4/5 295/4/5 294/4/5
f 297/4/5 295/4/5 296/4/5
f 300/4/5 299/4/5 298/4/5
f 301/4/5 299/4/5 300/4/5
f 304/4/5 303/4/5 302/4/5
f 305/4/5 303/4/5 304/4/5
f 306/3/6 307/3/6 308/3/6
f 308/3/6 307/3/6 309/3/6
f 310/2/6 311/2/6 312/2/6
f 312/2/6 311/2/6 313/2/6
f 314/4/6 315/4/6 319/4/6
f 315/5/6 316/5/6 320/5/6
f 319/4/6 315/4/6 320/4/6
f 316/4/6 317/4/6 321/4/6
f 320/5/6 316/5/6 321/5/6
f 321/4/6 317/4/6 322/4/6
f 319/1/6 320/1/6 324/1/6
f 322/1/6 323/1/6 324/1/6
f 321/1/6 322/1/6 324/1/6
f 320/1/6 321/1/6 324/1/6
f 318/1/6 319/1/6 324/1/6
f 324/1/6 323/1/6 325/1/6
f 318/1/6 324/1/6 326/1/6
f 318/1/6 326/1/6 328/1/6
f 326/1/6 327/1/6 328/1/6
f 328/1/6 327/1/6 329/1/6
f 329/1/6 327/1/6 330/1/6
f 330/1/6 327/1/6 331/1/6
f 331/1/6 327/1/6 332/1/6
f 332/1/6 327/1/6 333/1/6
f 329/4/6 330/4/6 334/4/6
f 330/5/6 331/5/6 335/5/6
f 334/4/6 330/4/6 335/4/6
f 331/4/6 332/4/6 336/4/6
f 335/5/6 331/5/6 336/5/6
f 336/4/6 332/4/6 337/4/6
f 338/1/6 339/1/6 340/1/6
f 340/1/6 339/1/6 341/1/6
