# MagicaVoxel @ Ephtracy

# group
o 

# material
mtllib ConstructionMaterials-94.mtl
usemtl palette

# normals
vn 1 0 0
vn -1 0 0
vn 0 0 1
vn 0 0 -1
vn 0 1 0
vn 0 -1 0

# texcoords
vt 0.970703 0.5
vt 0.974609 0.5

# verts
v 4.3 0.9 3.5
v 4.3 0.9 3.4
v 4.3 0.7 3.5
v 4.3 0.7 3.4
v 4.3 0 3.5
v 4.3 0 3.4
v 4 0.5 3.5
v 4 0.5 3.4
v 4 0.3 3.5
v 4 0.3 3.4
v 4 0.2 3.5
v 4 0.2 3.4
v 3.8 0.5 3.5
v 3.8 0.5 3.4
v 3.8 0.3 3.5
v 3.8 0.3 3.4
v 3.8 0.2 3.5
v 3.8 0.2 3.4
v 3.6 0.8 3.5
v 3.6 0.8 3.4
v 3.6 0.6 3.5
v 3.6 0.6 3.4
v 3.6 0.5 3.5
v 3.6 0.5 3.4
v 3.6 0.2 3.5
v 3.6 0.2 3.4
v 3.5 0.9 3.5
v 3.5 0.9 3.4
v 3.5 0.8 3.5
v 3.5 0.8 3.4
v 3.5 0.1 3.5
v 3.5 0.1 3.4
v 3.5 0 3.5
v 3.5 0 3.4
v 4.2 0.9 3.5
v 4.2 0.9 3.4
v 4.2 0.8 3.5
v 4.2 0.8 3.4
v 4.2 0.1 3.5
v 4.2 0.1 3.4
v 4.2 0 3.5
v 4.2 0 3.4
v 4.1 0.8 3.5
v 4.1 0.8 3.4
v 4.1 0.6 3.5
v 4.1 0.6 3.4
v 4.1 0.5 3.5
v 4.1 0.5 3.4
v 4.1 0.2 3.5
v 4.1 0.2 3.4
v 3.9 0.5 3.5
v 3.9 0.5 3.4
v 3.9 0.3 3.5
v 3.9 0.3 3.4
v 3.9 0.2 3.5
v 3.9 0.2 3.4
v 3.7 0.5 3.5
v 3.7 0.5 3.4
v 3.7 0.3 3.5
v 3.7 0.3 3.4
v 3.7 0.2 3.5
v 3.7 0.2 3.4
v 3.4 0.9 3.5
v 3.4 0.9 3.4
v 3.4 0.7 3.5
v 3.4 0.7 3.4
v 3.4 0 3.5
v 3.4 0 3.4
v 4.3 0.9 3.5
v 4.3 0.7 3.5
v 4.3 0 3.5
v 4.2 0.9 3.5
v 4.2 0.8 3.5
v 4.2 0.7 3.5
v 4.2 0.6 3.5
v 4.2 0.1 3.5
v 4.2 0 3.5
v 4.1 0.8 3.5
v 4.1 0.6 3.5
v 4.1 0.5 3.5
v 4.1 0.2 3.5
v 4 0.5 3.5
v 4 0.3 3.5
v 4 0.2 3.5
v 3.9 0.5 3.5
v 3.9 0.3 3.5
v 3.9 0.2 3.5
v 3.8 0.5 3.5
v 3.8 0.3 3.5
v 3.8 0.2 3.5
v 3.7 0.5 3.5
v 3.7 0.3 3.5
v 3.7 0.2 3.5
v 3.6 0.8 3.5
v 3.6 0.6 3.5
v 3.6 0.5 3.5
v 3.6 0.2 3.5
v 3.5 0.9 3.5
v 3.5 0.8 3.5
v 3.5 0.7 3.5
v 3.5 0.6 3.5
v 3.5 0.1 3.5
v 3.5 0 3.5
v 3.4 0.9 3.5
v 3.4 0.7 3.5
v 3.4 0 3.5
v 4.3 0.9 3.4
v 4.3 0.7 3.4
v 4.3 0 3.4
v 4.2 0.9 3.4
v 4.2 0.8 3.4
v 4.2 0.7 3.4
v 4.2 0.6 3.4
v 4.2 0.1 3.4
v 4.2 0 3.4
v 4.1 0.8 3.4
v 4.1 0.6 3.4
v 4.1 0.5 3.4
v 4.1 0.2 3.4
v 4 0.5 3.4
v 4 0.3 3.4
v 4 0.2 3.4
v 3.9 0.5 3.4
v 3.9 0.3 3.4
v 3.9 0.2 3.4
v 3.8 0.5 3.4
v 3.8 0.3 3.4
v 3.8 0.2 3.4
v 3.7 0.5 3.4
v 3.7 0.3 3.4
v 3.7 0.2 3.4
v 3.6 0.8 3.4
v 3.6 0.6 3.4
v 3.6 0.5 3.4
v 3.6 0.2 3.4
v 3.5 0.9 3.4
v 3.5 0.8 3.4
v 3.5 0.7 3.4
v 3.5 0.6 3.4
v 3.5 0.1 3.4
v 3.5 0 3.4
v 3.4 0.9 3.4
v 3.4 0.7 3.4
v 3.4 0 3.4
v 4.3 0.9 3.5
v 4.2 0.9 3.5
v 3.5 0.9 3.5
v 3.4 0.9 3.5
v 4.3 0.9 3.4
v 4.2 0.9 3.4
v 3.5 0.9 3.4
v 3.4 0.9 3.4
v 4.2 0.8 3.5
v 4.1 0.8 3.5
v 3.6 0.8 3.5
v 3.5 0.8 3.5
v 4.2 0.8 3.4
v 4.1 0.8 3.4
v 3.6 0.8 3.4
v 3.5 0.8 3.4
v 4.1 0.6 3.5
v 3.6 0.6 3.5
v 4.1 0.6 3.4
v 3.6 0.6 3.4
v 4.1 0.2 3.5
v 4 0.2 3.5
v 3.9 0.2 3.5
v 3.8 0.2 3.5
v 3.7 0.2 3.5
v 3.6 0.2 3.5
v 4.1 0.2 3.4
v 4 0.2 3.4
v 3.9 0.2 3.4
v 3.8 0.2 3.4
v 3.7 0.2 3.4
v 3.6 0.2 3.4
v 4.1 0.5 3.5
v 4 0.5 3.5
v 3.9 0.5 3.5
v 3.8 0.5 3.5
v 3.7 0.5 3.5
v 3.6 0.5 3.5
v 4.1 0.5 3.4
v 4 0.5 3.4
v 3.9 0.5 3.4
v 3.8 0.5 3.4
v 3.7 0.5 3.4
v 3.6 0.5 3.4
v 4.2 0.1 3.5
v 3.5 0.1 3.5
v 4.2 0.1 3.4
v 3.5 0.1 3.4
v 4.3 0 3.5
v 4.2 0 3.5
v 3.5 0 3.5
v 3.4 0 3.5
v 4.3 0 3.4
v 4.2 0 3.4
v 3.5 0 3.4
v 3.4 0 3.4

# faces
f 3/1/1 2/1/1 1/1/1
f 4/1/1 2/1/1 3/1/1
f 5/2/1 4/2/1 3/2/1
f 6/2/1 4/2/1 5/2/1
f 9/1/1 8/1/1 7/1/1
f 10/1/1 8/1/1 9/1/1
f 11/2/1 10/2/1 9/2/1
f 12/2/1 10/2/1 11/2/1
f 15/1/1 14/1/1 13/1/1
f 16/1/1 14/1/1 15/1/1
f 17/2/1 16/2/1 15/2/1
f 18/2/1 16/2/1 17/2/1
f 21/1/1 20/1/1 19/1/1
f 22/1/1 20/1/1 21/1/1
f 25/2/1 24/2/1 23/2/1
f 26/2/1 24/2/1 25/2/1
f 29/1/1 28/1/1 27/1/1
f 30/1/1 28/1/1 29/1/1
f 33/2/1 32/2/1 31/2/1
f 34/2/1 32/2/1 33/2/1
f 35/1/2 36/1/2 37/1/2
f 37/1/2 36/1/2 38/1/2
f 39/2/2 40/2/2 41/2/2
f 41/2/2 40/2/2 42/2/2
f 43/1/2 44/1/2 45/1/2
f 45/1/2 44/1/2 46/1/2
f 47/2/2 48/2/2 49/2/2
f 49/2/2 48/2/2 50/2/2
f 51/1/2 52/1/2 53/1/2
f 53/1/2 52/1/2 54/1/2
f 53/2/2 54/2/2 55/2/2
f 55/2/2 54/2/2 56/2/2
f 57/1/2 58/1/2 59/1/2
f 59/1/2 58/1/2 60/1/2
f 59/2/2 60/2/2 61/2/2
f 61/2/2 60/2/2 62/2/2
f 63/1/2 64/1/2 65/1/2
f 65/1/2 64/1/2 66/1/2
f 65/2/2 66/2/2 67/2/2
f 67/2/2 66/2/2 68/2/2
f 72/1/3 70/1/3 69/1/3
f 73/1/3 70/1/3 72/1/3
f 74/2/3 71/2/3 70/2/3
f 74/1/3 70/1/3 73/1/3
f 75/2/3 71/2/3 74/2/3
f 76/2/3 71/2/3 75/2/3
f 77/2/3 71/2/3 76/2/3
f 78/1/3 74/1/3 73/1/3
f 78/1/3 75/1/3 74/1/3
f 79/2/3 76/2/3 75/2/3
f 79/1/3 75/1/3 78/1/3
f 80/2/3 76/2/3 79/2/3
f 81/2/3 76/2/3 80/2/3
f 82/1/3 80/1/3 79/1/3
f 84/2/3 76/2/3 81/2/3
f 85/1/3 83/1/3 82/1/3
f 85/1/3 82/1/3 79/1/3
f 86/2/3 84/2/3 83/2/3
f 86/1/3 83/1/3 85/1/3
f 87/2/3 76/2/3 84/2/3
f 87/2/3 84/2/3 86/2/3
f 88/1/3 85/1/3 79/1/3
f 90/2/3 76/2/3 87/2/3
f 91/1/3 89/1/3 88/1/3
f 91/1/3 88/1/3 79/1/3
f 92/2/3 90/2/3 89/2/3
f 92/1/3 89/1/3 91/1/3
f 93/2/3 76/2/3 90/2/3
f 93/2/3 90/2/3 92/2/3
f 95/1/3 91/1/3 79/1/3
f 96/1/3 91/1/3 95/1/3
f 97/2/3 76/2/3 93/2/3
f 99/1/3 95/1/3 94/1/3
f 100/1/3 95/1/3 99/1/3
f 101/2/3 96/2/3 95/2/3
f 101/1/3 95/1/3 100/1/3
f 101/2/3 97/2/3 96/2/3
f 102/2/3 76/2/3 97/2/3
f 102/2/3 97/2/3 101/2/3
f 104/1/3 100/1/3 99/1/3
f 104/1/3 99/1/3 98/1/3
f 105/2/3 103/2/3 102/2/3
f 105/1/3 100/1/3 104/1/3
f 105/2/3 102/2/3 101/2/3
f 105/2/3 101/2/3 100/2/3
f 106/2/3 103/2/3 105/2/3
f 107/1/4 108/1/4 110/1/4
f 110/1/4 108/1/4 111/1/4
f 108/2/4 109/2/4 112/2/4
f 111/1/4 108/1/4 112/1/4
f 112/2/4 109/2/4 113/2/4
f 113/2/4 109/2/4 114/2/4
f 114/2/4 109/2/4 115/2/4
f 111/1/4 112/1/4 116/1/4
f 112/1/4 113/1/4 116/1/4
f 113/2/4 114/2/4 117/2/4
f 116/1/4 113/1/4 117/1/4
f 117/2/4 114/2/4 118/2/4
f 118/2/4 114/2/4 119/2/4
f 117/1/4 118/1/4 120/1/4
f 119/2/4 114/2/4 122/2/4
f 120/1/4 121/1/4 123/1/4
f 117/1/4 120/1/4 123/1/4
f 121/2/4 122/2/4 124/2/4
f 123/1/4 121/1/4 124/1/4
f 122/2/4 114/2/4 125/2/4
f 124/2/4 122/2/4 125/2/4
f 117/1/4 123/1/4 126/1/4
f 125/2/4 114/2/4 128/2/4
f 126/1/4 127/1/4 129/1/4
f 117/1/4 126/1/4 129/1/4
f 127/2/4 128/2/4 130/2/4
f 129/1/4 127/1/4 130/1/4
f 128/2/4 114/2/4 131/2/4
f 130/2/4 128/2/4 131/2/4
f 117/1/4 129/1/4 133/1/4
f 133/1/4 129/1/4 134/1/4
f 131/2/4 114/2/4 135/2/4
f 132/1/4 133/1/4 137/1/4
f 137/1/4 133/1/4 138/1/4
f 133/2/4 134/2/4 139/2/4
f 138/1/4 133/1/4 139/1/4
f 134/2/4 135/2/4 139/2/4
f 135/2/4 114/2/4 140/2/4
f 139/2/4 135/2/4 140/2/4
f 137/1/4 138/1/4 142/1/4
f 136/1/4 137/1/4 142/1/4
f 140/2/4 141/2/4 143/2/4
f 142/1/4 138/1/4 143/1/4
f 139/2/4 140/2/4 143/2/4
f 138/2/4 139/2/4 143/2/4
f 143/2/4 141/2/4 144/2/4
f 149/1/5 146/1/5 145/1/5
f 150/1/5 146/1/5 149/1/5
f 151/1/5 148/1/5 147/1/5
f 152/1/5 148/1/5 151/1/5
f 157/1/5 154/1/5 153/1/5
f 158/1/5 154/1/5 157/1/5
f 159/1/5 156/1/5 155/1/5
f 160/1/5 156/1/5 159/1/5
f 163/1/5 162/1/5 161/1/5
f 164/1/5 162/1/5 163/1/5
f 171/2/5 166/2/5 165/2/5
f 172/2/5 166/2/5 171/2/5
f 173/2/5 168/2/5 167/2/5
f 174/2/5 168/2/5 173/2/5
f 175/2/5 170/2/5 169/2/5
f 176/2/5 170/2/5 175/2/5
f 177/1/6 178/1/6 183/1/6
f 183/1/6 178/1/6 184/1/6
f 179/1/6 180/1/6 185/1/6
f 185/1/6 180/1/6 186/1/6
f 181/1/6 182/1/6 187/1/6
f 187/1/6 182/1/6 188/1/6
f 189/2/6 190/2/6 191/2/6
f 191/2/6 190/2/6 192/2/6
f 193/2/6 194/2/6 197/2/6
f 197/2/6 194/2/6 198/2/6
f 195/2/6 196/2/6 199/2/6
f 199/2/6 196/2/6 200/2/6
