# MagicaVoxel @ Ephtracy

# group
o 

# material
mtllib ConstructionMaterials-102.mtl
usemtl palette

# normals
vn -1 0 0
vn 1 0 0
vn 0 0 1
vn 0 0 -1
vn 0 -1 0
vn 0 1 0

# texcoords
vt 0.978516 0.5
vt 0.982422 0.5

# verts
v 4.5 1.3 0.5
v 4.5 1.3 0.4
v 4.5 1.9 0.5
v 4.5 1.9 0.4
v 5.2 0 0.5
v 5.2 0 0.4
v 5.2 0.6 0.5
v 5.2 0.6 0.4
v 5.2 1.3 0.5
v 5.2 1.3 0.4
v 5.3 0 0.5
v 5.3 0 0.4
v 5.3 0.6 0.5
v 5.3 0.6 0.4
v 5.3 1.3 0.5
v 5.3 1.3 0.4
v 6 1.3 0.5
v 6 1.3 0.4
v 6 1.9 0.5
v 6 1.9 0.4
v 4.5 1.3 0.5
v 4.5 1.9 0.5
v 4.6 1.4 0.5
v 4.6 1.8 0.5
v 5.2 0 0.5
v 5.2 0.6 0.5
v 5.2 1.3 0.5
v 5.3 0 0.5
v 5.3 0.6 0.5
v 5.3 1.3 0.5
v 5.9 1.4 0.5
v 5.9 1.8 0.5
v 6 1.3 0.5
v 6 1.9 0.5
v 4.5 1.3 0.4
v 4.5 1.9 0.4
v 4.6 1.4 0.4
v 4.6 1.8 0.4
v 5.2 0 0.4
v 5.2 0.6 0.4
v 5.2 1.3 0.4
v 5.3 0 0.4
v 5.3 0.6 0.4
v 5.3 1.3 0.4
v 5.9 1.4 0.4
v 5.9 1.8 0.4
v 6 1.3 0.4
v 6 1.9 0.4
v 5.2 0 0.5
v 5.3 0 0.5
v 5.2 0 0.4
v 5.3 0 0.4
v 4.5 1.3 0.5
v 5.2 1.3 0.5
v 5.3 1.3 0.5
v 6 1.3 0.5
v 4.5 1.3 0.4
v 5.2 1.3 0.4
v 5.3 1.3 0.4
v 6 1.3 0.4
v 4.5 1.9 0.5
v 6 1.9 0.5
v 4.5 1.9 0.4
v 6 1.9 0.4

# faces
f 3/2/1 2/2/1 1/2/1
f 4/2/1 2/2/1 3/2/1
f 7/1/1 6/1/1 5/1/1
f 8/1/1 6/1/1 7/1/1
f 9/2/1 8/2/1 7/2/1
f 10/2/1 8/2/1 9/2/1
f 11/1/2 12/1/2 13/1/2
f 13/1/2 12/1/2 14/1/2
f 13/2/2 14/2/2 15/2/2
f 15/2/2 14/2/2 16/2/2
f 17/2/2 18/2/2 19/2/2
f 19/2/2 18/2/2 20/2/2
f 23/2/3 22/2/3 21/2/3
f 24/2/3 22/2/3 23/2/3
f 27/2/3 23/2/3 21/2/3
f 28/1/3 26/1/3 25/1/3
f 29/2/3 27/2/3 26/2/3
f 29/1/3 26/1/3 28/1/3
f 30/2/3 23/2/3 27/2/3
f 30/2/3 27/2/3 29/2/3
f 31/1/3 24/1/3 23/1/3
f 31/2/3 23/2/3 30/2/3
f 32/2/3 22/2/3 24/2/3
f 32/1/3 24/1/3 31/1/3
f 33/2/3 31/2/3 30/2/3
f 33/2/3 32/2/3 31/2/3
f 34/2/3 22/2/3 32/2/3
f 34/2/3 32/2/3 33/2/3
f 35/2/4 36/2/4 37/2/4
f 37/2/4 36/2/4 38/2/4
f 35/2/4 37/2/4 41/2/4
f 39/1/4 40/1/4 42/1/4
f 40/2/4 41/2/4 43/2/4
f 42/1/4 40/1/4 43/1/4
f 41/2/4 37/2/4 44/2/4
f 43/2/4 41/2/4 44/2/4
f 37/1/4 38/1/4 45/1/4
f 44/2/4 37/2/4 45/2/4
f 38/2/4 36/2/4 46/2/4
f 45/1/4 38/1/4 46/1/4
f 44/2/4 45/2/4 47/2/4
f 45/2/4 46/2/4 47/2/4
f 46/2/4 36/2/4 48/2/4
f 47/2/4 46/2/4 48/2/4
f 51/1/5 50/1/5 49/1/5
f 52/1/5 50/1/5 51/1/5
f 57/2/5 54/2/5 53/2/5
f 58/2/5 54/2/5 57/2/5
f 59/2/5 56/2/5 55/2/5
f 60/2/5 56/2/5 59/2/5
f 61/2/6 62/2/6 63/2/6
f 63/2/6 62/2/6 64/2/6
