# MagicaVoxel @ Ephtracy

# group
o 

# material
mtllib ConstructionMaterials-96.mtl
usemtl palette

# normals
vn 1 0 0
vn -1 0 0
vn 0 0 1
vn 0 0 -1
vn 0 1 0
vn 0 -1 0

# texcoords
vt 0.958984 0.5
vt 0.962891 0.5

# verts
v -5.3 0.9 3.5
v -5.3 0.9 3.4
v -5.3 0.7 3.5
v -5.3 0.7 3.4
v -5.3 0 3.5
v -5.3 0 3.4
v -6 0.8 3.5
v -6 0.8 3.4
v -6 0.6 3.5
v -6 0.6 3.4
v -6 0.1 3.5
v -6 0.1 3.4
v -6.1 0.9 3.5
v -6.1 0.9 3.4
v -6.1 0.8 3.5
v -6.1 0.8 3.4
v -6.1 0.1 3.5
v -6.1 0.1 3.4
v -6.1 0 3.5
v -6.1 0 3.4
v -5.4 0.9 3.5
v -5.4 0.9 3.4
v -5.4 0.8 3.5
v -5.4 0.8 3.4
v -5.4 0.1 3.5
v -5.4 0.1 3.4
v -5.4 0 3.5
v -5.4 0 3.4
v -5.5 0.8 3.5
v -5.5 0.8 3.4
v -5.5 0.6 3.5
v -5.5 0.6 3.4
v -5.5 0.1 3.5
v -5.5 0.1 3.4
v -6.2 0.9 3.5
v -6.2 0.9 3.4
v -6.2 0.7 3.5
v -6.2 0.7 3.4
v -6.2 0 3.5
v -6.2 0 3.4
v -5.3 0.9 3.5
v -5.3 0.7 3.5
v -5.3 0 3.5
v -5.4 0.9 3.5
v -5.4 0.8 3.5
v -5.4 0.7 3.5
v -5.4 0.6 3.5
v -5.4 0.1 3.5
v -5.4 0 3.5
v -5.5 0.8 3.5
v -5.5 0.6 3.5
v -5.5 0.1 3.5
v -6 0.8 3.5
v -6 0.6 3.5
v -6 0.1 3.5
v -6.1 0.9 3.5
v -6.1 0.8 3.5
v -6.1 0.7 3.5
v -6.1 0.6 3.5
v -6.1 0.1 3.5
v -6.1 0 3.5
v -6.2 0.9 3.5
v -6.2 0.7 3.5
v -6.2 0 3.5
v -5.3 0.9 3.4
v -5.3 0.7 3.4
v -5.3 0 3.4
v -5.4 0.9 3.4
v -5.4 0.8 3.4
v -5.4 0.7 3.4
v -5.4 0.6 3.4
v -5.4 0.1 3.4
v -5.4 0 3.4
v -5.5 0.8 3.4
v -5.5 0.6 3.4
v -5.5 0.1 3.4
v -6 0.8 3.4
v -6 0.6 3.4
v -6 0.1 3.4
v -6.1 0.9 3.4
v -6.1 0.8 3.4
v -6.1 0.7 3.4
v -6.1 0.6 3.4
v -6.1 0.1 3.4
v -6.1 0 3.4
v -6.2 0.9 3.4
v -6.2 0.7 3.4
v -6.2 0 3.4
v -5.3 0.9 3.5
v -5.4 0.9 3.5
v -6.1 0.9 3.5
v -6.2 0.9 3.5
v -5.3 0.9 3.4
v -5.4 0.9 3.4
v -6.1 0.9 3.4
v -6.2 0.9 3.4
v -5.4 0.8 3.5
v -5.5 0.8 3.5
v -6 0.8 3.5
v -6.1 0.8 3.5
v -5.4 0.8 3.4
v -5.5 0.8 3.4
v -6 0.8 3.4
v -6.1 0.8 3.4
v -5.4 0.1 3.5
v -5.5 0.1 3.5
v -6 0.1 3.5
v -6.1 0.1 3.5
v -5.4 0.1 3.4
v -5.5 0.1 3.4
v -6 0.1 3.4
v -6.1 0.1 3.4
v -5.3 0 3.5
v -5.4 0 3.5
v -6.1 0 3.5
v -6.2 0 3.5
v -5.3 0 3.4
v -5.4 0 3.4
v -6.1 0 3.4
v -6.2 0 3.4

# faces
f 3/1/1 2/1/1 1/1/1
f 4/1/1 2/1/1 3/1/1
f 5/2/1 4/2/1 3/2/1
f 6/2/1 4/2/1 5/2/1
f 9/1/1 8/1/1 7/1/1
f 10/1/1 8/1/1 9/1/1
f 11/2/1 10/2/1 9/2/1
f 12/2/1 10/2/1 11/2/1
f 15/1/1 14/1/1 13/1/1
f 16/1/1 14/1/1 15/1/1
f 19/2/1 18/2/1 17/2/1
f 20/2/1 18/2/1 19/2/1
f 21/1/2 22/1/2 23/1/2
f 23/1/2 22/1/2 24/1/2
f 25/2/2 26/2/2 27/2/2
f 27/2/2 26/2/2 28/2/2
f 29/1/2 30/1/2 31/1/2
f 31/1/2 30/1/2 32/1/2
f 31/2/2 32/2/2 33/2/2
f 33/2/2 32/2/2 34/2/2
f 35/1/2 36/1/2 37/1/2
f 37/1/2 36/1/2 38/1/2
f 37/2/2 38/2/2 39/2/2
f 39/2/2 38/2/2 40/2/2
f 44/1/3 42/1/3 41/1/3
f 45/1/3 42/1/3 44/1/3
f 46/2/3 43/2/3 42/2/3
f 46/1/3 42/1/3 45/1/3
f 47/2/3 43/2/3 46/2/3
f 48/2/3 43/2/3 47/2/3
f 49/2/3 43/2/3 48/2/3
f 50/1/3 46/1/3 45/1/3
f 50/1/3 47/1/3 46/1/3
f 51/2/3 48/2/3 47/2/3
f 51/1/3 47/1/3 50/1/3
f 52/2/3 48/2/3 51/2/3
f 57/1/3 54/1/3 53/1/3
f 58/1/3 54/1/3 57/1/3
f 59/2/3 55/2/3 54/2/3
f 59/1/3 54/1/3 58/1/3
f 60/2/3 55/2/3 59/2/3
f 62/1/3 58/1/3 57/1/3
f 62/1/3 57/1/3 56/1/3
f 63/2/3 60/2/3 59/2/3
f 63/1/3 58/1/3 62/1/3
f 63/2/3 61/2/3 60/2/3
f 63/2/3 59/2/3 58/2/3
f 64/2/3 61/2/3 63/2/3
f 65/1/4 66/1/4 68/1/4
f 68/1/4 66/1/4 69/1/4
f 66/2/4 67/2/4 70/2/4
f 69/1/4 66/1/4 70/1/4
f 70/2/4 67/2/4 71/2/4
f 71/2/4 67/2/4 72/2/4
f 72/2/4 67/2/4 73/2/4
f 69/1/4 70/1/4 74/1/4
f 70/1/4 71/1/4 74/1/4
f 71/2/4 72/2/4 75/2/4
f 74/1/4 71/1/4 75/1/4
f 75/2/4 72/2/4 76/2/4
f 77/1/4 78/1/4 81/1/4
f 81/1/4 78/1/4 82/1/4
f 78/2/4 79/2/4 83/2/4
f 82/1/4 78/1/4 83/1/4
f 83/2/4 79/2/4 84/2/4
f 81/1/4 82/1/4 86/1/4
f 80/1/4 81/1/4 86/1/4
f 83/2/4 84/2/4 87/2/4
f 86/1/4 82/1/4 87/1/4
f 84/2/4 85/2/4 87/2/4
f 82/2/4 83/2/4 87/2/4
f 87/2/4 85/2/4 88/2/4
f 93/1/5 90/1/5 89/1/5
f 94/1/5 90/1/5 93/1/5
f 95/1/5 92/1/5 91/1/5
f 96/1/5 92/1/5 95/1/5
f 101/1/5 98/1/5 97/1/5
f 102/1/5 98/1/5 101/1/5
f 103/1/5 100/1/5 99/1/5
f 104/1/5 100/1/5 103/1/5
f 105/2/6 106/2/6 109/2/6
f 109/2/6 106/2/6 110/2/6
f 107/2/6 108/2/6 111/2/6
f 111/2/6 108/2/6 112/2/6
f 113/2/6 114/2/6 117/2/6
f 117/2/6 114/2/6 118/2/6
f 115/2/6 116/2/6 119/2/6
f 119/2/6 116/2/6 120/2/6
