# MagicaVoxel @ Ephtracy

# group
o 

# material
mtllib ConstructionMaterials-99.mtl
usemtl palette

# normals
vn 1 0 0
vn -1 0 0
vn 0 0 1
vn 0 0 -1
vn 0 1 0
vn 0 -1 0

# texcoords
vt 0.970703 0.5
vt 0.974609 0.5

# verts
v 2.6 0.9 3.5
v 2.6 0.9 3.4
v 2.6 0.6 3.5
v 2.6 0.6 3.4
v 2.6 0 3.5
v 2.6 0 3.4
v 1.8 0.9 3.5
v 1.8 0.9 3.4
v 1.8 0.8 3.5
v 1.8 0.8 3.4
v 1.8 0.7 3.5
v 1.8 0.7 3.4
v 1.8 0.6 3.5
v 1.8 0.6 3.4
v 1.8 0.5 3.5
v 1.8 0.5 3.4
v 1.8 0.4 3.5
v 1.8 0.4 3.4
v 1.8 0.3 3.5
v 1.8 0.3 3.4
v 1.8 0.2 3.5
v 1.8 0.2 3.4
v 1.8 0.1 3.5
v 1.8 0.1 3.4
v 1.8 0 3.5
v 1.8 0 3.4
v 2.5 0.9 3.5
v 2.5 0.9 3.4
v 2.5 0.8 3.5
v 2.5 0.8 3.4
v 2.5 0.7 3.5
v 2.5 0.7 3.4
v 2.5 0.6 3.5
v 2.5 0.6 3.4
v 2.5 0.5 3.5
v 2.5 0.5 3.4
v 2.5 0.4 3.5
v 2.5 0.4 3.4
v 2.5 0.3 3.5
v 2.5 0.3 3.4
v 2.5 0.2 3.5
v 2.5 0.2 3.4
v 2.5 0.1 3.5
v 2.5 0.1 3.4
v 2.5 0 3.5
v 2.5 0 3.4
v 1.7 0.9 3.5
v 1.7 0.9 3.4
v 1.7 0.6 3.5
v 1.7 0.6 3.4
v 1.7 0 3.5
v 1.7 0 3.4
v 2.6 0.9 3.5
v 2.6 0.6 3.5
v 2.6 0 3.5
v 2.5 0.9 3.5
v 2.5 0.8 3.5
v 2.5 0.7 3.5
v 2.5 0.6 3.5
v 2.5 0.5 3.5
v 2.5 0.4 3.5
v 2.5 0.3 3.5
v 2.5 0.2 3.5
v 2.5 0.1 3.5
v 2.5 0 3.5
v 1.8 0.9 3.5
v 1.8 0.8 3.5
v 1.8 0.7 3.5
v 1.8 0.6 3.5
v 1.8 0.5 3.5
v 1.8 0.4 3.5
v 1.8 0.3 3.5
v 1.8 0.2 3.5
v 1.8 0.1 3.5
v 1.8 0 3.5
v 1.7 0.9 3.5
v 1.7 0.6 3.5
v 1.7 0 3.5
v 2.6 0.9 3.4
v 2.6 0.6 3.4
v 2.6 0 3.4
v 2.5 0.9 3.4
v 2.5 0.8 3.4
v 2.5 0.7 3.4
v 2.5 0.6 3.4
v 2.5 0.5 3.4
v 2.5 0.4 3.4
v 2.5 0.3 3.4
v 2.5 0.2 3.4
v 2.5 0.1 3.4
v 2.5 0 3.4
v 1.8 0.9 3.4
v 1.8 0.8 3.4
v 1.8 0.7 3.4
v 1.8 0.6 3.4
v 1.8 0.5 3.4
v 1.8 0.4 3.4
v 1.8 0.3 3.4
v 1.8 0.2 3.4
v 1.8 0.1 3.4
v 1.8 0 3.4
v 1.7 0.9 3.4
v 1.7 0.6 3.4
v 1.7 0 3.4
v 2.6 0.9 3.5
v 2.5 0.9 3.5
v 1.8 0.9 3.5
v 1.7 0.9 3.5
v 2.6 0.9 3.4
v 2.5 0.9 3.4
v 1.8 0.9 3.4
v 1.7 0.9 3.4
v 2.5 0.8 3.5
v 1.8 0.8 3.5
v 2.5 0.8 3.4
v 1.8 0.8 3.4
v 2.5 0.6 3.5
v 1.8 0.6 3.5
v 2.5 0.6 3.4
v 1.8 0.6 3.4
v 2.5 0.4 3.5
v 1.8 0.4 3.5
v 2.5 0.4 3.4
v 1.8 0.4 3.4
v 2.5 0.2 3.5
v 1.8 0.2 3.5
v 2.5 0.2 3.4
v 1.8 0.2 3.4
v 2.5 0.7 3.5
v 1.8 0.7 3.5
v 2.5 0.7 3.4
v 1.8 0.7 3.4
v 2.5 0.5 3.5
v 1.8 0.5 3.5
v 2.5 0.5 3.4
v 1.8 0.5 3.4
v 2.5 0.3 3.5
v 1.8 0.3 3.5
v 2.5 0.3 3.4
v 1.8 0.3 3.4
v 2.5 0.1 3.5
v 1.8 0.1 3.5
v 2.5 0.1 3.4
v 1.8 0.1 3.4
v 2.6 0 3.5
v 2.5 0 3.5
v 1.8 0 3.5
v 1.7 0 3.5
v 2.6 0 3.4
v 2.5 0 3.4
v 1.8 0 3.4
v 1.7 0 3.4

# faces
f 3/1/1 2/1/1 1/1/1
f 4/1/1 2/1/1 3/1/1
f 5/2/1 4/2/1 3/2/1
f 6/2/1 4/2/1 5/2/1
f 9/1/1 8/1/1 7/1/1
f 10/1/1 8/1/1 9/1/1
f 13/1/1 12/1/1 11/1/1
f 14/1/1 12/1/1 13/1/1
f 17/2/1 16/2/1 15/2/1
f 18/2/1 16/2/1 17/2/1
f 21/2/1 20/2/1 19/2/1
f 22/2/1 20/2/1 21/2/1
f 25/2/1 24/2/1 23/2/1
f 26/2/1 24/2/1 25/2/1
f 27/1/2 28/1/2 29/1/2
f 29/1/2 28/1/2 30/1/2
f 31/1/2 32/1/2 33/1/2
f 33/1/2 32/1/2 34/1/2
f 35/2/2 36/2/2 37/2/2
f 37/2/2 36/2/2 38/2/2
f 39/2/2 40/2/2 41/2/2
f 41/2/2 40/2/2 42/2/2
f 43/2/2 44/2/2 45/2/2
f 45/2/2 44/2/2 46/2/2
f 47/1/2 48/1/2 49/1/2
f 49/1/2 48/1/2 50/1/2
f 49/2/2 50/2/2 51/2/2
f 51/2/2 50/2/2 52/2/2
f 56/1/3 54/1/3 53/1/3
f 57/1/3 54/1/3 56/1/3
f 58/1/3 54/1/3 57/1/3
f 59/2/3 55/2/3 54/2/3
f 59/1/3 54/1/3 58/1/3
f 60/2/3 55/2/3 59/2/3
f 61/2/3 55/2/3 60/2/3
f 62/2/3 55/2/3 61/2/3
f 63/2/3 55/2/3 62/2/3
f 64/2/3 55/2/3 63/2/3
f 65/2/3 55/2/3 64/2/3
f 67/1/3 58/1/3 57/1/3
f 68/1/3 58/1/3 67/1/3
f 69/1/3 60/1/3 59/1/3
f 70/1/3 60/1/3 69/1/3
f 71/2/3 62/2/3 61/2/3
f 72/2/3 62/2/3 71/2/3
f 73/2/3 64/2/3 63/2/3
f 74/2/3 64/2/3 73/2/3
f 76/1/3 68/1/3 67/1/3
f 76/1/3 67/1/3 66/1/3
f 76/1/3 69/1/3 68/1/3
f 77/2/3 70/2/3 69/2/3
f 77/1/3 69/1/3 76/1/3
f 77/2/3 72/2/3 71/2/3
f 77/2/3 75/2/3 74/2/3
f 77/2/3 71/2/3 70/2/3
f 77/2/3 74/2/3 73/2/3
f 77/2/3 73/2/3 72/2/3
f 78/2/3 75/2/3 77/2/3
f 79/1/4 80/1/4 82/1/4
f 82/1/4 80/1/4 83/1/4
f 83/1/4 80/1/4 84/1/4
f 80/2/4 81/2/4 85/2/4
f 84/1/4 80/1/4 85/1/4
f 85/2/4 81/2/4 86/2/4
f 86/2/4 81/2/4 87/2/4
f 87/2/4 81/2/4 88/2/4
f 88/2/4 81/2/4 89/2/4
f 89/2/4 81/2/4 90/2/4
f 90/2/4 81/2/4 91/2/4
f 83/1/4 84/1/4 93/1/4
f 93/1/4 84/1/4 94/1/4
f 85/1/4 86/1/4 95/1/4
f 95/1/4 86/1/4 96/1/4
f 87/2/4 88/2/4 97/2/4
f 97/2/4 88/2/4 98/2/4
f 89/2/4 90/2/4 99/2/4
f 99/2/4 90/2/4 100/2/4
f 93/1/4 94/1/4 102/1/4
f 92/1/4 93/1/4 102/1/4
f 94/1/4 95/1/4 102/1/4
f 95/2/4 96/2/4 103/2/4
f 102/1/4 95/1/4 103/1/4
f 97/2/4 98/2/4 103/2/4
f 100/2/4 101/2/4 103/2/4
f 96/2/4 97/2/4 103/2/4
f 99/2/4 100/2/4 103/2/4
f 98/2/4 99/2/4 103/2/4
f 103/2/4 101/2/4 104/2/4
f 109/1/5 106/1/5 105/1/5
f 110/1/5 106/1/5 109/1/5
f 111/1/5 108/1/5 107/1/5
f 112/1/5 108/1/5 111/1/5
f 115/1/5 114/1/5 113/1/5
f 116/1/5 114/1/5 115/1/5
f 119/1/5 118/1/5 117/1/5
f 120/1/5 118/1/5 119/1/5
f 123/2/5 122/2/5 121/2/5
f 124/2/5 122/2/5 123/2/5
f 127/2/5 126/2/5 125/2/5
f 128/2/5 126/2/5 127/2/5
f 129/1/6 130/1/6 131/1/6
f 131/1/6 130/1/6 132/1/6
f 133/1/6 134/1/6 135/1/6
f 135/1/6 134/1/6 136/1/6
f 137/2/6 138/2/6 139/2/6
f 139/2/6 138/2/6 140/2/6
f 141/2/6 142/2/6 143/2/6
f 143/2/6 142/2/6 144/2/6
f 145/2/6 146/2/6 149/2/6
f 149/2/6 146/2/6 150/2/6
f 147/2/6 148/2/6 151/2/6
f 151/2/6 148/2/6 152/2/6
