# MagicaVoxel @ Ephtracy

# group
o 

# material
mtllib Decor-83.mtl
usemtl palette

# normals
vn -1 0 0
vn 1 0 0
vn 0 0 1
vn 0 0 -1
vn 0 -1 0
vn 0 1 0

# texcoords
vt 0.970703 0.5
vt 0.978516 0.5
vt 0.982422 0.5

# verts
v 2.3 0.8 -1.7
v 2.3 0.8 -1.8
v 2.3 0.8 -1.9
v 2.3 0.8 -2
v 2.3 0.9 -1.7
v 2.3 0.9 -1.8
v 2.3 0.9 -1.9
v 2.3 0.9 -2
v 2.4 0.8 -1.6
v 2.4 0.8 -1.7
v 2.4 0.8 -2
v 2.4 0.8 -2.1
v 2.4 0.9 -1.6
v 2.4 0.9 -1.7
v 2.4 0.9 -2
v 2.4 0.9 -2.1
v 2.5 0 -1.7
v 2.5 0 -1.8
v 2.5 0 -1.9
v 2.5 0 -2
v 2.5 0.2 -1.7
v 2.5 0.2 -1.8
v 2.5 0.2 -1.9
v 2.5 0.2 -2
v 2.5 0.5 -1.7
v 2.5 0.5 -1.8
v 2.5 0.6 -1.9
v 2.5 0.6 -2
v 2.5 0.8 -1.5
v 2.5 0.8 -1.6
v 2.5 0.8 -1.7
v 2.5 0.8 -1.8
v 2.5 0.8 -1.9
v 2.5 0.8 -2
v 2.5 0.8 -2.1
v 2.5 0.8 -2.2
v 2.5 0.9 -1.5
v 2.5 0.9 -1.6
v 2.5 0.9 -2.1
v 2.5 0.9 -2.2
v 2.7 0 -1.7
v 2.7 0 -1.8
v 2.7 0 -1.9
v 2.7 0 -2
v 2.7 0.2 -1.7
v 2.7 0.2 -1.8
v 2.7 0.2 -1.9
v 2.7 0.2 -2
v 2.7 0.4 -1.9
v 2.7 0.4 -2
v 2.7 0.6 -1.7
v 2.7 0.6 -1.8
v 2.7 0.8 -1.7
v 2.7 0.8 -1.8
v 2.7 0.8 -1.9
v 2.7 0.8 -2
v 2.6 0 -1.7
v 2.6 0 -1.8
v 2.6 0 -1.9
v 2.6 0 -2
v 2.6 0.2 -1.7
v 2.6 0.2 -1.8
v 2.6 0.2 -1.9
v 2.6 0.2 -2
v 2.6 0.5 -1.7
v 2.6 0.5 -1.8
v 2.6 0.6 -1.9
v 2.6 0.6 -2
v 2.6 0.8 -1.7
v 2.6 0.8 -1.8
v 2.6 0.8 -1.9
v 2.6 0.8 -2
v 2.8 0 -1.7
v 2.8 0 -1.8
v 2.8 0 -1.9
v 2.8 0 -2
v 2.8 0.2 -1.7
v 2.8 0.2 -1.8
v 2.8 0.2 -1.9
v 2.8 0.2 -2
v 2.8 0.4 -1.9
v 2.8 0.4 -2
v 2.8 0.6 -1.7
v 2.8 0.6 -1.8
v 2.8 0.8 -1.5
v 2.8 0.8 -1.6
v 2.8 0.8 -1.7
v 2.8 0.8 -1.8
v 2.8 0.8 -1.9
v 2.8 0.8 -2
v 2.8 0.8 -2.1
v 2.8 0.8 -2.2
v 2.8 0.9 -1.5
v 2.8 0.9 -1.6
v 2.8 0.9 -2.1
v 2.8 0.9 -2.2
v 2.9 0.8 -1.6
v 2.9 0.8 -1.7
v 2.9 0.8 -2
v 2.9 0.8 -2.1
v 2.9 0.9 -1.6
v 2.9 0.9 -1.7
v 2.9 0.9 -2
v 2.9 0.9 -2.1
v 3 0.8 -1.7
v 3 0.8 -1.9
v 3 0.8 -2
v 3 0.9 -1.7
v 3 0.9 -1.9
v 3 0.9 -2
v 2.5 0.8 -1.5
v 2.5 0.9 -1.5
v 2.6 0.8 -1.5
v 2.6 0.9 -1.5
v 2.8 0.8 -1.5
v 2.8 0.9 -1.5
v 2.4 0.8 -1.6
v 2.4 0.9 -1.6
v 2.5 0.8 -1.6
v 2.5 0.9 -1.6
v 2.8 0.8 -1.6
v 2.8 0.9 -1.6
v 2.9 0.8 -1.6
v 2.9 0.9 -1.6
v 2.3 0.8 -1.7
v 2.3 0.9 -1.7
v 2.4 0.8 -1.7
v 2.4 0.9 -1.7
v 2.5 0 -1.7
v 2.5 0.2 -1.7
v 2.5 0.5 -1.7
v 2.5 0.8 -1.7
v 2.6 0 -1.7
v 2.6 0.2 -1.7
v 2.6 0.5 -1.7
v 2.6 0.8 -1.7
v 2.7 0 -1.7
v 2.7 0.2 -1.7
v 2.7 0.6 -1.7
v 2.7 0.8 -1.7
v 2.8 0 -1.7
v 2.8 0.2 -1.7
v 2.8 0.6 -1.7
v 2.8 0.8 -1.7
v 2.9 0.8 -1.7
v 2.9 0.9 -1.7
v 3 0.8 -1.7
v 3 0.9 -1.7
v 2.5 0 -1.9
v 2.5 0.2 -1.9
v 2.5 0.6 -1.9
v 2.5 0.8 -1.9
v 2.6 0 -1.9
v 2.6 0.2 -1.9
v 2.6 0.6 -1.9
v 2.6 0.8 -1.9
v 2.7 0 -1.9
v 2.7 0.2 -1.9
v 2.7 0.4 -1.9
v 2.7 0.8 -1.9
v 2.8 0 -1.9
v 2.8 0.2 -1.9
v 2.8 0.4 -1.9
v 2.8 0.8 -1.9
v 2.5 0 -1.8
v 2.5 0.2 -1.8
v 2.5 0.5 -1.8
v 2.5 0.8 -1.8
v 2.6 0 -1.8
v 2.6 0.2 -1.8
v 2.6 0.5 -1.8
v 2.6 0.8 -1.8
v 2.7 0 -1.8
v 2.7 0.2 -1.8
v 2.7 0.6 -1.8
v 2.7 0.8 -1.8
v 2.8 0 -1.8
v 2.8 0.2 -1.8
v 2.8 0.6 -1.8
v 2.8 0.8 -1.8
v 2.3 0.8 -2
v 2.3 0.9 -2
v 2.4 0.8 -2
v 2.4 0.9 -2
v 2.5 0 -2
v 2.5 0.2 -2
v 2.5 0.6 -2
v 2.5 0.8 -2
v 2.6 0 -2
v 2.6 0.2 -2
v 2.6 0.6 -2
v 2.6 0.8 -2
v 2.7 0 -2
v 2.7 0.2 -2
v 2.7 0.4 -2
v 2.7 0.8 -2
v 2.8 0 -2
v 2.8 0.2 -2
v 2.8 0.4 -2
v 2.8 0.8 -2
v 2.9 0.8 -2
v 2.9 0.9 -2
v 3 0.8 -2
v 3 0.9 -2
v 2.4 0.8 -2.1
v 2.4 0.9 -2.1
v 2.5 0.8 -2.1
v 2.5 0.9 -2.1
v 2.8 0.8 -2.1
v 2.8 0.9 -2.1
v 2.9 0.8 -2.1
v 2.9 0.9 -2.1
v 2.5 0.8 -2.2
v 2.5 0.9 -2.2
v 2.6 0.8 -2.2
v 2.6 0.9 -2.2
v 2.8 0.8 -2.2
v 2.8 0.9 -2.2
v 2.5 0 -1.7
v 2.6 0 -1.7
v 2.7 0 -1.7
v 2.8 0 -1.7
v 2.5 0 -1.8
v 2.6 0 -1.8
v 2.7 0 -1.8
v 2.8 0 -1.8
v 2.5 0 -1.9
v 2.6 0 -1.9
v 2.7 0 -1.9
v 2.8 0 -1.9
v 2.5 0 -2
v 2.6 0 -2
v 2.7 0 -2
v 2.8 0 -2
v 2.5 0.8 -1.5
v 2.6 0.8 -1.5
v 2.8 0.8 -1.5
v 2.4 0.8 -1.6
v 2.5 0.8 -1.6
v 2.6 0.8 -1.6
v 2.8 0.8 -1.6
v 2.9 0.8 -1.6
v 2.3 0.8 -1.7
v 2.4 0.8 -1.7
v 2.5 0.8 -1.7
v 2.6 0.8 -1.7
v 2.7 0.8 -1.7
v 2.8 0.8 -1.7
v 2.9 0.8 -1.7
v 3 0.8 -1.7
v 2.3 0.8 -1.8
v 2.5 0.8 -1.8
v 2.6 0.8 -1.8
v 2.7 0.8 -1.8
v 2.8 0.8 -1.8
v 2.9 0.8 -1.8
v 2.3 0.8 -1.9
v 2.4 0.8 -1.9
v 2.5 0.8 -1.9
v 2.6 0.8 -1.9
v 2.7 0.8 -1.9
v 2.8 0.8 -1.9
v 2.9 0.8 -1.9
v 3 0.8 -1.9
v 2.3 0.8 -2
v 2.4 0.8 -2
v 2.5 0.8 -2
v 2.6 0.8 -2
v 2.7 0.8 -2
v 2.8 0.8 -2
v 2.9 0.8 -2
v 3 0.8 -2
v 2.4 0.8 -2.1
v 2.5 0.8 -2.1
v 2.6 0.8 -2.1
v 2.7 0.8 -2.1
v 2.8 0.8 -2.1
v 2.9 0.8 -2.1
v 2.5 0.8 -2.2
v 2.6 0.8 -2.2
v 2.8 0.8 -2.2
v 2.5 0.9 -1.5
v 2.6 0.9 -1.5
v 2.8 0.9 -1.5
v 2.4 0.9 -1.6
v 2.5 0.9 -1.6
v 2.6 0.9 -1.6
v 2.8 0.9 -1.6
v 2.9 0.9 -1.6
v 2.3 0.9 -1.7
v 2.4 0.9 -1.7
v 2.5 0.9 -1.7
v 2.6 0.9 -1.7
v 2.8 0.9 -1.7
v 2.9 0.9 -1.7
v 3 0.9 -1.7
v 2.3 0.9 -1.8
v 2.5 0.9 -1.8
v 2.7 0.9 -1.8
v 2.8 0.9 -1.8
v 2.9 0.9 -1.8
v 2.3 0.9 -1.9
v 2.4 0.9 -1.9
v 2.6 0.9 -1.9
v 2.7 0.9 -1.9
v 2.9 0.9 -1.9
v 3 0.9 -1.9
v 2.3 0.9 -2
v 2.4 0.9 -2
v 2.5 0.9 -2
v 2.6 0.9 -2
v 2.8 0.9 -2
v 2.9 0.9 -2
v 3 0.9 -2
v 2.4 0.9 -2.1
v 2.5 0.9 -2.1
v 2.6 0.9 -2.1
v 2.7 0.9 -2.1
v 2.8 0.9 -2.1
v 2.9 0.9 -2.1
v 2.5 0.9 -2.2
v 2.6 0.9 -2.2
v 2.8 0.9 -2.2

# faces
f 5/1/1 2/1/1 1/1/1
f 6/2/1 3/2/1 2/2/1
f 6/1/1 2/1/1 5/1/1
f 7/1/1 4/1/1 3/1/1
f 7/2/1 3/2/1 6/2/1
f 8/1/1 4/1/1 7/1/1
f 13/2/1 10/2/1 9/2/1
f 14/2/1 10/2/1 13/2/1
f 15/1/1 12/1/1 11/1/1
f 16/1/1 12/1/1 15/1/1
f 21/3/1 18/3/1 17/3/1
f 22/3/1 18/3/1 21/3/1
f 23/3/1 20/3/1 19/3/1
f 24/3/1 20/3/1 23/3/1
f 25/1/1 22/1/1 21/1/1
f 26/1/1 22/1/1 25/1/1
f 27/1/1 24/1/1 23/1/1
f 28/1/1 24/1/1 27/1/1
f 31/3/1 26/3/1 25/3/1
f 32/3/1 26/3/1 31/3/1
f 33/3/1 28/3/1 27/3/1
f 34/3/1 28/3/1 33/3/1
f 37/1/1 30/1/1 29/1/1
f 38/1/1 30/1/1 37/1/1
f 39/1/1 36/1/1 35/1/1
f 40/1/1 36/1/1 39/1/1
f 45/3/1 42/3/1 41/3/1
f 46/3/1 42/3/1 45/3/1
f 47/3/1 44/3/1 43/3/1
f 48/3/1 44/3/1 47/3/1
f 49/1/1 48/1/1 47/1/1
f 50/1/1 48/1/1 49/1/1
f 51/1/1 46/1/1 45/1/1
f 52/1/1 46/1/1 51/1/1
f 53/3/1 52/3/1 51/3/1
f 54/3/1 52/3/1 53/3/1
f 55/3/1 50/3/1 49/3/1
f 56/3/1 50/3/1 55/3/1
f 57/3/2 58/3/2 61/3/2
f 61/3/2 58/3/2 62/3/2
f 59/3/2 60/3/2 63/3/2
f 63/3/2 60/3/2 64/3/2
f 61/1/2 62/1/2 65/1/2
f 65/1/2 62/1/2 66/1/2
f 63/1/2 64/1/2 67/1/2
f 67/1/2 64/1/2 68/1/2
f 65/3/2 66/3/2 69/3/2
f 69/3/2 66/3/2 70/3/2
f 67/3/2 68/3/2 71/3/2
f 71/3/2 68/3/2 72/3/2
f 73/3/2 74/3/2 77/3/2
f 77/3/2 74/3/2 78/3/2
f 75/3/2 76/3/2 79/3/2
f 79/3/2 76/3/2 80/3/2
f 79/1/2 80/1/2 81/1/2
f 81/1/2 80/1/2 82/1/2
f 77/1/2 78/1/2 83/1/2
f 83/1/2 78/1/2 84/1/2
f 83/3/2 84/3/2 87/3/2
f 87/3/2 84/3/2 88/3/2
f 81/3/2 82/3/2 89/3/2
f 89/3/2 82/3/2 90/3/2
f 85/2/2 86/2/2 93/2/2
f 93/2/2 86/2/2 94/2/2
f 91/2/2 92/2/2 95/2/2
f 95/2/2 92/2/2 96/2/2
f 97/2/2 98/2/2 101/2/2
f 101/2/2 98/2/2 102/2/2
f 99/2/2 100/2/2 103/2/2
f 103/2/2 100/2/2 104/2/2
f 105/1/2 106/1/2 108/1/2
f 106/2/2 107/2/2 109/2/2
f 108/1/2 106/1/2 109/1/2
f 109/2/2 107/2/2 110/2/2
f 113/1/3 112/1/3 111/1/3
f 114/1/3 112/1/3 113/1/3
f 115/2/3 114/2/3 113/2/3
f 116/2/3 114/2/3 115/2/3
f 119/2/3 118/2/3 117/2/3
f 120/2/3 118/2/3 119/2/3
f 123/2/3 122/2/3 121/2/3
f 124/2/3 122/2/3 123/2/3
f 127/1/3 126/1/3 125/1/3
f 128/1/3 126/1/3 127/1/3
f 133/3/3 130/3/3 129/3/3
f 134/1/3 131/1/3 130/1/3
f 134/3/3 130/3/3 133/3/3
f 135/3/3 132/3/3 131/3/3
f 135/1/3 131/1/3 134/1/3
f 136/3/3 132/3/3 135/3/3
f 141/3/3 138/3/3 137/3/3
f 142/1/3 139/1/3 138/1/3
f 142/3/3 138/3/3 141/3/3
f 143/3/3 140/3/3 139/3/3
f 143/1/3 139/1/3 142/1/3
f 144/3/3 140/3/3 143/3/3
f 147/1/3 146/1/3 145/1/3
f 148/1/3 146/1/3 147/1/3
f 153/3/3 150/3/3 149/3/3
f 154/1/3 151/1/3 150/1/3
f 154/3/3 150/3/3 153/3/3
f 155/3/3 152/3/3 151/3/3
f 155/1/3 151/1/3 154/1/3
f 156/3/3 152/3/3 155/3/3
f 161/3/3 158/3/3 157/3/3
f 162/1/3 159/1/3 158/1/3
f 162/3/3 158/3/3 161/3/3
f 163/3/3 160/3/3 159/3/3
f 163/1/3 159/1/3 162/1/3
f 164/3/3 160/3/3 163/3/3
f 165/3/4 166/3/4 169/3/4
f 166/1/4 167/1/4 170/1/4
f 169/3/4 166/3/4 170/3/4
f 167/3/4 168/3/4 171/3/4
f 170/1/4 167/1/4 171/1/4
f 171/3/4 168/3/4 172/3/4
f 173/3/4 174/3/4 177/3/4
f 174/1/4 175/1/4 178/1/4
f 177/3/4 174/3/4 178/3/4
f 175/3/4 176/3/4 179/3/4
f 178/1/4 175/1/4 179/1/4
f 179/3/4 176/3/4 180/3/4
f 181/1/4 182/1/4 183/1/4
f 183/1/4 182/1/4 184/1/4
f 185/3/4 186/3/4 189/3/4
f 186/1/4 187/1/4 190/1/4
f 189/3/4 186/3/4 190/3/4
f 187/3/4 188/3/4 191/3/4
f 190/1/4 187/1/4 191/1/4
f 191/3/4 188/3/4 192/3/4
f 193/3/4 194/3/4 197/3/4
f 194/1/4 195/1/4 198/1/4
f 197/3/4 194/3/4 198/3/4
f 195/3/4 196/3/4 199/3/4
f 198/1/4 195/1/4 199/1/4
f 199/3/4 196/3/4 200/3/4
f 201/2/4 202/2/4 203/2/4
f 203/2/4 202/2/4 204/2/4
f 205/1/4 206/1/4 207/1/4
f 207/1/4 206/1/4 208/1/4
f 209/2/4 210/2/4 211/2/4
f 211/2/4 210/2/4 212/2/4
f 213/1/4 214/1/4 215/1/4
f 215/1/4 214/1/4 216/1/4
f 215/2/4 216/2/4 217/2/4
f 217/2/4 216/2/4 218/2/4
f 223/3/5 220/3/5 219/3/5
f 224/3/5 220/3/5 223/3/5
f 225/3/5 222/3/5 221/3/5
f 226/3/5 222/3/5 225/3/5
f 231/3/5 228/3/5 227/3/5
f 232/3/5 228/3/5 231/3/5
f 233/3/5 230/3/5 229/3/5
f 234/3/5 230/3/5 233/3/5
f 239/1/5 236/1/5 235/1/5
f 240/2/5 237/2/5 236/2/5
f 240/1/5 236/1/5 239/1/5
f 241/2/5 237/2/5 240/2/5
f 244/2/5 239/2/5 238/2/5
f 244/2/5 240/2/5 239/2/5
f 245/2/5 240/2/5 244/2/5
f 246/1/5 241/1/5 240/1/5
f 246/2/5 240/2/5 245/2/5
f 247/1/5 241/1/5 246/1/5
f 248/2/5 242/2/5 241/2/5
f 248/1/5 241/1/5 247/1/5
f 249/2/5 242/2/5 248/2/5
f 251/1/5 245/1/5 244/1/5
f 251/1/5 244/1/5 243/1/5
f 252/1/5 245/1/5 251/1/5
f 253/2/5 247/2/5 246/2/5
f 254/2/5 247/2/5 253/2/5
f 255/1/5 250/1/5 249/1/5
f 255/1/5 249/1/5 248/1/5
f 256/1/5 250/1/5 255/1/5
f 257/2/5 252/2/5 251/2/5
f 258/2/5 252/2/5 257/2/5
f 259/1/5 254/1/5 253/1/5
f 259/2/5 252/2/5 258/2/5
f 259/1/5 253/1/5 252/1/5
f 260/1/5 254/1/5 259/1/5
f 261/2/5 255/2/5 254/2/5
f 261/1/5 254/1/5 260/1/5
f 261/2/5 256/2/5 255/2/5
f 262/2/5 256/2/5 261/2/5
f 263/1/5 250/1/5 256/1/5
f 263/2/5 256/2/5 262/2/5
f 264/1/5 250/1/5 263/1/5
f 265/1/5 258/1/5 257/1/5
f 266/2/5 259/2/5 258/2/5
f 266/1/5 258/1/5 265/1/5
f 267/2/5 259/2/5 266/2/5
f 268/2/5 261/2/5 260/2/5
f 269/2/5 261/2/5 268/2/5
f 270/1/5 263/1/5 262/1/5
f 271/2/5 264/2/5 263/2/5
f 271/1/5 263/1/5 270/1/5
f 272/2/5 264/2/5 271/2/5
f 273/1/5 267/1/5 266/1/5
f 274/2/5 269/2/5 268/2/5
f 274/1/5 267/1/5 273/1/5
f 274/2/5 268/2/5 267/2/5
f 275/2/5 269/2/5 274/2/5
f 276/1/5 270/1/5 269/1/5
f 276/2/5 269/2/5 275/2/5
f 277/2/5 271/2/5 270/2/5
f 277/1/5 270/1/5 276/1/5
f 278/2/5 271/2/5 277/2/5
f 279/1/5 275/1/5 274/1/5
f 280/2/5 276/2/5 275/2/5
f 280/1/5 275/1/5 279/1/5
f 280/2/5 277/2/5 276/2/5
f 281/2/5 277/2/5 280/2/5
f 282/1/6 283/1/6 286/1/6
f 283/2/6 284/2/6 287/2/6
f 286/1/6 283/1/6 287/1/6
f 287/2/6 284/2/6 288/2/6
f 285/2/6 286/2/6 291/2/6
f 286/2/6 287/2/6 291/2/6
f 291/2/6 287/2/6 292/2/6
f 287/1/6 288/1/6 293/1/6
f 292/2/6 287/2/6 293/2/6
f 288/2/6 289/2/6 294/2/6
f 293/1/6 288/1/6 294/1/6
f 294/2/6 289/2/6 295/2/6
f 291/1/6 292/1/6 297/1/6
f 290/1/6 291/1/6 297/1/6
f 292/2/6 293/2/6 298/2/6
f 297/1/6 292/1/6 298/1/6
f 293/2/6 294/2/6 298/2/6
f 298/2/6 294/2/6 299/2/6
f 295/1/6 296/1/6 300/1/6
f 299/2/6 294/2/6 300/2/6
f 294/1/6 295/1/6 300/1/6
f 300/1/6 296/1/6 301/1/6
f 297/2/6 298/2/6 302/2/6
f 302/2/6 298/2/6 303/2/6
f 298/1/6 299/1/6 304/1/6
f 299/2/6 300/2/6 305/2/6
f 304/1/6 299/1/6 305/1/6
f 300/2/6 301/2/6 305/2/6
f 301/1/6 296/1/6 306/1/6
f 305/2/6 301/2/6 306/2/6
f 306/1/6 296/1/6 307/1/6
f 302/1/6 303/1/6 308/1/6
f 303/2/6 298/2/6 309/2/6
f 308/1/6 303/1/6 309/1/6
f 298/1/6 304/1/6 310/1/6
f 309/2/6 298/2/6 310/2/6
f 304/2/6 305/2/6 311/2/6
f 310/1/6 304/1/6 311/1/6
f 305/1/6 306/1/6 312/1/6
f 306/2/6 307/2/6 313/2/6
f 312/1/6 306/1/6 313/1/6
f 313/2/6 307/2/6 314/2/6
f 309/1/6 310/1/6 315/1/6
f 310/2/6 311/2/6 316/2/6
f 315/1/6 310/1/6 316/1/6
f 311/2/6 305/2/6 317/2/6
f 316/2/6 311/2/6 317/2/6
f 305/1/6 312/1/6 318/1/6
f 317/2/6 305/2/6 318/2/6
f 312/2/6 313/2/6 319/2/6
f 318/1/6 312/1/6 319/1/6
f 319/2/6 313/2/6 320/2/6
f 316/1/6 317/1/6 321/1/6
f 317/2/6 318/2/6 322/2/6
f 321/1/6 317/1/6 322/1/6
f 318/2/6 319/2/6 322/2/6
f 322/2/6 319/2/6 323/2/6
