# MagicaVoxel @ Ephtracy

# group
o 

# material
mtllib Decor-84.mtl
usemtl palette

# normals
vn -1 0 0
vn 1 0 0
vn 0 0 1
vn 0 0 -1
vn 0 -1 0
vn 0 1 0

# texcoords
vt 0.970703 0.5
vt 0.978516 0.5
vt 0.982422 0.5

# verts
v -0.8 0 -1.5
v -0.8 0 -1.6
v -0.8 0 -2
v -0.8 0 -2.1
v -0.8 0.1 -1.5
v -0.8 0.1 -1.6
v -0.8 0.1 -2
v -0.8 0.1 -2.1
v -0.8 0.4 -1.5
v -0.8 0.4 -1.6
v -0.8 0.4 -2
v -0.8 0.4 -2.1
v -0.8 0.6 -2
v -0.8 0.6 -2.1
v -0.8 0.7 -1.5
v -0.8 0.7 -1.6
v -0.8 0.9 -1.5
v -0.8 0.9 -1.6
v -0.8 0.9 -2
v -0.8 0.9 -2.1
v -0.8 1 -1.5
v -0.8 1 -1.6
v -0.8 1 -2
v -0.8 1 -2.1
v -0.8 1.2 -2
v -0.8 1.2 -2.1
v -0.8 1.3 -2
v -0.8 1.3 -2.1
v -0.8 1.5 -2
v -0.8 1.5 -2.1
v -0.8 1.6 -2
v -0.8 1.6 -2.1
v -0.8 1.9 -2
v -0.8 1.9 -2.1
v -0.7 1.9 -2
v -0.7 1.9 -2.1
v -0.7 2 -2
v -0.7 2 -2.1
v -0.7 2.1 -2
v -0.7 2.1 -2.1
v -0.6 2.1 -2
v -0.6 2.1 -2.1
v -0.6 2.2 -2
v -0.6 2.2 -2.1
v -0.4 1.9 -2
v -0.4 1.9 -2.1
v -0.4 2 -2
v -0.4 2 -2.1
v -0.3 0 -1.5
v -0.3 0 -1.6
v -0.3 0 -2
v -0.3 0 -2.1
v -0.3 0.1 -2
v -0.3 0.1 -2.1
v -0.3 0.2 -1.5
v -0.3 0.2 -1.6
v -0.3 0.3 -1.5
v -0.3 0.3 -1.6
v -0.3 0.4 -2
v -0.3 0.4 -2.1
v -0.3 0.5 -1.5
v -0.3 0.5 -1.6
v -0.3 0.5 -2
v -0.3 0.5 -2.1
v -0.3 0.6 -1.5
v -0.3 0.6 -1.6
v -0.3 0.8 -2
v -0.3 0.8 -2.1
v -0.3 0.9 -1.5
v -0.3 0.9 -1.6
v -0.3 0.9 -2
v -0.3 0.9 -2.1
v -0.7 0 -1.5
v -0.7 0 -1.6
v -0.7 0 -2
v -0.7 0 -2.1
v -0.7 0.1 -1.5
v -0.7 0.1 -1.6
v -0.7 0.1 -2
v -0.7 0.1 -2.1
v -0.7 0.4 -1.5
v -0.7 0.4 -1.6
v -0.7 0.4 -2
v -0.7 0.4 -2.1
v -0.7 0.6 -2
v -0.7 0.6 -2.1
v -0.7 0.7 -1.5
v -0.7 0.7 -1.6
v -0.7 0.9 -1.5
v -0.7 0.9 -1.6
v -0.7 0.9 -2
v -0.7 0.9 -2.1
v -0.6 1.9 -2
v -0.6 1.9 -2.1
v -0.6 2 -2
v -0.6 2 -2.1
v -0.4 2.1 -2
v -0.4 2.1 -2.1
v -0.4 2.2 -2
v -0.4 2.2 -2.1
v -0.3 1.9 -2
v -0.3 1.9 -2.1
v -0.3 2 -2
v -0.3 2 -2.1
v -0.3 2.1 -2
v -0.3 2.1 -2.1
v -0.2 0 -1.5
v -0.2 0 -1.6
v -0.2 0 -2
v -0.2 0 -2.1
v -0.2 0.1 -2
v -0.2 0.1 -2.1
v -0.2 0.2 -1.5
v -0.2 0.2 -1.6
v -0.2 0.3 -1.5
v -0.2 0.3 -1.6
v -0.2 0.4 -2
v -0.2 0.4 -2.1
v -0.2 0.5 -1.5
v -0.2 0.5 -1.6
v -0.2 0.5 -2
v -0.2 0.5 -2.1
v -0.2 0.6 -1.5
v -0.2 0.6 -1.6
v -0.2 0.8 -2
v -0.2 0.8 -2.1
v -0.2 0.9 -1.5
v -0.2 0.9 -1.6
v -0.2 0.9 -1.8
v -0.2 0.9 -2
v -0.2 1 -1.5
v -0.2 1 -1.8
v -0.2 1 -2
v -0.2 1 -2.1
v -0.2 1.2 -2
v -0.2 1.2 -2.1
v -0.2 1.3 -2
v -0.2 1.3 -2.1
v -0.2 1.5 -2
v -0.2 1.5 -2.1
v -0.2 1.6 -2
v -0.2 1.6 -2.1
v -0.2 1.9 -2
v -0.2 1.9 -2.1
v -0.8 0 -1.5
v -0.8 0.1 -1.5
v -0.8 0.4 -1.5
v -0.8 0.7 -1.5
v -0.8 0.9 -1.5
v -0.8 1 -1.5
v -0.7 0 -1.5
v -0.7 0.1 -1.5
v -0.7 0.4 -1.5
v -0.7 0.7 -1.5
v -0.7 0.9 -1.5
v -0.5 0.9 -1.5
v -0.5 1 -1.5
v -0.3 0 -1.5
v -0.3 0.2 -1.5
v -0.3 0.3 -1.5
v -0.3 0.5 -1.5
v -0.3 0.6 -1.5
v -0.3 0.9 -1.5
v -0.2 0 -1.5
v -0.2 0.2 -1.5
v -0.2 0.3 -1.5
v -0.2 0.5 -1.5
v -0.2 0.6 -1.5
v -0.2 0.9 -1.5
v -0.2 1 -1.5
v -0.8 0 -2
v -0.8 0.1 -2
v -0.8 0.4 -2
v -0.8 0.6 -2
v -0.8 0.9 -2
v -0.8 1 -2
v -0.8 1.2 -2
v -0.8 1.3 -2
v -0.8 1.5 -2
v -0.8 1.6 -2
v -0.8 1.9 -2
v -0.7 0 -2
v -0.7 0.1 -2
v -0.7 0.4 -2
v -0.7 0.6 -2
v -0.7 0.9 -2
v -0.7 1.1 -2
v -0.7 1.2 -2
v -0.7 1.3 -2
v -0.7 1.4 -2
v -0.7 1.5 -2
v -0.7 1.6 -2
v -0.7 1.8 -2
v -0.7 1.9 -2
v -0.7 2 -2
v -0.7 2.1 -2
v -0.6 1 -2
v -0.6 1.1 -2
v -0.6 1.3 -2
v -0.6 1.4 -2
v -0.6 1.8 -2
v -0.6 1.9 -2
v -0.6 2 -2
v -0.6 2.1 -2
v -0.6 2.2 -2
v -0.5 1.2 -2
v -0.5 1.3 -2
v -0.4 1 -2
v -0.4 1.1 -2
v -0.4 1.2 -2
v -0.4 1.8 -2
v -0.4 1.9 -2
v -0.4 2 -2
v -0.4 2.1 -2
v -0.4 2.2 -2
v -0.3 0 -2
v -0.3 0.1 -2
v -0.3 0.4 -2
v -0.3 0.5 -2
v -0.3 0.8 -2
v -0.3 0.9 -2
v -0.3 1.1 -2
v -0.3 1.2 -2
v -0.3 1.3 -2
v -0.3 1.5 -2
v -0.3 1.6 -2
v -0.3 1.8 -2
v -0.3 1.9 -2
v -0.3 2 -2
v -0.3 2.1 -2
v -0.2 0 -2
v -0.2 0.1 -2
v -0.2 0.4 -2
v -0.2 0.5 -2
v -0.2 0.8 -2
v -0.2 0.9 -2
v -0.2 1 -2
v -0.2 1.2 -2
v -0.2 1.3 -2
v -0.2 1.5 -2
v -0.2 1.6 -2
v -0.2 1.9 -2
v -0.8 0 -1.6
v -0.8 0.1 -1.6
v -0.8 0.4 -1.6
v -0.8 0.7 -1.6
v -0.8 0.9 -1.6
v -0.7 0 -1.6
v -0.7 0.1 -1.6
v -0.7 0.4 -1.6
v -0.7 0.7 -1.6
v -0.7 0.9 -1.6
v -0.3 0 -1.6
v -0.3 0.2 -1.6
v -0.3 0.3 -1.6
v -0.3 0.5 -1.6
v -0.3 0.6 -1.6
v -0.3 0.9 -1.6
v -0.2 0 -1.6
v -0.2 0.2 -1.6
v -0.2 0.3 -1.6
v -0.2 0.5 -1.6
v -0.2 0.6 -1.6
v -0.2 0.9 -1.6
v -0.8 0 -2.1
v -0.8 0.1 -2.1
v -0.8 0.4 -2.1
v -0.8 0.6 -2.1
v -0.8 0.9 -2.1
v -0.8 1 -2.1
v -0.8 1.2 -2.1
v -0.8 1.3 -2.1
v -0.8 1.5 -2.1
v -0.8 1.6 -2.1
v -0.8 1.9 -2.1
v -0.7 0 -2.1
v -0.7 0.1 -2.1
v -0.7 0.4 -2.1
v -0.7 0.6 -2.1
v -0.7 0.9 -2.1
v -0.7 1.1 -2.1
v -0.7 1.2 -2.1
v -0.7 1.3 -2.1
v -0.7 1.4 -2.1
v -0.7 1.5 -2.1
v -0.7 1.6 -2.1
v -0.7 1.8 -2.1
v -0.7 1.9 -2.1
v -0.7 2 -2.1
v -0.7 2.1 -2.1
v -0.6 1 -2.1
v -0.6 1.1 -2.1
v -0.6 1.3 -2.1
v -0.6 1.4 -2.1
v -0.6 1.8 -2.1
v -0.6 1.9 -2.1
v -0.6 2 -2.1
v -0.6 2.1 -2.1
v -0.6 2.2 -2.1
v -0.5 1.2 -2.1
v -0.5 1.3 -2.1
v -0.4 1 -2.1
v -0.4 1.1 -2.1
v -0.4 1.2 -2.1
v -0.4 1.8 -2.1
v -0.4 1.9 -2.1
v -0.4 2 -2.1
v -0.4 2.1 -2.1
v -0.4 2.2 -2.1
v -0.3 0 -2.1
v -0.3 0.1 -2.1
v -0.3 0.4 -2.1
v -0.3 0.5 -2.1
v -0.3 0.8 -2.1
v -0.3 0.9 -2.1
v -0.3 1.1 -2.1
v -0.3 1.2 -2.1
v -0.3 1.3 -2.1
v -0.3 1.5 -2.1
v -0.3 1.6 -2.1
v -0.3 1.8 -2.1
v -0.3 1.9 -2.1
v -0.3 2 -2.1
v -0.3 2.1 -2.1
v -0.2 0 -2.1
v -0.2 0.1 -2.1
v -0.2 0.4 -2.1
v -0.2 0.5 -2.1
v -0.2 0.8 -2.1
v -0.2 1 -2.1
v -0.2 1.2 -2.1
v -0.2 1.3 -2.1
v -0.2 1.5 -2.1
v -0.2 1.6 -2.1
v -0.2 1.9 -2.1
v -0.8 0 -1.5
v -0.7 0 -1.5
v -0.3 0 -1.5
v -0.2 0 -1.5
v -0.8 0 -1.6
v -0.7 0 -1.6
v -0.3 0 -1.6
v -0.2 0 -1.6
v -0.8 0 -2
v -0.7 0 -2
v -0.3 0 -2
v -0.2 0 -2
v -0.8 0 -2.1
v -0.7 0 -2.1
v -0.3 0 -2.1
v -0.2 0 -2.1
v -0.7 0.9 -1.5
v -0.5 0.9 -1.5
v -0.3 0.9 -1.5
v -0.8 0.9 -1.6
v -0.7 0.9 -1.6
v -0.6 0.9 -1.6
v -0.5 0.9 -1.6
v -0.3 0.9 -1.6
v -0.2 0.9 -1.6
v -0.5 0.9 -1.7
v -0.4 0.9 -1.7
v -0.6 0.9 -1.8
v -0.5 0.9 -1.8
v -0.3 0.9 -1.8
v -0.2 0.9 -1.8
v -0.7 0.9 -1.9
v -0.5 0.9 -1.9
v -0.8 0.9 -2
v -0.7 0.9 -2
v -0.4 0.9 -2
v -0.3 0.9 -2
v -0.2 0.9 -2
v -0.7 0.9 -2.1
v -0.3 0.9 -2.1
v -0.6 2 -2
v -0.4 2 -2
v -0.6 2 -2.1
v -0.4 2 -2.1
v -0.8 1 -1.5
v -0.5 1 -1.5
v -0.2 1 -1.5
v -0.8 1 -1.6
v -0.7 1 -1.6
v -0.6 1 -1.6
v -0.5 1 -1.6
v -0.3 1 -1.6
v -0.5 1 -1.7
v -0.4 1 -1.7
v -0.6 1 -1.8
v -0.5 1 -1.8
v -0.3 1 -1.8
v -0.2 1 -1.8
v -0.7 1 -1.9
v -0.5 1 -1.9
v -0.8 1 -2
v -0.6 1 -2
v -0.4 1 -2
v -0.2 1 -2
v -0.8 1.9 -2
v -0.7 1.9 -2
v -0.6 1.9 -2
v -0.4 1.9 -2
v -0.3 1.9 -2
v -0.2 1.9 -2
v -0.8 1.9 -2.1
v -0.7 1.9 -2.1
v -0.6 1.9 -2.1
v -0.4 1.9 -2.1
v -0.3 1.9 -2.1
v -0.2 1.9 -2.1
v -0.7 2.1 -2
v -0.6 2.1 -2
v -0.4 2.1 -2
v -0.3 2.1 -2
v -0.7 2.1 -2.1
v -0.6 2.1 -2.1
v -0.4 2.1 -2.1
v -0.3 2.1 -2.1
v -0.6 2.2 -2
v -0.4 2.2 -2
v -0.6 2.2 -2.1
v -0.4 2.2 -2.1

# faces
f 5/1/1 2/1/1 1/1/1
f 6/1/1 2/1/1 5/1/1
f 7/1/1 4/1/1 3/1/1
f 8/1/1 4/1/1 7/1/1
f 9/3/1 6/3/1 5/3/1
f 10/3/1 6/3/1 9/3/1
f 11/3/1 8/3/1 7/3/1
f 12/3/1 8/3/1 11/3/1
f 13/1/1 12/1/1 11/1/1
f 14/1/1 12/1/1 13/1/1
f 15/1/1 10/1/1 9/1/1
f 16/1/1 10/1/1 15/1/1
f 17/3/1 16/3/1 15/3/1
f 18/3/1 16/3/1 17/3/1
f 19/3/1 14/3/1 13/3/1
f 20/3/1 14/3/1 19/3/1
f 21/1/1 18/1/1 17/1/1
f 22/2/1 19/2/1 18/2/1
f 22/1/1 18/1/1 21/1/1
f 23/1/1 20/1/1 19/1/1
f 23/2/1 19/2/1 22/2/1
f 24/1/1 20/1/1 23/1/1
f 25/3/1 24/3/1 23/3/1
f 26/3/1 24/3/1 25/3/1
f 27/1/1 26/1/1 25/1/1
f 28/1/1 26/1/1 27/1/1
f 29/3/1 28/3/1 27/3/1
f 30/3/1 28/3/1 29/3/1
f 31/1/1 30/1/1 29/1/1
f 32/1/1 30/1/1 31/1/1
f 33/3/1 32/3/1 31/3/1
f 34/3/1 32/3/1 33/3/1
f 37/1/1 36/1/1 35/1/1
f 38/1/1 36/1/1 37/1/1
f 39/3/1 38/3/1 37/3/1
f 40/3/1 38/3/1 39/3/1
f 43/3/1 42/3/1 41/3/1
f 44/3/1 42/3/1 43/3/1
f 47/1/1 46/1/1 45/1/1
f 48/1/1 46/1/1 47/1/1
f 53/1/1 52/1/1 51/1/1
f 54/1/1 52/1/1 53/1/1
f 55/3/1 50/3/1 49/3/1
f 56/3/1 50/3/1 55/3/1
f 57/1/1 56/1/1 55/1/1
f 58/1/1 56/1/1 57/1/1
f 59/3/1 54/3/1 53/3/1
f 60/3/1 54/3/1 59/3/1
f 61/3/1 58/3/1 57/3/1
f 62/3/1 58/3/1 61/3/1
f 63/1/1 60/1/1 59/1/1
f 64/1/1 60/1/1 63/1/1
f 65/1/1 62/1/1 61/1/1
f 66/1/1 62/1/1 65/1/1
f 67/3/1 64/3/1 63/3/1
f 68/3/1 64/3/1 67/3/1
f 69/3/1 66/3/1 65/3/1
f 70/3/1 66/3/1 69/3/1
f 71/1/1 68/1/1 67/1/1
f 72/1/1 68/1/1 71/1/1
f 73/1/2 74/1/2 77/1/2
f 77/1/2 74/1/2 78/1/2
f 75/1/2 76/1/2 79/1/2
f 79/1/2 76/1/2 80/1/2
f 77/3/2 78/3/2 81/3/2
f 81/3/2 78/3/2 82/3/2
f 79/3/2 80/3/2 83/3/2
f 83/3/2 80/3/2 84/3/2
f 83/1/2 84/1/2 85/1/2
f 85/1/2 84/1/2 86/1/2
f 81/1/2 82/1/2 87/1/2
f 87/1/2 82/1/2 88/1/2
f 87/3/2 88/3/2 89/3/2
f 89/3/2 88/3/2 90/3/2
f 85/3/2 86/3/2 91/3/2
f 91/3/2 86/3/2 92/3/2
f 93/1/2 94/1/2 95/1/2
f 95/1/2 94/1/2 96/1/2
f 97/3/2 98/3/2 99/3/2
f 99/3/2 98/3/2 100/3/2
f 101/1/2 102/1/2 103/1/2
f 103/1/2 102/1/2 104/1/2
f 103/3/2 104/3/2 105/3/2
f 105/3/2 104/3/2 106/3/2
f 109/1/2 110/1/2 111/1/2
f 111/1/2 110/1/2 112/1/2
f 107/3/2 108/3/2 113/3/2
f 113/3/2 108/3/2 114/3/2
f 113/1/2 114/1/2 115/1/2
f 115/1/2 114/1/2 116/1/2
f 111/3/2 112/3/2 117/3/2
f 117/3/2 112/3/2 118/3/2
f 115/3/2 116/3/2 119/3/2
f 119/3/2 116/3/2 120/3/2
f 117/1/2 118/1/2 121/1/2
f 121/1/2 118/1/2 122/1/2
f 119/1/2 120/1/2 123/1/2
f 123/1/2 120/1/2 124/1/2
f 121/3/2 122/3/2 125/3/2
f 125/3/2 122/3/2 126/3/2
f 123/3/2 124/3/2 127/3/2
f 127/3/2 124/3/2 128/3/2
f 125/1/2 126/1/2 130/1/2
f 128/2/2 129/2/2 131/2/2
f 127/2/2 128/2/2 131/2/2
f 129/1/2 130/1/2 132/1/2
f 131/2/2 129/2/2 132/2/2
f 130/1/2 126/1/2 133/1/2
f 132/1/2 130/1/2 133/1/2
f 133/1/2 126/1/2 134/1/2
f 133/3/2 134/3/2 135/3/2
f 135/3/2 134/3/2 136/3/2
f 135/1/2 136/1/2 137/1/2
f 137/1/2 136/1/2 138/1/2
f 137/3/2 138/3/2 139/3/2
f 139/3/2 138/3/2 140/3/2
f 139/1/2 140/1/2 141/1/2
f 141/1/2 140/1/2 142/1/2
f 141/3/2 142/3/2 143/3/2
f 143/3/2 142/3/2 144/3/2
f 151/1/3 146/1/3 145/1/3
f 152/3/3 147/3/3 146/3/3
f 152/1/3 146/1/3 151/1/3
f 153/1/3 148/1/3 147/1/3
f 153/3/3 147/3/3 152/3/3
f 154/3/3 149/3/3 148/3/3
f 154/1/3 148/1/3 153/1/3
f 155/1/3 150/1/3 149/1/3
f 155/3/3 149/3/3 154/3/3
f 156/1/3 150/1/3 155/1/3
f 157/1/3 150/1/3 156/1/3
f 163/2/3 157/2/3 156/2/3
f 164/3/3 159/3/3 158/3/3
f 165/1/3 160/1/3 159/1/3
f 165/3/3 159/3/3 164/3/3
f 166/3/3 161/3/3 160/3/3
f 166/1/3 160/1/3 165/1/3
f 167/1/3 162/1/3 161/1/3
f 167/3/3 161/3/3 166/3/3
f 168/3/3 163/3/3 162/3/3
f 168/1/3 162/1/3 167/1/3
f 169/2/3 157/2/3 163/2/3
f 169/3/3 163/3/3 168/3/3
f 170/2/3 157/2/3 169/2/3
f 182/1/3 172/1/3 171/1/3
f 183/3/3 173/3/3 172/3/3
f 183/1/3 172/1/3 182/1/3
f 184/1/3 174/1/3 173/1/3
f 184/3/3 173/3/3 183/3/3
f 185/3/3 175/3/3 174/3/3
f 185/1/3 174/1/3 184/1/3
f 186/3/3 175/3/3 185/3/3
f 187/3/3 177/3/3 176/3/3
f 188/1/3 178/1/3 177/1/3
f 188/3/3 177/3/3 187/3/3
f 189/3/3 179/3/3 178/3/3
f 189/1/3 178/1/3 188/1/3
f 190/3/3 179/3/3 189/3/3
f 191/1/3 180/1/3 179/1/3
f 191/3/3 179/3/3 190/3/3
f 192/3/3 181/3/3 180/3/3
f 192/1/3 180/1/3 191/1/3
f 193/3/3 181/3/3 192/3/3
f 194/3/3 181/3/3 193/3/3
f 197/3/3 187/3/3 176/3/3
f 198/1/3 188/1/3 187/1/3
f 198/3/3 187/3/3 197/3/3
f 198/1/3 190/1/3 189/1/3
f 198/1/3 189/1/3 188/1/3
f 199/1/3 190/1/3 198/1/3
f 200/2/3 191/2/3 190/2/3
f 200/1/3 190/1/3 199/1/3
f 200/2/3 193/2/3 192/2/3
f 200/2/3 192/2/3 191/2/3
f 201/3/3 194/3/3 193/3/3
f 201/2/3 193/2/3 200/2/3
f 202/1/3 195/1/3 194/1/3
f 202/3/3 194/3/3 201/3/3
f 203/3/3 196/3/3 195/3/3
f 203/1/3 195/1/3 202/1/3
f 204/3/3 196/3/3 203/3/3
f 206/1/3 199/1/3 198/1/3
f 206/1/3 198/1/3 197/1/3
f 207/2/3 202/2/3 201/2/3
f 207/1/3 199/1/3 206/1/3
f 207/2/3 201/2/3 200/2/3
f 207/2/3 200/2/3 199/2/3
f 208/1/3 206/1/3 197/1/3
f 209/1/3 206/1/3 208/1/3
f 210/2/3 207/2/3 206/2/3
f 210/1/3 206/1/3 209/1/3
f 211/2/3 202/2/3 207/2/3
f 211/2/3 207/2/3 210/2/3
f 212/2/3 202/2/3 211/2/3
f 213/1/3 204/1/3 203/1/3
f 214/3/3 205/3/3 204/3/3
f 214/1/3 204/1/3 213/1/3
f 215/3/3 205/3/3 214/3/3
f 222/2/3 210/2/3 209/2/3
f 222/3/3 209/3/3 208/3/3
f 222/2/3 211/2/3 210/2/3
f 223/2/3 211/2/3 222/2/3
f 224/2/3 211/2/3 223/2/3
f 225/2/3 211/2/3 224/2/3
f 226/2/3 211/2/3 225/2/3
f 227/3/3 212/3/3 211/3/3
f 227/2/3 211/2/3 226/2/3
f 228/1/3 213/1/3 212/1/3
f 228/3/3 212/3/3 227/3/3
f 229/3/3 214/3/3 213/3/3
f 229/1/3 213/1/3 228/1/3
f 230/3/3 214/3/3 229/3/3
f 231/1/3 217/1/3 216/1/3
f 232/3/3 218/3/3 217/3/3
f 232/1/3 217/1/3 231/1/3
f 233/1/3 219/1/3 218/1/3
f 233/3/3 218/3/3 232/3/3
f 234/3/3 220/3/3 219/3/3
f 234/1/3 219/1/3 233/1/3
f 235/1/3 221/1/3 220/1/3
f 235/3/3 220/3/3 234/3/3
f 236/1/3 221/1/3 235/1/3
f 237/3/3 222/3/3 208/3/3
f 237/3/3 223/3/3 222/3/3
f 238/1/3 224/1/3 223/1/3
f 238/3/3 223/3/3 237/3/3
f 239/3/3 225/3/3 224/3/3
f 239/1/3 224/1/3 238/1/3
f 240/1/3 226/1/3 225/1/3
f 240/3/3 225/3/3 239/3/3
f 241/3/3 227/3/3 226/3/3
f 241/1/3 226/1/3 240/1/3
f 241/3/3 228/3/3 227/3/3
f 242/3/3 228/3/3 241/3/3
f 243/1/4 244/1/4 248/1/4
f 244/3/4 245/3/4 249/3/4
f 248/1/4 244/1/4 249/1/4
f 245/1/4 246/1/4 250/1/4
f 249/3/4 245/3/4 250/3/4
f 246/3/4 247/3/4 251/3/4
f 250/1/4 246/1/4 251/1/4
f 251/3/4 247/3/4 252/3/4
f 253/3/4 254/3/4 259/3/4
f 254/1/4 255/1/4 260/1/4
f 259/3/4 254/3/4 260/3/4
f 255/3/4 256/3/4 261/3/4
f 260/1/4 255/1/4 261/1/4
f 256/1/4 257/1/4 262/1/4
f 261/3/4 256/3/4 262/3/4
f 257/3/4 258/3/4 263/3/4
f 262/1/4 257/1/4 263/1/4
f 263/3/4 258/3/4 264/3/4
f 265/1/4 266/1/4 276/1/4
f 266/3/4 267/3/4 277/3/4
f 276/1/4 266/1/4 277/1/4
f 267/1/4 268/1/4 278/1/4
f 277/3/4 267/3/4 278/3/4
f 268/3/4 269/3/4 279/3/4
f 278/1/4 268/1/4 279/1/4
f 269/1/4 270/1/4 280/1/4
f 279/3/4 269/3/4 280/3/4
f 270/3/4 271/3/4 281/3/4
f 271/1/4 272/1/4 282/1/4
f 281/3/4 271/3/4 282/3/4
f 272/3/4 273/3/4 283/3/4
f 282/1/4 272/1/4 283/1/4
f 283/3/4 273/3/4 284/3/4
f 273/1/4 274/1/4 285/1/4
f 284/3/4 273/3/4 285/3/4
f 274/3/4 275/3/4 286/3/4
f 285/1/4 274/1/4 286/1/4
f 286/3/4 275/3/4 287/3/4
f 287/3/4 275/3/4 288/3/4
f 280/1/4 270/1/4 291/1/4
f 270/3/4 281/3/4 291/3/4
f 281/1/4 282/1/4 292/1/4
f 291/3/4 281/3/4 292/3/4
f 283/1/4 284/1/4 292/1/4
f 282/1/4 283/1/4 292/1/4
f 292/1/4 284/1/4 293/1/4
f 284/2/4 285/2/4 294/2/4
f 293/1/4 284/1/4 294/1/4
f 286/2/4 287/2/4 294/2/4
f 285/2/4 286/2/4 294/2/4
f 287/3/4 288/3/4 295/3/4
f 294/2/4 287/2/4 295/2/4
f 288/1/4 289/1/4 296/1/4
f 295/3/4 288/3/4 296/3/4
f 289/3/4 290/3/4 297/3/4
f 296/1/4 289/1/4 297/1/4
f 297/3/4 290/3/4 298/3/4
f 292/1/4 293/1/4 300/1/4
f 291/1/4 292/1/4 300/1/4
f 295/2/4 296/2/4 301/2/4
f 300/1/4 293/1/4 301/1/4
f 294/2/4 295/2/4 301/2/4
f 293/2/4 294/2/4 301/2/4
f 291/1/4 300/1/4 302/1/4
f 280/1/4 291/1/4 302/1/4
f 302/1/4 300/1/4 303/1/4
f 300/2/4 301/2/4 304/2/4
f 303/1/4 300/1/4 304/1/4
f 301/2/4 296/2/4 305/2/4
f 304/2/4 301/2/4 305/2/4
f 305/2/4 296/2/4 306/2/4
f 297/1/4 298/1/4 307/1/4
f 298/3/4 299/3/4 308/3/4
f 307/1/4 298/1/4 308/1/4
f 308/3/4 299/3/4 309/3/4
f 280/1/4 302/1/4 315/1/4
f 303/2/4 304/2/4 316/2/4
f 302/3/4 303/3/4 316/3/4
f 304/2/4 305/2/4 316/2/4
f 316/2/4 305/2/4 317/2/4
f 317/2/4 305/2/4 318/2/4
f 318/2/4 305/2/4 319/2/4
f 319/2/4 305/2/4 320/2/4
f 305/3/4 306/3/4 321/3/4
f 320/2/4 305/2/4 321/2/4
f 306/1/4 307/1/4 322/1/4
f 321/3/4 306/3/4 322/3/4
f 307/3/4 308/3/4 323/3/4
f 322/1/4 307/1/4 323/1/4
f 323/3/4 308/3/4 324/3/4
f 310/1/4 311/1/4 325/1/4
f 311/3/4 312/3/4 326/3/4
f 325/1/4 311/1/4 326/1/4
f 312/1/4 313/1/4 327/1/4
f 326/3/4 312/3/4 327/3/4
f 313/3/4 314/3/4 328/3/4
f 327/1/4 313/1/4 328/1/4
f 314/1/4 315/1/4 329/1/4
f 328/3/4 314/3/4 329/3/4
f 315/1/4 302/1/4 330/1/4
f 329/1/4 315/1/4 330/1/4
f 302/3/4 316/3/4 330/3/4
f 316/3/4 317/3/4 330/3/4
f 317/1/4 318/1/4 331/1/4
f 330/3/4 317/3/4 331/3/4
f 318/3/4 319/3/4 332/3/4
f 331/1/4 318/1/4 332/1/4
f 319/1/4 320/1/4 333/1/4
f 332/3/4 319/3/4 333/3/4
f 320/3/4 321/3/4 334/3/4
f 333/1/4 320/1/4 334/1/4
f 321/3/4 322/3/4 334/3/4
f 334/3/4 322/3/4 335/3/4
f 340/1/5 337/1/5 336/1/5
f 341/1/5 337/1/5 340/1/5
f 342/3/5 339/3/5 338/3/5
f 343/3/5 339/3/5 342/3/5
f 348/1/5 345/1/5 344/1/5
f 349/1/5 345/1/5 348/1/5
f 350/1/5 347/1/5 346/1/5
f 351/1/5 347/1/5 350/1/5
f 356/1/5 353/1/5 352/1/5
f 357/1/5 353/1/5 356/1/5
f 358/2/5 354/2/5 353/2/5
f 358/1/5 353/1/5 357/1/5
f 359/2/5 354/2/5 358/2/5
f 361/2/5 358/2/5 357/2/5
f 361/1/5 359/1/5 358/1/5
f 362/1/5 359/1/5 361/1/5
f 363/1/5 357/1/5 356/1/5
f 363/2/5 361/2/5 357/2/5
f 363/2/5 362/2/5 361/2/5
f 364/2/5 362/2/5 363/2/5
f 365/1/5 359/1/5 362/1/5
f 365/2/5 360/2/5 359/2/5
f 366/2/5 360/2/5 365/2/5
f 367/2/5 356/2/5 355/2/5
f 367/1/5 364/1/5 363/1/5
f 367/1/5 363/1/5 356/1/5
f 368/2/5 362/2/5 364/2/5
f 368/1/5 364/1/5 367/1/5
f 369/2/5 367/2/5 355/2/5
f 369/2/5 368/2/5 367/2/5
f 370/2/5 368/2/5 369/2/5
f 371/2/5 362/2/5 368/2/5
f 371/2/5 368/2/5 370/2/5
f 371/1/5 366/1/5 365/1/5
f 371/1/5 365/1/5 362/1/5
f 372/1/5 366/1/5 371/1/5
f 373/1/5 366/1/5 372/1/5
f 374/1/5 371/1/5 370/1/5
f 374/1/5 372/1/5 371/1/5
f 375/1/5 372/1/5 374/1/5
f 378/1/5 377/1/5 376/1/5
f 379/1/5 377/1/5 378/1/5
f 380/1/6 381/1/6 383/1/6
f 383/1/6 381/1/6 384/1/6
f 384/1/6 381/1/6 385/1/6
f 381/2/6 382/2/6 386/2/6
f 385/1/6 381/1/6 386/1/6
f 386/2/6 382/2/6 387/2/6
f 385/2/6 386/2/6 388/2/6
f 386/1/6 387/1/6 388/1/6
f 388/1/6 387/1/6 389/1/6
f 384/1/6 385/1/6 390/1/6
f 385/2/6 388/2/6 390/2/6
f 388/2/6 389/2/6 390/2/6
f 390/2/6 389/2/6 391/2/6
f 389/1/6 387/1/6 392/1/6
f 387/2/6 382/2/6 392/2/6
f 392/2/6 382/2/6 393/2/6
f 383/2/6 384/2/6 394/2/6
f 390/1/6 391/1/6 394/1/6
f 384/1/6 390/1/6 394/1/6
f 391/2/6 389/2/6 395/2/6
f 394/1/6 391/1/6 395/1/6
f 383/2/6 394/2/6 396/2/6
f 394/2/6 395/2/6 396/2/6
f 396/2/6 395/2/6 397/2/6
f 395/2/6 389/2/6 398/2/6
f 397/2/6 395/2/6 398/2/6
f 392/1/6 393/1/6 398/1/6
f 389/1/6 392/1/6 398/1/6
f 398/1/6 393/1/6 399/1/6
f 400/3/6 401/3/6 406/3/6
f 406/3/6 401/3/6 407/3/6
f 402/2/6 403/2/6 408/2/6
f 408/2/6 403/2/6 409/2/6
f 404/3/6 405/3/6 410/3/6
f 410/3/6 405/3/6 411/3/6
f 412/3/6 413/3/6 416/3/6
f 416/3/6 413/3/6 417/3/6
f 414/3/6 415/3/6 418/3/6
f 418/3/6 415/3/6 419/3/6
f 420/3/6 421/3/6 422/3/6
f 422/3/6 421/3/6 423/3/6
