# MagicaVoxel @ Ephtracy

# group
o 

# material
mtllib Decor-74.mtl
usemtl palette

# normals
vn -1 0 0
vn 1 0 0
vn 0 0 1
vn 0 0 -1
vn 0 -1 0
vn 0 1 0

# texcoords
vt 0.939453 0.5
vt 0.943359 0.5

# verts
v 2.3 0.8 2
v 2.3 0.8 1.7
v 2.3 0.9 2
v 2.3 0.9 1.7
v 2.4 0.8 2.1
v 2.4 0.8 2
v 2.4 0.8 1.7
v 2.4 0.8 1.6
v 2.4 0.9 2.1
v 2.4 0.9 2
v 2.4 0.9 1.7
v 2.4 0.9 1.6
v 2.5 0 2
v 2.5 0 1.9
v 2.5 0 1.8
v 2.5 0 1.7
v 2.5 0.2 2
v 2.5 0.2 1.9
v 2.5 0.2 1.8
v 2.5 0.2 1.7
v 2.5 0.8 2.2
v 2.5 0.8 2.1
v 2.5 0.8 2
v 2.5 0.8 1.9
v 2.5 0.8 1.8
v 2.5 0.8 1.7
v 2.5 0.8 1.6
v 2.5 0.8 1.5
v 2.5 0.9 2.2
v 2.5 0.9 2.1
v 2.5 0.9 1.6
v 2.5 0.9 1.5
v 2.7 0 2
v 2.7 0 1.9
v 2.7 0 1.8
v 2.7 0 1.7
v 2.7 0.2 2
v 2.7 0.2 1.9
v 2.7 0.2 1.8
v 2.7 0.2 1.7
v 2.7 0.8 2
v 2.7 0.8 1.9
v 2.7 0.8 1.8
v 2.7 0.8 1.7
v 2.6 0 2
v 2.6 0 1.9
v 2.6 0 1.8
v 2.6 0 1.7
v 2.6 0.2 2
v 2.6 0.2 1.9
v 2.6 0.2 1.8
v 2.6 0.2 1.7
v 2.6 0.8 2
v 2.6 0.8 1.9
v 2.6 0.8 1.8
v 2.6 0.8 1.7
v 2.8 0 2
v 2.8 0 1.9
v 2.8 0 1.8
v 2.8 0 1.7
v 2.8 0.2 2
v 2.8 0.2 1.9
v 2.8 0.2 1.8
v 2.8 0.2 1.7
v 2.8 0.8 2.2
v 2.8 0.8 2.1
v 2.8 0.8 2
v 2.8 0.8 1.9
v 2.8 0.8 1.8
v 2.8 0.8 1.7
v 2.8 0.8 1.6
v 2.8 0.8 1.5
v 2.8 0.9 2.2
v 2.8 0.9 2.1
v 2.8 0.9 1.6
v 2.8 0.9 1.5
v 2.9 0.8 2.1
v 2.9 0.8 2
v 2.9 0.8 1.7
v 2.9 0.8 1.6
v 2.9 0.9 2.1
v 2.9 0.9 2
v 2.9 0.9 1.7
v 2.9 0.9 1.6
v 3 0.8 2
v 3 0.8 1.7
v 3 0.9 2
v 3 0.9 1.7
v 2.5 0.8 2.2
v 2.5 0.9 2.2
v 2.6 0.8 2.2
v 2.6 0.9 2.2
v 2.7 0.8 2.2
v 2.7 0.9 2.2
v 2.8 0.8 2.2
v 2.8 0.9 2.2
v 2.4 0.8 2.1
v 2.4 0.9 2.1
v 2.5 0.8 2.1
v 2.5 0.9 2.1
v 2.8 0.8 2.1
v 2.8 0.9 2.1
v 2.9 0.8 2.1
v 2.9 0.9 2.1
v 2.3 0.8 2
v 2.3 0.9 2
v 2.4 0.8 2
v 2.4 0.9 2
v 2.5 0 2
v 2.5 0.2 2
v 2.5 0.8 2
v 2.6 0 2
v 2.6 0.2 2
v 2.6 0.8 2
v 2.7 0 2
v 2.7 0.2 2
v 2.7 0.8 2
v 2.8 0 2
v 2.8 0.2 2
v 2.8 0.8 2
v 2.9 0.8 2
v 2.9 0.9 2
v 3 0.8 2
v 3 0.9 2
v 2.5 0 1.8
v 2.5 0.2 1.8
v 2.5 0.8 1.8
v 2.6 0 1.8
v 2.6 0.2 1.8
v 2.6 0.8 1.8
v 2.7 0 1.8
v 2.7 0.2 1.8
v 2.7 0.8 1.8
v 2.8 0 1.8
v 2.8 0.2 1.8
v 2.8 0.8 1.8
v 2.5 0 1.9
v 2.5 0.2 1.9
v 2.5 0.8 1.9
v 2.6 0 1.9
v 2.6 0.2 1.9
v 2.6 0.8 1.9
v 2.7 0 1.9
v 2.7 0.2 1.9
v 2.7 0.8 1.9
v 2.8 0 1.9
v 2.8 0.2 1.9
v 2.8 0.8 1.9
v 2.3 0.8 1.7
v 2.3 0.9 1.7
v 2.4 0.8 1.7
v 2.4 0.9 1.7
v 2.5 0 1.7
v 2.5 0.2 1.7
v 2.5 0.8 1.7
v 2.6 0 1.7
v 2.6 0.2 1.7
v 2.6 0.8 1.7
v 2.7 0 1.7
v 2.7 0.2 1.7
v 2.7 0.8 1.7
v 2.8 0 1.7
v 2.8 0.2 1.7
v 2.8 0.8 1.7
v 2.9 0.8 1.7
v 2.9 0.9 1.7
v 3 0.8 1.7
v 3 0.9 1.7
v 2.4 0.8 1.6
v 2.4 0.9 1.6
v 2.5 0.8 1.6
v 2.5 0.9 1.6
v 2.8 0.8 1.6
v 2.8 0.9 1.6
v 2.9 0.8 1.6
v 2.9 0.9 1.6
v 2.5 0.8 1.5
v 2.5 0.9 1.5
v 2.6 0.8 1.5
v 2.6 0.9 1.5
v 2.7 0.8 1.5
v 2.7 0.9 1.5
v 2.8 0.8 1.5
v 2.8 0.9 1.5
v 2.5 0 2
v 2.6 0 2
v 2.7 0 2
v 2.8 0 2
v 2.5 0 1.9
v 2.6 0 1.9
v 2.7 0 1.9
v 2.8 0 1.9
v 2.5 0 1.8
v 2.6 0 1.8
v 2.7 0 1.8
v 2.8 0 1.8
v 2.5 0 1.7
v 2.6 0 1.7
v 2.7 0 1.7
v 2.8 0 1.7
v 2.5 0.8 2.2
v 2.6 0.8 2.2
v 2.7 0.8 2.2
v 2.8 0.8 2.2
v 2.4 0.8 2.1
v 2.5 0.8 2.1
v 2.8 0.8 2.1
v 2.9 0.8 2.1
v 2.3 0.8 2
v 2.4 0.8 2
v 2.5 0.8 2
v 2.6 0.8 2
v 2.7 0.8 2
v 2.8 0.8 2
v 2.9 0.8 2
v 3 0.8 2
v 2.5 0.8 1.9
v 2.6 0.8 1.9
v 2.7 0.8 1.9
v 2.8 0.8 1.9
v 2.5 0.8 1.8
v 2.6 0.8 1.8
v 2.7 0.8 1.8
v 2.8 0.8 1.8
v 2.3 0.8 1.7
v 2.4 0.8 1.7
v 2.5 0.8 1.7
v 2.6 0.8 1.7
v 2.7 0.8 1.7
v 2.8 0.8 1.7
v 2.9 0.8 1.7
v 3 0.8 1.7
v 2.4 0.8 1.6
v 2.5 0.8 1.6
v 2.8 0.8 1.6
v 2.9 0.8 1.6
v 2.5 0.8 1.5
v 2.6 0.8 1.5
v 2.7 0.8 1.5
v 2.8 0.8 1.5
v 2.5 0.9 2.2
v 2.6 0.9 2.2
v 2.7 0.9 2.2
v 2.8 0.9 2.2
v 2.4 0.9 2.1
v 2.5 0.9 2.1
v 2.8 0.9 2.1
v 2.9 0.9 2.1
v 2.3 0.9 2
v 2.4 0.9 2
v 2.5 0.9 2
v 2.8 0.9 2
v 2.9 0.9 2
v 3 0.9 2
v 2.5 0.9 1.9
v 2.6 0.9 1.9
v 2.7 0.9 1.9
v 2.8 0.9 1.9
v 2.5 0.9 1.8
v 2.6 0.9 1.8
v 2.7 0.9 1.8
v 2.8 0.9 1.8
v 2.3 0.9 1.7
v 2.4 0.9 1.7
v 2.5 0.9 1.7
v 2.8 0.9 1.7
v 2.9 0.9 1.7
v 3 0.9 1.7
v 2.4 0.9 1.6
v 2.5 0.9 1.6
v 2.8 0.9 1.6
v 2.9 0.9 1.6
v 2.5 0.9 1.5
v 2.6 0.9 1.5
v 2.7 0.9 1.5
v 2.8 0.9 1.5

# faces
f 3/2/1 2/2/1 1/2/1
f 4/2/1 2/2/1 3/2/1
f 9/2/1 6/2/1 5/2/1
f 10/2/1 6/2/1 9/2/1
f 11/2/1 8/2/1 7/2/1
f 12/2/1 8/2/1 11/2/1
f 17/2/1 14/2/1 13/2/1
f 18/2/1 14/2/1 17/2/1
f 19/2/1 16/2/1 15/2/1
f 20/2/1 16/2/1 19/2/1
f 23/1/1 18/1/1 17/1/1
f 24/1/1 18/1/1 23/1/1
f 25/1/1 20/1/1 19/1/1
f 26/1/1 20/1/1 25/1/1
f 29/2/1 22/2/1 21/2/1
f 30/2/1 22/2/1 29/2/1
f 31/2/1 28/2/1 27/2/1
f 32/2/1 28/2/1 31/2/1
f 37/2/1 34/2/1 33/2/1
f 38/2/1 34/2/1 37/2/1
f 39/2/1 36/2/1 35/2/1
f 40/2/1 36/2/1 39/2/1
f 41/1/1 38/1/1 37/1/1
f 42/1/1 38/1/1 41/1/1
f 43/1/1 40/1/1 39/1/1
f 44/1/1 40/1/1 43/1/1
f 45/2/2 46/2/2 49/2/2
f 49/2/2 46/2/2 50/2/2
f 47/2/2 48/2/2 51/2/2
f 51/2/2 48/2/2 52/2/2
f 49/1/2 50/1/2 53/1/2
f 53/1/2 50/1/2 54/1/2
f 51/1/2 52/1/2 55/1/2
f 55/1/2 52/1/2 56/1/2
f 57/2/2 58/2/2 61/2/2
f 61/2/2 58/2/2 62/2/2
f 59/2/2 60/2/2 63/2/2
f 63/2/2 60/2/2 64/2/2
f 61/1/2 62/1/2 67/1/2
f 67/1/2 62/1/2 68/1/2
f 63/1/2 64/1/2 69/1/2
f 69/1/2 64/1/2 70/1/2
f 65/2/2 66/2/2 73/2/2
f 73/2/2 66/2/2 74/2/2
f 71/2/2 72/2/2 75/2/2
f 75/2/2 72/2/2 76/2/2
f 77/2/2 78/2/2 81/2/2
f 81/2/2 78/2/2 82/2/2
f 79/2/2 80/2/2 83/2/2
f 83/2/2 80/2/2 84/2/2
f 85/2/2 86/2/2 87/2/2
f 87/2/2 86/2/2 88/2/2
f 91/2/3 90/2/3 89/2/3
f 92/2/3 90/2/3 91/2/3
f 93/1/3 92/1/3 91/1/3
f 94/1/3 92/1/3 93/1/3
f 95/2/3 94/2/3 93/2/3
f 96/2/3 94/2/3 95/2/3
f 99/2/3 98/2/3 97/2/3
f 100/2/3 98/2/3 99/2/3
f 103/2/3 102/2/3 101/2/3
f 104/2/3 102/2/3 103/2/3
f 107/2/3 106/2/3 105/2/3
f 108/2/3 106/2/3 107/2/3
f 112/2/3 110/2/3 109/2/3
f 113/1/3 111/1/3 110/1/3
f 113/2/3 110/2/3 112/2/3
f 114/1/3 111/1/3 113/1/3
f 118/2/3 116/2/3 115/2/3
f 119/1/3 117/1/3 116/1/3
f 119/2/3 116/2/3 118/2/3
f 120/1/3 117/1/3 119/1/3
f 123/2/3 122/2/3 121/2/3
f 124/2/3 122/2/3 123/2/3
f 128/2/3 126/2/3 125/2/3
f 129/1/3 127/1/3 126/1/3
f 129/2/3 126/2/3 128/2/3
f 130/1/3 127/1/3 129/1/3
f 134/2/3 132/2/3 131/2/3
f 135/1/3 133/1/3 132/1/3
f 135/2/3 132/2/3 134/2/3
f 136/1/3 133/1/3 135/1/3
f 137/2/4 138/2/4 140/2/4
f 138/1/4 139/1/4 141/1/4
f 140/2/4 138/2/4 141/2/4
f 141/1/4 139/1/4 142/1/4
f 143/2/4 144/2/4 146/2/4
f 144/1/4 145/1/4 147/1/4
f 146/2/4 144/2/4 147/2/4
f 147/1/4 145/1/4 148/1/4
f 149/2/4 150/2/4 151/2/4
f 151/2/4 150/2/4 152/2/4
f 153/2/4 154/2/4 156/2/4
f 154/1/4 155/1/4 157/1/4
f 156/2/4 154/2/4 157/2/4
f 157/1/4 155/1/4 158/1/4
f 159/2/4 160/2/4 162/2/4
f 160/1/4 161/1/4 163/1/4
f 162/2/4 160/2/4 163/2/4
f 163/1/4 161/1/4 164/1/4
f 165/2/4 166/2/4 167/2/4
f 167/2/4 166/2/4 168/2/4
f 169/2/4 170/2/4 171/2/4
f 171/2/4 170/2/4 172/2/4
f 173/2/4 174/2/4 175/2/4
f 175/2/4 174/2/4 176/2/4
f 177/2/4 178/2/4 179/2/4
f 179/2/4 178/2/4 180/2/4
f 179/1/4 180/1/4 181/1/4
f 181/1/4 180/1/4 182/1/4
f 181/2/4 182/2/4 183/2/4
f 183/2/4 182/2/4 184/2/4
f 189/2/5 186/2/5 185/2/5
f 190/2/5 186/2/5 189/2/5
f 191/2/5 188/2/5 187/2/5
f 192/2/5 188/2/5 191/2/5
f 197/2/5 194/2/5 193/2/5
f 198/2/5 194/2/5 197/2/5
f 199/2/5 196/2/5 195/2/5
f 200/2/5 196/2/5 199/2/5
f 206/2/5 202/2/5 201/2/5
f 207/2/5 204/2/5 203/2/5
f 210/2/5 206/2/5 205/2/5
f 211/2/5 202/2/5 206/2/5
f 211/2/5 206/2/5 210/2/5
f 212/1/5 203/1/5 202/1/5
f 212/2/5 202/2/5 211/2/5
f 213/2/5 208/2/5 207/2/5
f 213/1/5 203/1/5 212/1/5
f 213/2/5 207/2/5 203/2/5
f 214/2/5 208/2/5 213/2/5
f 215/2/5 208/2/5 214/2/5
f 217/1/5 211/1/5 210/1/5
f 218/1/5 213/1/5 212/1/5
f 219/1/5 213/1/5 218/1/5
f 220/1/5 215/1/5 214/1/5
f 221/1/5 217/1/5 210/1/5
f 221/1/5 218/1/5 217/1/5
f 222/2/5 219/2/5 218/2/5
f 222/1/5 218/1/5 221/1/5
f 223/1/5 220/1/5 219/1/5
f 223/2/5 219/2/5 222/2/5
f 224/1/5 215/1/5 220/1/5
f 224/1/5 220/1/5 223/1/5
f 225/2/5 210/2/5 209/2/5
f 226/1/5 221/1/5 210/1/5
f 226/2/5 210/2/5 225/2/5
f 227/1/5 221/1/5 226/1/5
f 228/1/5 223/1/5 222/1/5
f 229/1/5 223/1/5 228/1/5
f 230/1/5 215/1/5 224/1/5
f 231/2/5 216/2/5 215/2/5
f 231/1/5 215/1/5 230/1/5
f 232/2/5 216/2/5 231/2/5
f 233/2/5 227/2/5 226/2/5
f 233/2/5 228/2/5 227/2/5
f 234/2/5 228/2/5 233/2/5
f 235/2/5 230/2/5 229/2/5
f 235/2/5 231/2/5 230/2/5
f 236/2/5 231/2/5 235/2/5
f 237/2/5 228/2/5 234/2/5
f 238/1/5 229/1/5 228/1/5
f 238/2/5 228/2/5 237/2/5
f 239/2/5 235/2/5 229/2/5
f 239/1/5 229/1/5 238/1/5
f 240/2/5 235/2/5 239/2/5
f 241/2/6 242/2/6 246/2/6
f 243/2/6 244/2/6 247/2/6
f 245/2/6 246/2/6 250/2/6
f 246/2/6 242/2/6 251/2/6
f 250/2/6 246/2/6 251/2/6
f 247/2/6 248/2/6 252/2/6
f 243/2/6 247/2/6 252/2/6
f 252/2/6 248/2/6 253/2/6
f 251/2/6 242/2/6 255/2/6
f 250/1/6 251/1/6 255/1/6
f 242/1/6 243/1/6 256/1/6
f 255/2/6 242/2/6 256/2/6
f 243/2/6 252/2/6 257/2/6
f 256/1/6 243/1/6 257/1/6
f 252/1/6 253/1/6 258/1/6
f 257/2/6 252/2/6 258/2/6
f 250/1/6 255/1/6 259/1/6
f 255/1/6 256/1/6 259/1/6
f 256/2/6 257/2/6 260/2/6
f 259/1/6 256/1/6 260/1/6
f 257/1/6 258/1/6 261/1/6
f 260/2/6 257/2/6 261/2/6
f 258/1/6 253/1/6 262/1/6
f 261/1/6 258/1/6 262/1/6
f 249/2/6 250/2/6 263/2/6
f 250/1/6 259/1/6 264/1/6
f 263/2/6 250/2/6 264/2/6
f 259/2/6 260/2/6 265/2/6
f 264/1/6 259/1/6 265/1/6
f 262/1/6 253/1/6 266/1/6
f 261/2/6 262/2/6 266/2/6
f 253/2/6 254/2/6 267/2/6
f 266/1/6 253/1/6 267/1/6
f 267/2/6 254/2/6 268/2/6
f 264/2/6 265/2/6 269/2/6
f 265/2/6 260/2/6 270/2/6
f 269/2/6 265/2/6 270/2/6
f 261/2/6 266/2/6 271/2/6
f 266/2/6 267/2/6 271/2/6
f 271/2/6 267/2/6 272/2/6
f 270/2/6 260/2/6 273/2/6
f 260/1/6 261/1/6 274/1/6
f 273/2/6 260/2/6 274/2/6
f 261/2/6 271/2/6 275/2/6
f 274/1/6 261/1/6 275/1/6
f 275/2/6 271/2/6 276/2/6
