# MagicaVoxel @ Ephtracy

# group
o 

# material
mtllib Decor-75.mtl
usemtl palette

# normals
vn -1 0 0
vn 1 0 0
vn 0 0 1
vn 0 0 -1
vn 0 -1 0
vn 0 1 0

# texcoords
vt 0.939453 0.5
vt 0.943359 0.5

# verts
v 2 0.7 3.6
v 2 0.7 3.5
v 2 0.7 3.2
v 2 0.7 3.1
v 2 0.8 3.6
v 2 0.8 3.5
v 2 0.8 3.2
v 2 0.8 3.1
v 2.1 0.7 3.8
v 2.1 0.7 3.7
v 2.1 0.7 3.6
v 2.1 0.7 3.1
v 2.1 0.7 3
v 2.1 0.7 2.9
v 2.1 0.8 3.8
v 2.1 0.8 3.7
v 2.1 0.8 3.6
v 2.1 0.8 3.1
v 2.1 0.8 3
v 2.1 0.8 2.9
v 2.2 0.7 3.9
v 2.2 0.7 3.8
v 2.2 0.7 2.9
v 2.2 0.7 2.8
v 2.2 0.8 3.9
v 2.2 0.8 3.8
v 2.2 0.8 2.9
v 2.2 0.8 2.8
v 2.3 0 3.7
v 2.3 0 3.6
v 2.3 0 3.1
v 2.3 0 3
v 2.3 0.2 3.7
v 2.3 0.2 3.6
v 2.3 0.2 3.1
v 2.3 0.2 3
v 2.3 0.7 3.7
v 2.3 0.7 3.6
v 2.3 0.7 3.1
v 2.3 0.7 3
v 2.4 0.7 4
v 2.4 0.7 3.9
v 2.4 0.7 2.8
v 2.4 0.7 2.7
v 2.4 0.8 4
v 2.4 0.8 3.9
v 2.4 0.8 2.8
v 2.4 0.8 2.7
v 2.9 0 3.7
v 2.9 0 3.6
v 2.9 0 3.1
v 2.9 0 3
v 2.9 0.2 3.7
v 2.9 0.2 3.6
v 2.9 0.2 3.1
v 2.9 0.2 3
v 2.9 0.7 3.7
v 2.9 0.7 3.6
v 2.9 0.7 3.1
v 2.9 0.7 3
v 2.4 0 3.7
v 2.4 0 3.6
v 2.4 0 3.1
v 2.4 0 3
v 2.4 0.2 3.7
v 2.4 0.2 3.6
v 2.4 0.2 3.1
v 2.4 0.2 3
v 2.4 0.7 3.7
v 2.4 0.7 3.6
v 2.4 0.7 3.1
v 2.4 0.7 3
v 2.9 0.7 4
v 2.9 0.7 3.9
v 2.9 0.7 2.8
v 2.9 0.7 2.7
v 2.9 0.8 4
v 2.9 0.8 3.9
v 2.9 0.8 2.8
v 2.9 0.8 2.7
v 3 0 3.7
v 3 0 3.6
v 3 0 3.1
v 3 0 3
v 3 0.2 3.7
v 3 0.2 3.6
v 3 0.2 3.1
v 3 0.2 3
v 3 0.7 3.7
v 3 0.7 3.6
v 3 0.7 3.1
v 3 0.7 3
v 3.1 0.7 3.9
v 3.1 0.7 3.8
v 3.1 0.7 2.9
v 3.1 0.7 2.8
v 3.1 0.8 3.9
v 3.1 0.8 3.8
v 3.1 0.8 2.9
v 3.1 0.8 2.8
v 3.2 0.7 3.8
v 3.2 0.7 3.7
v 3.2 0.7 3.6
v 3.2 0.7 3.1
v 3.2 0.7 3
v 3.2 0.7 2.9
v 3.2 0.8 3.8
v 3.2 0.8 3.7
v 3.2 0.8 3.6
v 3.2 0.8 3.1
v 3.2 0.8 3
v 3.2 0.8 2.9
v 3.3 0.7 3.6
v 3.3 0.7 3.5
v 3.3 0.7 3.2
v 3.3 0.7 3.1
v 3.3 0.8 3.6
v 3.3 0.8 3.5
v 3.3 0.8 3.2
v 3.3 0.8 3.1
v 2.4 0.7 4
v 2.4 0.8 4
v 2.5 0.7 4
v 2.5 0.8 4
v 2.8 0.7 4
v 2.8 0.8 4
v 2.9 0.7 4
v 2.9 0.8 4
v 2.2 0.7 3.9
v 2.2 0.8 3.9
v 2.4 0.7 3.9
v 2.4 0.8 3.9
v 2.9 0.7 3.9
v 2.9 0.8 3.9
v 3.1 0.7 3.9
v 3.1 0.8 3.9
v 2.1 0.7 3.8
v 2.1 0.8 3.8
v 2.2 0.7 3.8
v 2.2 0.8 3.8
v 3.1 0.7 3.8
v 3.1 0.8 3.8
v 3.2 0.7 3.8
v 3.2 0.8 3.8
v 2.3 0 3.7
v 2.3 0.2 3.7
v 2.3 0.7 3.7
v 2.4 0 3.7
v 2.4 0.2 3.7
v 2.4 0.7 3.7
v 2.9 0 3.7
v 2.9 0.2 3.7
v 2.9 0.7 3.7
v 3 0 3.7
v 3 0.2 3.7
v 3 0.7 3.7
v 2 0.7 3.6
v 2 0.8 3.6
v 2.1 0.7 3.6
v 2.1 0.8 3.6
v 3.2 0.7 3.6
v 3.2 0.8 3.6
v 3.3 0.7 3.6
v 3.3 0.8 3.6
v 2.3 0 3.1
v 2.3 0.2 3.1
v 2.3 0.7 3.1
v 2.4 0 3.1
v 2.4 0.2 3.1
v 2.4 0.7 3.1
v 2.9 0 3.1
v 2.9 0.2 3.1
v 2.9 0.7 3.1
v 3 0 3.1
v 3 0.2 3.1
v 3 0.7 3.1
v 2.3 0 3.6
v 2.3 0.2 3.6
v 2.3 0.7 3.6
v 2.4 0 3.6
v 2.4 0.2 3.6
v 2.4 0.7 3.6
v 2.9 0 3.6
v 2.9 0.2 3.6
v 2.9 0.7 3.6
v 3 0 3.6
v 3 0.2 3.6
v 3 0.7 3.6
v 2 0.7 3.1
v 2 0.8 3.1
v 2.1 0.7 3.1
v 2.1 0.8 3.1
v 3.2 0.7 3.1
v 3.2 0.8 3.1
v 3.3 0.7 3.1
v 3.3 0.8 3.1
v 2.3 0 3
v 2.3 0.2 3
v 2.3 0.7 3
v 2.4 0 3
v 2.4 0.2 3
v 2.4 0.7 3
v 2.9 0 3
v 2.9 0.2 3
v 2.9 0.7 3
v 3 0 3
v 3 0.2 3
v 3 0.7 3
v 2.1 0.7 2.9
v 2.1 0.8 2.9
v 2.2 0.7 2.9
v 2.2 0.8 2.9
v 3.1 0.7 2.9
v 3.1 0.8 2.9
v 3.2 0.7 2.9
v 3.2 0.8 2.9
v 2.2 0.7 2.8
v 2.2 0.8 2.8
v 2.4 0.7 2.8
v 2.4 0.8 2.8
v 2.9 0.7 2.8
v 2.9 0.8 2.8
v 3.1 0.7 2.8
v 3.1 0.8 2.8
v 2.4 0.7 2.7
v 2.4 0.8 2.7
v 2.5 0.7 2.7
v 2.5 0.8 2.7
v 2.8 0.7 2.7
v 2.8 0.8 2.7
v 2.9 0.7 2.7
v 2.9 0.8 2.7
v 2.3 0 3.7
v 2.4 0 3.7
v 2.9 0 3.7
v 3 0 3.7
v 2.3 0 3.6
v 2.4 0 3.6
v 2.9 0 3.6
v 3 0 3.6
v 2.3 0 3.1
v 2.4 0 3.1
v 2.9 0 3.1
v 3 0 3.1
v 2.3 0 3
v 2.4 0 3
v 2.9 0 3
v 3 0 3
v 2.4 0.7 4
v 2.5 0.7 4
v 2.8 0.7 4
v 2.9 0.7 4
v 2.2 0.7 3.9
v 2.4 0.7 3.9
v 2.9 0.7 3.9
v 3.1 0.7 3.9
v 2.1 0.7 3.8
v 2.2 0.7 3.8
v 2.5 0.7 3.8
v 2.8 0.7 3.8
v 3.1 0.7 3.8
v 3.2 0.7 3.8
v 2.1 0.7 3.7
v 2.2 0.7 3.7
v 2.3 0.7 3.7
v 2.4 0.7 3.7
v 2.9 0.7 3.7
v 3 0.7 3.7
v 3.1 0.7 3.7
v 3.2 0.7 3.7
v 2 0.7 3.6
v 2.1 0.7 3.6
v 2.3 0.7 3.6
v 2.4 0.7 3.6
v 2.5 0.7 3.6
v 2.8 0.7 3.6
v 2.9 0.7 3.6
v 3 0.7 3.6
v 3.2 0.7 3.6
v 3.3 0.7 3.6
v 2 0.7 3.5
v 2.2 0.7 3.5
v 2.4 0.7 3.5
v 2.5 0.7 3.5
v 2.8 0.7 3.5
v 2.9 0.7 3.5
v 3.1 0.7 3.5
v 3.3 0.7 3.5
v 2 0.7 3.2
v 2.2 0.7 3.2
v 2.4 0.7 3.2
v 2.5 0.7 3.2
v 2.8 0.7 3.2
v 2.9 0.7 3.2
v 3.1 0.7 3.2
v 3.3 0.7 3.2
v 2 0.7 3.1
v 2.1 0.7 3.1
v 2.3 0.7 3.1
v 2.4 0.7 3.1
v 2.5 0.7 3.1
v 2.8 0.7 3.1
v 2.9 0.7 3.1
v 3 0.7 3.1
v 3.2 0.7 3.1
v 3.3 0.7 3.1
v 2.1 0.7 3
v 2.2 0.7 3
v 2.3 0.7 3
v 2.4 0.7 3
v 2.9 0.7 3
v 3 0.7 3
v 3.1 0.7 3
v 3.2 0.7 3
v 2.1 0.7 2.9
v 2.2 0.7 2.9
v 2.5 0.7 2.9
v 2.8 0.7 2.9
v 3.1 0.7 2.9
v 3.2 0.7 2.9
v 2.2 0.7 2.8
v 2.4 0.7 2.8
v 2.9 0.7 2.8
v 3.1 0.7 2.8
v 2.4 0.7 2.7
v 2.5 0.7 2.7
v 2.8 0.7 2.7
v 2.9 0.7 2.7
v 2.4 0.8 4
v 2.5 0.8 4
v 2.8 0.8 4
v 2.9 0.8 4
v 2.2 0.8 3.9
v 2.4 0.8 3.9
v 2.9 0.8 3.9
v 3.1 0.8 3.9
v 2.1 0.8 3.8
v 2.2 0.8 3.8
v 2.5 0.8 3.8
v 2.8 0.8 3.8
v 3.1 0.8 3.8
v 3.2 0.8 3.8
v 2.1 0.8 3.7
v 2.2 0.8 3.7
v 3.1 0.8 3.7
v 3.2 0.8 3.7
v 2 0.8 3.6
v 2.1 0.8 3.6
v 2.5 0.8 3.6
v 2.8 0.8 3.6
v 3.2 0.8 3.6
v 3.3 0.8 3.6
v 2 0.8 3.5
v 2.2 0.8 3.5
v 2.4 0.8 3.5
v 2.5 0.8 3.5
v 2.8 0.8 3.5
v 2.9 0.8 3.5
v 3.1 0.8 3.5
v 3.3 0.8 3.5
v 2 0.8 3.2
v 2.2 0.8 3.2
v 2.4 0.8 3.2
v 2.5 0.8 3.2
v 2.8 0.8 3.2
v 2.9 0.8 3.2
v 3.1 0.8 3.2
v 3.3 0.8 3.2
v 2 0.8 3.1
v 2.1 0.8 3.1
v 2.5 0.8 3.1
v 2.8 0.8 3.1
v 3.2 0.8 3.1
v 3.3 0.8 3.1
v 2.1 0.8 3
v 2.2 0.8 3
v 3.1 0.8 3
v 3.2 0.8 3
v 2.1 0.8 2.9
v 2.2 0.8 2.9
v 2.5 0.8 2.9
v 2.8 0.8 2.9
v 3.1 0.8 2.9
v 3.2 0.8 2.9
v 2.2 0.8 2.8
v 2.4 0.8 2.8
v 2.9 0.8 2.8
v 3.1 0.8 2.8
v 2.4 0.8 2.7
v 2.5 0.8 2.7
v 2.8 0.8 2.7
v 2.9 0.8 2.7

# faces
f 5/2/1 2/2/1 1/2/1
f 6/1/1 3/1/1 2/1/1
f 6/2/1 2/2/1 5/2/1
f 7/2/1 4/2/1 3/2/1
f 7/1/1 3/1/1 6/1/1
f 8/2/1 4/2/1 7/2/1
f 15/1/1 10/1/1 9/1/1
f 16/2/1 11/2/1 10/2/1
f 16/1/1 10/1/1 15/1/1
f 17/2/1 11/2/1 16/2/1
f 18/2/1 13/2/1 12/2/1
f 19/1/1 14/1/1 13/1/1
f 19/2/1 13/2/1 18/2/1
f 20/1/1 14/1/1 19/1/1
f 25/2/1 22/2/1 21/2/1
f 26/2/1 22/2/1 25/2/1
f 27/2/1 24/2/1 23/2/1
f 28/2/1 24/2/1 27/2/1
f 33/2/1 30/2/1 29/2/1
f 34/2/1 30/2/1 33/2/1
f 35/2/1 32/2/1 31/2/1
f 36/2/1 32/2/1 35/2/1
f 37/1/1 34/1/1 33/1/1
f 38/1/1 34/1/1 37/1/1
f 39/1/1 36/1/1 35/1/1
f 40/1/1 36/1/1 39/1/1
f 45/2/1 42/2/1 41/2/1
f 46/2/1 42/2/1 45/2/1
f 47/2/1 44/2/1 43/2/1
f 48/2/1 44/2/1 47/2/1
f 53/2/1 50/2/1 49/2/1
f 54/2/1 50/2/1 53/2/1
f 55/2/1 52/2/1 51/2/1
f 56/2/1 52/2/1 55/2/1
f 57/1/1 54/1/1 53/1/1
f 58/1/1 54/1/1 57/1/1
f 59/1/1 56/1/1 55/1/1
f 60/1/1 56/1/1 59/1/1
f 61/2/2 62/2/2 65/2/2
f 65/2/2 62/2/2 66/2/2
f 63/2/2 64/2/2 67/2/2
f 67/2/2 64/2/2 68/2/2
f 65/1/2 66/1/2 69/1/2
f 69/1/2 66/1/2 70/1/2
f 67/1/2 68/1/2 71/1/2
f 71/1/2 68/1/2 72/1/2
f 73/2/2 74/2/2 77/2/2
f 77/2/2 74/2/2 78/2/2
f 75/2/2 76/2/2 79/2/2
f 79/2/2 76/2/2 80/2/2
f 81/2/2 82/2/2 85/2/2
f 85/2/2 82/2/2 86/2/2
f 83/2/2 84/2/2 87/2/2
f 87/2/2 84/2/2 88/2/2
f 85/1/2 86/1/2 89/1/2
f 89/1/2 86/1/2 90/1/2
f 87/1/2 88/1/2 91/1/2
f 91/1/2 88/1/2 92/1/2
f 93/2/2 94/2/2 97/2/2
f 97/2/2 94/2/2 98/2/2
f 95/2/2 96/2/2 99/2/2
f 99/2/2 96/2/2 100/2/2
f 101/1/2 102/1/2 107/1/2
f 102/2/2 103/2/2 108/2/2
f 107/1/2 102/1/2 108/1/2
f 108/2/2 103/2/2 109/2/2
f 104/2/2 105/2/2 110/2/2
f 105/1/2 106/1/2 111/1/2
f 110/2/2 105/2/2 111/2/2
f 111/1/2 106/1/2 112/1/2
f 113/2/2 114/2/2 117/2/2
f 114/1/2 115/1/2 118/1/2
f 117/2/2 114/2/2 118/2/2
f 115/2/2 116/2/2 119/2/2
f 118/1/2 115/1/2 119/1/2
f 119/2/2 116/2/2 120/2/2
f 123/2/3 122/2/3 121/2/3
f 124/2/3 122/2/3 123/2/3
f 125/1/3 124/1/3 123/1/3
f 126/1/3 124/1/3 125/1/3
f 127/2/3 126/2/3 125/2/3
f 128/2/3 126/2/3 127/2/3
f 131/2/3 130/2/3 129/2/3
f 132/2/3 130/2/3 131/2/3
f 135/2/3 134/2/3 133/2/3
f 136/2/3 134/2/3 135/2/3
f 139/1/3 138/1/3 137/1/3
f 140/1/3 138/1/3 139/1/3
f 143/1/3 142/1/3 141/1/3
f 144/1/3 142/1/3 143/1/3
f 148/2/3 146/2/3 145/2/3
f 149/1/3 147/1/3 146/1/3
f 149/2/3 146/2/3 148/2/3
f 150/1/3 147/1/3 149/1/3
f 154/2/3 152/2/3 151/2/3
f 155/1/3 153/1/3 152/1/3
f 155/2/3 152/2/3 154/2/3
f 156/1/3 153/1/3 155/1/3
f 159/2/3 158/2/3 157/2/3
f 160/2/3 158/2/3 159/2/3
f 163/2/3 162/2/3 161/2/3
f 164/2/3 162/2/3 163/2/3
f 168/2/3 166/2/3 165/2/3
f 169/1/3 167/1/3 166/1/3
f 169/2/3 166/2/3 168/2/3
f 170/1/3 167/1/3 169/1/3
f 174/2/3 172/2/3 171/2/3
f 175/1/3 173/1/3 172/1/3
f 175/2/3 172/2/3 174/2/3
f 176/1/3 173/1/3 175/1/3
f 177/2/4 178/2/4 180/2/4
f 178/1/4 179/1/4 181/1/4
f 180/2/4 178/2/4 181/2/4
f 181/1/4 179/1/4 182/1/4
f 183/2/4 184/2/4 186/2/4
f 184/1/4 185/1/4 187/1/4
f 186/2/4 184/2/4 187/2/4
f 187/1/4 185/1/4 188/1/4
f 189/2/4 190/2/4 191/2/4
f 191/2/4 190/2/4 192/2/4
f 193/2/4 194/2/4 195/2/4
f 195/2/4 194/2/4 196/2/4
f 197/2/4 198/2/4 200/2/4
f 198/1/4 199/1/4 201/1/4
f 200/2/4 198/2/4 201/2/4
f 201/1/4 199/1/4 202/1/4
f 203/2/4 204/2/4 206/2/4
f 204/1/4 205/1/4 207/1/4
f 206/2/4 204/2/4 207/2/4
f 207/1/4 205/1/4 208/1/4
f 209/1/4 210/1/4 211/1/4
f 211/1/4 210/1/4 212/1/4
f 213/1/4 214/1/4 215/1/4
f 215/1/4 214/1/4 216/1/4
f 217/2/4 218/2/4 219/2/4
f 219/2/4 218/2/4 220/2/4
f 221/2/4 222/2/4 223/2/4
f 223/2/4 222/2/4 224/2/4
f 225/2/4 226/2/4 227/2/4
f 227/2/4 226/2/4 228/2/4
f 227/1/4 228/1/4 229/1/4
f 229/1/4 228/1/4 230/1/4
f 229/2/4 230/2/4 231/2/4
f 231/2/4 230/2/4 232/2/4
f 237/2/5 234/2/5 233/2/5
f 238/2/5 234/2/5 237/2/5
f 239/2/5 236/2/5 235/2/5
f 240/2/5 236/2/5 239/2/5
f 245/2/5 242/2/5 241/2/5
f 246/2/5 242/2/5 245/2/5
f 247/2/5 244/2/5 243/2/5
f 248/2/5 244/2/5 247/2/5
f 254/2/5 250/2/5 249/2/5
f 255/2/5 252/2/5 251/2/5
f 258/2/5 254/2/5 253/2/5
f 259/1/5 251/1/5 250/1/5
f 259/2/5 250/2/5 254/2/5
f 259/2/5 254/2/5 258/2/5
f 260/2/5 256/2/5 255/2/5
f 260/1/5 251/1/5 259/1/5
f 260/2/5 255/2/5 251/2/5
f 261/2/5 256/2/5 260/2/5
f 263/1/5 259/1/5 258/1/5
f 263/1/5 262/1/5 261/1/5
f 263/1/5 261/1/5 260/1/5
f 263/1/5 260/1/5 259/1/5
f 263/1/5 258/1/5 257/1/5
f 264/1/5 262/1/5 263/1/5
f 265/1/5 262/1/5 264/1/5
f 266/1/5 262/1/5 265/1/5
f 267/1/5 262/1/5 266/1/5
f 268/1/5 262/1/5 267/1/5
f 269/1/5 262/1/5 268/1/5
f 270/1/5 262/1/5 269/1/5
f 272/2/5 264/2/5 263/2/5
f 273/1/5 265/1/5 264/1/5
f 274/1/5 267/1/5 266/1/5
f 275/1/5 267/1/5 274/1/5
f 276/1/5 267/1/5 275/1/5
f 277/1/5 267/1/5 276/1/5
f 278/1/5 269/1/5 268/1/5
f 279/2/5 270/2/5 269/2/5
f 281/2/5 272/2/5 271/2/5
f 282/1/5 273/1/5 264/1/5
f 282/2/5 272/2/5 281/2/5
f 282/2/5 264/2/5 272/2/5
f 282/1/5 274/1/5 273/1/5
f 282/1/5 275/1/5 274/1/5
f 283/1/5 275/1/5 282/1/5
f 284/2/5 276/2/5 275/2/5
f 284/1/5 275/1/5 283/1/5
f 285/1/5 277/1/5 276/1/5
f 285/2/5 276/2/5 284/2/5
f 285/1/5 278/1/5 277/1/5
f 286/1/5 278/1/5 285/1/5
f 287/2/5 280/2/5 279/2/5
f 287/1/5 278/1/5 286/1/5
f 287/2/5 279/2/5 269/2/5
f 287/1/5 269/1/5 278/1/5
f 288/2/5 280/2/5 287/2/5
f 289/1/5 282/1/5 281/1/5
f 289/1/5 283/1/5 282/1/5
f 290/1/5 283/1/5 289/1/5
f 291/2/5 284/2/5 283/2/5
f 291/1/5 283/1/5 290/1/5
f 291/2/5 286/2/5 285/2/5
f 291/2/5 285/2/5 284/2/5
f 292/2/5 286/2/5 291/2/5
f 293/2/5 286/2/5 292/2/5
f 294/1/5 287/1/5 286/1/5
f 294/2/5 286/2/5 293/2/5
f 294/1/5 288/1/5 287/1/5
f 295/1/5 288/1/5 294/1/5
f 296/1/5 288/1/5 295/1/5
f 297/2/5 290/2/5 289/2/5
f 298/2/5 290/2/5 297/2/5
f 299/1/5 292/1/5 291/1/5
f 299/1/5 291/1/5 290/1/5
f 300/1/5 292/1/5 299/1/5
f 301/2/5 293/2/5 292/2/5
f 301/1/5 292/1/5 300/1/5
f 302/1/5 294/1/5 293/1/5
f 302/2/5 293/2/5 301/2/5
f 302/1/5 295/1/5 294/1/5
f 303/1/5 295/1/5 302/1/5
f 304/1/5 295/1/5 303/1/5
f 305/2/5 296/2/5 295/2/5
f 306/2/5 296/2/5 305/2/5
f 307/2/5 290/2/5 298/2/5
f 308/1/5 299/1/5 290/1/5
f 308/2/5 290/2/5 307/2/5
f 309/1/5 299/1/5 308/1/5
f 310/1/5 303/1/5 302/1/5
f 310/1/5 301/1/5 300/1/5
f 310/1/5 302/1/5 301/1/5
f 311/1/5 303/1/5 310/1/5
f 312/1/5 295/1/5 304/1/5
f 313/2/5 305/2/5 295/2/5
f 313/1/5 295/1/5 312/1/5
f 314/2/5 305/2/5 313/2/5
f 315/1/5 312/1/5 311/1/5
f 315/1/5 309/1/5 308/1/5
f 315/1/5 314/1/5 313/1/5
f 315/1/5 313/1/5 312/1/5
f 315/1/5 308/1/5 307/1/5
f 315/1/5 310/1/5 309/1/5
f 315/1/5 311/1/5 310/1/5
f 316/1/5 314/1/5 315/1/5
f 317/1/5 314/1/5 316/1/5
f 318/1/5 314/1/5 317/1/5
f 319/1/5 314/1/5 318/1/5
f 320/1/5 314/1/5 319/1/5
f 321/2/5 317/2/5 316/2/5
f 322/2/5 317/2/5 321/2/5
f 323/2/5 319/2/5 318/2/5
f 324/2/5 319/2/5 323/2/5
f 325/2/5 317/2/5 322/2/5
f 326/1/5 318/1/5 317/1/5
f 326/2/5 317/2/5 325/2/5
f 327/2/5 323/2/5 318/2/5
f 327/1/5 318/1/5 326/1/5
f 328/2/5 323/2/5 327/2/5
f 329/2/6 330/2/6 334/2/6
f 331/2/6 332/2/6 335/2/6
f 333/2/6 334/2/6 338/2/6
f 330/1/6 331/1/6 339/1/6
f 334/2/6 330/2/6 339/2/6
f 338/2/6 334/2/6 339/2/6
f 335/2/6 336/2/6 340/2/6
f 339/1/6 331/1/6 340/1/6
f 331/2/6 335/2/6 340/2/6
f 340/2/6 336/2/6 341/2/6
f 338/1/6 339/1/6 343/1/6
f 341/1/6 342/1/6 343/1/6
f 340/1/6 341/1/6 343/1/6
f 339/1/6 340/1/6 343/1/6
f 337/1/6 338/1/6 343/1/6
f 343/1/6 342/1/6 344/1/6
f 344/1/6 342/1/6 345/1/6
f 345/1/6 342/1/6 346/1/6
f 343/2/6 344/2/6 348/2/6
f 344/1/6 345/1/6 349/1/6
f 349/1/6 345/1/6 350/1/6
f 345/2/6 346/2/6 351/2/6
f 347/2/6 348/2/6 353/2/6
f 348/2/6 344/2/6 354/2/6
f 353/2/6 348/2/6 354/2/6
f 344/1/6 349/1/6 354/1/6
f 354/1/6 349/1/6 355/1/6
f 349/2/6 350/2/6 356/2/6
f 355/1/6 349/1/6 356/1/6
f 350/1/6 345/1/6 357/1/6
f 356/2/6 350/2/6 357/2/6
f 357/1/6 345/1/6 358/1/6
f 345/2/6 351/2/6 359/2/6
f 358/1/6 345/1/6 359/1/6
f 351/2/6 352/2/6 359/2/6
f 359/2/6 352/2/6 360/2/6
f 354/1/6 355/1/6 361/1/6
f 353/1/6 354/1/6 361/1/6
f 361/1/6 355/1/6 362/1/6
f 357/2/6 358/2/6 363/2/6
f 362/1/6 355/1/6 363/1/6
f 356/2/6 357/2/6 363/2/6
f 355/2/6 356/2/6 363/2/6
f 363/2/6 358/2/6 364/2/6
f 364/2/6 358/2/6 365/2/6
f 358/1/6 359/1/6 366/1/6
f 365/2/6 358/2/6 366/2/6
f 359/1/6 360/1/6 366/1/6
f 366/1/6 360/1/6 367/1/6
f 367/1/6 360/1/6 368/1/6
f 361/2/6 362/2/6 369/2/6
f 369/2/6 362/2/6 370/2/6
f 364/2/6 365/2/6 371/2/6
f 363/1/6 364/1/6 371/1/6
f 362/1/6 363/1/6 371/1/6
f 365/1/6 366/1/6 372/1/6
f 371/2/6 365/2/6 372/2/6
f 366/1/6 367/1/6 372/1/6
f 367/2/6 368/2/6 373/2/6
f 373/2/6 368/2/6 374/2/6
f 370/2/6 362/2/6 375/2/6
f 362/1/6 371/1/6 376/1/6
f 375/2/6 362/2/6 376/2/6
f 371/1/6 372/1/6 376/1/6
f 367/2/6 373/2/6 377/2/6
f 376/1/6 372/1/6 377/1/6
f 372/1/6 367/1/6 377/1/6
f 377/2/6 373/2/6 378/2/6
f 375/1/6 376/1/6 379/1/6
f 376/1/6 377/1/6 379/1/6
f 377/1/6 378/1/6 379/1/6
f 379/1/6 378/1/6 380/1/6
f 380/1/6 378/1/6 381/1/6
f 381/1/6 378/1/6 382/1/6
f 382/1/6 378/1/6 383/1/6
f 383/1/6 378/1/6 384/1/6
f 380/2/6 381/2/6 385/2/6
f 385/2/6 381/2/6 386/2/6
f 382/2/6 383/2/6 387/2/6
f 387/2/6 383/2/6 388/2/6
f 386/2/6 381/2/6 389/2/6
f 381/1/6 382/1/6 390/1/6
f 389/2/6 381/2/6 390/2/6
f 382/2/6 387/2/6 391/2/6
f 390/1/6 382/1/6 391/1/6
f 391/2/6 387/2/6 392/2/6
