# MagicaVoxel @ Ephtracy

# group
o 

# material
mtllib Decor-76.mtl
usemtl palette

# normals
vn -1 0 0
vn 1 0 0
vn 0 0 1
vn 0 0 -1
vn 0 -1 0
vn 0 1 0

# texcoords
vt 0.939453 0.5
vt 0.943359 0.5

# verts
v -0.8 0 2
v -0.8 0 1.9
v -0.8 0 1.5
v -0.8 0 1.4
v -0.8 0.2 2
v -0.8 0.2 1.9
v -0.8 0.2 1.5
v -0.8 0.2 1.4
v -0.8 0.9 2
v -0.8 0.9 1.9
v -0.8 0.9 1.8
v -0.8 0.9 1.7
v -0.8 0.9 1.5
v -0.8 1 2
v -0.8 1 1.8
v -0.8 1 1.7
v -0.8 1 1.5
v -0.8 1 1.4
v -0.8 1.3 1.5
v -0.8 1.3 1.4
v -0.8 1.7 1.5
v -0.8 1.7 1.4
v -0.8 1.9 1.5
v -0.8 1.9 1.4
v -0.7 1.9 1.5
v -0.7 1.9 1.4
v -0.7 2.1 1.5
v -0.7 2.1 1.4
v -0.6 2.1 1.5
v -0.6 2.1 1.4
v -0.6 2.2 1.5
v -0.6 2.2 1.4
v -0.4 1.9 1.5
v -0.4 1.9 1.4
v -0.4 2 1.5
v -0.4 2 1.4
v -0.3 0 2
v -0.3 0 1.9
v -0.3 0 1.5
v -0.3 0 1.4
v -0.3 0.2 2
v -0.3 0.2 1.9
v -0.3 0.2 1.5
v -0.3 0.2 1.4
v -0.3 0.9 2
v -0.3 0.9 1.9
v -0.3 0.9 1.5
v -0.3 0.9 1.4
v -0.7 0 2
v -0.7 0 1.9
v -0.7 0 1.5
v -0.7 0 1.4
v -0.7 0.2 2
v -0.7 0.2 1.9
v -0.7 0.2 1.5
v -0.7 0.2 1.4
v -0.7 0.9 2
v -0.7 0.9 1.9
v -0.7 0.9 1.5
v -0.7 0.9 1.4
v -0.6 1.9 1.5
v -0.6 1.9 1.4
v -0.6 2 1.5
v -0.6 2 1.4
v -0.4 2.1 1.5
v -0.4 2.1 1.4
v -0.4 2.2 1.5
v -0.4 2.2 1.4
v -0.3 1.9 1.5
v -0.3 1.9 1.4
v -0.3 2.1 1.5
v -0.3 2.1 1.4
v -0.2 0 2
v -0.2 0 1.9
v -0.2 0 1.5
v -0.2 0 1.4
v -0.2 0.2 2
v -0.2 0.2 1.9
v -0.2 0.2 1.5
v -0.2 0.2 1.4
v -0.2 0.9 2
v -0.2 0.9 1.9
v -0.2 0.9 1.8
v -0.2 0.9 1.7
v -0.2 0.9 1.5
v -0.2 1 2
v -0.2 1 1.8
v -0.2 1 1.7
v -0.2 1 1.5
v -0.2 1 1.4
v -0.2 1.3 1.5
v -0.2 1.3 1.4
v -0.2 1.7 1.5
v -0.2 1.7 1.4
v -0.2 1.9 1.5
v -0.2 1.9 1.4
v -0.8 0 2
v -0.8 0.2 2
v -0.8 0.9 2
v -0.8 1 2
v -0.7 0 2
v -0.7 0.2 2
v -0.7 0.9 2
v -0.6 0.9 2
v -0.6 1 2
v -0.4 0.9 2
v -0.4 1 2
v -0.3 0 2
v -0.3 0.2 2
v -0.3 0.9 2
v -0.2 0 2
v -0.2 0.2 2
v -0.2 0.9 2
v -0.2 1 2
v -0.8 0 1.5
v -0.8 0.2 1.5
v -0.8 0.9 1.5
v -0.8 1 1.5
v -0.8 1.3 1.5
v -0.8 1.7 1.5
v -0.8 1.9 1.5
v -0.7 0 1.5
v -0.7 0.2 1.5
v -0.7 0.9 1.5
v -0.7 1.1 1.5
v -0.7 1.3 1.5
v -0.7 1.4 1.5
v -0.7 1.6 1.5
v -0.7 1.7 1.5
v -0.7 1.8 1.5
v -0.7 1.9 1.5
v -0.7 2.1 1.5
v -0.6 1 1.5
v -0.6 1.1 1.5
v -0.6 1.3 1.5
v -0.6 1.4 1.5
v -0.6 1.6 1.5
v -0.6 1.7 1.5
v -0.6 1.8 1.5
v -0.6 1.9 1.5
v -0.6 2 1.5
v -0.6 2.1 1.5
v -0.6 2.2 1.5
v -0.4 1 1.5
v -0.4 1.1 1.5
v -0.4 1.3 1.5
v -0.4 1.4 1.5
v -0.4 1.6 1.5
v -0.4 1.7 1.5
v -0.4 1.8 1.5
v -0.4 1.9 1.5
v -0.4 2 1.5
v -0.4 2.1 1.5
v -0.4 2.2 1.5
v -0.3 0 1.5
v -0.3 0.2 1.5
v -0.3 0.9 1.5
v -0.3 1.1 1.5
v -0.3 1.3 1.5
v -0.3 1.4 1.5
v -0.3 1.6 1.5
v -0.3 1.7 1.5
v -0.3 1.8 1.5
v -0.3 1.9 1.5
v -0.3 2.1 1.5
v -0.2 0 1.5
v -0.2 0.2 1.5
v -0.2 0.9 1.5
v -0.2 1 1.5
v -0.2 1.3 1.5
v -0.2 1.7 1.5
v -0.2 1.9 1.5
v -0.8 0 1.9
v -0.8 0.2 1.9
v -0.8 0.9 1.9
v -0.7 0 1.9
v -0.7 0.2 1.9
v -0.7 0.9 1.9
v -0.3 0 1.9
v -0.3 0.2 1.9
v -0.3 0.9 1.9
v -0.2 0 1.9
v -0.2 0.2 1.9
v -0.2 0.9 1.9
v -0.8 0 1.4
v -0.8 0.2 1.4
v -0.8 1 1.4
v -0.8 1.3 1.4
v -0.8 1.7 1.4
v -0.8 1.9 1.4
v -0.7 0 1.4
v -0.7 0.2 1.4
v -0.7 0.9 1.4
v -0.7 1.1 1.4
v -0.7 1.3 1.4
v -0.7 1.4 1.4
v -0.7 1.6 1.4
v -0.7 1.7 1.4
v -0.7 1.8 1.4
v -0.7 1.9 1.4
v -0.7 2.1 1.4
v -0.6 1 1.4
v -0.6 1.1 1.4
v -0.6 1.3 1.4
v -0.6 1.4 1.4
v -0.6 1.6 1.4
v -0.6 1.7 1.4
v -0.6 1.8 1.4
v -0.6 1.9 1.4
v -0.6 2 1.4
v -0.6 2.1 1.4
v -0.6 2.2 1.4
v -0.4 1 1.4
v -0.4 1.1 1.4
v -0.4 1.3 1.4
v -0.4 1.4 1.4
v -0.4 1.6 1.4
v -0.4 1.7 1.4
v -0.4 1.8 1.4
v -0.4 1.9 1.4
v -0.4 2 1.4
v -0.4 2.1 1.4
v -0.4 2.2 1.4
v -0.3 0 1.4
v -0.3 0.2 1.4
v -0.3 0.9 1.4
v -0.3 1.1 1.4
v -0.3 1.3 1.4
v -0.3 1.4 1.4
v -0.3 1.6 1.4
v -0.3 1.7 1.4
v -0.3 1.8 1.4
v -0.3 1.9 1.4
v -0.3 2.1 1.4
v -0.2 0 1.4
v -0.2 0.2 1.4
v -0.2 1 1.4
v -0.2 1.3 1.4
v -0.2 1.7 1.4
v -0.2 1.9 1.4
v -0.8 0 2
v -0.7 0 2
v -0.3 0 2
v -0.2 0 2
v -0.8 0 1.9
v -0.7 0 1.9
v -0.3 0 1.9
v -0.2 0 1.9
v -0.8 0 1.5
v -0.7 0 1.5
v -0.3 0 1.5
v -0.2 0 1.5
v -0.8 0 1.4
v -0.7 0 1.4
v -0.3 0 1.4
v -0.2 0 1.4
v -0.7 0.9 2
v -0.6 0.9 2
v -0.4 0.9 2
v -0.3 0.9 2
v -0.8 0.9 1.9
v -0.7 0.9 1.9
v -0.6 0.9 1.9
v -0.4 0.9 1.9
v -0.3 0.9 1.9
v -0.2 0.9 1.9
v -0.8 0.9 1.8
v -0.7 0.9 1.8
v -0.6 0.9 1.8
v -0.4 0.9 1.8
v -0.3 0.9 1.8
v -0.2 0.9 1.8
v -0.8 0.9 1.7
v -0.7 0.9 1.7
v -0.6 0.9 1.7
v -0.4 0.9 1.7
v -0.3 0.9 1.7
v -0.2 0.9 1.7
v -0.7 0.9 1.6
v -0.6 0.9 1.6
v -0.4 0.9 1.6
v -0.3 0.9 1.6
v -0.8 0.9 1.5
v -0.7 0.9 1.5
v -0.6 0.9 1.5
v -0.4 0.9 1.5
v -0.3 0.9 1.5
v -0.2 0.9 1.5
v -0.7 0.9 1.4
v -0.3 0.9 1.4
v -0.6 2 1.5
v -0.4 2 1.5
v -0.6 2 1.4
v -0.4 2 1.4
v -0.8 1 2
v -0.6 1 2
v -0.4 1 2
v -0.2 1 2
v -0.7 1 1.9
v -0.6 1 1.9
v -0.4 1 1.9
v -0.3 1 1.9
v -0.8 1 1.8
v -0.7 1 1.8
v -0.6 1 1.8
v -0.4 1 1.8
v -0.3 1 1.8
v -0.2 1 1.8
v -0.8 1 1.7
v -0.7 1 1.7
v -0.6 1 1.7
v -0.4 1 1.7
v -0.3 1 1.7
v -0.2 1 1.7
v -0.7 1 1.6
v -0.6 1 1.6
v -0.4 1 1.6
v -0.3 1 1.6
v -0.8 1 1.5
v -0.6 1 1.5
v -0.4 1 1.5
v -0.2 1 1.5
v -0.8 1.9 1.5
v -0.7 1.9 1.5
v -0.6 1.9 1.5
v -0.4 1.9 1.5
v -0.3 1.9 1.5
v -0.2 1.9 1.5
v -0.8 1.9 1.4
v -0.7 1.9 1.4
v -0.6 1.9 1.4
v -0.4 1.9 1.4
v -0.3 1.9 1.4
v -0.2 1.9 1.4
v -0.7 2.1 1.5
v -0.6 2.1 1.5
v -0.4 2.1 1.5
v -0.3 2.1 1.5
v -0.7 2.1 1.4
v -0.6 2.1 1.4
v -0.4 2.1 1.4
v -0.3 2.1 1.4
v -0.6 2.2 1.5
v -0.4 2.2 1.5
v -0.6 2.2 1.4
v -0.4 2.2 1.4

# faces
f 5/2/1 2/2/1 1/2/1
f 6/2/1 2/2/1 5/2/1
f 7/2/1 4/2/1 3/2/1
f 8/2/1 4/2/1 7/2/1
f 9/1/1 6/1/1 5/1/1
f 10/1/1 6/1/1 9/1/1
f 13/1/1 8/1/1 7/1/1
f 14/2/1 10/2/1 9/2/1
f 14/2/1 11/2/1 10/2/1
f 15/1/1 12/1/1 11/1/1
f 15/2/1 11/2/1 14/2/1
f 16/2/1 13/2/1 12/2/1
f 16/1/1 12/1/1 15/1/1
f 17/1/1 8/1/1 13/1/1
f 17/2/1 13/2/1 16/2/1
f 18/1/1 8/1/1 17/1/1
f 19/2/1 18/2/1 17/2/1
f 20/2/1 18/2/1 19/2/1
f 21/1/1 20/1/1 19/1/1
f 22/1/1 20/1/1 21/1/1
f 23/2/1 22/2/1 21/2/1
f 24/2/1 22/2/1 23/2/1
f 27/2/1 26/2/1 25/2/1
f 28/2/1 26/2/1 27/2/1
f 31/2/1 30/2/1 29/2/1
f 32/2/1 30/2/1 31/2/1
f 35/2/1 34/2/1 33/2/1
f 36/2/1 34/2/1 35/2/1
f 41/2/1 38/2/1 37/2/1
f 42/2/1 38/2/1 41/2/1
f 43/2/1 40/2/1 39/2/1
f 44/2/1 40/2/1 43/2/1
f 45/1/1 42/1/1 41/1/1
f 46/1/1 42/1/1 45/1/1
f 47/1/1 44/1/1 43/1/1
f 48/1/1 44/1/1 47/1/1
f 49/2/2 50/2/2 53/2/2
f 53/2/2 50/2/2 54/2/2
f 51/2/2 52/2/2 55/2/2
f 55/2/2 52/2/2 56/2/2
f 53/1/2 54/1/2 57/1/2
f 57/1/2 54/1/2 58/1/2
f 55/1/2 56/1/2 59/1/2
f 59/1/2 56/1/2 60/1/2
f 61/2/2 62/2/2 63/2/2
f 63/2/2 62/2/2 64/2/2
f 65/2/2 66/2/2 67/2/2
f 67/2/2 66/2/2 68/2/2
f 69/2/2 70/2/2 71/2/2
f 71/2/2 70/2/2 72/2/2
f 73/2/2 74/2/2 77/2/2
f 77/2/2 74/2/2 78/2/2
f 75/2/2 76/2/2 79/2/2
f 79/2/2 76/2/2 80/2/2
f 77/1/2 78/1/2 81/1/2
f 81/1/2 78/1/2 82/1/2
f 79/1/2 80/1/2 85/1/2
f 81/2/2 82/2/2 86/2/2
f 82/2/2 83/2/2 86/2/2
f 83/1/2 84/1/2 87/1/2
f 86/2/2 83/2/2 87/2/2
f 84/2/2 85/2/2 88/2/2
f 87/1/2 84/1/2 88/1/2
f 85/1/2 80/1/2 89/1/2
f 88/2/2 85/2/2 89/2/2
f 89/1/2 80/1/2 90/1/2
f 89/2/2 90/2/2 91/2/2
f 91/2/2 90/2/2 92/2/2
f 91/1/2 92/1/2 93/1/2
f 93/1/2 92/1/2 94/1/2
f 93/2/2 94/2/2 95/2/2
f 95/2/2 94/2/2 96/2/2
f 101/2/3 98/2/3 97/2/3
f 102/1/3 99/1/3 98/1/3
f 102/2/3 98/2/3 101/2/3
f 103/2/3 100/2/3 99/2/3
f 103/1/3 99/1/3 102/1/3
f 104/2/3 100/2/3 103/2/3
f 105/2/3 100/2/3 104/2/3
f 106/1/3 105/1/3 104/1/3
f 107/1/3 105/1/3 106/1/3
f 110/2/3 107/2/3 106/2/3
f 111/2/3 109/2/3 108/2/3
f 112/1/3 110/1/3 109/1/3
f 112/2/3 109/2/3 111/2/3
f 113/2/3 107/2/3 110/2/3
f 113/1/3 110/1/3 112/1/3
f 114/2/3 107/2/3 113/2/3
f 122/2/3 116/2/3 115/2/3
f 123/1/3 117/1/3 116/1/3
f 123/2/3 116/2/3 122/2/3
f 124/1/3 117/1/3 123/1/3
f 125/2/3 119/2/3 118/2/3
f 126/1/3 120/1/3 119/1/3
f 126/2/3 119/2/3 125/2/3
f 127/1/3 120/1/3 126/1/3
f 128/1/3 120/1/3 127/1/3
f 129/2/3 121/2/3 120/2/3
f 129/1/3 120/1/3 128/1/3
f 130/2/3 121/2/3 129/2/3
f 131/2/3 121/2/3 130/2/3
f 133/2/3 125/2/3 118/2/3
f 134/1/3 126/1/3 125/1/3
f 134/2/3 125/2/3 133/2/3
f 135/2/3 127/2/3 126/2/3
f 135/1/3 126/1/3 134/1/3
f 136/1/3 128/1/3 127/1/3
f 136/2/3 127/2/3 135/2/3
f 137/2/3 129/2/3 128/2/3
f 137/1/3 128/1/3 136/1/3
f 138/1/3 130/1/3 129/1/3
f 138/2/3 129/2/3 137/2/3
f 139/2/3 132/2/3 131/2/3
f 139/1/3 130/1/3 138/1/3
f 139/2/3 131/2/3 130/2/3
f 140/2/3 132/2/3 139/2/3
f 141/2/3 132/2/3 140/2/3
f 142/2/3 132/2/3 141/2/3
f 144/1/3 135/1/3 134/1/3
f 144/1/3 136/1/3 135/1/3
f 144/1/3 134/1/3 133/1/3
f 145/1/3 136/1/3 144/1/3
f 146/1/3 136/1/3 145/1/3
f 147/2/3 137/2/3 136/2/3
f 147/1/3 136/1/3 146/1/3
f 148/1/3 138/1/3 137/1/3
f 148/2/3 137/2/3 147/2/3
f 148/1/3 140/1/3 139/1/3
f 148/1/3 139/1/3 138/1/3
f 149/1/3 140/1/3 148/1/3
f 150/1/3 140/1/3 149/1/3
f 151/1/3 140/1/3 150/1/3
f 152/2/3 143/2/3 142/2/3
f 152/2/3 142/2/3 141/2/3
f 153/2/3 143/2/3 152/2/3
f 154/2/3 143/2/3 153/2/3
f 158/1/3 146/1/3 145/1/3
f 158/2/3 145/2/3 144/2/3
f 159/2/3 147/2/3 146/2/3
f 159/1/3 146/1/3 158/1/3
f 160/1/3 148/1/3 147/1/3
f 160/2/3 147/2/3 159/2/3
f 161/2/3 149/2/3 148/2/3
f 161/1/3 148/1/3 160/1/3
f 162/1/3 150/1/3 149/1/3
f 162/2/3 149/2/3 161/2/3
f 163/2/3 151/2/3 150/2/3
f 163/1/3 150/1/3 162/1/3
f 163/2/3 152/2/3 151/2/3
f 163/2/3 153/2/3 152/2/3
f 164/2/3 153/2/3 163/2/3
f 165/2/3 153/2/3 164/2/3
f 166/2/3 156/2/3 155/2/3
f 167/1/3 157/1/3 156/1/3
f 167/2/3 156/2/3 166/2/3
f 168/1/3 157/1/3 167/1/3
f 169/2/3 158/2/3 144/2/3
f 169/2/3 159/2/3 158/2/3
f 170/1/3 162/1/3 161/1/3
f 170/2/3 159/2/3 169/2/3
f 170/1/3 161/1/3 160/1/3
f 170/1/3 160/1/3 159/1/3
f 171/2/3 164/2/3 163/2/3
f 171/1/3 162/1/3 170/1/3
f 171/2/3 163/2/3 162/2/3
f 172/2/3 164/2/3 171/2/3
f 173/2/4 174/2/4 176/2/4
f 174/1/4 175/1/4 177/1/4
f 176/2/4 174/2/4 177/2/4
f 177/1/4 175/1/4 178/1/4
f 179/2/4 180/2/4 182/2/4
f 180/1/4 181/1/4 183/1/4
f 182/2/4 180/2/4 183/2/4
f 183/1/4 181/1/4 184/1/4
f 185/2/4 186/2/4 191/2/4
f 186/1/4 187/1/4 192/1/4
f 191/2/4 186/2/4 192/2/4
f 192/1/4 187/1/4 193/1/4
f 187/2/4 188/2/4 194/2/4
f 188/1/4 189/1/4 195/1/4
f 194/2/4 188/2/4 195/2/4
f 195/1/4 189/1/4 196/1/4
f 196/1/4 189/1/4 197/1/4
f 189/2/4 190/2/4 198/2/4
f 197/1/4 189/1/4 198/1/4
f 198/2/4 190/2/4 199/2/4
f 199/2/4 190/2/4 200/2/4
f 193/1/4 187/1/4 202/1/4
f 187/2/4 194/2/4 202/2/4
f 194/1/4 195/1/4 203/1/4
f 202/2/4 194/2/4 203/2/4
f 195/2/4 196/2/4 204/2/4
f 203/1/4 195/1/4 204/1/4
f 196/1/4 197/1/4 205/1/4
f 204/2/4 196/2/4 205/2/4
f 197/2/4 198/2/4 206/2/4
f 205/1/4 197/1/4 206/1/4
f 198/1/4 199/1/4 207/1/4
f 206/2/4 198/2/4 207/2/4
f 200/2/4 201/2/4 208/2/4
f 207/1/4 199/1/4 208/1/4
f 199/2/4 200/2/4 208/2/4
f 208/2/4 201/2/4 209/2/4
f 209/2/4 201/2/4 210/2/4
f 210/2/4 201/2/4 211/2/4
f 203/1/4 204/1/4 213/1/4
f 202/1/4 203/1/4 213/1/4
f 204/1/4 205/1/4 213/1/4
f 193/1/4 202/1/4 213/1/4
f 213/1/4 205/1/4 214/1/4
f 214/1/4 205/1/4 215/1/4
f 205/2/4 206/2/4 216/2/4
f 215/1/4 205/1/4 216/1/4
f 206/1/4 207/1/4 217/1/4
f 216/2/4 206/2/4 217/2/4
f 208/1/4 209/1/4 217/1/4
f 207/1/4 208/1/4 217/1/4
f 217/1/4 209/1/4 218/1/4
f 218/1/4 209/1/4 219/1/4
f 219/1/4 209/1/4 220/1/4
f 211/2/4 212/2/4 221/2/4
f 210/2/4 211/2/4 221/2/4
f 221/2/4 212/2/4 222/2/4
f 222/2/4 212/2/4 223/2/4
f 193/1/4 213/1/4 226/1/4
f 214/1/4 215/1/4 227/1/4
f 213/2/4 214/2/4 227/2/4
f 215/2/4 216/2/4 228/2/4
f 227/1/4 215/1/4 228/1/4
f 216/1/4 217/1/4 229/1/4
f 228/2/4 216/2/4 229/2/4
f 217/2/4 218/2/4 230/2/4
f 229/1/4 217/1/4 230/1/4
f 218/1/4 219/1/4 231/1/4
f 230/2/4 218/2/4 231/2/4
f 219/2/4 220/2/4 232/2/4
f 231/1/4 219/1/4 232/1/4
f 220/2/4 221/2/4 232/2/4
f 221/2/4 222/2/4 232/2/4
f 232/2/4 222/2/4 233/2/4
f 233/2/4 222/2/4 234/2/4
f 224/2/4 225/2/4 235/2/4
f 225/1/4 226/1/4 236/1/4
f 235/2/4 225/2/4 236/2/4
f 213/2/4 227/2/4 237/2/4
f 236/1/4 226/1/4 237/1/4
f 226/1/4 213/1/4 237/1/4
f 227/2/4 228/2/4 237/2/4
f 230/1/4 231/1/4 238/1/4
f 237/2/4 228/2/4 238/2/4
f 229/1/4 230/1/4 238/1/4
f 228/1/4 229/1/4 238/1/4
f 232/2/4 233/2/4 239/2/4
f 238/1/4 231/1/4 239/1/4
f 231/2/4 232/2/4 239/2/4
f 239/2/4 233/2/4 240/2/4
f 245/2/5 242/2/5 241/2/5
f 246/2/5 242/2/5 245/2/5
f 247/2/5 244/2/5 243/2/5
f 248/2/5 244/2/5 247/2/5
f 253/2/5 250/2/5 249/2/5
f 254/2/5 250/2/5 253/2/5
f 255/2/5 252/2/5 251/2/5
f 256/2/5 252/2/5 255/2/5
f 262/2/5 258/2/5 257/2/5
f 263/1/5 259/1/5 258/1/5
f 263/2/5 258/2/5 262/2/5
f 264/2/5 260/2/5 259/2/5
f 264/1/5 259/1/5 263/1/5
f 265/2/5 260/2/5 264/2/5
f 267/2/5 262/2/5 261/2/5
f 268/1/5 263/1/5 262/1/5
f 268/2/5 262/2/5 267/2/5
f 268/1/5 264/1/5 263/1/5
f 268/1/5 265/1/5 264/1/5
f 269/1/5 265/1/5 268/1/5
f 270/1/5 265/1/5 269/1/5
f 271/2/5 266/2/5 265/2/5
f 271/1/5 265/1/5 270/1/5
f 272/2/5 266/2/5 271/2/5
f 273/1/5 268/1/5 267/1/5
f 273/1/5 269/1/5 268/1/5
f 274/1/5 269/1/5 273/1/5
f 275/2/5 270/2/5 269/2/5
f 275/1/5 269/1/5 274/1/5
f 276/1/5 272/1/5 271/1/5
f 276/2/5 270/2/5 275/2/5
f 276/1/5 271/1/5 270/1/5
f 277/1/5 272/1/5 276/1/5
f 278/1/5 272/1/5 277/1/5
f 279/2/5 274/2/5 273/2/5
f 279/1/5 275/1/5 274/1/5
f 279/1/5 276/1/5 275/1/5
f 279/1/5 277/1/5 276/1/5
f 280/1/5 277/1/5 279/1/5
f 281/1/5 277/1/5 280/1/5
f 282/2/5 278/2/5 277/2/5
f 282/1/5 277/1/5 281/1/5
f 283/2/5 279/2/5 273/2/5
f 283/2/5 280/2/5 279/2/5
f 284/2/5 280/2/5 283/2/5
f 285/1/5 281/1/5 280/1/5
f 285/2/5 280/2/5 284/2/5
f 286/2/5 282/2/5 281/2/5
f 286/1/5 281/1/5 285/1/5
f 287/2/5 278/2/5 282/2/5
f 287/2/5 282/2/5 286/2/5
f 288/2/5 278/2/5 287/2/5
f 289/1/5 286/1/5 285/1/5
f 289/1/5 287/1/5 286/1/5
f 289/1/5 285/1/5 284/1/5
f 290/1/5 287/1/5 289/1/5
f 293/2/5 292/2/5 291/2/5
f 294/2/5 292/2/5 293/2/5
f 295/2/6 296/2/6 299/2/6
f 296/1/6 297/1/6 300/1/6
f 299/2/6 296/2/6 300/2/6
f 297/2/6 298/2/6 301/2/6
f 300/1/6 297/1/6 301/1/6
f 301/2/6 298/2/6 302/2/6
f 295/2/6 299/2/6 303/2/6
f 299/1/6 300/1/6 304/1/6
f 303/2/6 299/2/6 304/2/6
f 300/1/6 301/1/6 304/1/6
f 301/1/6 302/1/6 304/1/6
f 304/1/6 302/1/6 305/1/6
f 305/1/6 302/1/6 306/1/6
f 302/2/6 298/2/6 307/2/6
f 306/1/6 302/1/6 307/1/6
f 307/2/6 298/2/6 308/2/6
f 303/1/6 304/1/6 309/1/6
f 304/1/6 305/1/6 309/1/6
f 309/1/6 305/1/6 310/1/6
f 305/2/6 306/2/6 311/2/6
f 310/1/6 305/1/6 311/1/6
f 307/1/6 308/1/6 312/1/6
f 311/2/6 306/2/6 312/2/6
f 306/1/6 307/1/6 312/1/6
f 312/1/6 308/1/6 313/1/6
f 313/1/6 308/1/6 314/1/6
f 309/2/6 310/2/6 315/2/6
f 310/1/6 311/1/6 315/1/6
f 311/1/6 312/1/6 315/1/6
f 312/1/6 313/1/6 315/1/6
f 315/1/6 313/1/6 316/1/6
f 316/1/6 313/1/6 317/1/6
f 313/2/6 314/2/6 318/2/6
f 317/1/6 313/1/6 318/1/6
f 309/2/6 315/2/6 319/2/6
f 315/2/6 316/2/6 319/2/6
f 316/1/6 317/1/6 320/1/6
f 319/2/6 316/2/6 320/2/6
f 317/2/6 318/2/6 321/2/6
f 320/1/6 317/1/6 321/1/6
f 318/2/6 314/2/6 322/2/6
f 321/2/6 318/2/6 322/2/6
f 323/2/6 324/2/6 329/2/6
f 329/2/6 324/2/6 330/2/6
f 325/1/6 326/1/6 331/1/6
f 331/1/6 326/1/6 332/1/6
f 327/2/6 328/2/6 333/2/6
f 333/2/6 328/2/6 334/2/6
f 335/2/6 336/2/6 339/2/6
f 339/2/6 336/2/6 340/2/6
f 337/2/6 338/2/6 341/2/6
f 341/2/6 338/2/6 342/2/6
f 343/2/6 344/2/6 345/2/6
f 345/2/6 344/2/6 346/2/6
