# MagicaVoxel @ Ephtracy

# group
o 

# material
mtllib Animals-30.mtl
usemtl palette

# normals
vn -1 0 0
vn 1 0 0
vn 0 0 1
vn 0 0 -1
vn 0 -1 0
vn 0 1 0

# texcoords
vt 0.845703 0.5
vt 0.849609 0.5
vt 0.853516 0.5
vt 0.857422 0.5
vt 0.861328 0.5
vt 0.974609 0.5
vt 0.978516 0.5

# verts
v 7.1 1 8.2
v 7.1 1 8.1
v 7.1 1.1 8.2
v 7.1 1.1 8.1
v 7.7 0 8.5
v 7.7 0 8.3
v 7.7 0 7.9
v 7.7 0 7.7
v 7.7 0.1 8.5
v 7.7 0.1 8.3
v 7.7 0.1 7.9
v 7.7 0.1 7.7
v 7.7 0.6 8.3
v 7.7 0.6 7.9
v 7.7 1 8.2
v 7.7 1 8.1
v 7.7 1.1 8.5
v 7.7 1.1 8.4
v 7.7 1.1 8.2
v 7.7 1.1 8.1
v 7.7 1.1 7.8
v 7.7 1.1 7.7
v 7.7 1.2 8.4
v 7.7 1.2 7.8
v 8.7 0.7 8.6
v 8.7 0.7 8.5
v 8.7 0.7 7.7
v 8.7 0.7 7.6
v 8.7 1.1 8.5
v 8.7 1.1 8.4
v 8.7 1.1 7.8
v 8.7 1.1 7.7
v 8.7 1.2 8.4
v 8.7 1.2 7.8
v 8.7 1.5 8.6
v 8.7 1.5 7.6
v 8.9 0 8.5
v 8.9 0 8.3
v 8.9 0 7.9
v 8.9 0 7.7
v 8.9 0.1 8.5
v 8.9 0.1 8.3
v 8.9 0.1 7.9
v 8.9 0.1 7.7
v 8.9 0.6 8.5
v 8.9 0.6 8.3
v 8.9 0.6 7.9
v 8.9 0.6 7.7
v 9 1.1 8.8
v 9 1.1 8.6
v 9 1.1 7.6
v 9 1.1 7.4
v 9 1.2 8.7
v 9 1.2 8.6
v 9 1.2 7.6
v 9 1.2 7.5
v 9 1.3 8.7
v 9 1.3 8.6
v 9 1.3 7.6
v 9 1.3 7.5
v 9 1.4 8.8
v 9 1.4 8.6
v 9 1.4 7.6
v 9 1.4 7.4
v 7.9 0 8.5
v 7.9 0 8.3
v 7.9 0 7.9
v 7.9 0 7.7
v 7.9 0.1 8.5
v 7.9 0.1 8.3
v 7.9 0.1 7.9
v 7.9 0.1 7.7
v 7.9 0.6 8.5
v 7.9 0.6 8.3
v 7.9 0.6 7.9
v 7.9 0.6 7.7
v 9.1 0 8.5
v 9.1 0 8.3
v 9.1 0 7.9
v 9.1 0 7.7
v 9.1 0.1 8.5
v 9.1 0.1 8.3
v 9.1 0.1 7.9
v 9.1 0.1 7.7
v 9.1 0.6 8.3
v 9.1 0.6 7.9
v 9.1 0.7 8.5
v 9.1 0.7 7.7
v 9.1 1.1 8.8
v 9.1 1.1 8.6
v 9.1 1.1 7.6
v 9.1 1.1 7.4
v 9.1 1.2 8.7
v 9.1 1.2 8.6
v 9.1 1.2 7.6
v 9.1 1.2 7.5
v 9.1 1.3 8.7
v 9.1 1.3 8.6
v 9.1 1.3 7.6
v 9.1 1.3 7.5
v 9.1 1.4 8.8
v 9.1 1.4 8.6
v 9.1 1.4 7.6
v 9.1 1.4 7.4
v 9.3 0.7 8.6
v 9.3 0.7 7.6
v 9.3 0.8 8.4
v 9.3 0.8 7.8
v 9.3 1.1 8.4
v 9.3 1.1 7.8
v 9.3 1.2 8.4
v 9.3 1.2 7.8
v 9.3 1.4 8.4
v 9.3 1.4 8.2
v 9.3 1.4 8
v 9.3 1.4 7.8
v 9.3 1.5 8.6
v 9.3 1.5 7.6
v 9.4 0.8 8.4
v 9.4 0.8 8.3
v 9.4 0.8 7.9
v 9.4 0.8 7.8
v 9.4 1.1 8.4
v 9.4 1.1 8.3
v 9.4 1.1 8.2
v 9.4 1.1 8
v 9.4 1.1 7.9
v 9.4 1.1 7.8
v 9.4 1.2 8.4
v 9.4 1.2 8.3
v 9.4 1.2 7.9
v 9.4 1.2 7.8
v 9.4 1.3 8.3
v 9.4 1.3 8.2
v 9.4 1.3 8
v 9.4 1.3 7.9
v 9.4 1.4 8.4
v 9.4 1.4 8.2
v 9.4 1.4 8
v 9.4 1.4 7.8
v 9.7 0.8 8.3
v 9.7 0.8 8.2
v 9.7 0.8 8
v 9.7 0.8 7.9
v 9.7 0.9 8.2
v 9.7 0.9 8
v 9.7 1 8.2
v 9.7 1 8
v 9.7 1.1 8.3
v 9.7 1.1 8.2
v 9.7 1.1 8
v 9.7 1.1 7.9
v 9 1.1 8.8
v 9 1.4 8.8
v 9.1 1.1 8.8
v 9.1 1.4 8.8
v 8.7 0.7 8.6
v 8.7 1.5 8.6
v 9 1.1 8.6
v 9 1.2 8.6
v 9 1.3 8.6
v 9 1.4 8.6
v 9.1 1.1 8.6
v 9.1 1.2 8.6
v 9.1 1.3 8.6
v 9.1 1.4 8.6
v 9.3 0.7 8.6
v 9.3 1.5 8.6
v 7.7 0 8.5
v 7.7 0.1 8.5
v 7.7 1.1 8.5
v 7.9 0 8.5
v 7.9 0.1 8.5
v 7.9 0.6 8.5
v 8.7 0.7 8.5
v 8.7 1.1 8.5
v 8.9 0 8.5
v 8.9 0.1 8.5
v 8.9 0.6 8.5
v 9.1 0 8.5
v 9.1 0.1 8.5
v 9.1 0.7 8.5
v 7.7 1.1 8.4
v 7.7 1.2 8.4
v 8.7 1.1 8.4
v 8.7 1.2 8.4
v 9.3 0.8 8.4
v 9.3 1.1 8.4
v 9.3 1.2 8.4
v 9.3 1.4 8.4
v 9.4 0.8 8.4
v 9.4 1.1 8.4
v 9.4 1.2 8.4
v 9.4 1.4 8.4
v 9.4 0.8 8.3
v 9.4 1.1 8.3
v 9.7 0.8 8.3
v 9.7 1.1 8.3
v 7.1 1 8.2
v 7.1 1.1 8.2
v 7.3 1 8.2
v 7.3 1.1 8.2
v 7.7 1 8.2
v 7.7 1.1 8.2
v 7.7 0 7.9
v 7.7 0.1 7.9
v 7.7 0.6 7.9
v 7.9 0 7.9
v 7.9 0.1 7.9
v 7.9 0.6 7.9
v 8.9 0 7.9
v 8.9 0.1 7.9
v 8.9 0.6 7.9
v 9.1 0 7.9
v 9.1 0.1 7.9
v 9.1 0.6 7.9
v 7.7 0 8.3
v 7.7 0.1 8.3
v 7.7 0.6 8.3
v 7.9 0 8.3
v 7.9 0.1 8.3
v 7.9 0.6 8.3
v 8.9 0 8.3
v 8.9 0.1 8.3
v 8.9 0.6 8.3
v 9.1 0 8.3
v 9.1 0.1 8.3
v 9.1 0.6 8.3
v 7.1 1 8.1
v 7.1 1.1 8.1
v 7.3 1 8.1
v 7.3 1.1 8.1
v 7.7 1 8.1
v 7.7 1.1 8.1
v 9.4 0.8 7.9
v 9.4 1.1 7.9
v 9.7 0.8 7.9
v 9.7 1.1 7.9
v 7.7 1.1 7.8
v 7.7 1.2 7.8
v 8.7 1.1 7.8
v 8.7 1.2 7.8
v 9.3 0.8 7.8
v 9.3 1.1 7.8
v 9.3 1.2 7.8
v 9.3 1.4 7.8
v 9.4 0.8 7.8
v 9.4 1.1 7.8
v 9.4 1.2 7.8
v 9.4 1.4 7.8
v 7.7 0 7.7
v 7.7 0.1 7.7
v 7.7 1.1 7.7
v 7.9 0 7.7
v 7.9 0.1 7.7
v 7.9 0.6 7.7
v 8.7 0.7 7.7
v 8.7 1.1 7.7
v 8.9 0 7.7
v 8.9 0.1 7.7
v 8.9 0.6 7.7
v 9.1 0 7.7
v 9.1 0.1 7.7
v 9.1 0.7 7.7
v 8.7 0.7 7.6
v 8.7 1.5 7.6
v 9 1.1 7.6
v 9 1.2 7.6
v 9 1.3 7.6
v 9 1.4 7.6
v 9.1 1.1 7.6
v 9.1 1.2 7.6
v 9.1 1.3 7.6
v 9.1 1.4 7.6
v 9.3 0.7 7.6
v 9.3 1.5 7.6
v 9 1.1 7.4
v 9 1.4 7.4
v 9.1 1.1 7.4
v 9.1 1.4 7.4
v 7.7 0 8.5
v 7.9 0 8.5
v 8.9 0 8.5
v 9.1 0 8.5
v 7.7 0 8.3
v 7.9 0 8.3
v 8.9 0 8.3
v 9.1 0 8.3
v 7.7 0 7.9
v 7.9 0 7.9
v 8.9 0 7.9
v 9.1 0 7.9
v 7.7 0 7.7
v 7.9 0 7.7
v 8.9 0 7.7
v 9.1 0 7.7
v 7.9 0.6 8.5
v 8.9 0.6 8.5
v 7.7 0.6 8.3
v 7.9 0.6 8.3
v 8.9 0.6 8.3
v 9.1 0.6 8.3
v 7.7 0.6 7.9
v 7.9 0.6 7.9
v 8.9 0.6 7.9
v 9.1 0.6 7.9
v 7.9 0.6 7.7
v 8.9 0.6 7.7
v 8.7 0.7 8.6
v 9.3 0.7 8.6
v 8.7 0.7 8.5
v 9.1 0.7 8.5
v 8.7 0.7 7.7
v 9.1 0.7 7.7
v 8.7 0.7 7.6
v 9.3 0.7 7.6
v 9.3 0.8 8.4
v 9.4 0.8 8.4
v 9.4 0.8 8.3
v 9.7 0.8 8.3
v 9.6 0.8 8.2
v 9.7 0.8 8.2
v 9.6 0.8 8
v 9.7 0.8 8
v 9.4 0.8 7.9
v 9.7 0.8 7.9
v 9.3 0.8 7.8
v 9.4 0.8 7.8
v 7.1 1 8.2
v 7.3 1 8.2
v 7.7 1 8.2
v 7.1 1 8.1
v 7.3 1 8.1
v 7.7 1 8.1
v 9 1.1 8.8
v 9.1 1.1 8.8
v 9 1.1 8.6
v 9.1 1.1 8.6
v 9 1.1 7.6
v 9.1 1.1 7.6
v 9 1.1 7.4
v 9.1 1.1 7.4
v 7.7 1.1 8.5
v 8.7 1.1 8.5
v 7.7 1.1 8.4
v 8.7 1.1 8.4
v 9.4 1.1 8.3
v 9.7 1.1 8.3
v 7.1 1.1 8.2
v 7.3 1.1 8.2
v 7.7 1.1 8.2
v 9.4 1.1 8.2
v 9.6 1.1 8.2
v 9.7 1.1 8.2
v 7.1 1.1 8.1
v 7.3 1.1 8.1
v 7.7 1.1 8.1
v 9.4 1.1 8
v 9.6 1.1 8
v 9.7 1.1 8
v 9.4 1.1 7.9
v 9.7 1.1 7.9
v 7.7 1.1 7.8
v 8.7 1.1 7.8
v 7.7 1.1 7.7
v 8.7 1.1 7.7
v 7.7 1.2 8.4
v 8.7 1.2 8.4
v 7.7 1.2 7.8
v 8.7 1.2 7.8
v 9 1.4 8.8
v 9.1 1.4 8.8
v 9 1.4 8.6
v 9.1 1.4 8.6
v 9.3 1.4 8.4
v 9.4 1.4 8.4
v 9.3 1.4 8.2
v 9.4 1.4 8.2
v 9.3 1.4 8
v 9.4 1.4 8
v 9.3 1.4 7.8
v 9.4 1.4 7.8
v 9 1.4 7.6
v 9.1 1.4 7.6
v 9 1.4 7.4
v 9.1 1.4 7.4
v 8.7 1.5 8.6
v 9.3 1.5 8.6
v 8.7 1.5 7.6
v 9.3 1.5 7.6

# faces
f 3/2/1 2/2/1 1/2/1
f 4/2/1 2/2/1 3/2/1
f 9/2/1 6/2/1 5/2/1
f 10/2/1 6/2/1 9/2/1
f 11/2/1 8/2/1 7/2/1
f 12/2/1 8/2/1 11/2/1
f 13/1/1 10/1/1 9/1/1
f 14/1/1 12/1/1 11/1/1
f 15/1/1 14/1/1 13/1/1
f 16/1/1 14/1/1 15/1/1
f 17/1/1 13/1/1 9/1/1
f 17/1/1 15/1/1 13/1/1
f 18/1/1 15/1/1 17/1/1
f 19/1/1 15/1/1 18/1/1
f 20/1/1 14/1/1 16/1/1
f 21/1/1 12/1/1 14/1/1
f 21/1/1 14/1/1 20/1/1
f 22/1/1 12/1/1 21/1/1
f 23/1/1 19/1/1 18/1/1
f 23/1/1 20/1/1 19/1/1
f 23/1/1 21/1/1 20/1/1
f 24/1/1 21/1/1 23/1/1
f 29/2/1 26/2/1 25/2/1
f 32/2/1 28/2/1 27/2/1
f 33/2/1 30/2/1 29/2/1
f 34/2/1 32/2/1 31/2/1
f 35/2/1 33/2/1 29/2/1
f 35/2/1 34/2/1 33/2/1
f 35/2/1 29/2/1 25/2/1
f 36/2/1 32/2/1 34/2/1
f 36/2/1 34/2/1 35/2/1
f 36/2/1 28/2/1 32/2/1
f 41/2/1 38/2/1 37/2/1
f 42/2/1 38/2/1 41/2/1
f 43/2/1 40/2/1 39/2/1
f 44/2/1 40/2/1 43/2/1
f 45/1/1 42/1/1 41/1/1
f 46/1/1 42/1/1 45/1/1
f 47/1/1 44/1/1 43/1/1
f 48/1/1 44/1/1 47/1/1
f 53/3/1 50/3/1 49/3/1
f 54/3/1 50/3/1 53/3/1
f 55/3/1 52/3/1 51/3/1
f 56/3/1 52/3/1 55/3/1
f 57/5/1 54/5/1 53/5/1
f 57/3/1 53/3/1 49/3/1
f 58/5/1 54/5/1 57/5/1
f 59/5/1 56/5/1 55/5/1
f 60/3/1 52/3/1 56/3/1
f 60/5/1 56/5/1 59/5/1
f 61/3/1 58/3/1 57/3/1
f 61/3/1 57/3/1 49/3/1
f 62/3/1 58/3/1 61/3/1
f 63/3/1 60/3/1 59/3/1
f 64/3/1 52/3/1 60/3/1
f 64/3/1 60/3/1 63/3/1
f 65/2/2 66/2/2 69/2/2
f 69/2/2 66/2/2 70/2/2
f 67/2/2 68/2/2 71/2/2
f 71/2/2 68/2/2 72/2/2
f 69/1/2 70/1/2 73/1/2
f 73/1/2 70/1/2 74/1/2
f 71/1/2 72/1/2 75/1/2
f 75/1/2 72/1/2 76/1/2
f 77/2/2 78/2/2 81/2/2
f 81/2/2 78/2/2 82/2/2
f 79/2/2 80/2/2 83/2/2
f 83/2/2 80/2/2 84/2/2
f 81/1/2 82/1/2 85/1/2
f 83/1/2 84/1/2 86/1/2
f 81/1/2 85/1/2 87/1/2
f 85/1/2 86/1/2 87/1/2
f 86/1/2 84/1/2 88/1/2
f 87/1/2 86/1/2 88/1/2
f 89/3/2 90/3/2 93/3/2
f 93/3/2 90/3/2 94/3/2
f 91/3/2 92/3/2 95/3/2
f 95/3/2 92/3/2 96/3/2
f 93/5/2 94/5/2 97/5/2
f 89/3/2 93/3/2 97/3/2
f 97/5/2 94/5/2 98/5/2
f 95/5/2 96/5/2 99/5/2
f 96/3/2 92/3/2 100/3/2
f 99/5/2 96/5/2 100/5/2
f 97/3/2 98/3/2 101/3/2
f 89/3/2 97/3/2 101/3/2
f 101/3/2 98/3/2 102/3/2
f 99/3/2 100/3/2 103/3/2
f 100/3/2 92/3/2 104/3/2
f 103/3/2 100/3/2 104/3/2
f 105/2/2 106/2/2 107/2/2
f 107/2/2 106/2/2 108/2/2
f 105/2/2 107/2/2 109/2/2
f 108/2/2 106/2/2 110/2/2
f 105/2/2 109/2/2 111/2/2
f 110/2/2 106/2/2 112/2/2
f 105/2/2 111/2/2 113/2/2
f 112/2/2 106/2/2 116/2/2
f 114/2/2 115/2/2 117/2/2
f 115/2/2 116/2/2 117/2/2
f 105/2/2 113/2/2 117/2/2
f 113/2/2 114/2/2 117/2/2
f 116/2/2 106/2/2 118/2/2
f 117/2/2 116/2/2 118/2/2
f 119/3/2 120/3/2 123/3/2
f 123/3/2 120/3/2 124/3/2
f 121/3/2 122/3/2 127/3/2
f 127/3/2 122/3/2 128/3/2
f 123/7/2 124/7/2 129/7/2
f 124/7/2 125/7/2 129/7/2
f 129/7/2 125/7/2 130/7/2
f 127/7/2 128/7/2 131/7/2
f 126/7/2 127/7/2 131/7/2
f 131/7/2 128/7/2 132/7/2
f 130/7/2 125/7/2 133/7/2
f 129/6/2 130/6/2 133/6/2
f 125/3/2 126/3/2 134/3/2
f 133/7/2 125/7/2 134/7/2
f 126/7/2 131/7/2 135/7/2
f 134/3/2 126/3/2 135/3/2
f 131/6/2 132/6/2 136/6/2
f 135/7/2 131/7/2 136/7/2
f 129/6/2 133/6/2 137/6/2
f 133/6/2 134/6/2 137/6/2
f 134/3/2 135/3/2 138/3/2
f 137/6/2 134/6/2 138/6/2
f 135/6/2 136/6/2 139/6/2
f 138/3/2 135/3/2 139/3/2
f 136/6/2 132/6/2 140/6/2
f 139/6/2 136/6/2 140/6/2
f 141/3/2 142/3/2 145/3/2
f 142/4/2 143/4/2 145/4/2
f 143/3/2 144/3/2 146/3/2
f 145/4/2 143/4/2 146/4/2
f 141/3/2 145/3/2 147/3/2
f 145/3/2 146/3/2 147/3/2
f 146/3/2 144/3/2 148/3/2
f 147/3/2 146/3/2 148/3/2
f 141/3/2 147/3/2 149/3/2
f 147/4/2 148/4/2 150/4/2
f 149/3/2 147/3/2 150/3/2
f 148/3/2 144/3/2 151/3/2
f 150/4/2 148/4/2 151/4/2
f 151/3/2 144/3/2 152/3/2
f 155/3/3 154/3/3 153/3/3
f 156/3/3 154/3/3 155/3/3
f 159/2/3 158/2/3 157/2/3
f 160/2/3 158/2/3 159/2/3
f 161/2/3 158/2/3 160/2/3
f 162/2/3 158/2/3 161/2/3
f 163/2/3 159/2/3 157/2/3
f 166/2/3 158/2/3 162/2/3
f 167/2/3 165/2/3 164/2/3
f 167/2/3 166/2/3 165/2/3
f 167/2/3 163/2/3 157/2/3
f 167/2/3 164/2/3 163/2/3
f 168/2/3 158/2/3 166/2/3
f 168/2/3 166/2/3 167/2/3
f 172/2/3 170/2/3 169/2/3
f 173/1/3 171/1/3 170/1/3
f 173/2/3 170/2/3 172/2/3
f 174/1/3 171/1/3 173/1/3
f 175/1/3 171/1/3 174/1/3
f 176/1/3 171/1/3 175/1/3
f 179/1/3 175/1/3 174/1/3
f 180/2/3 178/2/3 177/2/3
f 181/1/3 179/1/3 178/1/3
f 181/2/3 178/2/3 180/2/3
f 182/1/3 175/1/3 179/1/3
f 182/1/3 179/1/3 181/1/3
f 185/1/3 184/1/3 183/1/3
f 186/1/3 184/1/3 185/1/3
f 191/3/3 188/3/3 187/3/3
f 192/7/3 189/7/3 188/7/3
f 192/3/3 188/3/3 191/3/3
f 193/6/3 190/6/3 189/6/3
f 193/7/3 189/7/3 192/7/3
f 194/6/3 190/6/3 193/6/3
f 197/3/3 196/3/3 195/3/3
f 198/3/3 196/3/3 197/3/3
f 201/2/3 200/2/3 199/2/3
f 202/2/3 200/2/3 201/2/3
f 203/1/3 202/1/3 201/1/3
f 204/1/3 202/1/3 203/1/3
f 208/2/3 206/2/3 205/2/3
f 209/1/3 207/1/3 206/1/3
f 209/2/3 206/2/3 208/2/3
f 210/1/3 207/1/3 209/1/3
f 214/2/3 212/2/3 211/2/3
f 215/1/3 213/1/3 212/1/3
f 215/2/3 212/2/3 214/2/3
f 216/1/3 213/1/3 215/1/3
f 217/2/4 218/2/4 220/2/4
f 218/1/4 219/1/4 221/1/4
f 220/2/4 218/2/4 221/2/4
f 221/1/4 219/1/4 222/1/4
f 223/2/4 224/2/4 226/2/4
f 224/1/4 225/1/4 227/1/4
f 226/2/4 224/2/4 227/2/4
f 227/1/4 225/1/4 228/1/4
f 229/2/4 230/2/4 231/2/4
f 231/2/4 230/2/4 232/2/4
f 231/1/4 232/1/4 233/1/4
f 233/1/4 232/1/4 234/1/4
f 235/3/4 236/3/4 237/3/4
f 237/3/4 236/3/4 238/3/4
f 239/1/4 240/1/4 241/1/4
f 241/1/4 240/1/4 242/1/4
f 243/3/4 244/3/4 247/3/4
f 244/7/4 245/7/4 248/7/4
f 247/3/4 244/3/4 248/3/4
f 245/6/4 246/6/4 249/6/4
f 248/7/4 245/7/4 249/7/4
f 249/6/4 246/6/4 250/6/4
f 251/2/4 252/2/4 254/2/4
f 252/1/4 253/1/4 255/1/4
f 254/2/4 252/2/4 255/2/4
f 255/1/4 253/1/4 256/1/4
f 256/1/4 253/1/4 257/1/4
f 257/1/4 253/1/4 258/1/4
f 256/1/4 257/1/4 261/1/4
f 259/2/4 260/2/4 262/2/4
f 260/1/4 261/1/4 263/1/4
f 262/2/4 260/2/4 263/2/4
f 261/1/4 257/1/4 264/1/4
f 263/1/4 261/1/4 264/1/4
f 265/2/4 266/2/4 267/2/4
f 267/2/4 266/2/4 268/2/4
f 268/2/4 266/2/4 269/2/4
f 269/2/4 266/2/4 270/2/4
f 265/2/4 267/2/4 271/2/4
f 270/2/4 266/2/4 274/2/4
f 272/2/4 273/2/4 275/2/4
f 273/2/4 274/2/4 275/2/4
f 265/2/4 271/2/4 275/2/4
f 271/2/4 272/2/4 275/2/4
f 274/2/4 266/2/4 276/2/4
f 275/2/4 274/2/4 276/2/4
f 277/3/4 278/3/4 279/3/4
f 279/3/4 278/3/4 280/3/4
f 285/2/5 282/2/5 281/2/5
f 286/2/5 282/2/5 285/2/5
f 287/2/5 284/2/5 283/2/5
f 288/2/5 284/2/5 287/2/5
f 293/2/5 290/2/5 289/2/5
f 294/2/5 290/2/5 293/2/5
f 295/2/5 292/2/5 291/2/5
f 296/2/5 292/2/5 295/2/5
f 300/1/5 298/1/5 297/1/5
f 301/1/5 298/1/5 300/1/5
f 303/1/5 300/1/5 299/1/5
f 303/1/5 302/1/5 301/1/5
f 303/1/5 301/1/5 300/1/5
f 304/1/5 302/1/5 303/1/5
f 305/1/5 302/1/5 304/1/5
f 306/1/5 302/1/5 305/1/5
f 307/1/5 305/1/5 304/1/5
f 308/1/5 305/1/5 307/1/5
f 311/2/5 310/2/5 309/2/5
f 312/2/5 310/2/5 311/2/5
f 314/2/5 310/2/5 312/2/5
f 315/2/5 314/2/5 313/2/5
f 316/2/5 310/2/5 314/2/5
f 316/2/5 314/2/5 315/2/5
f 319/3/5 318/3/5 317/3/5
f 321/3/5 320/3/5 319/3/5
f 322/3/5 320/3/5 321/3/5
f 323/3/5 321/3/5 319/3/5
f 323/4/5 322/4/5 321/4/5
f 324/4/5 322/4/5 323/4/5
f 325/3/5 319/3/5 317/3/5
f 325/3/5 323/3/5 319/3/5
f 325/3/5 324/3/5 323/3/5
f 326/3/5 324/3/5 325/3/5
f 327/3/5 325/3/5 317/3/5
f 328/3/5 325/3/5 327/3/5
f 332/2/5 330/2/5 329/2/5
f 333/1/5 331/1/5 330/1/5
f 333/2/5 330/2/5 332/2/5
f 334/1/5 331/1/5 333/1/5
f 337/3/5 336/3/5 335/3/5
f 338/3/5 336/3/5 337/3/5
f 341/3/5 340/3/5 339/3/5
f 342/3/5 340/3/5 341/3/5
f 343/1/6 344/1/6 345/1/6
f 345/1/6 344/1/6 346/1/6
f 347/3/6 348/3/6 352/3/6
f 352/3/6 348/3/6 353/3/6
f 353/3/6 348/3/6 354/3/6
f 349/2/6 350/2/6 355/2/6
f 350/1/6 351/1/6 356/1/6
f 355/2/6 350/2/6 356/2/6
f 356/1/6 351/1/6 357/1/6
f 352/3/6 353/3/6 358/3/6
f 353/4/6 354/4/6 359/4/6
f 358/3/6 353/3/6 359/3/6
f 359/4/6 354/4/6 360/4/6
f 358/3/6 359/3/6 361/3/6
f 359/3/6 360/3/6 361/3/6
f 361/3/6 360/3/6 362/3/6
f 363/1/6 364/1/6 365/1/6
f 365/1/6 364/1/6 366/1/6
f 367/1/6 368/1/6 369/1/6
f 369/1/6 368/1/6 370/1/6
f 371/3/6 372/3/6 373/3/6
f 373/3/6 372/3/6 374/3/6
f 375/6/6 376/6/6 377/6/6
f 377/6/6 376/6/6 378/6/6
f 377/3/6 378/3/6 379/3/6
f 379/3/6 378/3/6 380/3/6
f 379/6/6 380/6/6 381/6/6
f 381/6/6 380/6/6 382/6/6
f 383/3/6 384/3/6 385/3/6
f 385/3/6 384/3/6 386/3/6
f 387/2/6 388/2/6 389/2/6
f 389/2/6 388/2/6 390/2/6
