# MagicaVoxel @ Ephtracy

# group
o 

# material
mtllib Decor-7.mtl
usemtl palette

# normals
vn -1 0 0
vn 1 0 0
vn 0 0 1
vn 0 0 -1
vn 0 -1 0
vn 0 1 0

# texcoords
vt 0.564453 0.5
vt 0.595703 0.5
vt 0.615234 0.5

# verts
v 17.3 0 12.7
v 17.3 0 12.4
v 17.3 0.1 12.7
v 17.3 0.1 12.4
v 17.3 2.6 12.8
v 17.3 2.6 12.6
v 17.3 2.7 12.7
v 17.3 2.7 12.6
v 17.3 2.9 12.8
v 17.3 2.9 12.7
v 17.3 2.9 12.6
v 17.4 0 12.8
v 17.4 0 12.7
v 17.4 0 12.4
v 17.4 0 12.3
v 17.4 0.1 12.8
v 17.4 0.1 12.7
v 17.4 0.1 12.6
v 17.4 0.1 12.5
v 17.4 0.1 12.4
v 17.4 0.1 12.3
v 17.4 0.2 12.6
v 17.4 0.2 12.5
v 17.4 2.5 12.8
v 17.4 2.5 12.6
v 17.4 2.6 12.8
v 17.4 2.6 12.6
v 17.4 2.6 12.5
v 17.4 2.7 12.6
v 17.4 2.9 12.8
v 17.4 2.9 12.7
v 17.4 2.9 12.6
v 17.4 2.9 12.5
v 17.4 3 12.8
v 17.4 3 12.7
v 17.4 3 12.6
v 17.5 0.1 12.7
v 17.5 0.1 12.6
v 17.5 0.1 12.5
v 17.5 0.1 12.4
v 17.5 0.2 12.7
v 17.5 0.2 12.6
v 17.5 0.2 12.5
v 17.5 0.2 12.4
v 17.5 1.1 12.6
v 17.5 1.1 12.5
v 17.5 2.5 12.6
v 17.5 2.6 12.6
v 17.5 2.6 12.5
v 17.5 2.7 12.8
v 17.5 2.7 12.7
v 17.5 2.7 12.5
v 17.5 2.7 12.4
v 17.5 2.8 12.8
v 17.5 2.8 12.7
v 17.5 2.8 12.5
v 17.5 2.8 12.4
v 17.7 2.6 12.8
v 17.7 2.6 12.7
v 17.7 2.8 12.8
v 17.7 2.8 12.7
v 17.7 2.9 12.8
v 17.7 2.9 12.7
v 17.4 2.6 12.8
v 17.4 2.6 12.7
v 17.4 2.8 12.7
v 17.4 2.9 12.8
v 17.4 2.9 12.7
v 17.6 0.1 12.7
v 17.6 0.1 12.6
v 17.6 0.1 12.5
v 17.6 0.1 12.4
v 17.6 0.2 12.7
v 17.6 0.2 12.6
v 17.6 0.2 12.5
v 17.6 0.2 12.4
v 17.6 1.1 12.6
v 17.6 1.1 12.5
v 17.6 2.5 12.6
v 17.6 2.6 12.6
v 17.6 2.6 12.5
v 17.6 2.7 12.8
v 17.6 2.7 12.7
v 17.6 2.7 12.5
v 17.6 2.7 12.4
v 17.6 2.8 12.8
v 17.6 2.8 12.7
v 17.6 2.8 12.5
v 17.6 2.8 12.4
v 17.7 0 12.8
v 17.7 0 12.7
v 17.7 0 12.4
v 17.7 0 12.3
v 17.7 0.1 12.8
v 17.7 0.1 12.7
v 17.7 0.1 12.6
v 17.7 0.1 12.5
v 17.7 0.1 12.4
v 17.7 0.1 12.3
v 17.7 0.2 12.6
v 17.7 0.2 12.5
v 17.7 2.5 12.8
v 17.7 2.5 12.7
v 17.7 2.5 12.6
v 17.7 2.6 12.8
v 17.7 2.6 12.7
v 17.7 2.6 12.6
v 17.7 2.6 12.5
v 17.7 2.8 12.6
v 17.7 2.8 12.5
v 17.7 2.9 12.8
v 17.7 2.9 12.6
v 17.7 2.9 12.5
v 17.7 3 12.8
v 17.7 3 12.6
v 17.8 0 12.7
v 17.8 0 12.4
v 17.8 0.1 12.7
v 17.8 0.1 12.4
v 17.8 2.6 12.8
v 17.8 2.6 12.7
v 17.8 2.6 12.6
v 17.8 2.8 12.8
v 17.8 2.8 12.7
v 17.8 2.9 12.8
v 17.8 2.9 12.6
v 17.3 2.6 12.8
v 17.3 2.9 12.8
v 17.4 0 12.8
v 17.4 0.1 12.8
v 17.4 2.5 12.8
v 17.4 2.6 12.8
v 17.4 2.9 12.8
v 17.4 3 12.8
v 17.5 2.5 12.8
v 17.5 2.6 12.8
v 17.5 2.7 12.8
v 17.5 2.8 12.8
v 17.6 2.7 12.8
v 17.6 2.8 12.8
v 17.7 0 12.8
v 17.7 0.1 12.8
v 17.7 2.5 12.8
v 17.7 2.6 12.8
v 17.7 2.8 12.8
v 17.7 2.9 12.8
v 17.7 3 12.8
v 17.8 2.6 12.8
v 17.8 2.8 12.8
v 17.8 2.9 12.8
v 17.3 0 12.7
v 17.3 0.1 12.7
v 17.4 0 12.7
v 17.4 0.1 12.7
v 17.4 2.6 12.7
v 17.4 2.8 12.7
v 17.4 2.9 12.7
v 17.5 0.1 12.7
v 17.5 0.2 12.7
v 17.5 2.6 12.7
v 17.5 2.7 12.7
v 17.5 2.8 12.7
v 17.5 2.9 12.7
v 17.6 0.1 12.7
v 17.6 0.2 12.7
v 17.6 2.7 12.7
v 17.6 2.8 12.7
v 17.7 0 12.7
v 17.7 0.1 12.7
v 17.7 2.6 12.7
v 17.7 2.8 12.7
v 17.7 2.9 12.7
v 17.8 0 12.7
v 17.8 0.1 12.7
v 17.4 0.1 12.6
v 17.4 0.2 12.6
v 17.5 0.1 12.6
v 17.5 0.2 12.6
v 17.5 1.1 12.6
v 17.5 2.5 12.6
v 17.6 0.1 12.6
v 17.6 0.2 12.6
v 17.6 1.1 12.6
v 17.6 2.5 12.6
v 17.7 0.1 12.6
v 17.7 0.2 12.6
v 17.3 2.6 12.6
v 17.3 2.7 12.6
v 17.3 2.9 12.6
v 17.4 2.5 12.6
v 17.4 2.6 12.6
v 17.4 2.7 12.6
v 17.4 2.9 12.6
v 17.4 3 12.6
v 17.5 2.5 12.6
v 17.5 2.6 12.6
v 17.6 2.5 12.6
v 17.6 2.6 12.6
v 17.6 2.9 12.6
v 17.6 3 12.6
v 17.7 2.5 12.6
v 17.7 2.6 12.6
v 17.7 2.8 12.6
v 17.7 2.9 12.6
v 17.7 3 12.6
v 17.8 2.6 12.6
v 17.8 2.9 12.6
v 17.4 0.1 12.5
v 17.4 0.2 12.5
v 17.4 2.6 12.5
v 17.4 2.9 12.5
v 17.5 0.1 12.5
v 17.5 0.2 12.5
v 17.5 1.1 12.5
v 17.5 2.6 12.5
v 17.5 2.7 12.5
v 17.5 2.8 12.5
v 17.6 0.1 12.5
v 17.6 0.2 12.5
v 17.6 1.1 12.5
v 17.6 2.6 12.5
v 17.6 2.7 12.5
v 17.6 2.8 12.5
v 17.7 0.1 12.5
v 17.7 0.2 12.5
v 17.7 2.6 12.5
v 17.7 2.8 12.5
v 17.7 2.9 12.5
v 17.3 0 12.4
v 17.3 0.1 12.4
v 17.4 0 12.4
v 17.4 0.1 12.4
v 17.5 0.1 12.4
v 17.5 0.2 12.4
v 17.5 2.7 12.4
v 17.5 2.8 12.4
v 17.6 0.1 12.4
v 17.6 0.2 12.4
v 17.6 2.7 12.4
v 17.6 2.8 12.4
v 17.7 0 12.4
v 17.7 0.1 12.4
v 17.8 0 12.4
v 17.8 0.1 12.4
v 17.4 0 12.3
v 17.4 0.1 12.3
v 17.7 0 12.3
v 17.7 0.1 12.3
v 17.4 0 12.8
v 17.7 0 12.8
v 17.3 0 12.7
v 17.4 0 12.7
v 17.7 0 12.7
v 17.8 0 12.7
v 17.3 0 12.4
v 17.4 0 12.4
v 17.7 0 12.4
v 17.8 0 12.4
v 17.4 0 12.3
v 17.7 0 12.3
v 17.4 2.5 12.8
v 17.5 2.5 12.8
v 17.7 2.5 12.8
v 17.5 2.5 12.7
v 17.7 2.5 12.7
v 17.4 2.5 12.6
v 17.5 2.5 12.6
v 17.6 2.5 12.6
v 17.7 2.5 12.6
v 17.3 2.6 12.8
v 17.4 2.6 12.8
v 17.7 2.6 12.8
v 17.8 2.6 12.8
v 17.7 2.6 12.7
v 17.8 2.6 12.7
v 17.3 2.6 12.6
v 17.4 2.6 12.6
v 17.5 2.6 12.6
v 17.6 2.6 12.6
v 17.7 2.6 12.6
v 17.8 2.6 12.6
v 17.4 2.6 12.5
v 17.5 2.6 12.5
v 17.6 2.6 12.5
v 17.7 2.6 12.5
v 17.5 2.7 12.8
v 17.6 2.7 12.8
v 17.5 2.7 12.7
v 17.6 2.7 12.7
v 17.5 2.7 12.5
v 17.6 2.7 12.5
v 17.5 2.7 12.4
v 17.6 2.7 12.4
v 17.4 2.9 12.8
v 17.7 2.9 12.8
v 17.4 2.9 12.7
v 17.5 2.9 12.7
v 17.7 2.9 12.7
v 17.4 0.1 12.8
v 17.7 0.1 12.8
v 17.3 0.1 12.7
v 17.4 0.1 12.7
v 17.5 0.1 12.7
v 17.6 0.1 12.7
v 17.7 0.1 12.7
v 17.8 0.1 12.7
v 17.4 0.1 12.6
v 17.5 0.1 12.6
v 17.6 0.1 12.6
v 17.7 0.1 12.6
v 17.4 0.1 12.5
v 17.5 0.1 12.5
v 17.6 0.1 12.5
v 17.7 0.1 12.5
v 17.3 0.1 12.4
v 17.4 0.1 12.4
v 17.5 0.1 12.4
v 17.6 0.1 12.4
v 17.7 0.1 12.4
v 17.8 0.1 12.4
v 17.4 0.1 12.3
v 17.7 0.1 12.3
v 17.5 0.2 12.7
v 17.6 0.2 12.7
v 17.4 0.2 12.6
v 17.5 0.2 12.6
v 17.6 0.2 12.6
v 17.7 0.2 12.6
v 17.4 0.2 12.5
v 17.5 0.2 12.5
v 17.6 0.2 12.5
v 17.7 0.2 12.5
v 17.5 0.2 12.4
v 17.6 0.2 12.4
v 17.4 2.6 12.8
v 17.5 2.6 12.8
v 17.7 2.6 12.8
v 17.4 2.6 12.7
v 17.5 2.6 12.7
v 17.7 2.6 12.7
v 17.5 2.8 12.8
v 17.6 2.8 12.8
v 17.5 2.8 12.7
v 17.6 2.8 12.7
v 17.5 2.8 12.5
v 17.6 2.8 12.5
v 17.5 2.8 12.4
v 17.6 2.8 12.4
v 17.3 2.9 12.8
v 17.4 2.9 12.8
v 17.7 2.9 12.8
v 17.8 2.9 12.8
v 17.3 2.9 12.7
v 17.4 2.9 12.7
v 17.3 2.9 12.6
v 17.4 2.9 12.6
v 17.6 2.9 12.6
v 17.7 2.9 12.6
v 17.8 2.9 12.6
v 17.4 2.9 12.5
v 17.7 2.9 12.5
v 17.4 3 12.8
v 17.7 3 12.8
v 17.4 3 12.7
v 17.6 3 12.7
v 17.4 3 12.6
v 17.6 3 12.6
v 17.7 3 12.6

# faces
f 3/1/1 2/1/1 1/1/1
f 4/1/1 2/1/1 3/1/1
f 7/1/1 6/1/1 5/1/1
f 8/1/1 6/1/1 7/1/1
f 9/1/1 7/1/1 5/1/1
f 10/2/1 8/2/1 7/2/1
f 10/1/1 7/1/1 9/1/1
f 11/2/1 8/2/1 10/2/1
f 16/1/1 13/1/1 12/1/1
f 17/1/1 13/1/1 16/1/1
f 20/1/1 15/1/1 14/1/1
f 21/1/1 15/1/1 20/1/1
f 22/2/1 19/2/1 18/2/1
f 23/2/1 19/2/1 22/2/1
f 26/1/1 25/1/1 24/1/1
f 27/1/1 25/1/1 26/1/1
f 29/1/1 28/1/1 27/1/1
f 32/1/1 28/1/1 29/1/1
f 33/1/1 28/1/1 32/1/1
f 34/1/1 31/1/1 30/1/1
f 35/2/1 32/2/1 31/2/1
f 35/1/1 31/1/1 34/1/1
f 36/2/1 32/2/1 35/2/1
f 41/2/1 38/2/1 37/2/1
f 42/2/1 38/2/1 41/2/1
f 43/2/1 40/2/1 39/2/1
f 44/2/1 40/2/1 43/2/1
f 45/2/1 43/2/1 42/2/1
f 46/2/1 43/2/1 45/2/1
f 47/1/1 46/1/1 45/1/1
f 48/1/1 46/1/1 47/1/1
f 49/1/1 46/1/1 48/1/1
f 54/3/1 51/3/1 50/3/1
f 55/3/1 51/3/1 54/3/1
f 56/1/1 53/1/1 52/1/1
f 57/1/1 53/1/1 56/1/1
f 60/2/1 59/2/1 58/2/1
f 61/2/1 59/2/1 60/2/1
f 62/1/1 61/1/1 60/1/1
f 63/1/1 61/1/1 62/1/1
f 64/1/2 65/1/2 66/1/2
f 64/1/2 66/1/2 67/1/2
f 67/1/2 66/1/2 68/1/2
f 69/2/2 70/2/2 73/2/2
f 73/2/2 70/2/2 74/2/2
f 71/2/2 72/2/2 75/2/2
f 75/2/2 72/2/2 76/2/2
f 74/2/2 75/2/2 77/2/2
f 77/2/2 75/2/2 78/2/2
f 77/1/2 78/1/2 79/1/2
f 79/1/2 78/1/2 80/1/2
f 80/1/2 78/1/2 81/1/2
f 82/3/2 83/3/2 86/3/2
f 86/3/2 83/3/2 87/3/2
f 84/1/2 85/1/2 88/1/2
f 88/1/2 85/1/2 89/1/2
f 90/1/2 91/1/2 94/1/2
f 94/1/2 91/1/2 95/1/2
f 92/1/2 93/1/2 98/1/2
f 98/1/2 93/1/2 99/1/2
f 96/2/2 97/2/2 100/2/2
f 100/2/2 97/2/2 101/2/2
f 102/2/2 103/2/2 105/2/2
f 103/1/2 104/1/2 106/1/2
f 105/2/2 103/2/2 106/2/2
f 106/1/2 104/1/2 107/1/2
f 107/2/2 108/2/2 109/2/2
f 109/2/2 108/2/2 110/2/2
f 109/1/2 110/1/2 112/1/2
f 112/1/2 110/1/2 113/1/2
f 111/1/2 112/1/2 114/1/2
f 114/1/2 112/1/2 115/1/2
f 116/1/2 117/1/2 118/1/2
f 118/1/2 117/1/2 119/1/2
f 120/2/2 121/2/2 123/2/2
f 121/1/2 122/1/2 124/1/2
f 123/2/2 121/2/2 124/2/2
f 123/1/2 124/1/2 125/1/2
f 124/1/2 122/1/2 126/1/2
f 125/1/2 124/1/2 126/1/2
f 132/1/3 128/1/3 127/1/3
f 133/1/3 128/1/3 132/1/3
f 135/1/3 132/1/3 131/1/3
f 136/1/3 132/1/3 135/1/3
f 139/3/3 138/3/3 137/3/3
f 140/3/3 138/3/3 139/3/3
f 141/1/3 130/1/3 129/1/3
f 142/1/3 130/1/3 141/1/3
f 143/2/3 136/2/3 135/2/3
f 144/2/3 136/2/3 143/2/3
f 146/1/3 134/1/3 133/1/3
f 147/1/3 134/1/3 146/1/3
f 148/2/3 145/2/3 144/2/3
f 149/1/3 146/1/3 145/1/3
f 149/2/3 145/2/3 148/2/3
f 150/1/3 146/1/3 149/1/3
f 153/1/3 152/1/3 151/1/3
f 154/1/3 152/1/3 153/1/3
f 160/1/3 156/1/3 155/1/3
f 161/1/3 156/1/3 160/1/3
f 162/2/3 157/2/3 156/2/3
f 162/1/3 156/1/3 161/1/3
f 163/2/3 157/2/3 162/2/3
f 164/2/3 159/2/3 158/2/3
f 165/2/3 159/2/3 164/2/3
f 166/1/3 161/1/3 160/1/3
f 167/1/3 163/1/3 162/1/3
f 170/1/3 167/1/3 166/1/3
f 170/1/3 166/1/3 160/1/3
f 171/1/3 163/1/3 167/1/3
f 171/1/3 167/1/3 170/1/3
f 172/1/3 163/1/3 171/1/3
f 173/1/3 169/1/3 168/1/3
f 174/1/3 169/1/3 173/1/3
f 177/2/3 176/2/3 175/2/3
f 178/2/3 176/2/3 177/2/3
f 182/2/3 179/2/3 178/2/3
f 183/1/3 180/1/3 179/1/3
f 183/2/3 179/2/3 182/2/3
f 184/1/3 180/1/3 183/1/3
f 185/2/3 182/2/3 181/2/3
f 186/2/3 182/2/3 185/2/3
f 187/1/4 188/1/4 191/1/4
f 188/2/4 189/2/4 192/2/4
f 191/1/4 188/1/4 192/1/4
f 192/2/4 189/2/4 193/2/4
f 190/1/4 191/1/4 195/1/4
f 195/1/4 191/1/4 196/1/4
f 193/2/4 194/2/4 199/2/4
f 199/2/4 194/2/4 200/2/4
f 197/1/4 198/1/4 201/1/4
f 201/1/4 198/1/4 202/1/4
f 199/1/4 200/1/4 204/1/4
f 204/1/4 200/1/4 205/1/4
f 202/1/4 203/1/4 206/1/4
f 203/1/4 204/1/4 206/1/4
f 206/1/4 204/1/4 207/1/4
f 208/2/4 209/2/4 212/2/4
f 212/2/4 209/2/4 213/2/4
f 210/1/4 211/1/4 215/1/4
f 215/1/4 211/1/4 216/1/4
f 216/1/4 211/1/4 217/1/4
f 213/2/4 214/2/4 219/2/4
f 214/1/4 215/1/4 220/1/4
f 219/2/4 214/2/4 220/2/4
f 215/2/4 216/2/4 221/2/4
f 220/1/4 215/1/4 221/1/4
f 221/2/4 216/2/4 222/2/4
f 217/1/4 211/1/4 223/1/4
f 218/2/4 219/2/4 224/2/4
f 224/2/4 219/2/4 225/2/4
f 222/2/4 223/2/4 226/2/4
f 221/2/4 222/2/4 226/2/4
f 223/1/4 211/1/4 227/1/4
f 226/2/4 223/2/4 227/2/4
f 227/1/4 211/1/4 228/1/4
f 229/1/4 230/1/4 231/1/4
f 231/1/4 230/1/4 232/1/4
f 233/2/4 234/2/4 237/2/4
f 237/2/4 234/2/4 238/2/4
f 235/1/4 236/1/4 239/1/4
f 239/1/4 236/1/4 240/1/4
f 241/1/4 242/1/4 243/1/4
f 243/1/4 242/1/4 244/1/4
f 245/1/4 246/1/4 247/1/4
f 247/1/4 246/1/4 248/1/4
f 252/1/5 250/1/5 249/1/5
f 253/1/5 250/1/5 252/1/5
f 255/1/5 252/1/5 251/1/5
f 255/1/5 254/1/5 253/1/5
f 255/1/5 253/1/5 252/1/5
f 256/1/5 254/1/5 255/1/5
f 257/1/5 254/1/5 256/1/5
f 258/1/5 254/1/5 257/1/5
f 259/1/5 257/1/5 256/1/5
f 260/1/5 257/1/5 259/1/5
f 264/1/5 262/1/5 261/1/5
f 264/2/5 263/2/5 262/2/5
f 265/2/5 263/2/5 264/2/5
f 266/1/5 264/1/5 261/1/5
f 266/1/5 265/1/5 264/1/5
f 267/1/5 265/1/5 266/1/5
f 268/1/5 265/1/5 267/1/5
f 269/1/5 265/1/5 268/1/5
f 274/2/5 273/2/5 272/2/5
f 275/2/5 273/2/5 274/2/5
f 276/1/5 271/1/5 270/1/5
f 277/1/5 271/1/5 276/1/5
f 280/1/5 275/1/5 274/1/5
f 281/1/5 275/1/5 280/1/5
f 282/1/5 278/1/5 277/1/5
f 283/1/5 278/1/5 282/1/5
f 284/2/5 280/2/5 279/2/5
f 285/2/5 280/2/5 284/2/5
f 288/3/5 287/3/5 286/3/5
f 289/3/5 287/3/5 288/3/5
f 292/1/5 291/1/5 290/1/5
f 293/1/5 291/1/5 292/1/5
f 296/1/5 295/1/5 294/1/5
f 297/1/5 295/1/5 296/1/5
f 298/1/5 295/1/5 297/1/5
f 299/1/6 300/1/6 302/1/6
f 302/1/6 300/1/6 303/1/6
f 303/1/6 300/1/6 304/1/6
f 304/1/6 300/1/6 305/1/6
f 301/1/6 302/1/6 307/1/6
f 302/1/6 303/1/6 307/1/6
f 307/1/6 303/1/6 308/1/6
f 305/1/6 306/1/6 309/1/6
f 304/1/6 305/1/6 309/1/6
f 309/1/6 306/1/6 310/1/6
f 301/1/6 307/1/6 311/1/6
f 310/1/6 306/1/6 314/1/6
f 311/1/6 312/1/6 315/1/6
f 301/1/6 311/1/6 315/1/6
f 315/1/6 312/1/6 316/1/6
f 316/1/6 312/1/6 317/1/6
f 313/1/6 314/1/6 318/1/6
f 314/1/6 306/1/6 319/1/6
f 318/1/6 314/1/6 319/1/6
f 319/1/6 306/1/6 320/1/6
f 316/1/6 317/1/6 321/1/6
f 317/1/6 318/1/6 321/1/6
f 318/1/6 319/1/6 321/1/6
f 321/1/6 319/1/6 322/1/6
f 323/2/6 324/2/6 326/2/6
f 326/2/6 324/2/6 327/2/6
f 325/2/6 326/2/6 329/2/6
f 329/2/6 326/2/6 330/2/6
f 327/2/6 328/2/6 331/2/6
f 331/2/6 328/2/6 332/2/6
f 330/2/6 331/2/6 333/2/6
f 333/2/6 331/2/6 334/2/6
f 335/1/6 336/1/6 338/1/6
f 336/2/6 337/2/6 339/2/6
f 338/1/6 336/1/6 339/1/6
f 339/2/6 337/2/6 340/2/6
f 341/3/6 342/3/6 343/3/6
f 343/3/6 342/3/6 344/3/6
f 345/1/6 346/1/6 347/1/6
f 347/1/6 346/1/6 348/1/6
f 349/1/6 350/1/6 353/1/6
f 353/1/6 350/1/6 354/1/6
f 353/2/6 354/2/6 355/2/6
f 355/2/6 354/2/6 356/2/6
f 351/1/6 352/1/6 358/1/6
f 358/1/6 352/1/6 359/1/6
f 356/1/6 357/1/6 360/1/6
f 357/1/6 358/1/6 360/1/6
f 360/1/6 358/1/6 361/1/6
f 362/1/6 363/1/6 364/1/6
f 364/1/6 363/1/6 365/1/6
f 364/2/6 365/2/6 366/2/6
f 365/1/6 363/1/6 367/1/6
f 366/2/6 365/2/6 367/2/6
f 367/1/6 363/1/6 368/1/6
