# MagicaVoxel @ Ephtracy

# group
o 

# material
mtllib Decor-6.mtl
usemtl palette

# normals
vn -1 0 0
vn 1 0 0
vn 0 0 1
vn 0 0 -1
vn 0 -1 0
vn 0 1 0

# texcoords
vt 0.564453 0.5
vt 0.568359 0.5
vt 0.572266 0.5
vt 0.630859 0.5

# verts
v 22.5 0.1 14.8
v 22.5 0.1 14.2
v 22.5 0.2 14.7
v 22.5 0.2 14.3
v 22.5 1.3 14.7
v 22.5 1.3 14.3
v 22.5 1.4 14.8
v 22.5 1.4 14.2
v 22.6 0.2 14.2
v 22.6 0.2 14
v 22.6 0.3 14.2
v 22.6 0.3 14.1
v 22.6 1.2 14.2
v 22.6 1.2 14.1
v 22.6 1.3 14.2
v 22.6 1.3 14
v 22.7 0.3 14
v 22.7 0.3 13.9
v 22.7 1.2 14
v 22.7 1.2 13.9
v 23.3 0.4 14
v 23.3 0.4 13.9
v 23.3 0.6 14
v 23.3 0.6 13.9
v 23.7 0.4 14
v 23.7 0.4 13.9
v 23.7 0.5 14
v 23.7 0.6 14
v 23.7 0.6 13.9
v 23.7 0.7 14
v 23.7 0.7 13.9
v 23.7 0.9 14
v 23.7 1 14
v 23.7 1 13.9
v 22.8 0.4 14
v 22.8 0.4 13.9
v 22.8 0.5 14
v 22.8 0.6 14
v 22.8 0.6 13.9
v 22.8 0.7 14
v 22.8 0.7 13.9
v 22.8 0.8 14
v 22.8 0.9 14
v 22.8 1 14
v 22.8 1 13.9
v 23.5 0.4 14
v 23.5 0.4 13.9
v 23.5 0.6 14
v 23.5 0.6 13.9
v 23.8 0.3 14
v 23.8 0.3 13.9
v 23.8 1.2 14
v 23.8 1.2 13.9
v 23.9 0.2 14.2
v 23.9 0.2 14
v 23.9 0.3 14.2
v 23.9 0.3 14.1
v 23.9 1.2 14.2
v 23.9 1.2 14.1
v 23.9 1.3 14.2
v 23.9 1.3 14
v 24 0.1 14.8
v 24 0.1 14.2
v 24 0.2 14.7
v 24 0.2 14.3
v 24 1.3 14.7
v 24 1.3 14.3
v 24 1.4 14.8
v 24 1.4 14.2
v 22.5 0.1 14.8
v 22.5 1.4 14.8
v 22.6 0.2 14.8
v 22.6 0.3 14.8
v 22.6 0.4 14.8
v 22.6 1.3 14.8
v 23 0.2 14.8
v 23 0.3 14.8
v 23.1 0.2 14.8
v 23.1 0.3 14.8
v 23.4 0.2 14.8
v 23.4 0.3 14.8
v 23.5 0.2 14.8
v 23.5 0.3 14.8
v 23.9 0.2 14.8
v 23.9 0.3 14.8
v 23.9 0.4 14.8
v 23.9 1.3 14.8
v 24 0.1 14.8
v 24 1.4 14.8
v 22.5 0.1 14.2
v 22.5 1.4 14.2
v 22.6 0.1 14.2
v 22.6 0.2 14.2
v 22.6 0.3 14.2
v 22.6 1.2 14.2
v 22.6 1.3 14.2
v 22.7 0.2 14.2
v 22.7 1.3 14.2
v 23.8 0.2 14.2
v 23.8 1.3 14.2
v 23.9 0.1 14.2
v 23.9 0.2 14.2
v 23.9 0.3 14.2
v 23.9 1.2 14.2
v 23.9 1.3 14.2
v 24 0.1 14.2
v 24 1.4 14.2
v 22.6 0.2 14
v 22.6 1.3 14
v 22.7 0.3 14
v 22.7 1.2 14
v 22.8 0.4 14
v 22.8 0.5 14
v 22.8 0.6 14
v 22.8 0.7 14
v 22.8 0.8 14
v 22.8 0.9 14
v 22.8 1 14
v 23 0.8 14
v 23 0.9 14
v 23.1 0.4 14
v 23.1 0.5 14
v 23.1 0.7 14
v 23.1 0.8 14
v 23.1 0.9 14
v 23.1 1 14
v 23.3 0.4 14
v 23.3 0.6 14
v 23.3 0.7 14
v 23.3 0.8 14
v 23.3 0.9 14
v 23.3 1 14
v 23.5 0.4 14
v 23.5 0.6 14
v 23.5 0.7 14
v 23.5 0.8 14
v 23.5 0.9 14
v 23.5 1 14
v 23.6 0.4 14
v 23.6 0.5 14
v 23.6 0.7 14
v 23.6 0.8 14
v 23.7 0.4 14
v 23.7 0.5 14
v 23.7 0.6 14
v 23.7 0.7 14
v 23.7 0.9 14
v 23.7 1 14
v 23.8 0.3 14
v 23.8 1.2 14
v 23.9 0.2 14
v 23.9 1.3 14
v 22.7 0.3 13.9
v 22.7 1.2 13.9
v 22.8 0.4 13.9
v 22.8 0.6 13.9
v 22.8 0.7 13.9
v 22.8 1 13.9
v 23.3 0.4 13.9
v 23.3 0.6 13.9
v 23.5 0.4 13.9
v 23.5 0.6 13.9
v 23.7 0.4 13.9
v 23.7 0.6 13.9
v 23.7 0.7 13.9
v 23.7 1 13.9
v 23.8 0.3 13.9
v 23.8 1.2 13.9
v 22.5 0.1 14.8
v 24 0.1 14.8
v 22.6 0.1 14.7
v 23.9 0.1 14.7
v 22.5 0.1 14.2
v 22.6 0.1 14.2
v 23.9 0.1 14.2
v 24 0.1 14.2
v 22.6 0.2 14.2
v 22.7 0.2 14.2
v 23.8 0.2 14.2
v 23.9 0.2 14.2
v 22.7 0.2 14.1
v 23.8 0.2 14.1
v 22.6 0.2 14
v 23.9 0.2 14
v 22.7 0.3 14
v 23.8 0.3 14
v 22.7 0.3 13.9
v 23.8 0.3 13.9
v 22.8 0.6 14
v 23.3 0.6 14
v 23.5 0.6 14
v 23.7 0.6 14
v 22.8 0.6 13.9
v 23.3 0.6 13.9
v 23.5 0.6 13.9
v 23.7 0.6 13.9
v 22.8 1 14
v 23.1 1 14
v 23.3 1 14
v 23.5 1 14
v 23.7 1 14
v 22.8 1 13.9
v 23.7 1 13.9
v 22.8 0.4 14
v 23.1 0.4 14
v 23.3 0.4 14
v 23.5 0.4 14
v 23.6 0.4 14
v 23.7 0.4 14
v 22.8 0.4 13.9
v 23.3 0.4 13.9
v 23.5 0.4 13.9
v 23.7 0.4 13.9
v 22.8 0.7 14
v 23.1 0.7 14
v 23.3 0.7 14
v 23.5 0.7 14
v 23.6 0.7 14
v 23.7 0.7 14
v 22.8 0.7 13.9
v 23.7 0.7 13.9
v 22.7 1.2 14
v 23.8 1.2 14
v 22.7 1.2 13.9
v 23.8 1.2 13.9
v 22.6 1.3 14.2
v 22.7 1.3 14.2
v 23.8 1.3 14.2
v 23.9 1.3 14.2
v 22.7 1.3 14.1
v 23.8 1.3 14.1
v 22.6 1.3 14
v 23.9 1.3 14
v 22.5 1.4 14.8
v 24 1.4 14.8
v 22.6 1.4 14.7
v 23.9 1.4 14.7
v 22.6 1.4 14.3
v 23.9 1.4 14.3
v 22.5 1.4 14.2
v 24 1.4 14.2

# faces
f 3/2/1 2/2/1 1/2/1
f 4/2/1 2/2/1 3/2/1
f 5/2/1 3/2/1 1/2/1
f 5/1/1 4/1/1 3/1/1
f 6/2/1 2/2/1 4/2/1
f 6/1/1 4/1/1 5/1/1
f 7/2/1 5/2/1 1/2/1
f 7/2/1 6/2/1 5/2/1
f 8/2/1 2/2/1 6/2/1
f 8/2/1 6/2/1 7/2/1
f 11/2/1 10/2/1 9/2/1
f 12/2/1 10/2/1 11/2/1
f 13/1/1 12/1/1 11/1/1
f 14/2/1 10/2/1 12/2/1
f 14/1/1 12/1/1 13/1/1
f 15/2/1 14/2/1 13/2/1
f 16/2/1 10/2/1 14/2/1
f 16/2/1 14/2/1 15/2/1
f 19/2/1 18/2/1 17/2/1
f 20/2/1 18/2/1 19/2/1
f 23/1/1 22/1/1 21/1/1
f 24/1/1 22/1/1 23/1/1
f 27/2/1 26/2/1 25/2/1
f 28/2/1 26/2/1 27/2/1
f 29/2/1 26/2/1 28/2/1
f 32/2/1 31/2/1 30/2/1
f 33/2/1 31/2/1 32/2/1
f 34/2/1 31/2/1 33/2/1
f 35/2/2 36/2/2 37/2/2
f 37/2/2 36/2/2 38/2/2
f 38/2/2 36/2/2 39/2/2
f 40/2/2 41/2/2 42/2/2
f 42/2/2 41/2/2 43/2/2
f 43/2/2 41/2/2 44/2/2
f 44/2/2 41/2/2 45/2/2
f 46/1/2 47/1/2 48/1/2
f 48/1/2 47/1/2 49/1/2
f 50/2/2 51/2/2 52/2/2
f 52/2/2 51/2/2 53/2/2
f 54/2/2 55/2/2 56/2/2
f 56/2/2 55/2/2 57/2/2
f 56/1/2 57/1/2 58/1/2
f 57/2/2 55/2/2 59/2/2
f 58/1/2 57/1/2 59/1/2
f 58/2/2 59/2/2 60/2/2
f 59/2/2 55/2/2 61/2/2
f 60/2/2 59/2/2 61/2/2
f 62/2/2 63/2/2 64/2/2
f 64/2/2 63/2/2 65/2/2
f 62/2/2 64/2/2 66/2/2
f 64/1/2 65/1/2 66/1/2
f 65/2/2 63/2/2 67/2/2
f 66/1/2 65/1/2 67/1/2
f 62/2/2 66/2/2 68/2/2
f 66/2/2 67/2/2 68/2/2
f 67/2/2 63/2/2 69/2/2
f 68/2/2 67/2/2 69/2/2
f 72/2/3 71/2/3 70/2/3
f 73/2/3 71/2/3 72/2/3
f 74/2/3 71/2/3 73/2/3
f 75/2/3 71/2/3 74/2/3
f 76/2/3 72/2/3 70/2/3
f 76/1/3 73/1/3 72/1/3
f 77/2/3 74/2/3 73/2/3
f 77/1/3 73/1/3 76/1/3
f 78/2/3 76/2/3 70/2/3
f 78/2/3 77/2/3 76/2/3
f 79/2/3 74/2/3 77/2/3
f 79/2/3 77/2/3 78/2/3
f 80/2/3 78/2/3 70/2/3
f 80/3/3 79/3/3 78/3/3
f 81/2/3 74/2/3 79/2/3
f 81/3/3 79/3/3 80/3/3
f 82/2/3 80/2/3 70/2/3
f 82/2/3 81/2/3 80/2/3
f 83/2/3 74/2/3 81/2/3
f 83/2/3 81/2/3 82/2/3
f 84/2/3 82/2/3 70/2/3
f 84/1/3 83/1/3 82/1/3
f 85/2/3 74/2/3 83/2/3
f 85/1/3 83/1/3 84/1/3
f 86/4/3 75/4/3 74/4/3
f 86/2/3 74/2/3 85/2/3
f 87/2/3 71/2/3 75/2/3
f 87/4/3 75/4/3 86/4/3
f 88/2/3 86/2/3 85/2/3
f 88/2/3 85/2/3 84/2/3
f 88/2/3 87/2/3 86/2/3
f 88/2/3 84/2/3 70/2/3
f 89/2/3 71/2/3 87/2/3
f 89/2/3 87/2/3 88/2/3
f 90/2/4 91/2/4 92/2/4
f 92/2/4 91/2/4 93/2/4
f 93/2/4 91/2/4 94/2/4
f 94/2/4 91/2/4 95/2/4
f 95/2/4 91/2/4 96/2/4
f 92/1/4 93/1/4 97/1/4
f 96/2/4 91/2/4 98/2/4
f 92/1/4 97/1/4 99/1/4
f 98/2/4 91/2/4 100/2/4
f 92/1/4 99/1/4 101/1/4
f 101/1/4 99/1/4 102/1/4
f 100/2/4 91/2/4 105/2/4
f 103/2/4 104/2/4 106/2/4
f 104/2/4 105/2/4 106/2/4
f 101/2/4 102/2/4 106/2/4
f 102/2/4 103/2/4 106/2/4
f 105/2/4 91/2/4 107/2/4
f 106/2/4 105/2/4 107/2/4
f 108/2/4 109/2/4 110/2/4
f 110/2/4 109/2/4 111/2/4
f 115/3/4 116/3/4 119/3/4
f 116/1/4 117/1/4 119/1/4
f 117/3/4 118/3/4 120/3/4
f 119/1/4 117/1/4 120/1/4
f 112/3/4 113/3/4 121/3/4
f 113/1/4 114/1/4 122/1/4
f 121/3/4 113/3/4 122/3/4
f 115/3/4 119/3/4 123/3/4
f 119/3/4 120/3/4 123/3/4
f 123/3/4 120/3/4 124/3/4
f 120/3/4 118/3/4 125/3/4
f 124/3/4 120/3/4 125/3/4
f 125/3/4 118/3/4 126/3/4
f 121/1/4 122/1/4 127/1/4
f 122/1/4 114/1/4 128/1/4
f 127/1/4 122/1/4 128/1/4
f 123/1/4 124/1/4 129/1/4
f 124/3/4 125/3/4 130/3/4
f 129/1/4 124/1/4 130/1/4
f 125/1/4 126/1/4 131/1/4
f 130/3/4 125/3/4 131/3/4
f 131/1/4 126/1/4 132/1/4
f 129/3/4 130/3/4 135/3/4
f 130/1/4 131/1/4 136/1/4
f 135/3/4 130/3/4 136/3/4
f 131/3/4 132/3/4 137/3/4
f 136/1/4 131/1/4 137/1/4
f 137/3/4 132/3/4 138/3/4
f 133/3/4 134/3/4 139/3/4
f 139/3/4 134/3/4 140/3/4
f 135/1/4 136/1/4 141/1/4
f 136/3/4 137/3/4 142/3/4
f 141/1/4 136/1/4 142/1/4
f 139/1/4 140/1/4 143/1/4
f 140/3/4 134/3/4 144/3/4
f 143/1/4 140/1/4 144/1/4
f 144/3/4 134/3/4 145/3/4
f 141/3/4 142/3/4 146/3/4
f 137/1/4 138/1/4 147/1/4
f 146/3/4 142/3/4 147/3/4
f 142/3/4 137/3/4 147/3/4
f 147/1/4 138/1/4 148/1/4
f 108/2/4 110/2/4 149/2/4
f 111/2/4 109/2/4 150/2/4
f 108/2/4 149/2/4 151/2/4
f 149/2/4 150/2/4 151/2/4
f 150/2/4 109/2/4 152/2/4
f 151/2/4 150/2/4 152/2/4
f 153/2/4 154/2/4 155/2/4
f 155/2/4 154/2/4 156/2/4
f 156/2/4 154/2/4 157/2/4
f 157/2/4 154/2/4 158/2/4
f 153/2/4 155/2/4 159/2/4
f 156/1/4 157/1/4 160/1/4
f 153/2/4 159/2/4 161/2/4
f 159/1/4 160/1/4 161/1/4
f 160/1/4 157/1/4 162/1/4
f 161/1/4 160/1/4 162/1/4
f 153/2/4 161/2/4 163/2/4
f 162/1/4 157/1/4 164/1/4
f 164/1/4 157/1/4 165/1/4
f 158/2/4 154/2/4 166/2/4
f 164/2/4 165/2/4 167/2/4
f 165/2/4 166/2/4 167/2/4
f 153/2/4 163/2/4 167/2/4
f 163/2/4 164/2/4 167/2/4
f 166/2/4 154/2/4 168/2/4
f 167/2/4 166/2/4 168/2/4
f 171/2/5 170/2/5 169/2/5
f 172/2/5 170/2/5 171/2/5
f 173/2/5 171/2/5 169/2/5
f 174/1/5 172/1/5 171/1/5
f 174/2/5 171/2/5 173/2/5
f 175/2/5 170/2/5 172/2/5
f 175/1/5 172/1/5 174/1/5
f 176/2/5 170/2/5 175/2/5
f 181/2/5 178/2/5 177/2/5
f 181/1/5 179/1/5 178/1/5
f 182/2/5 180/2/5 179/2/5
f 182/1/5 179/1/5 181/1/5
f 183/2/5 181/2/5 177/2/5
f 183/2/5 182/2/5 181/2/5
f 184/2/5 180/2/5 182/2/5
f 184/2/5 182/2/5 183/2/5
f 187/2/5 186/2/5 185/2/5
f 188/2/5 186/2/5 187/2/5
f 193/1/5 190/1/5 189/1/5
f 194/1/5 190/1/5 193/1/5
f 195/1/5 192/1/5 191/1/5
f 196/1/5 192/1/5 195/1/5
f 202/2/5 198/2/5 197/2/5
f 202/2/5 201/2/5 200/2/5
f 202/2/5 200/2/5 199/2/5
f 202/2/5 199/2/5 198/2/5
f 203/2/5 201/2/5 202/2/5
f 204/2/6 205/2/6 210/2/6
f 205/2/6 206/2/6 210/2/6
f 210/2/6 206/2/6 211/2/6
f 208/2/6 209/2/6 212/2/6
f 207/2/6 208/2/6 212/2/6
f 212/2/6 209/2/6 213/2/6
f 214/1/6 215/1/6 220/1/6
f 218/1/6 219/1/6 220/1/6
f 217/1/6 218/1/6 220/1/6
f 216/1/6 217/1/6 220/1/6
f 215/1/6 216/1/6 220/1/6
f 220/1/6 219/1/6 221/1/6
f 222/2/6 223/2/6 224/2/6
f 224/2/6 223/2/6 225/2/6
f 226/2/6 227/2/6 230/2/6
f 227/1/6 228/1/6 230/1/6
f 228/2/6 229/2/6 231/2/6
f 230/1/6 228/1/6 231/1/6
f 226/2/6 230/2/6 232/2/6
f 230/2/6 231/2/6 232/2/6
f 231/2/6 229/2/6 233/2/6
f 232/2/6 231/2/6 233/2/6
f 234/2/6 235/2/6 236/2/6
f 236/2/6 235/2/6 237/2/6
f 234/2/6 236/2/6 238/2/6
f 236/1/6 237/1/6 238/1/6
f 237/2/6 235/2/6 239/2/6
f 238/1/6 237/1/6 239/1/6
f 234/2/6 238/2/6 240/2/6
f 238/2/6 239/2/6 240/2/6
f 239/2/6 235/2/6 241/2/6
f 240/2/6 239/2/6 241/2/6
