# MagicaVoxel @ Ephtracy

# group
o 

# material
mtllib Decor-8.mtl
usemtl palette

# normals
vn -1 0 0
vn 1 0 0
vn 0 0 1
vn 0 0 -1
vn 0 -1 0
vn 0 1 0

# texcoords
vt 0.595703 0.5
vt 0.630859 0.5
vt 0.634766 0.5

# verts
v 21.8 0 14.1
v 21.8 0 13.9
v 21.8 0.7 14.1
v 21.8 0.7 14
v 21.8 0.7 13.9
v 21.8 0.9 14.1
v 21.8 0.9 14
v 21.9 0.7 14.1
v 21.9 0.7 14
v 21.9 0.9 14.1
v 21.9 0.9 14
v 22.2 0 14.1
v 22.2 0 13.9
v 22.2 0.7 14.1
v 22.2 0.7 13.9
v 21.8 0 14.1
v 21.8 0.7 14.1
v 21.8 0.9 14.1
v 21.9 0.1 14.1
v 21.9 0.6 14.1
v 21.9 0.7 14.1
v 21.9 0.9 14.1
v 22.1 0.1 14.1
v 22.1 0.6 14.1
v 22.2 0 14.1
v 22.2 0.7 14.1
v 21.8 0.7 14
v 21.8 0.9 14
v 21.9 0.7 14
v 21.9 0.9 14
v 21.8 0 13.9
v 21.8 0.7 13.9
v 22.2 0 13.9
v 22.2 0.7 13.9
v 21.8 0 14.1
v 22.2 0 14.1
v 21.8 0 13.9
v 22.2 0 13.9
v 21.9 0.7 14.1
v 22.2 0.7 14.1
v 21.8 0.7 14
v 21.9 0.7 14
v 21.8 0.7 13.9
v 22.2 0.7 13.9
v 21.8 0.9 14.1
v 21.9 0.9 14.1
v 21.8 0.9 14
v 21.9 0.9 14

# faces
f 3/1/1 2/1/1 1/1/1
f 4/1/1 2/1/1 3/1/1
f 5/1/1 2/1/1 4/1/1
f 6/3/1 4/3/1 3/3/1
f 7/3/1 4/3/1 6/3/1
f 8/3/2 9/3/2 10/3/2
f 10/3/2 9/3/2 11/3/2
f 12/1/2 13/1/2 14/1/2
f 14/1/2 13/1/2 15/1/2
f 19/1/3 17/1/3 16/1/3
f 20/1/3 17/1/3 19/1/3
f 21/3/3 18/3/3 17/3/3
f 21/1/3 17/1/3 20/1/3
f 22/3/3 18/3/3 21/3/3
f 23/2/3 20/2/3 19/2/3
f 23/1/3 19/1/3 16/1/3
f 24/1/3 21/1/3 20/1/3
f 24/2/3 20/2/3 23/2/3
f 25/1/3 23/1/3 16/1/3
f 25/1/3 24/1/3 23/1/3
f 26/1/3 21/1/3 24/1/3
f 26/1/3 24/1/3 25/1/3
f 27/3/4 28/3/4 29/3/4
f 29/3/4 28/3/4 30/3/4
f 31/1/4 32/1/4 33/1/4
f 33/1/4 32/1/4 34/1/4
f 37/1/5 36/1/5 35/1/5
f 38/1/5 36/1/5 37/1/5
f 39/1/6 40/1/6 42/1/6
f 41/1/6 42/1/6 43/1/6
f 42/1/6 40/1/6 44/1/6
f 43/1/6 42/1/6 44/1/6
f 45/3/6 46/3/6 47/3/6
f 47/3/6 46/3/6 48/3/6
