# MagicaVoxel @ Ephtracy

# group
o 

# material
mtllib Animals-38.mtl
usemtl palette

# normals
vn -1 0 0
vn 1 0 0
vn 0 0 1
vn 0 0 -1
vn 0 -1 0
vn 0 1 0

# texcoords
vt 0.908203 0.5
vt 0.912109 0.5
vt 0.916016 0.5
vt 0.919922 0.5
vt 0.955078 0.5
vt 0.978516 0.5

# verts
v 1 1.4 12.1
v 1 1.4 11.2
v 1 1.8 12.1
v 1 1.8 11.9
v 1 1.8 11.6
v 1 1.8 11.5
v 1 1.9 11.8
v 1 1.9 11.6
v 1 1.9 11.5
v 1 1.9 11.4
v 1 2 12
v 1 2 11.9
v 1 2 11.8
v 1 2 11.6
v 1 2.1 12.1
v 1 2.1 12
v 1 2.1 11.6
v 1 2.1 11.5
v 1 2.2 12.1
v 1 2.2 11.5
v 1 2.2 11.4
v 1 2.2 11.2
v 1.3 2 12.2
v 1.3 2 12.1
v 1.3 2 11.2
v 1.3 2 11.1
v 1.3 2.1 12.1
v 1.3 2.2 12.2
v 1.3 2.2 12.1
v 1.3 2.2 12
v 1.3 2.2 11.9
v 1.3 2.2 11.4
v 1.3 2.2 11.2
v 1.3 2.3 12.2
v 1.3 2.3 12
v 1.3 2.3 11.9
v 1.3 2.3 11.4
v 1.3 2.3 11.2
v 1.3 2.3 11.1
v 1.4 2 12.2
v 1.4 2 12.1
v 1.4 2 11.2
v 1.4 2 11.1
v 1.4 2.2 12.2
v 1.4 2.2 12.1
v 1.4 2.2 12
v 1.4 2.2 11.9
v 1.4 2.2 11.4
v 1.4 2.2 11.2
v 1.4 2.3 12.2
v 1.4 2.3 12
v 1.4 2.3 11.9
v 1.4 2.3 11.4
v 1.4 2.3 11.2
v 1.4 2.3 11.1
v 1.7 1.4 12.1
v 1.7 1.4 11.3
v 1.7 1.4 11.2
v 1.7 1.5 11.9
v 1.7 1.5 11.4
v 1.7 1.6 11.8
v 1.7 1.6 11.7
v 1.7 1.6 11.6
v 1.7 1.6 11.5
v 1.7 1.6 11.3
v 1.7 1.6 11.2
v 1.7 1.7 11.8
v 1.7 1.7 11.7
v 1.7 1.7 11.6
v 1.7 1.7 11.5
v 1.7 1.8 11.9
v 1.7 1.8 11.7
v 1.7 1.8 11.6
v 1.7 1.8 11.4
v 1.7 1.9 11.9
v 1.7 1.9 11.8
v 1.7 1.9 11.6
v 1.7 1.9 11.5
v 1.7 2 11.8
v 1.7 2 11.7
v 1.7 2 11.5
v 1.7 2 11.4
v 1.7 2.1 11.9
v 1.7 2.1 11.7
v 1.7 2.1 11.6
v 1.7 2.1 11.4
v 1.7 2.2 12.1
v 1.7 2.2 11.2
v 1.8 1.5 11.9
v 1.8 1.5 11.4
v 1.8 1.6 11.8
v 1.8 1.6 11.7
v 1.8 1.6 11.6
v 1.8 1.6 11.5
v 1.8 1.7 11.8
v 1.8 1.7 11.7
v 1.8 1.7 11.6
v 1.8 1.7 11.5
v 1.8 1.8 11.9
v 1.8 1.8 11.4
v 1.3 2 12.2
v 1.3 2.2 12.2
v 1.3 2.3 12.2
v 1.4 2 12.2
v 1.4 2.2 12.2
v 1.4 2.3 12.2
v 1 1.4 12.1
v 1 1.8 12.1
v 1 2.1 12.1
v 1 2.2 12.1
v 1.1 1.6 12.1
v 1.1 1.7 12.1
v 1.2 1.5 12.1
v 1.2 1.6 12.1
v 1.3 1.8 12.1
v 1.3 2 12.1
v 1.3 2.1 12.1
v 1.3 2.2 12.1
v 1.4 1.5 12.1
v 1.4 1.7 12.1
v 1.4 1.9 12.1
v 1.4 2 12.1
v 1.4 2.2 12.1
v 1.5 1.4 12.1
v 1.5 1.5 12.1
v 1.6 1.4 12.1
v 1.6 1.5 12.1
v 1.6 1.7 12.1
v 1.6 1.9 12.1
v 1.7 1.4 12.1
v 1.7 2.2 12.1
v 1.7 1.5 11.9
v 1.7 1.8 11.9
v 1.8 1.5 11.9
v 1.8 1.8 11.9
v 1.7 1.6 11.7
v 1.7 1.7 11.7
v 1.8 1.6 11.7
v 1.8 1.7 11.7
v 1.7 1.6 11.5
v 1.7 1.7 11.5
v 1.8 1.6 11.5
v 1.8 1.7 11.5
v 1.3 2.2 11.4
v 1.3 2.3 11.4
v 1.4 2.2 11.4
v 1.4 2.3 11.4
v 1.3 2.2 11.9
v 1.3 2.3 11.9
v 1.4 2.2 11.9
v 1.4 2.3 11.9
v 1.7 1.6 11.8
v 1.7 1.7 11.8
v 1.8 1.6 11.8
v 1.8 1.7 11.8
v 1.7 1.6 11.6
v 1.7 1.7 11.6
v 1.8 1.6 11.6
v 1.8 1.7 11.6
v 1.7 1.5 11.4
v 1.7 1.8 11.4
v 1.8 1.5 11.4
v 1.8 1.8 11.4
v 1 1.4 11.2
v 1 2.2 11.2
v 1.3 1.5 11.2
v 1.3 1.8 11.2
v 1.3 2 11.2
v 1.3 2.2 11.2
v 1.4 1.4 11.2
v 1.4 1.5 11.2
v 1.4 1.6 11.2
v 1.4 2 11.2
v 1.4 2.2 11.2
v 1.5 1.6 11.2
v 1.5 1.8 11.2
v 1.6 1.5 11.2
v 1.6 1.6 11.2
v 1.7 1.4 11.2
v 1.7 1.6 11.2
v 1.7 2.2 11.2
v 1.3 2 11.1
v 1.3 2.3 11.1
v 1.4 2 11.1
v 1.4 2.3 11.1
v 1 1.4 12.1
v 1.5 1.4 12.1
v 1.6 1.4 12.1
v 1.7 1.4 12.1
v 1.5 1.4 12
v 1.6 1.4 12
v 1.4 1.4 11.3
v 1.7 1.4 11.3
v 1 1.4 11.2
v 1.4 1.4 11.2
v 1.7 1.4 11.2
v 1.7 1.5 11.9
v 1.8 1.5 11.9
v 1.7 1.5 11.4
v 1.8 1.5 11.4
v 1.7 1.7 11.8
v 1.8 1.7 11.8
v 1.7 1.7 11.7
v 1.8 1.7 11.7
v 1.7 1.7 11.6
v 1.8 1.7 11.6
v 1.7 1.7 11.5
v 1.8 1.7 11.5
v 1.3 2 12.2
v 1.4 2 12.2
v 1.3 2 12.1
v 1.4 2 12.1
v 1.3 2 11.2
v 1.4 2 11.2
v 1.3 2 11.1
v 1.4 2 11.1
v 1.7 1.6 11.8
v 1.8 1.6 11.8
v 1.7 1.6 11.7
v 1.8 1.6 11.7
v 1.7 1.6 11.6
v 1.8 1.6 11.6
v 1.7 1.6 11.5
v 1.8 1.6 11.5
v 1.7 1.8 11.9
v 1.8 1.8 11.9
v 1.7 1.8 11.7
v 1.7 1.8 11.6
v 1.7 1.8 11.4
v 1.8 1.8 11.4
v 1 2.2 12.1
v 1.3 2.2 12.1
v 1.4 2.2 12.1
v 1.7 2.2 12.1
v 1.1 2.2 12
v 1.3 2.2 12
v 1.4 2.2 12
v 1.2 2.2 11.9
v 1.3 2.2 11.9
v 1.4 2.2 11.9
v 1.1 2.2 11.8
v 1.2 2.2 11.8
v 1.4 2.2 11.8
v 1.5 2.2 11.8
v 1.1 2.2 11.7
v 1.2 2.2 11.7
v 1.3 2.2 11.7
v 1.4 2.2 11.7
v 1.4 2.2 11.6
v 1.5 2.2 11.6
v 1 2.2 11.5
v 1.1 2.2 11.5
v 1.3 2.2 11.5
v 1.4 2.2 11.5
v 1 2.2 11.4
v 1.2 2.2 11.4
v 1.3 2.2 11.4
v 1.4 2.2 11.4
v 1 2.2 11.2
v 1.3 2.2 11.2
v 1.4 2.2 11.2
v 1.7 2.2 11.2
v 1.3 2.3 12.2
v 1.4 2.3 12.2
v 1.3 2.3 12
v 1.4 2.3 12
v 1.3 2.3 11.9
v 1.4 2.3 11.9
v 1.3 2.3 11.4
v 1.4 2.3 11.4
v 1.3 2.3 11.2
v 1.4 2.3 11.2
v 1.3 2.3 11.1
v 1.4 2.3 11.1

# faces
f 3/1/1 2/1/1 1/1/1
f 4/1/1 2/1/1 3/1/1
f 5/1/1 2/1/1 4/1/1
f 6/1/1 2/1/1 5/1/1
f 7/1/1 5/1/1 4/1/1
f 8/4/1 6/4/1 5/4/1
f 8/1/1 5/1/1 7/1/1
f 9/1/1 2/1/1 6/1/1
f 9/4/1 6/4/1 8/4/1
f 10/1/1 2/1/1 9/1/1
f 11/4/1 4/4/1 3/4/1
f 12/1/1 7/1/1 4/1/1
f 12/4/1 4/4/1 11/4/1
f 13/4/1 8/4/1 7/4/1
f 13/1/1 7/1/1 12/1/1
f 13/4/1 9/4/1 8/4/1
f 13/4/1 10/4/1 9/4/1
f 14/4/1 10/4/1 13/4/1
f 15/4/1 11/4/1 3/4/1
f 16/1/1 12/1/1 11/1/1
f 16/4/1 11/4/1 15/4/1
f 16/1/1 13/1/1 12/1/1
f 16/1/1 14/1/1 13/1/1
f 17/4/1 10/4/1 14/4/1
f 17/1/1 14/1/1 16/1/1
f 18/4/1 10/4/1 17/4/1
f 19/1/1 16/1/1 15/1/1
f 19/1/1 17/1/1 16/1/1
f 19/1/1 18/1/1 17/1/1
f 20/4/1 10/4/1 18/4/1
f 20/1/1 18/1/1 19/1/1
f 21/1/1 2/1/1 10/1/1
f 21/4/1 10/4/1 20/4/1
f 22/1/1 2/1/1 21/1/1
f 27/1/1 24/1/1 23/1/1
f 28/1/1 27/1/1 23/1/1
f 29/1/1 27/1/1 28/1/1
f 33/1/1 26/1/1 25/1/1
f 34/4/1 29/4/1 28/4/1
f 34/4/1 30/4/1 29/4/1
f 35/1/1 31/1/1 30/1/1
f 35/4/1 30/4/1 34/4/1
f 36/1/1 31/1/1 35/1/1
f 37/4/1 33/4/1 32/4/1
f 38/1/1 26/1/1 33/1/1
f 38/4/1 33/4/1 37/4/1
f 39/1/1 26/1/1 38/1/1
f 40/1/2 41/1/2 44/1/2
f 44/1/2 41/1/2 45/1/2
f 42/1/2 43/1/2 49/1/2
f 44/4/2 45/4/2 50/4/2
f 45/4/2 46/4/2 50/4/2
f 46/1/2 47/1/2 51/1/2
f 50/4/2 46/4/2 51/4/2
f 51/1/2 47/1/2 52/1/2
f 48/4/2 49/4/2 53/4/2
f 49/1/2 43/1/2 54/1/2
f 53/4/2 49/4/2 54/4/2
f 54/1/2 43/1/2 55/1/2
f 56/1/2 57/1/2 59/1/2
f 59/1/2 57/1/2 60/1/2
f 57/4/2 58/4/2 65/4/2
f 60/1/2 57/1/2 65/1/2
f 65/4/2 58/4/2 66/4/2
f 61/3/2 62/3/2 67/3/2
f 67/3/2 62/3/2 68/3/2
f 63/3/2 64/3/2 69/3/2
f 69/3/2 64/3/2 70/3/2
f 56/1/2 59/1/2 71/1/2
f 60/1/2 65/1/2 74/1/2
f 65/1/2 66/1/2 74/1/2
f 71/6/2 72/6/2 75/6/2
f 56/1/2 71/1/2 75/1/2
f 75/6/2 72/6/2 76/6/2
f 72/1/2 73/1/2 77/1/2
f 73/6/2 74/6/2 77/6/2
f 77/6/2 74/6/2 78/6/2
f 76/6/2 72/6/2 79/6/2
f 75/5/2 76/5/2 79/5/2
f 72/1/2 77/1/2 80/1/2
f 79/6/2 72/6/2 80/6/2
f 78/6/2 74/6/2 81/6/2
f 77/5/2 78/5/2 81/5/2
f 74/1/2 66/1/2 82/1/2
f 81/6/2 74/6/2 82/6/2
f 79/5/2 80/5/2 83/5/2
f 56/1/2 75/1/2 83/1/2
f 75/5/2 79/5/2 83/5/2
f 80/1/2 77/1/2 84/1/2
f 83/5/2 80/5/2 84/5/2
f 77/5/2 81/5/2 85/5/2
f 84/1/2 77/1/2 85/1/2
f 81/5/2 82/5/2 85/5/2
f 82/1/2 66/1/2 86/1/2
f 85/5/2 82/5/2 86/5/2
f 56/1/2 83/1/2 87/1/2
f 84/1/2 85/1/2 87/1/2
f 85/1/2 86/1/2 87/1/2
f 83/1/2 84/1/2 87/1/2
f 86/1/2 66/1/2 88/1/2
f 87/1/2 86/1/2 88/1/2
f 89/2/2 90/2/2 91/2/2
f 91/2/2 90/2/2 92/2/2
f 92/2/2 90/2/2 93/2/2
f 93/2/2 90/2/2 94/2/2
f 89/2/2 91/2/2 95/2/2
f 92/2/2 93/2/2 96/2/2
f 96/2/2 93/2/2 97/2/2
f 94/2/2 90/2/2 98/2/2
f 96/2/2 97/2/2 99/2/2
f 97/2/2 98/2/2 99/2/2
f 89/2/2 95/2/2 99/2/2
f 95/2/2 96/2/2 99/2/2
f 98/2/2 90/2/2 100/2/2
f 99/2/2 98/2/2 100/2/2
f 104/1/3 102/1/3 101/1/3
f 105/4/3 103/4/3 102/4/3
f 105/1/3 102/1/3 104/1/3
f 106/4/3 103/4/3 105/4/3
f 111/1/3 108/1/3 107/1/3
f 112/1/3 108/1/3 111/1/3
f 113/1/3 111/1/3 107/1/3
f 114/4/3 112/4/3 111/4/3
f 114/1/3 111/1/3 113/1/3
f 115/4/3 109/4/3 108/4/3
f 115/1/3 108/1/3 112/1/3
f 116/4/3 109/4/3 115/4/3
f 117/1/3 110/1/3 109/1/3
f 117/4/3 109/4/3 116/4/3
f 118/1/3 110/1/3 117/1/3
f 119/4/3 114/4/3 113/4/3
f 119/1/3 113/1/3 107/1/3
f 120/1/3 116/1/3 115/1/3
f 120/4/3 114/4/3 119/4/3
f 120/4/3 112/4/3 114/4/3
f 120/1/3 115/1/3 112/1/3
f 121/1/3 116/1/3 120/1/3
f 122/1/3 116/1/3 121/1/3
f 124/1/3 119/1/3 107/1/3
f 124/1/3 120/1/3 119/1/3
f 125/1/3 120/1/3 124/1/3
f 126/4/3 125/4/3 124/4/3
f 127/1/3 120/1/3 125/1/3
f 127/4/3 125/4/3 126/4/3
f 128/4/3 121/4/3 120/4/3
f 128/1/3 120/1/3 127/1/3
f 129/1/3 123/1/3 122/1/3
f 129/4/3 121/4/3 128/4/3
f 129/1/3 122/1/3 121/1/3
f 130/1/3 128/1/3 127/1/3
f 130/1/3 127/1/3 126/1/3
f 130/1/3 129/1/3 128/1/3
f 131/1/3 123/1/3 129/1/3
f 131/1/3 129/1/3 130/1/3
f 134/2/3 133/2/3 132/2/3
f 135/2/3 133/2/3 134/2/3
f 138/2/3 137/2/3 136/2/3
f 139/2/3 137/2/3 138/2/3
f 142/2/3 141/2/3 140/2/3
f 143/2/3 141/2/3 142/2/3
f 146/4/3 145/4/3 144/4/3
f 147/4/3 145/4/3 146/4/3
f 148/1/4 149/1/4 150/1/4
f 150/1/4 149/1/4 151/1/4
f 152/2/4 153/2/4 154/2/4
f 154/2/4 153/2/4 155/2/4
f 156/2/4 157/2/4 158/2/4
f 158/2/4 157/2/4 159/2/4
f 160/2/4 161/2/4 162/2/4
f 162/2/4 161/2/4 163/2/4
f 164/1/4 165/1/4 166/1/4
f 166/1/4 165/1/4 167/1/4
f 167/1/4 165/1/4 168/1/4
f 168/1/4 165/1/4 169/1/4
f 164/1/4 166/1/4 170/1/4
f 166/4/4 167/4/4 171/4/4
f 170/1/4 166/1/4 171/1/4
f 171/4/4 167/4/4 172/4/4
f 167/1/4 168/1/4 173/1/4
f 172/4/4 167/4/4 175/4/4
f 171/1/4 172/1/4 175/1/4
f 173/1/4 174/1/4 176/1/4
f 175/4/4 167/4/4 176/4/4
f 167/1/4 173/1/4 176/1/4
f 171/1/4 175/1/4 177/1/4
f 170/4/4 171/4/4 177/4/4
f 175/1/4 176/1/4 177/1/4
f 177/1/4 176/1/4 178/1/4
f 170/4/4 177/4/4 179/4/4
f 177/4/4 178/4/4 179/4/4
f 178/1/4 176/1/4 180/1/4
f 179/4/4 178/4/4 180/4/4
f 176/1/4 174/1/4 181/1/4
f 180/1/4 176/1/4 181/1/4
f 182/1/4 183/1/4 184/1/4
f 184/1/4 183/1/4 185/1/4
f 190/1/5 187/1/5 186/1/5
f 190/4/5 188/4/5 187/4/5
f 191/1/5 189/1/5 188/1/5
f 191/4/5 188/4/5 190/4/5
f 192/1/5 190/1/5 186/1/5
f 192/1/5 191/1/5 190/1/5
f 193/1/5 189/1/5 191/1/5
f 193/1/5 191/1/5 192/1/5
f 194/1/5 192/1/5 186/1/5
f 195/4/5 193/4/5 192/4/5
f 195/1/5 192/1/5 194/1/5
f 196/4/5 193/4/5 195/4/5
f 199/2/5 198/2/5 197/2/5
f 200/2/5 198/2/5 199/2/5
f 203/2/5 202/2/5 201/2/5
f 204/2/5 202/2/5 203/2/5
f 207/2/5 206/2/5 205/2/5
f 208/2/5 206/2/5 207/2/5
f 211/1/5 210/1/5 209/1/5
f 212/1/5 210/1/5 211/1/5
f 215/1/5 214/1/5 213/1/5
f 216/1/5 214/1/5 215/1/5
f 217/2/6 218/2/6 219/2/6
f 219/2/6 218/2/6 220/2/6
f 221/2/6 222/2/6 223/2/6
f 223/2/6 222/2/6 224/2/6
f 225/2/6 226/2/6 227/2/6
f 227/2/6 226/2/6 228/2/6
f 228/2/6 226/2/6 229/2/6
f 229/2/6 226/2/6 230/2/6
f 231/1/6 232/1/6 235/1/6
f 235/1/6 232/1/6 236/1/6
f 233/1/6 234/1/6 237/1/6
f 235/4/6 236/4/6 238/4/6
f 238/4/6 236/4/6 239/4/6
f 237/1/6 234/1/6 240/1/6
f 231/1/6 235/1/6 241/1/6
f 235/4/6 238/4/6 241/4/6
f 238/1/6 239/1/6 242/1/6
f 241/4/6 238/4/6 242/4/6
f 239/1/6 240/1/6 242/1/6
f 240/1/6 234/1/6 243/1/6
f 242/1/6 240/1/6 243/1/6
f 243/1/6 234/1/6 244/1/6
f 231/1/6 241/1/6 245/1/6
f 241/1/6 242/1/6 245/1/6
f 242/1/6 243/1/6 245/1/6
f 245/1/6 243/1/6 246/1/6
f 246/1/6 243/1/6 247/1/6
f 243/4/6 244/4/6 248/4/6
f 247/1/6 243/1/6 248/1/6
f 247/4/6 248/4/6 249/4/6
f 248/4/6 244/4/6 249/4/6
f 244/1/6 234/1/6 250/1/6
f 249/4/6 244/4/6 250/4/6
f 231/1/6 245/1/6 251/1/6
f 245/4/6 246/4/6 252/4/6
f 251/1/6 245/1/6 252/1/6
f 247/4/6 249/4/6 253/4/6
f 246/1/6 247/1/6 253/1/6
f 249/1/6 250/1/6 254/1/6
f 253/4/6 249/4/6 254/4/6
f 251/4/6 252/4/6 255/4/6
f 252/4/6 246/4/6 256/4/6
f 255/4/6 252/4/6 256/4/6
f 246/1/6 253/1/6 256/1/6
f 253/1/6 254/1/6 256/1/6
f 256/1/6 254/1/6 257/1/6
f 254/1/6 250/1/6 258/1/6
f 257/1/6 254/1/6 258/1/6
f 256/1/6 257/1/6 259/1/6
f 255/1/6 256/1/6 259/1/6
f 259/1/6 257/1/6 260/1/6
f 258/1/6 250/1/6 261/1/6
f 250/1/6 234/1/6 262/1/6
f 261/1/6 250/1/6 262/1/6
f 263/4/6 264/4/6 265/4/6
f 265/4/6 264/4/6 266/4/6
f 265/1/6 266/1/6 267/1/6
f 267/1/6 266/1/6 268/1/6
f 269/4/6 270/4/6 271/4/6
f 271/4/6 270/4/6 272/4/6
f 271/1/6 272/1/6 273/1/6
f 273/1/6 272/1/6 274/1/6
