# MagicaVoxel @ Ephtracy

# group
o 

# material
mtllib Trees-1.mtl
usemtl palette

# normals
vn -1 0 0
vn 1 0 0
vn 0 0 1
vn 0 0 -1
vn 0 -1 0
vn 0 1 0

# texcoords
vt 0.955078 0.5
vt 0.970703 0.5
vt 0.974609 0.5
vt 0.978516 0.5
vt 0.990234 0.5

# verts
v 1.4 -0.1 0.3
v 1.4 -0.1 0.1
v 1.4 -0.1 0
v 1.4 -0.1 -0.1
v 1.4 0 0.3
v 1.4 0 0.1
v 1.4 0 0
v 1.4 0 -0.1
v 1.5 -0.1 0.5
v 1.5 -0.1 0.3
v 1.5 -0.1 0.1
v 1.5 -0.1 0
v 1.5 -0.1 -0.1
v 1.5 -0.1 -0.3
v 1.5 0 0.5
v 1.5 0 0.4
v 1.5 0 0.3
v 1.5 0 0.1
v 1.5 0 0
v 1.5 0 -0.1
v 1.5 0 -0.2
v 1.5 0 -0.3
v 1.5 0.1 0.4
v 1.5 0.1 -0.2
v 1.6 0.1 0.3
v 1.6 0.1 -0.1
v 1.6 0.4 0
v 1.6 0.4 -0.1
v 1.6 0.5 0.1
v 1.6 0.5 0
v 1.6 0.6 0.3
v 1.6 0.6 0.1
v 1.6 1.8 0.3
v 1.6 1.8 -0.1
v 1.9 -0.1 0.5
v 1.9 -0.1 0.4
v 1.9 -0.1 -0.2
v 1.9 -0.1 -0.3
v 1.9 0 0.5
v 1.9 0 0.4
v 1.9 0 -0.2
v 1.9 0 -0.3
v 1.7 -0.1 0.5
v 1.7 -0.1 0.4
v 1.7 -0.1 -0.2
v 1.7 -0.1 -0.3
v 1.7 0 0.5
v 1.7 0 0.4
v 1.7 0 -0.2
v 1.7 0 -0.3
v 2 0.1 0.3
v 2 0.1 -0.1
v 2 0.3 0.2
v 2 0.3 0.1
v 2 0.4 0.1
v 2 0.4 0
v 2 0.5 0.2
v 2 0.5 0.1
v 2 0.6 0.3
v 2 0.6 0.1
v 2 0.7 0
v 2 0.7 -0.1
v 2 1.8 0.3
v 2 1.8 -0.1
v 2.1 -0.1 0.5
v 2.1 -0.1 0.3
v 2.1 -0.1 0.1
v 2.1 -0.1 0
v 2.1 -0.1 -0.1
v 2.1 -0.1 -0.3
v 2.1 0 0.5
v 2.1 0 0.4
v 2.1 0 0.3
v 2.1 0 0.1
v 2.1 0 0
v 2.1 0 -0.1
v 2.1 0 -0.2
v 2.1 0 -0.3
v 2.1 0.1 0.4
v 2.1 0.1 -0.2
v 2.2 -0.1 0.3
v 2.2 -0.1 0.1
v 2.2 -0.1 0
v 2.2 -0.1 -0.1
v 2.2 0 0.3
v 2.2 0 0.1
v 2.2 0 0
v 2.2 0 -0.1
v 1.5 -0.1 0.5
v 1.5 0 0.5
v 1.7 -0.1 0.5
v 1.7 0 0.5
v 1.9 -0.1 0.5
v 1.9 0 0.5
v 2.1 -0.1 0.5
v 2.1 0 0.5
v 1.5 0 0.4
v 1.5 0.1 0.4
v 1.7 -0.1 0.4
v 1.7 0 0.4
v 1.9 -0.1 0.4
v 1.9 0 0.4
v 2.1 0 0.4
v 2.1 0.1 0.4
v 1.4 -0.1 0.3
v 1.4 0 0.3
v 1.5 -0.1 0.3
v 1.5 0 0.3
v 1.6 0.1 0.3
v 1.6 0.6 0.3
v 1.6 1.8 0.3
v 1.7 0.6 0.3
v 1.7 0.7 0.3
v 1.8 0.4 0.3
v 1.8 0.7 0.3
v 1.9 0.4 0.3
v 1.9 0.6 0.3
v 2 0.1 0.3
v 2 0.6 0.3
v 2 1.8 0.3
v 2.1 -0.1 0.3
v 2.1 0 0.3
v 2.2 -0.1 0.3
v 2.2 0 0.3
v 1.4 -0.1 0
v 1.4 0 0
v 1.5 -0.1 0
v 1.5 0 0
v 2.1 -0.1 0
v 2.1 0 0
v 2.2 -0.1 0
v 2.2 0 0
v 1.4 -0.1 0.1
v 1.4 0 0.1
v 1.5 -0.1 0.1
v 1.5 0 0.1
v 2.1 -0.1 0.1
v 2.1 0 0.1
v 2.2 -0.1 0.1
v 2.2 0 0.1
v 1.4 -0.1 -0.1
v 1.4 0 -0.1
v 1.5 -0.1 -0.1
v 1.5 0 -0.1
v 1.6 0.1 -0.1
v 1.6 0.4 -0.1
v 1.6 1.8 -0.1
v 1.7 0.4 -0.1
v 1.7 0.5 -0.1
v 1.8 0.4 -0.1
v 1.8 0.5 -0.1
v 1.9 0.4 -0.1
v 1.9 0.7 -0.1
v 2 0.1 -0.1
v 2 0.7 -0.1
v 2 1.8 -0.1
v 2.1 -0.1 -0.1
v 2.1 0 -0.1
v 2.2 -0.1 -0.1
v 2.2 0 -0.1
v 1.5 0 -0.2
v 1.5 0.1 -0.2
v 1.7 -0.1 -0.2
v 1.7 0 -0.2
v 1.9 -0.1 -0.2
v 1.9 0 -0.2
v 2.1 0 -0.2
v 2.1 0.1 -0.2
v 1.5 -0.1 -0.3
v 1.5 0 -0.3
v 1.7 -0.1 -0.3
v 1.7 0 -0.3
v 1.9 -0.1 -0.3
v 1.9 0 -0.3
v 2.1 -0.1 -0.3
v 2.1 0 -0.3
v 1.5 -0.1 0.5
v 1.7 -0.1 0.5
v 1.9 -0.1 0.5
v 2.1 -0.1 0.5
v 1.7 -0.1 0.4
v 1.9 -0.1 0.4
v 1.4 -0.1 0.3
v 1.5 -0.1 0.3
v 2.1 -0.1 0.3
v 2.2 -0.1 0.3
v 1.4 -0.1 0.1
v 1.5 -0.1 0.1
v 2.1 -0.1 0.1
v 2.2 -0.1 0.1
v 1.4 -0.1 0
v 1.5 -0.1 0
v 2.1 -0.1 0
v 2.2 -0.1 0
v 1.4 -0.1 -0.1
v 1.5 -0.1 -0.1
v 2.1 -0.1 -0.1
v 2.2 -0.1 -0.1
v 1.7 -0.1 -0.2
v 1.9 -0.1 -0.2
v 1.5 -0.1 -0.3
v 1.7 -0.1 -0.3
v 1.9 -0.1 -0.3
v 2.1 -0.1 -0.3
v 1.5 0 0.5
v 1.7 0 0.5
v 1.9 0 0.5
v 2.1 0 0.5
v 1.5 0 0.4
v 1.7 0 0.4
v 1.9 0 0.4
v 2.1 0 0.4
v 1.4 0 0.3
v 1.5 0 0.3
v 2.1 0 0.3
v 2.2 0 0.3
v 1.4 0 0.1
v 1.5 0 0.1
v 2.1 0 0.1
v 2.2 0 0.1
v 1.4 0 0
v 1.5 0 0
v 2.1 0 0
v 2.2 0 0
v 1.4 0 -0.1
v 1.5 0 -0.1
v 2.1 0 -0.1
v 2.2 0 -0.1
v 1.5 0 -0.2
v 1.7 0 -0.2
v 1.9 0 -0.2
v 2.1 0 -0.2
v 1.5 0 -0.3
v 1.7 0 -0.3
v 1.9 0 -0.3
v 2.1 0 -0.3
v 1.5 0.1 0.4
v 2.1 0.1 0.4
v 1.6 0.1 0.3
v 2 0.1 0.3
v 1.6 0.1 -0.1
v 2 0.1 -0.1
v 1.5 0.1 -0.2
v 2.1 0.1 -0.2
v 1.6 1.8 0.3
v 2 1.8 0.3
v 1.7 1.8 0.2
v 1.9 1.8 0.2
v 1.7 1.8 0
v 1.9 1.8 0
v 1.6 1.8 -0.1
v 2 1.8 -0.1

# faces
f 5/4/1 2/4/1 1/4/1
f 6/4/1 2/4/1 5/4/1
f 7/4/1 4/4/1 3/4/1
f 8/4/1 4/4/1 7/4/1
f 15/4/1 10/4/1 9/4/1
f 16/4/1 10/4/1 15/4/1
f 17/4/1 10/4/1 16/4/1
f 18/4/1 12/4/1 11/4/1
f 19/4/1 12/4/1 18/4/1
f 20/4/1 14/4/1 13/4/1
f 21/4/1 14/4/1 20/4/1
f 22/4/1 14/4/1 21/4/1
f 23/4/1 19/4/1 18/4/1
f 23/4/1 17/4/1 16/4/1
f 23/4/1 21/4/1 20/4/1
f 23/4/1 20/4/1 19/4/1
f 23/4/1 18/4/1 17/4/1
f 24/4/1 21/4/1 23/4/1
f 27/5/1 26/5/1 25/5/1
f 28/5/1 26/5/1 27/5/1
f 29/5/1 27/5/1 25/5/1
f 30/3/1 28/3/1 27/3/1
f 30/5/1 27/5/1 29/5/1
f 31/5/1 29/5/1 25/5/1
f 32/3/1 30/3/1 29/3/1
f 32/5/1 29/5/1 31/5/1
f 33/3/1 32/3/1 31/3/1
f 34/3/1 28/3/1 30/3/1
f 34/3/1 32/3/1 33/3/1
f 34/3/1 30/3/1 32/3/1
f 39/4/1 36/4/1 35/4/1
f 40/4/1 36/4/1 39/4/1
f 41/4/1 38/4/1 37/4/1
f 42/4/1 38/4/1 41/4/1
f 43/4/2 44/4/2 47/4/2
f 47/4/2 44/4/2 48/4/2
f 45/4/2 46/4/2 49/4/2
f 49/4/2 46/4/2 50/4/2
f 51/5/2 52/5/2 53/5/2
f 53/5/2 52/5/2 54/5/2
f 53/3/2 54/3/2 55/3/2
f 54/5/2 52/5/2 55/5/2
f 55/5/2 52/5/2 56/5/2
f 51/5/2 53/5/2 57/5/2
f 53/3/2 55/3/2 57/3/2
f 55/3/2 56/3/2 57/3/2
f 57/3/2 56/3/2 58/3/2
f 51/5/2 57/5/2 59/5/2
f 57/5/2 58/5/2 59/5/2
f 58/3/2 56/3/2 60/3/2
f 59/5/2 58/5/2 60/5/2
f 56/5/2 52/5/2 61/5/2
f 60/3/2 56/3/2 61/3/2
f 59/3/2 60/3/2 61/3/2
f 61/5/2 52/5/2 62/5/2
f 59/3/2 61/3/2 63/3/2
f 61/3/2 62/3/2 63/3/2
f 63/3/2 62/3/2 64/3/2
f 65/4/2 66/4/2 71/4/2
f 71/4/2 66/4/2 72/4/2
f 72/4/2 66/4/2 73/4/2
f 67/4/2 68/4/2 74/4/2
f 74/4/2 68/4/2 75/4/2
f 69/4/2 70/4/2 76/4/2
f 76/4/2 70/4/2 77/4/2
f 77/4/2 70/4/2 78/4/2
f 74/4/2 75/4/2 79/4/2
f 72/4/2 73/4/2 79/4/2
f 76/4/2 77/4/2 79/4/2
f 75/4/2 76/4/2 79/4/2
f 73/4/2 74/4/2 79/4/2
f 79/4/2 77/4/2 80/4/2
f 81/4/2 82/4/2 85/4/2
f 85/4/2 82/4/2 86/4/2
f 83/4/2 84/4/2 87/4/2
f 87/4/2 84/4/2 88/4/2
f 91/4/3 90/4/3 89/4/3
f 92/4/3 90/4/3 91/4/3
f 95/4/3 94/4/3 93/4/3
f 96/4/3 94/4/3 95/4/3
f 100/4/3 98/4/3 97/4/3
f 101/4/3 100/4/3 99/4/3
f 102/4/3 98/4/3 100/4/3
f 102/4/3 100/4/3 101/4/3
f 103/4/3 98/4/3 102/4/3
f 104/4/3 98/4/3 103/4/3
f 107/4/3 106/4/3 105/4/3
f 108/4/3 106/4/3 107/4/3
f 112/5/3 110/5/3 109/5/3
f 112/3/3 111/3/3 110/3/3
f 113/3/3 111/3/3 112/3/3
f 114/5/3 112/5/3 109/5/3
f 114/5/3 113/5/3 112/5/3
f 115/3/3 111/3/3 113/3/3
f 115/5/3 113/5/3 114/5/3
f 116/5/3 114/5/3 109/5/3
f 116/3/3 115/3/3 114/3/3
f 117/3/3 115/3/3 116/3/3
f 118/5/3 116/5/3 109/5/3
f 118/5/3 117/5/3 116/5/3
f 119/3/3 115/3/3 117/3/3
f 119/5/3 117/5/3 118/5/3
f 120/3/3 111/3/3 115/3/3
f 120/3/3 115/3/3 119/3/3
f 123/4/3 122/4/3 121/4/3
f 124/4/3 122/4/3 123/4/3
f 127/4/3 126/4/3 125/4/3
f 128/4/3 126/4/3 127/4/3
f 131/4/3 130/4/3 129/4/3
f 132/4/3 130/4/3 131/4/3
f 133/4/4 134/4/4 135/4/4
f 135/4/4 134/4/4 136/4/4
f 137/4/4 138/4/4 139/4/4
f 139/4/4 138/4/4 140/4/4
f 141/4/4 142/4/4 143/4/4
f 143/4/4 142/4/4 144/4/4
f 145/5/4 146/5/4 148/5/4
f 146/3/4 147/3/4 148/3/4
f 148/3/4 147/3/4 149/3/4
f 145/5/4 148/5/4 150/5/4
f 148/5/4 149/5/4 150/5/4
f 149/3/4 147/3/4 151/3/4
f 150/5/4 149/5/4 151/5/4
f 145/5/4 150/5/4 152/5/4
f 150/3/4 151/3/4 152/3/4
f 151/3/4 147/3/4 153/3/4
f 152/3/4 151/3/4 153/3/4
f 145/5/4 152/5/4 154/5/4
f 152/5/4 153/5/4 154/5/4
f 153/3/4 147/3/4 155/3/4
f 154/5/4 153/5/4 155/5/4
f 155/3/4 147/3/4 156/3/4
f 157/4/4 158/4/4 159/4/4
f 159/4/4 158/4/4 160/4/4
f 161/4/4 162/4/4 164/4/4
f 163/4/4 164/4/4 165/4/4
f 164/4/4 162/4/4 166/4/4
f 165/4/4 164/4/4 166/4/4
f 166/4/4 162/4/4 167/4/4
f 167/4/4 162/4/4 168/4/4
f 169/4/4 170/4/4 171/4/4
f 171/4/4 170/4/4 172/4/4
f 173/4/4 174/4/4 175/4/4
f 175/4/4 174/4/4 176/4/4
f 181/4/5 178/4/5 177/4/5
f 182/4/5 180/4/5 179/4/5
f 184/4/5 181/4/5 177/4/5
f 184/4/5 182/4/5 181/4/5
f 185/4/5 180/4/5 182/4/5
f 185/4/5 182/4/5 184/4/5
f 187/4/5 184/4/5 183/4/5
f 187/4/5 186/4/5 185/4/5
f 187/4/5 185/4/5 184/4/5
f 188/4/5 186/4/5 187/4/5
f 189/4/5 186/4/5 188/4/5
f 190/4/5 186/4/5 189/4/5
f 192/4/5 189/4/5 188/4/5
f 193/4/5 189/4/5 192/4/5
f 195/4/5 192/4/5 191/4/5
f 195/4/5 194/4/5 193/4/5
f 195/4/5 193/4/5 192/4/5
f 196/4/5 194/4/5 195/4/5
f 197/4/5 194/4/5 196/4/5
f 198/4/5 194/4/5 197/4/5
f 199/4/5 197/4/5 196/4/5
f 200/4/5 197/4/5 199/4/5
f 201/4/5 199/4/5 196/4/5
f 202/4/5 199/4/5 201/4/5
f 203/4/5 197/4/5 200/4/5
f 204/4/5 197/4/5 203/4/5
f 205/4/6 206/4/6 209/4/6
f 209/4/6 206/4/6 210/4/6
f 207/4/6 208/4/6 211/4/6
f 211/4/6 208/4/6 212/4/6
f 213/4/6 214/4/6 217/4/6
f 217/4/6 214/4/6 218/4/6
f 215/4/6 216/4/6 219/4/6
f 219/4/6 216/4/6 220/4/6
f 221/4/6 222/4/6 225/4/6
f 225/4/6 222/4/6 226/4/6
f 223/4/6 224/4/6 227/4/6
f 227/4/6 224/4/6 228/4/6
f 229/4/6 230/4/6 233/4/6
f 233/4/6 230/4/6 234/4/6
f 231/4/6 232/4/6 235/4/6
f 235/4/6 232/4/6 236/4/6
f 237/4/6 238/4/6 239/4/6
f 239/4/6 238/4/6 240/4/6
f 237/4/6 239/4/6 241/4/6
f 240/4/6 238/4/6 242/4/6
f 237/4/6 241/4/6 243/4/6
f 241/4/6 242/4/6 243/4/6
f 242/4/6 238/4/6 244/4/6
f 243/4/6 242/4/6 244/4/6
f 245/3/6 246/3/6 247/3/6
f 247/3/6 246/3/6 248/3/6
f 245/3/6 247/3/6 249/3/6
f 247/1/6 248/1/6 249/1/6
f 248/3/6 246/3/6 250/3/6
f 249/1/6 248/1/6 250/1/6
f 245/3/6 249/3/6 251/3/6
f 249/3/6 250/3/6 251/3/6
f 250/3/6 246/3/6 252/3/6
f 251/3/6 250/3/6 252/3/6
