# MagicaVoxel @ Ephtracy

# group
o 

# material
mtllib Trees-0.mtl
usemtl palette

# normals
vn -1 0 0
vn 1 0 0
vn 0 0 1
vn 0 0 -1
vn 0 -1 0
vn 0 1 0

# texcoords
vt 0.955078 0.5
vt 0.958984 0.5
vt 0.970703 0.5
vt 0.974609 0.5
vt 0.978516 0.5
vt 0.990234 0.5

# verts
v 2.9 1.3 0.3
v 2.9 1.3 0.1
v 2.9 1.6 0.3
v 2.9 1.6 0.2
v 2.9 1.6 0.1
v 2.9 1.7 0.3
v 2.9 1.7 0.2
v 2.9 1.7 0.1
v 3.2 -0.1 0.4
v 3.2 -0.1 0.2
v 3.2 -0.1 0.1
v 3.2 -0.1 5.96046e-008
v 3.2 0 0.4
v 3.2 0 0.2
v 3.2 0 0.1
v 3.2 0 5.96046e-008
v 3.3 -0.1 0.6
v 3.3 -0.1 0.4
v 3.3 -0.1 0.2
v 3.3 -0.1 0.1
v 3.3 -0.1 5.96046e-008
v 3.3 -0.1 -0.2
v 3.3 0 0.6
v 3.3 0 0.5
v 3.3 0 0.4
v 3.3 0 0.2
v 3.3 0 0.1
v 3.3 0 5.96046e-008
v 3.3 0 -0.1
v 3.3 0 -0.2
v 3.3 0.1 0.5
v 3.3 0.1 -0.1
v 3.4 0.1 0.4
v 3.4 0.1 5.96046e-008
v 3.4 0.4 0.1
v 3.4 0.4 5.96046e-008
v 3.4 0.5 0.2
v 3.4 0.5 0.1
v 3.4 0.6 0.4
v 3.4 0.6 0.2
v 3.4 1 0.3
v 3.4 1 0.2
v 3.4 1.1 0.2
v 3.4 1.1 0.1
v 3.4 1.3 0.3
v 3.4 1.3 0.1
v 3.4 1.5 0.3
v 3.4 1.5 0.1
v 3.4 1.8 0.4
v 3.4 1.8 5.96046e-008
v 3.7 -0.1 0.6
v 3.7 -0.1 0.5
v 3.7 -0.1 -0.1
v 3.7 -0.1 -0.2
v 3.7 0 0.6
v 3.7 0 0.5
v 3.7 0 -0.1
v 3.7 0 -0.2
v 4.1 1.3 0.3
v 4.1 1.3 0.1
v 4.1 1.4 0.3
v 4.1 1.4 0.2
v 4.1 1.4 0.1
v 4.1 1.5 0.3
v 4.1 1.5 0.2
v 4.1 1.5 0.1
v 3.1 1.5 0.3
v 3.1 1.5 0.1
v 3.1 1.6 0.3
v 3.1 1.6 0.2
v 3.1 1.6 0.1
v 3.1 1.7 0.3
v 3.1 1.7 0.2
v 3.1 1.7 0.1
v 3.5 -0.1 0.6
v 3.5 -0.1 0.5
v 3.5 -0.1 -0.1
v 3.5 -0.1 -0.2
v 3.5 0 0.6
v 3.5 0 0.5
v 3.5 0 -0.1
v 3.5 0 -0.2
v 3.8 0.1 0.4
v 3.8 0.1 5.96046e-008
v 3.8 0.3 0.3
v 3.8 0.3 0.2
v 3.8 0.4 0.2
v 3.8 0.4 0.1
v 3.8 0.5 0.3
v 3.8 0.5 0.2
v 3.8 0.6 0.4
v 3.8 0.6 0.2
v 3.8 0.7 0.1
v 3.8 0.7 5.96046e-008
v 3.8 0.9 0.3
v 3.8 0.9 0.1
v 3.8 1 0.2
v 3.8 1 0.1
v 3.8 1.1 0.3
v 3.8 1.1 0.2
v 3.8 1.1 0.1
v 3.8 1.3 0.4
v 3.8 1.3 0.3
v 3.8 1.3 0.1
v 3.8 1.5 0.4
v 3.8 1.5 0.3
v 3.8 1.8 0.4
v 3.8 1.8 5.96046e-008
v 3.9 -0.1 0.6
v 3.9 -0.1 0.4
v 3.9 -0.1 0.2
v 3.9 -0.1 0.1
v 3.9 -0.1 5.96046e-008
v 3.9 -0.1 -0.2
v 3.9 0 0.6
v 3.9 0 0.5
v 3.9 0 0.4
v 3.9 0 0.2
v 3.9 0 0.1
v 3.9 0 5.96046e-008
v 3.9 0 -0.1
v 3.9 0 -0.2
v 3.9 0.1 0.5
v 3.9 0.1 -0.1
v 4 -0.1 0.4
v 4 -0.1 0.2
v 4 -0.1 0.1
v 4 -0.1 5.96046e-008
v 4 0 0.4
v 4 0 0.2
v 4 0 0.1
v 4 0 5.96046e-008
v 4.3 1.1 0.3
v 4.3 1.1 0.1
v 4.3 1.4 0.3
v 4.3 1.4 0.2
v 4.3 1.4 0.1
v 4.3 1.5 0.3
v 4.3 1.5 0.2
v 4.3 1.5 0.1
v 3.3 -0.1 0.6
v 3.3 0 0.6
v 3.5 -0.1 0.6
v 3.5 0 0.6
v 3.7 -0.1 0.6
v 3.7 0 0.6
v 3.9 -0.1 0.6
v 3.9 0 0.6
v 3.3 0 0.5
v 3.3 0.1 0.5
v 3.5 -0.1 0.5
v 3.5 0 0.5
v 3.7 -0.1 0.5
v 3.7 0 0.5
v 3.9 0 0.5
v 3.9 0.1 0.5
v 3.2 -0.1 0.4
v 3.2 0 0.4
v 3.3 -0.1 0.4
v 3.3 0 0.4
v 3.4 0.1 0.4
v 3.4 0.6 0.4
v 3.4 1.8 0.4
v 3.5 0.6 0.4
v 3.5 0.7 0.4
v 3.5 0.9 0.4
v 3.5 1.3 0.4
v 3.5 1.4 0.4
v 3.5 1.5 0.4
v 3.6 0.4 0.4
v 3.6 0.7 0.4
v 3.6 0.8 0.4
v 3.6 0.9 0.4
v 3.6 1 0.4
v 3.6 1.3 0.4
v 3.7 0.4 0.4
v 3.7 0.6 0.4
v 3.7 0.8 0.4
v 3.7 1 0.4
v 3.7 1.3 0.4
v 3.7 1.4 0.4
v 3.8 0.1 0.4
v 3.8 0.6 0.4
v 3.8 1.3 0.4
v 3.8 1.5 0.4
v 3.8 1.8 0.4
v 3.9 -0.1 0.4
v 3.9 0 0.4
v 4 -0.1 0.4
v 4 0 0.4
v 2.9 1.3 0.3
v 2.9 1.6 0.3
v 2.9 1.7 0.3
v 3.1 1.4 0.3
v 3.1 1.5 0.3
v 3.1 1.6 0.3
v 3.1 1.7 0.3
v 3.2 1.3 0.3
v 3.2 1.4 0.3
v 3.4 1.3 0.3
v 3.4 1.5 0.3
v 3.8 1.1 0.3
v 3.8 1.3 0.3
v 4.1 1.3 0.3
v 4.1 1.4 0.3
v 4.1 1.5 0.3
v 4.3 1.1 0.3
v 4.3 1.4 0.3
v 4.3 1.5 0.3
v 3.2 -0.1 0.1
v 3.2 0 0.1
v 3.3 -0.1 0.1
v 3.3 0 0.1
v 3.9 -0.1 0.1
v 3.9 0 0.1
v 4 -0.1 0.1
v 4 0 0.1
v 3.2 -0.1 0.2
v 3.2 0 0.2
v 3.3 -0.1 0.2
v 3.3 0 0.2
v 3.9 -0.1 0.2
v 3.9 0 0.2
v 4 -0.1 0.2
v 4 0 0.2
v 2.9 1.3 0.1
v 2.9 1.6 0.1
v 2.9 1.7 0.1
v 3 1.4 0.1
v 3 1.5 0.1
v 3.1 1.3 0.1
v 3.1 1.4 0.1
v 3.1 1.5 0.1
v 3.1 1.6 0.1
v 3.1 1.7 0.1
v 3.4 1.3 0.1
v 3.4 1.5 0.1
v 3.8 1.1 0.1
v 3.8 1.3 0.1
v 4.1 1.3 0.1
v 4.1 1.4 0.1
v 4.1 1.5 0.1
v 4.3 1.1 0.1
v 4.3 1.4 0.1
v 4.3 1.5 0.1
v 3.2 -0.1 5.96046e-008
v 3.2 0 5.96046e-008
v 3.3 -0.1 5.96046e-008
v 3.3 0 5.96046e-008
v 3.4 0.1 5.96046e-008
v 3.4 0.4 5.96046e-008
v 3.4 1.8 5.96046e-008
v 3.5 0.4 5.96046e-008
v 3.5 0.5 5.96046e-008
v 3.5 0.9 5.96046e-008
v 3.5 1.3 5.96046e-008
v 3.6 0.4 5.96046e-008
v 3.6 0.5 5.96046e-008
v 3.6 0.9 5.96046e-008
v 3.6 1 5.96046e-008
v 3.7 0.4 5.96046e-008
v 3.7 0.7 5.96046e-008
v 3.7 1 5.96046e-008
v 3.7 1.3 5.96046e-008
v 3.8 0.1 5.96046e-008
v 3.8 0.7 5.96046e-008
v 3.8 1.8 5.96046e-008
v 3.9 -0.1 5.96046e-008
v 3.9 0 5.96046e-008
v 4 -0.1 5.96046e-008
v 4 0 5.96046e-008
v 3.3 0 -0.1
v 3.3 0.1 -0.1
v 3.5 -0.1 -0.1
v 3.5 0 -0.1
v 3.7 -0.1 -0.1
v 3.7 0 -0.1
v 3.9 0 -0.1
v 3.9 0.1 -0.1
v 3.3 -0.1 -0.2
v 3.3 0 -0.2
v 3.5 -0.1 -0.2
v 3.5 0 -0.2
v 3.7 -0.1 -0.2
v 3.7 0 -0.2
v 3.9 -0.1 -0.2
v 3.9 0 -0.2
v 3.3 -0.1 0.6
v 3.5 -0.1 0.6
v 3.7 -0.1 0.6
v 3.9 -0.1 0.6
v 3.5 -0.1 0.5
v 3.7 -0.1 0.5
v 3.2 -0.1 0.4
v 3.3 -0.1 0.4
v 3.9 -0.1 0.4
v 4 -0.1 0.4
v 3.2 -0.1 0.2
v 3.3 -0.1 0.2
v 3.9 -0.1 0.2
v 4 -0.1 0.2
v 3.2 -0.1 0.1
v 3.3 -0.1 0.1
v 3.9 -0.1 0.1
v 4 -0.1 0.1
v 3.2 -0.1 5.96046e-008
v 3.3 -0.1 5.96046e-008
v 3.9 -0.1 5.96046e-008
v 4 -0.1 5.96046e-008
v 3.5 -0.1 -0.1
v 3.7 -0.1 -0.1
v 3.3 -0.1 -0.2
v 3.5 -0.1 -0.2
v 3.7 -0.1 -0.2
v 3.9 -0.1 -0.2
v 3.8 1.1 0.3
v 4.3 1.1 0.3
v 3.8 1.1 0.2
v 3.8 1.1 0.1
v 4.3 1.1 0.1
v 2.9 1.3 0.3
v 3.2 1.3 0.3
v 3.4 1.3 0.3
v 3.1 1.3 0.2
v 3.2 1.3 0.2
v 2.9 1.3 0.1
v 3.1 1.3 0.1
v 3.4 1.3 0.1
v 3.3 0 0.6
v 3.5 0 0.6
v 3.7 0 0.6
v 3.9 0 0.6
v 3.3 0 0.5
v 3.5 0 0.5
v 3.7 0 0.5
v 3.9 0 0.5
v 3.2 0 0.4
v 3.3 0 0.4
v 3.9 0 0.4
v 4 0 0.4
v 3.2 0 0.2
v 3.3 0 0.2
v 3.9 0 0.2
v 4 0 0.2
v 3.2 0 0.1
v 3.3 0 0.1
v 3.9 0 0.1
v 4 0 0.1
v 3.2 0 5.96046e-008
v 3.3 0 5.96046e-008
v 3.9 0 5.96046e-008
v 4 0 5.96046e-008
v 3.3 0 -0.1
v 3.5 0 -0.1
v 3.7 0 -0.1
v 3.9 0 -0.1
v 3.3 0 -0.2
v 3.5 0 -0.2
v 3.7 0 -0.2
v 3.9 0 -0.2
v 3.3 0.1 0.5
v 3.9 0.1 0.5
v 3.4 0.1 0.4
v 3.8 0.1 0.4
v 3.4 0.1 5.96046e-008
v 3.8 0.1 5.96046e-008
v 3.3 0.1 -0.1
v 3.9 0.1 -0.1
v 3.8 1.3 0.3
v 4.1 1.3 0.3
v 3.8 1.3 0.1
v 4.1 1.3 0.1
v 3.1 1.5 0.3
v 3.4 1.5 0.3
v 4.1 1.5 0.3
v 4.3 1.5 0.3
v 4.1 1.5 0.2
v 4.3 1.5 0.2
v 3.1 1.5 0.1
v 3.4 1.5 0.1
v 4.1 1.5 0.1
v 4.3 1.5 0.1
v 2.9 1.7 0.3
v 3.1 1.7 0.3
v 2.9 1.7 0.2
v 3.1 1.7 0.2
v 2.9 1.7 0.1
v 3.1 1.7 0.1
v 3.4 1.8 0.4
v 3.8 1.8 0.4
v 3.5 1.8 0.3
v 3.7 1.8 0.3
v 3.5 1.8 0.1
v 3.7 1.8 0.1
v 3.4 1.8 5.96046e-008
v 3.8 1.8 5.96046e-008

# faces
f 3/4/1 2/4/1 1/4/1
f 4/4/1 2/4/1 3/4/1
f 5/4/1 2/4/1 4/4/1
f 6/2/1 4/2/1 3/2/1
f 7/1/1 5/1/1 4/1/1
f 7/2/1 4/2/1 6/2/1
f 8/1/1 5/1/1 7/1/1
f 13/5/1 10/5/1 9/5/1
f 14/5/1 10/5/1 13/5/1
f 15/5/1 12/5/1 11/5/1
f 16/5/1 12/5/1 15/5/1
f 23/5/1 18/5/1 17/5/1
f 24/5/1 18/5/1 23/5/1
f 25/5/1 18/5/1 24/5/1
f 26/5/1 20/5/1 19/5/1
f 27/5/1 20/5/1 26/5/1
f 28/5/1 22/5/1 21/5/1
f 29/5/1 22/5/1 28/5/1
f 30/5/1 22/5/1 29/5/1
f 31/5/1 27/5/1 26/5/1
f 31/5/1 25/5/1 24/5/1
f 31/5/1 29/5/1 28/5/1
f 31/5/1 28/5/1 27/5/1
f 31/5/1 26/5/1 25/5/1
f 32/5/1 29/5/1 31/5/1
f 35/6/1 34/6/1 33/6/1
f 36/6/1 34/6/1 35/6/1
f 37/6/1 35/6/1 33/6/1
f 38/4/1 36/4/1 35/4/1
f 38/6/1 35/6/1 37/6/1
f 39/6/1 37/6/1 33/6/1
f 40/4/1 38/4/1 37/4/1
f 40/6/1 37/6/1 39/6/1
f 41/4/1 40/4/1 39/4/1
f 42/4/1 38/4/1 40/4/1
f 42/4/1 40/4/1 41/4/1
f 43/6/1 42/6/1 41/6/1
f 43/4/1 38/4/1 42/4/1
f 44/4/1 36/4/1 38/4/1
f 44/4/1 38/4/1 43/4/1
f 45/6/1 43/6/1 41/6/1
f 45/4/1 41/4/1 39/4/1
f 45/6/1 44/6/1 43/6/1
f 46/4/1 36/4/1 44/4/1
f 46/6/1 44/6/1 45/6/1
f 47/4/1 45/4/1 39/4/1
f 48/4/1 36/4/1 46/4/1
f 49/4/1 47/4/1 39/4/1
f 49/4/1 48/4/1 47/4/1
f 50/4/1 36/4/1 48/4/1
f 50/4/1 48/4/1 49/4/1
f 55/5/1 52/5/1 51/5/1
f 56/5/1 52/5/1 55/5/1
f 57/5/1 54/5/1 53/5/1
f 58/5/1 54/5/1 57/5/1
f 61/4/1 60/4/1 59/4/1
f 62/4/1 60/4/1 61/4/1
f 63/4/1 60/4/1 62/4/1
f 64/2/1 62/2/1 61/2/1
f 65/1/1 63/1/1 62/1/1
f 65/2/1 62/2/1 64/2/1
f 66/1/1 63/1/1 65/1/1
f 67/4/2 68/4/2 69/4/2
f 69/4/2 68/4/2 70/4/2
f 70/4/2 68/4/2 71/4/2
f 69/2/2 70/2/2 72/2/2
f 70/1/2 71/1/2 73/1/2
f 72/2/2 70/2/2 73/2/2
f 73/1/2 71/1/2 74/1/2
f 75/5/2 76/5/2 79/5/2
f 79/5/2 76/5/2 80/5/2
f 77/5/2 78/5/2 81/5/2
f 81/5/2 78/5/2 82/5/2
f 83/6/2 84/6/2 85/6/2
f 85/6/2 84/6/2 86/6/2
f 85/4/2 86/4/2 87/4/2
f 86/6/2 84/6/2 87/6/2
f 87/6/2 84/6/2 88/6/2
f 83/6/2 85/6/2 89/6/2
f 85/4/2 87/4/2 89/4/2
f 87/4/2 88/4/2 89/4/2
f 89/4/2 88/4/2 90/4/2
f 83/6/2 89/6/2 91/6/2
f 89/6/2 90/6/2 91/6/2
f 90/4/2 88/4/2 92/4/2
f 91/6/2 90/6/2 92/6/2
f 88/6/2 84/6/2 93/6/2
f 92/4/2 88/4/2 93/4/2
f 91/4/2 92/4/2 93/4/2
f 93/6/2 84/6/2 94/6/2
f 91/4/2 93/4/2 95/4/2
f 93/4/2 94/4/2 95/4/2
f 95/4/2 94/4/2 96/4/2
f 95/6/2 96/6/2 97/6/2
f 96/4/2 94/4/2 98/4/2
f 97/6/2 96/6/2 98/6/2
f 91/4/2 95/4/2 99/4/2
f 95/6/2 97/6/2 99/6/2
f 97/4/2 98/4/2 100/4/2
f 99/6/2 97/6/2 100/6/2
f 98/4/2 94/4/2 101/4/2
f 100/4/2 98/4/2 101/4/2
f 91/4/2 99/4/2 102/4/2
f 102/4/2 99/4/2 103/4/2
f 101/4/2 94/4/2 104/4/2
f 102/6/2 103/6/2 105/6/2
f 103/4/2 104/4/2 106/4/2
f 105/6/2 103/6/2 106/6/2
f 105/4/2 106/4/2 107/4/2
f 104/4/2 94/4/2 108/4/2
f 107/4/2 106/4/2 108/4/2
f 106/4/2 104/4/2 108/4/2
f 109/5/2 110/5/2 115/5/2
f 115/5/2 110/5/2 116/5/2
f 116/5/2 110/5/2 117/5/2
f 111/5/2 112/5/2 118/5/2
f 118/5/2 112/5/2 119/5/2
f 113/5/2 114/5/2 120/5/2
f 120/5/2 114/5/2 121/5/2
f 121/5/2 114/5/2 122/5/2
f 118/5/2 119/5/2 123/5/2
f 116/5/2 117/5/2 123/5/2
f 120/5/2 121/5/2 123/5/2
f 119/5/2 120/5/2 123/5/2
f 117/5/2 118/5/2 123/5/2
f 123/5/2 121/5/2 124/5/2
f 125/5/2 126/5/2 129/5/2
f 129/5/2 126/5/2 130/5/2
f 127/5/2 128/5/2 131/5/2
f 131/5/2 128/5/2 132/5/2
f 133/4/2 134/4/2 135/4/2
f 135/4/2 134/4/2 136/4/2
f 136/4/2 134/4/2 137/4/2
f 135/2/2 136/2/2 138/2/2
f 136/1/2 137/1/2 139/1/2
f 138/2/2 136/2/2 139/2/2
f 139/1/2 137/1/2 140/1/2
f 143/5/3 142/5/3 141/5/3
f 144/5/3 142/5/3 143/5/3
f 147/5/3 146/5/3 145/5/3
f 148/5/3 146/5/3 147/5/3
f 152/5/3 150/5/3 149/5/3
f 153/5/3 152/5/3 151/5/3
f 154/5/3 150/5/3 152/5/3
f 154/5/3 152/5/3 153/5/3
f 155/5/3 150/5/3 154/5/3
f 156/5/3 150/5/3 155/5/3
f 159/5/3 158/5/3 157/5/3
f 160/5/3 158/5/3 159/5/3
f 164/6/3 162/6/3 161/6/3
f 164/4/3 163/4/3 162/4/3
f 165/4/3 163/4/3 164/4/3
f 166/4/3 163/4/3 165/4/3
f 167/4/3 163/4/3 166/4/3
f 168/4/3 163/4/3 167/4/3
f 169/4/3 163/4/3 168/4/3
f 170/6/3 164/6/3 161/6/3
f 170/6/3 165/6/3 164/6/3
f 171/4/3 166/4/3 165/4/3
f 171/6/3 165/6/3 170/6/3
f 172/4/3 166/4/3 171/4/3
f 173/6/3 167/6/3 166/6/3
f 173/4/3 166/4/3 172/4/3
f 174/6/3 167/6/3 173/6/3
f 175/4/3 168/4/3 167/4/3
f 175/6/3 167/6/3 174/6/3
f 176/6/3 170/6/3 161/6/3
f 176/4/3 172/4/3 171/4/3
f 176/4/3 171/4/3 170/4/3
f 177/4/3 172/4/3 176/4/3
f 178/6/3 174/6/3 173/6/3
f 178/4/3 172/4/3 177/4/3
f 178/6/3 173/6/3 172/6/3
f 179/4/3 175/4/3 174/4/3
f 179/6/3 174/6/3 178/6/3
f 180/4/3 168/4/3 175/4/3
f 180/4/3 175/4/3 179/4/3
f 181/6/3 169/6/3 168/6/3
f 181/4/3 168/4/3 180/4/3
f 182/6/3 177/6/3 176/6/3
f 182/6/3 176/6/3 161/6/3
f 183/4/3 180/4/3 179/4/3
f 183/6/3 177/6/3 182/6/3
f 183/4/3 179/4/3 178/4/3
f 183/4/3 178/4/3 177/4/3
f 184/6/3 181/6/3 180/6/3
f 184/4/3 180/4/3 183/4/3
f 185/4/3 163/4/3 169/4/3
f 185/6/3 181/6/3 184/6/3
f 185/6/3 169/6/3 181/6/3
f 186/4/3 163/4/3 185/4/3
f 189/5/3 188/5/3 187/5/3
f 190/5/3 188/5/3 189/5/3
f 194/4/3 192/4/3 191/4/3
f 195/4/3 192/4/3 194/4/3
f 196/2/3 193/2/3 192/2/3
f 196/4/3 192/4/3 195/4/3
f 197/2/3 193/2/3 196/2/3
f 198/4/3 194/4/3 191/4/3
f 199/6/3 195/6/3 194/6/3
f 199/4/3 194/4/3 198/4/3
f 200/6/3 199/6/3 198/6/3
f 201/6/3 195/6/3 199/6/3
f 201/6/3 199/6/3 200/6/3
f 204/4/3 203/4/3 202/4/3
f 207/4/3 204/4/3 202/4/3
f 207/4/3 205/4/3 204/4/3
f 208/2/3 206/2/3 205/2/3
f 208/4/3 205/4/3 207/4/3
f 209/2/3 206/2/3 208/2/3
f 212/5/3 211/5/3 210/5/3
f 213/5/3 211/5/3 212/5/3
f 216/5/3 215/5/3 214/5/3
f 217/5/3 215/5/3 216/5/3
f 218/5/4 219/5/4 220/5/4
f 220/5/4 219/5/4 221/5/4
f 222/5/4 223/5/4 224/5/4
f 224/5/4 223/5/4 225/5/4
f 226/4/4 227/4/4 229/4/4
f 229/4/4 227/4/4 230/4/4
f 226/4/4 229/4/4 231/4/4
f 229/6/4 230/6/4 232/6/4
f 231/4/4 229/4/4 232/4/4
f 230/4/4 227/4/4 233/4/4
f 232/6/4 230/6/4 233/6/4
f 227/1/4 228/1/4 234/1/4
f 233/4/4 227/4/4 234/4/4
f 234/1/4 228/1/4 235/1/4
f 232/6/4 233/6/4 236/6/4
f 231/6/4 232/6/4 236/6/4
f 236/6/4 233/6/4 237/6/4
f 238/4/4 239/4/4 240/4/4
f 238/4/4 240/4/4 243/4/4
f 240/4/4 241/4/4 243/4/4
f 241/1/4 242/1/4 244/1/4
f 243/4/4 241/4/4 244/4/4
f 244/1/4 242/1/4 245/1/4
f 246/5/4 247/5/4 248/5/4
f 248/5/4 247/5/4 249/5/4
f 250/6/4 251/6/4 253/6/4
f 251/4/4 252/4/4 253/4/4
f 253/4/4 252/4/4 254/4/4
f 254/4/4 252/4/4 255/4/4
f 255/4/4 252/4/4 256/4/4
f 250/6/4 253/6/4 257/6/4
f 253/6/4 254/6/4 257/6/4
f 254/4/4 255/4/4 258/4/4
f 257/6/4 254/6/4 258/6/4
f 255/6/4 256/6/4 259/6/4
f 258/4/4 255/4/4 259/4/4
f 259/6/4 256/6/4 260/6/4
f 257/4/4 258/4/4 261/4/4
f 250/6/4 257/6/4 261/6/4
f 259/4/4 260/4/4 261/4/4
f 258/4/4 259/4/4 261/4/4
f 261/4/4 260/4/4 262/4/4
f 260/6/4 256/6/4 263/6/4
f 262/4/4 260/4/4 263/4/4
f 256/4/4 252/4/4 264/4/4
f 263/6/4 256/6/4 264/6/4
f 261/6/4 262/6/4 265/6/4
f 250/6/4 261/6/4 265/6/4
f 262/4/4 263/4/4 266/4/4
f 265/6/4 262/6/4 266/6/4
f 263/4/4 264/4/4 266/4/4
f 264/4/4 252/4/4 267/4/4
f 266/4/4 264/4/4 267/4/4
f 268/5/4 269/5/4 270/5/4
f 270/5/4 269/5/4 271/5/4
f 272/5/4 273/5/4 275/5/4
f 274/5/4 275/5/4 276/5/4
f 275/5/4 273/5/4 277/5/4
f 276/5/4 275/5/4 277/5/4
f 277/5/4 273/5/4 278/5/4
f 278/5/4 273/5/4 279/5/4
f 280/5/4 281/5/4 282/5/4
f 282/5/4 281/5/4 283/5/4
f 284/5/4 285/5/4 286/5/4
f 286/5/4 285/5/4 287/5/4
f 292/5/5 289/5/5 288/5/5
f 293/5/5 291/5/5 290/5/5
f 295/5/5 292/5/5 288/5/5
f 295/5/5 293/5/5 292/5/5
f 296/5/5 291/5/5 293/5/5
f 296/5/5 293/5/5 295/5/5
f 298/5/5 295/5/5 294/5/5
f 298/5/5 297/5/5 296/5/5
f 298/5/5 296/5/5 295/5/5
f 299/5/5 297/5/5 298/5/5
f 300/5/5 297/5/5 299/5/5
f 301/5/5 297/5/5 300/5/5
f 303/5/5 300/5/5 299/5/5
f 304/5/5 300/5/5 303/5/5
f 306/5/5 303/5/5 302/5/5
f 306/5/5 305/5/5 304/5/5
f 306/5/5 304/5/5 303/5/5
f 307/5/5 305/5/5 306/5/5
f 308/5/5 305/5/5 307/5/5
f 309/5/5 305/5/5 308/5/5
f 310/5/5 308/5/5 307/5/5
f 311/5/5 308/5/5 310/5/5
f 312/5/5 310/5/5 307/5/5
f 313/5/5 310/5/5 312/5/5
f 314/5/5 308/5/5 311/5/5
f 315/5/5 308/5/5 314/5/5
f 318/4/5 317/4/5 316/4/5
f 319/4/5 317/4/5 318/4/5
f 320/4/5 317/4/5 319/4/5
f 324/4/5 322/4/5 321/4/5
f 325/6/5 323/6/5 322/6/5
f 325/4/5 322/4/5 324/4/5
f 326/4/5 324/4/5 321/4/5
f 327/6/5 325/6/5 324/6/5
f 327/4/5 324/4/5 326/4/5
f 328/6/5 323/6/5 325/6/5
f 328/6/5 325/6/5 327/6/5
f 329/5/6 330/5/6 333/5/6
f 333/5/6 330/5/6 334/5/6
f 331/5/6 332/5/6 335/5/6
f 335/5/6 332/5/6 336/5/6
f 337/5/6 338/5/6 341/5/6
f 341/5/6 338/5/6 342/5/6
f 339/5/6 340/5/6 343/5/6
f 343/5/6 340/5/6 344/5/6
f 345/5/6 346/5/6 349/5/6
f 349/5/6 346/5/6 350/5/6
f 347/5/6 348/5/6 351/5/6
f 351/5/6 348/5/6 352/5/6
f 353/5/6 354/5/6 357/5/6
f 357/5/6 354/5/6 358/5/6
f 355/5/6 356/5/6 359/5/6
f 359/5/6 356/5/6 360/5/6
f 361/5/6 362/5/6 363/5/6
f 363/5/6 362/5/6 364/5/6
f 361/5/6 363/5/6 365/5/6
f 364/5/6 362/5/6 366/5/6
f 361/5/6 365/5/6 367/5/6
f 365/5/6 366/5/6 367/5/6
f 366/5/6 362/5/6 368/5/6
f 367/5/6 366/5/6 368/5/6
f 369/4/6 370/4/6 371/4/6
f 371/4/6 370/4/6 372/4/6
f 375/2/6 376/2/6 377/2/6
f 377/2/6 376/2/6 378/2/6
f 373/6/6 374/6/6 379/6/6
f 379/6/6 374/6/6 380/6/6
f 377/1/6 378/1/6 381/1/6
f 381/1/6 378/1/6 382/1/6
f 383/2/6 384/2/6 385/2/6
f 385/2/6 384/2/6 386/2/6
f 385/1/6 386/1/6 387/1/6
f 387/1/6 386/1/6 388/1/6
f 389/4/6 390/4/6 391/4/6
f 391/4/6 390/4/6 392/4/6
f 389/4/6 391/4/6 393/4/6
f 391/1/6 392/1/6 393/1/6
f 392/4/6 390/4/6 394/4/6
f 393/1/6 392/1/6 394/1/6
f 389/4/6 393/4/6 395/4/6
f 393/4/6 394/4/6 395/4/6
f 394/4/6 390/4/6 396/4/6
f 395/4/6 394/4/6 396/4/6
