# MagicaVoxel @ Ephtracy

# group
o 

# material
mtllib Trees-4.mtl
usemtl palette

# normals
vn -1 0 0
vn 1 0 0
vn 0 0 1
vn 0 0 -1
vn 0 -1 0
vn 0 1 0

# texcoords
vt 0.974609 0.5
vt 0.978516 0.5
vt 0.986328 0.5

# verts
v -11 0 0
v -11 0 -0.1
v -11 0.1 0
v -11 0.1 -0.1
v -10.9 0 0.1
v -10.9 0 0
v -10.9 0 -0.1
v -10.9 0 -0.2
v -10.9 0.1 0.1
v -10.9 0.1 0
v -10.9 0.1 -0.1
v -10.9 0.1 -0.2
v -10.8 0 0.2
v -10.8 0 0.1
v -10.8 0 -0.2
v -10.8 0 -0.3
v -10.8 0.1 0.2
v -10.8 0.1 0.1
v -10.8 0.1 0
v -10.8 0.1 -0.1
v -10.8 0.1 -0.2
v -10.8 0.1 -0.3
v -10.8 0.2 0.1
v -10.8 0.2 0
v -10.8 0.3 0.1
v -10.8 0.3 0
v -10.8 0.4 0.1
v -10.8 0.4 0
v -10.8 0.5 0.1
v -10.8 0.5 0
v -10.8 0.6 0
v -10.8 0.6 -0.1
v -10.6 0.6 0
v -10.6 0.6 -0.1
v -10.6 0.8 0
v -10.6 0.8 -0.1
v -10.7 0 0.2
v -10.7 0 0.1
v -10.7 0 -0.2
v -10.7 0 -0.3
v -10.7 0.1 0.2
v -10.7 0.1 0.1
v -10.7 0.1 -0.2
v -10.7 0.1 -0.3
v -10.7 0.2 0.1
v -10.7 0.2 0
v -10.7 0.2 -0.1
v -10.7 0.3 0.1
v -10.7 0.3 0
v -10.7 0.3 -0.1
v -10.7 0.4 0.1
v -10.7 0.4 0
v -10.7 0.4 -0.1
v -10.7 0.5 0.1
v -10.7 0.5 0
v -10.7 0.5 -0.1
v -10.6 0 0.1
v -10.6 0 0
v -10.6 0 -0.1
v -10.6 0 -0.2
v -10.6 0.1 0.1
v -10.6 0.1 0
v -10.6 0.1 -0.1
v -10.6 0.1 -0.2
v -10.6 0.2 0
v -10.6 0.2 -0.1
v -10.6 0.3 0
v -10.6 0.3 -0.1
v -10.6 0.4 0
v -10.6 0.4 -0.1
v -10.6 0.5 0
v -10.6 0.5 -0.1
v -10.6 0.6 0
v -10.6 0.6 -0.1
v -10.5 0 0
v -10.5 0 -0.1
v -10.5 0.1 0
v -10.5 0.1 -0.1
v -10.5 0.7 0
v -10.5 0.7 -0.1
v -10.5 0.8 0
v -10.5 0.8 -0.1
v -10.4 0.6 0
v -10.4 0.6 -0.1
v -10.4 0.7 0
v -10.4 0.7 -0.1
v -10.8 0 0.2
v -10.8 0.1 0.2
v -10.7 0 0.2
v -10.7 0.1 0.2
v -10.9 0 0.1
v -10.9 0.1 0.1
v -10.8 0 0.1
v -10.8 0.1 0.1
v -10.8 0.2 0.1
v -10.8 0.3 0.1
v -10.8 0.4 0.1
v -10.8 0.5 0.1
v -10.7 0 0.1
v -10.7 0.1 0.1
v -10.7 0.2 0.1
v -10.7 0.3 0.1
v -10.7 0.4 0.1
v -10.7 0.5 0.1
v -10.6 0 0.1
v -10.6 0.1 0.1
v -11 0 0
v -11 0.1 0
v -10.9 0 0
v -10.9 0.1 0
v -10.8 0.1 0
v -10.8 0.2 0
v -10.8 0.3 0
v -10.8 0.4 0
v -10.8 0.5 0
v -10.8 0.6 0
v -10.7 0.1 0
v -10.7 0.2 0
v -10.7 0.3 0
v -10.7 0.4 0
v -10.7 0.5 0
v -10.7 0.6 0
v -10.6 0 0
v -10.6 0.1 0
v -10.6 0.2 0
v -10.6 0.3 0
v -10.6 0.4 0
v -10.6 0.5 0
v -10.6 0.6 0
v -10.6 0.8 0
v -10.5 0 0
v -10.5 0.1 0
v -10.5 0.7 0
v -10.5 0.8 0
v -10.4 0.6 0
v -10.4 0.7 0
v -11 0 -0.1
v -11 0.1 -0.1
v -10.9 0 -0.1
v -10.9 0.1 -0.1
v -10.8 0.1 -0.1
v -10.8 0.6 -0.1
v -10.7 0.1 -0.1
v -10.7 0.2 -0.1
v -10.7 0.3 -0.1
v -10.7 0.4 -0.1
v -10.7 0.5 -0.1
v -10.7 0.6 -0.1
v -10.6 0 -0.1
v -10.6 0.1 -0.1
v -10.6 0.2 -0.1
v -10.6 0.3 -0.1
v -10.6 0.4 -0.1
v -10.6 0.5 -0.1
v -10.6 0.6 -0.1
v -10.6 0.8 -0.1
v -10.5 0 -0.1
v -10.5 0.1 -0.1
v -10.5 0.7 -0.1
v -10.5 0.8 -0.1
v -10.4 0.6 -0.1
v -10.4 0.7 -0.1
v -10.9 0 -0.2
v -10.9 0.1 -0.2
v -10.8 0 -0.2
v -10.8 0.1 -0.2
v -10.7 0 -0.2
v -10.7 0.1 -0.2
v -10.6 0 -0.2
v -10.6 0.1 -0.2
v -10.8 0 -0.3
v -10.8 0.1 -0.3
v -10.7 0 -0.3
v -10.7 0.1 -0.3
v -10.8 0 0.2
v -10.7 0 0.2
v -10.9 0 0.1
v -10.8 0 0.1
v -10.7 0 0.1
v -10.6 0 0.1
v -11 0 0
v -10.9 0 0
v -10.6 0 0
v -10.5 0 0
v -11 0 -0.1
v -10.9 0 -0.1
v -10.6 0 -0.1
v -10.5 0 -0.1
v -10.9 0 -0.2
v -10.8 0 -0.2
v -10.7 0 -0.2
v -10.6 0 -0.2
v -10.8 0 -0.3
v -10.7 0 -0.3
v -10.8 0.2 0.1
v -10.7 0.2 0.1
v -10.8 0.2 0
v -10.7 0.2 0
v -10.7 0.3 0
v -10.6 0.3 0
v -10.7 0.3 -0.1
v -10.6 0.3 -0.1
v -10.8 0.4 0.1
v -10.7 0.4 0.1
v -10.8 0.4 0
v -10.7 0.4 0
v -10.7 0.5 0
v -10.6 0.5 0
v -10.7 0.5 -0.1
v -10.6 0.5 -0.1
v -10.6 0.6 0
v -10.4 0.6 0
v -10.6 0.6 -0.1
v -10.4 0.6 -0.1
v -10.8 0.1 0.2
v -10.7 0.1 0.2
v -10.9 0.1 0.1
v -10.8 0.1 0.1
v -10.7 0.1 0.1
v -10.6 0.1 0.1
v -11 0.1 0
v -10.9 0.1 0
v -10.8 0.1 0
v -10.7 0.1 0
v -10.6 0.1 0
v -10.5 0.1 0
v -11 0.1 -0.1
v -10.9 0.1 -0.1
v -10.8 0.1 -0.1
v -10.7 0.1 -0.1
v -10.6 0.1 -0.1
v -10.5 0.1 -0.1
v -10.9 0.1 -0.2
v -10.8 0.1 -0.2
v -10.7 0.1 -0.2
v -10.6 0.1 -0.2
v -10.8 0.1 -0.3
v -10.7 0.1 -0.3
v -10.7 0.2 0
v -10.6 0.2 0
v -10.7 0.2 -0.1
v -10.6 0.2 -0.1
v -10.8 0.3 0.1
v -10.7 0.3 0.1
v -10.8 0.3 0
v -10.7 0.3 0
v -10.7 0.4 0
v -10.6 0.4 0
v -10.7 0.4 -0.1
v -10.6 0.4 -0.1
v -10.8 0.5 0.1
v -10.7 0.5 0.1
v -10.8 0.5 0
v -10.7 0.5 0
v -10.8 0.6 0
v -10.7 0.6 0
v -10.6 0.6 0
v -10.8 0.6 -0.1
v -10.7 0.6 -0.1
v -10.6 0.6 -0.1
v -10.5 0.7 0
v -10.4 0.7 0
v -10.5 0.7 -0.1
v -10.4 0.7 -0.1
v -10.6 0.8 0
v -10.5 0.8 0
v -10.6 0.8 -0.1
v -10.5 0.8 -0.1

# faces
f 3/1/1 2/1/1 1/1/1
f 4/1/1 2/1/1 3/1/1
f 9/1/1 6/1/1 5/1/1
f 10/1/1 6/1/1 9/1/1
f 11/1/1 8/1/1 7/1/1
f 12/1/1 8/1/1 11/1/1
f 17/1/1 14/1/1 13/1/1
f 18/1/1 14/1/1 17/1/1
f 21/1/1 16/1/1 15/1/1
f 22/1/1 16/1/1 21/1/1
f 24/2/1 20/2/1 19/2/1
f 25/3/1 24/3/1 23/3/1
f 26/2/1 20/2/1 24/2/1
f 26/3/1 24/3/1 25/3/1
f 28/2/1 20/2/1 26/2/1
f 29/3/1 28/3/1 27/3/1
f 30/2/1 20/2/1 28/2/1
f 30/3/1 28/3/1 29/3/1
f 31/2/1 20/2/1 30/2/1
f 32/2/1 20/2/1 31/2/1
f 35/3/1 34/3/1 33/3/1
f 36/3/1 34/3/1 35/3/1
f 37/1/2 38/1/2 41/1/2
f 41/1/2 38/1/2 42/1/2
f 39/1/2 40/1/2 43/1/2
f 43/1/2 40/1/2 44/1/2
f 45/3/2 46/3/2 48/3/2
f 46/2/2 47/2/2 49/2/2
f 48/3/2 46/3/2 49/3/2
f 49/2/2 47/2/2 50/2/2
f 51/3/2 52/3/2 54/3/2
f 52/2/2 53/2/2 55/2/2
f 54/3/2 52/3/2 55/3/2
f 55/2/2 53/2/2 56/2/2
f 57/1/2 58/1/2 61/1/2
f 61/1/2 58/1/2 62/1/2
f 59/1/2 60/1/2 63/1/2
f 63/1/2 60/1/2 64/1/2
f 62/3/2 63/3/2 65/3/2
f 65/3/2 63/3/2 66/3/2
f 67/3/2 68/3/2 69/3/2
f 69/3/2 68/3/2 70/3/2
f 71/3/2 72/3/2 73/3/2
f 73/3/2 72/3/2 74/3/2
f 75/1/2 76/1/2 77/1/2
f 77/1/2 76/1/2 78/1/2
f 79/3/2 80/3/2 81/3/2
f 81/3/2 80/3/2 82/3/2
f 83/3/2 84/3/2 85/3/2
f 85/3/2 84/3/2 86/3/2
f 89/1/3 88/1/3 87/1/3
f 90/1/3 88/1/3 89/1/3
f 93/1/3 92/1/3 91/1/3
f 94/1/3 92/1/3 93/1/3
f 101/3/3 96/3/3 95/3/3
f 102/3/3 96/3/3 101/3/3
f 103/3/3 98/3/3 97/3/3
f 104/3/3 98/3/3 103/3/3
f 105/1/3 100/1/3 99/1/3
f 106/1/3 100/1/3 105/1/3
f 109/1/3 108/1/3 107/1/3
f 110/1/3 108/1/3 109/1/3
f 117/2/3 112/2/3 111/2/3
f 118/2/3 112/2/3 117/2/3
f 119/2/3 114/2/3 113/2/3
f 120/2/3 114/2/3 119/2/3
f 121/2/3 116/2/3 115/2/3
f 122/2/3 116/2/3 121/2/3
f 124/3/3 118/3/3 117/3/3
f 125/3/3 118/3/3 124/3/3
f 126/3/3 120/3/3 119/3/3
f 127/3/3 120/3/3 126/3/3
f 128/3/3 122/3/3 121/3/3
f 129/3/3 122/3/3 128/3/3
f 131/1/3 124/1/3 123/1/3
f 132/1/3 124/1/3 131/1/3
f 133/3/3 130/3/3 129/3/3
f 134/3/3 130/3/3 133/3/3
f 135/3/3 133/3/3 129/3/3
f 136/3/3 133/3/3 135/3/3
f 137/1/4 138/1/4 139/1/4
f 139/1/4 138/1/4 140/1/4
f 141/2/4 142/2/4 143/2/4
f 143/2/4 142/2/4 144/2/4
f 144/2/4 142/2/4 145/2/4
f 145/2/4 142/2/4 146/2/4
f 146/2/4 142/2/4 147/2/4
f 147/2/4 142/2/4 148/2/4
f 143/3/4 144/3/4 150/3/4
f 150/3/4 144/3/4 151/3/4
f 145/3/4 146/3/4 152/3/4
f 152/3/4 146/3/4 153/3/4
f 147/3/4 148/3/4 154/3/4
f 154/3/4 148/3/4 155/3/4
f 149/1/4 150/1/4 157/1/4
f 157/1/4 150/1/4 158/1/4
f 155/3/4 156/3/4 159/3/4
f 159/3/4 156/3/4 160/3/4
f 155/3/4 159/3/4 161/3/4
f 161/3/4 159/3/4 162/3/4
f 163/1/4 164/1/4 165/1/4
f 165/1/4 164/1/4 166/1/4
f 167/1/4 168/1/4 169/1/4
f 169/1/4 168/1/4 170/1/4
f 171/1/4 172/1/4 173/1/4
f 173/1/4 172/1/4 174/1/4
f 178/1/5 176/1/5 175/1/5
f 179/1/5 176/1/5 178/1/5
f 182/1/5 178/1/5 177/1/5
f 182/1/5 180/1/5 179/1/5
f 182/1/5 179/1/5 178/1/5
f 183/1/5 180/1/5 182/1/5
f 185/1/5 182/1/5 181/1/5
f 185/1/5 184/1/5 183/1/5
f 185/1/5 183/1/5 182/1/5
f 186/1/5 184/1/5 185/1/5
f 187/1/5 184/1/5 186/1/5
f 188/1/5 184/1/5 187/1/5
f 189/1/5 187/1/5 186/1/5
f 190/1/5 187/1/5 189/1/5
f 191/1/5 187/1/5 190/1/5
f 192/1/5 187/1/5 191/1/5
f 193/1/5 191/1/5 190/1/5
f 194/1/5 191/1/5 193/1/5
f 197/3/5 196/3/5 195/3/5
f 198/3/5 196/3/5 197/3/5
f 201/3/5 200/3/5 199/3/5
f 202/3/5 200/3/5 201/3/5
f 205/3/5 204/3/5 203/3/5
f 206/3/5 204/3/5 205/3/5
f 209/3/5 208/3/5 207/3/5
f 210/3/5 208/3/5 209/3/5
f 213/3/5 212/3/5 211/3/5
f 214/3/5 212/3/5 213/3/5
f 215/1/6 216/1/6 218/1/6
f 218/1/6 216/1/6 219/1/6
f 217/1/6 218/1/6 222/1/6
f 219/1/6 220/1/6 222/1/6
f 218/1/6 219/1/6 222/1/6
f 222/1/6 220/1/6 223/1/6
f 223/1/6 220/1/6 224/1/6
f 224/1/6 220/1/6 225/1/6
f 221/1/6 222/1/6 227/1/6
f 222/1/6 223/1/6 227/1/6
f 227/1/6 223/1/6 228/1/6
f 228/1/6 223/1/6 229/1/6
f 225/1/6 226/1/6 231/1/6
f 231/1/6 226/1/6 232/1/6
f 229/1/6 230/1/6 233/1/6
f 230/1/6 231/1/6 233/1/6
f 228/1/6 229/1/6 233/1/6
f 233/1/6 231/1/6 234/1/6
f 234/1/6 231/1/6 235/1/6
f 235/1/6 231/1/6 236/1/6
f 234/1/6 235/1/6 237/1/6
f 237/1/6 235/1/6 238/1/6
f 239/3/6 240/3/6 241/3/6
f 241/3/6 240/3/6 242/3/6
f 243/3/6 244/3/6 245/3/6
f 245/3/6 244/3/6 246/3/6
f 247/3/6 248/3/6 249/3/6
f 249/3/6 248/3/6 250/3/6
f 251/3/6 252/3/6 253/3/6
f 253/3/6 252/3/6 254/3/6
f 255/2/6 256/2/6 258/2/6
f 256/3/6 257/3/6 259/3/6
f 258/2/6 256/2/6 259/2/6
f 259/3/6 257/3/6 260/3/6
f 261/3/6 262/3/6 263/3/6
f 263/3/6 262/3/6 264/3/6
f 265/3/6 266/3/6 267/3/6
f 267/3/6 266/3/6 268/3/6
