# MagicaVoxel @ Ephtracy

# group
o 

# material
mtllib Trees-6.mtl
usemtl palette

# normals
vn -1 0 0
vn 1 0 0
vn 0 0 1
vn 0 0 -1
vn 0 -1 0
vn 0 1 0

# texcoords
vt 0.970703 0.5
vt 0.974609 0.5
vt 0.978516 0.5
vt 0.982422 0.5
vt 0.986328 0.5
vt 0.990234 0.5
vt 0.994141 0.5

# verts
v -8.3 1.7 0.5
v -8.3 1.7 -0.7
v -8.3 1.8 0.1
v -8.3 1.8 0
v -8.3 1.8 -0.4
v -8.3 1.8 -0.5
v -8.3 1.9 0.2
v -8.3 1.9 0.1
v -8.3 2 0.4
v -8.3 2 0.2
v -8.3 2 -0.2
v -8.3 2 -0.3
v -8.3 2 -0.5
v -8.3 2 -0.6
v -8.3 2.1 0
v -8.3 2.1 -0.1
v -8.3 2.1 -0.3
v -8.3 2.1 -0.4
v -8.3 2.2 -0.1
v -8.3 2.2 -0.2
v -8.3 2.2 -0.6
v -8.3 2.2 -0.7
v -8.3 2.3 0.5
v -8.3 2.3 0.4
v -8.3 2.5 0.5
v -8.3 2.5 0.2
v -8.3 2.5 -0.1
v -8.3 2.5 -0.7
v -8.3 2.6 0.2
v -8.3 2.6 -0.1
v -8.3 2.7 0.5
v -8.3 2.7 -0.7
v -8.2 1.2 0
v -8.2 1.2 -0.2
v -8.2 1.6 0
v -8.2 1.6 -0.2
v -8.2 1.7 0
v -8.2 1.7 -0.2
v -8.1 0 0.2
v -8.1 0 -0.4
v -8.1 0.1 0.2
v -8.1 0.1 -0.4
v -8 0 0.3
v -8 0 0.2
v -8 0 -0.4
v -8 0 -0.5
v -8 0.1 0.3
v -8 0.1 0.2
v -8 0.1 -0.4
v -8 0.1 -0.5
v -8 0.2 0.2
v -8 0.2 -0.4
v -7.9 0.2 0.1
v -7.9 0.2 -0.3
v -7.9 0.3 0
v -7.9 0.3 -0.1
v -7.9 0.4 -0.2
v -7.9 0.4 -0.3
v -7.9 0.5 0.1
v -7.9 0.5 0
v -7.9 0.5 -0.2
v -7.9 0.5 -0.3
v -7.9 0.7 0.1
v -7.9 0.7 -0.1
v -7.9 0.8 -0.1
v -7.9 0.8 -0.3
v -7.9 0.9 0.1
v -7.9 0.9 0
v -7.9 0.9 -0.1
v -7.9 0.9 -0.2
v -7.9 1 0.1
v -7.9 1 0
v -7.9 1.1 -0.2
v -7.9 1.1 -0.3
v -7.9 1.2 0
v -7.9 1.2 -0.2
v -7.9 1.4 0
v -7.9 1.4 -0.2
v -7.9 1.6 0.1
v -7.9 1.6 -0.3
v -7.9 1.7 0.1
v -7.9 1.7 -0.3
v -7.8 1.5 0.3
v -7.8 1.5 0.1
v -7.8 1.6 0.2
v -7.8 1.6 0.1
v -7.8 1.7 0.3
v -7.8 1.7 0.2
v -7.4 1.5 0
v -7.4 1.5 -0.2
v -7.4 1.6 0
v -7.4 1.6 -0.2
v -7.4 1.7 0
v -7.4 1.7 -0.2
v -8 1.4 0
v -8 1.4 -0.2
v -8 1.6 0
v -8 1.6 -0.2
v -8 1.7 0
v -8 1.7 -0.2
v -7.7 1.5 0.3
v -7.7 1.5 0.1
v -7.7 1.6 0.2
v -7.7 1.6 0.1
v -7.7 1.7 0.3
v -7.7 1.7 0.2
v -7.5 0.2 0.1
v -7.5 0.2 -0.3
v -7.5 0.3 -0.1
v -7.5 0.3 -0.2
v -7.5 0.4 0.1
v -7.5 0.4 0
v -7.5 0.5 -0.1
v -7.5 0.5 -0.2
v -7.5 0.5 -0.3
v -7.5 0.6 0
v -7.5 0.6 -0.1
v -7.5 0.6 -0.2
v -7.5 0.6 -0.3
v -7.5 0.7 0.1
v -7.5 0.7 -0.1
v -7.5 0.7 -0.2
v -7.5 0.7 -0.3
v -7.5 0.8 -0.2
v -7.5 0.8 -0.3
v -7.5 0.9 0
v -7.5 0.9 -0.1
v -7.5 1 0.1
v -7.5 1 0
v -7.5 1.1 0.1
v -7.5 1.1 0
v -7.5 1.1 -0.1
v -7.5 1.1 -0.2
v -7.5 1.2 0
v -7.5 1.2 -0.2
v -7.5 1.3 0
v -7.5 1.3 -0.2
v -7.5 1.3 -0.3
v -7.5 1.4 -0.2
v -7.5 1.4 -0.3
v -7.5 1.5 0
v -7.5 1.5 -0.2
v -7.5 1.6 0.1
v -7.5 1.6 -0.3
v -7.5 1.7 0.1
v -7.5 1.7 -0.3
v -7.4 0 0.3
v -7.4 0 0.2
v -7.4 0 -0.4
v -7.4 0 -0.5
v -7.4 0.1 0.3
v -7.4 0.1 0.2
v -7.4 0.1 -0.4
v -7.4 0.1 -0.5
v -7.4 0.2 0.2
v -7.4 0.2 -0.4
v -7.3 0 0.2
v -7.3 0 -0.4
v -7.3 0.1 0.2
v -7.3 0.1 -0.4
v -7.2 1.3 0
v -7.2 1.3 -0.2
v -7.2 1.6 0
v -7.2 1.6 -0.2
v -7.2 1.7 0
v -7.2 1.7 -0.2
v -7.1 1.7 0.5
v -7.1 1.7 -0.7
v -7.1 1.8 -0.5
v -7.1 1.8 -0.6
v -7.1 1.9 0.2
v -7.1 1.9 0.1
v -7.1 1.9 -0.1
v -7.1 1.9 -0.2
v -7.1 2 -0.3
v -7.1 2 -0.4
v -7.1 2.1 0.5
v -7.1 2.1 0.4
v -7.1 2.1 0.1
v -7.1 2.1 -0.1
v -7.1 2.2 -0.6
v -7.1 2.2 -0.7
v -7.1 2.3 0.4
v -7.1 2.3 0.2
v -7.1 2.3 -0.2
v -7.1 2.3 -0.3
v -7.1 2.3 -0.4
v -7.1 2.3 -0.5
v -7.1 2.5 0.5
v -7.1 2.5 -0.7
v -7.1 2.7 0.5
v -7.1 2.7 -0.7
v -8.3 1.7 0.5
v -8.3 2.3 0.5
v -8.3 2.5 0.5
v -8.3 2.7 0.5
v -8.2 2.3 0.5
v -8.2 2.5 0.5
v -8.1 2.2 0.5
v -8.1 2.5 0.5
v -8 2 0.5
v -8 2.2 0.5
v -7.9 1.9 0.5
v -7.9 2 0.5
v -7.8 1.9 0.5
v -7.8 2.3 0.5
v -7.7 2.2 0.5
v -7.7 2.3 0.5
v -7.6 2 0.5
v -7.6 2.2 0.5
v -7.6 2.5 0.5
v -7.6 2.6 0.5
v -7.5 2 0.5
v -7.5 2.4 0.5
v -7.5 2.5 0.5
v -7.5 2.6 0.5
v -7.4 2.3 0.5
v -7.4 2.4 0.5
v -7.3 2 0.5
v -7.3 2.3 0.5
v -7.2 2 0.5
v -7.2 2.1 0.5
v -7.1 1.7 0.5
v -7.1 2.1 0.5
v -7.1 2.5 0.5
v -7.1 2.7 0.5
v -8 0 0.3
v -8 0.1 0.3
v -7.8 1.5 0.3
v -7.8 1.7 0.3
v -7.7 1.5 0.3
v -7.7 1.7 0.3
v -7.4 0 0.3
v -7.4 0.1 0.3
v -8.1 0 0.2
v -8.1 0.1 0.2
v -8 0 0.2
v -8 0.1 0.2
v -8 0.2 0.2
v -7.4 0 0.2
v -7.4 0.1 0.2
v -7.4 0.2 0.2
v -7.3 0 0.2
v -7.3 0.1 0.2
v -7.9 0.2 0.1
v -7.9 0.5 0.1
v -7.9 0.7 0.1
v -7.9 0.9 0.1
v -7.9 1 0.1
v -7.9 1.6 0.1
v -7.9 1.7 0.1
v -7.8 0.5 0.1
v -7.8 0.7 0.1
v -7.8 1 0.1
v -7.8 1.2 0.1
v -7.8 1.5 0.1
v -7.8 1.6 0.1
v -7.7 0.4 0.1
v -7.7 0.5 0.1
v -7.7 0.9 0.1
v -7.7 1.2 0.1
v -7.7 1.5 0.1
v -7.7 1.6 0.1
v -7.6 0.5 0.1
v -7.6 0.7 0.1
v -7.6 1 0.1
v -7.6 1.1 0.1
v -7.5 0.2 0.1
v -7.5 0.4 0.1
v -7.5 0.7 0.1
v -7.5 1 0.1
v -7.5 1.1 0.1
v -7.5 1.6 0.1
v -7.5 1.7 0.1
v -8.2 1.2 0
v -8.2 1.6 0
v -8.2 1.7 0
v -8 1.4 0
v -8 1.6 0
v -8 1.7 0
v -7.9 1.2 0
v -7.9 1.4 0
v -7.5 1.3 0
v -7.5 1.5 0
v -7.4 1.5 0
v -7.4 1.6 0
v -7.4 1.7 0
v -7.2 1.3 0
v -7.2 1.6 0
v -7.2 1.7 0
v -7.8 1.6 0.2
v -7.8 1.7 0.2
v -7.7 1.6 0.2
v -7.7 1.7 0.2
v -8.2 1.2 -0.2
v -8.2 1.6 -0.2
v -8.2 1.7 -0.2
v -8 1.4 -0.2
v -8 1.6 -0.2
v -8 1.7 -0.2
v -7.9 1.2 -0.2
v -7.9 1.4 -0.2
v -7.5 1.3 -0.2
v -7.5 1.4 -0.2
v -7.5 1.5 -0.2
v -7.4 1.5 -0.2
v -7.4 1.6 -0.2
v -7.4 1.7 -0.2
v -7.2 1.3 -0.2
v -7.2 1.6 -0.2
v -7.2 1.7 -0.2
v -7.9 0.2 -0.3
v -7.9 0.4 -0.3
v -7.9 0.5 -0.3
v -7.9 0.8 -0.3
v -7.9 1.1 -0.3
v -7.9 1.6 -0.3
v -7.9 1.7 -0.3
v -7.8 0.3 -0.3
v -7.8 0.4 -0.3
v -7.8 0.5 -0.3
v -7.8 0.6 -0.3
v -7.8 0.8 -0.3
v -7.8 1.1 -0.3
v -7.7 0.3 -0.3
v -7.7 0.6 -0.3
v -7.7 0.7 -0.3
v -7.7 1 -0.3
v -7.7 1.2 -0.3
v -7.7 1.4 -0.3
v -7.6 0.5 -0.3
v -7.6 0.6 -0.3
v -7.6 0.8 -0.3
v -7.6 1 -0.3
v -7.6 1.2 -0.3
v -7.6 1.3 -0.3
v -7.5 0.2 -0.3
v -7.5 0.5 -0.3
v -7.5 0.6 -0.3
v -7.5 0.7 -0.3
v -7.5 0.8 -0.3
v -7.5 1.3 -0.3
v -7.5 1.4 -0.3
v -7.5 1.6 -0.3
v -7.5 1.7 -0.3
v -8.1 0 -0.4
v -8.1 0.1 -0.4
v -8 0 -0.4
v -8 0.1 -0.4
v -8 0.2 -0.4
v -7.4 0 -0.4
v -7.4 0.1 -0.4
v -7.4 0.2 -0.4
v -7.3 0 -0.4
v -7.3 0.1 -0.4
v -8 0 -0.5
v -8 0.1 -0.5
v -7.4 0 -0.5
v -7.4 0.1 -0.5
v -8.3 1.7 -0.7
v -8.3 2.2 -0.7
v -8.3 2.5 -0.7
v -8.3 2.7 -0.7
v -8.2 1.8 -0.7
v -8.2 2.2 -0.7
v -8.1 1.8 -0.7
v -8.1 2 -0.7
v -8 2 -0.7
v -8 2.1 -0.7
v -7.9 2 -0.7
v -7.9 2.1 -0.7
v -7.8 1.9 -0.7
v -7.8 2 -0.7
v -7.7 1.9 -0.7
v -7.7 2.3 -0.7
v -7.6 1.8 -0.7
v -7.6 2.3 -0.7
v -7.5 1.8 -0.7
v -7.5 2.3 -0.7
v -7.4 2 -0.7
v -7.4 2.3 -0.7
v -7.3 2 -0.7
v -7.3 2.1 -0.7
v -7.2 2.1 -0.7
v -7.2 2.2 -0.7
v -7.1 1.7 -0.7
v -7.1 2.2 -0.7
v -7.1 2.5 -0.7
v -7.1 2.7 -0.7
v -8 0 0.3
v -7.4 0 0.3
v -8.1 0 0.2
v -8 0 0.2
v -7.4 0 0.2
v -7.3 0 0.2
v -8.1 0 -0.4
v -8 0 -0.4
v -7.4 0 -0.4
v -7.3 0 -0.4
v -8 0 -0.5
v -7.4 0 -0.5
v -8.2 1.2 0
v -7.9 1.2 0
v -8.2 1.2 -0.2
v -7.9 1.2 -0.2
v -7.5 1.3 0
v -7.2 1.3 0
v -7.5 1.3 -0.2
v -7.2 1.3 -0.2
v -7.8 1.5 0.3
v -7.7 1.5 0.3
v -7.8 1.5 0.1
v -7.7 1.5 0.1
v -8.3 1.7 0.5
v -7.1 1.7 0.5
v -7.8 1.7 0.3
v -7.7 1.7 0.3
v -7.8 1.7 0.2
v -7.7 1.7 0.2
v -7.9 1.7 0.1
v -7.5 1.7 0.1
v -8.2 1.7 0
v -8 1.7 0
v -7.4 1.7 0
v -7.2 1.7 0
v -8.2 1.7 -0.2
v -8 1.7 -0.2
v -7.4 1.7 -0.2
v -7.2 1.7 -0.2
v -7.9 1.7 -0.3
v -7.5 1.7 -0.3
v -8.3 1.7 -0.7
v -7.1 1.7 -0.7
v -8 0.1 0.3
v -7.4 0.1 0.3
v -8.1 0.1 0.2
v -8 0.1 0.2
v -7.4 0.1 0.2
v -7.3 0.1 0.2
v -8.1 0.1 -0.4
v -8 0.1 -0.4
v -7.4 0.1 -0.4
v -7.3 0.1 -0.4
v -8 0.1 -0.5
v -7.4 0.1 -0.5
v -8 0.2 0.2
v -7.4 0.2 0.2
v -7.9 0.2 0.1
v -7.5 0.2 0.1
v -7.9 0.2 -0.3
v -7.5 0.2 -0.3
v -8 0.2 -0.4
v -7.4 0.2 -0.4
v -8 1.4 0
v -7.9 1.4 0
v -8 1.4 -0.2
v -7.9 1.4 -0.2
v -7.5 1.5 0
v -7.4 1.5 0
v -7.5 1.5 -0.2
v -7.4 1.5 -0.2
v -7.8 1.6 0.2
v -7.7 1.6 0.2
v -7.8 1.6 0.1
v -7.7 1.6 0.1
v -8.3 2.7 0.5
v -7.1 2.7 0.5
v -8.3 2.7 -0.7
v -7.1 2.7 -0.7

# faces
f 3/4/1 2/4/1 1/4/1
f 4/4/1 2/4/1 3/4/1
f 5/4/1 2/4/1 4/4/1
f 6/4/1 2/4/1 5/4/1
f 7/4/1 3/4/1 1/4/1
f 8/7/1 4/7/1 3/7/1
f 8/4/1 3/4/1 7/4/1
f 9/4/1 7/4/1 1/4/1
f 10/7/1 8/7/1 7/7/1
f 10/4/1 7/4/1 9/4/1
f 11/4/1 5/4/1 4/4/1
f 12/4/1 5/4/1 11/4/1
f 13/4/1 2/4/1 6/4/1
f 13/7/1 6/7/1 5/7/1
f 14/4/1 2/4/1 13/4/1
f 15/7/1 4/7/1 8/7/1
f 15/7/1 8/7/1 10/7/1
f 15/7/1 10/7/1 9/7/1
f 15/4/1 11/4/1 4/4/1
f 16/4/1 11/4/1 15/4/1
f 17/4/1 5/4/1 12/4/1
f 17/7/1 12/7/1 11/7/1
f 18/7/1 14/7/1 13/7/1
f 18/4/1 5/4/1 17/4/1
f 18/7/1 13/7/1 5/7/1
f 19/4/1 11/4/1 16/4/1
f 19/7/1 16/7/1 15/7/1
f 20/7/1 17/7/1 11/7/1
f 20/4/1 11/4/1 19/4/1
f 20/7/1 18/7/1 17/7/1
f 21/7/1 14/7/1 18/7/1
f 21/7/1 18/7/1 20/7/1
f 21/4/1 2/4/1 14/4/1
f 22/4/1 2/4/1 21/4/1
f 23/4/1 9/4/1 1/4/1
f 24/7/1 20/7/1 19/7/1
f 24/4/1 9/4/1 23/4/1
f 24/7/1 19/7/1 15/7/1
f 24/7/1 22/7/1 21/7/1
f 24/7/1 21/7/1 20/7/1
f 24/7/1 15/7/1 9/7/1
f 25/7/1 24/7/1 23/7/1
f 26/7/1 22/7/1 24/7/1
f 26/7/1 24/7/1 25/7/1
f 27/7/1 22/7/1 26/7/1
f 28/7/1 22/7/1 27/7/1
f 29/5/1 26/5/1 25/5/1
f 29/7/1 27/7/1 26/7/1
f 30/5/1 28/5/1 27/5/1
f 30/7/1 27/7/1 29/7/1
f 31/5/1 29/5/1 25/5/1
f 31/5/1 30/5/1 29/5/1
f 32/5/1 28/5/1 30/5/1
f 32/5/1 30/5/1 31/5/1
f 35/2/1 34/2/1 33/2/1
f 36/2/1 34/2/1 35/2/1
f 37/6/1 36/6/1 35/6/1
f 38/6/1 36/6/1 37/6/1
f 41/3/1 40/3/1 39/3/1
f 42/3/1 40/3/1 41/3/1
f 47/3/1 44/3/1 43/3/1
f 48/3/1 44/3/1 47/3/1
f 49/3/1 46/3/1 45/3/1
f 50/3/1 46/3/1 49/3/1
f 51/3/1 49/3/1 48/3/1
f 52/3/1 49/3/1 51/3/1
f 55/2/1 54/2/1 53/2/1
f 56/2/1 54/2/1 55/2/1
f 57/2/1 54/2/1 56/2/1
f 58/2/1 54/2/1 57/2/1
f 59/2/1 55/2/1 53/2/1
f 60/6/1 56/6/1 55/6/1
f 60/2/1 55/2/1 59/2/1
f 61/2/1 57/2/1 56/2/1
f 61/6/1 58/6/1 57/6/1
f 62/6/1 58/6/1 61/6/1
f 63/6/1 60/6/1 59/6/1
f 64/6/1 56/6/1 60/6/1
f 64/6/1 60/6/1 63/6/1
f 64/2/1 61/2/1 56/2/1
f 64/2/1 62/2/1 61/2/1
f 65/2/1 64/2/1 63/2/1
f 65/2/1 62/2/1 64/2/1
f 66/2/1 62/2/1 65/2/1
f 67/2/1 65/2/1 63/2/1
f 68/2/1 65/2/1 67/2/1
f 69/6/1 66/6/1 65/6/1
f 69/2/1 65/2/1 68/2/1
f 70/6/1 66/6/1 69/6/1
f 71/6/1 68/6/1 67/6/1
f 72/2/1 69/2/1 68/2/1
f 72/6/1 68/6/1 71/6/1
f 72/2/1 70/2/1 69/2/1
f 73/6/1 66/6/1 70/6/1
f 73/2/1 70/2/1 72/2/1
f 73/2/1 72/2/1 71/2/1
f 74/6/1 66/6/1 73/6/1
f 75/2/1 73/2/1 71/2/1
f 75/2/1 74/2/1 73/2/1
f 76/2/1 74/2/1 75/2/1
f 77/2/1 75/2/1 71/2/1
f 78/2/1 74/2/1 76/2/1
f 79/2/1 77/2/1 71/2/1
f 79/2/1 78/2/1 77/2/1
f 80/2/1 74/2/1 78/2/1
f 80/2/1 78/2/1 79/2/1
f 81/6/1 80/6/1 79/6/1
f 82/6/1 80/6/1 81/6/1
f 85/2/1 84/2/1 83/2/1
f 86/2/1 84/2/1 85/2/1
f 87/2/1 85/2/1 83/2/1
f 88/2/1 85/2/1 87/2/1
f 91/2/1 90/2/1 89/2/1
f 92/2/1 90/2/1 91/2/1
f 93/6/1 92/6/1 91/6/1
f 94/6/1 92/6/1 93/6/1
f 95/2/2 96/2/2 97/2/2
f 97/2/2 96/2/2 98/2/2
f 97/6/2 98/6/2 99/6/2
f 99/6/2 98/6/2 100/6/2
f 101/2/2 102/2/2 103/2/2
f 103/2/2 102/2/2 104/2/2
f 101/2/2 103/2/2 105/2/2
f 105/2/2 103/2/2 106/2/2
f 107/2/2 108/2/2 109/2/2
f 109/2/2 108/2/2 110/2/2
f 107/2/2 109/2/2 111/2/2
f 111/2/2 109/2/2 112/2/2
f 109/6/2 110/6/2 113/6/2
f 112/2/2 109/2/2 113/2/2
f 110/2/2 108/2/2 114/2/2
f 113/6/2 110/6/2 114/6/2
f 114/2/2 108/2/2 115/2/2
f 112/2/2 113/2/2 116/2/2
f 111/6/2 112/6/2 116/6/2
f 113/2/2 114/2/2 116/2/2
f 116/2/2 114/2/2 117/2/2
f 114/6/2 115/6/2 118/6/2
f 117/2/2 114/2/2 118/2/2
f 118/6/2 115/6/2 119/6/2
f 116/6/2 117/6/2 120/6/2
f 111/6/2 116/6/2 120/6/2
f 118/2/2 119/2/2 121/2/2
f 120/6/2 117/6/2 121/6/2
f 117/2/2 118/2/2 121/2/2
f 121/2/2 119/2/2 122/2/2
f 122/2/2 119/2/2 123/2/2
f 120/2/2 121/2/2 124/2/2
f 121/2/2 122/2/2 124/2/2
f 122/6/2 123/6/2 124/6/2
f 124/6/2 123/6/2 125/6/2
f 120/2/2 124/2/2 126/2/2
f 124/2/2 125/2/2 126/2/2
f 126/2/2 125/2/2 127/2/2
f 120/2/2 126/2/2 128/2/2
f 126/6/2 127/6/2 129/6/2
f 128/2/2 126/2/2 129/2/2
f 128/6/2 129/6/2 130/6/2
f 129/6/2 127/6/2 131/6/2
f 130/6/2 129/6/2 131/6/2
f 127/2/2 125/2/2 132/2/2
f 131/6/2 127/6/2 132/6/2
f 132/2/2 125/2/2 133/2/2
f 130/2/2 131/2/2 134/2/2
f 131/6/2 132/6/2 134/6/2
f 132/6/2 133/6/2 134/6/2
f 133/2/2 125/2/2 135/2/2
f 134/6/2 133/6/2 135/6/2
f 130/2/2 134/2/2 136/2/2
f 134/2/2 135/2/2 136/2/2
f 135/2/2 125/2/2 137/2/2
f 136/2/2 135/2/2 137/2/2
f 137/2/2 125/2/2 138/2/2
f 137/6/2 138/6/2 139/6/2
f 139/6/2 138/6/2 140/6/2
f 130/2/2 136/2/2 141/2/2
f 139/2/2 140/2/2 142/2/2
f 130/2/2 141/2/2 143/2/2
f 141/2/2 142/2/2 143/2/2
f 142/2/2 140/2/2 144/2/2
f 143/2/2 142/2/2 144/2/2
f 143/6/2 144/6/2 145/6/2
f 145/6/2 144/6/2 146/6/2
f 147/3/2 148/3/2 151/3/2
f 151/3/2 148/3/2 152/3/2
f 149/3/2 150/3/2 153/3/2
f 153/3/2 150/3/2 154/3/2
f 152/3/2 153/3/2 155/3/2
f 155/3/2 153/3/2 156/3/2
f 157/3/2 158/3/2 159/3/2
f 159/3/2 158/3/2 160/3/2
f 161/2/2 162/2/2 163/2/2
f 163/2/2 162/2/2 164/2/2
f 163/6/2 164/6/2 165/6/2
f 165/6/2 164/6/2 166/6/2
f 167/4/2 168/4/2 169/4/2
f 169/4/2 168/4/2 170/4/2
f 167/4/2 169/4/2 171/4/2
f 171/4/2 169/4/2 172/4/2
f 172/4/2 169/4/2 173/4/2
f 173/4/2 169/4/2 174/4/2
f 174/4/2 169/4/2 175/4/2
f 175/4/2 169/4/2 176/4/2
f 167/4/2 171/4/2 177/4/2
f 177/4/2 171/4/2 178/4/2
f 171/7/2 172/7/2 179/7/2
f 172/4/2 173/4/2 179/4/2
f 173/7/2 174/7/2 180/7/2
f 179/4/2 173/4/2 180/4/2
f 170/4/2 168/4/2 181/4/2
f 169/7/2 170/7/2 181/7/2
f 181/4/2 168/4/2 182/4/2
f 178/4/2 171/4/2 183/4/2
f 177/7/2 178/7/2 183/7/2
f 179/7/2 180/7/2 184/7/2
f 183/4/2 171/4/2 184/4/2
f 171/7/2 179/7/2 184/7/2
f 180/7/2 174/7/2 185/7/2
f 184/7/2 180/7/2 185/7/2
f 174/4/2 175/4/2 185/4/2
f 175/7/2 176/7/2 186/7/2
f 185/4/2 175/4/2 186/4/2
f 176/4/2 169/4/2 187/4/2
f 186/7/2 176/7/2 187/7/2
f 181/7/2 182/7/2 188/7/2
f 187/4/2 169/4/2 188/4/2
f 169/7/2 181/7/2 188/7/2
f 183/7/2 184/7/2 189/7/2
f 177/7/2 183/7/2 189/7/2
f 187/7/2 188/7/2 189/7/2
f 185/7/2 186/7/2 189/7/2
f 184/7/2 185/7/2 189/7/2
f 186/7/2 187/7/2 189/7/2
f 188/7/2 182/7/2 190/7/2
f 189/7/2 188/7/2 190/7/2
f 189/5/2 190/5/2 191/5/2
f 191/5/2 190/5/2 192/5/2
f 197/4/3 194/4/3 193/4/3
f 197/7/3 195/7/3 194/7/3
f 198/5/3 196/5/3 195/5/3
f 198/7/3 195/7/3 197/7/3
f 199/4/3 197/4/3 193/4/3
f 199/4/3 198/4/3 197/4/3
f 200/5/3 196/5/3 198/5/3
f 200/4/3 198/4/3 199/4/3
f 201/4/3 199/4/3 193/4/3
f 202/7/3 200/7/3 199/7/3
f 202/4/3 199/4/3 201/4/3
f 203/4/3 201/4/3 193/4/3
f 204/7/3 202/7/3 201/7/3
f 204/4/3 201/4/3 203/4/3
f 205/4/3 203/4/3 193/4/3
f 205/7/3 204/7/3 203/7/3
f 206/7/3 200/7/3 202/7/3
f 206/7/3 204/7/3 205/7/3
f 206/7/3 202/7/3 204/7/3
f 207/4/3 206/4/3 205/4/3
f 208/7/3 200/7/3 206/7/3
f 208/4/3 206/4/3 207/4/3
f 209/4/3 207/4/3 205/4/3
f 210/7/3 208/7/3 207/7/3
f 210/4/3 207/4/3 209/4/3
f 211/5/3 196/5/3 200/5/3
f 211/7/3 208/7/3 210/7/3
f 211/7/3 200/7/3 208/7/3
f 212/5/3 196/5/3 211/5/3
f 213/7/3 210/7/3 209/7/3
f 213/4/3 209/4/3 205/4/3
f 213/7/3 212/7/3 211/7/3
f 213/7/3 211/7/3 210/7/3
f 214/7/3 212/7/3 213/7/3
f 215/7/3 212/7/3 214/7/3
f 216/5/3 196/5/3 212/5/3
f 216/7/3 212/7/3 215/7/3
f 217/4/3 214/4/3 213/4/3
f 218/7/3 215/7/3 214/7/3
f 218/4/3 214/4/3 217/4/3
f 219/4/3 217/4/3 213/4/3
f 219/4/3 213/4/3 205/4/3
f 220/7/3 218/7/3 217/7/3
f 220/4/3 217/4/3 219/4/3
f 221/4/3 219/4/3 205/4/3
f 221/7/3 220/7/3 219/7/3
f 222/7/3 220/7/3 221/7/3
f 223/4/3 205/4/3 193/4/3
f 223/4/3 221/4/3 205/4/3
f 223/4/3 222/4/3 221/4/3
f 224/7/3 220/7/3 222/7/3
f 224/4/3 222/4/3 223/4/3
f 225/7/3 215/7/3 218/7/3
f 225/7/3 220/7/3 224/7/3
f 225/7/3 218/7/3 220/7/3
f 225/5/3 216/5/3 215/5/3
f 226/5/3 196/5/3 216/5/3
f 226/5/3 216/5/3 225/5/3
f 231/2/3 230/2/3 229/2/3
f 232/2/3 230/2/3 231/2/3
f 233/3/3 228/3/3 227/3/3
f 234/3/3 228/3/3 233/3/3
f 237/3/3 236/3/3 235/3/3
f 238/3/3 236/3/3 237/3/3
f 241/3/3 239/3/3 238/3/3
f 242/3/3 239/3/3 241/3/3
f 243/3/3 241/3/3 240/3/3
f 244/3/3 241/3/3 243/3/3
f 252/2/3 246/2/3 245/2/3
f 252/6/3 247/6/3 246/6/3
f 253/2/3 248/2/3 247/2/3
f 253/6/3 247/6/3 252/6/3
f 254/2/3 250/2/3 249/2/3
f 254/6/3 249/6/3 248/6/3
f 255/2/3 250/2/3 254/2/3
f 256/2/3 250/2/3 255/2/3
f 257/6/3 251/6/3 250/6/3
f 257/2/3 250/2/3 256/2/3
f 258/2/3 252/2/3 245/2/3
f 258/2/3 253/2/3 252/2/3
f 259/2/3 253/2/3 258/2/3
f 260/2/3 248/2/3 253/2/3
f 260/2/3 253/2/3 259/2/3
f 260/6/3 255/6/3 254/6/3
f 260/6/3 254/6/3 248/6/3
f 261/2/3 256/2/3 255/2/3
f 261/6/3 255/6/3 260/6/3
f 262/2/3 256/2/3 261/2/3
f 263/6/3 251/6/3 257/6/3
f 264/2/3 260/2/3 259/2/3
f 264/2/3 263/2/3 262/2/3
f 264/6/3 259/6/3 258/6/3
f 264/2/3 262/2/3 261/2/3
f 264/2/3 261/2/3 260/2/3
f 265/2/3 263/2/3 264/2/3
f 266/2/3 263/2/3 265/2/3
f 267/2/3 263/2/3 266/2/3
f 268/2/3 258/2/3 245/2/3
f 269/6/3 264/6/3 258/6/3
f 269/2/3 258/2/3 268/2/3
f 269/6/3 265/6/3 264/6/3
f 270/2/3 266/2/3 265/2/3
f 270/6/3 265/6/3 269/6/3
f 271/6/3 267/6/3 266/6/3
f 271/2/3 266/2/3 270/2/3
f 272/2/3 263/2/3 267/2/3
f 272/6/3 267/6/3 271/6/3
f 273/6/3 251/6/3 263/6/3
f 273/2/3 263/2/3 272/2/3
f 274/6/3 251/6/3 273/6/3
f 278/2/3 276/2/3 275/2/3
f 279/6/3 277/6/3 276/6/3
f 279/2/3 276/2/3 278/2/3
f 280/6/3 277/6/3 279/6/3
f 281/2/3 278/2/3 275/2/3
f 282/2/3 278/2/3 281/2/3
f 285/2/3 284/2/3 283/2/3
f 288/2/3 285/2/3 283/2/3
f 288/2/3 286/2/3 285/2/3
f 289/6/3 287/6/3 286/6/3
f 289/2/3 286/2/3 288/2/3
f 290/6/3 287/6/3 289/6/3
f 291/2/4 292/2/4 293/2/4
f 293/2/4 292/2/4 294/2/4
f 295/2/4 296/2/4 298/2/4
f 296/6/4 297/6/4 299/6/4
f 298/2/4 296/2/4 299/2/4
f 299/6/4 297/6/4 300/6/4
f 295/2/4 298/2/4 301/2/4
f 301/2/4 298/2/4 302/2/4
f 303/2/4 304/2/4 306/2/4
f 304/2/4 305/2/4 306/2/4
f 303/2/4 306/2/4 309/2/4
f 306/2/4 307/2/4 309/2/4
f 307/6/4 308/6/4 310/6/4
f 309/2/4 307/2/4 310/2/4
f 310/6/4 308/6/4 311/6/4
f 312/2/4 313/2/4 319/2/4
f 313/6/4 314/6/4 320/6/4
f 319/2/4 313/2/4 320/2/4
f 314/2/4 315/2/4 321/2/4
f 320/6/4 314/6/4 321/6/4
f 321/2/4 315/2/4 322/2/4
f 315/6/4 316/6/4 323/6/4
f 322/2/4 315/2/4 323/2/4
f 316/2/4 317/2/4 324/2/4
f 323/6/4 316/6/4 324/6/4
f 312/2/4 319/2/4 325/2/4
f 319/6/4 320/6/4 325/6/4
f 321/6/4 322/6/4 325/6/4
f 320/6/4 321/6/4 325/6/4
f 323/2/4 324/2/4 326/2/4
f 325/6/4 322/6/4 326/6/4
f 322/2/4 323/2/4 326/2/4
f 326/2/4 324/2/4 327/2/4
f 327/2/4 324/2/4 328/2/4
f 324/2/4 317/2/4 329/2/4
f 328/2/4 324/2/4 329/2/4
f 329/2/4 317/2/4 330/2/4
f 325/2/4 326/2/4 331/2/4
f 326/2/4 327/2/4 331/2/4
f 331/2/4 327/2/4 332/2/4
f 327/6/4 328/6/4 333/6/4
f 328/2/4 329/2/4 334/2/4
f 333/6/4 328/6/4 334/6/4
f 329/6/4 330/6/4 335/6/4
f 334/2/4 329/2/4 335/2/4
f 335/6/4 330/6/4 336/6/4
f 312/2/4 325/2/4 337/2/4
f 325/2/4 331/2/4 337/2/4
f 331/6/4 332/6/4 338/6/4
f 337/2/4 331/2/4 338/2/4
f 332/2/4 327/2/4 339/2/4
f 338/6/4 332/6/4 339/6/4
f 327/6/4 333/6/4 340/6/4
f 339/2/4 327/2/4 340/2/4
f 333/2/4 334/2/4 341/2/4
f 340/6/4 333/6/4 341/6/4
f 335/2/4 336/2/4 341/2/4
f 334/2/4 335/2/4 341/2/4
f 336/6/4 330/6/4 342/6/4
f 341/2/4 336/2/4 342/2/4
f 330/2/4 317/2/4 343/2/4
f 342/6/4 330/6/4 343/6/4
f 317/6/4 318/6/4 344/6/4
f 343/2/4 317/2/4 344/2/4
f 344/6/4 318/6/4 345/6/4
f 346/3/4 347/3/4 348/3/4
f 348/3/4 347/3/4 349/3/4
f 349/3/4 350/3/4 352/3/4
f 352/3/4 350/3/4 353/3/4
f 351/3/4 352/3/4 354/3/4
f 354/3/4 352/3/4 355/3/4
f 356/3/4 357/3/4 358/3/4
f 358/3/4 357/3/4 359/3/4
f 360/4/4 361/4/4 364/4/4
f 361/7/4 362/7/4 365/7/4
f 364/4/4 361/4/4 365/4/4
f 360/4/4 364/4/4 366/4/4
f 364/7/4 365/7/4 366/7/4
f 366/7/4 365/7/4 367/7/4
f 366/4/4 367/4/4 368/4/4
f 367/7/4 365/7/4 368/7/4
f 368/7/4 365/7/4 369/7/4
f 366/4/4 368/4/4 370/4/4
f 368/4/4 369/4/4 370/4/4
f 369/7/4 365/7/4 371/7/4
f 370/4/4 369/4/4 371/4/4
f 366/4/4 370/4/4 372/4/4
f 370/7/4 371/7/4 373/7/4
f 372/4/4 370/4/4 373/4/4
f 366/4/4 372/4/4 374/4/4
f 372/7/4 373/7/4 374/7/4
f 365/7/4 362/7/4 375/7/4
f 374/7/4 373/7/4 375/7/4
f 371/7/4 365/7/4 375/7/4
f 373/7/4 371/7/4 375/7/4
f 366/4/4 374/4/4 376/4/4
f 360/4/4 366/4/4 376/4/4
f 374/4/4 375/4/4 376/4/4
f 375/7/4 362/7/4 377/7/4
f 376/4/4 375/4/4 377/4/4
f 360/4/4 376/4/4 378/4/4
f 376/7/4 377/7/4 378/7/4
f 377/7/4 362/7/4 379/7/4
f 378/7/4 377/7/4 379/7/4
f 378/4/4 379/4/4 380/4/4
f 379/7/4 362/7/4 381/7/4
f 380/4/4 379/4/4 381/4/4
f 378/4/4 380/4/4 382/4/4
f 380/7/4 381/7/4 382/7/4
f 382/7/4 381/7/4 383/7/4
f 382/4/4 383/4/4 384/4/4
f 383/7/4 381/7/4 384/7/4
f 384/7/4 381/7/4 385/7/4
f 360/4/4 378/4/4 386/4/4
f 378/4/4 382/4/4 386/4/4
f 384/4/4 385/4/4 386/4/4
f 382/4/4 384/4/4 386/4/4
f 385/7/4 381/7/4 387/7/4
f 386/4/4 385/4/4 387/4/4
f 362/5/4 363/5/4 388/5/4
f 387/7/4 381/7/4 388/7/4
f 381/7/4 362/7/4 388/7/4
f 388/5/4 363/5/4 389/5/4
f 393/3/5 391/3/5 390/3/5
f 394/3/5 391/3/5 393/3/5
f 396/3/5 393/3/5 392/3/5
f 396/3/5 395/3/5 394/3/5
f 396/3/5 394/3/5 393/3/5
f 397/3/5 395/3/5 396/3/5
f 398/3/5 395/3/5 397/3/5
f 399/3/5 395/3/5 398/3/5
f 400/3/5 398/3/5 397/3/5
f 401/3/5 398/3/5 400/3/5
f 404/2/5 403/2/5 402/2/5
f 405/2/5 403/2/5 404/2/5
f 408/2/5 407/2/5 406/2/5
f 409/2/5 407/2/5 408/2/5
f 412/2/5 411/2/5 410/2/5
f 413/2/5 411/2/5 412/2/5
f 416/4/5 415/4/5 414/4/5
f 417/4/5 415/4/5 416/4/5
f 418/4/5 416/4/5 414/4/5
f 419/4/5 415/4/5 417/4/5
f 420/4/5 418/4/5 414/4/5
f 420/4/5 419/4/5 418/4/5
f 421/4/5 415/4/5 419/4/5
f 421/4/5 419/4/5 420/4/5
f 422/4/5 420/4/5 414/4/5
f 423/4/5 420/4/5 422/4/5
f 424/4/5 415/4/5 421/4/5
f 425/4/5 415/4/5 424/4/5
f 426/4/5 422/4/5 414/4/5
f 427/4/5 420/4/5 423/4/5
f 428/4/5 424/4/5 421/4/5
f 429/4/5 415/4/5 425/4/5
f 430/4/5 427/4/5 426/4/5
f 430/4/5 420/4/5 427/4/5
f 431/4/5 428/4/5 421/4/5
f 431/4/5 429/4/5 428/4/5
f 432/4/5 426/4/5 414/4/5
f 432/4/5 431/4/5 430/4/5
f 432/4/5 430/4/5 426/4/5
f 433/4/5 429/4/5 431/4/5
f 433/4/5 431/4/5 432/4/5
f 433/4/5 415/4/5 429/4/5
f 434/3/6 435/3/6 437/3/6
f 437/3/6 435/3/6 438/3/6
f 436/3/6 437/3/6 440/3/6
f 440/3/6 437/3/6 441/3/6
f 438/3/6 439/3/6 442/3/6
f 442/3/6 439/3/6 443/3/6
f 441/3/6 442/3/6 444/3/6
f 444/3/6 442/3/6 445/3/6
f 446/3/6 447/3/6 448/3/6
f 448/3/6 447/3/6 449/3/6
f 446/3/6 448/3/6 450/3/6
f 449/3/6 447/3/6 451/3/6
f 446/3/6 450/3/6 452/3/6
f 450/3/6 451/3/6 452/3/6
f 451/3/6 447/3/6 453/3/6
f 452/3/6 451/3/6 453/3/6
f 454/2/6 455/2/6 456/2/6
f 456/2/6 455/2/6 457/2/6
f 458/2/6 459/2/6 460/2/6
f 460/2/6 459/2/6 461/2/6
f 462/2/6 463/2/6 464/2/6
f 464/2/6 463/2/6 465/2/6
f 466/5/6 467/5/6 468/5/6
f 468/5/6 467/5/6 469/5/6
