# MagicaVoxel @ Ephtracy

# group
o 

# material
mtllib Trees-2.mtl
usemtl palette

# normals
vn -1 0 0
vn 1 0 0
vn 0 0 1
vn 0 0 -1
vn 0 -1 0
vn 0 1 0

# texcoords
vt 0.943359 0.5
vt 0.955078 0.5
vt 0.970703 0.5
vt 0.974609 0.5
vt 0.978516 0.5
vt 0.982422 0.5
vt 0.986328 0.5
vt 0.990234 0.5
vt 0.994141 0.5

# verts
v 6.5 0 0.4
v 6.5 0 0.3
v 6.5 0 0.2
v 6.5 0 0.1
v 6.5 0 0
v 6.5 0 -0.1
v 6.5 0.1 0.4
v 6.5 0.1 0.3
v 6.5 0.1 0.2
v 6.5 0.1 0.1
v 6.5 0.1 0
v 6.5 0.1 -0.1
v 6.5 0.2 0.1
v 6.5 0.2 0
v 6.6 0 0.5
v 6.6 0 0.4
v 6.6 0 -0.1
v 6.6 0 -0.3
v 6.6 0.1 0.5
v 6.6 0.1 0.4
v 6.6 0.1 0.3
v 6.6 0.1 0.2
v 6.6 0.1 0.1
v 6.6 0.1 0
v 6.6 0.1 -0.1
v 6.6 0.1 -0.2
v 6.6 0.1 -0.3
v 6.6 0.2 0.4
v 6.6 0.2 0.3
v 6.6 0.2 0.2
v 6.6 0.2 0.1
v 6.6 0.2 0
v 6.6 0.2 -0.2
v 6.6 0.3 0.2
v 6.6 0.3 0.1
v 6.7 0.2 0.3
v 6.7 0.2 0.2
v 6.7 0.2 0.1
v 6.7 0.2 0
v 6.7 0.2 -0.1
v 6.7 0.2 -0.2
v 6.7 0.3 0.2
v 6.7 0.3 0.1
v 6.7 0.3 0
v 6.7 0.3 -0.1
v 6.7 0.3 -0.2
v 6.7 0.4 0.3
v 6.7 0.4 0.2
v 6.7 0.4 0.1
v 6.7 0.4 0
v 6.7 0.4 -0.1
v 6.7 0.5 0.3
v 6.7 0.5 0.1
v 6.7 0.5 0
v 6.7 0.5 -0.1
v 6.7 0.6 0
v 6.7 0.6 -0.1
v 6.7 0.7 0.3
v 6.7 0.7 0.1
v 6.7 0.7 -0.1
v 7 0 0.5
v 7 0 0.4
v 7 0.1 0.5
v 7 0.1 0.4
v 6.8 0.2 -0.1
v 6.8 0.2 -0.2
v 6.8 0.3 -0.1
v 6.8 0.3 -0.2
v 6.9 0 0.5
v 6.9 0 0.4
v 6.9 0.1 0.5
v 6.9 0.1 0.4
v 7.1 0.2 0.1
v 7.1 0.2 0
v 7.1 0.2 -0.1
v 7.1 0.3 0.3
v 7.1 0.3 0.2
v 7.1 0.3 0.1
v 7.1 0.3 0
v 7.1 0.3 -0.1
v 7.1 0.4 0.3
v 7.1 0.4 0.2
v 7.1 0.4 0
v 7.1 0.4 -0.1
v 7.1 0.5 0.3
v 7.1 0.5 0.2
v 7.1 0.5 0.1
v 7.1 0.5 0
v 7.1 0.5 -0.1
v 7.1 0.6 0.2
v 7.1 0.6 0.1
v 7.1 0.6 0
v 7.1 0.6 -0.1
v 7.1 0.7 0.3
v 7.1 0.7 0.1
v 7.1 0.7 -0.1
v 7.2 0 0.5
v 7.2 0 0.3
v 7.2 0 -0.1
v 7.2 0 -0.3
v 7.2 0.1 0.5
v 7.2 0.1 0.4
v 7.2 0.1 0.3
v 7.2 0.1 0.2
v 7.2 0.1 0.1
v 7.2 0.1 0
v 7.2 0.1 -0.1
v 7.2 0.1 -0.2
v 7.2 0.1 -0.3
v 7.2 0.2 0.4
v 7.2 0.2 0.3
v 7.2 0.2 0.2
v 7.2 0.2 0.1
v 7.2 0.2 -0.2
v 7.2 0.3 0.3
v 7.2 0.3 0.1
v 7.3 0 0.3
v 7.3 0 0.1
v 7.3 0 0
v 7.3 0 -0.1
v 7.3 0.1 0.3
v 7.3 0.1 0.1
v 7.3 0.1 0
v 7.3 0.1 -0.1
v 6.6 0 0.5
v 6.6 0.1 0.5
v 6.8 0 0.5
v 6.8 0.1 0.5
v 6.9 0 0.5
v 6.9 0.1 0.5
v 7 0 0.5
v 7 0.1 0.5
v 7.1 0 0.5
v 7.1 0.1 0.5
v 7.2 0 0.5
v 7.2 0.1 0.5
v 6.5 0 0.4
v 6.5 0.1 0.4
v 6.6 0 0.4
v 6.6 0.1 0.4
v 6.6 0.2 0.4
v 6.7 0.1 0.4
v 6.7 0.2 0.4
v 6.8 0.1 0.4
v 6.8 0.2 0.4
v 6.9 0 0.4
v 6.9 0.1 0.4
v 6.9 0.2 0.4
v 7 0 0.4
v 7 0.1 0.4
v 7 0.2 0.4
v 7.1 0.1 0.4
v 7.1 0.2 0.4
v 7.2 0.1 0.4
v 7.2 0.2 0.4
v 6.7 0.2 0.3
v 6.7 0.4 0.3
v 6.7 0.5 0.3
v 6.7 0.7 0.3
v 6.8 0.2 0.3
v 6.8 0.3 0.3
v 6.8 0.4 0.3
v 6.8 0.5 0.3
v 6.8 0.7 0.3
v 6.9 0.2 0.3
v 6.9 0.3 0.3
v 6.9 0.4 0.3
v 6.9 0.5 0.3
v 7 0.2 0.3
v 7 0.3 0.3
v 7 0.4 0.3
v 7 0.5 0.3
v 7 0.7 0.3
v 7.1 0.2 0.3
v 7.1 0.3 0.3
v 7.1 0.4 0.3
v 7.1 0.5 0.3
v 7.1 0.7 0.3
v 7.2 0 0.3
v 7.2 0.1 0.3
v 7.2 0.2 0.3
v 7.2 0.3 0.3
v 7.3 0 0.3
v 7.3 0.1 0.3
v 6.6 0.2 0.2
v 6.6 0.3 0.2
v 6.7 0.2 0.2
v 6.7 0.3 0.2
v 6.5 0.1 0.1
v 6.5 0.2 0.1
v 6.6 0.1 0.1
v 6.6 0.2 0.1
v 6.6 0.2 0.1
v 6.6 0.3 0.1
v 6.7 0.2 0.1
v 6.7 0.3 0.1
v 7.1 0.2 0.1
v 7.1 0.3 0.1
v 7.2 0.2 0.1
v 7.2 0.3 0.1
v 6.5 0.1 0
v 6.5 0.2 0
v 6.6 0.1 0
v 6.6 0.2 0
v 6.5 0 -0.1
v 6.5 0.1 -0.1
v 6.6 0 -0.1
v 6.6 0.1 -0.1
v 6.7 0.3 -0.1
v 6.7 0.4 -0.1
v 6.7 0.5 -0.1
v 6.7 0.6 -0.1
v 6.7 0.7 -0.1
v 6.8 0.2 -0.1
v 6.8 0.3 -0.1
v 6.8 0.4 -0.1
v 6.8 0.5 -0.1
v 6.9 0.2 -0.1
v 6.9 0.3 -0.1
v 6.9 0.4 -0.1
v 6.9 0.5 -0.1
v 6.9 0.6 -0.1
v 7 0.2 -0.1
v 7 0.3 -0.1
v 7 0.4 -0.1
v 7 0.5 -0.1
v 7 0.6 -0.1
v 7.1 0.2 -0.1
v 7.1 0.3 -0.1
v 7.1 0.4 -0.1
v 7.1 0.5 -0.1
v 7.1 0.6 -0.1
v 7.1 0.7 -0.1
v 7.2 0 -0.1
v 7.2 0.1 -0.1
v 7.3 0 -0.1
v 7.3 0.1 -0.1
v 6.6 0.1 -0.2
v 6.6 0.2 -0.2
v 6.7 0.2 -0.2
v 6.7 0.3 -0.2
v 6.8 0.1 -0.2
v 6.8 0.2 -0.2
v 6.8 0.3 -0.2
v 6.9 0.1 -0.2
v 6.9 0.2 -0.2
v 7 0.1 -0.2
v 7 0.2 -0.2
v 7.1 0.1 -0.2
v 7.1 0.2 -0.2
v 7.2 0.1 -0.2
v 7.2 0.2 -0.2
v 6.6 0 -0.3
v 6.6 0.1 -0.3
v 6.8 0 -0.3
v 6.8 0.1 -0.3
v 6.9 0 -0.3
v 6.9 0.1 -0.3
v 7 0 -0.3
v 7 0.1 -0.3
v 7.2 0 -0.3
v 7.2 0.1 -0.3
v 6.6 0 0.5
v 6.8 0 0.5
v 6.9 0 0.5
v 7 0 0.5
v 7.1 0 0.5
v 7.2 0 0.5
v 6.5 0 0.4
v 6.6 0 0.4
v 6.8 0 0.4
v 6.9 0 0.4
v 7 0 0.4
v 7.1 0 0.4
v 6.5 0 0.3
v 6.6 0 0.3
v 7.2 0 0.3
v 7.3 0 0.3
v 6.5 0 0.2
v 6.6 0 0.2
v 6.5 0 0.1
v 6.6 0 0.1
v 7.2 0 0.1
v 7.3 0 0.1
v 6.5 0 0
v 6.6 0 0
v 7.2 0 0
v 7.3 0 0
v 6.5 0 -0.1
v 6.6 0 -0.1
v 7.2 0 -0.1
v 7.3 0 -0.1
v 6.8 0 -0.2
v 6.9 0 -0.2
v 7 0 -0.2
v 6.6 0 -0.3
v 6.8 0 -0.3
v 6.9 0 -0.3
v 7 0 -0.3
v 7.2 0 -0.3
v 6.6 0.1 0.5
v 6.8 0.1 0.5
v 6.9 0.1 0.5
v 7 0.1 0.5
v 7.1 0.1 0.5
v 7.2 0.1 0.5
v 6.5 0.1 0.4
v 6.6 0.1 0.4
v 6.7 0.1 0.4
v 6.8 0.1 0.4
v 6.9 0.1 0.4
v 7 0.1 0.4
v 7.1 0.1 0.4
v 7.2 0.1 0.4
v 6.5 0.1 0.3
v 6.6 0.1 0.3
v 7.2 0.1 0.3
v 7.3 0.1 0.3
v 6.5 0.1 0.2
v 6.6 0.1 0.2
v 7.2 0.1 0.2
v 6.5 0.1 0.1
v 6.6 0.1 0.1
v 7.2 0.1 0.1
v 7.3 0.1 0.1
v 6.5 0.1 0
v 6.6 0.1 0
v 7.2 0.1 0
v 7.3 0.1 0
v 6.5 0.1 -0.1
v 6.6 0.1 -0.1
v 7.2 0.1 -0.1
v 7.3 0.1 -0.1
v 6.6 0.1 -0.2
v 6.8 0.1 -0.2
v 6.9 0.1 -0.2
v 7 0.1 -0.2
v 7.1 0.1 -0.2
v 7.2 0.1 -0.2
v 6.6 0.1 -0.3
v 6.8 0.1 -0.3
v 6.9 0.1 -0.3
v 7 0.1 -0.3
v 7.2 0.1 -0.3
v 6.6 0.2 0.4
v 6.7 0.2 0.4
v 6.8 0.2 0.4
v 6.9 0.2 0.4
v 7 0.2 0.4
v 7.1 0.2 0.4
v 7.2 0.2 0.4
v 6.6 0.2 0.3
v 6.7 0.2 0.3
v 6.8 0.2 0.3
v 6.9 0.2 0.3
v 7 0.2 0.3
v 7.1 0.2 0.3
v 7.2 0.2 0.3
v 6.6 0.2 0.2
v 6.7 0.2 0.2
v 6.5 0.2 0.1
v 6.6 0.2 0.1
v 6.7 0.2 0.1
v 7.1 0.2 0.1
v 7.2 0.2 0.1
v 6.5 0.2 0
v 6.6 0.2 0
v 6.7 0.2 0
v 7.1 0.2 0
v 6.7 0.2 -0.1
v 6.8 0.2 -0.1
v 6.9 0.2 -0.1
v 7 0.2 -0.1
v 7.1 0.2 -0.1
v 6.6 0.2 -0.2
v 6.7 0.2 -0.2
v 6.8 0.2 -0.2
v 6.9 0.2 -0.2
v 7 0.2 -0.2
v 7.1 0.2 -0.2
v 7.2 0.2 -0.2
v 7.1 0.3 0.3
v 7.2 0.3 0.3
v 6.6 0.3 0.2
v 6.7 0.3 0.2
v 7.1 0.3 0.2
v 6.6 0.3 0.1
v 6.7 0.3 0.1
v 7.1 0.3 0.1
v 7.2 0.3 0.1
v 6.7 0.3 -0.1
v 6.8 0.3 -0.1
v 6.7 0.3 -0.2
v 6.8 0.3 -0.2
v 6.7 0.7 0.3
v 6.8 0.7 0.3
v 7 0.7 0.3
v 7.1 0.7 0.3
v 6.8 0.7 0.2
v 7 0.7 0.2
v 6.7 0.7 0.1
v 6.8 0.7 0.1
v 7 0.7 0.1
v 7.1 0.7 0.1
v 6.8 0.7 0
v 7 0.7 0
v 6.7 0.7 -0.1
v 7.1 0.7 -0.1

# faces
f 7/1/1 2/1/1 1/1/1
f 8/6/1 3/6/1 2/6/1
f 8/1/1 2/1/1 7/1/1
f 9/5/1 4/5/1 3/5/1
f 9/6/1 3/6/1 8/6/1
f 10/6/1 5/6/1 4/6/1
f 10/5/1 4/5/1 9/5/1
f 11/5/1 6/5/1 5/5/1
f 11/6/1 5/6/1 10/6/1
f 12/5/1 6/5/1 11/5/1
f 13/1/1 11/1/1 10/1/1
f 14/1/1 11/1/1 13/1/1
f 19/5/1 16/5/1 15/5/1
f 20/5/1 16/5/1 19/5/1
f 25/5/1 18/5/1 17/5/1
f 26/5/1 18/5/1 25/5/1
f 27/5/1 18/5/1 26/5/1
f 28/6/1 21/6/1 20/6/1
f 29/1/1 22/1/1 21/1/1
f 29/6/1 21/6/1 28/6/1
f 30/6/1 23/6/1 22/6/1
f 30/1/1 22/1/1 29/1/1
f 31/6/1 23/6/1 30/6/1
f 32/5/1 26/5/1 25/5/1
f 32/5/1 25/5/1 24/5/1
f 33/5/1 26/5/1 32/5/1
f 34/9/1 31/9/1 30/9/1
f 35/9/1 31/9/1 34/9/1
f 42/4/1 37/4/1 36/4/1
f 43/4/1 39/4/1 38/4/1
f 43/4/1 40/4/1 39/4/1
f 44/4/1 40/4/1 43/4/1
f 45/9/1 41/9/1 40/9/1
f 45/4/1 40/4/1 44/4/1
f 46/9/1 41/9/1 45/9/1
f 47/4/1 42/4/1 36/4/1
f 48/7/1 44/7/1 43/7/1
f 48/4/1 42/4/1 47/4/1
f 48/7/1 43/7/1 42/7/1
f 49/7/1 44/7/1 48/7/1
f 50/4/1 45/4/1 44/4/1
f 50/7/1 44/7/1 49/7/1
f 51/4/1 45/4/1 50/4/1
f 52/7/1 49/7/1 48/7/1
f 52/7/1 48/7/1 47/7/1
f 53/4/1 50/4/1 49/4/1
f 53/7/1 49/7/1 52/7/1
f 54/8/1 51/8/1 50/8/1
f 54/4/1 50/4/1 53/4/1
f 55/8/1 51/8/1 54/8/1
f 56/4/1 54/4/1 53/4/1
f 56/6/1 55/6/1 54/6/1
f 57/6/1 55/6/1 56/6/1
f 58/8/1 53/8/1 52/8/1
f 59/4/1 56/4/1 53/4/1
f 59/8/1 53/8/1 58/8/1
f 59/4/1 57/4/1 56/4/1
f 60/4/1 57/4/1 59/4/1
f 63/7/1 62/7/1 61/7/1
f 64/7/1 62/7/1 63/7/1
f 65/9/2 66/9/2 67/9/2
f 67/9/2 66/9/2 68/9/2
f 69/9/2 70/9/2 71/9/2
f 71/9/2 70/9/2 72/9/2
f 73/9/2 74/9/2 78/9/2
f 74/6/2 75/6/2 79/6/2
f 78/9/2 74/9/2 79/9/2
f 79/6/2 75/6/2 80/6/2
f 76/4/2 77/4/2 81/4/2
f 77/6/2 78/6/2 82/6/2
f 81/4/2 77/4/2 82/4/2
f 78/8/2 79/8/2 83/8/2
f 79/1/2 80/1/2 83/1/2
f 83/1/2 80/1/2 84/1/2
f 81/7/2 82/7/2 85/7/2
f 82/6/2 78/6/2 86/6/2
f 85/7/2 82/7/2 86/7/2
f 78/8/2 83/8/2 87/8/2
f 86/6/2 78/6/2 87/6/2
f 83/4/2 84/4/2 88/4/2
f 87/8/2 83/8/2 88/8/2
f 88/4/2 84/4/2 89/4/2
f 85/8/2 86/8/2 90/8/2
f 86/4/2 87/4/2 90/4/2
f 87/4/2 88/4/2 90/4/2
f 90/4/2 88/4/2 91/4/2
f 88/8/2 89/8/2 92/8/2
f 91/4/2 88/4/2 92/4/2
f 92/8/2 89/8/2 93/8/2
f 90/8/2 91/8/2 94/8/2
f 85/8/2 90/8/2 94/8/2
f 92/4/2 93/4/2 95/4/2
f 94/8/2 91/8/2 95/8/2
f 91/4/2 92/4/2 95/4/2
f 95/4/2 93/4/2 96/4/2
f 97/5/2 98/5/2 101/5/2
f 101/5/2 98/5/2 102/5/2
f 102/5/2 98/5/2 103/5/2
f 99/5/2 100/5/2 107/5/2
f 107/5/2 100/5/2 108/5/2
f 108/5/2 100/5/2 109/5/2
f 102/1/2 103/1/2 110/1/2
f 103/5/2 104/5/2 111/5/2
f 110/1/2 103/1/2 111/1/2
f 104/7/2 105/7/2 112/7/2
f 111/5/2 104/5/2 112/5/2
f 105/5/2 106/5/2 113/5/2
f 112/7/2 105/7/2 113/7/2
f 107/5/2 108/5/2 113/5/2
f 106/5/2 107/5/2 113/5/2
f 113/5/2 108/5/2 114/5/2
f 111/6/2 112/6/2 115/6/2
f 112/6/2 113/6/2 115/6/2
f 115/6/2 113/6/2 116/6/2
f 117/7/2 118/7/2 121/7/2
f 118/6/2 119/6/2 122/6/2
f 121/7/2 118/7/2 122/7/2
f 119/5/2 120/5/2 123/5/2
f 122/6/2 119/6/2 123/6/2
f 123/5/2 120/5/2 124/5/2
f 127/5/3 126/5/3 125/5/3
f 128/5/3 126/5/3 127/5/3
f 129/9/3 128/9/3 127/9/3
f 130/9/3 128/9/3 129/9/3
f 133/7/3 132/7/3 131/7/3
f 134/7/3 132/7/3 133/7/3
f 135/5/3 134/5/3 133/5/3
f 136/5/3 134/5/3 135/5/3
f 139/1/3 138/1/3 137/1/3
f 140/1/3 138/1/3 139/1/3
f 142/6/3 141/6/3 140/6/3
f 143/6/3 141/6/3 142/6/3
f 144/1/3 143/1/3 142/1/3
f 145/1/3 143/1/3 144/1/3
f 147/6/3 145/6/3 144/6/3
f 148/6/3 145/6/3 147/6/3
f 149/5/3 147/5/3 146/5/3
f 150/7/3 148/7/3 147/7/3
f 150/5/3 147/5/3 149/5/3
f 151/7/3 148/7/3 150/7/3
f 152/6/3 151/6/3 150/6/3
f 153/6/3 151/6/3 152/6/3
f 154/1/3 153/1/3 152/1/3
f 155/1/3 153/1/3 154/1/3
f 160/4/3 157/4/3 156/4/3
f 161/4/3 157/4/3 160/4/3
f 162/7/3 158/7/3 157/7/3
f 162/4/3 157/4/3 161/4/3
f 163/8/3 159/8/3 158/8/3
f 163/7/3 158/7/3 162/7/3
f 164/8/3 159/8/3 163/8/3
f 165/1/3 161/1/3 160/1/3
f 166/6/3 162/6/3 161/6/3
f 166/1/3 161/1/3 165/1/3
f 167/4/3 163/4/3 162/4/3
f 167/6/3 162/6/3 166/6/3
f 167/4/3 164/4/3 163/4/3
f 168/4/3 164/4/3 167/4/3
f 169/6/3 166/6/3 165/6/3
f 170/4/3 167/4/3 166/4/3
f 170/6/3 166/6/3 169/6/3
f 171/6/3 168/6/3 167/6/3
f 171/4/3 167/4/3 170/4/3
f 172/4/3 164/4/3 168/4/3
f 172/6/3 168/6/3 171/6/3
f 173/4/3 164/4/3 172/4/3
f 174/1/3 170/1/3 169/1/3
f 175/4/3 171/4/3 170/4/3
f 175/1/3 170/1/3 174/1/3
f 176/7/3 172/7/3 171/7/3
f 176/4/3 171/4/3 175/4/3
f 177/8/3 173/8/3 172/8/3
f 177/7/3 172/7/3 176/7/3
f 178/8/3 173/8/3 177/8/3
f 181/6/3 175/6/3 174/6/3
f 182/6/3 175/6/3 181/6/3
f 183/7/3 180/7/3 179/7/3
f 184/7/3 180/7/3 183/7/3
f 187/9/3 186/9/3 185/9/3
f 188/9/3 186/9/3 187/9/3
f 191/1/3 190/1/3 189/1/3
f 192/1/3 190/1/3 191/1/3
f 193/9/4 194/9/4 195/9/4
f 195/9/4 194/9/4 196/9/4
f 197/6/4 198/6/4 199/6/4
f 199/6/4 198/6/4 200/6/4
f 201/1/4 202/1/4 203/1/4
f 203/1/4 202/1/4 204/1/4
f 205/5/4 206/5/4 207/5/4
f 207/5/4 206/5/4 208/5/4
f 209/4/4 210/4/4 215/4/4
f 210/8/4 211/8/4 216/8/4
f 215/4/4 210/4/4 216/4/4
f 211/6/4 212/6/4 217/6/4
f 216/8/4 211/8/4 217/8/4
f 214/4/4 215/4/4 218/4/4
f 215/8/4 216/8/4 219/8/4
f 218/4/4 215/4/4 219/4/4
f 216/1/4 217/1/4 220/1/4
f 219/8/4 216/8/4 220/8/4
f 217/6/4 212/6/4 221/6/4
f 220/1/4 217/1/4 221/1/4
f 212/4/4 213/4/4 222/4/4
f 221/6/4 212/6/4 222/6/4
f 218/4/4 219/4/4 223/4/4
f 219/6/4 220/6/4 224/6/4
f 223/4/4 219/4/4 224/4/4
f 220/4/4 221/4/4 225/4/4
f 224/6/4 220/6/4 225/6/4
f 221/4/4 222/4/4 225/4/4
f 225/4/4 222/4/4 226/4/4
f 222/4/4 213/4/4 227/4/4
f 226/4/4 222/4/4 227/4/4
f 223/6/4 224/6/4 228/6/4
f 224/1/4 225/1/4 229/1/4
f 228/6/4 224/6/4 229/6/4
f 225/4/4 226/4/4 230/4/4
f 229/1/4 225/1/4 230/1/4
f 226/8/4 227/8/4 231/8/4
f 230/4/4 226/4/4 231/4/4
f 227/4/4 213/4/4 232/4/4
f 231/8/4 227/8/4 232/8/4
f 232/4/4 213/4/4 233/4/4
f 234/5/4 235/5/4 236/5/4
f 236/5/4 235/5/4 237/5/4
f 238/5/4 239/5/4 240/5/4
f 238/5/4 240/5/4 242/5/4
f 240/9/4 241/9/4 243/9/4
f 242/5/4 240/5/4 243/5/4
f 243/9/4 241/9/4 244/9/4
f 242/7/4 243/7/4 245/7/4
f 245/7/4 243/7/4 246/7/4
f 245/1/4 246/1/4 247/1/4
f 247/1/4 246/1/4 248/1/4
f 247/6/4 248/6/4 249/6/4
f 249/6/4 248/6/4 250/6/4
f 249/5/4 250/5/4 251/5/4
f 251/5/4 250/5/4 252/5/4
f 253/5/4 254/5/4 255/5/4
f 255/5/4 254/5/4 256/5/4
f 255/6/4 256/6/4 257/6/4
f 257/6/4 256/6/4 258/6/4
f 257/9/4 258/9/4 259/9/4
f 259/9/4 258/9/4 260/9/4
f 259/5/4 260/5/4 261/5/4
f 261/5/4 260/5/4 262/5/4
f 270/5/5 264/5/5 263/5/5
f 271/9/5 265/9/5 264/9/5
f 271/5/5 264/5/5 270/5/5
f 272/9/5 265/9/5 271/9/5
f 273/7/5 267/7/5 266/7/5
f 274/5/5 268/5/5 267/5/5
f 274/7/5 267/7/5 273/7/5
f 275/1/5 270/1/5 269/1/5
f 276/5/5 273/5/5 272/5/5
f 276/1/5 270/1/5 275/1/5
f 276/5/5 272/5/5 271/5/5
f 276/5/5 274/5/5 273/5/5
f 276/5/5 271/5/5 270/5/5
f 277/5/5 268/5/5 274/5/5
f 277/5/5 274/5/5 276/5/5
f 279/6/5 276/6/5 275/6/5
f 280/5/5 277/5/5 276/5/5
f 280/6/5 276/6/5 279/6/5
f 281/5/5 280/5/5 279/5/5
f 282/5/5 277/5/5 280/5/5
f 282/5/5 280/5/5 281/5/5
f 283/7/5 278/7/5 277/7/5
f 283/5/5 277/5/5 282/5/5
f 284/7/5 278/7/5 283/7/5
f 285/6/5 282/6/5 281/6/5
f 286/5/5 283/5/5 282/5/5
f 286/6/5 282/6/5 285/6/5
f 287/6/5 284/6/5 283/6/5
f 287/5/5 283/5/5 286/5/5
f 288/6/5 284/6/5 287/6/5
f 289/5/5 286/5/5 285/5/5
f 289/5/5 287/5/5 286/5/5
f 289/5/5 288/5/5 287/5/5
f 290/5/5 288/5/5 289/5/5
f 291/5/5 288/5/5 290/5/5
f 292/5/5 288/5/5 291/5/5
f 293/5/5 291/5/5 290/5/5
f 294/5/5 291/5/5 293/5/5
f 295/5/5 291/5/5 294/5/5
f 296/5/5 293/5/5 290/5/5
f 297/6/5 294/6/5 293/6/5
f 297/5/5 293/5/5 296/5/5
f 298/9/5 295/9/5 294/9/5
f 298/6/5 294/6/5 297/6/5
f 299/5/5 291/5/5 295/5/5
f 299/9/5 295/9/5 298/9/5
f 300/5/5 291/5/5 299/5/5
f 301/5/6 302/5/6 308/5/6
f 308/5/6 302/5/6 309/5/6
f 302/9/6 303/9/6 310/9/6
f 309/5/6 302/5/6 310/5/6
f 310/9/6 303/9/6 311/9/6
f 304/7/6 305/7/6 312/7/6
f 305/5/6 306/5/6 313/5/6
f 312/7/6 305/7/6 313/7/6
f 313/5/6 306/5/6 314/5/6
f 307/1/6 308/1/6 315/1/6
f 315/1/6 308/1/6 316/1/6
f 315/6/6 316/6/6 319/6/6
f 319/6/6 316/6/6 320/6/6
f 317/7/6 318/7/6 321/7/6
f 319/5/6 320/5/6 322/5/6
f 322/5/6 320/5/6 323/5/6
f 321/7/6 318/7/6 324/7/6
f 324/7/6 318/7/6 325/7/6
f 324/6/6 325/6/6 328/6/6
f 328/6/6 325/6/6 329/6/6
f 326/5/6 327/5/6 330/5/6
f 330/5/6 327/5/6 331/5/6
f 328/5/6 329/5/6 332/5/6
f 332/5/6 329/5/6 333/5/6
f 334/5/6 335/5/6 340/5/6
f 335/6/6 336/6/6 341/6/6
f 340/5/6 335/5/6 341/5/6
f 336/9/6 337/9/6 342/9/6
f 341/6/6 336/6/6 342/6/6
f 338/5/6 339/5/6 343/5/6
f 342/9/6 337/9/6 343/9/6
f 337/5/6 338/5/6 343/5/6
f 343/5/6 339/5/6 344/5/6
f 345/6/6 346/6/6 352/6/6
f 346/1/6 347/1/6 353/1/6
f 352/6/6 346/6/6 353/6/6
f 347/6/6 348/6/6 354/6/6
f 353/1/6 347/1/6 354/1/6
f 348/7/6 349/7/6 355/7/6
f 354/6/6 348/6/6 355/6/6
f 349/6/6 350/6/6 356/6/6
f 355/7/6 349/7/6 356/7/6
f 350/1/6 351/1/6 357/1/6
f 356/6/6 350/6/6 357/6/6
f 357/1/6 351/1/6 358/1/6
f 352/1/6 353/1/6 359/1/6
f 359/1/6 353/1/6 360/1/6
f 361/1/6 362/1/6 366/1/6
f 362/7/6 363/7/6 367/7/6
f 366/1/6 362/1/6 367/1/6
f 367/7/6 363/7/6 368/7/6
f 364/5/6 365/5/6 369/5/6
f 367/5/6 368/5/6 370/5/6
f 369/5/6 365/5/6 374/5/6
f 367/5/6 370/5/6 375/5/6
f 375/5/6 370/5/6 376/5/6
f 371/7/6 372/7/6 377/7/6
f 372/1/6 373/1/6 378/1/6
f 377/7/6 372/7/6 378/7/6
f 373/6/6 374/6/6 379/6/6
f 378/1/6 373/1/6 379/1/6
f 374/5/6 365/5/6 380/5/6
f 379/6/6 374/6/6 380/6/6
f 380/5/6 365/5/6 381/5/6
f 382/6/6 383/6/6 386/6/6
f 384/9/6 385/9/6 387/9/6
f 387/9/6 385/9/6 388/9/6
f 386/6/6 383/6/6 389/6/6
f 389/6/6 383/6/6 390/6/6
f 391/9/6 392/9/6 393/9/6
f 393/9/6 392/9/6 394/9/6
f 395/8/6 396/8/6 399/8/6
f 396/4/6 397/4/6 399/4/6
f 397/8/6 398/8/6 400/8/6
f 399/4/6 397/4/6 400/4/6
f 395/8/6 399/8/6 401/8/6
f 399/2/6 400/2/6 402/2/6
f 401/8/6 399/8/6 402/8/6
f 400/8/6 398/8/6 403/8/6
f 402/2/6 400/2/6 403/2/6
f 403/8/6 398/8/6 404/8/6
f 401/4/6 402/4/6 405/4/6
f 402/2/6 403/2/6 405/2/6
f 403/4/6 404/4/6 406/4/6
f 405/2/6 403/2/6 406/2/6
f 401/4/6 405/4/6 407/4/6
f 405/4/6 406/4/6 407/4/6
f 406/4/6 404/4/6 408/4/6
f 407/4/6 406/4/6 408/4/6
