# MagicaVoxel @ Ephtracy

# group
o 

# material
mtllib Trees-9.mtl
usemtl palette

# normals
vn -1 0 0
vn 1 0 0
vn 0 0 1
vn 0 0 -1
vn 0 -1 0
vn 0 1 0

# texcoords
vt 0.970703 0.5
vt 0.974609 0.5
vt 0.978516 0.5
vt 0.982422 0.5
vt 0.986328 0.5
vt 0.990234 0.5

# verts
v -6.3 1.7 0.5
v -6.3 1.7 -0.7
v -6.3 2.3 0.5
v -6.3 2.3 0.4
v -6.3 2.3 0.3
v -6.3 2.3 0.2
v -6.3 2.4 0
v -6.3 2.4 -0.1
v -6.3 2.5 -0.3
v -6.3 2.5 -0.4
v -6.3 2.5 -0.6
v -6.3 2.5 -0.7
v -6.3 2.6 -0.1
v -6.3 2.6 -0.3
v -6.3 2.7 0.2
v -6.3 2.7 0.1
v -6.3 2.7 -0.5
v -6.3 2.7 -0.6
v -6.3 2.8 0.4
v -6.3 2.8 0.3
v -6.3 2.9 0.1
v -6.3 2.9 0
v -6.3 2.9 -0.4
v -6.3 2.9 -0.5
v -6.3 3.7 0.5
v -6.3 3.7 -0.7
v -6.2 1.2 0
v -6.2 1.2 -0.2
v -6.2 1.6 0
v -6.2 1.6 -0.2
v -6.2 1.7 0
v -6.2 1.7 -0.2
v -6.1 0 0.2
v -6.1 0 -0.4
v -6.1 0.1 0.2
v -6.1 0.1 -0.4
v -6 0 0.3
v -6 0 0.2
v -6 0 -0.4
v -6 0 -0.5
v -6 0.1 0.3
v -6 0.1 0.2
v -6 0.1 -0.4
v -6 0.1 -0.5
v -6 0.2 0.2
v -6 0.2 -0.4
v -5.9 0.2 0.1
v -5.9 0.2 -0.3
v -5.9 0.3 0
v -5.9 0.3 -0.1
v -5.9 0.4 -0.2
v -5.9 0.4 -0.3
v -5.9 0.5 0.1
v -5.9 0.5 0
v -5.9 0.5 -0.2
v -5.9 0.5 -0.3
v -5.9 0.7 0.1
v -5.9 0.7 -0.1
v -5.9 0.8 -0.1
v -5.9 0.8 -0.3
v -5.9 0.9 0.1
v -5.9 0.9 0
v -5.9 0.9 -0.1
v -5.9 0.9 -0.2
v -5.9 1 0.1
v -5.9 1 0
v -5.9 1.1 -0.2
v -5.9 1.1 -0.3
v -5.9 1.2 0
v -5.9 1.2 -0.2
v -5.9 1.4 0
v -5.9 1.4 -0.2
v -5.9 1.6 0.1
v -5.9 1.6 -0.3
v -5.9 1.7 0.1
v -5.9 1.7 -0.3
v -5.8 1.5 0.3
v -5.8 1.5 0.1
v -5.8 1.6 0.2
v -5.8 1.6 0.1
v -5.8 1.7 0.3
v -5.8 1.7 0.2
v -5.4 1.5 0
v -5.4 1.5 -0.2
v -5.4 1.6 0
v -5.4 1.6 -0.2
v -5.4 1.7 0
v -5.4 1.7 -0.2
v -6 1.4 0
v -6 1.4 -0.2
v -6 1.6 0
v -6 1.6 -0.2
v -6 1.7 0
v -6 1.7 -0.2
v -5.7 1.5 0.3
v -5.7 1.5 0.1
v -5.7 1.6 0.2
v -5.7 1.6 0.1
v -5.7 1.7 0.3
v -5.7 1.7 0.2
v -5.5 0.2 0.1
v -5.5 0.2 -0.3
v -5.5 0.3 -0.1
v -5.5 0.3 -0.2
v -5.5 0.4 0.1
v -5.5 0.4 0
v -5.5 0.5 -0.1
v -5.5 0.5 -0.2
v -5.5 0.5 -0.3
v -5.5 0.6 0
v -5.5 0.6 -0.1
v -5.5 0.6 -0.2
v -5.5 0.6 -0.3
v -5.5 0.7 0.1
v -5.5 0.7 -0.1
v -5.5 0.7 -0.2
v -5.5 0.7 -0.3
v -5.5 0.8 -0.2
v -5.5 0.8 -0.3
v -5.5 0.9 0
v -5.5 0.9 -0.1
v -5.5 1 0.1
v -5.5 1 0
v -5.5 1.1 0.1
v -5.5 1.1 0
v -5.5 1.1 -0.1
v -5.5 1.1 -0.2
v -5.5 1.2 0
v -5.5 1.2 -0.2
v -5.5 1.3 0
v -5.5 1.3 -0.2
v -5.5 1.3 -0.3
v -5.5 1.4 -0.2
v -5.5 1.4 -0.3
v -5.5 1.5 0
v -5.5 1.5 -0.2
v -5.5 1.6 0.1
v -5.5 1.6 -0.3
v -5.5 1.7 0.1
v -5.5 1.7 -0.3
v -5.4 0 0.3
v -5.4 0 0.2
v -5.4 0 -0.4
v -5.4 0 -0.5
v -5.4 0.1 0.3
v -5.4 0.1 0.2
v -5.4 0.1 -0.4
v -5.4 0.1 -0.5
v -5.4 0.2 0.2
v -5.4 0.2 -0.4
v -5.3 0 0.2
v -5.3 0 -0.4
v -5.3 0.1 0.2
v -5.3 0.1 -0.4
v -5.2 1.3 0
v -5.2 1.3 -0.2
v -5.2 1.6 0
v -5.2 1.6 -0.2
v -5.2 1.7 0
v -5.2 1.7 -0.2
v -5.1 1.7 0.5
v -5.1 1.7 -0.7
v -5.1 2.5 0.5
v -5.1 2.5 0.4
v -5.1 2.5 -0.1
v -5.1 2.5 -0.2
v -5.1 2.6 0.3
v -5.1 2.6 0.2
v -5.1 2.6 -0.4
v -5.1 2.6 -0.5
v -5.1 2.7 0.2
v -5.1 2.7 0.1
v -5.1 2.7 0
v -5.1 2.7 -0.1
v -5.1 2.7 -0.2
v -5.1 2.7 -0.3
v -5.1 2.8 -0.6
v -5.1 2.8 -0.7
v -5.1 2.9 -0.3
v -5.1 2.9 -0.4
v -5.1 3 0.4
v -5.1 3 0.3
v -5.1 3 0.1
v -5.1 3 0
v -5.1 3 -0.5
v -5.1 3 -0.6
v -5.1 3.7 0.5
v -5.1 3.7 -0.7
v -6.3 1.7 0.5
v -6.3 2.3 0.5
v -6.3 3.7 0.5
v -6.2 2.3 0.5
v -6.2 2.8 0.5
v -6.1 2.7 0.5
v -6.1 2.8 0.5
v -6 2.7 0.5
v -6 2.8 0.5
v -5.9 2.4 0.5
v -5.9 2.8 0.5
v -5.8 2.4 0.5
v -5.8 2.6 0.5
v -5.7 2.3 0.5
v -5.7 2.6 0.5
v -5.6 2.3 0.5
v -5.6 2.9 0.5
v -5.5 2.7 0.5
v -5.5 2.9 0.5
v -5.4 2.4 0.5
v -5.4 2.7 0.5
v -5.3 2.4 0.5
v -5.3 3.2 0.5
v -5.2 2.5 0.5
v -5.2 3.2 0.5
v -5.1 1.7 0.5
v -5.1 2.5 0.5
v -5.1 3.7 0.5
v -6 0 0.3
v -6 0.1 0.3
v -5.8 1.5 0.3
v -5.8 1.7 0.3
v -5.7 1.5 0.3
v -5.7 1.7 0.3
v -5.4 0 0.3
v -5.4 0.1 0.3
v -6.1 0 0.2
v -6.1 0.1 0.2
v -6 0 0.2
v -6 0.1 0.2
v -6 0.2 0.2
v -5.4 0 0.2
v -5.4 0.1 0.2
v -5.4 0.2 0.2
v -5.3 0 0.2
v -5.3 0.1 0.2
v -5.9 0.2 0.1
v -5.9 0.5 0.1
v -5.9 0.7 0.1
v -5.9 0.9 0.1
v -5.9 1 0.1
v -5.9 1.6 0.1
v -5.9 1.7 0.1
v -5.8 0.5 0.1
v -5.8 0.7 0.1
v -5.8 1 0.1
v -5.8 1.2 0.1
v -5.8 1.5 0.1
v -5.8 1.6 0.1
v -5.7 0.4 0.1
v -5.7 0.5 0.1
v -5.7 0.9 0.1
v -5.7 1.2 0.1
v -5.7 1.5 0.1
v -5.7 1.6 0.1
v -5.6 0.5 0.1
v -5.6 0.7 0.1
v -5.6 1 0.1
v -5.6 1.1 0.1
v -5.5 0.2 0.1
v -5.5 0.4 0.1
v -5.5 0.7 0.1
v -5.5 1 0.1
v -5.5 1.1 0.1
v -5.5 1.6 0.1
v -5.5 1.7 0.1
v -6.2 1.2 0
v -6.2 1.6 0
v -6.2 1.7 0
v -6 1.4 0
v -6 1.6 0
v -6 1.7 0
v -5.9 1.2 0
v -5.9 1.4 0
v -5.5 1.3 0
v -5.5 1.5 0
v -5.4 1.5 0
v -5.4 1.6 0
v -5.4 1.7 0
v -5.2 1.3 0
v -5.2 1.6 0
v -5.2 1.7 0
v -5.8 1.6 0.2
v -5.8 1.7 0.2
v -5.7 1.6 0.2
v -5.7 1.7 0.2
v -6.2 1.2 -0.2
v -6.2 1.6 -0.2
v -6.2 1.7 -0.2
v -6 1.4 -0.2
v -6 1.6 -0.2
v -6 1.7 -0.2
v -5.9 1.2 -0.2
v -5.9 1.4 -0.2
v -5.5 1.3 -0.2
v -5.5 1.4 -0.2
v -5.5 1.5 -0.2
v -5.4 1.5 -0.2
v -5.4 1.6 -0.2
v -5.4 1.7 -0.2
v -5.2 1.3 -0.2
v -5.2 1.6 -0.2
v -5.2 1.7 -0.2
v -5.9 0.2 -0.3
v -5.9 0.4 -0.3
v -5.9 0.5 -0.3
v -5.9 0.8 -0.3
v -5.9 1.1 -0.3
v -5.9 1.6 -0.3
v -5.9 1.7 -0.3
v -5.8 0.3 -0.3
v -5.8 0.4 -0.3
v -5.8 0.5 -0.3
v -5.8 0.6 -0.3
v -5.8 0.8 -0.3
v -5.8 1.1 -0.3
v -5.7 0.3 -0.3
v -5.7 0.6 -0.3
v -5.7 0.7 -0.3
v -5.7 1 -0.3
v -5.7 1.2 -0.3
v -5.7 1.4 -0.3
v -5.6 0.5 -0.3
v -5.6 0.6 -0.3
v -5.6 0.8 -0.3
v -5.6 1 -0.3
v -5.6 1.2 -0.3
v -5.6 1.3 -0.3
v -5.5 0.2 -0.3
v -5.5 0.5 -0.3
v -5.5 0.6 -0.3
v -5.5 0.7 -0.3
v -5.5 0.8 -0.3
v -5.5 1.3 -0.3
v -5.5 1.4 -0.3
v -5.5 1.6 -0.3
v -5.5 1.7 -0.3
v -6.1 0 -0.4
v -6.1 0.1 -0.4
v -6 0 -0.4
v -6 0.1 -0.4
v -6 0.2 -0.4
v -5.4 0 -0.4
v -5.4 0.1 -0.4
v -5.4 0.2 -0.4
v -5.3 0 -0.4
v -5.3 0.1 -0.4
v -6 0 -0.5
v -6 0.1 -0.5
v -5.4 0 -0.5
v -5.4 0.1 -0.5
v -6.3 1.7 -0.7
v -6.3 2.5 -0.7
v -6.3 3.7 -0.7
v -6.2 2.5 -0.7
v -6.2 2.9 -0.7
v -6.1 2.7 -0.7
v -6.1 2.9 -0.7
v -6 2.7 -0.7
v -6 2.9 -0.7
v -5.9 2.9 -0.7
v -5.9 3.1 -0.7
v -5.8 2.8 -0.7
v -5.8 3.1 -0.7
v -5.7 2.6 -0.7
v -5.7 2.8 -0.7
v -5.6 2.6 -0.7
v -5.6 2.8 -0.7
v -5.5 2.5 -0.7
v -5.5 2.8 -0.7
v -5.4 2.5 -0.7
v -5.4 3 -0.7
v -5.3 2.6 -0.7
v -5.3 3 -0.7
v -5.2 2.6 -0.7
v -5.2 2.8 -0.7
v -5.1 1.7 -0.7
v -5.1 2.8 -0.7
v -5.1 3.7 -0.7
v -6 0 0.3
v -5.4 0 0.3
v -6.1 0 0.2
v -6 0 0.2
v -5.4 0 0.2
v -5.3 0 0.2
v -6.1 0 -0.4
v -6 0 -0.4
v -5.4 0 -0.4
v -5.3 0 -0.4
v -6 0 -0.5
v -5.4 0 -0.5
v -6.2 1.2 0
v -5.9 1.2 0
v -6.2 1.2 -0.2
v -5.9 1.2 -0.2
v -5.5 1.3 0
v -5.2 1.3 0
v -5.5 1.3 -0.2
v -5.2 1.3 -0.2
v -5.8 1.5 0.3
v -5.7 1.5 0.3
v -5.8 1.5 0.1
v -5.7 1.5 0.1
v -6.3 1.7 0.5
v -5.1 1.7 0.5
v -5.8 1.7 0.3
v -5.7 1.7 0.3
v -5.8 1.7 0.2
v -5.7 1.7 0.2
v -5.9 1.7 0.1
v -5.5 1.7 0.1
v -6.2 1.7 0
v -6 1.7 0
v -5.4 1.7 0
v -5.2 1.7 0
v -6.2 1.7 -0.2
v -6 1.7 -0.2
v -5.4 1.7 -0.2
v -5.2 1.7 -0.2
v -5.9 1.7 -0.3
v -5.5 1.7 -0.3
v -6.3 1.7 -0.7
v -5.1 1.7 -0.7
v -6 0.1 0.3
v -5.4 0.1 0.3
v -6.1 0.1 0.2
v -6 0.1 0.2
v -5.4 0.1 0.2
v -5.3 0.1 0.2
v -6.1 0.1 -0.4
v -6 0.1 -0.4
v -5.4 0.1 -0.4
v -5.3 0.1 -0.4
v -6 0.1 -0.5
v -5.4 0.1 -0.5
v -6 0.2 0.2
v -5.4 0.2 0.2
v -5.9 0.2 0.1
v -5.5 0.2 0.1
v -5.9 0.2 -0.3
v -5.5 0.2 -0.3
v -6 0.2 -0.4
v -5.4 0.2 -0.4
v -6 1.4 0
v -5.9 1.4 0
v -6 1.4 -0.2
v -5.9 1.4 -0.2
v -5.5 1.5 0
v -5.4 1.5 0
v -5.5 1.5 -0.2
v -5.4 1.5 -0.2
v -5.8 1.6 0.2
v -5.7 1.6 0.2
v -5.8 1.6 0.1
v -5.7 1.6 0.1
v -6.3 3.7 0.5
v -5.1 3.7 0.5
v -6.3 3.7 -0.7
v -5.1 3.7 -0.7

# faces
f 3/4/1 2/4/1 1/4/1
f 4/4/1 2/4/1 3/4/1
f 5/4/1 2/4/1 4/4/1
f 6/4/1 2/4/1 5/4/1
f 7/4/1 2/4/1 6/4/1
f 8/4/1 2/4/1 7/4/1
f 9/4/1 2/4/1 8/4/1
f 10/4/1 2/4/1 9/4/1
f 11/4/1 2/4/1 10/4/1
f 12/4/1 2/4/1 11/4/1
f 13/5/1 8/5/1 7/5/1
f 13/4/1 9/4/1 8/4/1
f 14/5/1 10/5/1 9/5/1
f 14/4/1 9/4/1 13/4/1
f 15/5/1 6/5/1 5/5/1
f 15/4/1 7/4/1 6/4/1
f 16/4/1 7/4/1 15/4/1
f 17/4/1 11/4/1 10/4/1
f 18/5/1 12/5/1 11/5/1
f 18/4/1 11/4/1 17/4/1
f 19/5/1 4/5/1 3/5/1
f 19/4/1 5/4/1 4/4/1
f 20/5/1 15/5/1 5/5/1
f 20/4/1 5/4/1 19/4/1
f 20/5/1 16/5/1 15/5/1
f 21/4/1 7/4/1 16/4/1
f 21/5/1 16/5/1 20/5/1
f 21/5/1 20/5/1 19/5/1
f 22/5/1 14/5/1 13/5/1
f 22/4/1 7/4/1 21/4/1
f 22/5/1 13/5/1 7/5/1
f 23/5/1 10/5/1 14/5/1
f 23/5/1 14/5/1 22/5/1
f 23/4/1 17/4/1 10/4/1
f 24/5/1 18/5/1 17/5/1
f 24/4/1 17/4/1 23/4/1
f 25/5/1 23/5/1 22/5/1
f 25/5/1 22/5/1 21/5/1
f 25/5/1 24/5/1 23/5/1
f 25/5/1 19/5/1 3/5/1
f 25/5/1 21/5/1 19/5/1
f 26/5/1 12/5/1 18/5/1
f 26/5/1 24/5/1 25/5/1
f 26/5/1 18/5/1 24/5/1
f 29/2/1 28/2/1 27/2/1
f 30/2/1 28/2/1 29/2/1
f 31/6/1 30/6/1 29/6/1
f 32/6/1 30/6/1 31/6/1
f 35/3/1 34/3/1 33/3/1
f 36/3/1 34/3/1 35/3/1
f 41/3/1 38/3/1 37/3/1
f 42/3/1 38/3/1 41/3/1
f 43/3/1 40/3/1 39/3/1
f 44/3/1 40/3/1 43/3/1
f 45/3/1 43/3/1 42/3/1
f 46/3/1 43/3/1 45/3/1
f 49/2/1 48/2/1 47/2/1
f 50/2/1 48/2/1 49/2/1
f 51/2/1 48/2/1 50/2/1
f 52/2/1 48/2/1 51/2/1
f 53/2/1 49/2/1 47/2/1
f 54/6/1 50/6/1 49/6/1
f 54/2/1 49/2/1 53/2/1
f 55/2/1 51/2/1 50/2/1
f 55/6/1 52/6/1 51/6/1
f 56/6/1 52/6/1 55/6/1
f 57/6/1 54/6/1 53/6/1
f 58/6/1 50/6/1 54/6/1
f 58/6/1 54/6/1 57/6/1
f 58/2/1 55/2/1 50/2/1
f 58/2/1 56/2/1 55/2/1
f 59/2/1 58/2/1 57/2/1
f 59/2/1 56/2/1 58/2/1
f 60/2/1 56/2/1 59/2/1
f 61/2/1 59/2/1 57/2/1
f 62/2/1 59/2/1 61/2/1
f 63/6/1 60/6/1 59/6/1
f 63/2/1 59/2/1 62/2/1
f 64/6/1 60/6/1 63/6/1
f 65/6/1 62/6/1 61/6/1
f 66/2/1 63/2/1 62/2/1
f 66/6/1 62/6/1 65/6/1
f 66/2/1 64/2/1 63/2/1
f 67/6/1 60/6/1 64/6/1
f 67/2/1 64/2/1 66/2/1
f 67/2/1 66/2/1 65/2/1
f 68/6/1 60/6/1 67/6/1
f 69/2/1 67/2/1 65/2/1
f 69/2/1 68/2/1 67/2/1
f 70/2/1 68/2/1 69/2/1
f 71/2/1 69/2/1 65/2/1
f 72/2/1 68/2/1 70/2/1
f 73/2/1 71/2/1 65/2/1
f 73/2/1 72/2/1 71/2/1
f 74/2/1 68/2/1 72/2/1
f 74/2/1 72/2/1 73/2/1
f 75/6/1 74/6/1 73/6/1
f 76/6/1 74/6/1 75/6/1
f 79/2/1 78/2/1 77/2/1
f 80/2/1 78/2/1 79/2/1
f 81/2/1 79/2/1 77/2/1
f 82/2/1 79/2/1 81/2/1
f 85/2/1 84/2/1 83/2/1
f 86/2/1 84/2/1 85/2/1
f 87/6/1 86/6/1 85/6/1
f 88/6/1 86/6/1 87/6/1
f 89/2/2 90/2/2 91/2/2
f 91/2/2 90/2/2 92/2/2
f 91/6/2 92/6/2 93/6/2
f 93/6/2 92/6/2 94/6/2
f 95/2/2 96/2/2 97/2/2
f 97/2/2 96/2/2 98/2/2
f 95/2/2 97/2/2 99/2/2
f 99/2/2 97/2/2 100/2/2
f 101/2/2 102/2/2 103/2/2
f 103/2/2 102/2/2 104/2/2
f 101/2/2 103/2/2 105/2/2
f 105/2/2 103/2/2 106/2/2
f 103/6/2 104/6/2 107/6/2
f 106/2/2 103/2/2 107/2/2
f 104/2/2 102/2/2 108/2/2
f 107/6/2 104/6/2 108/6/2
f 108/2/2 102/2/2 109/2/2
f 106/2/2 107/2/2 110/2/2
f 105/6/2 106/6/2 110/6/2
f 107/2/2 108/2/2 110/2/2
f 110/2/2 108/2/2 111/2/2
f 108/6/2 109/6/2 112/6/2
f 111/2/2 108/2/2 112/2/2
f 112/6/2 109/6/2 113/6/2
f 110/6/2 111/6/2 114/6/2
f 105/6/2 110/6/2 114/6/2
f 112/2/2 113/2/2 115/2/2
f 114/6/2 111/6/2 115/6/2
f 111/2/2 112/2/2 115/2/2
f 115/2/2 113/2/2 116/2/2
f 116/2/2 113/2/2 117/2/2
f 114/2/2 115/2/2 118/2/2
f 115/2/2 116/2/2 118/2/2
f 116/6/2 117/6/2 118/6/2
f 118/6/2 117/6/2 119/6/2
f 114/2/2 118/2/2 120/2/2
f 118/2/2 119/2/2 120/2/2
f 120/2/2 119/2/2 121/2/2
f 114/2/2 120/2/2 122/2/2
f 120/6/2 121/6/2 123/6/2
f 122/2/2 120/2/2 123/2/2
f 122/6/2 123/6/2 124/6/2
f 123/6/2 121/6/2 125/6/2
f 124/6/2 123/6/2 125/6/2
f 121/2/2 119/2/2 126/2/2
f 125/6/2 121/6/2 126/6/2
f 126/2/2 119/2/2 127/2/2
f 124/2/2 125/2/2 128/2/2
f 125/6/2 126/6/2 128/6/2
f 126/6/2 127/6/2 128/6/2
f 127/2/2 119/2/2 129/2/2
f 128/6/2 127/6/2 129/6/2
f 124/2/2 128/2/2 130/2/2
f 128/2/2 129/2/2 130/2/2
f 129/2/2 119/2/2 131/2/2
f 130/2/2 129/2/2 131/2/2
f 131/2/2 119/2/2 132/2/2
f 131/6/2 132/6/2 133/6/2
f 133/6/2 132/6/2 134/6/2
f 124/2/2 130/2/2 135/2/2
f 133/2/2 134/2/2 136/2/2
f 124/2/2 135/2/2 137/2/2
f 135/2/2 136/2/2 137/2/2
f 136/2/2 134/2/2 138/2/2
f 137/2/2 136/2/2 138/2/2
f 137/6/2 138/6/2 139/6/2
f 139/6/2 138/6/2 140/6/2
f 141/3/2 142/3/2 145/3/2
f 145/3/2 142/3/2 146/3/2
f 143/3/2 144/3/2 147/3/2
f 147/3/2 144/3/2 148/3/2
f 146/3/2 147/3/2 149/3/2
f 149/3/2 147/3/2 150/3/2
f 151/3/2 152/3/2 153/3/2
f 153/3/2 152/3/2 154/3/2
f 155/2/2 156/2/2 157/2/2
f 157/2/2 156/2/2 158/2/2
f 157/6/2 158/6/2 159/6/2
f 159/6/2 158/6/2 160/6/2
f 161/4/2 162/4/2 163/4/2
f 163/4/2 162/4/2 164/4/2
f 164/4/2 162/4/2 165/4/2
f 165/4/2 162/4/2 166/4/2
f 164/4/2 165/4/2 167/4/2
f 167/4/2 165/4/2 168/4/2
f 166/4/2 162/4/2 169/4/2
f 169/4/2 162/4/2 170/4/2
f 168/4/2 165/4/2 171/4/2
f 167/5/2 168/5/2 171/5/2
f 171/4/2 165/4/2 172/4/2
f 172/4/2 165/4/2 173/4/2
f 165/5/2 166/5/2 174/5/2
f 173/4/2 165/4/2 174/4/2
f 166/4/2 169/4/2 175/4/2
f 174/5/2 166/5/2 175/5/2
f 175/4/2 169/4/2 176/4/2
f 170/4/2 162/4/2 177/4/2
f 177/4/2 162/4/2 178/4/2
f 176/4/2 169/4/2 179/4/2
f 173/5/2 174/5/2 179/5/2
f 174/5/2 175/5/2 179/5/2
f 175/5/2 176/5/2 179/5/2
f 169/5/2 170/5/2 180/5/2
f 179/4/2 169/4/2 180/4/2
f 163/5/2 164/5/2 181/5/2
f 164/4/2 167/4/2 181/4/2
f 167/5/2 171/5/2 182/5/2
f 181/4/2 167/4/2 182/4/2
f 171/5/2 172/5/2 182/5/2
f 172/4/2 173/4/2 183/4/2
f 182/5/2 172/5/2 183/5/2
f 179/5/2 180/5/2 184/5/2
f 183/4/2 173/4/2 184/4/2
f 173/5/2 179/5/2 184/5/2
f 180/5/2 170/5/2 185/5/2
f 184/5/2 180/5/2 185/5/2
f 170/4/2 177/4/2 185/4/2
f 177/5/2 178/5/2 186/5/2
f 185/4/2 177/4/2 186/4/2
f 183/5/2 184/5/2 187/5/2
f 181/5/2 182/5/2 187/5/2
f 185/5/2 186/5/2 187/5/2
f 184/5/2 185/5/2 187/5/2
f 163/5/2 181/5/2 187/5/2
f 182/5/2 183/5/2 187/5/2
f 186/5/2 178/5/2 188/5/2
f 187/5/2 186/5/2 188/5/2
f 192/4/3 190/4/3 189/4/3
f 192/5/3 191/5/3 190/5/3
f 193/5/3 191/5/3 192/5/3
f 194/4/3 193/4/3 192/4/3
f 195/5/3 191/5/3 193/5/3
f 195/4/3 193/4/3 194/4/3
f 196/4/3 194/4/3 192/4/3
f 196/5/3 195/5/3 194/5/3
f 197/5/3 191/5/3 195/5/3
f 197/5/3 195/5/3 196/5/3
f 198/4/3 196/4/3 192/4/3
f 198/4/3 197/4/3 196/4/3
f 199/5/3 191/5/3 197/5/3
f 199/4/3 197/4/3 198/4/3
f 200/4/3 198/4/3 192/4/3
f 200/5/3 199/5/3 198/5/3
f 201/5/3 199/5/3 200/5/3
f 202/4/3 192/4/3 189/4/3
f 202/4/3 200/4/3 192/4/3
f 202/4/3 201/4/3 200/4/3
f 203/5/3 199/5/3 201/5/3
f 203/4/3 201/4/3 202/4/3
f 204/4/3 202/4/3 189/4/3
f 204/5/3 203/5/3 202/5/3
f 205/5/3 199/5/3 203/5/3
f 205/5/3 203/5/3 204/5/3
f 205/5/3 191/5/3 199/5/3
f 206/4/3 205/4/3 204/4/3
f 207/5/3 191/5/3 205/5/3
f 207/4/3 205/4/3 206/4/3
f 208/4/3 206/4/3 204/4/3
f 209/5/3 207/5/3 206/5/3
f 209/4/3 206/4/3 208/4/3
f 210/4/3 208/4/3 204/4/3
f 210/5/3 209/5/3 208/5/3
f 211/5/3 191/5/3 207/5/3
f 211/5/3 209/5/3 210/5/3
f 211/5/3 207/5/3 209/5/3
f 212/4/3 211/4/3 210/4/3
f 213/5/3 191/5/3 211/5/3
f 213/4/3 211/4/3 212/4/3
f 214/4/3 204/4/3 189/4/3
f 214/4/3 210/4/3 204/4/3
f 214/4/3 212/4/3 210/4/3
f 215/5/3 213/5/3 212/5/3
f 215/4/3 212/4/3 214/4/3
f 216/5/3 191/5/3 213/5/3
f 216/5/3 213/5/3 215/5/3
f 221/2/3 220/2/3 219/2/3
f 222/2/3 220/2/3 221/2/3
f 223/3/3 218/3/3 217/3/3
f 224/3/3 218/3/3 223/3/3
f 227/3/3 226/3/3 225/3/3
f 228/3/3 226/3/3 227/3/3
f 231/3/3 229/3/3 228/3/3
f 232/3/3 229/3/3 231/3/3
f 233/3/3 231/3/3 230/3/3
f 234/3/3 231/3/3 233/3/3
f 242/2/3 236/2/3 235/2/3
f 242/6/3 237/6/3 236/6/3
f 243/2/3 238/2/3 237/2/3
f 243/6/3 237/6/3 242/6/3
f 244/2/3 240/2/3 239/2/3
f 244/6/3 239/6/3 238/6/3
f 245/2/3 240/2/3 244/2/3
f 246/2/3 240/2/3 245/2/3
f 247/6/3 241/6/3 240/6/3
f 247/2/3 240/2/3 246/2/3
f 248/2/3 242/2/3 235/2/3
f 248/2/3 243/2/3 242/2/3
f 249/2/3 243/2/3 248/2/3
f 250/2/3 238/2/3 243/2/3
f 250/2/3 243/2/3 249/2/3
f 250/6/3 245/6/3 244/6/3
f 250/6/3 244/6/3 238/6/3
f 251/2/3 246/2/3 245/2/3
f 251/6/3 245/6/3 250/6/3
f 252/2/3 246/2/3 251/2/3
f 253/6/3 241/6/3 247/6/3
f 254/2/3 250/2/3 249/2/3
f 254/2/3 253/2/3 252/2/3
f 254/6/3 249/6/3 248/6/3
f 254/2/3 252/2/3 251/2/3
f 254/2/3 251/2/3 250/2/3
f 255/2/3 253/2/3 254/2/3
f 256/2/3 253/2/3 255/2/3
f 257/2/3 253/2/3 256/2/3
f 258/2/3 248/2/3 235/2/3
f 259/6/3 254/6/3 248/6/3
f 259/2/3 248/2/3 258/2/3
f 259/6/3 255/6/3 254/6/3
f 260/2/3 256/2/3 255/2/3
f 260/6/3 255/6/3 259/6/3
f 261/6/3 257/6/3 256/6/3
f 261/2/3 256/2/3 260/2/3
f 262/2/3 253/2/3 257/2/3
f 262/6/3 257/6/3 261/6/3
f 263/6/3 241/6/3 253/6/3
f 263/2/3 253/2/3 262/2/3
f 264/6/3 241/6/3 263/6/3
f 268/2/3 266/2/3 265/2/3
f 269/6/3 267/6/3 266/6/3
f 269/2/3 266/2/3 268/2/3
f 270/6/3 267/6/3 269/6/3
f 271/2/3 268/2/3 265/2/3
f 272/2/3 268/2/3 271/2/3
f 275/2/3 274/2/3 273/2/3
f 278/2/3 275/2/3 273/2/3
f 278/2/3 276/2/3 275/2/3
f 279/6/3 277/6/3 276/6/3
f 279/2/3 276/2/3 278/2/3
f 280/6/3 277/6/3 279/6/3
f 281/2/4 282/2/4 283/2/4
f 283/2/4 282/2/4 284/2/4
f 285/2/4 286/2/4 288/2/4
f 286/6/4 287/6/4 289/6/4
f 288/2/4 286/2/4 289/2/4
f 289/6/4 287/6/4 290/6/4
f 285/2/4 288/2/4 291/2/4
f 291/2/4 288/2/4 292/2/4
f 293/2/4 294/2/4 296/2/4
f 294/2/4 295/2/4 296/2/4
f 293/2/4 296/2/4 299/2/4
f 296/2/4 297/2/4 299/2/4
f 297/6/4 298/6/4 300/6/4
f 299/2/4 297/2/4 300/2/4
f 300/6/4 298/6/4 301/6/4
f 302/2/4 303/2/4 309/2/4
f 303/6/4 304/6/4 310/6/4
f 309/2/4 303/2/4 310/2/4
f 304/2/4 305/2/4 311/2/4
f 310/6/4 304/6/4 311/6/4
f 311/2/4 305/2/4 312/2/4
f 305/6/4 306/6/4 313/6/4
f 312/2/4 305/2/4 313/2/4
f 306/2/4 307/2/4 314/2/4
f 313/6/4 306/6/4 314/6/4
f 302/2/4 309/2/4 315/2/4
f 309/6/4 310/6/4 315/6/4
f 311/6/4 312/6/4 315/6/4
f 310/6/4 311/6/4 315/6/4
f 313/2/4 314/2/4 316/2/4
f 315/6/4 312/6/4 316/6/4
f 312/2/4 313/2/4 316/2/4
f 316/2/4 314/2/4 317/2/4
f 317/2/4 314/2/4 318/2/4
f 314/2/4 307/2/4 319/2/4
f 318/2/4 314/2/4 319/2/4
f 319/2/4 307/2/4 320/2/4
f 315/2/4 316/2/4 321/2/4
f 316/2/4 317/2/4 321/2/4
f 321/2/4 317/2/4 322/2/4
f 317/6/4 318/6/4 323/6/4
f 318/2/4 319/2/4 324/2/4
f 323/6/4 318/6/4 324/6/4
f 319/6/4 320/6/4 325/6/4
f 324/2/4 319/2/4 325/2/4
f 325/6/4 320/6/4 326/6/4
f 302/2/4 315/2/4 327/2/4
f 315/2/4 321/2/4 327/2/4
f 321/6/4 322/6/4 328/6/4
f 327/2/4 321/2/4 328/2/4
f 322/2/4 317/2/4 329/2/4
f 328/6/4 322/6/4 329/6/4
f 317/6/4 323/6/4 330/6/4
f 329/2/4 317/2/4 330/2/4
f 323/2/4 324/2/4 331/2/4
f 330/6/4 323/6/4 331/6/4
f 325/2/4 326/2/4 331/2/4
f 324/2/4 325/2/4 331/2/4
f 326/6/4 320/6/4 332/6/4
f 331/2/4 326/2/4 332/2/4
f 320/2/4 307/2/4 333/2/4
f 332/6/4 320/6/4 333/6/4
f 307/6/4 308/6/4 334/6/4
f 333/2/4 307/2/4 334/2/4
f 334/6/4 308/6/4 335/6/4
f 336/3/4 337/3/4 338/3/4
f 338/3/4 337/3/4 339/3/4
f 339/3/4 340/3/4 342/3/4
f 342/3/4 340/3/4 343/3/4
f 341/3/4 342/3/4 344/3/4
f 344/3/4 342/3/4 345/3/4
f 346/3/4 347/3/4 348/3/4
f 348/3/4 347/3/4 349/3/4
f 350/4/4 351/4/4 353/4/4
f 351/5/4 352/5/4 353/5/4
f 353/5/4 352/5/4 354/5/4
f 353/4/4 354/4/4 355/4/4
f 354/5/4 352/5/4 356/5/4
f 355/4/4 354/4/4 356/4/4
f 353/4/4 355/4/4 357/4/4
f 355/5/4 356/5/4 357/5/4
f 356/5/4 352/5/4 358/5/4
f 357/5/4 356/5/4 358/5/4
f 357/4/4 358/4/4 359/4/4
f 358/5/4 352/5/4 359/5/4
f 359/5/4 352/5/4 360/5/4
f 357/4/4 359/4/4 361/4/4
f 359/4/4 360/4/4 361/4/4
f 360/5/4 352/5/4 362/5/4
f 361/4/4 360/4/4 362/4/4
f 353/4/4 357/4/4 363/4/4
f 357/4/4 361/4/4 363/4/4
f 361/5/4 362/5/4 364/5/4
f 363/4/4 361/4/4 364/4/4
f 353/4/4 363/4/4 365/4/4
f 363/5/4 364/5/4 365/5/4
f 364/5/4 362/5/4 366/5/4
f 365/5/4 364/5/4 366/5/4
f 350/4/4 353/4/4 367/4/4
f 353/4/4 365/4/4 367/4/4
f 365/4/4 366/4/4 367/4/4
f 366/5/4 362/5/4 368/5/4
f 367/4/4 366/4/4 368/4/4
f 350/4/4 367/4/4 369/4/4
f 367/5/4 368/5/4 369/5/4
f 368/5/4 362/5/4 370/5/4
f 369/5/4 368/5/4 370/5/4
f 369/4/4 370/4/4 371/4/4
f 370/5/4 362/5/4 372/5/4
f 371/4/4 370/4/4 372/4/4
f 369/4/4 371/4/4 373/4/4
f 371/5/4 372/5/4 373/5/4
f 373/5/4 372/5/4 374/5/4
f 350/4/4 369/4/4 375/4/4
f 369/4/4 373/4/4 375/4/4
f 373/4/4 374/4/4 375/4/4
f 374/5/4 372/5/4 376/5/4
f 375/4/4 374/4/4 376/4/4
f 362/5/4 352/5/4 377/5/4
f 376/5/4 372/5/4 377/5/4
f 372/5/4 362/5/4 377/5/4
f 381/3/5 379/3/5 378/3/5
f 382/3/5 379/3/5 381/3/5
f 384/3/5 381/3/5 380/3/5
f 384/3/5 383/3/5 382/3/5
f 384/3/5 382/3/5 381/3/5
f 385/3/5 383/3/5 384/3/5
f 386/3/5 383/3/5 385/3/5
f 387/3/5 383/3/5 386/3/5
f 388/3/5 386/3/5 385/3/5
f 389/3/5 386/3/5 388/3/5
f 392/2/5 391/2/5 390/2/5
f 393/2/5 391/2/5 392/2/5
f 396/2/5 395/2/5 394/2/5
f 397/2/5 395/2/5 396/2/5
f 400/2/5 399/2/5 398/2/5
f 401/2/5 399/2/5 400/2/5
f 404/4/5 403/4/5 402/4/5
f 405/4/5 403/4/5 404/4/5
f 406/4/5 404/4/5 402/4/5
f 407/4/5 403/4/5 405/4/5
f 408/4/5 406/4/5 402/4/5
f 408/4/5 407/4/5 406/4/5
f 409/4/5 403/4/5 407/4/5
f 409/4/5 407/4/5 408/4/5
f 410/4/5 408/4/5 402/4/5
f 411/4/5 408/4/5 410/4/5
f 412/4/5 403/4/5 409/4/5
f 413/4/5 403/4/5 412/4/5
f 414/4/5 410/4/5 402/4/5
f 415/4/5 408/4/5 411/4/5
f 416/4/5 412/4/5 409/4/5
f 417/4/5 403/4/5 413/4/5
f 418/4/5 415/4/5 414/4/5
f 418/4/5 408/4/5 415/4/5
f 419/4/5 416/4/5 409/4/5
f 419/4/5 417/4/5 416/4/5
f 420/4/5 414/4/5 402/4/5
f 420/4/5 419/4/5 418/4/5
f 420/4/5 418/4/5 414/4/5
f 421/4/5 417/4/5 419/4/5
f 421/4/5 419/4/5 420/4/5
f 421/4/5 403/4/5 417/4/5
f 422/3/6 423/3/6 425/3/6
f 425/3/6 423/3/6 426/3/6
f 424/3/6 425/3/6 428/3/6
f 428/3/6 425/3/6 429/3/6
f 426/3/6 427/3/6 430/3/6
f 430/3/6 427/3/6 431/3/6
f 429/3/6 430/3/6 432/3/6
f 432/3/6 430/3/6 433/3/6
f 434/3/6 435/3/6 436/3/6
f 436/3/6 435/3/6 437/3/6
f 434/3/6 436/3/6 438/3/6
f 437/3/6 435/3/6 439/3/6
f 434/3/6 438/3/6 440/3/6
f 438/3/6 439/3/6 440/3/6
f 439/3/6 435/3/6 441/3/6
f 440/3/6 439/3/6 441/3/6
f 442/2/6 443/2/6 444/2/6
f 444/2/6 443/2/6 445/2/6
f 446/2/6 447/2/6 448/2/6
f 448/2/6 447/2/6 449/2/6
f 450/2/6 451/2/6 452/2/6
f 452/2/6 451/2/6 453/2/6
f 454/5/6 455/5/6 456/5/6
f 456/5/6 455/5/6 457/5/6
