# MagicaVoxel @ Ephtracy

# group
o 

# material
mtllib Animals-24.mtl
usemtl palette

# normals
vn -1 0 0
vn 1 0 0
vn 0 0 1
vn 0 0 -1
vn 0 -1 0
vn 0 1 0

# texcoords
vt 0.814453 0.5
vt 0.818359 0.5
vt 0.822266 0.5
vt 0.826172 0.5
vt 0.830078 0.5
vt 0.974609 0.5
vt 0.978516 0.5
vt 0.982422 0.5

# verts
v 0.3 1.7 5.1
v 0.3 1.7 4.6
v 0.3 1.9 5.1
v 0.3 1.9 4.6
v 0.4 1.9 5.1
v 0.4 1.9 4.6
v 0.4 2.2 5.1
v 0.4 2.2 4.6
v 0.5 1.7 5.2
v 0.5 1.7 5.1
v 0.5 1.7 4.6
v 0.5 1.7 4.5
v 0.5 2.2 5.1
v 0.5 2.2 4.6
v 0.5 2.4 5.2
v 0.5 2.4 4.5
v 0.6 1.7 5.3
v 0.6 1.7 5.2
v 0.6 1.7 4.5
v 0.6 1.7 4.4
v 0.6 1.8 5.3
v 0.6 1.8 5.2
v 0.6 1.8 4.5
v 0.6 1.8 4.4
v 0.6 2.4 5.3
v 0.6 2.4 5.2
v 0.6 2.4 4.5
v 0.6 2.4 4.4
v 0.6 2.5 5.2
v 0.6 2.5 4.5
v 0.7 2.4 5.3
v 0.7 2.4 5.2
v 0.7 2.4 4.5
v 0.7 2.4 4.4
v 0.7 2.5 5.2
v 0.7 2.5 4.5
v 0.7 2.6 5.3
v 0.7 2.6 5.2
v 0.7 2.6 4.5
v 0.7 2.6 4.4
v 0.7 2.7 5.2
v 0.7 2.7 4.5
v 1 2.7 5.2
v 1 2.7 5.1
v 1 2.7 4.6
v 1 2.7 4.5
v 1 2.8 5.2
v 1 2.8 5.1
v 1 2.8 4.6
v 1 2.8 4.5
v 1.1 2.6 5.2
v 1.1 2.6 5.1
v 1.1 2.6 4.6
v 1.1 2.6 4.5
v 1.1 2.7 5.2
v 1.1 2.7 5.1
v 1.1 2.7 4.6
v 1.1 2.7 4.5
v 1.1 2.8 5.2
v 1.1 2.8 5.1
v 1.1 2.8 4.6
v 1.1 2.8 4.5
v 1.3 2.6 5.1
v 1.3 2.6 4.6
v 1.3 2.7 5.1
v 1.3 2.7 4.6
v 1.4 1.7 5.3
v 1.4 1.7 5.1
v 1.4 1.7 4.6
v 1.4 1.7 4.4
v 1.4 2.2 5.1
v 1.4 2.2 4.9
v 1.4 2.2 4.8
v 1.4 2.2 4.6
v 1.4 2.3 5.1
v 1.4 2.3 5
v 1.4 2.3 4.7
v 1.4 2.3 4.6
v 1.4 2.4 5
v 1.4 2.4 4.9
v 1.4 2.4 4.8
v 1.4 2.4 4.7
v 1.4 2.5 5.1
v 1.4 2.5 4.9
v 1.4 2.5 4.8
v 1.4 2.5 4.6
v 1.4 2.6 5.3
v 1.4 2.6 4.4
v 1.7 1.8 5.1
v 1.7 1.8 5
v 1.7 1.8 4.7
v 1.7 1.8 4.6
v 1.7 1.9 5.1
v 1.7 1.9 5
v 1.7 1.9 4.7
v 1.7 1.9 4.6
v 1.8 1.7 5.1
v 1.8 1.7 4.6
v 1.8 1.8 5.1
v 1.8 1.8 5
v 1.8 1.8 4.9
v 1.8 1.8 4.8
v 1.8 1.8 4.7
v 1.8 1.8 4.6
v 1.8 1.9 4.9
v 1.8 1.9 4.8
v 1.9 1.8 5
v 1.9 1.8 4.9
v 1.9 1.8 4.8
v 1.9 1.8 4.7
v 1.9 1.9 5.1
v 1.9 1.9 5
v 1.9 1.9 4.9
v 1.9 1.9 4.8
v 1.9 1.9 4.7
v 1.9 1.9 4.6
v 1.9 2 5
v 1.9 2 4.9
v 1.9 2 4.8
v 1.9 2 4.7
v 1.9 2.1 5
v 1.9 2.1 4.9
v 1.9 2.1 4.8
v 1.9 2.1 4.7
v 1.9 2.2 5.1
v 1.9 2.2 4.6
v 0.6 1.7 5.3
v 0.6 1.8 5.3
v 0.6 2.4 5.3
v 0.7 1.8 5.3
v 0.7 1.9 5.3
v 0.7 2.4 5.3
v 0.7 2.6 5.3
v 0.8 1.9 5.3
v 0.8 2.6 5.3
v 0.9 1.8 5.3
v 0.9 2 5.3
v 0.9 2.3 5.3
v 0.9 2.5 5.3
v 1 1.7 5.3
v 1 1.8 5.3
v 1 2.2 5.3
v 1 2.3 5.3
v 1.1 1.9 5.3
v 1.1 2 5.3
v 1.1 2.4 5.3
v 1.1 2.5 5.3
v 1.2 1.7 5.3
v 1.2 1.9 5.3
v 1.2 2.2 5.3
v 1.2 2.4 5.3
v 1.4 1.7 5.3
v 1.4 2.6 5.3
v 0.5 1.7 5.2
v 0.5 2.4 5.2
v 0.6 1.7 5.2
v 0.6 1.8 5.2
v 0.6 2.4 5.2
v 0.6 2.5 5.2
v 0.7 2.4 5.2
v 0.7 2.5 5.2
v 0.7 2.6 5.2
v 0.7 2.7 5.2
v 0.8 2.6 5.2
v 1 2.6 5.2
v 1 2.7 5.2
v 1 2.8 5.2
v 1.1 2.6 5.2
v 1.1 2.7 5.2
v 1.1 2.8 5.2
v 0.3 1.7 5.1
v 0.3 1.9 5.1
v 0.4 1.9 5.1
v 0.4 2.2 5.1
v 0.5 1.7 5.1
v 0.5 2.2 5.1
v 1.1 2.6 5.1
v 1.1 2.7 5.1
v 1.3 2.6 5.1
v 1.3 2.7 5.1
v 1.4 1.7 5.1
v 1.4 2.2 5.1
v 1.5 1.7 5.1
v 1.5 2.2 5.1
v 1.7 1.8 5.1
v 1.7 1.9 5.1
v 1.8 1.7 5.1
v 1.8 1.8 5.1
v 1.9 1.9 5.1
v 1.9 2.2 5.1
v 1.7 1.8 5
v 1.7 1.9 5
v 1.8 1.8 5
v 1.8 1.9 5
v 1.9 1.8 5
v 1.9 1.9 5
v 1.8 1.8 4.8
v 1.8 1.9 4.8
v 1.9 1.8 4.8
v 1.9 1.9 4.8
v 1 2.7 4.6
v 1 2.8 4.6
v 1.1 2.7 4.6
v 1.1 2.8 4.6
v 1 2.7 5.1
v 1 2.8 5.1
v 1.1 2.7 5.1
v 1.1 2.8 5.1
v 1.8 1.8 4.9
v 1.8 1.9 4.9
v 1.9 1.8 4.9
v 1.9 1.9 4.9
v 1.7 1.8 4.7
v 1.7 1.9 4.7
v 1.8 1.8 4.7
v 1.8 1.9 4.7
v 1.9 1.8 4.7
v 1.9 1.9 4.7
v 0.3 1.7 4.6
v 0.3 1.9 4.6
v 0.4 1.9 4.6
v 0.4 2.2 4.6
v 0.5 1.7 4.6
v 0.5 2.2 4.6
v 1.1 2.6 4.6
v 1.1 2.7 4.6
v 1.3 2.6 4.6
v 1.3 2.7 4.6
v 1.4 1.7 4.6
v 1.4 2.2 4.6
v 1.5 1.7 4.6
v 1.5 2.2 4.6
v 1.7 1.8 4.6
v 1.7 1.9 4.6
v 1.8 1.7 4.6
v 1.8 1.8 4.6
v 1.9 1.9 4.6
v 1.9 2.2 4.6
v 0.5 1.7 4.5
v 0.5 2.4 4.5
v 0.6 1.7 4.5
v 0.6 1.8 4.5
v 0.6 2.4 4.5
v 0.6 2.5 4.5
v 0.7 2.4 4.5
v 0.7 2.5 4.5
v 0.7 2.6 4.5
v 0.7 2.7 4.5
v 0.8 2.6 4.5
v 1 2.6 4.5
v 1 2.7 4.5
v 1 2.8 4.5
v 1.1 2.6 4.5
v 1.1 2.7 4.5
v 1.1 2.8 4.5
v 0.6 1.7 4.4
v 0.6 1.8 4.4
v 0.6 2.4 4.4
v 0.7 1.8 4.4
v 0.7 1.9 4.4
v 0.7 2.4 4.4
v 0.7 2.6 4.4
v 0.8 1.8 4.4
v 0.8 1.9 4.4
v 0.8 2 4.4
v 0.8 2.6 4.4
v 0.9 2 4.4
v 0.9 2.1 4.4
v 0.9 2.3 4.4
v 0.9 2.5 4.4
v 1 1.8 4.4
v 1 1.9 4.4
v 1.1 2.3 4.4
v 1.1 2.4 4.4
v 1.2 1.9 4.4
v 1.2 2.1 4.4
v 1.2 2.4 4.4
v 1.2 2.5 4.4
v 1.4 1.7 4.4
v 1.4 2.6 4.4
v 0.6 1.7 5.3
v 1 1.7 5.3
v 1.2 1.7 5.3
v 1.4 1.7 5.3
v 0.5 1.7 5.2
v 0.6 1.7 5.2
v 1 1.7 5.2
v 1.2 1.7 5.2
v 0.3 1.7 5.1
v 0.5 1.7 5.1
v 1.4 1.7 5.1
v 1.5 1.7 5.1
v 1.8 1.7 5.1
v 0.3 1.7 4.6
v 0.5 1.7 4.6
v 1.4 1.7 4.6
v 1.5 1.7 4.6
v 1.8 1.7 4.6
v 0.5 1.7 4.5
v 0.6 1.7 4.5
v 0.6 1.7 4.4
v 1.4 1.7 4.4
v 1.8 1.8 5
v 1.9 1.8 5
v 1.8 1.8 4.9
v 1.9 1.8 4.9
v 1.8 1.8 4.8
v 1.9 1.8 4.8
v 1.8 1.8 4.7
v 1.9 1.8 4.7
v 1.7 1.9 5.1
v 1.9 1.9 5.1
v 1.7 1.9 5
v 1.8 1.9 5
v 1.9 1.9 5
v 1.8 1.9 4.9
v 1.9 1.9 4.9
v 1.8 1.9 4.8
v 1.9 1.9 4.8
v 1.7 1.9 4.7
v 1.8 1.9 4.7
v 1.9 1.9 4.7
v 1.7 1.9 4.6
v 1.9 1.9 4.6
v 1.7 1.8 5.1
v 1.8 1.8 5.1
v 1.7 1.8 5
v 1.8 1.8 5
v 1.7 1.8 4.7
v 1.8 1.8 4.7
v 1.7 1.8 4.6
v 1.8 1.8 4.6
v 0.3 1.9 5.1
v 0.4 1.9 5.1
v 0.3 1.9 4.6
v 0.4 1.9 4.6
v 0.4 2.2 5.1
v 0.5 2.2 5.1
v 1.4 2.2 5.1
v 1.5 2.2 5.1
v 1.9 2.2 5.1
v 1.4 2.2 4.9
v 1.4 2.2 4.8
v 0.4 2.2 4.6
v 0.5 2.2 4.6
v 1.4 2.2 4.6
v 1.5 2.2 4.6
v 1.9 2.2 4.6
v 0.6 2.4 5.3
v 0.7 2.4 5.3
v 0.5 2.4 5.2
v 0.6 2.4 5.2
v 0.7 2.4 5.2
v 0.5 2.4 4.5
v 0.6 2.4 4.5
v 0.7 2.4 4.5
v 0.6 2.4 4.4
v 0.7 2.4 4.4
v 0.6 2.5 5.2
v 0.7 2.5 5.2
v 0.6 2.5 4.5
v 0.7 2.5 4.5
v 0.7 2.6 5.3
v 0.8 2.6 5.3
v 1.4 2.6 5.3
v 0.7 2.6 5.2
v 0.8 2.6 5.2
v 1 2.6 5.2
v 1.1 2.6 5.2
v 1.1 2.6 5.1
v 1.3 2.6 5.1
v 1.1 2.6 4.6
v 1.3 2.6 4.6
v 0.7 2.6 4.5
v 0.8 2.6 4.5
v 1 2.6 4.5
v 1.1 2.6 4.5
v 0.7 2.6 4.4
v 0.8 2.6 4.4
v 1.4 2.6 4.4
v 0.7 2.7 5.2
v 1 2.7 5.2
v 1 2.7 5.1
v 1.1 2.7 5.1
v 1.3 2.7 5.1
v 1 2.7 4.6
v 1.1 2.7 4.6
v 1.3 2.7 4.6
v 0.7 2.7 4.5
v 1 2.7 4.5
v 1 2.8 5.2
v 1.1 2.8 5.2
v 1 2.8 5.1
v 1.1 2.8 5.1
v 1 2.8 4.6
v 1.1 2.8 4.6
v 1 2.8 4.5
v 1.1 2.8 4.5

# faces
f 3/2/1 2/2/1 1/2/1
f 4/2/1 2/2/1 3/2/1
f 7/2/1 6/2/1 5/2/1
f 8/2/1 6/2/1 7/2/1
f 13/2/1 10/2/1 9/2/1
f 14/2/1 12/2/1 11/2/1
f 15/2/1 13/2/1 9/2/1
f 15/2/1 14/2/1 13/2/1
f 16/2/1 12/2/1 14/2/1
f 16/2/1 14/2/1 15/2/1
f 21/1/1 18/1/1 17/1/1
f 22/1/1 18/1/1 21/1/1
f 23/1/1 20/1/1 19/1/1
f 24/1/1 20/1/1 23/1/1
f 25/2/1 22/2/1 21/2/1
f 26/2/1 22/2/1 25/2/1
f 27/2/1 24/2/1 23/2/1
f 28/2/1 24/2/1 27/2/1
f 29/2/1 27/2/1 26/2/1
f 30/2/1 27/2/1 29/2/1
f 35/2/1 32/2/1 31/2/1
f 36/2/1 34/2/1 33/2/1
f 37/2/1 35/2/1 31/2/1
f 37/2/1 36/2/1 35/2/1
f 38/2/1 36/2/1 37/2/1
f 39/2/1 34/2/1 36/2/1
f 39/2/1 36/2/1 38/2/1
f 40/2/1 34/2/1 39/2/1
f 41/2/1 39/2/1 38/2/1
f 42/2/1 39/2/1 41/2/1
f 47/3/1 44/3/1 43/3/1
f 48/3/1 44/3/1 47/3/1
f 49/3/1 46/3/1 45/3/1
f 50/3/1 46/3/1 49/3/1
f 51/1/2 52/1/2 55/1/2
f 55/1/2 52/1/2 56/1/2
f 53/1/2 54/1/2 57/1/2
f 57/1/2 54/1/2 58/1/2
f 55/3/2 56/3/2 59/3/2
f 59/3/2 56/3/2 60/3/2
f 57/3/2 58/3/2 61/3/2
f 61/3/2 58/3/2 62/3/2
f 63/2/2 64/2/2 65/2/2
f 65/2/2 64/2/2 66/2/2
f 67/1/2 68/1/2 71/1/2
f 69/1/2 70/1/2 74/1/2
f 67/1/2 71/1/2 75/1/2
f 71/7/2 72/7/2 75/7/2
f 75/7/2 72/7/2 76/7/2
f 73/7/2 74/7/2 77/7/2
f 74/1/2 70/1/2 78/1/2
f 77/7/2 74/7/2 78/7/2
f 76/7/2 72/7/2 79/7/2
f 75/6/2 76/6/2 79/6/2
f 72/1/2 73/1/2 80/1/2
f 79/7/2 72/7/2 80/7/2
f 73/7/2 77/7/2 81/7/2
f 80/1/2 73/1/2 81/1/2
f 77/6/2 78/6/2 82/6/2
f 81/7/2 77/7/2 82/7/2
f 75/6/2 79/6/2 83/6/2
f 79/6/2 80/6/2 83/6/2
f 67/1/2 75/1/2 83/1/2
f 80/1/2 81/1/2 84/1/2
f 83/6/2 80/6/2 84/6/2
f 81/6/2 82/6/2 85/6/2
f 84/1/2 81/1/2 85/1/2
f 82/6/2 78/6/2 86/6/2
f 85/6/2 82/6/2 86/6/2
f 78/1/2 70/1/2 86/1/2
f 84/1/2 85/1/2 87/1/2
f 67/1/2 83/1/2 87/1/2
f 85/1/2 86/1/2 87/1/2
f 83/1/2 84/1/2 87/1/2
f 86/1/2 70/1/2 88/1/2
f 87/1/2 86/1/2 88/1/2
f 89/1/2 90/1/2 93/1/2
f 93/1/2 90/1/2 94/1/2
f 91/1/2 92/1/2 95/1/2
f 95/1/2 92/1/2 96/1/2
f 97/1/2 98/1/2 99/1/2
f 99/1/2 98/1/2 100/1/2
f 100/1/2 98/1/2 101/1/2
f 101/1/2 98/1/2 102/1/2
f 102/1/2 98/1/2 103/1/2
f 103/1/2 98/1/2 104/1/2
f 101/8/2 102/8/2 105/8/2
f 105/8/2 102/8/2 106/8/2
f 107/6/2 108/6/2 112/6/2
f 112/6/2 108/6/2 113/6/2
f 109/6/2 110/6/2 114/6/2
f 114/6/2 110/6/2 115/6/2
f 112/1/2 113/1/2 117/1/2
f 115/1/2 116/1/2 117/1/2
f 114/1/2 115/1/2 117/1/2
f 113/1/2 114/1/2 117/1/2
f 111/1/2 112/1/2 117/1/2
f 117/1/2 116/1/2 118/1/2
f 118/1/2 116/1/2 119/1/2
f 119/1/2 116/1/2 120/1/2
f 111/1/2 117/1/2 121/1/2
f 117/3/2 118/3/2 121/3/2
f 118/1/2 119/1/2 122/1/2
f 121/3/2 118/3/2 122/3/2
f 119/3/2 120/3/2 123/3/2
f 122/1/2 119/1/2 123/1/2
f 120/1/2 116/1/2 124/1/2
f 123/3/2 120/3/2 124/3/2
f 122/1/2 123/1/2 125/1/2
f 121/1/2 122/1/2 125/1/2
f 123/1/2 124/1/2 125/1/2
f 111/1/2 121/1/2 125/1/2
f 124/1/2 116/1/2 126/1/2
f 125/1/2 124/1/2 126/1/2
f 130/1/3 128/1/3 127/1/3
f 130/2/3 129/2/3 128/2/3
f 131/2/3 129/2/3 130/2/3
f 132/2/3 129/2/3 131/2/3
f 134/1/3 131/1/3 130/1/3
f 134/2/3 133/2/3 132/2/3
f 134/2/3 132/2/3 131/2/3
f 135/2/3 133/2/3 134/2/3
f 136/1/3 130/1/3 127/1/3
f 136/1/3 134/1/3 130/1/3
f 136/1/3 135/1/3 134/1/3
f 137/1/3 135/1/3 136/1/3
f 138/1/3 135/1/3 137/1/3
f 139/1/3 135/1/3 138/1/3
f 140/1/3 136/1/3 127/1/3
f 141/4/3 137/4/3 136/4/3
f 141/1/3 136/1/3 140/1/3
f 142/1/3 138/1/3 137/1/3
f 143/4/3 139/4/3 138/4/3
f 143/1/3 138/1/3 142/1/3
f 144/4/3 137/4/3 141/4/3
f 144/4/3 141/4/3 140/4/3
f 145/1/3 142/1/3 137/1/3
f 145/4/3 137/4/3 144/4/3
f 146/4/3 139/4/3 143/4/3
f 146/4/3 143/4/3 142/4/3
f 147/1/3 135/1/3 139/1/3
f 147/4/3 139/4/3 146/4/3
f 148/4/3 144/4/3 140/4/3
f 149/1/3 145/1/3 144/1/3
f 149/4/3 144/4/3 148/4/3
f 150/4/3 146/4/3 142/4/3
f 150/1/3 145/1/3 149/1/3
f 150/1/3 142/1/3 145/1/3
f 151/1/3 147/1/3 146/1/3
f 151/4/3 146/4/3 150/4/3
f 152/1/3 149/1/3 148/1/3
f 152/1/3 150/1/3 149/1/3
f 152/1/3 151/1/3 150/1/3
f 153/1/3 147/1/3 151/1/3
f 153/1/3 151/1/3 152/1/3
f 153/1/3 135/1/3 147/1/3
f 156/2/3 155/2/3 154/2/3
f 157/2/3 155/2/3 156/2/3
f 158/2/3 155/2/3 157/2/3
f 160/2/3 159/2/3 158/2/3
f 161/2/3 159/2/3 160/2/3
f 164/2/3 163/2/3 162/2/3
f 165/2/3 163/2/3 164/2/3
f 166/2/3 163/2/3 165/2/3
f 168/1/3 166/1/3 165/1/3
f 169/3/3 167/3/3 166/3/3
f 169/1/3 166/1/3 168/1/3
f 170/3/3 167/3/3 169/3/3
f 173/2/3 172/2/3 171/2/3
f 175/2/3 173/2/3 171/2/3
f 175/2/3 174/2/3 173/2/3
f 176/2/3 174/2/3 175/2/3
f 179/2/3 178/2/3 177/2/3
f 180/2/3 178/2/3 179/2/3
f 183/5/3 182/5/3 181/5/3
f 184/5/3 182/5/3 183/5/3
f 185/1/3 184/1/3 183/1/3
f 186/1/3 184/1/3 185/1/3
f 187/1/3 185/1/3 183/1/3
f 188/1/3 185/1/3 187/1/3
f 189/1/3 184/1/3 186/1/3
f 190/1/3 184/1/3 189/1/3
f 193/8/3 192/8/3 191/8/3
f 194/8/3 192/8/3 193/8/3
f 195/6/3 194/6/3 193/6/3
f 196/6/3 194/6/3 195/6/3
f 199/6/3 198/6/3 197/6/3
f 200/6/3 198/6/3 199/6/3
f 203/3/3 202/3/3 201/3/3
f 204/3/3 202/3/3 203/3/3
f 205/3/4 206/3/4 207/3/4
f 207/3/4 206/3/4 208/3/4
f 209/6/4 210/6/4 211/6/4
f 211/6/4 210/6/4 212/6/4
f 213/8/4 214/8/4 215/8/4
f 215/8/4 214/8/4 216/8/4
f 215/6/4 216/6/4 217/6/4
f 217/6/4 216/6/4 218/6/4
f 219/2/4 220/2/4 221/2/4
f 219/2/4 221/2/4 223/2/4
f 221/2/4 222/2/4 223/2/4
f 223/2/4 222/2/4 224/2/4
f 225/2/4 226/2/4 227/2/4
f 227/2/4 226/2/4 228/2/4
f 229/5/4 230/5/4 231/5/4
f 231/5/4 230/5/4 232/5/4
f 231/1/4 232/1/4 233/1/4
f 233/1/4 232/1/4 234/1/4
f 231/1/4 233/1/4 235/1/4
f 235/1/4 233/1/4 236/1/4
f 234/1/4 232/1/4 237/1/4
f 237/1/4 232/1/4 238/1/4
f 239/2/4 240/2/4 241/2/4
f 241/2/4 240/2/4 242/2/4
f 242/2/4 240/2/4 243/2/4
f 243/2/4 244/2/4 245/2/4
f 245/2/4 244/2/4 246/2/4
f 247/2/4 248/2/4 249/2/4
f 249/2/4 248/2/4 250/2/4
f 250/2/4 248/2/4 251/2/4
f 250/1/4 251/1/4 253/1/4
f 251/3/4 252/3/4 254/3/4
f 253/1/4 251/1/4 254/1/4
f 254/3/4 252/3/4 255/3/4
f 256/1/4 257/1/4 259/1/4
f 257/2/4 258/2/4 259/2/4
f 259/2/4 258/2/4 260/2/4
f 260/2/4 258/2/4 261/2/4
f 256/1/4 259/1/4 263/1/4
f 259/1/4 260/1/4 263/1/4
f 261/2/4 262/2/4 264/2/4
f 263/1/4 260/1/4 264/1/4
f 260/2/4 261/2/4 264/2/4
f 264/2/4 262/2/4 265/2/4
f 265/2/4 262/2/4 266/2/4
f 263/4/4 264/4/4 267/4/4
f 264/4/4 265/4/4 267/4/4
f 265/1/4 266/1/4 267/1/4
f 267/1/4 266/1/4 268/1/4
f 268/1/4 266/1/4 269/1/4
f 269/1/4 266/1/4 270/1/4
f 256/1/4 263/1/4 271/1/4
f 263/4/4 267/4/4 271/4/4
f 267/4/4 268/4/4 271/4/4
f 271/4/4 268/4/4 272/4/4
f 269/4/4 270/4/4 273/4/4
f 268/1/4 269/1/4 273/1/4
f 273/4/4 270/4/4 274/4/4
f 272/4/4 268/4/4 275/4/4
f 271/1/4 272/1/4 275/1/4
f 273/1/4 274/1/4 276/1/4
f 275/4/4 268/4/4 276/4/4
f 268/1/4 273/1/4 276/1/4
f 274/4/4 270/4/4 277/4/4
f 276/1/4 274/1/4 277/1/4
f 270/1/4 266/1/4 278/1/4
f 277/4/4 270/4/4 278/4/4
f 276/1/4 277/1/4 279/1/4
f 275/1/4 276/1/4 279/1/4
f 277/1/4 278/1/4 279/1/4
f 256/1/4 271/1/4 279/1/4
f 271/1/4 275/1/4 279/1/4
f 278/1/4 266/1/4 280/1/4
f 279/1/4 278/1/4 280/1/4
f 286/1/5 282/1/5 281/1/5
f 287/4/5 283/4/5 282/4/5
f 287/1/5 282/1/5 286/1/5
f 288/1/5 284/1/5 283/1/5
f 288/4/5 283/4/5 287/4/5
f 290/2/5 286/2/5 285/2/5
f 291/1/5 287/1/5 286/1/5
f 291/1/5 284/1/5 288/1/5
f 291/1/5 288/1/5 287/1/5
f 294/2/5 290/2/5 289/2/5
f 295/2/5 286/2/5 290/2/5
f 295/2/5 290/2/5 294/2/5
f 296/1/5 291/1/5 286/1/5
f 296/5/5 292/5/5 291/5/5
f 297/1/5 293/1/5 292/1/5
f 297/5/5 292/5/5 296/5/5
f 298/1/5 293/1/5 297/1/5
f 299/2/5 286/2/5 295/2/5
f 300/1/5 296/1/5 286/1/5
f 300/2/5 286/2/5 299/2/5
f 301/1/5 296/1/5 300/1/5
f 302/1/5 296/1/5 301/1/5
f 305/6/5 304/6/5 303/6/5
f 306/6/5 304/6/5 305/6/5
f 309/6/5 308/6/5 307/6/5
f 310/6/5 308/6/5 309/6/5
f 313/1/5 312/1/5 311/1/5
f 314/1/5 312/1/5 313/1/5
f 315/1/5 312/1/5 314/1/5
f 318/1/5 317/1/5 316/1/5
f 319/1/5 317/1/5 318/1/5
f 323/1/5 321/1/5 320/1/5
f 323/1/5 322/1/5 321/1/5
f 324/1/5 322/1/5 323/1/5
f 325/1/6 326/1/6 327/1/6
f 327/1/6 326/1/6 328/1/6
f 329/1/6 330/1/6 331/1/6
f 331/1/6 330/1/6 332/1/6
f 333/2/6 334/2/6 335/2/6
f 335/2/6 334/2/6 336/2/6
f 339/5/6 340/5/6 342/5/6
f 342/5/6 340/5/6 343/5/6
f 337/2/6 338/2/6 344/2/6
f 344/2/6 338/2/6 345/2/6
f 343/5/6 340/5/6 346/5/6
f 340/1/6 341/1/6 347/1/6
f 346/5/6 340/5/6 347/5/6
f 347/1/6 341/1/6 348/1/6
f 349/2/6 350/2/6 352/2/6
f 352/2/6 350/2/6 353/2/6
f 351/2/6 352/2/6 354/2/6
f 354/2/6 352/2/6 355/2/6
f 355/2/6 356/2/6 357/2/6
f 357/2/6 356/2/6 358/2/6
f 359/2/6 360/2/6 361/2/6
f 361/2/6 360/2/6 362/2/6
f 363/2/6 364/2/6 366/2/6
f 364/1/6 365/1/6 367/1/6
f 366/2/6 364/2/6 367/2/6
f 367/1/6 365/1/6 368/1/6
f 368/1/6 365/1/6 369/1/6
f 369/1/6 365/1/6 370/1/6
f 370/1/6 365/1/6 371/1/6
f 371/1/6 365/1/6 373/1/6
f 372/1/6 373/1/6 377/1/6
f 374/2/6 375/2/6 378/2/6
f 375/1/6 376/1/6 379/1/6
f 378/2/6 375/2/6 379/2/6
f 376/1/6 377/1/6 379/1/6
f 373/1/6 365/1/6 380/1/6
f 379/1/6 377/1/6 380/1/6
f 377/1/6 373/1/6 380/1/6
f 381/2/6 382/2/6 383/2/6
f 381/2/6 383/2/6 386/2/6
f 384/2/6 385/2/6 386/2/6
f 383/2/6 384/2/6 386/2/6
f 386/2/6 385/2/6 387/2/6
f 387/2/6 385/2/6 388/2/6
f 381/2/6 386/2/6 389/2/6
f 389/2/6 386/2/6 390/2/6
f 391/3/6 392/3/6 393/3/6
f 393/3/6 392/3/6 394/3/6
f 395/3/6 396/3/6 397/3/6
f 397/3/6 396/3/6 398/3/6
