# MagicaVoxel @ Ephtracy

# group
o 

# material
mtllib Animals-23.mtl
usemtl palette

# normals
vn -1 0 0
vn 1 0 0
vn 0 0 1
vn 0 0 -1
vn 0 -1 0
vn 0 1 0

# texcoords
vt 0.814453 0.5
vt 0.826172 0.5

# verts
v -1.1 0.9 5.2
v -1.1 0.9 4.4
v -1.1 0.9 4.3
v -1.1 1 5.2
v -1.1 1 4.9
v -1.1 1.1 4.4
v -1.1 1.1 4.3
v -1.1 1.2 5.1
v -1.1 1.2 4.9
v -1.1 1.2 4.6
v -1.1 1.2 4.4
v -1.1 1.3 4.4
v -1.1 1.3 4.3
v -1.1 1.4 5.2
v -1.1 1.4 5.1
v -1.1 1.4 4.6
v -1.1 1.4 4.5
v -1.1 1.6 5.2
v -1.1 1.6 4.9
v -1.1 1.6 4.6
v -1.1 1.6 4.5
v -1.1 1.6 4.3
v -1 1.2 4.9
v -1 1.2 4.6
v -1 1.4 4.6
v -1 1.6 5.2
v -1 1.6 4.9
v -1 1.6 4.6
v -1 1.6 4.5
v -1 1.6 4.3
v -1 1.7 5.2
v -1 1.7 4.3
v -0.6 1.6 5.2
v -0.6 1.6 5
v -0.6 1.6 4.3
v -0.6 1.7 5.2
v -0.6 1.7 5
v -0.6 1.7 4.3
v -0.5 1.5 5.2
v -0.5 1.5 5
v -0.5 1.5 4.3
v -0.5 1.6 5.2
v -0.5 1.6 5
v -0.5 1.6 4.3
v 1 0.9 5.2
v 1 0.9 4.4
v 1 0.9 4.3
v 1 1 4.9
v 1 1 4.6
v 1 1.1 5
v 1 1.1 4.9
v 1 1.1 4.6
v 1 1.1 4.5
v 1 1.1 4.4
v 1 1.2 5.1
v 1 1.2 5
v 1 1.2 4.5
v 1 1.2 4.4
v 1 1.2 4.3
v 1 1.3 5.2
v 1 1.3 5.1
v 1 1.3 4.4
v 1 1.3 4.3
v 1.1 1 4.9
v 1.1 1 4.6
v 1.1 1.1 5
v 1.1 1.1 4.9
v 1.1 1.1 4.6
v 1.1 1.1 4.5
v 1.1 1.2 5.1
v 1.1 1.2 5
v 1.1 1.2 4.9
v 1.1 1.2 4.5
v 1.1 1.2 4.4
v 1.1 1.3 5.2
v 1.1 1.3 5.1
v 1.1 1.3 4.9
v 1.1 1.3 4.7
v 1.1 1.3 4.6
v 1.1 1.3 4.5
v 1.1 1.3 4.4
v 1.1 1.3 4.3
v 1.1 1.4 5.1
v 1.1 1.4 4.9
v 1.1 1.5 5.2
v 1.1 1.5 4.7
v 1.1 1.5 4.5
v 1.1 1.5 4.3
v -1.1 0.9 5.2
v -1.1 1 5.2
v -1.1 1.4 5.2
v -1.1 1.6 5.2
v -1 1 5.2
v -1 1.2 5.2
v -1 1.6 5.2
v -1 1.7 5.2
v -0.8 1 5.2
v -0.8 1.2 5.2
v -0.7 1.2 5.2
v -0.7 1.4 5.2
v -0.7 1.5 5.2
v -0.7 1.7 5.2
v -0.6 1.6 5.2
v -0.6 1.7 5.2
v -0.5 1 5.2
v -0.5 1.2 5.2
v -0.5 1.5 5.2
v -0.5 1.6 5.2
v -0.2 1.2 5.2
v -0.2 1.4 5.2
v 0.1 1 5.2
v 0.1 1.2 5.2
v 0.1 1.4 5.2
v 0.1 1.5 5.2
v 0.3 1.2 5.2
v 0.3 1.5 5.2
v 0.4 1 5.2
v 0.4 1.1 5.2
v 0.4 1.2 5.2
v 0.4 1.3 5.2
v 0.6 1.1 5.2
v 0.6 1.3 5.2
v 1 0.9 5.2
v 1 1.3 5.2
v 1.1 1.3 5.2
v 1.1 1.5 5.2
v 1 1.2 5.1
v 1 1.3 5.1
v 1.1 1.2 5.1
v 1.1 1.3 5.1
v 1 1.1 5
v 1 1.2 5
v 1.1 1.1 5
v 1.1 1.2 5
v 1 1 4.9
v 1 1.1 4.9
v 1.1 1 4.9
v 1.1 1.1 4.9
v -1.1 1.2 4.6
v -1.1 1.4 4.6
v -1.1 1.6 4.6
v -1 1.2 4.6
v -1 1.4 4.6
v -1 1.6 4.6
v -1.1 1.2 4.9
v -1.1 1.6 4.9
v -1 1.2 4.9
v -1 1.6 4.9
v 1 1 4.6
v 1 1.1 4.6
v 1.1 1 4.6
v 1.1 1.1 4.6
v 1 1.1 4.5
v 1 1.2 4.5
v 1.1 1.1 4.5
v 1.1 1.2 4.5
v 1 1.2 4.4
v 1 1.3 4.4
v 1.1 1.2 4.4
v 1.1 1.3 4.4
v -1.1 0.9 4.3
v -1.1 1.1 4.3
v -1.1 1.3 4.3
v -1.1 1.6 4.3
v -1 1.3 4.3
v -1 1.4 4.3
v -1 1.6 4.3
v -1 1.7 4.3
v -0.9 0.9 4.3
v -0.9 1.1 4.3
v -0.9 1.3 4.3
v -0.9 1.4 4.3
v -0.9 1.6 4.3
v -0.9 1.7 4.3
v -0.7 1.1 4.3
v -0.7 1.3 4.3
v -0.7 1.5 4.3
v -0.7 1.7 4.3
v -0.6 1.3 4.3
v -0.6 1.5 4.3
v -0.6 1.6 4.3
v -0.6 1.7 4.3
v -0.5 1.1 4.3
v -0.5 1.3 4.3
v -0.5 1.5 4.3
v -0.5 1.6 4.3
v -0.3 1.1 4.3
v -0.3 1.3 4.3
v -0.2 1 4.3
v -0.2 1.1 4.3
v -0.2 1.4 4.3
v -0.2 1.5 4.3
v -0.1 1.2 4.3
v -0.1 1.3 4.3
v 0 1 4.3
v 0 1.2 4.3
v 0.1 1.4 4.3
v 0.1 1.5 4.3
v 0.2 1 4.3
v 0.2 1.3 4.3
v 0.3 1.3 4.3
v 0.3 1.4 4.3
v 0.4 1 4.3
v 0.4 1.1 4.3
v 0.7 1.1 4.3
v 0.7 1.4 4.3
v 0.8 0.9 4.3
v 0.8 1.1 4.3
v 0.9 1.1 4.3
v 0.9 1.2 4.3
v 1 0.9 4.3
v 1 1.2 4.3
v 1 1.3 4.3
v 1.1 1.3 4.3
v 1.1 1.5 4.3
v -1.1 0.9 5.2
v 1 0.9 5.2
v -1.1 0.9 4.4
v -0.9 0.9 4.4
v 0.8 0.9 4.4
v 1 0.9 4.4
v -1.1 0.9 4.3
v -0.9 0.9 4.3
v 0.8 0.9 4.3
v 1 0.9 4.3
v 1 1 4.9
v 1.1 1 4.9
v 1 1 4.6
v 1.1 1 4.6
v 1 1.1 5
v 1.1 1.1 5
v 1 1.1 4.9
v 1.1 1.1 4.9
v 1 1.1 4.6
v 1.1 1.1 4.6
v 1 1.1 4.5
v 1.1 1.1 4.5
v 1 1.2 5.1
v 1.1 1.2 5.1
v 1 1.2 5
v 1.1 1.2 5
v 1 1.2 4.5
v 1.1 1.2 4.5
v 1 1.2 4.4
v 1.1 1.2 4.4
v 1 1.3 5.2
v 1.1 1.3 5.2
v 1 1.3 5.1
v 1.1 1.3 5.1
v 1 1.3 4.4
v 1.1 1.3 4.4
v 1 1.3 4.3
v 1.1 1.3 4.3
v -1.1 1.2 4.9
v -1 1.2 4.9
v -1.1 1.2 4.6
v -1 1.2 4.6
v -0.5 1.5 5.2
v 0.1 1.5 5.2
v 0.3 1.5 5.2
v 1.1 1.5 5.2
v 0.1 1.5 5.1
v 0.3 1.5 5.1
v -0.5 1.5 5
v -0.4 1.5 4.9
v -0.1 1.5 4.9
v -0.3 1.5 4.7
v -0.1 1.5 4.7
v 1 1.5 4.7
v 1.1 1.5 4.7
v -0.4 1.5 4.5
v -0.3 1.5 4.5
v -0.2 1.5 4.5
v 0 1.5 4.5
v 1 1.5 4.5
v 1.1 1.5 4.5
v 0 1.5 4.4
v 0.1 1.5 4.4
v -0.5 1.5 4.3
v -0.2 1.5 4.3
v 0.1 1.5 4.3
v 1.1 1.5 4.3
v -1.1 1.6 5.2
v -1 1.6 5.2
v -0.6 1.6 5.2
v -0.5 1.6 5.2
v -0.6 1.6 5
v -0.5 1.6 5
v -1.1 1.6 4.9
v -1 1.6 4.9
v -1.1 1.6 4.6
v -1 1.6 4.6
v -1.1 1.6 4.5
v -1 1.6 4.5
v -1.1 1.6 4.3
v -1 1.6 4.3
v -0.6 1.6 4.3
v -0.5 1.6 4.3
v -1 1.7 5.2
v -0.7 1.7 5.2
v -0.6 1.7 5.2
v -0.7 1.7 5
v -0.6 1.7 5
v -0.9 1.7 4.4
v -0.7 1.7 4.4
v -1 1.7 4.3
v -0.9 1.7 4.3
v -0.7 1.7 4.3
v -0.6 1.7 4.3

# faces
f 4/1/1 2/1/1 1/1/1
f 5/1/1 2/1/1 4/1/1
f 6/2/1 3/2/1 2/2/1
f 6/1/1 2/1/1 5/1/1
f 7/2/1 3/2/1 6/2/1
f 8/2/1 5/2/1 4/2/1
f 9/1/1 6/1/1 5/1/1
f 9/2/1 5/2/1 8/2/1
f 9/1/1 7/1/1 6/1/1
f 10/1/1 7/1/1 9/1/1
f 11/1/1 7/1/1 10/1/1
f 12/1/1 7/1/1 11/1/1
f 12/2/1 11/2/1 10/2/1
f 13/1/1 7/1/1 12/1/1
f 14/2/1 8/2/1 4/2/1
f 15/1/1 9/1/1 8/1/1
f 15/2/1 8/2/1 14/2/1
f 16/2/1 12/2/1 10/2/1
f 16/2/1 13/2/1 12/2/1
f 17/2/1 13/2/1 16/2/1
f 18/1/1 15/1/1 14/1/1
f 19/1/1 9/1/1 15/1/1
f 19/1/1 15/1/1 18/1/1
f 20/1/1 17/1/1 16/1/1
f 21/2/1 13/2/1 17/2/1
f 21/1/1 17/1/1 20/1/1
f 22/2/1 13/2/1 21/2/1
f 25/1/1 24/1/1 23/1/1
f 27/1/1 25/1/1 23/1/1
f 28/1/1 25/1/1 27/1/1
f 31/1/1 28/1/1 27/1/1
f 31/1/1 30/1/1 29/1/1
f 31/1/1 29/1/1 28/1/1
f 31/1/1 27/1/1 26/1/1
f 32/1/1 30/1/1 31/1/1
f 33/2/2 34/2/2 36/2/2
f 34/1/2 35/1/2 37/1/2
f 36/2/2 34/2/2 37/2/2
f 37/1/2 35/1/2 38/1/2
f 39/2/2 40/2/2 42/2/2
f 40/1/2 41/1/2 43/1/2
f 42/2/2 40/2/2 43/2/2
f 43/1/2 41/1/2 44/1/2
f 45/1/2 46/1/2 48/1/2
f 48/1/2 46/1/2 49/1/2
f 45/1/2 48/1/2 50/1/2
f 50/1/2 48/1/2 51/1/2
f 49/1/2 46/1/2 52/1/2
f 52/1/2 46/1/2 53/1/2
f 46/2/2 47/2/2 54/2/2
f 53/1/2 46/1/2 54/1/2
f 45/1/2 50/1/2 55/1/2
f 55/1/2 50/1/2 56/1/2
f 53/2/2 54/2/2 57/2/2
f 54/2/2 47/2/2 58/2/2
f 57/2/2 54/2/2 58/2/2
f 58/2/2 47/2/2 59/2/2
f 45/1/2 55/1/2 60/1/2
f 60/1/2 55/1/2 61/1/2
f 58/1/2 59/1/2 62/1/2
f 62/1/2 59/1/2 63/1/2
f 64/1/2 65/1/2 67/1/2
f 67/1/2 65/1/2 68/1/2
f 66/1/2 67/1/2 71/1/2
f 67/2/2 68/2/2 72/2/2
f 71/1/2 67/1/2 72/1/2
f 68/1/2 69/1/2 73/1/2
f 70/2/2 71/2/2 76/2/2
f 71/2/2 72/2/2 76/2/2
f 72/2/2 68/2/2 77/2/2
f 76/2/2 72/2/2 77/2/2
f 77/2/2 68/2/2 78/2/2
f 73/1/2 74/1/2 79/1/2
f 78/2/2 68/2/2 79/2/2
f 68/1/2 73/1/2 79/1/2
f 79/1/2 74/1/2 80/1/2
f 80/1/2 74/1/2 81/1/2
f 75/1/2 76/1/2 83/1/2
f 76/2/2 77/2/2 83/2/2
f 77/1/2 78/1/2 84/1/2
f 83/2/2 77/2/2 84/2/2
f 75/1/2 83/1/2 85/1/2
f 83/1/2 84/1/2 85/1/2
f 84/1/2 78/1/2 86/1/2
f 85/1/2 84/1/2 86/1/2
f 78/2/2 79/2/2 86/2/2
f 79/2/2 80/2/2 86/2/2
f 81/1/2 82/1/2 87/1/2
f 86/2/2 80/2/2 87/2/2
f 80/1/2 81/1/2 87/1/2
f 87/1/2 82/1/2 88/1/2
f 93/1/3 90/1/3 89/1/3
f 93/2/3 91/2/3 90/2/3
f 94/2/3 91/2/3 93/2/3
f 95/1/3 92/1/3 91/1/3
f 97/1/3 93/1/3 89/1/3
f 97/1/3 94/1/3 93/1/3
f 98/2/3 91/2/3 94/2/3
f 98/1/3 94/1/3 97/1/3
f 99/2/3 98/2/3 97/2/3
f 99/2/3 91/2/3 98/2/3
f 100/1/3 96/1/3 95/1/3
f 100/2/3 91/2/3 99/2/3
f 100/1/3 95/1/3 91/1/3
f 101/1/3 96/1/3 100/1/3
f 102/1/3 96/1/3 101/1/3
f 103/2/3 102/2/3 101/2/3
f 104/2/3 102/2/3 103/2/3
f 105/1/3 97/1/3 89/1/3
f 105/2/3 99/2/3 97/2/3
f 106/1/3 100/1/3 99/1/3
f 106/2/3 99/2/3 105/2/3
f 106/1/3 101/1/3 100/1/3
f 107/2/3 103/2/3 101/2/3
f 107/1/3 101/1/3 106/1/3
f 108/2/3 103/2/3 107/2/3
f 109/1/3 106/1/3 105/1/3
f 109/1/3 107/1/3 106/1/3
f 110/1/3 107/1/3 109/1/3
f 111/1/3 105/1/3 89/1/3
f 111/1/3 109/1/3 105/1/3
f 112/2/3 110/2/3 109/2/3
f 112/1/3 109/1/3 111/1/3
f 113/1/3 107/1/3 110/1/3
f 113/2/3 110/2/3 112/2/3
f 114/1/3 107/1/3 113/1/3
f 115/2/3 112/2/3 111/2/3
f 115/2/3 113/2/3 112/2/3
f 115/2/3 114/2/3 113/2/3
f 116/2/3 114/2/3 115/2/3
f 117/1/3 111/1/3 89/1/3
f 117/2/3 115/2/3 111/2/3
f 118/2/3 115/2/3 117/2/3
f 119/1/3 116/1/3 115/1/3
f 119/2/3 115/2/3 118/2/3
f 120/1/3 116/1/3 119/1/3
f 121/1/3 118/1/3 117/1/3
f 121/2/3 119/2/3 118/2/3
f 121/2/3 120/2/3 119/2/3
f 122/1/3 116/1/3 120/1/3
f 122/2/3 120/2/3 121/2/3
f 123/1/3 121/1/3 117/1/3
f 123/1/3 117/1/3 89/1/3
f 123/1/3 122/1/3 121/1/3
f 124/1/3 116/1/3 122/1/3
f 124/1/3 122/1/3 123/1/3
f 125/1/3 116/1/3 124/1/3
f 126/1/3 116/1/3 125/1/3
f 129/2/3 128/2/3 127/2/3
f 130/2/3 128/2/3 129/2/3
f 133/1/3 132/1/3 131/1/3
f 134/1/3 132/1/3 133/1/3
f 137/1/3 136/1/3 135/1/3
f 138/1/3 136/1/3 137/1/3
f 142/2/3 140/2/3 139/2/3
f 143/1/3 141/1/3 140/1/3
f 143/2/3 140/2/3 142/2/3
f 144/1/3 141/1/3 143/1/3
f 145/1/4 146/1/4 147/1/4
f 147/1/4 146/1/4 148/1/4
f 149/1/4 150/1/4 151/1/4
f 151/1/4 150/1/4 152/1/4
f 153/1/4 154/1/4 155/1/4
f 155/1/4 154/1/4 156/1/4
f 157/1/4 158/1/4 159/1/4
f 159/1/4 158/1/4 160/1/4
f 162/1/4 163/1/4 165/1/4
f 163/2/4 164/2/4 165/2/4
f 165/2/4 164/2/4 166/2/4
f 166/2/4 164/2/4 167/2/4
f 161/2/4 162/2/4 169/2/4
f 162/1/4 165/1/4 170/1/4
f 169/2/4 162/2/4 170/2/4
f 165/1/4 166/1/4 170/1/4
f 170/1/4 166/1/4 171/1/4
f 166/2/4 167/2/4 172/2/4
f 171/1/4 166/1/4 172/1/4
f 167/1/4 168/1/4 173/1/4
f 172/2/4 167/2/4 173/2/4
f 173/1/4 168/1/4 174/1/4
f 170/1/4 171/1/4 175/1/4
f 169/1/4 170/1/4 175/1/4
f 171/2/4 172/2/4 176/2/4
f 175/1/4 171/1/4 176/1/4
f 173/2/4 174/2/4 176/2/4
f 172/2/4 173/2/4 176/2/4
f 176/2/4 174/2/4 177/2/4
f 177/2/4 174/2/4 178/2/4
f 175/2/4 176/2/4 179/2/4
f 176/2/4 177/2/4 179/2/4
f 177/1/4 178/1/4 180/1/4
f 179/2/4 177/2/4 180/2/4
f 180/1/4 178/1/4 181/1/4
f 181/1/4 178/1/4 182/1/4
f 169/1/4 175/1/4 183/1/4
f 175/2/4 179/2/4 183/2/4
f 180/1/4 181/1/4 184/1/4
f 183/2/4 179/2/4 184/2/4
f 179/1/4 180/1/4 184/1/4
f 184/1/4 181/1/4 185/1/4
f 185/1/4 181/1/4 186/1/4
f 169/1/4 183/1/4 187/1/4
f 183/1/4 184/1/4 187/1/4
f 184/1/4 185/1/4 187/1/4
f 187/1/4 185/1/4 188/1/4
f 169/1/4 187/1/4 189/1/4
f 187/2/4 188/2/4 190/2/4
f 189/1/4 187/1/4 190/1/4
f 188/1/4 185/1/4 191/1/4
f 191/1/4 185/1/4 192/1/4
f 190/2/4 188/2/4 193/2/4
f 189/2/4 190/2/4 193/2/4
f 188/1/4 191/1/4 194/1/4
f 193/2/4 188/2/4 194/2/4
f 169/1/4 189/1/4 195/1/4
f 189/2/4 193/2/4 195/2/4
f 193/1/4 194/1/4 196/1/4
f 195/2/4 193/2/4 196/2/4
f 194/1/4 191/1/4 197/1/4
f 196/1/4 194/1/4 197/1/4
f 195/1/4 196/1/4 197/1/4
f 191/2/4 192/2/4 197/2/4
f 197/2/4 192/2/4 198/2/4
f 169/1/4 195/1/4 199/1/4
f 195/1/4 197/1/4 199/1/4
f 197/1/4 198/1/4 199/1/4
f 199/1/4 198/1/4 200/1/4
f 199/2/4 200/2/4 201/2/4
f 200/1/4 198/1/4 201/1/4
f 201/1/4 198/1/4 202/1/4
f 169/1/4 199/1/4 203/1/4
f 199/2/4 201/2/4 203/2/4
f 201/2/4 202/2/4 203/2/4
f 203/2/4 202/2/4 204/2/4
f 203/1/4 204/1/4 205/1/4
f 204/2/4 202/2/4 205/2/4
f 202/1/4 198/1/4 206/1/4
f 205/2/4 202/2/4 206/2/4
f 203/1/4 205/1/4 207/1/4
f 169/1/4 203/1/4 207/1/4
f 205/1/4 206/1/4 207/1/4
f 207/1/4 206/1/4 208/1/4
f 207/2/4 208/2/4 209/2/4
f 208/1/4 206/1/4 209/1/4
f 209/1/4 206/1/4 210/1/4
f 207/2/4 209/2/4 211/2/4
f 209/2/4 210/2/4 211/2/4
f 210/1/4 206/1/4 212/1/4
f 211/2/4 210/2/4 212/2/4
f 212/1/4 206/1/4 213/1/4
f 213/1/4 206/1/4 214/1/4
f 206/1/4 198/1/4 215/1/4
f 214/1/4 206/1/4 215/1/4
f 218/1/5 217/1/5 216/1/5
f 219/1/5 217/1/5 218/1/5
f 220/1/5 217/1/5 219/1/5
f 221/1/5 217/1/5 220/1/5
f 222/2/5 219/2/5 218/2/5
f 223/1/5 220/1/5 219/1/5
f 223/2/5 219/2/5 222/2/5
f 224/2/5 221/2/5 220/2/5
f 224/1/5 220/1/5 223/1/5
f 225/2/5 221/2/5 224/2/5
f 228/1/5 227/1/5 226/1/5
f 229/1/5 227/1/5 228/1/5
f 232/1/5 231/1/5 230/1/5
f 233/1/5 231/1/5 232/1/5
f 236/1/5 235/1/5 234/1/5
f 237/1/5 235/1/5 236/1/5
f 240/2/5 239/2/5 238/2/5
f 241/2/5 239/2/5 240/2/5
f 244/1/5 243/1/5 242/1/5
f 245/1/5 243/1/5 244/1/5
f 248/1/5 247/1/5 246/1/5
f 249/1/5 247/1/5 248/1/5
f 252/1/5 251/1/5 250/1/5
f 253/1/5 251/1/5 252/1/5
f 254/1/6 255/1/6 256/1/6
f 256/1/6 255/1/6 257/1/6
f 258/1/6 259/1/6 262/1/6
f 259/2/6 260/2/6 262/2/6
f 260/1/6 261/1/6 263/1/6
f 262/2/6 260/2/6 263/2/6
f 258/1/6 262/1/6 264/1/6
f 262/1/6 263/1/6 264/1/6
f 264/1/6 263/1/6 265/1/6
f 265/1/6 263/1/6 266/1/6
f 265/2/6 266/2/6 267/2/6
f 266/1/6 263/1/6 268/1/6
f 267/2/6 266/2/6 268/2/6
f 263/1/6 261/1/6 269/1/6
f 268/1/6 263/1/6 269/1/6
f 269/1/6 261/1/6 270/1/6
f 264/1/6 265/1/6 271/1/6
f 265/2/6 267/2/6 271/2/6
f 267/1/6 268/1/6 272/1/6
f 271/2/6 267/2/6 272/2/6
f 268/1/6 269/1/6 272/1/6
f 272/1/6 269/1/6 273/1/6
f 273/1/6 269/1/6 274/1/6
f 269/2/6 270/2/6 275/2/6
f 274/1/6 269/1/6 275/1/6
f 275/2/6 270/2/6 276/2/6
f 273/2/6 274/2/6 277/2/6
f 274/1/6 275/1/6 277/1/6
f 275/1/6 276/1/6 277/1/6
f 277/1/6 276/1/6 278/1/6
f 264/1/6 271/1/6 279/1/6
f 271/1/6 272/1/6 279/1/6
f 272/1/6 273/1/6 279/1/6
f 277/2/6 278/2/6 280/2/6
f 279/1/6 273/1/6 280/1/6
f 273/2/6 277/2/6 280/2/6
f 278/1/6 276/1/6 281/1/6
f 280/2/6 278/2/6 281/2/6
f 281/1/6 276/1/6 282/1/6
f 285/2/6 286/2/6 287/2/6
f 287/2/6 286/2/6 288/2/6
f 283/1/6 284/1/6 289/1/6
f 289/1/6 284/1/6 290/1/6
f 291/1/6 292/1/6 293/1/6
f 293/1/6 292/1/6 294/1/6
f 293/2/6 294/2/6 295/2/6
f 295/2/6 294/2/6 296/2/6
f 287/1/6 288/1/6 297/1/6
f 297/1/6 288/1/6 298/1/6
f 299/1/6 300/1/6 302/1/6
f 300/2/6 301/2/6 302/2/6
f 302/2/6 301/2/6 303/2/6
f 299/1/6 302/1/6 304/1/6
f 302/1/6 303/1/6 304/1/6
f 304/1/6 303/1/6 305/1/6
f 299/1/6 304/1/6 306/1/6
f 304/2/6 305/2/6 307/2/6
f 306/1/6 304/1/6 307/1/6
f 305/1/6 303/1/6 308/1/6
f 307/2/6 305/2/6 308/2/6
f 308/1/6 303/1/6 309/1/6
