# MagicaVoxel @ Ephtracy

# group
o 

# material
mtllib Plants-12.mtl
usemtl palette

# normals
vn -1 0 0
vn 1 0 0
vn 0 0 1
vn 0 0 -1
vn 0 -1 0
vn 0 1 0

# texcoords
vt 0.943359 0.5
vt 0.951172 0.5
vt 0.955078 0.5
vt 0.958984 0.5
vt 0.962891 0.5
vt 0.966797 0.5
vt 0.974609 0.5
vt 0.986328 0.5

# verts
v 0.3 0.2 0
v 0.3 0.2 -0.1
v 0.3 0.3 0
v 0.3 0.3 -0.1
v 0.3 0.4 0
v 0.3 0.4 -0.1
v 0.3 0.5 0
v 0.3 0.5 -0.1
v 0.3 0.6 0
v 0.3 0.6 -0.1
v 0.3 0.7 0
v 0.3 0.7 -0.1
v 0.3 0.8 0.2
v 0.3 0.8 0.1
v 0.3 1 0.2
v 0.3 1 0.1
v 0.3 1.1 0.2
v 0.3 1.1 0.1
v 0.4 0.1 0
v 0.4 0.1 -0.1
v 0.4 0.2 0
v 0.4 0.2 -0.1
v 0.4 0.3 0
v 0.4 0.3 -0.1
v 0.4 0.4 0
v 0.4 0.4 -0.1
v 0.4 0.5 0
v 0.4 0.5 -0.1
v 0.4 0.6 0
v 0.4 0.6 -0.1
v 0.4 0.7 0.2
v 0.4 0.7 0.1
v 0.4 0.8 0.2
v 0.4 0.8 0.1
v 0.4 1.1 0.2
v 0.4 1.1 0.1
v 0.4 1.2 0.2
v 0.4 1.2 0.1
v 0.5 0 0
v 0.5 0 -0.1
v 0.5 0.1 0
v 0.5 0.1 -0.1
v 0.5 0.2 0
v 0.5 0.2 -0.1
v 0.5 0.3 0
v 0.5 0.3 -0.1
v 0.5 0.4 0
v 0.5 0.4 -0.1
v 0.5 0.5 0
v 0.5 0.5 -0.1
v 0.5 0.6 0
v 0.5 0.6 -0.1
v 0.5 0.9 0.1
v 0.5 0.9 0
v 0.5 1 0.1
v 0.5 1 -0.1
v 0.7 0.2 0
v 0.7 0.2 -0.1
v 0.7 0.3 0
v 0.7 0.3 -0.1
v 0.7 0.4 0
v 0.7 0.4 -0.1
v 0.7 0.5 0
v 0.7 0.5 -0.1
v 0.7 0.6 0
v 0.7 0.6 -0.1
v 0.7 0.7 0
v 0.7 0.7 -0.1
v 0.4 0.2 0
v 0.4 0.2 -0.1
v 0.4 0.3 0
v 0.4 0.3 -0.1
v 0.4 0.4 0
v 0.4 0.4 -0.1
v 0.4 0.5 0
v 0.4 0.5 -0.1
v 0.4 0.6 0
v 0.4 0.6 -0.1
v 0.4 0.7 0
v 0.4 0.7 -0.1
v 0.6 0 0
v 0.6 0 -0.1
v 0.6 0.1 0
v 0.6 0.1 -0.1
v 0.6 0.2 0
v 0.6 0.2 -0.1
v 0.6 0.3 0
v 0.6 0.3 -0.1
v 0.6 0.4 0
v 0.6 0.4 -0.1
v 0.6 0.5 0
v 0.6 0.5 -0.1
v 0.6 0.6 0
v 0.6 0.6 -0.1
v 0.6 0.9 0.1
v 0.6 0.9 0
v 0.6 1 0.1
v 0.6 1 -0.1
v 0.7 0.1 0
v 0.7 0.1 -0.1
v 0.7 0.2 0
v 0.7 0.2 -0.1
v 0.7 0.3 0
v 0.7 0.3 -0.1
v 0.7 0.4 0
v 0.7 0.4 -0.1
v 0.7 0.5 0
v 0.7 0.5 -0.1
v 0.7 0.6 0
v 0.7 0.6 -0.1
v 0.7 0.7 0.2
v 0.7 0.7 0.1
v 0.7 0.8 0.2
v 0.7 0.8 0.1
v 0.7 1.1 0.2
v 0.7 1.1 0.1
v 0.7 1.2 0.2
v 0.7 1.2 0.1
v 0.8 0.2 0
v 0.8 0.2 -0.1
v 0.8 0.3 0
v 0.8 0.3 -0.1
v 0.8 0.4 0
v 0.8 0.4 -0.1
v 0.8 0.5 0
v 0.8 0.5 -0.1
v 0.8 0.6 0
v 0.8 0.6 -0.1
v 0.8 0.7 0
v 0.8 0.7 -0.1
v 0.8 0.8 0.2
v 0.8 0.8 0.1
v 0.8 0.9 0.2
v 0.8 0.9 0.1
v 0.8 1 0.2
v 0.8 1 0.1
v 0.8 1.1 0.2
v 0.8 1.1 0.1
v 0.3 0.8 0.2
v 0.3 1 0.2
v 0.3 1.1 0.2
v 0.4 0.7 0.2
v 0.4 0.8 0.2
v 0.4 0.9 0.2
v 0.4 1 0.2
v 0.4 1.1 0.2
v 0.4 1.2 0.2
v 0.5 0.7 0.2
v 0.5 0.8 0.2
v 0.5 0.9 0.2
v 0.5 1 0.2
v 0.5 1.1 0.2
v 0.5 1.2 0.2
v 0.6 0.8 0.2
v 0.6 0.9 0.2
v 0.6 1 0.2
v 0.6 1.1 0.2
v 0.7 0.7 0.2
v 0.7 0.8 0.2
v 0.7 0.9 0.2
v 0.7 1 0.2
v 0.7 1.1 0.2
v 0.7 1.2 0.2
v 0.8 0.8 0.2
v 0.8 0.9 0.2
v 0.8 1 0.2
v 0.8 1.1 0.2
v 0.3 0.2 0
v 0.3 0.3 0
v 0.3 0.4 0
v 0.3 0.5 0
v 0.3 0.6 0
v 0.3 0.7 0
v 0.4 0.1 0
v 0.4 0.2 0
v 0.4 0.3 0
v 0.4 0.4 0
v 0.4 0.5 0
v 0.4 0.6 0
v 0.4 0.7 0
v 0.5 0 0
v 0.5 0.1 0
v 0.5 0.2 0
v 0.5 0.3 0
v 0.5 0.4 0
v 0.5 0.5 0
v 0.5 0.6 0
v 0.5 0.9 0
v 0.6 0 0
v 0.6 0.1 0
v 0.6 0.2 0
v 0.6 0.3 0
v 0.6 0.4 0
v 0.6 0.5 0
v 0.6 0.6 0
v 0.6 0.9 0
v 0.7 0.1 0
v 0.7 0.2 0
v 0.7 0.3 0
v 0.7 0.4 0
v 0.7 0.5 0
v 0.7 0.6 0
v 0.7 0.7 0
v 0.8 0.2 0
v 0.8 0.3 0
v 0.8 0.4 0
v 0.8 0.5 0
v 0.8 0.6 0
v 0.8 0.7 0
v 0.3 0.8 0.1
v 0.3 1 0.1
v 0.3 1.1 0.1
v 0.4 0.7 0.1
v 0.4 0.8 0.1
v 0.4 0.9 0.1
v 0.4 1 0.1
v 0.4 1.1 0.1
v 0.4 1.2 0.1
v 0.5 0.7 0.1
v 0.5 0.8 0.1
v 0.5 0.9 0.1
v 0.5 1 0.1
v 0.5 1.1 0.1
v 0.5 1.2 0.1
v 0.6 0.8 0.1
v 0.6 0.9 0.1
v 0.6 1 0.1
v 0.6 1.1 0.1
v 0.7 0.7 0.1
v 0.7 0.8 0.1
v 0.7 0.9 0.1
v 0.7 1 0.1
v 0.7 1.1 0.1
v 0.7 1.2 0.1
v 0.8 0.8 0.1
v 0.8 0.9 0.1
v 0.8 1 0.1
v 0.8 1.1 0.1
v 0.3 0.2 -0.1
v 0.3 0.3 -0.1
v 0.3 0.4 -0.1
v 0.3 0.5 -0.1
v 0.3 0.6 -0.1
v 0.3 0.7 -0.1
v 0.4 0.1 -0.1
v 0.4 0.2 -0.1
v 0.4 0.3 -0.1
v 0.4 0.4 -0.1
v 0.4 0.5 -0.1
v 0.4 0.6 -0.1
v 0.4 0.7 -0.1
v 0.5 0 -0.1
v 0.5 0.1 -0.1
v 0.5 0.2 -0.1
v 0.5 0.3 -0.1
v 0.5 0.4 -0.1
v 0.5 0.5 -0.1
v 0.5 0.6 -0.1
v 0.5 1 -0.1
v 0.6 0 -0.1
v 0.6 0.1 -0.1
v 0.6 0.2 -0.1
v 0.6 0.3 -0.1
v 0.6 0.4 -0.1
v 0.6 0.5 -0.1
v 0.6 0.6 -0.1
v 0.6 1 -0.1
v 0.7 0.1 -0.1
v 0.7 0.2 -0.1
v 0.7 0.3 -0.1
v 0.7 0.4 -0.1
v 0.7 0.5 -0.1
v 0.7 0.6 -0.1
v 0.7 0.7 -0.1
v 0.8 0.2 -0.1
v 0.8 0.3 -0.1
v 0.8 0.4 -0.1
v 0.8 0.5 -0.1
v 0.8 0.6 -0.1
v 0.8 0.7 -0.1
v 0.5 0 0
v 0.6 0 0
v 0.5 0 -0.1
v 0.6 0 -0.1
v 0.4 0.1 0
v 0.5 0.1 0
v 0.6 0.1 0
v 0.7 0.1 0
v 0.4 0.1 -0.1
v 0.5 0.1 -0.1
v 0.6 0.1 -0.1
v 0.7 0.1 -0.1
v 0.3 0.2 0
v 0.4 0.2 0
v 0.7 0.2 0
v 0.8 0.2 0
v 0.3 0.2 -0.1
v 0.4 0.2 -0.1
v 0.7 0.2 -0.1
v 0.8 0.2 -0.1
v 0.4 0.3 0
v 0.5 0.3 0
v 0.6 0.3 0
v 0.7 0.3 0
v 0.4 0.3 -0.1
v 0.5 0.3 -0.1
v 0.6 0.3 -0.1
v 0.7 0.3 -0.1
v 0.3 0.4 0
v 0.4 0.4 0
v 0.7 0.4 0
v 0.8 0.4 0
v 0.3 0.4 -0.1
v 0.4 0.4 -0.1
v 0.7 0.4 -0.1
v 0.8 0.4 -0.1
v 0.4 0.5 0
v 0.5 0.5 0
v 0.6 0.5 0
v 0.7 0.5 0
v 0.4 0.5 -0.1
v 0.5 0.5 -0.1
v 0.6 0.5 -0.1
v 0.7 0.5 -0.1
v 0.3 0.6 0
v 0.4 0.6 0
v 0.7 0.6 0
v 0.8 0.6 0
v 0.3 0.6 -0.1
v 0.4 0.6 -0.1
v 0.7 0.6 -0.1
v 0.8 0.6 -0.1
v 0.4 0.7 0.2
v 0.5 0.7 0.2
v 0.7 0.7 0.2
v 0.4 0.7 0.1
v 0.5 0.7 0.1
v 0.7 0.7 0.1
v 0.3 0.8 0.2
v 0.4 0.8 0.2
v 0.7 0.8 0.2
v 0.8 0.8 0.2
v 0.3 0.8 0.1
v 0.4 0.8 0.1
v 0.7 0.8 0.1
v 0.8 0.8 0.1
v 0.5 0.9 0.1
v 0.6 0.9 0.1
v 0.5 0.9 0
v 0.6 0.9 0
v 0.4 0.2 0
v 0.5 0.2 0
v 0.6 0.2 0
v 0.7 0.2 0
v 0.4 0.2 -0.1
v 0.5 0.2 -0.1
v 0.6 0.2 -0.1
v 0.7 0.2 -0.1
v 0.3 0.3 0
v 0.4 0.3 0
v 0.7 0.3 0
v 0.8 0.3 0
v 0.3 0.3 -0.1
v 0.4 0.3 -0.1
v 0.7 0.3 -0.1
v 0.8 0.3 -0.1
v 0.4 0.4 0
v 0.5 0.4 0
v 0.6 0.4 0
v 0.7 0.4 0
v 0.4 0.4 -0.1
v 0.5 0.4 -0.1
v 0.6 0.4 -0.1
v 0.7 0.4 -0.1
v 0.3 0.5 0
v 0.4 0.5 0
v 0.7 0.5 0
v 0.8 0.5 0
v 0.3 0.5 -0.1
v 0.4 0.5 -0.1
v 0.7 0.5 -0.1
v 0.8 0.5 -0.1
v 0.4 0.6 0
v 0.5 0.6 0
v 0.6 0.6 0
v 0.7 0.6 0
v 0.4 0.6 -0.1
v 0.5 0.6 -0.1
v 0.6 0.6 -0.1
v 0.7 0.6 -0.1
v 0.3 0.7 0
v 0.4 0.7 0
v 0.7 0.7 0
v 0.8 0.7 0
v 0.3 0.7 -0.1
v 0.4 0.7 -0.1
v 0.7 0.7 -0.1
v 0.8 0.7 -0.1
v 0.5 1 0.1
v 0.6 1 0.1
v 0.5 1 -0.1
v 0.6 1 -0.1
v 0.3 1.1 0.2
v 0.4 1.1 0.2
v 0.7 1.1 0.2
v 0.8 1.1 0.2
v 0.3 1.1 0.1
v 0.4 1.1 0.1
v 0.7 1.1 0.1
v 0.8 1.1 0.1
v 0.4 1.2 0.2
v 0.5 1.2 0.2
v 0.7 1.2 0.2
v 0.4 1.2 0.1
v 0.5 1.2 0.1
v 0.7 1.2 0.1

# faces
f 3/8/1 2/8/1 1/8/1
f 4/8/1 2/8/1 3/8/1
f 7/8/1 6/8/1 5/8/1
f 8/8/1 6/8/1 7/8/1
f 11/6/1 10/6/1 9/6/1
f 12/6/1 10/6/1 11/6/1
f 15/1/1 14/1/1 13/1/1
f 16/1/1 14/1/1 15/1/1
f 17/4/1 16/4/1 15/4/1
f 18/4/1 16/4/1 17/4/1
f 21/6/1 20/6/1 19/6/1
f 22/6/1 20/6/1 21/6/1
f 25/6/1 24/6/1 23/6/1
f 26/6/1 24/6/1 25/6/1
f 29/6/1 28/6/1 27/6/1
f 30/6/1 28/6/1 29/6/1
f 33/4/1 32/4/1 31/4/1
f 34/4/1 32/4/1 33/4/1
f 37/1/1 36/1/1 35/1/1
f 38/1/1 36/1/1 37/1/1
f 41/7/1 40/7/1 39/7/1
f 42/7/1 40/7/1 41/7/1
f 45/7/1 44/7/1 43/7/1
f 46/7/1 44/7/1 45/7/1
f 49/7/1 48/7/1 47/7/1
f 50/7/1 48/7/1 49/7/1
f 54/7/1 52/7/1 51/7/1
f 55/7/1 54/7/1 53/7/1
f 56/7/1 52/7/1 54/7/1
f 56/7/1 54/7/1 55/7/1
f 59/8/1 58/8/1 57/8/1
f 60/8/1 58/8/1 59/8/1
f 63/6/1 62/6/1 61/6/1
f 64/6/1 62/6/1 63/6/1
f 67/8/1 66/8/1 65/8/1
f 68/8/1 66/8/1 67/8/1
f 69/8/2 70/8/2 71/8/2
f 71/8/2 70/8/2 72/8/2
f 73/8/2 74/8/2 75/8/2
f 75/8/2 74/8/2 76/8/2
f 77/6/2 78/6/2 79/6/2
f 79/6/2 78/6/2 80/6/2
f 81/7/2 82/7/2 83/7/2
f 83/7/2 82/7/2 84/7/2
f 85/7/2 86/7/2 87/7/2
f 87/7/2 86/7/2 88/7/2
f 89/7/2 90/7/2 91/7/2
f 91/7/2 90/7/2 92/7/2
f 93/7/2 94/7/2 96/7/2
f 95/7/2 96/7/2 97/7/2
f 96/7/2 94/7/2 98/7/2
f 97/7/2 96/7/2 98/7/2
f 99/6/2 100/6/2 101/6/2
f 101/6/2 100/6/2 102/6/2
f 103/6/2 104/6/2 105/6/2
f 105/6/2 104/6/2 106/6/2
f 107/6/2 108/6/2 109/6/2
f 109/6/2 108/6/2 110/6/2
f 111/1/2 112/1/2 113/1/2
f 113/1/2 112/1/2 114/1/2
f 115/4/2 116/4/2 117/4/2
f 117/4/2 116/4/2 118/4/2
f 119/8/2 120/8/2 121/8/2
f 121/8/2 120/8/2 122/8/2
f 123/6/2 124/6/2 125/6/2
f 125/6/2 124/6/2 126/6/2
f 127/8/2 128/8/2 129/8/2
f 129/8/2 128/8/2 130/8/2
f 131/4/2 132/4/2 133/4/2
f 133/4/2 132/4/2 134/4/2
f 133/1/2 134/1/2 135/1/2
f 135/1/2 134/1/2 136/1/2
f 135/4/2 136/4/2 137/4/2
f 137/4/2 136/4/2 138/4/2
f 143/1/3 140/1/3 139/1/3
f 144/1/3 140/1/3 143/1/3
f 145/4/3 141/4/3 140/4/3
f 145/1/3 140/1/3 144/1/3
f 146/4/3 141/4/3 145/4/3
f 148/4/3 143/4/3 142/4/3
f 149/5/3 144/5/3 143/5/3
f 149/4/3 143/4/3 148/4/3
f 150/2/3 145/2/3 144/2/3
f 150/5/3 144/5/3 149/5/3
f 150/2/3 146/2/3 145/2/3
f 151/2/3 146/2/3 150/2/3
f 152/1/3 147/1/3 146/1/3
f 152/2/3 146/2/3 151/2/3
f 153/1/3 147/1/3 152/1/3
f 154/1/3 149/1/3 148/1/3
f 154/2/3 150/2/3 149/2/3
f 155/3/3 151/3/3 150/3/3
f 155/2/3 150/2/3 154/2/3
f 156/2/3 152/2/3 151/2/3
f 156/3/3 151/3/3 155/3/3
f 157/4/3 153/4/3 152/4/3
f 157/2/3 152/2/3 156/2/3
f 158/1/3 154/1/3 148/1/3
f 159/5/3 155/5/3 154/5/3
f 159/1/3 154/1/3 158/1/3
f 160/2/3 156/2/3 155/2/3
f 160/5/3 155/5/3 159/5/3
f 161/5/3 157/5/3 156/5/3
f 161/2/3 156/2/3 160/2/3
f 162/4/3 153/4/3 157/4/3
f 162/5/3 157/5/3 161/5/3
f 163/4/3 153/4/3 162/4/3
f 164/4/3 160/4/3 159/4/3
f 165/1/3 161/1/3 160/1/3
f 165/4/3 160/4/3 164/4/3
f 166/4/3 162/4/3 161/4/3
f 166/1/3 161/1/3 165/1/3
f 167/4/3 162/4/3 166/4/3
f 175/8/3 169/8/3 168/8/3
f 176/8/3 169/8/3 175/8/3
f 177/8/3 171/8/3 170/8/3
f 178/8/3 171/8/3 177/8/3
f 179/6/3 173/6/3 172/6/3
f 180/6/3 173/6/3 179/6/3
f 182/6/3 175/6/3 174/6/3
f 183/6/3 175/6/3 182/6/3
f 184/6/3 177/6/3 176/6/3
f 185/6/3 177/6/3 184/6/3
f 186/6/3 179/6/3 178/6/3
f 187/6/3 179/6/3 186/6/3
f 189/7/3 187/7/3 186/7/3
f 189/7/3 188/7/3 187/7/3
f 189/7/3 186/7/3 185/7/3
f 189/7/3 185/7/3 184/7/3
f 189/7/3 184/7/3 183/7/3
f 189/7/3 183/7/3 182/7/3
f 189/7/3 182/7/3 181/7/3
f 190/7/3 188/7/3 189/7/3
f 191/7/3 188/7/3 190/7/3
f 192/7/3 188/7/3 191/7/3
f 193/7/3 188/7/3 192/7/3
f 194/7/3 188/7/3 193/7/3
f 195/7/3 188/7/3 194/7/3
f 196/7/3 188/7/3 195/7/3
f 197/6/3 191/6/3 190/6/3
f 198/6/3 191/6/3 197/6/3
f 199/6/3 193/6/3 192/6/3
f 200/6/3 193/6/3 199/6/3
f 201/6/3 195/6/3 194/6/3
f 202/6/3 195/6/3 201/6/3
f 204/8/3 199/8/3 198/8/3
f 205/8/3 199/8/3 204/8/3
f 206/6/3 201/6/3 200/6/3
f 207/6/3 201/6/3 206/6/3
f 208/8/3 203/8/3 202/8/3
f 209/8/3 203/8/3 208/8/3
f 210/1/4 211/1/4 214/1/4
f 214/1/4 211/1/4 215/1/4
f 211/4/4 212/4/4 216/4/4
f 215/1/4 211/1/4 216/1/4
f 216/4/4 212/4/4 217/4/4
f 213/4/4 214/4/4 219/4/4
f 214/5/4 215/5/4 220/5/4
f 219/4/4 214/4/4 220/4/4
f 215/2/4 216/2/4 221/2/4
f 220/5/4 215/5/4 221/5/4
f 216/2/4 217/2/4 221/2/4
f 221/2/4 217/2/4 222/2/4
f 217/1/4 218/1/4 223/1/4
f 222/2/4 217/2/4 223/2/4
f 223/1/4 218/1/4 224/1/4
f 219/1/4 220/1/4 225/1/4
f 220/2/4 221/2/4 225/2/4
f 225/2/4 221/2/4 226/2/4
f 222/2/4 223/2/4 227/2/4
f 223/4/4 224/4/4 228/4/4
f 227/2/4 223/2/4 228/2/4
f 219/1/4 225/1/4 229/1/4
f 225/5/4 226/5/4 230/5/4
f 229/1/4 225/1/4 230/1/4
f 226/2/4 227/2/4 231/2/4
f 230/5/4 226/5/4 231/5/4
f 227/5/4 228/5/4 232/5/4
f 231/2/4 227/2/4 232/2/4
f 228/4/4 224/4/4 233/4/4
f 232/5/4 228/5/4 233/5/4
f 233/4/4 224/4/4 234/4/4
f 230/4/4 231/4/4 235/4/4
f 231/1/4 232/1/4 236/1/4
f 235/4/4 231/4/4 236/4/4
f 232/4/4 233/4/4 237/4/4
f 236/1/4 232/1/4 237/1/4
f 237/4/4 233/4/4 238/4/4
f 239/8/4 240/8/4 246/8/4
f 246/8/4 240/8/4 247/8/4
f 241/8/4 242/8/4 248/8/4
f 248/8/4 242/8/4 249/8/4
f 243/6/4 244/6/4 250/6/4
f 250/6/4 244/6/4 251/6/4
f 245/6/4 246/6/4 253/6/4
f 253/6/4 246/6/4 254/6/4
f 247/6/4 248/6/4 255/6/4
f 255/6/4 248/6/4 256/6/4
f 249/6/4 250/6/4 257/6/4
f 257/6/4 250/6/4 258/6/4
f 257/7/4 258/7/4 260/7/4
f 258/7/4 259/7/4 260/7/4
f 256/7/4 257/7/4 260/7/4
f 255/7/4 256/7/4 260/7/4
f 254/7/4 255/7/4 260/7/4
f 253/7/4 254/7/4 260/7/4
f 252/7/4 253/7/4 260/7/4
f 260/7/4 259/7/4 261/7/4
f 261/7/4 259/7/4 262/7/4
f 262/7/4 259/7/4 263/7/4
f 263/7/4 259/7/4 264/7/4
f 264/7/4 259/7/4 265/7/4
f 265/7/4 259/7/4 266/7/4
f 266/7/4 259/7/4 267/7/4
f 261/6/4 262/6/4 268/6/4
f 268/6/4 262/6/4 269/6/4
f 263/6/4 264/6/4 270/6/4
f 270/6/4 264/6/4 271/6/4
f 265/6/4 266/6/4 272/6/4
f 272/6/4 266/6/4 273/6/4
f 269/8/4 270/8/4 275/8/4
f 275/8/4 270/8/4 276/8/4
f 271/6/4 272/6/4 277/6/4
f 277/6/4 272/6/4 278/6/4
f 273/8/4 274/8/4 279/8/4
f 279/8/4 274/8/4 280/8/4
f 283/7/5 282/7/5 281/7/5
f 284/7/5 282/7/5 283/7/5
f 289/6/5 286/6/5 285/6/5
f 290/6/5 286/6/5 289/6/5
f 291/6/5 288/6/5 287/6/5
f 292/6/5 288/6/5 291/6/5
f 297/8/5 294/8/5 293/8/5
f 298/8/5 294/8/5 297/8/5
f 299/8/5 296/8/5 295/8/5
f 300/8/5 296/8/5 299/8/5
f 305/6/5 302/6/5 301/6/5
f 306/6/5 302/6/5 305/6/5
f 307/6/5 304/6/5 303/6/5
f 308/6/5 304/6/5 307/6/5
f 313/8/5 310/8/5 309/8/5
f 314/8/5 310/8/5 313/8/5
f 315/6/5 312/6/5 311/6/5
f 316/6/5 312/6/5 315/6/5
f 321/6/5 318/6/5 317/6/5
f 322/6/5 318/6/5 321/6/5
f 323/6/5 320/6/5 319/6/5
f 324/6/5 320/6/5 323/6/5
f 329/6/5 326/6/5 325/6/5
f 330/6/5 326/6/5 329/6/5
f 331/8/5 328/8/5 327/8/5
f 332/8/5 328/8/5 331/8/5
f 336/4/5 334/4/5 333/4/5
f 337/1/5 335/1/5 334/1/5
f 337/4/5 334/4/5 336/4/5
f 338/1/5 335/1/5 337/1/5
f 343/1/5 340/1/5 339/1/5
f 344/1/5 340/1/5 343/1/5
f 345/4/5 342/4/5 341/4/5
f 346/4/5 342/4/5 345/4/5
f 349/7/5 348/7/5 347/7/5
f 350/7/5 348/7/5 349/7/5
f 351/6/6 352/6/6 355/6/6
f 355/6/6 352/6/6 356/6/6
f 353/6/6 354/6/6 357/6/6
f 357/6/6 354/6/6 358/6/6
f 359/8/6 360/8/6 363/8/6
f 363/8/6 360/8/6 364/8/6
f 361/8/6 362/8/6 365/8/6
f 365/8/6 362/8/6 366/8/6
f 367/6/6 368/6/6 371/6/6
f 371/6/6 368/6/6 372/6/6
f 369/6/6 370/6/6 373/6/6
f 373/6/6 370/6/6 374/6/6
f 375/8/6 376/8/6 379/8/6
f 379/8/6 376/8/6 380/8/6
f 377/6/6 378/6/6 381/6/6
f 381/6/6 378/6/6 382/6/6
f 383/6/6 384/6/6 387/6/6
f 387/6/6 384/6/6 388/6/6
f 385/6/6 386/6/6 389/6/6
f 389/6/6 386/6/6 390/6/6
f 391/6/6 392/6/6 395/6/6
f 395/6/6 392/6/6 396/6/6
f 393/8/6 394/8/6 397/8/6
f 397/8/6 394/8/6 398/8/6
f 399/7/6 400/7/6 401/7/6
f 401/7/6 400/7/6 402/7/6
f 403/4/6 404/4/6 407/4/6
f 407/4/6 404/4/6 408/4/6
f 405/4/6 406/4/6 409/4/6
f 409/4/6 406/4/6 410/4/6
f 411/1/6 412/1/6 414/1/6
f 412/4/6 413/4/6 415/4/6
f 414/1/6 412/1/6 415/1/6
f 415/4/6 413/4/6 416/4/6
