# MagicaVoxel @ Ephtracy

# group
o 

# material
mtllib Decor-61.mtl
usemtl palette

# normals
vn -1 0 0
vn 1 0 0
vn 0 0 1
vn 0 0 -1
vn 0 -1 0
vn 0 1 0

# texcoords
vt 0.939453 0.5
vt 0.943359 0.5

# verts
v 9.6 0 6.8
v 9.6 0 6.4
v 9.6 0 6.2
v 9.6 0 5.8
v 9.6 0.1 6.7
v 9.6 0.1 6.4
v 9.6 0.1 6.2
v 9.6 0.1 5.9
v 9.6 0.4 6.8
v 9.6 0.4 6.7
v 9.6 0.4 5.9
v 9.6 0.4 5.8
v 9.6 2.6 6.8
v 9.6 2.6 6.7
v 9.6 2.6 5.9
v 9.6 2.6 5.8
v 9.6 3 6.7
v 9.6 3 6.4
v 9.6 3 6.2
v 9.6 3 5.9
v 9.6 3.1 6.8
v 9.6 3.1 6.4
v 9.6 3.1 6.2
v 9.6 3.1 5.8
v 10.5 0.1 6.8
v 10.5 0.1 6.7
v 10.5 0.1 6.2
v 10.5 0.1 5.9
v 10.5 0.4 6.8
v 10.5 0.4 6.7
v 10.5 0.6 6.8
v 10.5 0.6 6.2
v 10.5 0.6 5.9
v 10.5 0.7 6.8
v 10.5 0.7 6.2
v 10.5 0.7 5.9
v 10.5 1.2 6.8
v 10.5 1.2 6.2
v 10.5 1.2 5.9
v 10.5 1.3 6.8
v 10.5 1.3 6.2
v 10.5 1.3 5.9
v 10.5 1.8 6.8
v 10.5 1.8 6.2
v 10.5 1.8 5.9
v 10.5 1.9 6.8
v 10.5 1.9 6.2
v 10.5 1.9 5.9
v 10.5 2.4 6.8
v 10.5 2.4 6.2
v 10.5 2.4 5.9
v 10.5 2.5 6.8
v 10.5 2.5 6.2
v 10.5 2.5 5.9
v 10.5 2.6 6.8
v 10.5 2.6 6.7
v 10.5 3 6.8
v 10.5 3 6.7
v 10.5 3 5.9
v 9.7 0.1 6.8
v 9.7 0.1 6.7
v 9.7 0.1 5.9
v 9.7 0.4 6.8
v 9.7 0.4 6.7
v 9.7 0.6 6.8
v 9.7 0.6 5.9
v 9.7 0.7 6.8
v 9.7 0.7 5.9
v 9.7 1.2 6.8
v 9.7 1.2 5.9
v 9.7 1.3 6.8
v 9.7 1.3 5.9
v 9.7 1.8 6.8
v 9.7 1.8 5.9
v 9.7 1.9 6.8
v 9.7 1.9 5.9
v 9.7 2.4 6.8
v 9.7 2.4 5.9
v 9.7 2.5 6.8
v 9.7 2.5 5.9
v 9.7 2.6 6.8
v 9.7 2.6 6.7
v 9.7 3 6.8
v 9.7 3 6.7
v 9.7 3 5.9
v 10.6 0 6.8
v 10.6 0 6.4
v 10.6 0 6.2
v 10.6 0 5.8
v 10.6 0.1 6.7
v 10.6 0.1 6.4
v 10.6 0.1 6.2
v 10.6 0.1 5.9
v 10.6 0.4 6.8
v 10.6 0.4 6.7
v 10.6 0.4 5.9
v 10.6 0.4 5.8
v 10.6 2.6 6.8
v 10.6 2.6 6.7
v 10.6 2.6 5.9
v 10.6 2.6 5.8
v 10.6 3 6.7
v 10.6 3 6.4
v 10.6 3 6.2
v 10.6 3 5.9
v 10.6 3.1 6.8
v 10.6 3.1 6.4
v 10.6 3.1 6.2
v 10.6 3.1 5.8
v 9.6 0 6.8
v 9.6 0.4 6.8
v 9.6 2.6 6.8
v 9.6 3.1 6.8
v 9.7 0 6.8
v 9.7 0.1 6.8
v 9.7 0.4 6.8
v 9.7 0.6 6.8
v 9.7 0.7 6.8
v 9.7 1.2 6.8
v 9.7 1.3 6.8
v 9.7 1.8 6.8
v 9.7 1.9 6.8
v 9.7 2.4 6.8
v 9.7 2.5 6.8
v 9.7 2.6 6.8
v 9.7 3 6.8
v 10 3 6.8
v 10 3.1 6.8
v 10.2 3 6.8
v 10.2 3.1 6.8
v 10.5 0 6.8
v 10.5 0.1 6.8
v 10.5 0.4 6.8
v 10.5 0.6 6.8
v 10.5 0.7 6.8
v 10.5 1.2 6.8
v 10.5 1.3 6.8
v 10.5 1.8 6.8
v 10.5 1.9 6.8
v 10.5 2.4 6.8
v 10.5 2.5 6.8
v 10.5 2.6 6.8
v 10.5 3 6.8
v 10.6 0 6.8
v 10.6 0.4 6.8
v 10.6 2.6 6.8
v 10.6 3.1 6.8
v 9.7 0.1 5.9
v 9.7 0.6 5.9
v 9.7 0.7 5.9
v 9.7 1.2 5.9
v 9.7 1.3 5.9
v 9.7 1.8 5.9
v 9.7 1.9 5.9
v 9.7 2.4 5.9
v 9.7 2.5 5.9
v 9.7 3 5.9
v 10.2 0.1 5.9
v 10.2 0.6 5.9
v 10.2 0.7 5.9
v 10.2 1.2 5.9
v 10.2 1.3 5.9
v 10.2 1.8 5.9
v 10.2 1.9 5.9
v 10.2 2.4 5.9
v 10.2 2.5 5.9
v 10.5 0.1 5.9
v 10.5 0.6 5.9
v 10.5 0.7 5.9
v 10.5 1.2 5.9
v 10.5 1.3 5.9
v 10.5 1.8 5.9
v 10.5 1.9 5.9
v 10.5 2.4 5.9
v 10.5 2.5 5.9
v 10.5 3 5.9
v 9.6 0 5.8
v 9.6 0.4 5.8
v 9.6 2.6 5.8
v 9.6 3.1 5.8
v 9.7 0.1 5.8
v 9.7 0.4 5.8
v 9.7 2.6 5.8
v 9.7 3 5.8
v 10 0 5.8
v 10 0.1 5.8
v 10 3 5.8
v 10 3.1 5.8
v 10.2 0 5.8
v 10.2 0.1 5.8
v 10.2 3 5.8
v 10.2 3.1 5.8
v 10.5 0.1 5.8
v 10.5 0.4 5.8
v 10.5 2.6 5.8
v 10.5 3 5.8
v 10.6 0 5.8
v 10.6 0.4 5.8
v 10.6 2.6 5.8
v 10.6 3.1 5.8
v 9.6 0 6.8
v 9.7 0 6.8
v 10.5 0 6.8
v 10.6 0 6.8
v 9.6 0 6.4
v 9.7 0 6.4
v 10.5 0 6.4
v 10.6 0 6.4
v 9.6 0 6.2
v 9.7 0 6.2
v 10.4 0 6.2
v 10.6 0 6.2
v 10.2 0 6
v 10.4 0 6
v 9.7 0 5.9
v 10 0 5.9
v 9.6 0 5.8
v 10 0 5.8
v 10.2 0 5.8
v 10.6 0 5.8
v 9.7 0.6 6.8
v 10.5 0.6 6.8
v 10.4 0.6 6.2
v 10.5 0.6 6.2
v 10.2 0.6 6
v 10.4 0.6 6
v 9.7 0.6 5.9
v 10.2 0.6 5.9
v 10.5 0.6 5.9
v 9.7 1.2 6.8
v 10.5 1.2 6.8
v 10.4 1.2 6.2
v 10.5 1.2 6.2
v 10.2 1.2 6
v 10.4 1.2 6
v 9.7 1.2 5.9
v 10.2 1.2 5.9
v 10.5 1.2 5.9
v 9.7 1.8 6.8
v 10.5 1.8 6.8
v 10.4 1.8 6.2
v 10.5 1.8 6.2
v 10.2 1.8 6
v 10.4 1.8 6
v 9.7 1.8 5.9
v 10.2 1.8 5.9
v 10.5 1.8 5.9
v 9.7 2.4 6.8
v 10.5 2.4 6.8
v 10.4 2.4 6.2
v 10.5 2.4 6.2
v 10.2 2.4 6
v 10.4 2.4 6
v 9.7 2.4 5.9
v 10.2 2.4 5.9
v 10.5 2.4 5.9
v 9.7 3 6.8
v 10 3 6.8
v 10.2 3 6.8
v 10.5 3 6.8
v 9.7 3 6.7
v 10 3 6.7
v 10.2 3 6.7
v 10.5 3 6.7
v 10 3 6.4
v 10.2 3 6.4
v 10 3 6.2
v 10.2 3 6.2
v 9.7 3 5.9
v 10.5 3 5.9
v 9.7 0.1 6.8
v 10.5 0.1 6.8
v 9.7 0.1 6.7
v 10.5 0.1 6.7
v 10.4 0.1 6.2
v 10.5 0.1 6.2
v 10.2 0.1 6
v 10.4 0.1 6
v 9.7 0.1 5.9
v 10.2 0.1 5.9
v 10.5 0.1 5.9
v 9.7 0.7 6.8
v 10.5 0.7 6.8
v 10.4 0.7 6.2
v 10.5 0.7 6.2
v 10.2 0.7 6
v 10.4 0.7 6
v 9.7 0.7 5.9
v 10.2 0.7 5.9
v 10.5 0.7 5.9
v 9.7 1.3 6.8
v 10.5 1.3 6.8
v 10.4 1.3 6.2
v 10.5 1.3 6.2
v 10.2 1.3 6
v 10.4 1.3 6
v 9.7 1.3 5.9
v 10.2 1.3 5.9
v 10.5 1.3 5.9
v 9.7 1.9 6.8
v 10.5 1.9 6.8
v 10.4 1.9 6.2
v 10.5 1.9 6.2
v 10.2 1.9 6
v 10.4 1.9 6
v 9.7 1.9 5.9
v 10.2 1.9 5.9
v 10.5 1.9 5.9
v 9.7 2.5 6.8
v 10.5 2.5 6.8
v 10.4 2.5 6.2
v 10.5 2.5 6.2
v 10.2 2.5 6
v 10.4 2.5 6
v 9.7 2.5 5.9
v 10.2 2.5 5.9
v 10.5 2.5 5.9
v 9.6 3.1 6.8
v 10 3.1 6.8
v 10.2 3.1 6.8
v 10.6 3.1 6.8
v 9.7 3.1 6.7
v 10 3.1 6.7
v 10.2 3.1 6.7
v 10.5 3.1 6.7
v 9.6 3.1 6.4
v 9.7 3.1 6.4
v 10 3.1 6.4
v 10.2 3.1 6.4
v 10.5 3.1 6.4
v 10.6 3.1 6.4
v 9.6 3.1 6.2
v 9.7 3.1 6.2
v 10 3.1 6.2
v 10.2 3.1 6.2
v 10.5 3.1 6.2
v 10.6 3.1 6.2
v 9.7 3.1 5.9
v 10 3.1 5.9
v 10.2 3.1 5.9
v 10.5 3.1 5.9
v 9.6 3.1 5.8
v 10 3.1 5.8
v 10.2 3.1 5.8
v 10.6 3.1 5.8

# faces
f 5/2/1 2/2/1 1/2/1
f 6/1/1 3/1/1 2/1/1
f 6/2/1 2/2/1 5/2/1
f 7/2/1 4/2/1 3/2/1
f 7/1/1 3/1/1 6/1/1
f 8/2/1 4/2/1 7/2/1
f 9/2/1 5/2/1 1/2/1
f 10/1/1 6/1/1 5/1/1
f 10/2/1 5/2/1 9/2/1
f 10/1/1 7/1/1 6/1/1
f 10/1/1 8/1/1 7/1/1
f 11/2/1 4/2/1 8/2/1
f 11/1/1 8/1/1 10/1/1
f 12/2/1 4/2/1 11/2/1
f 13/1/1 10/1/1 9/1/1
f 13/1/1 11/1/1 10/1/1
f 13/1/1 12/1/1 11/1/1
f 14/1/1 12/1/1 13/1/1
f 15/1/1 12/1/1 14/1/1
f 16/1/1 12/1/1 15/1/1
f 17/2/1 14/2/1 13/2/1
f 17/1/1 15/1/1 14/1/1
f 18/1/1 15/1/1 17/1/1
f 19/1/1 15/1/1 18/1/1
f 20/2/1 16/2/1 15/2/1
f 20/1/1 15/1/1 19/1/1
f 21/2/1 17/2/1 13/2/1
f 21/2/1 18/2/1 17/2/1
f 22/1/1 19/1/1 18/1/1
f 22/2/1 18/2/1 21/2/1
f 23/2/1 20/2/1 19/2/1
f 23/1/1 19/1/1 22/1/1
f 24/2/1 16/2/1 20/2/1
f 24/2/1 20/2/1 23/2/1
f 29/2/1 26/2/1 25/2/1
f 30/1/1 28/1/1 27/1/1
f 30/2/1 26/2/1 29/2/1
f 30/1/1 27/1/1 26/1/1
f 31/1/1 30/1/1 29/1/1
f 32/1/1 28/1/1 30/1/1
f 32/1/1 30/1/1 31/1/1
f 33/1/1 28/1/1 32/1/1
f 37/1/1 35/1/1 34/1/1
f 37/1/1 36/1/1 35/1/1
f 38/1/1 36/1/1 37/1/1
f 39/1/1 36/1/1 38/1/1
f 43/1/1 41/1/1 40/1/1
f 43/1/1 42/1/1 41/1/1
f 44/1/1 42/1/1 43/1/1
f 45/1/1 42/1/1 44/1/1
f 49/1/1 47/1/1 46/1/1
f 49/1/1 48/1/1 47/1/1
f 50/1/1 48/1/1 49/1/1
f 51/1/1 48/1/1 50/1/1
f 55/1/1 53/1/1 52/1/1
f 55/1/1 54/1/1 53/1/1
f 56/1/1 54/1/1 55/1/1
f 57/2/1 56/2/1 55/2/1
f 58/1/1 54/1/1 56/1/1
f 58/2/1 56/2/1 57/2/1
f 59/1/1 54/1/1 58/1/1
f 60/2/2 61/2/2 63/2/2
f 61/1/2 62/1/2 64/1/2
f 63/2/2 61/2/2 64/2/2
f 63/1/2 64/1/2 65/1/2
f 64/1/2 62/1/2 66/1/2
f 65/1/2 64/1/2 66/1/2
f 67/1/2 68/1/2 69/1/2
f 69/1/2 68/1/2 70/1/2
f 71/1/2 72/1/2 73/1/2
f 73/1/2 72/1/2 74/1/2
f 75/1/2 76/1/2 77/1/2
f 77/1/2 76/1/2 78/1/2
f 79/1/2 80/1/2 81/1/2
f 81/1/2 80/1/2 82/1/2
f 81/2/2 82/2/2 83/2/2
f 82/1/2 80/1/2 84/1/2
f 83/2/2 82/2/2 84/2/2
f 84/1/2 80/1/2 85/1/2
f 86/2/2 87/2/2 90/2/2
f 87/1/2 88/1/2 91/1/2
f 90/2/2 87/2/2 91/2/2
f 88/2/2 89/2/2 92/2/2
f 91/1/2 88/1/2 92/1/2
f 92/2/2 89/2/2 93/2/2
f 86/2/2 90/2/2 94/2/2
f 90/1/2 91/1/2 95/1/2
f 94/2/2 90/2/2 95/2/2
f 91/1/2 92/1/2 95/1/2
f 92/1/2 93/1/2 95/1/2
f 93/2/2 89/2/2 96/2/2
f 95/1/2 93/1/2 96/1/2
f 96/2/2 89/2/2 97/2/2
f 94/1/2 95/1/2 98/1/2
f 95/1/2 96/1/2 98/1/2
f 96/1/2 97/1/2 98/1/2
f 98/1/2 97/1/2 99/1/2
f 99/1/2 97/1/2 100/1/2
f 100/1/2 97/1/2 101/1/2
f 98/2/2 99/2/2 102/2/2
f 99/1/2 100/1/2 102/1/2
f 102/1/2 100/1/2 103/1/2
f 103/1/2 100/1/2 104/1/2
f 100/2/2 101/2/2 105/2/2
f 104/1/2 100/1/2 105/1/2
f 98/2/2 102/2/2 106/2/2
f 102/2/2 103/2/2 106/2/2
f 103/1/2 104/1/2 107/1/2
f 106/2/2 103/2/2 107/2/2
f 104/2/2 105/2/2 108/2/2
f 107/1/2 104/1/2 108/1/2
f 105/2/2 101/2/2 109/2/2
f 108/2/2 105/2/2 109/2/2
f 114/2/3 111/2/3 110/2/3
f 115/2/3 111/2/3 114/2/3
f 116/1/3 112/1/3 111/1/3
f 116/2/3 111/2/3 115/2/3
f 117/1/3 112/1/3 116/1/3
f 118/1/3 112/1/3 117/1/3
f 119/1/3 112/1/3 118/1/3
f 120/1/3 112/1/3 119/1/3
f 121/1/3 112/1/3 120/1/3
f 122/1/3 112/1/3 121/1/3
f 123/1/3 112/1/3 122/1/3
f 124/1/3 112/1/3 123/1/3
f 125/2/3 113/2/3 112/2/3
f 125/1/3 112/1/3 124/1/3
f 126/2/3 113/2/3 125/2/3
f 127/2/3 113/2/3 126/2/3
f 128/2/3 113/2/3 127/2/3
f 129/1/3 128/1/3 127/1/3
f 130/1/3 128/1/3 129/1/3
f 131/1/3 115/1/3 114/1/3
f 132/1/3 115/1/3 131/1/3
f 134/1/3 118/1/3 117/1/3
f 135/1/3 118/1/3 134/1/3
f 136/1/3 120/1/3 119/1/3
f 137/1/3 120/1/3 136/1/3
f 138/1/3 122/1/3 121/1/3
f 139/1/3 122/1/3 138/1/3
f 140/1/3 124/1/3 123/1/3
f 141/1/3 124/1/3 140/1/3
f 143/2/3 130/2/3 129/2/3
f 144/2/3 133/2/3 132/2/3
f 144/2/3 132/2/3 131/2/3
f 145/1/3 139/1/3 138/1/3
f 145/2/3 133/2/3 144/2/3
f 145/1/3 137/1/3 136/1/3
f 145/1/3 135/1/3 134/1/3
f 145/1/3 141/1/3 140/1/3
f 145/1/3 140/1/3 139/1/3
f 145/1/3 142/1/3 141/1/3
f 145/1/3 138/1/3 137/1/3
f 145/1/3 134/1/3 133/1/3
f 145/1/3 136/1/3 135/1/3
f 146/2/3 143/2/3 142/2/3
f 146/1/3 142/1/3 145/1/3
f 147/2/3 130/2/3 143/2/3
f 147/2/3 143/2/3 146/2/3
f 158/1/3 149/1/3 148/1/3
f 159/1/3 149/1/3 158/1/3
f 160/1/3 151/1/3 150/1/3
f 161/1/3 151/1/3 160/1/3
f 162/1/3 153/1/3 152/1/3
f 163/1/3 153/1/3 162/1/3
f 164/1/3 155/1/3 154/1/3
f 165/1/3 155/1/3 164/1/3
f 166/1/3 157/1/3 156/1/3
f 167/1/3 159/1/3 158/1/3
f 168/1/3 159/1/3 167/1/3
f 169/1/3 161/1/3 160/1/3
f 170/1/3 161/1/3 169/1/3
f 171/1/3 163/1/3 162/1/3
f 172/1/3 163/1/3 171/1/3
f 173/1/3 165/1/3 164/1/3
f 174/1/3 165/1/3 173/1/3
f 175/1/3 157/1/3 166/1/3
f 176/1/3 157/1/3 175/1/3
f 177/2/4 178/2/4 181/2/4
f 178/1/4 179/1/4 182/1/4
f 181/2/4 178/2/4 182/2/4
f 179/2/4 180/2/4 183/2/4
f 182/1/4 179/1/4 183/1/4
f 183/2/4 180/2/4 184/2/4
f 177/2/4 181/2/4 185/2/4
f 181/1/4 182/1/4 186/1/4
f 185/2/4 181/2/4 186/2/4
f 182/1/4 183/1/4 186/1/4
f 183/1/4 184/1/4 186/1/4
f 184/2/4 180/2/4 187/2/4
f 186/1/4 184/1/4 187/1/4
f 187/2/4 180/2/4 188/2/4
f 185/1/4 186/1/4 189/1/4
f 186/1/4 187/1/4 189/1/4
f 187/1/4 188/1/4 189/1/4
f 189/1/4 188/1/4 190/1/4
f 190/1/4 188/1/4 191/1/4
f 191/1/4 188/1/4 192/1/4
f 189/2/4 190/2/4 193/2/4
f 190/1/4 191/1/4 193/1/4
f 193/1/4 191/1/4 194/1/4
f 194/1/4 191/1/4 195/1/4
f 191/2/4 192/2/4 196/2/4
f 195/1/4 191/1/4 196/1/4
f 189/2/4 193/2/4 197/2/4
f 193/2/4 194/2/4 197/2/4
f 194/1/4 195/1/4 198/1/4
f 197/2/4 194/2/4 198/2/4
f 195/2/4 196/2/4 199/2/4
f 198/1/4 195/1/4 199/1/4
f 196/2/4 192/2/4 200/2/4
f 199/2/4 196/2/4 200/2/4
f 205/2/5 202/2/5 201/2/5
f 206/1/5 203/1/5 202/1/5
f 206/2/5 202/2/5 205/2/5
f 207/2/5 204/2/5 203/2/5
f 207/1/5 203/1/5 206/1/5
f 208/2/5 204/2/5 207/2/5
f 209/1/5 206/1/5 205/1/5
f 209/1/5 207/1/5 206/1/5
f 209/1/5 208/1/5 207/1/5
f 210/1/5 208/1/5 209/1/5
f 211/1/5 208/1/5 210/1/5
f 212/1/5 208/1/5 211/1/5
f 213/1/5 211/1/5 210/1/5
f 214/2/5 212/2/5 211/2/5
f 214/1/5 211/1/5 213/1/5
f 215/2/5 210/2/5 209/2/5
f 215/1/5 213/1/5 210/1/5
f 216/1/5 213/1/5 215/1/5
f 217/2/5 215/2/5 209/2/5
f 217/2/5 216/2/5 215/2/5
f 218/1/5 213/1/5 216/1/5
f 218/2/5 216/2/5 217/2/5
f 219/2/5 214/2/5 213/2/5
f 219/1/5 213/1/5 218/1/5
f 220/2/5 212/2/5 214/2/5
f 220/2/5 214/2/5 219/2/5
f 223/1/5 222/1/5 221/1/5
f 224/1/5 222/1/5 223/1/5
f 225/1/5 223/1/5 221/1/5
f 226/2/5 224/2/5 223/2/5
f 226/1/5 223/1/5 225/1/5
f 227/1/5 225/1/5 221/1/5
f 228/2/5 226/2/5 225/2/5
f 228/1/5 225/1/5 227/1/5
f 229/2/5 224/2/5 226/2/5
f 229/2/5 226/2/5 228/2/5
f 232/1/5 231/1/5 230/1/5
f 233/1/5 231/1/5 232/1/5
f 234/1/5 232/1/5 230/1/5
f 235/2/5 233/2/5 232/2/5
f 235/1/5 232/1/5 234/1/5
f 236/1/5 234/1/5 230/1/5
f 237/2/5 235/2/5 234/2/5
f 237/1/5 234/1/5 236/1/5
f 238/2/5 233/2/5 235/2/5
f 238/2/5 235/2/5 237/2/5
f 241/1/5 240/1/5 239/1/5
f 242/1/5 240/1/5 241/1/5
f 243/1/5 241/1/5 239/1/5
f 244/2/5 242/2/5 241/2/5
f 244/1/5 241/1/5 243/1/5
f 245/1/5 243/1/5 239/1/5
f 246/2/5 244/2/5 243/2/5
f 246/1/5 243/1/5 245/1/5
f 247/2/5 242/2/5 244/2/5
f 247/2/5 244/2/5 246/2/5
f 250/1/5 249/1/5 248/1/5
f 251/1/5 249/1/5 250/1/5
f 252/1/5 250/1/5 248/1/5
f 253/2/5 251/2/5 250/2/5
f 253/1/5 250/1/5 252/1/5
f 254/1/5 252/1/5 248/1/5
f 255/2/5 253/2/5 252/2/5
f 255/1/5 252/1/5 254/1/5
f 256/2/5 251/2/5 253/2/5
f 256/2/5 253/2/5 255/2/5
f 261/2/5 258/2/5 257/2/5
f 262/1/5 259/1/5 258/1/5
f 262/2/5 258/2/5 261/2/5
f 263/2/5 260/2/5 259/2/5
f 263/1/5 259/1/5 262/1/5
f 264/2/5 260/2/5 263/2/5
f 265/1/5 262/1/5 261/1/5
f 265/1/5 263/1/5 262/1/5
f 265/1/5 264/1/5 263/1/5
f 266/1/5 264/1/5 265/1/5
f 267/1/5 265/1/5 261/1/5
f 267/2/5 266/2/5 265/2/5
f 268/1/5 264/1/5 266/1/5
f 268/2/5 266/2/5 267/2/5
f 269/1/5 267/1/5 261/1/5
f 269/1/5 268/1/5 267/1/5
f 270/1/5 264/1/5 268/1/5
f 270/1/5 268/1/5 269/1/5
f 271/1/6 272/1/6 273/1/6
f 273/1/6 272/1/6 274/1/6
f 273/1/6 274/1/6 275/1/6
f 275/1/6 274/1/6 276/1/6
f 273/1/6 275/1/6 277/1/6
f 275/2/6 276/2/6 278/2/6
f 277/1/6 275/1/6 278/1/6
f 273/1/6 277/1/6 279/1/6
f 277/2/6 278/2/6 280/2/6
f 279/1/6 277/1/6 280/1/6
f 278/2/6 276/2/6 281/2/6
f 280/2/6 278/2/6 281/2/6
f 282/1/6 283/1/6 284/1/6
f 284/1/6 283/1/6 285/1/6
f 282/1/6 284/1/6 286/1/6
f 284/2/6 285/2/6 287/2/6
f 286/1/6 284/1/6 287/1/6
f 282/1/6 286/1/6 288/1/6
f 286/2/6 287/2/6 289/2/6
f 288/1/6 286/1/6 289/1/6
f 287/2/6 285/2/6 290/2/6
f 289/2/6 287/2/6 290/2/6
f 291/1/6 292/1/6 293/1/6
f 293/1/6 292/1/6 294/1/6
f 291/1/6 293/1/6 295/1/6
f 293/2/6 294/2/6 296/2/6
f 295/1/6 293/1/6 296/1/6
f 291/1/6 295/1/6 297/1/6
f 295/2/6 296/2/6 298/2/6
f 297/1/6 295/1/6 298/1/6
f 296/2/6 294/2/6 299/2/6
f 298/2/6 296/2/6 299/2/6
f 300/1/6 301/1/6 302/1/6
f 302/1/6 301/1/6 303/1/6
f 300/1/6 302/1/6 304/1/6
f 302/2/6 303/2/6 305/2/6
f 304/1/6 302/1/6 305/1/6
f 300/1/6 304/1/6 306/1/6
f 304/2/6 305/2/6 307/2/6
f 306/1/6 304/1/6 307/1/6
f 305/2/6 303/2/6 308/2/6
f 307/2/6 305/2/6 308/2/6
f 309/1/6 310/1/6 311/1/6
f 311/1/6 310/1/6 312/1/6
f 309/1/6 311/1/6 313/1/6
f 311/2/6 312/2/6 314/2/6
f 313/1/6 311/1/6 314/1/6
f 309/1/6 313/1/6 315/1/6
f 313/2/6 314/2/6 316/2/6
f 315/1/6 313/1/6 316/1/6
f 314/2/6 312/2/6 317/2/6
f 316/2/6 314/2/6 317/2/6
f 318/2/6 319/2/6 322/2/6
f 319/1/6 320/1/6 323/1/6
f 322/2/6 319/2/6 323/2/6
f 320/2/6 321/2/6 324/2/6
f 323/1/6 320/1/6 324/1/6
f 324/2/6 321/2/6 325/2/6
f 318/2/6 322/2/6 326/2/6
f 322/1/6 323/1/6 327/1/6
f 326/2/6 322/2/6 327/2/6
f 323/1/6 324/1/6 327/1/6
f 324/1/6 325/1/6 327/1/6
f 327/1/6 325/1/6 328/1/6
f 328/1/6 325/1/6 329/1/6
f 325/2/6 321/2/6 330/2/6
f 329/1/6 325/1/6 330/1/6
f 330/2/6 321/2/6 331/2/6
f 326/1/6 327/1/6 332/1/6
f 327/1/6 328/1/6 332/1/6
f 332/1/6 328/1/6 333/1/6
f 328/2/6 329/2/6 334/2/6
f 333/1/6 328/1/6 334/1/6
f 330/1/6 331/1/6 335/1/6
f 334/2/6 329/2/6 335/2/6
f 329/1/6 330/1/6 335/1/6
f 335/1/6 331/1/6 336/1/6
f 336/1/6 331/1/6 337/1/6
f 332/2/6 333/2/6 338/2/6
f 333/1/6 334/1/6 338/1/6
f 334/1/6 335/1/6 338/1/6
f 335/1/6 336/1/6 338/1/6
f 338/1/6 336/1/6 339/1/6
f 339/1/6 336/1/6 340/1/6
f 336/2/6 337/2/6 341/2/6
f 340/1/6 336/1/6 341/1/6
f 332/2/6 338/2/6 342/2/6
f 338/2/6 339/2/6 342/2/6
f 339/1/6 340/1/6 343/1/6
f 342/2/6 339/2/6 343/2/6
f 340/2/6 341/2/6 344/2/6
f 343/1/6 340/1/6 344/1/6
f 341/2/6 337/2/6 345/2/6
f 344/2/6 341/2/6 345/2/6
