# MagicaVoxel @ Ephtracy

# group
o 

# material
mtllib Decor-59.mtl
usemtl palette

# normals
vn -1 0 0
vn 1 0 0
vn 0 0 1
vn 0 0 -1
vn 0 -1 0
vn 0 1 0

# texcoords
vt 0.939453 0.5
vt 0.943359 0.5

# verts
v 14.4 0 7
v 14.4 0 5.9
v 14.4 0 5.8
v 14.4 0.1 7
v 14.4 0.1 5.9
v 14.4 0.1 5.8
v 14.5 0.1 6.9
v 14.5 0.1 6.8
v 14.5 0.1 6.4
v 14.5 0.1 6.2
v 14.5 0.1 5.9
v 14.5 0.1 5.8
v 14.5 0.2 6.9
v 14.5 0.2 6.8
v 14.5 0.2 6.7
v 14.5 0.2 6.4
v 14.5 0.2 6.2
v 14.5 0.2 5.9
v 14.5 0.5 6.8
v 14.5 0.5 6.7
v 14.5 0.5 5.9
v 14.5 0.5 5.8
v 14.5 2.7 6.8
v 14.5 2.7 6.7
v 14.5 2.7 5.9
v 14.5 2.7 5.8
v 14.5 3.1 6.7
v 14.5 3.1 6.4
v 14.5 3.1 6.2
v 14.5 3.1 5.9
v 14.5 3.2 6.8
v 14.5 3.2 6.4
v 14.5 3.2 6.2
v 14.5 3.2 5.8
v 14.6 3.2 6.8
v 14.6 3.2 6.5
v 14.6 3.2 6.4
v 14.6 3.2 6.2
v 14.6 3.2 5.9
v 14.6 3.3 6.8
v 14.6 3.3 6.5
v 14.6 3.3 6.2
v 14.6 3.3 5.9
v 15.8 0.2 6.7
v 15.8 0.2 6
v 15.8 1.8 6.4
v 15.8 1.8 6.3
v 15.8 1.9 6.4
v 15.8 1.9 6.3
v 15.8 2 6.7
v 15.8 2 6
v 17 0.2 6.7
v 17 0.2 6.3
v 17 0.2 5.9
v 17 1.8 6.4
v 17 1.8 6.3
v 17 1.9 6.4
v 17 1.9 6.3
v 17 2 6.7
v 17 2 6.3
v 17 2 5.9
v 17 2.1 6.7
v 17 2.1 6.3
v 17 2.1 5.9
v 17 3.1 6.7
v 17 3.1 5.9
v 17.1 0.2 6.8
v 17.1 0.2 6.7
v 17.1 0.5 6.8
v 17.1 0.5 6.7
v 17.1 2.7 6.8
v 17.1 2.7 6.7
v 17.1 3.2 6.8
v 17.1 3.2 6.7
v 14.6 0.2 6.8
v 14.6 0.2 6.7
v 14.6 0.5 6.8
v 14.6 0.5 6.7
v 14.6 2.7 6.8
v 14.6 2.7 6.7
v 14.6 3.2 6.8
v 14.6 3.2 6.7
v 14.7 0.2 6.7
v 14.7 0.2 6.3
v 14.7 0.2 5.9
v 14.7 1.8 6.4
v 14.7 1.8 6.3
v 14.7 1.9 6.4
v 14.7 1.9 6.3
v 14.7 2 6.7
v 14.7 2 6.3
v 14.7 2 5.9
v 14.7 2.1 6.7
v 14.7 2.1 6.3
v 14.7 2.1 5.9
v 14.7 3.1 6.7
v 14.7 3.1 5.9
v 15.9 0.2 6.7
v 15.9 0.2 6
v 15.9 1.8 6.4
v 15.9 1.8 6.3
v 15.9 1.9 6.4
v 15.9 1.9 6.3
v 15.9 2 6.7
v 15.9 2 6
v 17.1 3.2 6.8
v 17.1 3.2 6.5
v 17.1 3.2 6.4
v 17.1 3.2 6.2
v 17.1 3.2 5.9
v 17.1 3.3 6.8
v 17.1 3.3 6.5
v 17.1 3.3 6.2
v 17.1 3.3 5.9
v 17.2 0.1 6.9
v 17.2 0.1 6.8
v 17.2 0.1 6.4
v 17.2 0.1 6.2
v 17.2 0.1 5.9
v 17.2 0.1 5.8
v 17.2 0.2 6.9
v 17.2 0.2 6.8
v 17.2 0.2 6.7
v 17.2 0.2 6.4
v 17.2 0.2 6.2
v 17.2 0.2 5.9
v 17.2 0.5 6.8
v 17.2 0.5 6.7
v 17.2 0.5 5.9
v 17.2 0.5 5.8
v 17.2 2.7 6.8
v 17.2 2.7 6.7
v 17.2 2.7 5.9
v 17.2 2.7 5.8
v 17.2 3.1 6.7
v 17.2 3.1 6.4
v 17.2 3.1 6.2
v 17.2 3.1 5.9
v 17.2 3.2 6.8
v 17.2 3.2 6.4
v 17.2 3.2 6.2
v 17.2 3.2 5.8
v 17.3 0 7
v 17.3 0 5.9
v 17.3 0 5.8
v 17.3 0.1 7
v 17.3 0.1 5.9
v 17.3 0.1 5.8
v 14.4 0 7
v 14.4 0.1 7
v 17.3 0 7
v 17.3 0.1 7
v 14.5 0.1 6.9
v 14.5 0.2 6.9
v 17.2 0.1 6.9
v 17.2 0.2 6.9
v 14.5 0.2 6.8
v 14.5 0.5 6.8
v 14.5 2.7 6.8
v 14.5 3.2 6.8
v 14.6 0.2 6.8
v 14.6 0.5 6.8
v 14.6 2.7 6.8
v 14.6 3.2 6.8
v 14.6 3.3 6.8
v 14.9 3.2 6.8
v 14.9 3.3 6.8
v 16.8 3.2 6.8
v 16.8 3.3 6.8
v 17.1 0.2 6.8
v 17.1 0.5 6.8
v 17.1 2.7 6.8
v 17.1 3.2 6.8
v 17.1 3.3 6.8
v 17.2 0.2 6.8
v 17.2 0.5 6.8
v 17.2 2.7 6.8
v 17.2 3.2 6.8
v 14.6 0.2 6.7
v 14.6 0.5 6.7
v 14.6 2.7 6.7
v 14.6 3.2 6.7
v 14.7 0.2 6.7
v 14.7 2 6.7
v 14.7 2.1 6.7
v 14.7 3.1 6.7
v 14.9 3.2 6.7
v 15.8 0.2 6.7
v 15.8 2 6.7
v 15.9 0.2 6.7
v 15.9 2 6.7
v 16.8 3.2 6.7
v 17 0.2 6.7
v 17 2 6.7
v 17 2.1 6.7
v 17 3.1 6.7
v 17.1 0.2 6.7
v 17.1 0.5 6.7
v 17.1 2.7 6.7
v 17.1 3.2 6.7
v 14.7 1.8 6.4
v 14.7 1.9 6.4
v 15 1.8 6.4
v 15 1.9 6.4
v 15.5 1.8 6.4
v 15.5 1.9 6.4
v 15.8 1.8 6.4
v 15.8 1.9 6.4
v 15.9 1.8 6.4
v 15.9 1.9 6.4
v 16.2 1.8 6.4
v 16.2 1.9 6.4
v 16.7 1.8 6.4
v 16.7 1.9 6.4
v 17 1.8 6.4
v 17 1.9 6.4
v 14.7 0.2 5.9
v 14.7 2 5.9
v 14.7 2.1 5.9
v 14.7 3.1 5.9
v 15.1 0.2 5.9
v 15.1 2 5.9
v 15.1 2.1 5.9
v 16.6 0.2 5.9
v 16.6 2 5.9
v 16.6 2.1 5.9
v 17 0.2 5.9
v 17 2 5.9
v 17 2.1 5.9
v 17 3.1 5.9
v 14.7 1.8 6.3
v 14.7 1.9 6.3
v 15 1.8 6.3
v 15 1.9 6.3
v 15.5 1.8 6.3
v 15.5 1.9 6.3
v 15.8 1.8 6.3
v 15.8 1.9 6.3
v 15.9 1.8 6.3
v 15.9 1.9 6.3
v 16.2 1.8 6.3
v 16.2 1.9 6.3
v 16.7 1.8 6.3
v 16.7 1.9 6.3
v 17 1.8 6.3
v 17 1.9 6.3
v 15.8 0.2 6
v 15.8 2 6
v 15.9 0.2 6
v 15.9 2 6
v 14.6 3.2 5.9
v 14.6 3.3 5.9
v 14.9 3.2 5.9
v 14.9 3.3 5.9
v 16.8 3.2 5.9
v 16.8 3.3 5.9
v 17.1 3.2 5.9
v 17.1 3.3 5.9
v 14.4 0 5.8
v 14.4 0.1 5.8
v 14.5 0.1 5.8
v 14.5 0.5 5.8
v 14.5 2.7 5.8
v 14.5 3.2 5.8
v 14.6 0.1 5.8
v 14.6 0.5 5.8
v 14.6 2.7 5.8
v 14.6 3.1 5.8
v 14.9 0 5.8
v 14.9 0.1 5.8
v 14.9 3.1 5.8
v 14.9 3.2 5.8
v 16.8 0 5.8
v 16.8 0.1 5.8
v 16.8 3.1 5.8
v 16.8 3.2 5.8
v 17.1 0.1 5.8
v 17.1 0.5 5.8
v 17.1 2.7 5.8
v 17.1 3.1 5.8
v 17.2 0.1 5.8
v 17.2 0.5 5.8
v 17.2 2.7 5.8
v 17.2 3.2 5.8
v 17.3 0 5.8
v 17.3 0.1 5.8
v 14.4 0 7
v 17.3 0 7
v 14.4 0 5.9
v 14.9 0 5.9
v 16.8 0 5.9
v 17.3 0 5.9
v 14.4 0 5.8
v 14.9 0 5.8
v 16.8 0 5.8
v 17.3 0 5.8
v 14.7 1.8 6.4
v 15 1.8 6.4
v 15.5 1.8 6.4
v 15.8 1.8 6.4
v 15.9 1.8 6.4
v 16.2 1.8 6.4
v 16.7 1.8 6.4
v 17 1.8 6.4
v 14.7 1.8 6.3
v 15 1.8 6.3
v 15.5 1.8 6.3
v 15.8 1.8 6.3
v 15.9 1.8 6.3
v 16.2 1.8 6.3
v 16.7 1.8 6.3
v 17 1.8 6.3
v 14.7 2 6.7
v 15.8 2 6.7
v 15.9 2 6.7
v 17 2 6.7
v 14.7 2 6.3
v 14.8 2 6.3
v 16.9 2 6.3
v 17 2 6.3
v 14.8 2 6
v 15.1 2 6
v 15.8 2 6
v 15.9 2 6
v 16.6 2 6
v 16.9 2 6
v 14.7 2 5.9
v 15.1 2 5.9
v 16.6 2 5.9
v 17 2 5.9
v 14.7 3.1 6.7
v 17 3.1 6.7
v 14.7 3.1 5.9
v 17 3.1 5.9
v 14.6 3.2 6.8
v 14.9 3.2 6.8
v 16.8 3.2 6.8
v 17.1 3.2 6.8
v 14.6 3.2 6.7
v 14.9 3.2 6.7
v 16.8 3.2 6.7
v 17.1 3.2 6.7
v 14.4 0.1 7
v 17.3 0.1 7
v 14.5 0.1 6.9
v 17.2 0.1 6.9
v 14.5 0.1 6.8
v 17.2 0.1 6.8
v 14.5 0.1 6.4
v 17.2 0.1 6.4
v 14.5 0.1 6.2
v 17.2 0.1 6.2
v 14.4 0.1 5.9
v 14.5 0.1 5.9
v 17.2 0.1 5.9
v 17.3 0.1 5.9
v 14.4 0.1 5.8
v 14.5 0.1 5.8
v 17.2 0.1 5.8
v 17.3 0.1 5.8
v 14.5 0.2 6.9
v 17.2 0.2 6.9
v 14.5 0.2 6.8
v 14.6 0.2 6.8
v 17.1 0.2 6.8
v 17.2 0.2 6.8
v 14.6 0.2 6.7
v 14.7 0.2 6.7
v 15.8 0.2 6.7
v 15.9 0.2 6.7
v 17 0.2 6.7
v 17.1 0.2 6.7
v 14.7 0.2 6.3
v 14.8 0.2 6.3
v 16.9 0.2 6.3
v 17 0.2 6.3
v 14.8 0.2 6
v 15.1 0.2 6
v 15.8 0.2 6
v 15.9 0.2 6
v 16.6 0.2 6
v 16.9 0.2 6
v 14.7 0.2 5.9
v 15.1 0.2 5.9
v 16.6 0.2 5.9
v 17 0.2 5.9
v 14.7 1.9 6.4
v 15 1.9 6.4
v 15.5 1.9 6.4
v 15.8 1.9 6.4
v 15.9 1.9 6.4
v 16.2 1.9 6.4
v 16.7 1.9 6.4
v 17 1.9 6.4
v 14.7 1.9 6.3
v 15 1.9 6.3
v 15.5 1.9 6.3
v 15.8 1.9 6.3
v 15.9 1.9 6.3
v 16.2 1.9 6.3
v 16.7 1.9 6.3
v 17 1.9 6.3
v 14.7 2.1 6.7
v 17 2.1 6.7
v 14.7 2.1 6.3
v 14.8 2.1 6.3
v 16.9 2.1 6.3
v 17 2.1 6.3
v 14.8 2.1 6
v 15.1 2.1 6
v 16.6 2.1 6
v 16.9 2.1 6
v 14.7 2.1 5.9
v 15.1 2.1 5.9
v 16.6 2.1 5.9
v 17 2.1 5.9
v 14.5 3.2 6.8
v 14.6 3.2 6.8
v 17.1 3.2 6.8
v 17.2 3.2 6.8
v 14.6 3.2 6.5
v 17.1 3.2 6.5
v 14.5 3.2 6.4
v 14.6 3.2 6.4
v 17.1 3.2 6.4
v 17.2 3.2 6.4
v 14.5 3.2 6.2
v 14.6 3.2 6.2
v 17.1 3.2 6.2
v 17.2 3.2 6.2
v 14.6 3.2 5.9
v 14.9 3.2 5.9
v 16.8 3.2 5.9
v 17.1 3.2 5.9
v 14.5 3.2 5.8
v 14.9 3.2 5.8
v 16.8 3.2 5.8
v 17.2 3.2 5.8
v 14.6 3.3 6.8
v 14.9 3.3 6.8
v 16.8 3.3 6.8
v 17.1 3.3 6.8
v 14.7 3.3 6.7
v 14.9 3.3 6.7
v 16.8 3.3 6.7
v 17 3.3 6.7
v 15.8 3.3 6.6
v 15.9 3.3 6.6
v 14.6 3.3 6.5
v 14.7 3.3 6.5
v 15.6 3.3 6.5
v 15.8 3.3 6.5
v 15.9 3.3 6.5
v 16.1 3.3 6.5
v 17 3.3 6.5
v 17.1 3.3 6.5
v 15.5 3.3 6.4
v 15.6 3.3 6.4
v 16.1 3.3 6.4
v 16.2 3.3 6.4
v 15.5 3.3 6.3
v 15.6 3.3 6.3
v 16.1 3.3 6.3
v 16.2 3.3 6.3
v 14.6 3.3 6.2
v 14.7 3.3 6.2
v 15.6 3.3 6.2
v 15.8 3.3 6.2
v 15.9 3.3 6.2
v 16.1 3.3 6.2
v 17 3.3 6.2
v 17.1 3.3 6.2
v 15.8 3.3 6.1
v 15.9 3.3 6.1
v 14.7 3.3 6
v 14.9 3.3 6
v 16.8 3.3 6
v 17 3.3 6
v 14.6 3.3 5.9
v 14.9 3.3 5.9
v 16.8 3.3 5.9
v 17.1 3.3 5.9

# faces
f 4/1/1 2/1/1 1/1/1
f 5/2/1 3/2/1 2/2/1
f 5/1/1 2/1/1 4/1/1
f 6/2/1 3/2/1 5/2/1
f 13/1/1 8/1/1 7/1/1
f 14/2/1 9/2/1 8/2/1
f 14/1/1 8/1/1 13/1/1
f 15/2/1 9/2/1 14/2/1
f 16/1/1 10/1/1 9/1/1
f 16/2/1 9/2/1 15/2/1
f 17/2/1 12/2/1 11/2/1
f 17/1/1 10/1/1 16/1/1
f 17/2/1 11/2/1 10/2/1
f 18/2/1 12/2/1 17/2/1
f 19/2/1 15/2/1 14/2/1
f 20/1/1 16/1/1 15/1/1
f 20/2/1 15/2/1 19/2/1
f 20/1/1 18/1/1 17/1/1
f 20/1/1 17/1/1 16/1/1
f 21/2/1 12/2/1 18/2/1
f 21/1/1 18/1/1 20/1/1
f 22/2/1 12/2/1 21/2/1
f 23/1/1 20/1/1 19/1/1
f 23/1/1 21/1/1 20/1/1
f 23/1/1 22/1/1 21/1/1
f 24/1/1 22/1/1 23/1/1
f 25/1/1 22/1/1 24/1/1
f 26/1/1 22/1/1 25/1/1
f 27/2/1 24/2/1 23/2/1
f 27/1/1 25/1/1 24/1/1
f 28/1/1 25/1/1 27/1/1
f 29/1/1 25/1/1 28/1/1
f 30/2/1 26/2/1 25/2/1
f 30/1/1 25/1/1 29/1/1
f 31/2/1 27/2/1 23/2/1
f 31/2/1 28/2/1 27/2/1
f 32/1/1 29/1/1 28/1/1
f 32/2/1 28/2/1 31/2/1
f 33/2/1 30/2/1 29/2/1
f 33/1/1 29/1/1 32/1/1
f 34/2/1 26/2/1 30/2/1
f 34/2/1 30/2/1 33/2/1
f 40/2/1 36/2/1 35/2/1
f 41/1/1 37/1/1 36/1/1
f 41/2/1 36/2/1 40/2/1
f 41/1/1 38/1/1 37/1/1
f 42/2/1 39/2/1 38/2/1
f 42/1/1 38/1/1 41/1/1
f 43/2/1 39/2/1 42/2/1
f 46/1/1 45/1/1 44/1/1
f 47/1/1 45/1/1 46/1/1
f 48/1/1 46/1/1 44/1/1
f 49/1/1 45/1/1 47/1/1
f 50/1/1 48/1/1 44/1/1
f 50/1/1 49/1/1 48/1/1
f 51/1/1 45/1/1 49/1/1
f 51/1/1 49/1/1 50/1/1
f 55/1/1 53/1/1 52/1/1
f 55/1/1 54/1/1 53/1/1
f 56/1/1 54/1/1 55/1/1
f 57/1/1 55/1/1 52/1/1
f 58/1/1 54/1/1 56/1/1
f 59/1/1 57/1/1 52/1/1
f 59/1/1 58/1/1 57/1/1
f 60/1/1 54/1/1 58/1/1
f 60/1/1 58/1/1 59/1/1
f 61/1/1 54/1/1 60/1/1
f 65/1/1 63/1/1 62/1/1
f 65/1/1 64/1/1 63/1/1
f 66/1/1 64/1/1 65/1/1
f 69/2/1 68/2/1 67/2/1
f 70/2/1 68/2/1 69/2/1
f 71/1/1 70/1/1 69/1/1
f 72/1/1 70/1/1 71/1/1
f 73/2/1 72/2/1 71/2/1
f 74/2/1 72/2/1 73/2/1
f 75/2/2 76/2/2 77/2/2
f 77/2/2 76/2/2 78/2/2
f 77/1/2 78/1/2 79/1/2
f 79/1/2 78/1/2 80/1/2
f 79/2/2 80/2/2 81/2/2
f 81/2/2 80/2/2 82/2/2
f 83/1/2 84/1/2 86/1/2
f 84/1/2 85/1/2 86/1/2
f 86/1/2 85/1/2 87/1/2
f 83/1/2 86/1/2 88/1/2
f 87/1/2 85/1/2 89/1/2
f 83/1/2 88/1/2 90/1/2
f 88/1/2 89/1/2 90/1/2
f 89/1/2 85/1/2 91/1/2
f 90/1/2 89/1/2 91/1/2
f 91/1/2 85/1/2 92/1/2
f 93/1/2 94/1/2 96/1/2
f 94/1/2 95/1/2 96/1/2
f 96/1/2 95/1/2 97/1/2
f 98/1/2 99/1/2 100/1/2
f 100/1/2 99/1/2 101/1/2
f 98/1/2 100/1/2 102/1/2
f 101/1/2 99/1/2 103/1/2
f 98/1/2 102/1/2 104/1/2
f 102/1/2 103/1/2 104/1/2
f 103/1/2 99/1/2 105/1/2
f 104/1/2 103/1/2 105/1/2
f 106/2/2 107/2/2 111/2/2
f 107/1/2 108/1/2 112/1/2
f 111/2/2 107/2/2 112/2/2
f 108/1/2 109/1/2 112/1/2
f 109/2/2 110/2/2 113/2/2
f 112/1/2 109/1/2 113/1/2
f 113/2/2 110/2/2 114/2/2
f 115/1/2 116/1/2 121/1/2
f 116/2/2 117/2/2 122/2/2
f 121/1/2 116/1/2 122/1/2
f 122/2/2 117/2/2 123/2/2
f 117/1/2 118/1/2 124/1/2
f 123/2/2 117/2/2 124/2/2
f 119/2/2 120/2/2 125/2/2
f 124/1/2 118/1/2 125/1/2
f 118/2/2 119/2/2 125/2/2
f 125/2/2 120/2/2 126/2/2
f 122/2/2 123/2/2 127/2/2
f 123/1/2 124/1/2 128/1/2
f 127/2/2 123/2/2 128/2/2
f 125/1/2 126/1/2 128/1/2
f 124/1/2 125/1/2 128/1/2
f 126/2/2 120/2/2 129/2/2
f 128/1/2 126/1/2 129/1/2
f 129/2/2 120/2/2 130/2/2
f 127/1/2 128/1/2 131/1/2
f 128/1/2 129/1/2 131/1/2
f 129/1/2 130/1/2 131/1/2
f 131/1/2 130/1/2 132/1/2
f 132/1/2 130/1/2 133/1/2
f 133/1/2 130/1/2 134/1/2
f 131/2/2 132/2/2 135/2/2
f 132/1/2 133/1/2 135/1/2
f 135/1/2 133/1/2 136/1/2
f 136/1/2 133/1/2 137/1/2
f 133/2/2 134/2/2 138/2/2
f 137/1/2 133/1/2 138/1/2
f 131/2/2 135/2/2 139/2/2
f 135/2/2 136/2/2 139/2/2
f 136/1/2 137/1/2 140/1/2
f 139/2/2 136/2/2 140/2/2
f 137/2/2 138/2/2 141/2/2
f 140/1/2 137/1/2 141/1/2
f 138/2/2 134/2/2 142/2/2
f 141/2/2 138/2/2 142/2/2
f 143/1/2 144/1/2 146/1/2
f 144/2/2 145/2/2 147/2/2
f 146/1/2 144/1/2 147/1/2
f 147/2/2 145/2/2 148/2/2
f 151/1/3 150/1/3 149/1/3
f 152/1/3 150/1/3 151/1/3
f 155/1/3 154/1/3 153/1/3
f 156/1/3 154/1/3 155/1/3
f 161/2/3 158/2/3 157/2/3
f 162/1/3 159/1/3 158/1/3
f 162/2/3 158/2/3 161/2/3
f 163/2/3 160/2/3 159/2/3
f 163/1/3 159/1/3 162/1/3
f 164/2/3 160/2/3 163/2/3
f 166/2/3 165/2/3 164/2/3
f 167/2/3 165/2/3 166/2/3
f 168/1/3 167/1/3 166/1/3
f 169/1/3 167/1/3 168/1/3
f 173/2/3 169/2/3 168/2/3
f 174/2/3 169/2/3 173/2/3
f 175/2/3 171/2/3 170/2/3
f 176/1/3 172/1/3 171/1/3
f 176/2/3 171/2/3 175/2/3
f 177/2/3 173/2/3 172/2/3
f 177/1/3 172/1/3 176/1/3
f 178/2/3 173/2/3 177/2/3
f 183/1/3 180/1/3 179/1/3
f 183/1/3 182/1/3 181/1/3
f 183/1/3 181/1/3 180/1/3
f 184/1/3 182/1/3 183/1/3
f 185/1/3 182/1/3 184/1/3
f 186/1/3 182/1/3 185/1/3
f 187/1/3 182/1/3 186/1/3
f 189/1/3 185/1/3 184/1/3
f 190/1/3 189/1/3 188/1/3
f 191/1/3 185/1/3 189/1/3
f 191/1/3 189/1/3 190/1/3
f 192/1/3 187/1/3 186/1/3
f 194/1/3 185/1/3 191/1/3
f 195/1/3 185/1/3 194/1/3
f 196/1/3 192/1/3 186/1/3
f 197/1/3 195/1/3 194/1/3
f 197/1/3 196/1/3 195/1/3
f 197/1/3 194/1/3 193/1/3
f 198/1/3 196/1/3 197/1/3
f 199/1/3 196/1/3 198/1/3
f 200/1/3 192/1/3 196/1/3
f 200/1/3 196/1/3 199/1/3
f 203/2/3 202/2/3 201/2/3
f 204/2/3 202/2/3 203/2/3
f 205/1/3 204/1/3 203/1/3
f 206/1/3 204/1/3 205/1/3
f 207/2/3 206/2/3 205/2/3
f 208/2/3 206/2/3 207/2/3
f 211/2/3 210/2/3 209/2/3
f 212/2/3 210/2/3 211/2/3
f 213/1/3 212/1/3 211/1/3
f 214/1/3 212/1/3 213/1/3
f 215/2/3 214/2/3 213/2/3
f 216/2/3 214/2/3 215/2/3
f 221/1/3 218/1/3 217/1/3
f 222/1/3 218/1/3 221/1/3
f 223/1/3 220/1/3 219/1/3
f 224/1/3 222/1/3 221/1/3
f 225/1/3 222/1/3 224/1/3
f 226/1/3 220/1/3 223/1/3
f 227/1/3 225/1/3 224/1/3
f 228/1/3 225/1/3 227/1/3
f 229/1/3 220/1/3 226/1/3
f 230/1/3 220/1/3 229/1/3
f 231/2/4 232/2/4 233/2/4
f 233/2/4 232/2/4 234/2/4
f 233/1/4 234/1/4 235/1/4
f 235/1/4 234/1/4 236/1/4
f 235/2/4 236/2/4 237/2/4
f 237/2/4 236/2/4 238/2/4
f 239/2/4 240/2/4 241/2/4
f 241/2/4 240/2/4 242/2/4
f 241/1/4 242/1/4 243/1/4
f 243/1/4 242/1/4 244/1/4
f 243/2/4 244/2/4 245/2/4
f 245/2/4 244/2/4 246/2/4
f 247/1/4 248/1/4 249/1/4
f 249/1/4 248/1/4 250/1/4
f 251/2/4 252/2/4 253/2/4
f 253/2/4 252/2/4 254/2/4
f 253/1/4 254/1/4 255/1/4
f 255/1/4 254/1/4 256/1/4
f 255/2/4 256/2/4 257/2/4
f 257/2/4 256/2/4 258/2/4
f 259/2/4 260/2/4 261/2/4
f 259/2/4 261/2/4 265/2/4
f 261/2/4 262/2/4 265/2/4
f 262/1/4 263/1/4 266/1/4
f 265/2/4 262/2/4 266/2/4
f 263/2/4 264/2/4 267/2/4
f 266/1/4 263/1/4 267/1/4
f 267/2/4 264/2/4 268/2/4
f 259/2/4 265/2/4 269/2/4
f 265/1/4 266/1/4 270/1/4
f 269/2/4 265/2/4 270/2/4
f 266/1/4 267/1/4 270/1/4
f 267/1/4 268/1/4 270/1/4
f 268/2/4 264/2/4 271/2/4
f 270/1/4 268/1/4 271/1/4
f 271/2/4 264/2/4 272/2/4
f 269/1/4 270/1/4 273/1/4
f 270/1/4 271/1/4 273/1/4
f 271/1/4 272/1/4 273/1/4
f 273/1/4 272/1/4 274/1/4
f 274/1/4 272/1/4 275/1/4
f 275/1/4 272/1/4 276/1/4
f 273/2/4 274/2/4 277/2/4
f 274/1/4 275/1/4 277/1/4
f 277/1/4 275/1/4 278/1/4
f 278/1/4 275/1/4 279/1/4
f 275/2/4 276/2/4 280/2/4
f 279/1/4 275/1/4 280/1/4
f 273/2/4 277/2/4 281/2/4
f 277/2/4 278/2/4 281/2/4
f 278/1/4 279/1/4 282/1/4
f 281/2/4 278/2/4 282/2/4
f 279/2/4 280/2/4 283/2/4
f 282/1/4 279/1/4 283/1/4
f 280/2/4 276/2/4 284/2/4
f 283/2/4 280/2/4 284/2/4
f 273/2/4 281/2/4 285/2/4
f 285/2/4 281/2/4 286/2/4
f 289/1/5 288/1/5 287/1/5
f 290/1/5 288/1/5 289/1/5
f 291/1/5 288/1/5 290/1/5
f 292/1/5 288/1/5 291/1/5
f 293/2/5 290/2/5 289/2/5
f 294/1/5 291/1/5 290/1/5
f 294/2/5 290/2/5 293/2/5
f 295/2/5 292/2/5 291/2/5
f 295/1/5 291/1/5 294/1/5
f 296/2/5 292/2/5 295/2/5
f 305/2/5 298/2/5 297/2/5
f 306/1/5 299/1/5 298/1/5
f 306/2/5 298/2/5 305/2/5
f 307/2/5 300/2/5 299/2/5
f 307/1/5 299/1/5 306/1/5
f 308/2/5 300/2/5 307/2/5
f 309/2/5 302/2/5 301/2/5
f 310/1/5 303/1/5 302/1/5
f 310/2/5 302/2/5 309/2/5
f 311/2/5 304/2/5 303/2/5
f 311/1/5 303/1/5 310/1/5
f 312/2/5 304/2/5 311/2/5
f 317/1/5 314/1/5 313/1/5
f 318/1/5 314/1/5 317/1/5
f 319/1/5 316/1/5 315/1/5
f 320/1/5 316/1/5 319/1/5
f 321/1/5 314/1/5 318/1/5
f 321/2/5 318/2/5 317/2/5
f 322/1/5 314/1/5 321/1/5
f 323/1/5 314/1/5 322/1/5
f 324/1/5 319/1/5 315/1/5
f 325/1/5 319/1/5 324/1/5
f 326/2/5 320/2/5 319/2/5
f 326/1/5 319/1/5 325/1/5
f 327/2/5 321/2/5 317/2/5
f 327/2/5 322/2/5 321/2/5
f 328/1/5 325/1/5 324/1/5
f 328/2/5 322/2/5 327/2/5
f 328/1/5 323/1/5 322/1/5
f 328/1/5 324/1/5 323/1/5
f 329/2/5 326/2/5 325/2/5
f 329/1/5 325/1/5 328/1/5
f 330/2/5 320/2/5 326/2/5
f 330/2/5 326/2/5 329/2/5
f 333/1/5 332/1/5 331/1/5
f 334/1/5 332/1/5 333/1/5
f 339/2/5 336/2/5 335/2/5
f 340/1/5 337/1/5 336/1/5
f 340/2/5 336/2/5 339/2/5
f 341/2/5 338/2/5 337/2/5
f 341/1/5 337/1/5 340/1/5
f 342/2/5 338/2/5 341/2/5
f 343/1/6 344/1/6 345/1/6
f 345/1/6 344/1/6 346/1/6
f 343/1/6 345/1/6 347/1/6
f 346/1/6 344/1/6 348/1/6
f 343/1/6 347/1/6 349/1/6
f 348/1/6 344/1/6 350/1/6
f 343/1/6 349/1/6 351/1/6
f 350/1/6 344/1/6 352/1/6
f 343/1/6 351/1/6 353/1/6
f 353/1/6 351/1/6 354/1/6
f 352/1/6 344/1/6 355/1/6
f 355/1/6 344/1/6 356/1/6
f 353/2/6 354/2/6 357/2/6
f 357/2/6 354/2/6 358/2/6
f 355/2/6 356/2/6 359/2/6
f 359/2/6 356/2/6 360/2/6
f 361/1/6 362/1/6 363/1/6
f 363/1/6 362/1/6 364/1/6
f 364/1/6 362/1/6 365/1/6
f 365/1/6 362/1/6 366/1/6
f 364/1/6 365/1/6 367/1/6
f 367/1/6 365/1/6 368/1/6
f 368/1/6 365/1/6 369/1/6
f 369/1/6 365/1/6 370/1/6
f 370/1/6 365/1/6 371/1/6
f 371/1/6 365/1/6 372/1/6
f 368/1/6 369/1/6 373/1/6
f 373/1/6 369/1/6 374/1/6
f 370/1/6 371/1/6 375/1/6
f 375/1/6 371/1/6 376/1/6
f 374/1/6 369/1/6 377/1/6
f 373/2/6 374/2/6 377/2/6
f 377/1/6 369/1/6 378/1/6
f 378/1/6 369/1/6 379/1/6
f 370/1/6 375/1/6 380/1/6
f 380/1/6 375/1/6 381/1/6
f 375/2/6 376/2/6 382/2/6
f 381/1/6 375/1/6 382/1/6
f 373/2/6 377/2/6 383/2/6
f 377/2/6 378/2/6 383/2/6
f 380/1/6 381/1/6 384/1/6
f 383/2/6 378/2/6 384/2/6
f 378/1/6 379/1/6 384/1/6
f 379/1/6 380/1/6 384/1/6
f 381/2/6 382/2/6 385/2/6
f 384/1/6 381/1/6 385/1/6
f 382/2/6 376/2/6 386/2/6
f 385/2/6 382/2/6 386/2/6
f 387/2/6 388/2/6 395/2/6
f 388/1/6 389/1/6 396/1/6
f 395/2/6 388/2/6 396/2/6
f 389/2/6 390/2/6 397/2/6
f 396/1/6 389/1/6 397/1/6
f 397/2/6 390/2/6 398/2/6
f 391/2/6 392/2/6 399/2/6
f 392/1/6 393/1/6 400/1/6
f 399/2/6 392/2/6 400/2/6
f 393/2/6 394/2/6 401/2/6
f 400/1/6 393/1/6 401/1/6
f 401/2/6 394/2/6 402/2/6
f 403/1/6 404/1/6 405/1/6
f 405/1/6 404/1/6 406/1/6
f 406/1/6 404/1/6 407/1/6
f 407/1/6 404/1/6 408/1/6
f 405/2/6 406/2/6 409/2/6
f 406/1/6 407/1/6 409/1/6
f 409/1/6 407/1/6 410/1/6
f 410/1/6 407/1/6 411/1/6
f 407/2/6 408/2/6 412/2/6
f 411/1/6 407/1/6 412/1/6
f 405/2/6 409/2/6 413/2/6
f 409/2/6 410/2/6 413/2/6
f 410/1/6 411/1/6 414/1/6
f 413/2/6 410/2/6 414/2/6
f 411/2/6 412/2/6 415/2/6
f 414/1/6 411/1/6 415/1/6
f 412/2/6 408/2/6 416/2/6
f 415/2/6 412/2/6 416/2/6
f 417/2/6 418/2/6 421/2/6
f 419/2/6 420/2/6 422/2/6
f 417/2/6 421/2/6 423/2/6
f 423/2/6 421/2/6 424/2/6
f 422/2/6 420/2/6 425/2/6
f 425/2/6 420/2/6 426/2/6
f 423/1/6 424/1/6 427/1/6
f 427/1/6 424/1/6 428/1/6
f 425/1/6 426/1/6 429/1/6
f 429/1/6 426/1/6 430/1/6
f 427/2/6 428/2/6 431/2/6
f 429/2/6 430/2/6 434/2/6
f 427/2/6 431/2/6 435/2/6
f 431/2/6 432/2/6 435/2/6
f 432/1/6 433/1/6 436/1/6
f 435/2/6 432/2/6 436/2/6
f 433/2/6 434/2/6 437/2/6
f 436/1/6 433/1/6 437/1/6
f 434/2/6 430/2/6 438/2/6
f 437/2/6 434/2/6 438/2/6
f 439/2/6 440/2/6 443/2/6
f 440/1/6 441/1/6 444/1/6
f 443/2/6 440/2/6 444/2/6
f 441/2/6 442/2/6 445/2/6
f 444/1/6 441/1/6 445/1/6
f 445/2/6 442/2/6 446/2/6
f 443/1/6 444/1/6 447/1/6
f 444/1/6 445/1/6 447/1/6
f 445/1/6 446/1/6 447/1/6
f 447/1/6 446/1/6 448/1/6
f 439/2/6 443/2/6 449/2/6
f 443/1/6 447/1/6 450/1/6
f 449/2/6 443/2/6 450/2/6
f 450/1/6 447/1/6 451/1/6
f 447/2/6 448/2/6 452/2/6
f 451/1/6 447/1/6 452/1/6
f 448/1/6 446/1/6 453/1/6
f 452/2/6 448/2/6 453/2/6
f 453/1/6 446/1/6 454/1/6
f 446/2/6 442/2/6 455/2/6
f 454/1/6 446/1/6 455/1/6
f 455/2/6 442/2/6 456/2/6
f 450/1/6 451/1/6 457/1/6
f 449/1/6 450/1/6 457/1/6
f 453/2/6 454/2/6 458/2/6
f 457/1/6 451/1/6 458/1/6
f 451/2/6 452/2/6 458/2/6
f 452/2/6 453/2/6 458/2/6
f 454/1/6 455/1/6 459/1/6
f 458/2/6 454/2/6 459/2/6
f 455/1/6 456/1/6 459/1/6
f 459/1/6 456/1/6 460/1/6
f 449/1/6 457/1/6 461/1/6
f 457/2/6 458/2/6 461/2/6
f 459/2/6 460/2/6 461/2/6
f 458/2/6 459/2/6 461/2/6
f 461/2/6 460/2/6 462/2/6
f 462/2/6 460/2/6 463/2/6
f 460/1/6 456/1/6 464/1/6
f 463/2/6 460/2/6 464/2/6
f 449/1/6 461/1/6 465/1/6
f 461/1/6 462/1/6 465/1/6
f 465/1/6 462/1/6 466/1/6
f 462/2/6 463/2/6 467/2/6
f 466/1/6 462/1/6 467/1/6
f 467/2/6 463/2/6 468/2/6
f 468/2/6 463/2/6 469/2/6
f 463/1/6 464/1/6 470/1/6
f 469/2/6 463/2/6 470/2/6
f 464/1/6 456/1/6 471/1/6
f 470/1/6 464/1/6 471/1/6
f 471/1/6 456/1/6 472/1/6
f 468/2/6 469/2/6 473/2/6
f 466/1/6 467/1/6 473/1/6
f 467/1/6 468/1/6 473/1/6
f 469/1/6 470/1/6 474/1/6
f 473/2/6 469/2/6 474/2/6
f 470/1/6 471/1/6 474/1/6
f 465/2/6 466/2/6 475/2/6
f 466/1/6 473/1/6 475/1/6
f 473/1/6 474/1/6 475/1/6
f 475/1/6 474/1/6 476/1/6
f 474/1/6 471/1/6 477/1/6
f 476/1/6 474/1/6 477/1/6
f 471/2/6 472/2/6 478/2/6
f 477/1/6 471/1/6 478/1/6
f 475/2/6 476/2/6 479/2/6
f 465/2/6 475/2/6 479/2/6
f 476/1/6 477/1/6 480/1/6
f 479/2/6 476/2/6 480/2/6
f 477/2/6 478/2/6 481/2/6
f 480/1/6 477/1/6 481/1/6
f 478/2/6 472/2/6 482/2/6
f 481/2/6 478/2/6 482/2/6
