# MagicaVoxel @ Ephtracy

# group
o 

# material
mtllib Decor-54.mtl
usemtl palette

# normals
vn -1 0 0
vn 1 0 0
vn 0 0 1
vn 0 0 -1
vn 0 -1 0
vn 0 1 0

# texcoords
vt 0.939453 0.5
vt 0.943359 0.5

# verts
v 14.1 0 9.7
v 14.1 0 9.4
v 14.1 0 9
v 14.1 0 8.7
v 14.1 0.1 9.7
v 14.1 0.1 9.4
v 14.1 0.1 9
v 14.1 0.1 8.8
v 14.1 0.2 8.8
v 14.1 0.2 8.7
v 14.1 0.5 8.8
v 14.1 0.5 8.7
v 14.1 0.6 9.7
v 14.1 0.6 9.4
v 14.1 0.6 9
v 14.1 0.6 8.8
v 14.1 0.7 9.7
v 14.1 0.7 9.4
v 14.1 0.7 9
v 14.1 0.7 8.7
v 16.8 0.1 9.7
v 16.8 0.1 9.6
v 16.8 0.1 9.5
v 16.8 0.1 9
v 16.8 0.1 8.8
v 16.8 0.2 9.7
v 16.8 0.2 9.6
v 16.8 0.5 9.7
v 16.8 0.5 9.6
v 16.8 0.6 9.7
v 16.8 0.6 9.6
v 16.8 0.6 8.8
v 14.2 0.1 9.7
v 14.2 0.1 9.5
v 14.2 0.1 9
v 14.2 0.1 8.8
v 14.2 0.6 9.7
v 14.2 0.6 9.6
v 14.2 0.6 8.8
v 16.9 0 9.7
v 16.9 0 9.4
v 16.9 0 9
v 16.9 0 8.7
v 16.9 0.1 9.6
v 16.9 0.1 9.4
v 16.9 0.1 9
v 16.9 0.1 8.8
v 16.9 0.2 9.7
v 16.9 0.2 9.6
v 16.9 0.2 8.8
v 16.9 0.2 8.7
v 16.9 0.5 9.7
v 16.9 0.5 9.6
v 16.9 0.5 8.8
v 16.9 0.5 8.7
v 16.9 0.6 9.6
v 16.9 0.6 9.4
v 16.9 0.6 9
v 16.9 0.6 8.8
v 16.9 0.7 9.7
v 16.9 0.7 9.4
v 16.9 0.7 9
v 16.9 0.7 8.7
v 14.1 0 9.7
v 14.1 0.1 9.7
v 14.1 0.6 9.7
v 14.1 0.7 9.7
v 14.2 0.1 9.7
v 14.2 0.6 9.7
v 14.4 0 9.7
v 14.4 0.1 9.7
v 14.4 0.6 9.7
v 14.4 0.7 9.7
v 16.6 0 9.7
v 16.6 0.1 9.7
v 16.6 0.6 9.7
v 16.6 0.7 9.7
v 16.8 0.1 9.7
v 16.8 0.2 9.7
v 16.8 0.5 9.7
v 16.8 0.6 9.7
v 16.9 0 9.7
v 16.9 0.2 9.7
v 16.9 0.5 9.7
v 16.9 0.7 9.7
v 14.2 0.1 8.8
v 14.2 0.6 8.8
v 14.4 0.1 8.8
v 16.6 0.1 8.8
v 16.8 0.1 8.8
v 16.8 0.6 8.8
v 14.1 0 8.7
v 14.1 0.2 8.7
v 14.1 0.5 8.7
v 14.1 0.7 8.7
v 14.2 0.1 8.7
v 14.2 0.2 8.7
v 14.2 0.5 8.7
v 14.2 0.6 8.7
v 14.4 0 8.7
v 14.4 0.1 8.7
v 14.4 0.6 8.7
v 14.4 0.7 8.7
v 16.6 0 8.7
v 16.6 0.1 8.7
v 16.6 0.6 8.7
v 16.6 0.7 8.7
v 16.8 0.1 8.7
v 16.8 0.2 8.7
v 16.8 0.5 8.7
v 16.8 0.6 8.7
v 16.9 0 8.7
v 16.9 0.2 8.7
v 16.9 0.5 8.7
v 16.9 0.7 8.7
v 14.1 0 9.7
v 14.4 0 9.7
v 16.6 0 9.7
v 16.9 0 9.7
v 14.3 0 9.6
v 14.4 0 9.6
v 16.6 0 9.6
v 16.7 0 9.6
v 14.2 0 9.5
v 14.3 0 9.5
v 16.7 0 9.5
v 16.8 0 9.5
v 14.1 0 9.4
v 14.2 0 9.4
v 16.8 0 9.4
v 16.9 0 9.4
v 14.1 0 9
v 14.3 0 9
v 16.7 0 9
v 16.9 0 9
v 14.3 0 8.9
v 14.4 0 8.9
v 16.6 0 8.9
v 16.7 0 8.9
v 14.1 0 8.7
v 14.4 0 8.7
v 16.6 0 8.7
v 16.9 0 8.7
v 14.2 0.6 9.7
v 14.4 0.6 9.7
v 16.6 0.6 9.7
v 16.8 0.6 9.7
v 14.2 0.6 9.6
v 14.4 0.6 9.6
v 16.6 0.6 9.6
v 16.8 0.6 9.6
v 14.2 0.6 8.8
v 16.8 0.6 8.8
v 14.2 0.1 9.7
v 14.4 0.1 9.7
v 16.6 0.1 9.7
v 16.8 0.1 9.7
v 14.3 0.1 9.6
v 14.4 0.1 9.6
v 16.6 0.1 9.6
v 16.7 0.1 9.6
v 16.8 0.1 9.6
v 14.2 0.1 9.5
v 14.3 0.1 9.5
v 16.7 0.1 9.5
v 16.8 0.1 9.5
v 14.2 0.1 9
v 14.3 0.1 9
v 16.7 0.1 9
v 16.8 0.1 9
v 14.3 0.1 8.9
v 14.4 0.1 8.9
v 16.6 0.1 8.9
v 16.7 0.1 8.9
v 14.2 0.1 8.8
v 14.4 0.1 8.8
v 16.6 0.1 8.8
v 16.8 0.1 8.8
v 14.1 0.7 9.7
v 14.4 0.7 9.7
v 16.6 0.7 9.7
v 16.9 0.7 9.7
v 14.2 0.7 9.6
v 14.4 0.7 9.6
v 16.6 0.7 9.6
v 16.8 0.7 9.6
v 14.1 0.7 9.4
v 14.2 0.7 9.4
v 16.8 0.7 9.4
v 16.9 0.7 9.4
v 14.1 0.7 9
v 14.2 0.7 9
v 16.8 0.7 9
v 16.9 0.7 9
v 14.2 0.7 8.8
v 14.4 0.7 8.8
v 16.6 0.7 8.8
v 16.8 0.7 8.8
v 14.1 0.7 8.7
v 14.4 0.7 8.7
v 16.6 0.7 8.7
v 16.9 0.7 8.7

# faces
f 5/2/1 2/2/1 1/2/1
f 6/1/1 3/1/1 2/1/1
f 6/2/1 2/2/1 5/2/1
f 7/2/1 4/2/1 3/2/1
f 7/1/1 3/1/1 6/1/1
f 8/2/1 4/2/1 7/2/1
f 9/1/1 6/1/1 5/1/1
f 9/2/1 4/2/1 8/2/1
f 9/1/1 8/1/1 7/1/1
f 9/1/1 7/1/1 6/1/1
f 10/2/1 4/2/1 9/2/1
f 11/1/1 9/1/1 5/1/1
f 11/1/1 10/1/1 9/1/1
f 12/1/1 10/1/1 11/1/1
f 13/1/1 11/1/1 5/1/1
f 14/1/1 11/1/1 13/1/1
f 15/1/1 11/1/1 14/1/1
f 16/2/1 12/2/1 11/2/1
f 16/1/1 11/1/1 15/1/1
f 17/2/1 14/2/1 13/2/1
f 18/1/1 15/1/1 14/1/1
f 18/2/1 14/2/1 17/2/1
f 19/2/1 16/2/1 15/2/1
f 19/1/1 15/1/1 18/1/1
f 20/2/1 12/2/1 16/2/1
f 20/2/1 16/2/1 19/2/1
f 26/2/1 22/2/1 21/2/1
f 27/1/1 25/1/1 24/1/1
f 27/2/1 22/2/1 26/2/1
f 27/1/1 23/1/1 22/1/1
f 27/1/1 24/1/1 23/1/1
f 28/1/1 27/1/1 26/1/1
f 29/1/1 25/1/1 27/1/1
f 29/1/1 27/1/1 28/1/1
f 30/2/1 29/2/1 28/2/1
f 31/1/1 25/1/1 29/1/1
f 31/2/1 29/2/1 30/2/1
f 32/1/1 25/1/1 31/1/1
f 33/1/2 34/1/2 37/1/2
f 35/1/2 36/1/2 37/1/2
f 34/1/2 35/1/2 37/1/2
f 37/1/2 36/1/2 38/1/2
f 38/1/2 36/1/2 39/1/2
f 40/2/2 41/2/2 44/2/2
f 41/1/2 42/1/2 45/1/2
f 44/2/2 41/2/2 45/2/2
f 42/2/2 43/2/2 46/2/2
f 45/1/2 42/1/2 46/1/2
f 46/2/2 43/2/2 47/2/2
f 40/2/2 44/2/2 48/2/2
f 44/1/2 45/1/2 49/1/2
f 48/2/2 44/2/2 49/2/2
f 45/1/2 46/1/2 49/1/2
f 46/1/2 47/1/2 49/1/2
f 47/2/2 43/2/2 50/2/2
f 49/1/2 47/1/2 50/1/2
f 50/2/2 43/2/2 51/2/2
f 48/1/2 49/1/2 52/1/2
f 49/1/2 50/1/2 52/1/2
f 50/1/2 51/1/2 52/1/2
f 52/1/2 51/1/2 53/1/2
f 53/1/2 51/1/2 54/1/2
f 54/1/2 51/1/2 55/1/2
f 52/2/2 53/2/2 56/2/2
f 53/1/2 54/1/2 56/1/2
f 56/1/2 54/1/2 57/1/2
f 57/1/2 54/1/2 58/1/2
f 54/2/2 55/2/2 59/2/2
f 58/1/2 54/1/2 59/1/2
f 52/2/2 56/2/2 60/2/2
f 56/2/2 57/2/2 60/2/2
f 57/1/2 58/1/2 61/1/2
f 60/2/2 57/2/2 61/2/2
f 58/2/2 59/2/2 62/2/2
f 61/1/2 58/1/2 62/1/2
f 59/2/2 55/2/2 63/2/2
f 62/2/2 59/2/2 63/2/2
f 68/2/3 65/2/3 64/2/3
f 68/1/3 66/1/3 65/1/3
f 69/2/3 67/2/3 66/2/3
f 69/1/3 66/1/3 68/1/3
f 70/2/3 68/2/3 64/2/3
f 71/2/3 68/2/3 70/2/3
f 72/2/3 67/2/3 69/2/3
f 73/2/3 67/2/3 72/2/3
f 74/1/3 71/1/3 70/1/3
f 75/1/3 71/1/3 74/1/3
f 76/1/3 73/1/3 72/1/3
f 77/1/3 73/1/3 76/1/3
f 78/2/3 75/2/3 74/2/3
f 81/2/3 77/2/3 76/2/3
f 82/2/3 78/2/3 74/2/3
f 82/2/3 79/2/3 78/2/3
f 83/1/3 80/1/3 79/1/3
f 83/2/3 79/2/3 82/2/3
f 84/2/3 81/2/3 80/2/3
f 84/1/3 80/1/3 83/1/3
f 85/2/3 77/2/3 81/2/3
f 85/2/3 81/2/3 84/2/3
f 88/1/3 87/1/3 86/1/3
f 89/1/3 87/1/3 88/1/3
f 90/1/3 87/1/3 89/1/3
f 91/1/3 87/1/3 90/1/3
f 92/2/4 93/2/4 96/2/4
f 93/1/4 94/1/4 97/1/4
f 96/2/4 93/2/4 97/2/4
f 94/2/4 95/2/4 98/2/4
f 97/1/4 94/1/4 98/1/4
f 98/2/4 95/2/4 99/2/4
f 92/2/4 96/2/4 100/2/4
f 96/1/4 97/1/4 101/1/4
f 100/2/4 96/2/4 101/2/4
f 97/1/4 98/1/4 101/1/4
f 98/1/4 99/1/4 101/1/4
f 99/2/4 95/2/4 102/2/4
f 101/1/4 99/1/4 102/1/4
f 102/2/4 95/2/4 103/2/4
f 100/1/4 101/1/4 104/1/4
f 101/1/4 102/1/4 104/1/4
f 102/1/4 103/1/4 104/1/4
f 104/1/4 103/1/4 105/1/4
f 105/1/4 103/1/4 106/1/4
f 106/1/4 103/1/4 107/1/4
f 104/2/4 105/2/4 108/2/4
f 105/1/4 106/1/4 108/1/4
f 108/1/4 106/1/4 109/1/4
f 109/1/4 106/1/4 110/1/4
f 106/2/4 107/2/4 111/2/4
f 110/1/4 106/1/4 111/1/4
f 104/2/4 108/2/4 112/2/4
f 108/2/4 109/2/4 112/2/4
f 109/1/4 110/1/4 113/1/4
f 112/2/4 109/2/4 113/2/4
f 110/2/4 111/2/4 114/2/4
f 113/1/4 110/1/4 114/1/4
f 111/2/4 107/2/4 115/2/4
f 114/2/4 111/2/4 115/2/4
f 120/2/5 117/2/5 116/2/5
f 121/1/5 118/1/5 117/1/5
f 121/2/5 117/2/5 120/2/5
f 122/2/5 119/2/5 118/2/5
f 122/1/5 118/1/5 121/1/5
f 123/2/5 119/2/5 122/2/5
f 124/2/5 120/2/5 116/2/5
f 125/1/5 121/1/5 120/1/5
f 125/2/5 120/2/5 124/2/5
f 125/1/5 122/1/5 121/1/5
f 125/1/5 123/1/5 122/1/5
f 126/2/5 119/2/5 123/2/5
f 126/1/5 123/1/5 125/1/5
f 127/2/5 119/2/5 126/2/5
f 128/2/5 124/2/5 116/2/5
f 129/1/5 125/1/5 124/1/5
f 129/2/5 124/2/5 128/2/5
f 129/1/5 126/1/5 125/1/5
f 129/1/5 127/1/5 126/1/5
f 130/2/5 119/2/5 127/2/5
f 130/1/5 127/1/5 129/1/5
f 131/2/5 119/2/5 130/2/5
f 132/1/5 129/1/5 128/1/5
f 132/1/5 130/1/5 129/1/5
f 132/1/5 131/1/5 130/1/5
f 133/1/5 131/1/5 132/1/5
f 134/1/5 131/1/5 133/1/5
f 135/1/5 131/1/5 134/1/5
f 136/2/5 133/2/5 132/2/5
f 136/1/5 134/1/5 133/1/5
f 137/1/5 134/1/5 136/1/5
f 138/1/5 134/1/5 137/1/5
f 139/2/5 135/2/5 134/2/5
f 139/1/5 134/1/5 138/1/5
f 140/2/5 136/2/5 132/2/5
f 140/2/5 137/2/5 136/2/5
f 141/1/5 138/1/5 137/1/5
f 141/2/5 137/2/5 140/2/5
f 142/2/5 139/2/5 138/2/5
f 142/1/5 138/1/5 141/1/5
f 143/2/5 135/2/5 139/2/5
f 143/2/5 139/2/5 142/2/5
f 148/2/5 145/2/5 144/2/5
f 149/1/5 146/1/5 145/1/5
f 149/2/5 145/2/5 148/2/5
f 150/2/5 147/2/5 146/2/5
f 150/1/5 146/1/5 149/1/5
f 151/2/5 147/2/5 150/2/5
f 152/1/5 149/1/5 148/1/5
f 152/1/5 150/1/5 149/1/5
f 152/1/5 151/1/5 150/1/5
f 153/1/5 151/1/5 152/1/5
f 154/2/6 155/2/6 158/2/6
f 155/1/6 156/1/6 159/1/6
f 158/2/6 155/2/6 159/2/6
f 156/2/6 157/2/6 160/2/6
f 159/1/6 156/1/6 160/1/6
f 160/2/6 157/2/6 161/2/6
f 161/2/6 157/2/6 162/2/6
f 154/2/6 158/2/6 163/2/6
f 158/1/6 159/1/6 164/1/6
f 163/2/6 158/2/6 164/2/6
f 159/1/6 160/1/6 164/1/6
f 160/1/6 161/1/6 164/1/6
f 161/2/6 162/2/6 165/2/6
f 164/1/6 161/1/6 165/1/6
f 165/2/6 162/2/6 166/2/6
f 163/1/6 164/1/6 167/1/6
f 164/1/6 165/1/6 167/1/6
f 165/1/6 166/1/6 167/1/6
f 167/1/6 166/1/6 168/1/6
f 168/1/6 166/1/6 169/1/6
f 169/1/6 166/1/6 170/1/6
f 167/2/6 168/2/6 171/2/6
f 168/1/6 169/1/6 171/1/6
f 171/1/6 169/1/6 172/1/6
f 172/1/6 169/1/6 173/1/6
f 169/2/6 170/2/6 174/2/6
f 173/1/6 169/1/6 174/1/6
f 167/2/6 171/2/6 175/2/6
f 171/2/6 172/2/6 175/2/6
f 172/1/6 173/1/6 176/1/6
f 175/2/6 172/2/6 176/2/6
f 173/2/6 174/2/6 177/2/6
f 176/1/6 173/1/6 177/1/6
f 174/2/6 170/2/6 178/2/6
f 177/2/6 174/2/6 178/2/6
f 179/2/6 180/2/6 183/2/6
f 180/1/6 181/1/6 184/1/6
f 183/2/6 180/2/6 184/2/6
f 181/2/6 182/2/6 185/2/6
f 184/1/6 181/1/6 185/1/6
f 185/2/6 182/2/6 186/2/6
f 179/2/6 183/2/6 187/2/6
f 183/1/6 184/1/6 188/1/6
f 187/2/6 183/2/6 188/2/6
f 184/1/6 185/1/6 188/1/6
f 185/1/6 186/1/6 188/1/6
f 186/2/6 182/2/6 189/2/6
f 188/1/6 186/1/6 189/1/6
f 189/2/6 182/2/6 190/2/6
f 187/1/6 188/1/6 191/1/6
f 188/1/6 189/1/6 191/1/6
f 189/1/6 190/1/6 191/1/6
f 191/1/6 190/1/6 192/1/6
f 192/1/6 190/1/6 193/1/6
f 193/1/6 190/1/6 194/1/6
f 191/2/6 192/2/6 195/2/6
f 192/1/6 193/1/6 195/1/6
f 195/1/6 193/1/6 196/1/6
f 196/1/6 193/1/6 197/1/6
f 193/2/6 194/2/6 198/2/6
f 197/1/6 193/1/6 198/1/6
f 191/2/6 195/2/6 199/2/6
f 195/2/6 196/2/6 199/2/6
f 196/1/6 197/1/6 200/1/6
f 199/2/6 196/2/6 200/2/6
f 197/2/6 198/2/6 201/2/6
f 200/1/6 197/1/6 201/1/6
f 198/2/6 194/2/6 202/2/6
f 201/2/6 198/2/6 202/2/6
