# MagicaVoxel @ Ephtracy

# group
o 

# material
mtllib Decor-56.mtl
usemtl palette

# normals
vn -1 0 0
vn 1 0 0
vn 0 0 1
vn 0 0 -1
vn 0 -1 0
vn 0 1 0

# texcoords
vt 0.939453 0.5
vt 0.943359 0.5

# verts
v 22.1 0.2 8
v 22.1 0.2 7.9
v 22.1 0.5 8
v 22.1 0.5 7.9
v 22.1 2.8 8
v 22.1 2.8 7.9
v 22.1 3.1 8
v 22.1 3.1 7.9
v 23 1.5 8.1
v 23 1.5 8
v 23 1.7 8.1
v 23 1.7 8
v 23.1 1.5 8.1
v 23.1 1.5 8
v 23.1 1.6 8.1
v 23.1 1.6 8
v 23.2 0.2 8
v 23.2 0.2 7.9
v 23.2 0.5 8
v 23.2 0.5 7.9
v 23.2 1.6 8.1
v 23.2 1.6 8
v 23.2 1.7 8.1
v 23.2 1.7 8
v 23.2 2.8 8
v 23.2 2.8 7.9
v 23.2 3.1 8
v 23.2 3.1 7.9
v 23 1.5 8.1
v 23 1.7 8.1
v 23.1 1.5 8.1
v 23.1 1.6 8.1
v 23.2 1.6 8.1
v 23.2 1.7 8.1
v 22.1 0.2 8
v 22.1 0.5 8
v 22.1 2.8 8
v 22.1 3.1 8
v 22.2 0.3 8
v 22.2 0.5 8
v 22.2 2.8 8
v 22.2 3 8
v 22.4 0.2 8
v 22.4 0.3 8
v 22.4 3 8
v 22.4 3.1 8
v 22.9 0.2 8
v 22.9 0.3 8
v 22.9 3 8
v 22.9 3.1 8
v 23 1.5 8
v 23 1.7 8
v 23.1 0.3 8
v 23.1 0.5 8
v 23.1 1.5 8
v 23.1 1.6 8
v 23.1 2.8 8
v 23.1 3 8
v 23.2 0.2 8
v 23.2 0.5 8
v 23.2 1.6 8
v 23.2 1.7 8
v 23.2 2.8 8
v 23.2 3.1 8
v 22.1 0.2 7.9
v 22.1 0.5 7.9
v 22.1 2.8 7.9
v 22.1 3.1 7.9
v 22.2 0.3 7.9
v 22.2 0.5 7.9
v 22.2 2.8 7.9
v 22.2 3 7.9
v 22.4 0.2 7.9
v 22.4 0.3 7.9
v 22.4 3 7.9
v 22.4 3.1 7.9
v 22.9 0.2 7.9
v 22.9 0.3 7.9
v 22.9 3 7.9
v 22.9 3.1 7.9
v 23.1 0.3 7.9
v 23.1 0.5 7.9
v 23.1 2.8 7.9
v 23.1 3 7.9
v 23.2 0.2 7.9
v 23.2 0.5 7.9
v 23.2 2.8 7.9
v 23.2 3.1 7.9
v 22.1 0.2 8
v 22.4 0.2 8
v 22.9 0.2 8
v 23.2 0.2 8
v 22.1 0.2 7.9
v 22.4 0.2 7.9
v 22.9 0.2 7.9
v 23.2 0.2 7.9
v 23 1.5 8.1
v 23.1 1.5 8.1
v 23 1.5 8
v 23.1 1.5 8
v 23.1 1.6 8.1
v 23.2 1.6 8.1
v 23.1 1.6 8
v 23.2 1.6 8
v 23 1.7 8.1
v 23.2 1.7 8.1
v 23 1.7 8
v 23.2 1.7 8
v 22.1 3.1 8
v 22.4 3.1 8
v 22.9 3.1 8
v 23.2 3.1 8
v 22.1 3.1 7.9
v 22.4 3.1 7.9
v 22.9 3.1 7.9
v 23.2 3.1 7.9

# faces
f 3/2/1 2/2/1 1/2/1
f 4/2/1 2/2/1 3/2/1
f 5/1/1 4/1/1 3/1/1
f 6/1/1 4/1/1 5/1/1
f 7/2/1 6/2/1 5/2/1
f 8/2/1 6/2/1 7/2/1
f 11/2/1 10/2/1 9/2/1
f 12/2/1 10/2/1 11/2/1
f 13/2/2 14/2/2 15/2/2
f 15/2/2 14/2/2 16/2/2
f 17/2/2 18/2/2 19/2/2
f 19/2/2 18/2/2 20/2/2
f 19/1/2 20/1/2 22/1/2
f 21/2/2 22/2/2 23/2/2
f 22/1/2 20/1/2 24/1/2
f 23/2/2 22/2/2 24/2/2
f 24/1/2 20/1/2 25/1/2
f 25/1/2 20/1/2 26/1/2
f 25/2/2 26/2/2 27/2/2
f 27/2/2 26/2/2 28/2/2
f 31/2/3 30/2/3 29/2/3
f 32/2/3 30/2/3 31/2/3
f 33/2/3 30/2/3 32/2/3
f 34/2/3 30/2/3 33/2/3
f 39/2/3 36/2/3 35/2/3
f 40/1/3 37/1/3 36/1/3
f 40/2/3 36/2/3 39/2/3
f 41/2/3 38/2/3 37/2/3
f 41/1/3 37/1/3 40/1/3
f 42/2/3 38/2/3 41/2/3
f 43/2/3 39/2/3 35/2/3
f 44/1/3 40/1/3 39/1/3
f 44/2/3 39/2/3 43/2/3
f 44/1/3 41/1/3 40/1/3
f 44/1/3 42/1/3 41/1/3
f 45/2/3 38/2/3 42/2/3
f 45/1/3 42/1/3 44/1/3
f 46/2/3 38/2/3 45/2/3
f 47/1/3 44/1/3 43/1/3
f 47/1/3 45/1/3 44/1/3
f 47/1/3 46/1/3 45/1/3
f 48/1/3 46/1/3 47/1/3
f 49/1/3 46/1/3 48/1/3
f 50/1/3 46/1/3 49/1/3
f 51/1/3 49/1/3 48/1/3
f 52/1/3 49/1/3 51/1/3
f 53/2/3 48/2/3 47/2/3
f 53/1/3 51/1/3 48/1/3
f 54/1/3 51/1/3 53/1/3
f 55/1/3 51/1/3 54/1/3
f 57/1/3 49/1/3 52/1/3
f 58/2/3 50/2/3 49/2/3
f 58/1/3 49/1/3 57/1/3
f 59/2/3 53/2/3 47/2/3
f 59/2/3 54/2/3 53/2/3
f 60/1/3 56/1/3 55/1/3
f 60/2/3 54/2/3 59/2/3
f 60/1/3 55/1/3 54/1/3
f 61/1/3 56/1/3 60/1/3
f 62/1/3 57/1/3 52/1/3
f 63/2/3 58/2/3 57/2/3
f 63/1/3 57/1/3 62/1/3
f 64/2/3 50/2/3 58/2/3
f 64/2/3 58/2/3 63/2/3
f 65/2/4 66/2/4 69/2/4
f 66/1/4 67/1/4 70/1/4
f 69/2/4 66/2/4 70/2/4
f 67/2/4 68/2/4 71/2/4
f 70/1/4 67/1/4 71/1/4
f 71/2/4 68/2/4 72/2/4
f 65/2/4 69/2/4 73/2/4
f 69/1/4 70/1/4 74/1/4
f 73/2/4 69/2/4 74/2/4
f 70/1/4 71/1/4 74/1/4
f 71/1/4 72/1/4 74/1/4
f 72/2/4 68/2/4 75/2/4
f 74/1/4 72/1/4 75/1/4
f 75/2/4 68/2/4 76/2/4
f 73/1/4 74/1/4 77/1/4
f 74/1/4 75/1/4 77/1/4
f 75/1/4 76/1/4 77/1/4
f 77/1/4 76/1/4 78/1/4
f 78/1/4 76/1/4 79/1/4
f 79/1/4 76/1/4 80/1/4
f 77/2/4 78/2/4 81/2/4
f 78/1/4 79/1/4 81/1/4
f 81/1/4 79/1/4 82/1/4
f 82/1/4 79/1/4 83/1/4
f 79/2/4 80/2/4 84/2/4
f 83/1/4 79/1/4 84/1/4
f 77/2/4 81/2/4 85/2/4
f 81/2/4 82/2/4 85/2/4
f 82/1/4 83/1/4 86/1/4
f 85/2/4 82/2/4 86/2/4
f 83/2/4 84/2/4 87/2/4
f 86/1/4 83/1/4 87/1/4
f 84/2/4 80/2/4 88/2/4
f 87/2/4 84/2/4 88/2/4
f 93/2/5 90/2/5 89/2/5
f 94/1/5 91/1/5 90/1/5
f 94/2/5 90/2/5 93/2/5
f 95/2/5 92/2/5 91/2/5
f 95/1/5 91/1/5 94/1/5
f 96/2/5 92/2/5 95/2/5
f 99/2/5 98/2/5 97/2/5
f 100/2/5 98/2/5 99/2/5
f 103/2/5 102/2/5 101/2/5
f 104/2/5 102/2/5 103/2/5
f 105/2/6 106/2/6 107/2/6
f 107/2/6 106/2/6 108/2/6
f 109/2/6 110/2/6 113/2/6
f 110/1/6 111/1/6 114/1/6
f 113/2/6 110/2/6 114/2/6
f 111/2/6 112/2/6 115/2/6
f 114/1/6 111/1/6 115/1/6
f 115/2/6 112/2/6 116/2/6
