# MagicaVoxel @ Ephtracy

# group
o 

# material
mtllib Swords-1.mtl
usemtl palette

# normals
vn -1 0 0
vn 1 0 0
vn 0 0 1
vn 0 0 -1
vn 0 -1 0
vn 0 1 0

# texcoords
vt 0.951172 0.5
vt 0.955078 0.5
vt 0.958984 0.5
vt 0.962891 0.5
vt 0.966797 0.5

# verts
v 3.1 4.6 0.4
v 3.1 4.6 0.3
v 3.1 4.6 0.2
v 3.1 4.7 0.4
v 3.1 4.7 0.3
v 3.1 4.7 0.2
v 3.3 3.8 0.4
v 3.3 3.8 0.2
v 3.3 3.9 0.4
v 3.3 3.9 0.3
v 3.3 4 0.4
v 3.3 4 0.3
v 3.3 4 0.2
v 3.3 4.7 0.3
v 3.3 4.7 0.2
v 3.3 4.8 0.3
v 3.3 4.8 0.2
v 3.3 5 0.3
v 3.3 5 0.2
v 3.3 5.6 0.3
v 3.3 5.6 0.2
v 3.3 5.8 0.3
v 3.3 5.8 0.2
v 3.3 6.4 0.3
v 3.3 6.4 0.2
v 3.3 6.6 0.3
v 3.3 6.6 0.2
v 3.3 7 0.3
v 3.3 7 0.2
v 3.4 3.8 0.5
v 3.4 3.8 0.4
v 3.4 3.8 0.2
v 3.4 3.8 0.1
v 3.4 3.9 0.5
v 3.4 3.9 0.4
v 3.4 4 0.5
v 3.4 4 0.4
v 3.4 4 0.3
v 3.4 4 0.2
v 3.4 4 0.1
v 3.4 4.1 0.4
v 3.4 4.1 0.3
v 3.4 4.2 0.4
v 3.4 4.2 0.3
v 3.4 4.2 0.2
v 3.4 4.3 0.4
v 3.4 4.3 0.3
v 3.4 4.3 0.2
v 3.4 4.4 0.4
v 3.4 4.4 0.2
v 3.4 4.5 0.4
v 3.4 4.5 0.3
v 3.4 4.5 0.2
v 3.4 4.6 0.4
v 3.4 4.6 0.3
v 3.4 4.6 0.2
v 3.4 4.7 0.4
v 3.4 4.7 0.3
v 3.4 4.8 0.3
v 3.4 5 0.3
v 3.4 5.2 0.4
v 3.4 5.2 0.3
v 3.4 5.4 0.4
v 3.4 5.4 0.3
v 3.4 5.6 0.3
v 3.4 5.8 0.4
v 3.4 5.8 0.3
v 3.4 6 0.4
v 3.4 6 0.3
v 3.4 6.3 0.4
v 3.4 6.3 0.3
v 3.4 6.4 0.3
v 3.4 6.5 0.4
v 3.4 6.5 0.3
v 3.4 6.6 0.3
v 3.4 6.9 0.4
v 3.4 6.9 0.3
v 3.4 7 0.3
v 3.4 7 0.2
v 3.4 7.1 0.3
v 3.4 7.1 0.2
v 3.5 6.9 0.4
v 3.5 6.9 0.3
v 3.5 7 0.4
v 3.5 7 0.3
v 3.6 3.8 0.5
v 3.6 3.8 0.4
v 3.6 3.8 0.2
v 3.6 3.8 0.1
v 3.6 3.9 0.2
v 3.6 3.9 0.1
v 3.6 4 0.5
v 3.6 4 0.4
v 3.6 4 0.3
v 3.6 4 0.2
v 3.6 4 0.1
v 3.6 4.1 0.4
v 3.6 4.1 0.3
v 3.6 4.1 0.2
v 3.6 4.2 0.4
v 3.6 4.2 0.3
v 3.6 4.3 0.4
v 3.6 4.3 0.3
v 3.6 4.3 0.2
v 3.6 4.4 0.4
v 3.6 4.4 0.3
v 3.6 4.4 0.2
v 3.6 4.5 0.4
v 3.6 4.5 0.3
v 3.6 4.6 0.4
v 3.6 4.6 0.3
v 3.6 4.6 0.2
v 3.6 4.7 0.4
v 3.6 4.7 0.3
v 3.6 4.8 0.4
v 3.6 4.8 0.3
v 3.6 4.9 0.4
v 3.6 4.9 0.3
v 3.6 5.1 0.4
v 3.6 5.1 0.3
v 3.6 5.2 0.3
v 3.6 5.4 0.4
v 3.6 5.4 0.3
v 3.6 5.6 0.4
v 3.6 5.6 0.3
v 3.6 5.9 0.3
v 3.6 6.2 0.4
v 3.6 6.2 0.3
v 3.6 6.4 0.4
v 3.6 6.4 0.3
v 3.6 6.5 0.3
v 3.6 6.6 0.4
v 3.6 6.6 0.3
v 3.6 6.7 0.3
v 3.6 6.8 0.4
v 3.6 6.8 0.3
v 3.6 7 0.4
v 3.6 7 0.3
v 3.6 7 0.2
v 3.6 7.1 0.3
v 3.6 7.1 0.2
v 3.7 3.8 0.4
v 3.7 3.8 0.2
v 3.7 3.9 0.3
v 3.7 3.9 0.2
v 3.7 4 0.4
v 3.7 4 0.3
v 3.7 4 0.2
v 3.7 4.7 0.3
v 3.7 4.7 0.2
v 3.7 5.1 0.3
v 3.7 5.1 0.2
v 3.7 5.2 0.3
v 3.7 5.2 0.2
v 3.7 5.6 0.3
v 3.7 5.6 0.2
v 3.7 5.9 0.3
v 3.7 5.9 0.2
v 3.7 6.2 0.3
v 3.7 6.2 0.2
v 3.7 6.5 0.3
v 3.7 6.5 0.2
v 3.7 6.7 0.3
v 3.7 6.7 0.2
v 3.7 7 0.3
v 3.7 7 0.2
v 3.9 4.6 0.4
v 3.9 4.6 0.2
v 3.9 4.7 0.4
v 3.9 4.7 0.2
v 3.4 3.8 0.5
v 3.4 3.9 0.5
v 3.4 4 0.5
v 3.5 3.9 0.5
v 3.5 4 0.5
v 3.6 3.8 0.5
v 3.6 4 0.5
v 3.1 4.6 0.4
v 3.1 4.7 0.4
v 3.3 3.8 0.4
v 3.3 3.9 0.4
v 3.3 4 0.4
v 3.3 4.6 0.4
v 3.3 4.7 0.4
v 3.4 3.8 0.4
v 3.4 3.9 0.4
v 3.4 4 0.4
v 3.4 4.1 0.4
v 3.4 4.2 0.4
v 3.4 4.3 0.4
v 3.4 4.4 0.4
v 3.4 4.5 0.4
v 3.4 4.6 0.4
v 3.4 4.7 0.4
v 3.4 5.2 0.4
v 3.4 5.4 0.4
v 3.4 5.8 0.4
v 3.4 6 0.4
v 3.4 6.3 0.4
v 3.4 6.5 0.4
v 3.4 6.9 0.4
v 3.5 4 0.4
v 3.5 4.1 0.4
v 3.5 4.2 0.4
v 3.5 4.3 0.4
v 3.5 4.4 0.4
v 3.5 4.5 0.4
v 3.5 4.6 0.4
v 3.5 4.7 0.4
v 3.5 4.8 0.4
v 3.5 4.9 0.4
v 3.5 5.1 0.4
v 3.5 5.2 0.4
v 3.5 5.6 0.4
v 3.5 5.8 0.4
v 3.5 6 0.4
v 3.5 6.2 0.4
v 3.5 6.3 0.4
v 3.5 6.4 0.4
v 3.5 6.5 0.4
v 3.5 6.6 0.4
v 3.5 6.8 0.4
v 3.5 6.9 0.4
v 3.5 7 0.4
v 3.6 3.8 0.4
v 3.6 4 0.4
v 3.6 4.1 0.4
v 3.6 4.2 0.4
v 3.6 4.3 0.4
v 3.6 4.4 0.4
v 3.6 4.5 0.4
v 3.6 4.6 0.4
v 3.6 4.7 0.4
v 3.6 4.8 0.4
v 3.6 4.9 0.4
v 3.6 5.1 0.4
v 3.6 5.4 0.4
v 3.6 5.6 0.4
v 3.6 6.2 0.4
v 3.6 6.4 0.4
v 3.6 6.6 0.4
v 3.6 6.8 0.4
v 3.6 7 0.4
v 3.7 3.8 0.4
v 3.7 4 0.4
v 3.7 4.6 0.4
v 3.7 4.7 0.4
v 3.8 4.6 0.4
v 3.8 4.7 0.4
v 3.9 4.6 0.4
v 3.9 4.7 0.4
v 3.3 4.7 0.3
v 3.3 4.8 0.3
v 3.3 5 0.3
v 3.3 5.6 0.3
v 3.3 5.8 0.3
v 3.3 6.4 0.3
v 3.3 6.6 0.3
v 3.3 7 0.3
v 3.4 4.7 0.3
v 3.4 4.8 0.3
v 3.4 5 0.3
v 3.4 5.2 0.3
v 3.4 5.4 0.3
v 3.4 5.6 0.3
v 3.4 5.8 0.3
v 3.4 6 0.3
v 3.4 6.3 0.3
v 3.4 6.4 0.3
v 3.4 6.5 0.3
v 3.4 6.6 0.3
v 3.4 6.9 0.3
v 3.4 7 0.3
v 3.4 7.1 0.3
v 3.5 6.9 0.3
v 3.5 7 0.3
v 3.6 4.7 0.3
v 3.6 4.8 0.3
v 3.6 4.9 0.3
v 3.6 5.1 0.3
v 3.6 5.2 0.3
v 3.6 5.4 0.3
v 3.6 5.6 0.3
v 3.6 5.9 0.3
v 3.6 6.2 0.3
v 3.6 6.4 0.3
v 3.6 6.5 0.3
v 3.6 6.6 0.3
v 3.6 6.7 0.3
v 3.6 6.8 0.3
v 3.6 7 0.3
v 3.6 7.1 0.3
v 3.7 4.7 0.3
v 3.7 5.1 0.3
v 3.7 5.2 0.3
v 3.7 5.6 0.3
v 3.7 5.9 0.3
v 3.7 6.2 0.3
v 3.7 6.5 0.3
v 3.7 6.7 0.3
v 3.7 7 0.3
v 3.1 4.6 0.2
v 3.1 4.7 0.2
v 3.2 4.6 0.2
v 3.2 4.7 0.2
v 3.3 3.8 0.2
v 3.3 4 0.2
v 3.3 4.6 0.2
v 3.3 4.7 0.2
v 3.3 4.8 0.2
v 3.3 5 0.2
v 3.3 5.6 0.2
v 3.3 5.8 0.2
v 3.3 6.4 0.2
v 3.3 6.6 0.2
v 3.3 7 0.2
v 3.4 3.8 0.2
v 3.4 4 0.2
v 3.4 4.2 0.2
v 3.4 4.3 0.2
v 3.4 4.4 0.2
v 3.4 4.5 0.2
v 3.4 4.6 0.2
v 3.4 4.7 0.2
v 3.4 4.8 0.2
v 3.4 5 0.2
v 3.4 5.2 0.2
v 3.4 5.4 0.2
v 3.4 5.6 0.2
v 3.4 5.8 0.2
v 3.4 6 0.2
v 3.4 6.3 0.2
v 3.4 6.4 0.2
v 3.4 6.5 0.2
v 3.4 6.6 0.2
v 3.4 6.9 0.2
v 3.4 7 0.2
v 3.4 7.1 0.2
v 3.5 4 0.2
v 3.5 4.1 0.2
v 3.5 4.2 0.2
v 3.5 4.3 0.2
v 3.5 4.4 0.2
v 3.5 4.5 0.2
v 3.5 4.6 0.2
v 3.5 4.8 0.2
v 3.5 4.9 0.2
v 3.5 5.1 0.2
v 3.5 5.2 0.2
v 3.5 5.6 0.2
v 3.5 5.8 0.2
v 3.5 6 0.2
v 3.5 6.2 0.2
v 3.5 6.3 0.2
v 3.5 6.4 0.2
v 3.5 6.5 0.2
v 3.5 6.6 0.2
v 3.5 6.8 0.2
v 3.5 6.9 0.2
v 3.6 3.8 0.2
v 3.6 3.9 0.2
v 3.6 4 0.2
v 3.6 4.1 0.2
v 3.6 4.3 0.2
v 3.6 4.4 0.2
v 3.6 4.6 0.2
v 3.6 4.7 0.2
v 3.6 4.8 0.2
v 3.6 4.9 0.2
v 3.6 5.1 0.2
v 3.6 5.2 0.2
v 3.6 5.4 0.2
v 3.6 5.6 0.2
v 3.6 5.9 0.2
v 3.6 6.4 0.2
v 3.6 6.5 0.2
v 3.6 6.6 0.2
v 3.6 6.7 0.2
v 3.6 6.8 0.2
v 3.6 7 0.2
v 3.6 7.1 0.2
v 3.7 3.8 0.2
v 3.7 3.9 0.2
v 3.7 4 0.2
v 3.7 4.6 0.2
v 3.7 4.7 0.2
v 3.7 5.1 0.2
v 3.7 5.2 0.2
v 3.7 5.6 0.2
v 3.7 5.9 0.2
v 3.7 6.2 0.2
v 3.7 6.5 0.2
v 3.7 6.7 0.2
v 3.7 7 0.2
v 3.9 4.6 0.2
v 3.9 4.7 0.2
v 3.4 3.8 0.1
v 3.4 4 0.1
v 3.5 3.9 0.1
v 3.5 4 0.1
v 3.6 3.8 0.1
v 3.6 3.9 0.1
v 3.6 4 0.1
v 3.4 3.8 0.5
v 3.6 3.8 0.5
v 3.3 3.8 0.4
v 3.4 3.8 0.4
v 3.5 3.8 0.4
v 3.6 3.8 0.4
v 3.7 3.8 0.4
v 3.5 3.8 0.3
v 3.6 3.8 0.3
v 3.3 3.8 0.2
v 3.4 3.8 0.2
v 3.6 3.8 0.2
v 3.7 3.8 0.2
v 3.4 3.8 0.1
v 3.6 3.8 0.1
v 3.1 4.6 0.4
v 3.3 4.6 0.4
v 3.4 4.6 0.4
v 3.6 4.6 0.4
v 3.7 4.6 0.4
v 3.8 4.6 0.4
v 3.9 4.6 0.4
v 3.1 4.6 0.3
v 3.2 4.6 0.3
v 3.4 4.6 0.3
v 3.6 4.6 0.3
v 3.7 4.6 0.3
v 3.8 4.6 0.3
v 3.1 4.6 0.2
v 3.2 4.6 0.2
v 3.3 4.6 0.2
v 3.4 4.6 0.2
v 3.6 4.6 0.2
v 3.7 4.6 0.2
v 3.9 4.6 0.2
v 3.4 4 0.5
v 3.5 4 0.5
v 3.6 4 0.5
v 3.3 4 0.4
v 3.4 4 0.4
v 3.5 4 0.4
v 3.6 4 0.4
v 3.7 4 0.4
v 3.3 4 0.3
v 3.4 4 0.3
v 3.6 4 0.3
v 3.7 4 0.3
v 3.3 4 0.2
v 3.4 4 0.2
v 3.5 4 0.2
v 3.6 4 0.2
v 3.7 4 0.2
v 3.4 4 0.1
v 3.5 4 0.1
v 3.6 4 0.1
v 3.1 4.7 0.4
v 3.3 4.7 0.4
v 3.4 4.7 0.4
v 3.6 4.7 0.4
v 3.7 4.7 0.4
v 3.8 4.7 0.4
v 3.9 4.7 0.4
v 3.1 4.7 0.3
v 3.2 4.7 0.3
v 3.3 4.7 0.3
v 3.4 4.7 0.3
v 3.6 4.7 0.3
v 3.7 4.7 0.3
v 3.8 4.7 0.3
v 3.1 4.7 0.2
v 3.2 4.7 0.2
v 3.3 4.7 0.2
v 3.7 4.7 0.2
v 3.9 4.7 0.2
v 3.4 6.9 0.4
v 3.5 6.9 0.4
v 3.4 6.9 0.3
v 3.5 6.9 0.3
v 3.5 7 0.4
v 3.6 7 0.4
v 3.3 7 0.3
v 3.4 7 0.3
v 3.5 7 0.3
v 3.6 7 0.3
v 3.7 7 0.3
v 3.3 7 0.2
v 3.4 7 0.2
v 3.6 7 0.2
v 3.7 7 0.2
v 3.4 7.1 0.3
v 3.6 7.1 0.3
v 3.4 7.1 0.2
v 3.6 7.1 0.2

# faces
f 4/5/1 2/5/1 1/5/1
f 5/4/1 3/4/1 2/4/1
f 5/5/1 2/5/1 4/5/1
f 6/4/1 3/4/1 5/4/1
f 9/5/1 8/5/1 7/5/1
f 10/5/1 8/5/1 9/5/1
f 11/4/1 10/4/1 9/4/1
f 12/5/1 8/5/1 10/5/1
f 12/4/1 10/4/1 11/4/1
f 13/5/1 8/5/1 12/5/1
f 16/2/1 15/2/1 14/2/1
f 17/2/1 15/2/1 16/2/1
f 18/1/1 17/1/1 16/1/1
f 19/1/1 17/1/1 18/1/1
f 20/2/1 19/2/1 18/2/1
f 21/2/1 19/2/1 20/2/1
f 22/1/1 21/1/1 20/1/1
f 23/1/1 21/1/1 22/1/1
f 24/2/1 23/2/1 22/2/1
f 25/2/1 23/2/1 24/2/1
f 26/1/1 25/1/1 24/1/1
f 27/1/1 25/1/1 26/1/1
f 28/2/1 27/2/1 26/2/1
f 29/2/1 27/2/1 28/2/1
f 34/5/1 31/5/1 30/5/1
f 35/5/1 31/5/1 34/5/1
f 36/4/1 35/4/1 34/4/1
f 37/4/1 35/4/1 36/4/1
f 39/5/1 33/5/1 32/5/1
f 40/5/1 33/5/1 39/5/1
f 41/3/1 38/3/1 37/3/1
f 41/3/1 39/3/1 38/3/1
f 42/3/1 39/3/1 41/3/1
f 43/2/1 42/2/1 41/2/1
f 44/3/1 39/3/1 42/3/1
f 44/2/1 42/2/1 43/2/1
f 45/3/1 39/3/1 44/3/1
f 46/3/1 44/3/1 43/3/1
f 47/2/1 45/2/1 44/2/1
f 47/3/1 44/3/1 46/3/1
f 48/2/1 45/2/1 47/2/1
f 49/1/1 47/1/1 46/1/1
f 49/1/1 48/1/1 47/1/1
f 50/1/1 48/1/1 49/1/1
f 51/2/1 50/2/1 49/2/1
f 52/2/1 50/2/1 51/2/1
f 53/2/1 50/2/1 52/2/1
f 54/3/1 52/3/1 51/3/1
f 55/1/1 53/1/1 52/1/1
f 55/3/1 52/3/1 54/3/1
f 56/1/1 53/1/1 55/1/1
f 59/3/1 58/3/1 57/3/1
f 60/3/1 59/3/1 57/3/1
f 61/3/1 60/3/1 57/3/1
f 62/3/1 60/3/1 61/3/1
f 63/1/1 62/1/1 61/1/1
f 64/1/1 62/1/1 63/1/1
f 65/3/1 64/3/1 63/3/1
f 66/3/1 65/3/1 63/3/1
f 67/3/1 65/3/1 66/3/1
f 68/1/1 67/1/1 66/1/1
f 69/1/1 67/1/1 68/1/1
f 70/3/1 69/3/1 68/3/1
f 71/3/1 69/3/1 70/3/1
f 72/1/1 71/1/1 70/1/1
f 73/1/1 72/1/1 70/1/1
f 74/1/1 72/1/1 73/1/1
f 75/3/1 74/3/1 73/3/1
f 76/3/1 75/3/1 73/3/1
f 77/3/1 75/3/1 76/3/1
f 80/1/1 79/1/1 78/1/1
f 81/1/1 79/1/1 80/1/1
f 84/1/1 83/1/1 82/1/1
f 85/1/1 83/1/1 84/1/1
f 88/5/2 89/5/2 90/5/2
f 90/5/2 89/5/2 91/5/2
f 86/5/2 87/5/2 92/5/2
f 92/5/2 87/5/2 93/5/2
f 90/4/2 91/4/2 95/4/2
f 95/4/2 91/4/2 96/4/2
f 93/3/2 94/3/2 97/3/2
f 94/1/2 95/1/2 98/1/2
f 97/3/2 94/3/2 98/3/2
f 98/1/2 95/1/2 99/1/2
f 97/1/2 98/1/2 100/1/2
f 98/3/2 99/3/2 101/3/2
f 100/1/2 98/1/2 101/1/2
f 100/2/2 101/2/2 102/2/2
f 101/3/2 99/3/2 103/3/2
f 102/2/2 101/2/2 103/2/2
f 103/3/2 99/3/2 104/3/2
f 102/3/2 103/3/2 105/3/2
f 103/2/2 104/2/2 106/2/2
f 105/3/2 103/3/2 106/3/2
f 106/2/2 104/2/2 107/2/2
f 105/1/2 106/1/2 108/1/2
f 106/3/2 107/3/2 109/3/2
f 108/1/2 106/1/2 109/1/2
f 108/2/2 109/2/2 110/2/2
f 109/3/2 107/3/2 111/3/2
f 110/2/2 109/2/2 111/2/2
f 111/3/2 107/3/2 112/3/2
f 113/3/2 114/3/2 115/3/2
f 115/3/2 114/3/2 116/3/2
f 115/1/2 116/1/2 117/1/2
f 117/1/2 116/1/2 118/1/2
f 117/3/2 118/3/2 119/3/2
f 119/3/2 118/3/2 120/3/2
f 119/1/2 120/1/2 121/1/2
f 119/1/2 121/1/2 122/1/2
f 122/1/2 121/1/2 123/1/2
f 122/3/2 123/3/2 124/3/2
f 124/3/2 123/3/2 125/3/2
f 124/1/2 125/1/2 126/1/2
f 124/1/2 126/1/2 127/1/2
f 127/1/2 126/1/2 128/1/2
f 127/3/2 128/3/2 129/3/2
f 129/3/2 128/3/2 130/3/2
f 129/1/2 130/1/2 131/1/2
f 129/1/2 131/1/2 132/1/2
f 132/1/2 131/1/2 133/1/2
f 132/3/2 133/3/2 134/3/2
f 132/3/2 134/3/2 135/3/2
f 135/3/2 134/3/2 136/3/2
f 135/1/2 136/1/2 137/1/2
f 137/1/2 136/1/2 138/1/2
f 138/1/2 139/1/2 140/1/2
f 140/1/2 139/1/2 141/1/2
f 142/5/2 143/5/2 144/5/2
f 144/5/2 143/5/2 145/5/2
f 142/5/2 144/5/2 146/5/2
f 144/4/2 145/4/2 147/4/2
f 146/5/2 144/5/2 147/5/2
f 147/4/2 145/4/2 148/4/2
f 149/1/2 150/1/2 151/1/2
f 151/1/2 150/1/2 152/1/2
f 151/3/2 152/3/2 153/3/2
f 153/3/2 152/3/2 154/3/2
f 153/1/2 154/1/2 155/1/2
f 155/1/2 154/1/2 156/1/2
f 155/3/2 156/3/2 157/3/2
f 157/3/2 156/3/2 158/3/2
f 157/1/2 158/1/2 159/1/2
f 159/1/2 158/1/2 160/1/2
f 159/3/2 160/3/2 161/3/2
f 161/3/2 160/3/2 162/3/2
f 161/1/2 162/1/2 163/1/2
f 163/1/2 162/1/2 164/1/2
f 163/3/2 164/3/2 165/3/2
f 165/3/2 164/3/2 166/3/2
f 167/5/2 168/5/2 169/5/2
f 169/5/2 168/5/2 170/5/2
f 174/5/3 172/5/3 171/5/3
f 174/4/3 173/4/3 172/4/3
f 175/4/3 173/4/3 174/4/3
f 176/5/3 174/5/3 171/5/3
f 176/5/3 175/5/3 174/5/3
f 177/5/3 175/5/3 176/5/3
f 183/5/3 179/5/3 178/5/3
f 184/5/3 179/5/3 183/5/3
f 185/5/3 181/5/3 180/5/3
f 186/4/3 182/4/3 181/4/3
f 186/5/3 181/5/3 185/5/3
f 187/4/3 182/4/3 186/4/3
f 193/4/3 184/4/3 183/4/3
f 194/4/3 184/4/3 193/4/3
f 202/3/3 188/3/3 187/3/3
f 203/2/3 189/2/3 188/2/3
f 203/3/3 188/3/3 202/3/3
f 204/3/3 190/3/3 189/3/3
f 204/2/3 189/2/3 203/2/3
f 205/1/3 191/1/3 190/1/3
f 205/3/3 190/3/3 204/3/3
f 206/2/3 192/2/3 191/2/3
f 206/1/3 191/1/3 205/1/3
f 207/3/3 193/3/3 192/3/3
f 207/2/3 192/2/3 206/2/3
f 208/4/3 194/4/3 193/4/3
f 208/3/3 193/3/3 207/3/3
f 209/3/3 195/3/3 194/3/3
f 209/4/3 194/4/3 208/4/3
f 210/3/3 195/3/3 209/3/3
f 211/3/3 195/3/3 210/3/3
f 212/3/3 195/3/3 211/3/3
f 213/1/3 196/1/3 195/1/3
f 213/3/3 195/3/3 212/3/3
f 214/3/3 197/3/3 196/3/3
f 215/1/3 198/1/3 197/1/3
f 215/3/3 197/3/3 214/3/3
f 216/3/3 199/3/3 198/3/3
f 216/1/3 198/1/3 215/1/3
f 217/3/3 199/3/3 216/3/3
f 218/1/3 200/1/3 199/1/3
f 218/3/3 199/3/3 217/3/3
f 219/1/3 200/1/3 218/1/3
f 220/3/3 201/3/3 200/3/3
f 220/1/3 200/1/3 219/1/3
f 221/3/3 201/3/3 220/3/3
f 222/3/3 201/3/3 221/3/3
f 223/3/3 201/3/3 222/3/3
f 226/3/3 203/3/3 202/3/3
f 227/1/3 204/1/3 203/1/3
f 227/3/3 203/3/3 226/3/3
f 228/2/3 205/2/3 204/2/3
f 228/1/3 204/1/3 227/1/3
f 229/3/3 206/3/3 205/3/3
f 229/2/3 205/2/3 228/2/3
f 230/1/3 207/1/3 206/1/3
f 230/3/3 206/3/3 229/3/3
f 231/2/3 208/2/3 207/2/3
f 231/1/3 207/1/3 230/1/3
f 232/5/3 209/5/3 208/5/3
f 232/2/3 208/2/3 231/2/3
f 233/3/3 210/3/3 209/3/3
f 233/5/3 209/5/3 232/5/3
f 234/1/3 211/1/3 210/1/3
f 234/3/3 210/3/3 233/3/3
f 235/3/3 212/3/3 211/3/3
f 235/1/3 211/1/3 234/1/3
f 236/1/3 213/1/3 212/1/3
f 236/3/3 212/3/3 235/3/3
f 237/1/3 196/1/3 213/1/3
f 237/1/3 213/1/3 236/1/3
f 237/3/3 214/3/3 196/3/3
f 238/1/3 217/1/3 216/1/3
f 238/3/3 214/3/3 237/3/3
f 238/1/3 215/1/3 214/1/3
f 238/1/3 216/1/3 215/1/3
f 239/3/3 219/3/3 218/3/3
f 239/1/3 217/1/3 238/1/3
f 239/3/3 218/3/3 217/3/3
f 240/1/3 221/1/3 220/1/3
f 240/3/3 219/3/3 239/3/3
f 240/1/3 220/1/3 219/1/3
f 241/3/3 222/3/3 221/3/3
f 241/1/3 221/1/3 240/1/3
f 242/1/3 223/1/3 222/1/3
f 242/3/3 222/3/3 241/3/3
f 242/1/3 224/1/3 223/1/3
f 243/1/3 224/1/3 242/1/3
f 244/5/3 226/5/3 225/5/3
f 245/5/3 226/5/3 244/5/3
f 246/5/3 233/5/3 232/5/3
f 247/5/3 233/5/3 246/5/3
f 248/4/3 247/4/3 246/4/3
f 249/4/3 247/4/3 248/4/3
f 250/5/3 249/5/3 248/5/3
f 251/5/3 249/5/3 250/5/3
f 260/2/3 253/2/3 252/2/3
f 261/1/3 254/1/3 253/1/3
f 261/2/3 253/2/3 260/2/3
f 262/2/3 255/2/3 254/2/3
f 262/1/3 254/1/3 261/1/3
f 263/2/3 255/2/3 262/2/3
f 264/2/3 255/2/3 263/2/3
f 265/1/3 256/1/3 255/1/3
f 265/2/3 255/2/3 264/2/3
f 266/2/3 257/2/3 256/2/3
f 266/1/3 256/1/3 265/1/3
f 267/2/3 257/2/3 266/2/3
f 268/2/3 257/2/3 267/2/3
f 269/1/3 258/1/3 257/1/3
f 269/2/3 257/2/3 268/2/3
f 270/1/3 258/1/3 269/1/3
f 271/2/3 259/2/3 258/2/3
f 271/1/3 258/1/3 270/1/3
f 272/2/3 259/2/3 271/2/3
f 273/2/3 259/2/3 272/2/3
f 275/1/3 274/1/3 273/1/3
f 275/1/3 273/1/3 272/1/3
f 276/1/3 274/1/3 275/1/3
f 291/1/3 274/1/3 276/1/3
f 292/1/3 274/1/3 291/1/3
f 293/1/3 278/1/3 277/1/3
f 293/1/3 279/1/3 278/1/3
f 293/1/3 280/1/3 279/1/3
f 294/3/3 281/3/3 280/3/3
f 294/1/3 280/1/3 293/1/3
f 295/1/3 282/1/3 281/1/3
f 295/3/3 281/3/3 294/3/3
f 295/1/3 283/1/3 282/1/3
f 296/3/3 284/3/3 283/3/3
f 296/1/3 283/1/3 295/1/3
f 297/1/3 285/1/3 284/1/3
f 297/3/3 284/3/3 296/3/3
f 298/3/3 286/3/3 285/3/3
f 298/1/3 285/1/3 297/1/3
f 298/3/3 287/3/3 286/3/3
f 299/1/3 289/1/3 288/1/3
f 299/3/3 287/3/3 298/3/3
f 299/1/3 288/1/3 287/1/3
f 300/3/3 290/3/3 289/3/3
f 300/1/3 289/1/3 299/1/3
f 300/3/3 291/3/3 290/3/3
f 301/3/3 291/3/3 300/3/3
f 302/4/4 303/4/4 304/4/4
f 304/4/4 303/4/4 305/4/4
f 304/5/4 305/5/4 308/5/4
f 308/5/4 305/5/4 309/5/4
f 306/5/4 307/5/4 317/5/4
f 317/5/4 307/5/4 318/5/4
f 308/4/4 309/4/4 323/4/4
f 309/2/4 310/2/4 324/2/4
f 323/4/4 309/4/4 324/4/4
f 310/1/4 311/1/4 325/1/4
f 324/2/4 310/2/4 325/2/4
f 311/2/4 312/2/4 326/2/4
f 325/1/4 311/1/4 326/1/4
f 326/2/4 312/2/4 327/2/4
f 327/2/4 312/2/4 328/2/4
f 312/1/4 313/1/4 329/1/4
f 328/2/4 312/2/4 329/2/4
f 313/2/4 314/2/4 330/2/4
f 329/1/4 313/1/4 330/1/4
f 330/2/4 314/2/4 331/2/4
f 331/2/4 314/2/4 332/2/4
f 314/1/4 315/1/4 333/1/4
f 332/2/4 314/2/4 333/2/4
f 333/1/4 315/1/4 334/1/4
f 315/2/4 316/2/4 335/2/4
f 334/1/4 315/1/4 335/1/4
f 335/2/4 316/2/4 336/2/4
f 336/2/4 316/2/4 337/2/4
f 318/3/4 319/3/4 339/3/4
f 339/3/4 319/3/4 340/3/4
f 319/2/4 320/2/4 341/2/4
f 340/3/4 319/3/4 341/3/4
f 320/1/4 321/1/4 342/1/4
f 341/2/4 320/2/4 342/2/4
f 321/2/4 322/2/4 343/2/4
f 342/1/4 321/1/4 343/1/4
f 322/1/4 323/1/4 344/1/4
f 343/2/4 322/2/4 344/2/4
f 323/4/4 324/4/4 345/4/4
f 344/1/4 323/1/4 345/1/4
f 324/3/4 325/3/4 346/3/4
f 325/3/4 326/3/4 346/3/4
f 326/3/4 327/3/4 346/3/4
f 346/3/4 327/3/4 347/3/4
f 347/3/4 327/3/4 348/3/4
f 327/1/4 328/1/4 349/1/4
f 348/3/4 327/3/4 349/3/4
f 328/3/4 329/3/4 350/3/4
f 329/3/4 330/3/4 350/3/4
f 330/1/4 331/1/4 351/1/4
f 350/3/4 330/3/4 351/3/4
f 331/3/4 332/3/4 352/3/4
f 351/1/4 331/1/4 352/1/4
f 352/3/4 332/3/4 353/3/4
f 333/1/4 334/1/4 354/1/4
f 353/3/4 332/3/4 354/3/4
f 332/1/4 333/1/4 354/1/4
f 354/1/4 334/1/4 355/1/4
f 334/3/4 335/3/4 356/3/4
f 355/1/4 334/1/4 356/1/4
f 335/3/4 336/3/4 356/3/4
f 356/3/4 336/3/4 357/3/4
f 357/3/4 336/3/4 358/3/4
f 337/1/4 338/1/4 359/1/4
f 358/3/4 336/3/4 359/3/4
f 336/1/4 337/1/4 359/1/4
f 339/1/4 340/1/4 362/1/4
f 341/3/4 342/3/4 363/3/4
f 340/3/4 341/3/4 363/3/4
f 362/1/4 340/1/4 363/1/4
f 342/2/4 343/2/4 364/2/4
f 363/3/4 342/3/4 364/3/4
f 343/3/4 344/3/4 365/3/4
f 364/2/4 343/2/4 365/2/4
f 344/3/4 345/3/4 365/3/4
f 345/4/4 324/4/4 366/4/4
f 365/3/4 345/3/4 366/3/4
f 324/3/4 346/3/4 367/3/4
f 366/4/4 324/4/4 367/4/4
f 346/1/4 347/1/4 368/1/4
f 367/3/4 346/3/4 368/3/4
f 347/3/4 348/3/4 369/3/4
f 368/1/4 347/1/4 369/1/4
f 348/1/4 349/1/4 370/1/4
f 369/3/4 348/3/4 370/3/4
f 349/1/4 328/1/4 371/1/4
f 370/1/4 349/1/4 371/1/4
f 328/3/4 350/3/4 372/3/4
f 371/1/4 328/1/4 372/1/4
f 352/1/4 353/1/4 373/1/4
f 372/3/4 350/3/4 373/3/4
f 350/1/4 351/1/4 373/1/4
f 351/1/4 352/1/4 373/1/4
f 373/1/4 353/1/4 374/1/4
f 356/1/4 357/1/4 375/1/4
f 355/1/4 356/1/4 375/1/4
f 354/3/4 355/3/4 375/3/4
f 353/3/4 354/3/4 375/3/4
f 375/1/4 357/1/4 376/1/4
f 357/3/4 358/3/4 377/3/4
f 376/1/4 357/1/4 377/1/4
f 377/3/4 358/3/4 378/3/4
f 358/1/4 359/1/4 379/1/4
f 378/3/4 358/3/4 379/3/4
f 359/1/4 338/1/4 380/1/4
f 379/1/4 359/1/4 380/1/4
f 380/1/4 338/1/4 381/1/4
f 360/5/4 361/5/4 382/5/4
f 361/4/4 362/4/4 383/4/4
f 382/5/4 361/5/4 383/5/4
f 383/4/4 362/4/4 384/4/4
f 366/4/4 367/4/4 385/4/4
f 367/1/4 368/1/4 386/1/4
f 385/4/4 367/4/4 386/4/4
f 369/1/4 370/1/4 386/1/4
f 368/1/4 369/1/4 386/1/4
f 370/3/4 371/3/4 387/3/4
f 386/1/4 370/1/4 387/1/4
f 371/1/4 372/1/4 388/1/4
f 387/3/4 371/3/4 388/3/4
f 372/1/4 373/1/4 388/1/4
f 373/3/4 374/3/4 389/3/4
f 388/1/4 373/1/4 389/1/4
f 374/1/4 353/1/4 390/1/4
f 389/3/4 374/3/4 390/3/4
f 375/3/4 376/3/4 391/3/4
f 390/1/4 353/1/4 391/1/4
f 353/3/4 375/3/4 391/3/4
f 376/1/4 377/1/4 392/1/4
f 391/3/4 376/3/4 392/3/4
f 377/1/4 378/1/4 392/1/4
f 379/3/4 380/3/4 393/3/4
f 392/1/4 378/1/4 393/1/4
f 378/3/4 379/3/4 393/3/4
f 393/3/4 380/3/4 394/3/4
f 385/5/4 386/5/4 395/5/4
f 395/5/4 386/5/4 396/5/4
f 397/5/4 398/5/4 399/5/4
f 399/5/4 398/5/4 400/5/4
f 397/5/4 399/5/4 401/5/4
f 399/4/4 400/4/4 402/4/4
f 401/5/4 399/5/4 402/5/4
f 402/4/4 400/4/4 403/4/4
f 407/5/5 405/5/5 404/5/5
f 408/5/5 405/5/5 407/5/5
f 409/5/5 405/5/5 408/5/5
f 411/4/5 408/4/5 407/4/5
f 411/5/5 410/5/5 409/5/5
f 411/5/5 409/5/5 408/5/5
f 412/5/5 410/5/5 411/5/5
f 413/5/5 407/5/5 406/5/5
f 414/4/5 411/4/5 407/4/5
f 414/5/5 407/5/5 413/5/5
f 414/4/5 412/4/5 411/4/5
f 415/5/5 410/5/5 412/5/5
f 415/4/5 412/4/5 414/4/5
f 416/5/5 410/5/5 415/5/5
f 417/5/5 415/5/5 414/5/5
f 418/5/5 415/5/5 417/5/5
f 426/5/5 420/5/5 419/5/5
f 427/5/5 420/5/5 426/5/5
f 428/4/5 421/4/5 420/4/5
f 429/5/5 423/5/5 422/5/5
f 430/4/5 424/4/5 423/4/5
f 430/5/5 423/5/5 429/5/5
f 431/5/5 425/5/5 424/5/5
f 431/4/5 424/4/5 430/4/5
f 432/4/5 427/4/5 426/4/5
f 433/5/5 420/5/5 427/5/5
f 433/4/5 427/4/5 432/4/5
f 434/4/5 428/4/5 420/4/5
f 434/5/5 420/5/5 433/5/5
f 435/4/5 428/4/5 434/4/5
f 436/4/5 430/4/5 429/4/5
f 437/5/5 431/5/5 430/5/5
f 437/4/5 430/4/5 436/4/5
f 438/5/5 425/5/5 431/5/5
f 438/5/5 431/5/5 437/5/5
f 439/4/6 440/4/6 443/4/6
f 440/5/6 441/5/6 444/5/6
f 443/4/6 440/4/6 444/4/6
f 444/5/6 441/5/6 445/5/6
f 442/4/6 443/4/6 447/4/6
f 447/4/6 443/4/6 448/4/6
f 445/5/6 446/5/6 449/5/6
f 449/5/6 446/5/6 450/5/6
f 447/5/6 448/5/6 451/5/6
f 451/5/6 448/5/6 452/5/6
f 449/4/6 450/4/6 454/4/6
f 454/4/6 450/4/6 455/4/6
f 452/5/6 453/5/6 456/5/6
f 453/4/6 454/4/6 457/4/6
f 456/5/6 453/5/6 457/5/6
f 457/4/6 454/4/6 458/4/6
f 459/5/6 460/5/6 466/5/6
f 466/5/6 460/5/6 467/5/6
f 460/4/6 461/4/6 468/4/6
f 467/5/6 460/5/6 468/5/6
f 468/4/6 461/4/6 469/4/6
f 462/5/6 463/5/6 470/5/6
f 463/4/6 464/4/6 471/4/6
f 470/5/6 463/5/6 471/5/6
f 464/5/6 465/5/6 472/5/6
f 471/4/6 464/4/6 472/4/6
f 466/4/6 467/4/6 473/4/6
f 467/5/6 468/5/6 474/5/6
f 473/4/6 467/4/6 474/4/6
f 474/5/6 468/5/6 475/5/6
f 471/5/6 472/5/6 476/5/6
f 472/5/6 465/5/6 477/5/6
f 476/5/6 472/5/6 477/5/6
f 478/3/6 479/3/6 480/3/6
f 480/3/6 479/3/6 481/3/6
f 482/1/6 483/1/6 486/1/6
f 486/1/6 483/1/6 487/1/6
f 484/2/6 485/2/6 489/2/6
f 489/2/6 485/2/6 490/2/6
f 487/3/6 488/3/6 491/3/6
f 491/3/6 488/3/6 492/3/6
f 493/1/6 494/1/6 495/1/6
f 495/1/6 494/1/6 496/1/6
