# MagicaVoxel @ Ephtracy

# group
o 

# material
mtllib Swords-0.mtl
usemtl palette

# normals
vn -1 0 0
vn 1 0 0
vn 0 0 1
vn 0 0 -1
vn 0 -1 0
vn 0 1 0

# texcoords
vt 0.908203 0.5
vt 0.912109 0.5
vt 0.916016 0.5
vt 0.919922 0.5
vt 0.927734 0.5
vt 0.982422 0.5
vt 0.986328 0.5

# verts
v 1.9 4.6 0.4
v 1.9 4.6 0.2
v 1.9 4.7 0.4
v 1.9 4.7 0.2
v 2.1 3.8 0.4
v 2.1 3.8 0.2
v 2.1 4 0.4
v 2.1 4 0.2
v 2.1 4.7 0.3
v 2.1 4.7 0.2
v 2.1 5 0.3
v 2.1 5 0.2
v 2.1 5.1 0.3
v 2.1 5.1 0.2
v 2.1 5.2 0.3
v 2.1 5.2 0.2
v 2.1 5.3 0.3
v 2.1 5.3 0.2
v 2.1 6.3 0.3
v 2.1 6.3 0.2
v 2.1 6.5 0.3
v 2.1 6.5 0.2
v 2.1 7 0.3
v 2.1 7 0.2
v 2.2 3.8 0.5
v 2.2 3.8 0.4
v 2.2 3.8 0.2
v 2.2 3.8 0.1
v 2.2 3.9 0.2
v 2.2 3.9 0.1
v 2.2 4 0.5
v 2.2 4 0.4
v 2.2 4 0.2
v 2.2 4 0.1
v 2.2 4.1 0.4
v 2.2 4.1 0.3
v 2.2 4.3 0.4
v 2.2 4.3 0.3
v 2.2 4.5 0.3
v 2.2 4.5 0.2
v 2.2 4.6 0.4
v 2.2 4.6 0.3
v 2.2 4.6 0.2
v 2.2 4.7 0.4
v 2.2 4.7 0.3
v 2.2 4.9 0.4
v 2.2 4.9 0.3
v 2.2 5 0.3
v 2.2 5.1 0.3
v 2.2 5.2 0.3
v 2.2 5.3 0.4
v 2.2 5.3 0.3
v 2.2 5.5 0.4
v 2.2 5.5 0.3
v 2.2 5.8 0.4
v 2.2 5.8 0.3
v 2.2 6 0.4
v 2.2 6 0.3
v 2.2 6.3 0.3
v 2.2 6.5 0.4
v 2.2 6.5 0.3
v 2.2 6.8 0.4
v 2.2 6.8 0.3
v 2.2 6.9 0.4
v 2.2 6.9 0.3
v 2.2 7 0.3
v 2.2 7 0.2
v 2.2 7.1 0.3
v 2.2 7.1 0.2
v 2.3 6.9 0.4
v 2.3 6.9 0.3
v 2.3 7 0.4
v 2.3 7 0.3
v 2.4 3.8 0.5
v 2.4 3.8 0.4
v 2.4 3.8 0.2
v 2.4 3.8 0.1
v 2.4 3.9 0.2
v 2.4 3.9 0.1
v 2.4 4 0.5
v 2.4 4 0.4
v 2.4 4 0.3
v 2.4 4 0.2
v 2.4 4 0.1
v 2.4 4.2 0.4
v 2.4 4.2 0.3
v 2.4 4.2 0.2
v 2.4 4.3 0.4
v 2.4 4.3 0.3
v 2.4 4.3 0.2
v 2.4 4.4 0.4
v 2.4 4.4 0.3
v 2.4 4.4 0.2
v 2.4 4.5 0.4
v 2.4 4.5 0.3
v 2.4 4.6 0.4
v 2.4 4.6 0.3
v 2.4 4.6 0.2
v 2.4 4.7 0.4
v 2.4 4.7 0.3
v 2.4 4.9 0.3
v 2.4 5 0.3
v 2.4 5.1 0.4
v 2.4 5.1 0.3
v 2.4 5.3 0.4
v 2.4 5.3 0.3
v 2.4 5.5 0.4
v 2.4 5.5 0.3
v 2.4 5.7 0.4
v 2.4 5.7 0.3
v 2.4 5.8 0.3
v 2.4 6 0.3
v 2.4 6.1 0.4
v 2.4 6.1 0.3
v 2.4 6.2 0.3
v 2.4 6.3 0.3
v 2.4 6.4 0.4
v 2.4 6.4 0.3
v 2.4 6.5 0.3
v 2.4 6.6 0.3
v 2.4 6.7 0.4
v 2.4 6.7 0.3
v 2.4 6.9 0.4
v 2.4 6.9 0.3
v 2.4 7 0.4
v 2.4 7 0.3
v 2.4 7 0.2
v 2.4 7.1 0.3
v 2.4 7.1 0.2
v 2.5 3.8 0.4
v 2.5 3.8 0.2
v 2.5 4 0.4
v 2.5 4 0.2
v 2.5 4.7 0.3
v 2.5 4.7 0.2
v 2.5 4.9 0.3
v 2.5 4.9 0.2
v 2.5 5 0.3
v 2.5 5 0.2
v 2.5 5.1 0.3
v 2.5 5.1 0.2
v 2.5 5.3 0.3
v 2.5 5.3 0.2
v 2.5 5.8 0.3
v 2.5 5.8 0.2
v 2.5 6 0.3
v 2.5 6 0.2
v 2.5 6.2 0.3
v 2.5 6.2 0.2
v 2.5 6.3 0.3
v 2.5 6.3 0.2
v 2.5 6.5 0.3
v 2.5 6.5 0.2
v 2.5 6.6 0.3
v 2.5 6.6 0.2
v 2.5 6.9 0.3
v 2.5 6.9 0.2
v 2.5 7 0.3
v 2.5 7 0.2
v 2.7 4.6 0.4
v 2.7 4.6 0.2
v 2.7 4.7 0.4
v 2.7 4.7 0.2
v 2.2 3.8 0.5
v 2.2 4 0.5
v 2.4 3.8 0.5
v 2.4 4 0.5
v 1.9 4.6 0.4
v 1.9 4.7 0.4
v 2 4.6 0.4
v 2 4.7 0.4
v 2.1 3.8 0.4
v 2.1 4 0.4
v 2.1 4.6 0.4
v 2.1 4.7 0.4
v 2.2 3.8 0.4
v 2.2 4 0.4
v 2.2 4.1 0.4
v 2.2 4.3 0.4
v 2.2 4.6 0.4
v 2.2 4.7 0.4
v 2.2 4.9 0.4
v 2.2 5.3 0.4
v 2.2 5.5 0.4
v 2.2 5.8 0.4
v 2.2 6 0.4
v 2.2 6.5 0.4
v 2.2 6.8 0.4
v 2.2 6.9 0.4
v 2.3 4.1 0.4
v 2.3 4.2 0.4
v 2.3 4.4 0.4
v 2.3 4.5 0.4
v 2.3 4.7 0.4
v 2.3 4.9 0.4
v 2.3 5.1 0.4
v 2.3 5.3 0.4
v 2.3 5.5 0.4
v 2.3 5.7 0.4
v 2.3 5.8 0.4
v 2.3 6 0.4
v 2.3 6.1 0.4
v 2.3 6.4 0.4
v 2.3 6.5 0.4
v 2.3 6.7 0.4
v 2.3 6.8 0.4
v 2.3 6.9 0.4
v 2.3 7 0.4
v 2.4 3.8 0.4
v 2.4 4 0.4
v 2.4 4.2 0.4
v 2.4 4.3 0.4
v 2.4 4.4 0.4
v 2.4 4.5 0.4
v 2.4 4.6 0.4
v 2.4 4.7 0.4
v 2.4 5.1 0.4
v 2.4 5.3 0.4
v 2.4 5.5 0.4
v 2.4 5.7 0.4
v 2.4 6.1 0.4
v 2.4 6.4 0.4
v 2.4 6.7 0.4
v 2.4 6.9 0.4
v 2.4 7 0.4
v 2.5 3.8 0.4
v 2.5 4 0.4
v 2.7 4.6 0.4
v 2.7 4.7 0.4
v 2.1 4.7 0.3
v 2.1 5 0.3
v 2.1 5.1 0.3
v 2.1 5.2 0.3
v 2.1 5.3 0.3
v 2.1 6.3 0.3
v 2.1 6.5 0.3
v 2.1 7 0.3
v 2.2 4.7 0.3
v 2.2 4.9 0.3
v 2.2 5 0.3
v 2.2 5.1 0.3
v 2.2 5.2 0.3
v 2.2 5.3 0.3
v 2.2 5.5 0.3
v 2.2 5.8 0.3
v 2.2 6 0.3
v 2.2 6.3 0.3
v 2.2 6.5 0.3
v 2.2 6.8 0.3
v 2.2 6.9 0.3
v 2.2 7 0.3
v 2.2 7.1 0.3
v 2.3 6.9 0.3
v 2.3 7 0.3
v 2.3 7.1 0.3
v 2.4 4.7 0.3
v 2.4 4.9 0.3
v 2.4 5 0.3
v 2.4 5.1 0.3
v 2.4 5.3 0.3
v 2.4 5.5 0.3
v 2.4 5.7 0.3
v 2.4 5.8 0.3
v 2.4 6 0.3
v 2.4 6.1 0.3
v 2.4 6.2 0.3
v 2.4 6.3 0.3
v 2.4 6.4 0.3
v 2.4 6.5 0.3
v 2.4 6.6 0.3
v 2.4 6.7 0.3
v 2.4 6.9 0.3
v 2.4 7 0.3
v 2.4 7.1 0.3
v 2.5 4.7 0.3
v 2.5 4.9 0.3
v 2.5 5 0.3
v 2.5 5.1 0.3
v 2.5 5.3 0.3
v 2.5 5.8 0.3
v 2.5 6 0.3
v 2.5 6.2 0.3
v 2.5 6.3 0.3
v 2.5 6.5 0.3
v 2.5 6.6 0.3
v 2.5 6.9 0.3
v 2.5 7 0.3
v 1.9 4.6 0.2
v 1.9 4.7 0.2
v 2.1 3.8 0.2
v 2.1 4 0.2
v 2.1 4.6 0.2
v 2.1 4.7 0.2
v 2.1 5 0.2
v 2.1 5.1 0.2
v 2.1 5.2 0.2
v 2.1 5.3 0.2
v 2.1 6.3 0.2
v 2.1 6.5 0.2
v 2.1 7 0.2
v 2.2 3.8 0.2
v 2.2 3.9 0.2
v 2.2 4 0.2
v 2.2 4.5 0.2
v 2.2 4.6 0.2
v 2.2 4.7 0.2
v 2.2 4.9 0.2
v 2.2 5 0.2
v 2.2 5.1 0.2
v 2.2 5.2 0.2
v 2.2 5.3 0.2
v 2.2 5.4 0.2
v 2.2 5.5 0.2
v 2.2 5.6 0.2
v 2.2 5.8 0.2
v 2.2 6 0.2
v 2.2 6.2 0.2
v 2.2 6.3 0.2
v 2.2 6.5 0.2
v 2.2 6.6 0.2
v 2.2 6.8 0.2
v 2.2 7 0.2
v 2.2 7.1 0.2
v 2.3 4 0.2
v 2.3 4.2 0.2
v 2.3 4.3 0.2
v 2.3 4.4 0.2
v 2.3 4.5 0.2
v 2.3 4.6 0.2
v 2.3 4.8 0.2
v 2.3 4.9 0.2
v 2.3 5 0.2
v 2.3 5.5 0.2
v 2.3 5.6 0.2
v 2.3 5.7 0.2
v 2.3 5.8 0.2
v 2.3 6 0.2
v 2.3 6.1 0.2
v 2.3 6.2 0.2
v 2.3 6.6 0.2
v 2.3 6.7 0.2
v 2.3 6.8 0.2
v 2.3 6.9 0.2
v 2.3 7.1 0.2
v 2.4 3.8 0.2
v 2.4 3.9 0.2
v 2.4 4 0.2
v 2.4 4.2 0.2
v 2.4 4.3 0.2
v 2.4 4.4 0.2
v 2.4 4.6 0.2
v 2.4 4.7 0.2
v 2.4 4.8 0.2
v 2.4 5.1 0.2
v 2.4 5.3 0.2
v 2.4 5.4 0.2
v 2.4 5.7 0.2
v 2.4 5.8 0.2
v 2.4 6 0.2
v 2.4 6.1 0.2
v 2.4 6.2 0.2
v 2.4 6.3 0.2
v 2.4 6.5 0.2
v 2.4 6.6 0.2
v 2.4 6.7 0.2
v 2.4 7 0.2
v 2.4 7.1 0.2
v 2.5 3.8 0.2
v 2.5 4 0.2
v 2.5 4.7 0.2
v 2.5 4.9 0.2
v 2.5 5 0.2
v 2.5 5.1 0.2
v 2.5 5.3 0.2
v 2.5 5.8 0.2
v 2.5 6 0.2
v 2.5 6.2 0.2
v 2.5 6.3 0.2
v 2.5 6.5 0.2
v 2.5 6.6 0.2
v 2.5 6.9 0.2
v 2.5 7 0.2
v 2.6 4.6 0.2
v 2.6 4.7 0.2
v 2.7 4.6 0.2
v 2.7 4.7 0.2
v 2.2 3.8 0.1
v 2.2 3.9 0.1
v 2.2 4 0.1
v 2.4 3.8 0.1
v 2.4 3.9 0.1
v 2.4 4 0.1
v 2.2 3.8 0.5
v 2.4 3.8 0.5
v 2.1 3.8 0.4
v 2.2 3.8 0.4
v 2.4 3.8 0.4
v 2.5 3.8 0.4
v 2.1 3.8 0.2
v 2.2 3.8 0.2
v 2.4 3.8 0.2
v 2.5 3.8 0.2
v 2.2 3.8 0.1
v 2.4 3.8 0.1
v 1.9 4.6 0.4
v 2 4.6 0.4
v 2.1 4.6 0.4
v 2.2 4.6 0.4
v 2.4 4.6 0.4
v 2.7 4.6 0.4
v 2 4.6 0.3
v 2.1 4.6 0.3
v 2.2 4.6 0.3
v 2.4 4.6 0.3
v 2.6 4.6 0.3
v 1.9 4.6 0.2
v 2.1 4.6 0.2
v 2.2 4.6 0.2
v 2.4 4.6 0.2
v 2.6 4.6 0.2
v 2.7 4.6 0.2
v 2.2 4 0.5
v 2.4 4 0.5
v 2.1 4 0.4
v 2.2 4 0.4
v 2.4 4 0.4
v 2.5 4 0.4
v 2.4 4 0.3
v 2.1 4 0.2
v 2.2 4 0.2
v 2.3 4 0.2
v 2.4 4 0.2
v 2.5 4 0.2
v 2.2 4 0.1
v 2.4 4 0.1
v 1.9 4.7 0.4
v 2 4.7 0.4
v 2.1 4.7 0.4
v 2.2 4.7 0.4
v 2.4 4.7 0.4
v 2.7 4.7 0.4
v 2 4.7 0.3
v 2.1 4.7 0.3
v 2.2 4.7 0.3
v 2.4 4.7 0.3
v 2.5 4.7 0.3
v 2.6 4.7 0.3
v 1.9 4.7 0.2
v 2.1 4.7 0.2
v 2.5 4.7 0.2
v 2.6 4.7 0.2
v 2.7 4.7 0.2
v 2.2 6.9 0.4
v 2.3 6.9 0.4
v 2.2 6.9 0.3
v 2.3 6.9 0.3
v 2.3 7 0.4
v 2.4 7 0.4
v 2.1 7 0.3
v 2.2 7 0.3
v 2.3 7 0.3
v 2.4 7 0.3
v 2.5 7 0.3
v 2.1 7 0.2
v 2.2 7 0.2
v 2.4 7 0.2
v 2.5 7 0.2
v 2.2 7.1 0.3
v 2.3 7.1 0.3
v 2.4 7.1 0.3
v 2.2 7.1 0.2
v 2.3 7.1 0.2
v 2.4 7.1 0.2

# faces
f 3/5/1 2/5/1 1/5/1
f 4/5/1 2/5/1 3/5/1
f 7/3/1 6/3/1 5/3/1
f 8/3/1 6/3/1 7/3/1
f 11/2/1 10/2/1 9/2/1
f 12/2/1 10/2/1 11/2/1
f 13/1/1 12/1/1 11/1/1
f 14/1/1 12/1/1 13/1/1
f 15/2/1 14/2/1 13/2/1
f 16/2/1 14/2/1 15/2/1
f 17/1/1 16/1/1 15/1/1
f 18/1/1 16/1/1 17/1/1
f 19/2/1 18/2/1 17/2/1
f 20/2/1 18/2/1 19/2/1
f 21/1/1 20/1/1 19/1/1
f 22/1/1 20/1/1 21/1/1
f 23/2/1 22/2/1 21/2/1
f 24/2/1 22/2/1 23/2/1
f 29/7/1 28/7/1 27/7/1
f 30/7/1 28/7/1 29/7/1
f 31/3/1 26/3/1 25/3/1
f 32/3/1 26/3/1 31/3/1
f 33/6/1 30/6/1 29/6/1
f 34/6/1 30/6/1 33/6/1
f 35/4/1 33/4/1 32/4/1
f 36/4/1 33/4/1 35/4/1
f 37/5/1 36/5/1 35/5/1
f 38/4/1 33/4/1 36/4/1
f 38/5/1 36/5/1 37/5/1
f 39/4/1 38/4/1 37/4/1
f 39/4/1 33/4/1 38/4/1
f 40/4/1 33/4/1 39/4/1
f 41/4/1 39/4/1 37/4/1
f 42/5/1 40/5/1 39/5/1
f 42/4/1 39/4/1 41/4/1
f 43/5/1 40/5/1 42/5/1
f 46/1/1 45/1/1 44/1/1
f 47/1/1 45/1/1 46/1/1
f 48/2/1 47/2/1 46/2/1
f 49/2/1 48/2/1 46/2/1
f 50/2/1 49/2/1 46/2/1
f 51/2/1 50/2/1 46/2/1
f 52/2/1 50/2/1 51/2/1
f 53/1/1 52/1/1 51/1/1
f 54/1/1 52/1/1 53/1/1
f 55/2/1 54/2/1 53/2/1
f 56/2/1 54/2/1 55/2/1
f 57/1/1 56/1/1 55/1/1
f 58/1/1 56/1/1 57/1/1
f 59/2/1 58/2/1 57/2/1
f 60/2/1 59/2/1 57/2/1
f 61/2/1 59/2/1 60/2/1
f 62/1/1 61/1/1 60/1/1
f 63/1/1 61/1/1 62/1/1
f 64/2/1 63/2/1 62/2/1
f 65/2/1 63/2/1 64/2/1
f 68/2/1 67/2/1 66/2/1
f 69/2/1 67/2/1 68/2/1
f 72/2/1 71/2/1 70/2/1
f 73/2/1 71/2/1 72/2/1
f 76/7/2 77/7/2 78/7/2
f 78/7/2 77/7/2 79/7/2
f 74/3/2 75/3/2 80/3/2
f 80/3/2 75/3/2 81/3/2
f 78/6/2 79/6/2 83/6/2
f 83/6/2 79/6/2 84/6/2
f 81/4/2 82/4/2 85/4/2
f 82/5/2 83/5/2 86/5/2
f 85/4/2 82/4/2 86/4/2
f 86/5/2 83/5/2 87/5/2
f 85/5/2 86/5/2 88/5/2
f 86/4/2 87/4/2 89/4/2
f 88/5/2 86/5/2 89/5/2
f 89/4/2 87/4/2 90/4/2
f 88/4/2 89/4/2 91/4/2
f 89/5/2 90/5/2 92/5/2
f 91/4/2 89/4/2 92/4/2
f 92/5/2 90/5/2 93/5/2
f 91/5/2 92/5/2 94/5/2
f 92/4/2 93/4/2 95/4/2
f 94/5/2 92/5/2 95/5/2
f 94/4/2 95/4/2 96/4/2
f 95/4/2 93/4/2 97/4/2
f 96/4/2 95/4/2 97/4/2
f 97/4/2 93/4/2 98/4/2
f 99/2/2 100/2/2 101/2/2
f 99/2/2 101/2/2 102/2/2
f 99/2/2 102/2/2 103/2/2
f 103/2/2 102/2/2 104/2/2
f 103/1/2 104/1/2 105/1/2
f 105/1/2 104/1/2 106/1/2
f 105/2/2 106/2/2 107/2/2
f 107/2/2 106/2/2 108/2/2
f 107/1/2 108/1/2 109/1/2
f 109/1/2 108/1/2 110/1/2
f 109/2/2 110/2/2 111/2/2
f 109/2/2 111/2/2 112/2/2
f 109/2/2 112/2/2 113/2/2
f 113/2/2 112/2/2 114/2/2
f 113/1/2 114/1/2 115/1/2
f 113/1/2 115/1/2 116/1/2
f 113/1/2 116/1/2 117/1/2
f 117/1/2 116/1/2 118/1/2
f 117/2/2 118/2/2 119/2/2
f 117/2/2 119/2/2 120/2/2
f 117/2/2 120/2/2 121/2/2
f 121/2/2 120/2/2 122/2/2
f 121/1/2 122/1/2 123/1/2
f 123/1/2 122/1/2 124/1/2
f 123/2/2 124/2/2 125/2/2
f 125/2/2 124/2/2 126/2/2
f 126/1/2 127/1/2 128/1/2
f 128/1/2 127/1/2 129/1/2
f 130/3/2 131/3/2 132/3/2
f 132/3/2 131/3/2 133/3/2
f 134/2/2 135/2/2 136/2/2
f 136/2/2 135/2/2 137/2/2
f 136/1/2 137/1/2 138/1/2
f 138/1/2 137/1/2 139/1/2
f 138/2/2 139/2/2 140/2/2
f 140/2/2 139/2/2 141/2/2
f 140/1/2 141/1/2 142/1/2
f 142/1/2 141/1/2 143/1/2
f 142/2/2 143/2/2 144/2/2
f 144/2/2 143/2/2 145/2/2
f 144/1/2 145/1/2 146/1/2
f 146/1/2 145/1/2 147/1/2
f 146/2/2 147/2/2 148/2/2
f 148/2/2 147/2/2 149/2/2
f 148/1/2 149/1/2 150/1/2
f 150/1/2 149/1/2 151/1/2
f 150/2/2 151/2/2 152/2/2
f 152/2/2 151/2/2 153/2/2
f 152/1/2 153/1/2 154/1/2
f 154/1/2 153/1/2 155/1/2
f 154/2/2 155/2/2 156/2/2
f 156/2/2 155/2/2 157/2/2
f 156/1/2 157/1/2 158/1/2
f 158/1/2 157/1/2 159/1/2
f 160/5/2 161/5/2 162/5/2
f 162/5/2 161/5/2 163/5/2
f 166/3/3 165/3/3 164/3/3
f 167/3/3 165/3/3 166/3/3
f 170/5/3 169/5/3 168/5/3
f 171/5/3 169/5/3 170/5/3
f 174/3/3 171/3/3 170/3/3
f 175/3/3 171/3/3 174/3/3
f 176/3/3 173/3/3 172/3/3
f 177/3/3 173/3/3 176/3/3
f 180/5/3 175/5/3 174/5/3
f 181/5/3 175/5/3 180/5/3
f 190/5/3 179/5/3 178/5/3
f 190/4/3 178/4/3 177/4/3
f 191/5/3 179/5/3 190/5/3
f 192/4/3 180/4/3 179/4/3
f 193/4/3 180/4/3 192/4/3
f 194/3/3 181/3/3 180/3/3
f 194/1/3 182/1/3 181/1/3
f 195/2/3 183/2/3 182/2/3
f 195/1/3 182/1/3 194/1/3
f 196/2/3 183/2/3 195/2/3
f 197/1/3 184/1/3 183/1/3
f 197/2/3 183/2/3 196/2/3
f 198/2/3 185/2/3 184/2/3
f 198/1/3 184/1/3 197/1/3
f 199/2/3 185/2/3 198/2/3
f 200/1/3 186/1/3 185/1/3
f 200/2/3 185/2/3 199/2/3
f 201/2/3 187/2/3 186/2/3
f 201/1/3 186/1/3 200/1/3
f 202/2/3 187/2/3 201/2/3
f 203/2/3 187/2/3 202/2/3
f 204/1/3 188/1/3 187/1/3
f 204/2/3 187/2/3 203/2/3
f 205/1/3 188/1/3 204/1/3
f 206/2/3 189/2/3 188/2/3
f 206/1/3 188/1/3 205/1/3
f 207/2/3 189/2/3 206/2/3
f 210/4/3 190/4/3 177/4/3
f 210/4/3 191/4/3 190/4/3
f 211/5/3 179/5/3 191/5/3
f 211/4/3 191/4/3 210/4/3
f 212/4/3 192/4/3 179/4/3
f 212/5/3 179/5/3 211/5/3
f 213/5/3 193/5/3 192/5/3
f 213/4/3 192/4/3 212/4/3
f 214/4/3 180/4/3 193/4/3
f 214/5/3 193/5/3 213/5/3
f 215/3/3 194/3/3 180/3/3
f 215/4/3 180/4/3 214/4/3
f 216/2/3 196/2/3 195/2/3
f 216/3/3 194/3/3 215/3/3
f 216/2/3 195/2/3 194/2/3
f 217/1/3 197/1/3 196/1/3
f 217/2/3 196/2/3 216/2/3
f 218/2/3 198/2/3 197/2/3
f 218/1/3 197/1/3 217/1/3
f 219/1/3 199/1/3 198/1/3
f 219/2/3 198/2/3 218/2/3
f 220/2/3 200/2/3 199/2/3
f 220/1/3 199/1/3 219/1/3
f 220/2/3 201/2/3 200/2/3
f 220/2/3 202/2/3 201/2/3
f 221/1/3 203/1/3 202/1/3
f 221/2/3 202/2/3 220/2/3
f 222/2/3 205/2/3 204/2/3
f 222/1/3 203/1/3 221/1/3
f 222/2/3 204/2/3 203/2/3
f 223/1/3 207/1/3 206/1/3
f 223/2/3 205/2/3 222/2/3
f 223/1/3 206/1/3 205/1/3
f 224/2/3 208/2/3 207/2/3
f 224/1/3 207/1/3 223/1/3
f 225/2/3 208/2/3 224/2/3
f 226/3/3 210/3/3 209/3/3
f 227/3/3 210/3/3 226/3/3
f 228/5/3 216/5/3 215/5/3
f 229/5/3 216/5/3 228/5/3
f 238/2/3 231/2/3 230/2/3
f 239/2/3 231/2/3 238/2/3
f 240/1/3 232/1/3 231/1/3
f 240/2/3 231/2/3 239/2/3
f 241/2/3 233/2/3 232/2/3
f 241/1/3 232/1/3 240/1/3
f 242/1/3 234/1/3 233/1/3
f 242/2/3 233/2/3 241/2/3
f 243/2/3 235/2/3 234/2/3
f 243/1/3 234/1/3 242/1/3
f 244/2/3 235/2/3 243/2/3
f 245/2/3 235/2/3 244/2/3
f 246/2/3 235/2/3 245/2/3
f 247/1/3 236/1/3 235/1/3
f 247/2/3 235/2/3 246/2/3
f 248/2/3 237/2/3 236/2/3
f 248/1/3 236/1/3 247/1/3
f 249/2/3 237/2/3 248/2/3
f 250/2/3 237/2/3 249/2/3
f 251/2/3 237/2/3 250/2/3
f 253/2/3 252/2/3 251/2/3
f 253/2/3 251/2/3 250/2/3
f 254/2/3 252/2/3 253/2/3
f 255/2/3 252/2/3 254/2/3
f 273/1/3 255/1/3 254/1/3
f 274/1/3 255/1/3 273/1/3
f 275/2/3 257/2/3 256/2/3
f 276/1/3 258/1/3 257/1/3
f 276/2/3 257/2/3 275/2/3
f 277/2/3 259/2/3 258/2/3
f 277/1/3 258/1/3 276/1/3
f 278/1/3 260/1/3 259/1/3
f 278/2/3 259/2/3 277/2/3
f 279/2/3 261/2/3 260/2/3
f 279/1/3 260/1/3 278/1/3
f 279/2/3 262/2/3 261/2/3
f 279/2/3 263/2/3 262/2/3
f 280/1/3 264/1/3 263/1/3
f 280/2/3 263/2/3 279/2/3
f 281/2/3 265/2/3 264/2/3
f 281/1/3 264/1/3 280/1/3
f 281/2/3 266/2/3 265/2/3
f 282/1/3 267/1/3 266/1/3
f 282/2/3 266/2/3 281/2/3
f 283/2/3 268/2/3 267/2/3
f 283/1/3 267/1/3 282/1/3
f 283/2/3 269/2/3 268/2/3
f 284/1/3 270/1/3 269/1/3
f 284/2/3 269/2/3 283/2/3
f 285/2/3 272/2/3 271/2/3
f 285/1/3 270/1/3 284/1/3
f 285/2/3 271/2/3 270/2/3
f 286/1/3 273/1/3 272/1/3
f 286/2/3 272/2/3 285/2/3
f 287/1/3 273/1/3 286/1/3
f 288/5/4 289/5/4 292/5/4
f 292/5/4 289/5/4 293/5/4
f 290/3/4 291/3/4 301/3/4
f 301/3/4 291/3/4 302/3/4
f 302/3/4 291/3/4 303/3/4
f 292/3/4 293/3/4 305/3/4
f 293/2/4 294/2/4 306/2/4
f 305/3/4 293/3/4 306/3/4
f 306/2/4 294/2/4 307/2/4
f 294/1/4 295/1/4 308/1/4
f 307/2/4 294/2/4 308/2/4
f 295/2/4 296/2/4 309/2/4
f 308/1/4 295/1/4 309/1/4
f 296/1/4 297/1/4 310/1/4
f 309/2/4 296/2/4 310/2/4
f 297/2/4 298/2/4 311/2/4
f 310/1/4 297/1/4 311/1/4
f 311/2/4 298/2/4 312/2/4
f 312/2/4 298/2/4 313/2/4
f 313/2/4 298/2/4 314/2/4
f 314/2/4 298/2/4 315/2/4
f 315/2/4 298/2/4 316/2/4
f 316/2/4 298/2/4 317/2/4
f 298/1/4 299/1/4 318/1/4
f 317/2/4 298/2/4 318/2/4
f 299/2/4 300/2/4 319/2/4
f 318/1/4 299/1/4 319/1/4
f 319/2/4 300/2/4 320/2/4
f 320/2/4 300/2/4 321/2/4
f 321/2/4 300/2/4 322/2/4
f 303/4/4 304/4/4 324/4/4
f 324/4/4 304/4/4 325/4/4
f 325/4/4 304/4/4 326/4/4
f 326/4/4 304/4/4 327/4/4
f 304/5/4 305/5/4 328/5/4
f 327/4/4 304/4/4 328/4/4
f 305/3/4 306/3/4 329/3/4
f 328/5/4 305/5/4 329/5/4
f 306/1/4 307/1/4 330/1/4
f 307/2/4 308/2/4 331/2/4
f 330/1/4 307/1/4 331/1/4
f 308/2/4 309/2/4 331/2/4
f 309/2/4 310/2/4 331/2/4
f 310/2/4 311/2/4 331/2/4
f 311/2/4 312/2/4 331/2/4
f 331/2/4 312/2/4 332/2/4
f 312/1/4 313/1/4 333/1/4
f 313/2/4 314/2/4 333/2/4
f 314/1/4 315/1/4 334/1/4
f 333/2/4 314/2/4 334/2/4
f 334/1/4 315/1/4 335/1/4
f 315/2/4 316/2/4 336/2/4
f 335/1/4 315/1/4 336/1/4
f 316/1/4 317/1/4 337/1/4
f 336/2/4 316/2/4 337/2/4
f 337/1/4 317/1/4 338/1/4
f 317/2/4 318/2/4 339/2/4
f 338/1/4 317/1/4 339/1/4
f 318/2/4 319/2/4 339/2/4
f 319/2/4 320/2/4 339/2/4
f 320/1/4 321/1/4 340/1/4
f 339/2/4 320/2/4 340/2/4
f 340/1/4 321/1/4 341/1/4
f 322/2/4 323/2/4 342/2/4
f 341/1/4 321/1/4 342/1/4
f 321/2/4 322/2/4 342/2/4
f 342/2/4 323/2/4 343/2/4
f 343/2/4 323/2/4 344/2/4
f 324/5/4 325/5/4 347/5/4
f 325/4/4 326/4/4 348/4/4
f 347/5/4 325/5/4 348/5/4
f 326/5/4 327/5/4 349/5/4
f 348/4/4 326/4/4 349/4/4
f 328/4/4 329/4/4 350/4/4
f 349/5/4 327/5/4 350/5/4
f 327/4/4 328/4/4 350/4/4
f 329/3/4 306/3/4 351/3/4
f 350/4/4 329/4/4 351/4/4
f 306/1/4 330/1/4 352/1/4
f 351/3/4 306/3/4 352/3/4
f 330/2/4 331/2/4 353/2/4
f 352/1/4 330/1/4 353/1/4
f 332/2/4 312/2/4 354/2/4
f 354/2/4 312/2/4 355/2/4
f 312/1/4 333/1/4 356/1/4
f 355/2/4 312/2/4 356/2/4
f 334/1/4 335/1/4 356/1/4
f 333/1/4 334/1/4 356/1/4
f 337/2/4 338/2/4 357/2/4
f 356/1/4 335/1/4 357/1/4
f 335/2/4 336/2/4 357/2/4
f 336/2/4 337/2/4 357/2/4
f 357/2/4 338/2/4 358/2/4
f 358/2/4 338/2/4 359/2/4
f 340/1/4 341/1/4 360/1/4
f 359/2/4 338/2/4 360/2/4
f 339/1/4 340/1/4 360/1/4
f 338/1/4 339/1/4 360/1/4
f 360/1/4 341/1/4 361/1/4
f 361/1/4 341/1/4 362/1/4
f 362/1/4 341/1/4 363/1/4
f 363/1/4 341/1/4 364/1/4
f 341/2/4 342/2/4 365/2/4
f 364/1/4 341/1/4 365/1/4
f 342/2/4 343/2/4 365/2/4
f 343/1/4 344/1/4 366/1/4
f 366/1/4 344/1/4 367/1/4
f 346/3/4 347/3/4 368/3/4
f 345/3/4 346/3/4 368/3/4
f 368/3/4 347/3/4 369/3/4
f 352/2/4 353/2/4 370/2/4
f 351/3/4 352/3/4 370/3/4
f 353/2/4 331/2/4 371/2/4
f 370/2/4 353/2/4 371/2/4
f 331/1/4 332/1/4 371/1/4
f 332/2/4 354/2/4 372/2/4
f 371/1/4 332/1/4 372/1/4
f 354/1/4 355/1/4 373/1/4
f 372/2/4 354/2/4 373/2/4
f 355/2/4 356/2/4 374/2/4
f 373/1/4 355/1/4 374/1/4
f 357/2/4 358/2/4 374/2/4
f 356/2/4 357/2/4 374/2/4
f 358/1/4 359/1/4 375/1/4
f 374/2/4 358/2/4 375/2/4
f 360/2/4 361/2/4 376/2/4
f 375/1/4 359/1/4 376/1/4
f 359/2/4 360/2/4 376/2/4
f 361/1/4 362/1/4 377/1/4
f 376/2/4 361/2/4 377/2/4
f 362/2/4 363/2/4 378/2/4
f 377/1/4 362/1/4 378/1/4
f 363/1/4 364/1/4 379/1/4
f 378/2/4 363/2/4 379/2/4
f 364/2/4 365/2/4 380/2/4
f 379/1/4 364/1/4 380/1/4
f 343/1/4 366/1/4 381/1/4
f 380/2/4 365/2/4 381/2/4
f 365/2/4 343/2/4 381/2/4
f 381/1/4 366/1/4 382/1/4
f 351/3/4 370/3/4 383/3/4
f 383/3/4 370/3/4 384/3/4
f 383/5/4 384/5/4 385/5/4
f 385/5/4 384/5/4 386/5/4
f 387/7/4 388/7/4 390/7/4
f 388/6/4 389/6/4 391/6/4
f 390/7/4 388/7/4 391/7/4
f 391/6/4 389/6/4 392/6/4
f 396/3/5 394/3/5 393/3/5
f 397/3/5 394/3/5 396/3/5
f 399/3/5 396/3/5 395/3/5
f 399/3/5 398/3/5 397/3/5
f 399/3/5 397/3/5 396/3/5
f 400/3/5 398/3/5 399/3/5
f 401/3/5 398/3/5 400/3/5
f 402/3/5 398/3/5 401/3/5
f 403/7/5 401/7/5 400/7/5
f 404/7/5 401/7/5 403/7/5
f 411/5/5 406/5/5 405/5/5
f 411/3/5 407/3/5 406/3/5
f 412/5/5 408/5/5 407/5/5
f 412/3/5 407/3/5 411/3/5
f 413/5/5 408/5/5 412/5/5
f 414/5/5 410/5/5 409/5/5
f 415/5/5 410/5/5 414/5/5
f 416/5/5 411/5/5 405/5/5
f 416/5/5 412/5/5 411/5/5
f 417/3/5 413/3/5 412/3/5
f 417/5/5 412/5/5 416/5/5
f 418/3/5 413/3/5 417/3/5
f 419/3/5 415/3/5 414/3/5
f 420/5/5 410/5/5 415/5/5
f 420/3/5 415/3/5 419/3/5
f 421/5/5 410/5/5 420/5/5
f 422/3/6 423/3/6 425/3/6
f 425/3/6 423/3/6 426/3/6
f 426/3/6 427/3/6 428/3/6
f 424/3/6 425/3/6 429/3/6
f 429/3/6 425/3/6 430/3/6
f 428/3/6 427/3/6 432/3/6
f 432/3/6 427/3/6 433/3/6
f 430/6/6 431/6/6 434/6/6
f 431/6/6 432/6/6 434/6/6
f 434/6/6 432/6/6 435/6/6
f 436/5/6 437/5/6 442/5/6
f 437/3/6 438/3/6 442/3/6
f 438/5/6 439/5/6 443/5/6
f 442/3/6 438/3/6 443/3/6
f 443/5/6 439/5/6 444/5/6
f 440/5/6 441/5/6 445/5/6
f 445/5/6 441/5/6 446/5/6
f 446/5/6 441/5/6 447/5/6
f 436/5/6 442/5/6 448/5/6
f 442/5/6 443/5/6 448/5/6
f 448/5/6 443/5/6 449/5/6
f 446/3/6 447/3/6 450/3/6
f 447/5/6 441/5/6 451/5/6
f 450/3/6 447/3/6 451/3/6
f 451/5/6 441/5/6 452/5/6
f 453/2/6 454/2/6 455/2/6
f 455/2/6 454/2/6 456/2/6
f 457/2/6 458/2/6 461/2/6
f 461/2/6 458/2/6 462/2/6
f 459/2/6 460/2/6 464/2/6
f 464/2/6 460/2/6 465/2/6
f 462/1/6 463/1/6 466/1/6
f 466/1/6 463/1/6 467/1/6
f 468/2/6 469/2/6 471/2/6
f 469/1/6 470/1/6 472/1/6
f 471/2/6 469/2/6 472/2/6
f 472/1/6 470/1/6 473/1/6
