# MagicaVoxel @ Ephtracy

# group
o 

# material
mtllib Decor-19.mtl
usemtl palette

# normals
vn -1 0 0
vn 1 0 0
vn 0 0 1
vn 0 0 -1
vn 0 -1 0
vn 0 1 0

# texcoords
vt 0.658203 0.5
vt 0.662109 0.5
vt 0.666016 0.5
vt 0.669922 0.5

# verts
v 12.2 1.2 -3.9
v 12.2 1.2 -5.1
v 12.2 1.3 -4
v 12.2 1.3 -5
v 12.2 1.5 -4
v 12.2 1.5 -5
v 12.2 1.6 -3.9
v 12.2 1.6 -5.1
v 12.3 1.3 -4
v 12.3 1.3 -5
v 12.3 1.5 -4
v 12.3 1.5 -5
v 12.6 1.2 -3.8
v 12.6 1.2 -3.9
v 12.6 1.3 -3.8
v 12.6 1.3 -3.9
v 13.2 1.2 -4.1
v 13.2 1.2 -4.9
v 13.2 1.3 -4.1
v 13.2 1.3 -4.9
v 13.3 1.3 -3.9
v 13.3 1.3 -4
v 13.3 1.3 -5
v 13.3 1.3 -5.1
v 13.3 1.5 -3.9
v 13.3 1.5 -4
v 13.3 1.5 -5
v 13.3 1.5 -5.1
v 13.3 1.6 -4
v 13.3 1.6 -5
v 12.3 1.3 -3.9
v 12.3 1.3 -4
v 12.3 1.3 -5
v 12.3 1.3 -5.1
v 12.3 1.5 -3.9
v 12.3 1.5 -4
v 12.3 1.5 -5
v 12.3 1.5 -5.1
v 12.3 1.6 -4
v 12.3 1.6 -5
v 12.4 1.2 -4.1
v 12.4 1.2 -4.9
v 12.4 1.3 -4.1
v 12.4 1.3 -4.9
v 13 1.2 -3.8
v 13 1.2 -3.9
v 13 1.3 -3.8
v 13 1.3 -3.9
v 13.3 1.3 -4
v 13.3 1.3 -5
v 13.3 1.5 -4
v 13.3 1.5 -5
v 13.4 1.2 -3.9
v 13.4 1.2 -5.1
v 13.4 1.3 -4
v 13.4 1.3 -5
v 13.4 1.5 -4
v 13.4 1.5 -5
v 13.4 1.6 -3.9
v 13.4 1.6 -5.1
v 12.6 1.2 -3.8
v 12.6 1.3 -3.8
v 13 1.2 -3.8
v 13 1.3 -3.8
v 12.2 1.2 -3.9
v 12.2 1.6 -3.9
v 12.3 1.3 -3.9
v 12.3 1.5 -3.9
v 12.6 1.2 -3.9
v 12.6 1.3 -3.9
v 13 1.2 -3.9
v 13 1.3 -3.9
v 13.3 1.3 -3.9
v 13.3 1.5 -3.9
v 13.4 1.2 -3.9
v 13.4 1.6 -3.9
v 12.3 1.3 -4
v 12.3 1.5 -4
v 13.3 1.3 -4
v 13.3 1.5 -4
v 12.4 1.2 -4.9
v 12.4 1.3 -4.9
v 13.2 1.2 -4.9
v 13.2 1.3 -4.9
v 12.2 1.3 -5
v 12.2 1.5 -5
v 12.3 1.3 -5
v 12.3 1.5 -5
v 12.3 1.6 -5
v 13.3 1.3 -5
v 13.3 1.5 -5
v 13.3 1.6 -5
v 13.4 1.3 -5
v 13.4 1.5 -5
v 12.2 1.3 -4
v 12.2 1.5 -4
v 12.3 1.3 -4
v 12.3 1.5 -4
v 12.3 1.6 -4
v 13.3 1.3 -4
v 13.3 1.5 -4
v 13.3 1.6 -4
v 13.4 1.3 -4
v 13.4 1.5 -4
v 12.4 1.2 -4.1
v 12.4 1.3 -4.1
v 13.2 1.2 -4.1
v 13.2 1.3 -4.1
v 12.3 1.3 -5
v 12.3 1.5 -5
v 13.3 1.3 -5
v 13.3 1.5 -5
v 12.2 1.2 -5.1
v 12.2 1.6 -5.1
v 12.3 1.3 -5.1
v 12.3 1.5 -5.1
v 13.3 1.3 -5.1
v 13.3 1.5 -5.1
v 13.4 1.2 -5.1
v 13.4 1.6 -5.1
v 12.6 1.2 -3.8
v 13 1.2 -3.8
v 12.2 1.2 -3.9
v 12.6 1.2 -3.9
v 13 1.2 -3.9
v 13.4 1.2 -3.9
v 12.3 1.2 -4
v 13.3 1.2 -4
v 12.4 1.2 -4.1
v 13.2 1.2 -4.1
v 12.4 1.2 -4.9
v 13.2 1.2 -4.9
v 12.3 1.2 -5
v 13.3 1.2 -5
v 12.2 1.2 -5.1
v 13.4 1.2 -5.1
v 12.4 1.3 -4.1
v 13.2 1.3 -4.1
v 12.4 1.3 -4.9
v 13.2 1.3 -4.9
v 12.3 1.5 -3.9
v 13.3 1.5 -3.9
v 12.2 1.5 -4
v 12.3 1.5 -4
v 13.3 1.5 -4
v 13.4 1.5 -4
v 12.2 1.5 -5
v 12.3 1.5 -5
v 13.3 1.5 -5
v 13.4 1.5 -5
v 12.3 1.5 -5.1
v 13.3 1.5 -5.1
v 12.6 1.3 -3.8
v 13 1.3 -3.8
v 12.3 1.3 -3.9
v 12.6 1.3 -3.9
v 13 1.3 -3.9
v 13.3 1.3 -3.9
v 12.2 1.3 -4
v 12.3 1.3 -4
v 13.3 1.3 -4
v 13.4 1.3 -4
v 12.2 1.3 -5
v 12.3 1.3 -5
v 13.3 1.3 -5
v 13.4 1.3 -5
v 12.3 1.3 -5.1
v 13.3 1.3 -5.1
v 12.3 1.5 -4
v 13.3 1.5 -4
v 12.3 1.5 -5
v 13.3 1.5 -5
v 12.2 1.6 -3.9
v 13.4 1.6 -3.9
v 12.3 1.6 -4
v 13.3 1.6 -4
v 12.3 1.6 -5
v 13.3 1.6 -5
v 12.2 1.6 -5.1
v 13.4 1.6 -5.1

# faces
f 3/2/1 2/2/1 1/2/1
f 4/2/1 2/2/1 3/2/1
f 5/2/1 3/2/1 1/2/1
f 6/2/1 2/2/1 4/2/1
f 7/2/1 5/2/1 1/2/1
f 7/2/1 6/2/1 5/2/1
f 8/2/1 2/2/1 6/2/1
f 8/2/1 6/2/1 7/2/1
f 11/3/1 10/3/1 9/3/1
f 12/3/1 10/3/1 11/3/1
f 15/4/1 14/4/1 13/4/1
f 16/4/1 14/4/1 15/4/1
f 19/1/1 18/1/1 17/1/1
f 20/1/1 18/1/1 19/1/1
f 25/2/1 22/2/1 21/2/1
f 26/2/1 22/2/1 25/2/1
f 27/2/1 24/2/1 23/2/1
f 28/2/1 24/2/1 27/2/1
f 29/2/1 27/2/1 26/2/1
f 30/2/1 27/2/1 29/2/1
f 31/2/2 32/2/2 35/2/2
f 35/2/2 32/2/2 36/2/2
f 33/2/2 34/2/2 37/2/2
f 37/2/2 34/2/2 38/2/2
f 36/2/2 37/2/2 39/2/2
f 39/2/2 37/2/2 40/2/2
f 41/1/2 42/1/2 43/1/2
f 43/1/2 42/1/2 44/1/2
f 45/4/2 46/4/2 47/4/2
f 47/4/2 46/4/2 48/4/2
f 49/3/2 50/3/2 51/3/2
f 51/3/2 50/3/2 52/3/2
f 53/2/2 54/2/2 55/2/2
f 55/2/2 54/2/2 56/2/2
f 53/2/2 55/2/2 57/2/2
f 56/2/2 54/2/2 58/2/2
f 53/2/2 57/2/2 59/2/2
f 57/2/2 58/2/2 59/2/2
f 58/2/2 54/2/2 60/2/2
f 59/2/2 58/2/2 60/2/2
f 63/4/3 62/4/3 61/4/3
f 64/4/3 62/4/3 63/4/3
f 67/2/3 66/2/3 65/2/3
f 68/2/3 66/2/3 67/2/3
f 69/2/3 67/2/3 65/2/3
f 70/2/3 67/2/3 69/2/3
f 73/2/3 72/2/3 71/2/3
f 74/2/3 66/2/3 68/2/3
f 75/2/3 73/2/3 71/2/3
f 75/2/3 74/2/3 73/2/3
f 76/2/3 66/2/3 74/2/3
f 76/2/3 74/2/3 75/2/3
f 79/3/3 78/3/3 77/3/3
f 80/3/3 78/3/3 79/3/3
f 83/1/3 82/1/3 81/1/3
f 84/1/3 82/1/3 83/1/3
f 87/2/3 86/2/3 85/2/3
f 88/2/3 86/2/3 87/2/3
f 91/2/3 89/2/3 88/2/3
f 92/2/3 89/2/3 91/2/3
f 93/2/3 91/2/3 90/2/3
f 94/2/3 91/2/3 93/2/3
f 95/2/4 96/2/4 97/2/4
f 97/2/4 96/2/4 98/2/4
f 98/2/4 99/2/4 101/2/4
f 101/2/4 99/2/4 102/2/4
f 100/2/4 101/2/4 103/2/4
f 103/2/4 101/2/4 104/2/4
f 105/1/4 106/1/4 107/1/4
f 107/1/4 106/1/4 108/1/4
f 109/3/4 110/3/4 111/3/4
f 111/3/4 110/3/4 112/3/4
f 113/2/4 114/2/4 115/2/4
f 115/2/4 114/2/4 116/2/4
f 113/2/4 115/2/4 117/2/4
f 116/2/4 114/2/4 118/2/4
f 113/2/4 117/2/4 119/2/4
f 117/2/4 118/2/4 119/2/4
f 118/2/4 114/2/4 120/2/4
f 119/2/4 118/2/4 120/2/4
f 124/4/5 122/4/5 121/4/5
f 125/4/5 122/4/5 124/4/5
f 127/2/5 124/2/5 123/2/5
f 127/2/5 126/2/5 125/2/5
f 127/2/5 125/2/5 124/2/5
f 128/2/5 126/2/5 127/2/5
f 129/1/5 128/1/5 127/1/5
f 130/1/5 128/1/5 129/1/5
f 131/1/5 129/1/5 127/1/5
f 132/1/5 128/1/5 130/1/5
f 133/2/5 127/2/5 123/2/5
f 133/1/5 132/1/5 131/1/5
f 133/1/5 131/1/5 127/1/5
f 134/1/5 128/1/5 132/1/5
f 134/1/5 132/1/5 133/1/5
f 134/2/5 126/2/5 128/2/5
f 135/2/5 133/2/5 123/2/5
f 135/2/5 134/2/5 133/2/5
f 136/2/5 126/2/5 134/2/5
f 136/2/5 134/2/5 135/2/5
f 139/1/5 138/1/5 137/1/5
f 140/1/5 138/1/5 139/1/5
f 144/2/5 142/2/5 141/2/5
f 145/2/5 142/2/5 144/2/5
f 147/2/5 144/2/5 143/2/5
f 148/2/5 144/2/5 147/2/5
f 149/2/5 146/2/5 145/2/5
f 150/2/5 146/2/5 149/2/5
f 151/2/5 149/2/5 148/2/5
f 152/2/5 149/2/5 151/2/5
f 153/4/6 154/4/6 156/4/6
f 156/4/6 154/4/6 157/4/6
f 155/2/6 156/2/6 160/2/6
f 157/2/6 158/2/6 160/2/6
f 156/2/6 157/2/6 160/2/6
f 160/2/6 158/2/6 161/2/6
f 159/2/6 160/2/6 163/2/6
f 163/2/6 160/2/6 164/2/6
f 161/2/6 162/2/6 165/2/6
f 165/2/6 162/2/6 166/2/6
f 164/2/6 165/2/6 167/2/6
f 167/2/6 165/2/6 168/2/6
f 169/3/6 170/3/6 171/3/6
f 171/3/6 170/3/6 172/3/6
f 173/2/6 174/2/6 175/2/6
f 175/2/6 174/2/6 176/2/6
f 173/2/6 175/2/6 177/2/6
f 176/2/6 174/2/6 178/2/6
f 173/2/6 177/2/6 179/2/6
f 177/2/6 178/2/6 179/2/6
f 178/2/6 174/2/6 180/2/6
f 179/2/6 178/2/6 180/2/6
