# MagicaVoxel @ Ephtracy

# group
o 

# material
mtllib Decor-17.mtl
usemtl palette

# normals
vn -1 0 0
vn 1 0 0
vn 0 0 1
vn 0 0 -1
vn 0 -1 0
vn 0 1 0

# texcoords
vt 0.658203 0.5
vt 0.662109 0.5
vt 0.666016 0.5

# verts
v 17 0 -3.9
v 17 0 -5.1
v 17 0.1 -4
v 17 0.1 -5
v 17 0.7 -3.9
v 17 0.7 -4
v 17 0.7 -5
v 17 0.7 -5.1
v 17.1 0.1 -4
v 17.1 0.1 -5
v 17.1 0.2 -4
v 17.1 0.2 -5
v 17.1 0.3 -4
v 17.1 0.3 -5
v 17.1 0.4 -4
v 17.1 0.4 -5
v 17.1 0.5 -4
v 17.1 0.5 -5
v 17.1 0.6 -4
v 17.1 0.6 -5
v 17.1 0.7 -4
v 17.1 0.7 -5
v 19.2 0.1 -4.1
v 19.2 0.1 -4.9
v 19.2 0.2 -4.1
v 19.2 0.2 -4.9
v 19.2 0.3 -4.1
v 19.2 0.3 -4.9
v 19.2 0.4 -4.1
v 19.2 0.4 -4.9
v 19.2 0.5 -4.1
v 19.2 0.5 -4.9
v 19.2 0.6 -4.1
v 19.2 0.6 -4.9
v 19.2 0.7 -4.1
v 19.2 0.7 -4.9
v 19.3 0.1 -3.9
v 19.3 0.1 -4
v 19.3 0.1 -5
v 19.3 0.1 -5.1
v 19.3 0.2 -4
v 19.3 0.2 -5
v 19.3 0.3 -4
v 19.3 0.3 -5
v 19.3 0.4 -4
v 19.3 0.4 -5
v 19.3 0.5 -4
v 19.3 0.5 -5
v 19.3 0.6 -4
v 19.3 0.6 -5
v 19.3 0.7 -3.9
v 19.3 0.7 -4
v 19.3 0.7 -5
v 19.3 0.7 -5.1
v 17.1 0.1 -3.9
v 17.1 0.1 -4
v 17.1 0.1 -5
v 17.1 0.1 -5.1
v 17.1 0.2 -4
v 17.1 0.2 -5
v 17.1 0.3 -4
v 17.1 0.3 -5
v 17.1 0.4 -4
v 17.1 0.4 -5
v 17.1 0.5 -4
v 17.1 0.5 -5
v 17.1 0.6 -4
v 17.1 0.6 -5
v 17.1 0.7 -3.9
v 17.1 0.7 -4
v 17.1 0.7 -5
v 17.1 0.7 -5.1
v 17.2 0.1 -4.1
v 17.2 0.1 -4.9
v 17.2 0.2 -4.1
v 17.2 0.2 -4.9
v 17.2 0.3 -4.1
v 17.2 0.3 -4.9
v 17.2 0.4 -4.1
v 17.2 0.4 -4.9
v 17.2 0.5 -4.1
v 17.2 0.5 -4.9
v 17.2 0.6 -4.1
v 17.2 0.6 -4.9
v 17.2 0.7 -4.1
v 17.2 0.7 -4.9
v 19.3 0.1 -4
v 19.3 0.1 -5
v 19.3 0.2 -4
v 19.3 0.2 -5
v 19.3 0.3 -4
v 19.3 0.3 -5
v 19.3 0.4 -4
v 19.3 0.4 -5
v 19.3 0.5 -4
v 19.3 0.5 -5
v 19.3 0.6 -4
v 19.3 0.6 -5
v 19.3 0.7 -4
v 19.3 0.7 -5
v 19.4 0 -3.9
v 19.4 0 -5.1
v 19.4 0.1 -4
v 19.4 0.1 -5
v 19.4 0.7 -3.9
v 19.4 0.7 -4
v 19.4 0.7 -5
v 19.4 0.7 -5.1
v 17 0 -3.9
v 17 0.7 -3.9
v 17.1 0.1 -3.9
v 17.1 0.7 -3.9
v 19.3 0.1 -3.9
v 19.3 0.7 -3.9
v 19.4 0 -3.9
v 19.4 0.7 -3.9
v 17.1 0.1 -4
v 17.1 0.2 -4
v 17.1 0.3 -4
v 17.1 0.4 -4
v 17.1 0.5 -4
v 17.1 0.6 -4
v 17.1 0.7 -4
v 19.3 0.1 -4
v 19.3 0.2 -4
v 19.3 0.3 -4
v 19.3 0.4 -4
v 19.3 0.5 -4
v 19.3 0.6 -4
v 19.3 0.7 -4
v 17.2 0.1 -4.9
v 17.2 0.2 -4.9
v 17.2 0.3 -4.9
v 17.2 0.4 -4.9
v 17.2 0.5 -4.9
v 17.2 0.6 -4.9
v 17.2 0.7 -4.9
v 19.2 0.1 -4.9
v 19.2 0.2 -4.9
v 19.2 0.3 -4.9
v 19.2 0.4 -4.9
v 19.2 0.5 -4.9
v 19.2 0.6 -4.9
v 19.2 0.7 -4.9
v 17 0.1 -5
v 17 0.7 -5
v 17.1 0.1 -5
v 17.1 0.2 -5
v 17.1 0.3 -5
v 17.1 0.4 -5
v 17.1 0.5 -5
v 17.1 0.6 -5
v 17.1 0.7 -5
v 19.3 0.1 -5
v 19.3 0.2 -5
v 19.3 0.3 -5
v 19.3 0.4 -5
v 19.3 0.5 -5
v 19.3 0.6 -5
v 19.3 0.7 -5
v 19.4 0.1 -5
v 19.4 0.7 -5
v 17 0.1 -4
v 17 0.7 -4
v 17.1 0.1 -4
v 17.1 0.2 -4
v 17.1 0.3 -4
v 17.1 0.4 -4
v 17.1 0.5 -4
v 17.1 0.6 -4
v 17.1 0.7 -4
v 19.3 0.1 -4
v 19.3 0.2 -4
v 19.3 0.3 -4
v 19.3 0.4 -4
v 19.3 0.5 -4
v 19.3 0.6 -4
v 19.3 0.7 -4
v 19.4 0.1 -4
v 19.4 0.7 -4
v 17.2 0.1 -4.1
v 17.2 0.2 -4.1
v 17.2 0.3 -4.1
v 17.2 0.4 -4.1
v 17.2 0.5 -4.1
v 17.2 0.6 -4.1
v 17.2 0.7 -4.1
v 19.2 0.1 -4.1
v 19.2 0.2 -4.1
v 19.2 0.3 -4.1
v 19.2 0.4 -4.1
v 19.2 0.5 -4.1
v 19.2 0.6 -4.1
v 19.2 0.7 -4.1
v 17.1 0.1 -5
v 17.1 0.2 -5
v 17.1 0.3 -5
v 17.1 0.4 -5
v 17.1 0.5 -5
v 17.1 0.6 -5
v 17.1 0.7 -5
v 19.3 0.1 -5
v 19.3 0.2 -5
v 19.3 0.3 -5
v 19.3 0.4 -5
v 19.3 0.5 -5
v 19.3 0.6 -5
v 19.3 0.7 -5
v 17 0 -5.1
v 17 0.7 -5.1
v 17.1 0.1 -5.1
v 17.1 0.7 -5.1
v 19.3 0.1 -5.1
v 19.3 0.7 -5.1
v 19.4 0 -5.1
v 19.4 0.7 -5.1
v 17 0 -3.9
v 19.4 0 -3.9
v 17.1 0 -4
v 19.3 0 -4
v 17.1 0 -5
v 19.3 0 -5
v 17 0 -5.1
v 19.4 0 -5.1
v 17.1 0.1 -3.9
v 19.3 0.1 -3.9
v 17 0.1 -4
v 17.1 0.1 -4
v 19.3 0.1 -4
v 19.4 0.1 -4
v 17.2 0.1 -4.1
v 19.2 0.1 -4.1
v 17.2 0.1 -4.9
v 19.2 0.1 -4.9
v 17 0.1 -5
v 17.1 0.1 -5
v 19.3 0.1 -5
v 19.4 0.1 -5
v 17.1 0.1 -5.1
v 19.3 0.1 -5.1
v 17 0.7 -3.9
v 17.1 0.7 -3.9
v 19.3 0.7 -3.9
v 19.4 0.7 -3.9
v 17 0.7 -4
v 17.1 0.7 -4
v 19.3 0.7 -4
v 19.4 0.7 -4
v 17.2 0.7 -4.1
v 19.2 0.7 -4.1
v 17.2 0.7 -4.9
v 19.2 0.7 -4.9
v 17 0.7 -5
v 17.1 0.7 -5
v 19.3 0.7 -5
v 19.4 0.7 -5
v 17 0.7 -5.1
v 17.1 0.7 -5.1
v 19.3 0.7 -5.1
v 19.4 0.7 -5.1

# faces
f 3/2/1 2/2/1 1/2/1
f 4/2/1 2/2/1 3/2/1
f 5/2/1 3/2/1 1/2/1
f 6/2/1 3/2/1 5/2/1
f 7/2/1 2/2/1 4/2/1
f 8/2/1 2/2/1 7/2/1
f 11/3/1 10/3/1 9/3/1
f 12/3/1 10/3/1 11/3/1
f 13/1/1 12/1/1 11/1/1
f 14/1/1 12/1/1 13/1/1
f 15/3/1 14/3/1 13/3/1
f 16/3/1 14/3/1 15/3/1
f 17/1/1 16/1/1 15/1/1
f 18/1/1 16/1/1 17/1/1
f 19/3/1 18/3/1 17/3/1
f 20/3/1 18/3/1 19/3/1
f 21/1/1 20/1/1 19/1/1
f 22/1/1 20/1/1 21/1/1
f 25/3/1 24/3/1 23/3/1
f 26/3/1 24/3/1 25/3/1
f 27/1/1 26/1/1 25/1/1
f 28/1/1 26/1/1 27/1/1
f 29/3/1 28/3/1 27/3/1
f 30/3/1 28/3/1 29/3/1
f 31/1/1 30/1/1 29/1/1
f 32/1/1 30/1/1 31/1/1
f 33/3/1 32/3/1 31/3/1
f 34/3/1 32/3/1 33/3/1
f 35/1/1 34/1/1 33/1/1
f 36/1/1 34/1/1 35/1/1
f 41/2/1 38/2/1 37/2/1
f 42/2/1 40/2/1 39/2/1
f 43/2/1 41/2/1 37/2/1
f 44/2/1 40/2/1 42/2/1
f 45/2/1 43/2/1 37/2/1
f 46/2/1 40/2/1 44/2/1
f 47/2/1 45/2/1 37/2/1
f 48/2/1 40/2/1 46/2/1
f 49/2/1 47/2/1 37/2/1
f 50/2/1 40/2/1 48/2/1
f 51/2/1 49/2/1 37/2/1
f 52/2/1 49/2/1 51/2/1
f 53/2/1 40/2/1 50/2/1
f 54/2/1 40/2/1 53/2/1
f 55/2/2 56/2/2 59/2/2
f 57/2/2 58/2/2 60/2/2
f 55/2/2 59/2/2 61/2/2
f 60/2/2 58/2/2 62/2/2
f 55/2/2 61/2/2 63/2/2
f 62/2/2 58/2/2 64/2/2
f 55/2/2 63/2/2 65/2/2
f 64/2/2 58/2/2 66/2/2
f 55/2/2 65/2/2 67/2/2
f 66/2/2 58/2/2 68/2/2
f 55/2/2 67/2/2 69/2/2
f 69/2/2 67/2/2 70/2/2
f 68/2/2 58/2/2 71/2/2
f 71/2/2 58/2/2 72/2/2
f 73/3/2 74/3/2 75/3/2
f 75/3/2 74/3/2 76/3/2
f 75/1/2 76/1/2 77/1/2
f 77/1/2 76/1/2 78/1/2
f 77/3/2 78/3/2 79/3/2
f 79/3/2 78/3/2 80/3/2
f 79/1/2 80/1/2 81/1/2
f 81/1/2 80/1/2 82/1/2
f 81/3/2 82/3/2 83/3/2
f 83/3/2 82/3/2 84/3/2
f 83/1/2 84/1/2 85/1/2
f 85/1/2 84/1/2 86/1/2
f 87/3/2 88/3/2 89/3/2
f 89/3/2 88/3/2 90/3/2
f 89/1/2 90/1/2 91/1/2
f 91/1/2 90/1/2 92/1/2
f 91/3/2 92/3/2 93/3/2
f 93/3/2 92/3/2 94/3/2
f 93/1/2 94/1/2 95/1/2
f 95/1/2 94/1/2 96/1/2
f 95/3/2 96/3/2 97/3/2
f 97/3/2 96/3/2 98/3/2
f 97/1/2 98/1/2 99/1/2
f 99/1/2 98/1/2 100/1/2
f 101/2/2 102/2/2 103/2/2
f 103/2/2 102/2/2 104/2/2
f 101/2/2 103/2/2 105/2/2
f 105/2/2 103/2/2 106/2/2
f 104/2/2 102/2/2 107/2/2
f 107/2/2 102/2/2 108/2/2
f 111/2/3 110/2/3 109/2/3
f 112/2/3 110/2/3 111/2/3
f 113/2/3 111/2/3 109/2/3
f 115/2/3 113/2/3 109/2/3
f 115/2/3 114/2/3 113/2/3
f 116/2/3 114/2/3 115/2/3
f 124/3/3 118/3/3 117/3/3
f 125/1/3 119/1/3 118/1/3
f 125/3/3 118/3/3 124/3/3
f 126/3/3 120/3/3 119/3/3
f 126/1/3 119/1/3 125/1/3
f 127/1/3 121/1/3 120/1/3
f 127/3/3 120/3/3 126/3/3
f 128/3/3 122/3/3 121/3/3
f 128/1/3 121/1/3 127/1/3
f 129/1/3 123/1/3 122/1/3
f 129/3/3 122/3/3 128/3/3
f 130/1/3 123/1/3 129/1/3
f 138/3/3 132/3/3 131/3/3
f 139/1/3 133/1/3 132/1/3
f 139/3/3 132/3/3 138/3/3
f 140/3/3 134/3/3 133/3/3
f 140/1/3 133/1/3 139/1/3
f 141/1/3 135/1/3 134/1/3
f 141/3/3 134/3/3 140/3/3
f 142/3/3 136/3/3 135/3/3
f 142/1/3 135/1/3 141/1/3
f 143/1/3 137/1/3 136/1/3
f 143/3/3 136/3/3 142/3/3
f 144/1/3 137/1/3 143/1/3
f 147/2/3 146/2/3 145/2/3
f 148/2/3 146/2/3 147/2/3
f 149/2/3 146/2/3 148/2/3
f 150/2/3 146/2/3 149/2/3
f 151/2/3 146/2/3 150/2/3
f 152/2/3 146/2/3 151/2/3
f 153/2/3 146/2/3 152/2/3
f 161/2/3 155/2/3 154/2/3
f 161/2/3 160/2/3 159/2/3
f 161/2/3 159/2/3 158/2/3
f 161/2/3 158/2/3 157/2/3
f 161/2/3 157/2/3 156/2/3
f 161/2/3 156/2/3 155/2/3
f 162/2/3 160/2/3 161/2/3
f 163/2/4 164/2/4 165/2/4
f 165/2/4 164/2/4 166/2/4
f 166/2/4 164/2/4 167/2/4
f 167/2/4 164/2/4 168/2/4
f 168/2/4 164/2/4 169/2/4
f 169/2/4 164/2/4 170/2/4
f 170/2/4 164/2/4 171/2/4
f 172/2/4 173/2/4 179/2/4
f 177/2/4 178/2/4 179/2/4
f 176/2/4 177/2/4 179/2/4
f 175/2/4 176/2/4 179/2/4
f 174/2/4 175/2/4 179/2/4
f 173/2/4 174/2/4 179/2/4
f 179/2/4 178/2/4 180/2/4
f 181/3/4 182/3/4 188/3/4
f 182/1/4 183/1/4 189/1/4
f 188/3/4 182/3/4 189/3/4
f 183/3/4 184/3/4 190/3/4
f 189/1/4 183/1/4 190/1/4
f 184/1/4 185/1/4 191/1/4
f 190/3/4 184/3/4 191/3/4
f 185/3/4 186/3/4 192/3/4
f 191/1/4 185/1/4 192/1/4
f 186/1/4 187/1/4 193/1/4
f 192/3/4 186/3/4 193/3/4
f 193/1/4 187/1/4 194/1/4
f 195/3/4 196/3/4 202/3/4
f 196/1/4 197/1/4 203/1/4
f 202/3/4 196/3/4 203/3/4
f 197/3/4 198/3/4 204/3/4
f 203/1/4 197/1/4 204/1/4
f 198/1/4 199/1/4 205/1/4
f 204/3/4 198/3/4 205/3/4
f 199/3/4 200/3/4 206/3/4
f 205/1/4 199/1/4 206/1/4
f 200/1/4 201/1/4 207/1/4
f 206/3/4 200/3/4 207/3/4
f 207/1/4 201/1/4 208/1/4
f 209/2/4 210/2/4 211/2/4
f 211/2/4 210/2/4 212/2/4
f 209/2/4 211/2/4 213/2/4
f 209/2/4 213/2/4 215/2/4
f 213/2/4 214/2/4 215/2/4
f 215/2/4 214/2/4 216/2/4
f 219/2/5 218/2/5 217/2/5
f 220/2/5 218/2/5 219/2/5
f 221/2/5 219/2/5 217/2/5
f 221/1/5 220/1/5 219/1/5
f 222/2/5 218/2/5 220/2/5
f 222/1/5 220/1/5 221/1/5
f 223/2/5 221/2/5 217/2/5
f 223/2/5 222/2/5 221/2/5
f 224/2/5 218/2/5 222/2/5
f 224/2/5 222/2/5 223/2/5
f 225/2/6 226/2/6 228/2/6
f 228/2/6 226/2/6 229/2/6
f 231/1/6 232/1/6 233/1/6
f 233/1/6 232/1/6 234/1/6
f 227/2/6 228/2/6 235/2/6
f 235/2/6 228/2/6 236/2/6
f 229/2/6 230/2/6 237/2/6
f 237/2/6 230/2/6 238/2/6
f 236/2/6 237/2/6 239/2/6
f 239/2/6 237/2/6 240/2/6
f 241/2/6 242/2/6 245/2/6
f 245/2/6 242/2/6 246/2/6
f 243/2/6 244/2/6 247/2/6
f 247/2/6 244/2/6 248/2/6
f 246/1/6 247/1/6 249/1/6
f 249/1/6 247/1/6 250/1/6
f 246/1/6 249/1/6 251/1/6
f 250/1/6 247/1/6 252/1/6
f 246/1/6 251/1/6 254/1/6
f 251/1/6 252/1/6 254/1/6
f 252/1/6 247/1/6 255/1/6
f 254/1/6 252/1/6 255/1/6
f 253/2/6 254/2/6 257/2/6
f 257/2/6 254/2/6 258/2/6
f 255/2/6 256/2/6 259/2/6
f 259/2/6 256/2/6 260/2/6
