# MagicaVoxel @ Ephtracy

# group
o 

# material
mtllib Animals-35.mtl
usemtl palette

# normals
vn -1 0 0
vn 1 0 0
vn 0 0 1
vn 0 0 -1
vn 0 -1 0
vn 0 1 0

# texcoords
vt 0.876953 0.5
vt 0.880859 0.5
vt 0.884766 0.5
vt 0.888672 0.5
vt 0.892578 0.5
vt 0.939453 0.5
vt 0.978516 0.5

# verts
v 7.9 0.7 10.2
v 7.9 0.7 10.1
v 7.9 0.8 10.2
v 7.9 0.8 10.1
v 8.3 0 10.4
v 8.3 0 10.2
v 8.3 0 10
v 8.3 0 9.8
v 8.3 0.2 10.4
v 8.3 0.2 10.2
v 8.3 0.2 10
v 8.3 0.2 9.8
v 8.3 0.5 10.4
v 8.3 0.5 10.2
v 8.3 0.5 10
v 8.3 0.6 10.2
v 8.3 0.6 10
v 8.3 0.6 9.9
v 8.3 0.6 9.8
v 8.3 0.7 10.4
v 8.3 0.7 10.3
v 8.3 0.7 10.2
v 8.3 0.7 10.1
v 8.3 0.8 10.3
v 8.3 0.8 10.2
v 8.3 0.8 10.1
v 8.3 0.8 10
v 8.3 0.8 9.9
v 8.3 0.8 9.8
v 8.3 0.9 10.4
v 8.3 0.9 9.8
v 9 0.9 10.4
v 9 0.9 10.3
v 9 0.9 10.2
v 9 0.9 10.1
v 9 0.9 10
v 9 0.9 9.9
v 9 0.9 9.8
v 9 1 10.4
v 9 1 10.3
v 9 1 10.2
v 9 1 10
v 9 1 9.9
v 9 1 9.8
v 9 1.1 10.4
v 9 1.1 10.3
v 9 1.1 10.1
v 9 1.1 10
v 9 1.2 10.3
v 9 1.2 10.2
v 9 1.3 10.2
v 9 1.3 10.1
v 9 1.3 10
v 9 1.3 9.8
v 9 1.4 10.4
v 9 1.4 10.3
v 9 1.4 10.2
v 9 1.4 10
v 9 1.4 9.8
v 9 1.5 10.2
v 9 1.5 10
v 9.1 1 10.5
v 9.1 1 10.4
v 9.1 1 9.8
v 9.1 1 9.7
v 9.1 1.1 10.4
v 9.1 1.3 10.5
v 9.1 1.3 10.4
v 9.1 1.3 9.8
v 9.1 1.3 9.7
v 9.1 1.4 10.3
v 9.1 1.4 10.2
v 9.1 1.4 10
v 9.1 1.4 9.9
v 9.1 1.5 10.3
v 9.1 1.5 10.2
v 9.1 1.5 10
v 9.1 1.5 9.9
v 9.1 1.6 10.2
v 9.1 1.6 10
v 9.2 0 10.4
v 9.2 0 10.2
v 9.2 0 10
v 9.2 0 9.8
v 9.2 0.2 10.4
v 9.2 0.2 10.2
v 9.2 0.2 10
v 9.2 0.2 9.8
v 9.2 0.5 10.4
v 9.2 0.5 10.2
v 9.2 0.5 10
v 9.2 0.5 9.9
v 9.2 0.5 9.8
v 8.5 0 10.4
v 8.5 0 10.2
v 8.5 0 10
v 8.5 0 9.8
v 8.5 0.2 10.4
v 8.5 0.2 10.2
v 8.5 0.2 10
v 8.5 0.2 9.8
v 8.5 0.5 10.4
v 8.5 0.5 10.3
v 8.5 0.5 10.2
v 8.5 0.5 10
v 8.5 0.5 9.8
v 9.3 1 10.5
v 9.3 1 10.4
v 9.3 1 9.8
v 9.3 1 9.7
v 9.3 1.2 10.4
v 9.3 1.3 10.5
v 9.3 1.3 10.4
v 9.3 1.3 9.8
v 9.3 1.3 9.7
v 9.4 0 10.4
v 9.4 0 10.2
v 9.4 0 10
v 9.4 0 9.8
v 9.4 0.2 10.4
v 9.4 0.2 10.2
v 9.4 0.2 10
v 9.4 0.2 9.8
v 9.4 0.5 10.3
v 9.4 0.5 10.2
v 9.4 0.5 10.1
v 9.4 0.5 10
v 9.4 0.6 10.4
v 9.4 0.6 10.3
v 9.4 0.6 10.1
v 9.4 0.6 9.8
v 9.4 0.7 10.3
v 9.4 0.7 10
v 9.4 0.8 10.4
v 9.4 0.8 10.3
v 9.4 0.8 10
v 9.4 0.8 9.8
v 9.4 1.4 10.3
v 9.4 1.4 10.2
v 9.4 1.4 10
v 9.4 1.4 9.9
v 9.4 1.5 10.3
v 9.4 1.5 10.2
v 9.4 1.5 10
v 9.4 1.5 9.9
v 9.4 1.6 10.2
v 9.4 1.6 10
v 9.5 0.8 10.4
v 9.5 0.8 10.2
v 9.5 0.8 10
v 9.5 0.8 9.8
v 9.5 0.9 10.2
v 9.5 0.9 10
v 9.5 1.1 10.3
v 9.5 1.1 10.2
v 9.5 1.1 10
v 9.5 1.1 9.9
v 9.5 1.2 10.3
v 9.5 1.2 10.2
v 9.5 1.2 10
v 9.5 1.2 9.9
v 9.5 1.3 10.3
v 9.5 1.3 10.2
v 9.5 1.3 10
v 9.5 1.3 9.9
v 9.5 1.4 10.4
v 9.5 1.4 10.2
v 9.5 1.4 10
v 9.5 1.4 9.8
v 9.5 1.5 10.2
v 9.5 1.5 10
v 9.6 0.8 10.2
v 9.6 0.8 10
v 9.6 0.9 10.2
v 9.6 0.9 10
v 9.7 0.9 10.2
v 9.7 0.9 10
v 9.7 1.1 10.2
v 9.7 1.1 10
v 9.1 1 10.5
v 9.1 1.3 10.5
v 9.3 1 10.5
v 9.3 1.3 10.5
v 8.3 0 10.4
v 8.3 0.2 10.4
v 8.3 0.5 10.4
v 8.3 0.7 10.4
v 8.3 0.9 10.4
v 8.4 0.5 10.4
v 8.4 0.7 10.4
v 8.4 0.8 10.4
v 8.4 0.9 10.4
v 8.5 0 10.4
v 8.5 0.2 10.4
v 8.5 0.5 10.4
v 8.5 0.7 10.4
v 8.6 0.8 10.4
v 8.6 0.9 10.4
v 8.7 0.6 10.4
v 8.7 0.7 10.4
v 8.7 0.8 10.4
v 8.7 0.9 10.4
v 8.8 0.7 10.4
v 8.8 0.8 10.4
v 8.9 0.5 10.4
v 8.9 0.6 10.4
v 9 0.7 10.4
v 9 0.8 10.4
v 9 0.9 10.4
v 9 1 10.4
v 9 1.1 10.4
v 9 1.4 10.4
v 9.1 0.9 10.4
v 9.1 1 10.4
v 9.1 1.1 10.4
v 9.1 1.3 10.4
v 9.2 0 10.4
v 9.2 0.2 10.4
v 9.2 0.5 10.4
v 9.2 0.6 10.4
v 9.2 0.8 10.4
v 9.3 1 10.4
v 9.3 1.2 10.4
v 9.3 1.3 10.4
v 9.4 0 10.4
v 9.4 0.2 10.4
v 9.4 0.6 10.4
v 9.4 0.8 10.4
v 9.4 0.9 10.4
v 9.4 1.2 10.4
v 9.4 1.4 10.4
v 9.5 0.8 10.4
v 9.5 1.4 10.4
v 9.1 1.4 10.3
v 9.1 1.5 10.3
v 9.2 1.4 10.3
v 9.2 1.5 10.3
v 9.4 1.4 10.3
v 9.4 1.5 10.3
v 7.9 0.7 10.2
v 7.9 0.8 10.2
v 8 0.7 10.2
v 8 0.8 10.2
v 8.3 0.7 10.2
v 8.3 0.8 10.2
v 9 1.4 10.2
v 9 1.5 10.2
v 9.1 1.4 10.2
v 9.1 1.5 10.2
v 9.1 1.6 10.2
v 9.2 1.5 10.2
v 9.2 1.6 10.2
v 9.4 1.4 10.2
v 9.4 1.5 10.2
v 9.4 1.6 10.2
v 9.5 0.8 10.2
v 9.5 0.9 10.2
v 9.5 1.1 10.2
v 9.5 1.4 10.2
v 9.5 1.5 10.2
v 9.6 0.8 10.2
v 9.6 0.9 10.2
v 9.7 0.9 10.2
v 9.7 1.1 10.2
v 8.3 0 10
v 8.3 0.2 10
v 8.3 0.5 10
v 8.5 0 10
v 8.5 0.2 10
v 8.5 0.5 10
v 9.2 0 10
v 9.2 0.2 10
v 9.2 0.5 10
v 9.4 0 10
v 9.4 0.2 10
v 9.4 0.5 10
v 8.3 0 10.2
v 8.3 0.2 10.2
v 8.3 0.5 10.2
v 8.5 0 10.2
v 8.5 0.2 10.2
v 8.5 0.5 10.2
v 9.2 0 10.2
v 9.2 0.2 10.2
v 9.2 0.5 10.2
v 9.3 0.5 10.2
v 9.4 0 10.2
v 9.4 0.2 10.2
v 9.4 0.5 10.2
v 7.9 0.7 10.1
v 7.9 0.8 10.1
v 8 0.7 10.1
v 8 0.8 10.1
v 8.3 0.7 10.1
v 8.3 0.8 10.1
v 9 1.4 10
v 9 1.5 10
v 9.1 1.4 10
v 9.1 1.5 10
v 9.1 1.6 10
v 9.2 1.5 10
v 9.2 1.6 10
v 9.3 1.5 10
v 9.4 1.4 10
v 9.4 1.5 10
v 9.4 1.6 10
v 9.5 0.8 10
v 9.5 0.9 10
v 9.5 1.1 10
v 9.5 1.4 10
v 9.5 1.5 10
v 9.6 0.8 10
v 9.6 0.9 10
v 9.7 0.9 10
v 9.7 1.1 10
v 9.1 1.4 9.9
v 9.1 1.5 9.9
v 9.2 1.4 9.9
v 9.3 1.4 9.9
v 9.3 1.5 9.9
v 9.4 1.4 9.9
v 9.4 1.5 9.9
v 8.3 0 9.8
v 8.3 0.2 9.8
v 8.3 0.6 9.8
v 8.3 0.8 9.8
v 8.3 0.9 9.8
v 8.4 0.5 9.8
v 8.4 0.6 9.8
v 8.5 0 9.8
v 8.5 0.2 9.8
v 8.5 0.5 9.8
v 8.5 0.8 9.8
v 8.6 0.6 9.8
v 8.6 0.9 9.8
v 8.8 0.8 9.8
v 8.8 0.9 9.8
v 8.9 0.6 9.8
v 8.9 0.7 9.8
v 9 0.7 9.8
v 9 0.8 9.8
v 9 0.9 9.8
v 9 1 9.8
v 9 1.3 9.8
v 9 1.4 9.8
v 9.1 0.5 9.8
v 9.1 0.7 9.8
v 9.1 0.8 9.8
v 9.1 0.9 9.8
v 9.1 1 9.8
v 9.1 1.3 9.8
v 9.2 0 9.8
v 9.2 0.2 9.8
v 9.2 0.5 9.8
v 9.2 1.3 9.8
v 9.2 1.4 9.8
v 9.3 0.5 9.8
v 9.3 0.6 9.8
v 9.3 0.7 9.8
v 9.3 0.8 9.8
v 9.3 0.9 9.8
v 9.3 1 9.8
v 9.3 1.3 9.8
v 9.4 0 9.8
v 9.4 0.2 9.8
v 9.4 0.6 9.8
v 9.4 0.8 9.8
v 9.4 0.9 9.8
v 9.5 0.8 9.8
v 9.5 1.4 9.8
v 9.1 1 9.7
v 9.1 1.3 9.7
v 9.3 1 9.7
v 9.3 1.3 9.7
v 8.3 0 10.4
v 8.5 0 10.4
v 9.2 0 10.4
v 9.4 0 10.4
v 8.3 0 10.2
v 8.5 0 10.2
v 9.2 0 10.2
v 9.4 0 10.2
v 8.3 0 10
v 8.5 0 10
v 9.2 0 10
v 9.4 0 10
v 8.3 0 9.8
v 8.5 0 9.8
v 9.2 0 9.8
v 9.4 0 9.8
v 8.5 0.5 10.4
v 8.9 0.5 10.4
v 9.2 0.5 10.4
v 8.5 0.5 10.3
v 8.9 0.5 10.3
v 8.3 0.5 10.2
v 8.5 0.5 10.2
v 9.2 0.5 10.2
v 9.3 0.5 10.2
v 9.4 0.5 10.2
v 9.3 0.5 10.1
v 9.4 0.5 10.1
v 8.3 0.5 10
v 8.5 0.5 10
v 9.2 0.5 10
v 9.4 0.5 10
v 9.1 0.5 9.9
v 9.2 0.5 9.9
v 8.5 0.5 9.8
v 9.1 0.5 9.8
v 9.2 0.5 9.8
v 7.9 0.7 10.2
v 8 0.7 10.2
v 8.3 0.7 10.2
v 7.9 0.7 10.1
v 8 0.7 10.1
v 8.3 0.7 10.1
v 9.4 0.8 10.4
v 9.5 0.8 10.4
v 9.4 0.8 10.3
v 9.5 0.8 10.2
v 9.6 0.8 10.2
v 9.4 0.8 10
v 9.5 0.8 10
v 9.6 0.8 10
v 9.4 0.8 9.8
v 9.5 0.8 9.8
v 9.6 0.9 10.2
v 9.7 0.9 10.2
v 9.6 0.9 10
v 9.7 0.9 10
v 9.1 1 10.5
v 9.3 1 10.5
v 9.1 1 10.4
v 9.3 1 10.4
v 9.1 1 9.8
v 9.3 1 9.8
v 9.1 1 9.7
v 9.3 1 9.7
v 7.9 0.8 10.2
v 8 0.8 10.2
v 8.3 0.8 10.2
v 7.9 0.8 10.1
v 8 0.8 10.1
v 8.3 0.8 10.1
v 8.3 0.9 10.4
v 8.4 0.9 10.4
v 8.6 0.9 10.4
v 8.7 0.9 10.4
v 9 0.9 10.4
v 8.6 0.9 10.3
v 8.7 0.9 10.3
v 8.9 0.9 10.3
v 9 0.9 10.3
v 8.7 0.9 10.2
v 8.9 0.9 10.2
v 9 0.9 10.2
v 8.4 0.9 10.1
v 8.6 0.9 10.1
v 8.7 0.9 10.1
v 9 0.9 10.1
v 8.6 0.9 10
v 8.7 0.9 10
v 8.9 0.9 10
v 9 0.9 10
v 8.6 0.9 9.9
v 8.7 0.9 9.9
v 8.8 0.9 9.9
v 8.9 0.9 9.9
v 9 0.9 9.9
v 8.3 0.9 9.8
v 8.6 0.9 9.8
v 8.8 0.9 9.8
v 9 0.9 9.8
v 9.5 1.1 10.2
v 9.7 1.1 10.2
v 9.5 1.1 10
v 9.7 1.1 10
v 9.1 1.3 10.5
v 9.3 1.3 10.5
v 9.1 1.3 10.4
v 9.3 1.3 10.4
v 9.1 1.3 9.8
v 9.2 1.3 9.8
v 9.3 1.3 9.8
v 9.1 1.3 9.7
v 9.3 1.3 9.7
v 9 1.4 10.4
v 9.4 1.4 10.4
v 9.5 1.4 10.4
v 9 1.4 10.3
v 9.1 1.4 10.3
v 9.2 1.4 10.3
v 9.4 1.4 10.3
v 9 1.4 10.2
v 9.1 1.4 10.2
v 9.4 1.4 10.2
v 9.5 1.4 10.2
v 9 1.4 10
v 9.1 1.4 10
v 9.4 1.4 10
v 9.5 1.4 10
v 9.1 1.4 9.9
v 9.2 1.4 9.9
v 9.3 1.4 9.9
v 9.4 1.4 9.9
v 9 1.4 9.8
v 9.2 1.4 9.8
v 9.5 1.4 9.8
v 9.1 1.5 10.3
v 9.2 1.5 10.3
v 9.4 1.5 10.3
v 9 1.5 10.2
v 9.1 1.5 10.2
v 9.2 1.5 10.2
v 9.4 1.5 10.2
v 9.5 1.5 10.2
v 9 1.5 10
v 9.1 1.5 10
v 9.2 1.5 10
v 9.3 1.5 10
v 9.4 1.5 10
v 9.5 1.5 10
v 9.1 1.5 9.9
v 9.3 1.5 9.9
v 9.4 1.5 9.9
v 9.1 1.6 10.2
v 9.2 1.6 10.2
v 9.4 1.6 10.2
v 9.1 1.6 10
v 9.2 1.6 10
v 9.4 1.6 10

# faces
f 3/5/1 2/5/1 1/5/1
f 4/5/1 2/5/1 3/5/1
f 9/2/1 6/2/1 5/2/1
f 10/2/1 6/2/1 9/2/1
f 11/2/1 8/2/1 7/2/1
f 12/2/1 8/2/1 11/2/1
f 13/1/1 10/1/1 9/1/1
f 14/1/1 10/1/1 13/1/1
f 15/1/1 12/1/1 11/1/1
f 16/5/1 14/5/1 13/5/1
f 16/1/1 15/1/1 14/1/1
f 17/1/1 12/1/1 15/1/1
f 17/1/1 15/1/1 16/1/1
f 18/1/1 12/1/1 17/1/1
f 19/1/1 12/1/1 18/1/1
f 20/5/1 16/5/1 13/5/1
f 20/5/1 17/5/1 16/5/1
f 21/5/1 17/5/1 20/5/1
f 22/5/1 17/5/1 21/5/1
f 23/5/1 17/5/1 22/5/1
f 24/1/1 21/1/1 20/1/1
f 24/5/1 22/5/1 21/5/1
f 25/5/1 22/5/1 24/5/1
f 26/5/1 17/5/1 23/5/1
f 27/1/1 18/1/1 17/1/1
f 27/5/1 17/5/1 26/5/1
f 28/5/1 19/5/1 18/5/1
f 28/1/1 18/1/1 27/1/1
f 29/5/1 19/5/1 28/5/1
f 30/1/1 27/1/1 26/1/1
f 30/1/1 26/1/1 25/1/1
f 30/1/1 29/1/1 28/1/1
f 30/1/1 28/1/1 27/1/1
f 30/1/1 25/1/1 24/1/1
f 30/1/1 24/1/1 20/1/1
f 31/1/1 29/1/1 30/1/1
f 39/5/1 33/5/1 32/5/1
f 39/5/1 34/5/1 33/5/1
f 40/5/1 34/5/1 39/5/1
f 41/1/1 37/1/1 36/1/1
f 41/5/1 34/5/1 40/5/1
f 41/1/1 35/1/1 34/1/1
f 41/1/1 36/1/1 35/1/1
f 42/1/1 37/1/1 41/1/1
f 43/5/1 38/5/1 37/5/1
f 43/1/1 37/1/1 42/1/1
f 44/5/1 38/5/1 43/5/1
f 45/1/1 40/1/1 39/1/1
f 46/5/1 42/5/1 41/5/1
f 46/1/1 40/1/1 45/1/1
f 46/5/1 41/5/1 40/5/1
f 47/5/1 42/5/1 46/5/1
f 48/1/1 44/1/1 43/1/1
f 48/5/1 42/5/1 47/5/1
f 48/1/1 43/1/1 42/1/1
f 49/5/1 47/5/1 46/5/1
f 49/5/1 46/5/1 45/5/1
f 50/5/1 47/5/1 49/5/1
f 51/1/1 50/1/1 49/1/1
f 51/5/1 47/5/1 50/5/1
f 52/1/1 48/1/1 47/1/1
f 52/5/1 47/5/1 51/5/1
f 53/1/1 44/1/1 48/1/1
f 53/1/1 48/1/1 52/1/1
f 54/1/1 44/1/1 53/1/1
f 55/5/1 49/5/1 45/5/1
f 56/1/1 52/1/1 51/1/1
f 56/5/1 49/5/1 55/5/1
f 56/1/1 51/1/1 49/1/1
f 56/1/1 53/1/1 52/1/1
f 57/1/1 53/1/1 56/1/1
f 58/5/1 54/5/1 53/5/1
f 58/1/1 53/1/1 57/1/1
f 59/5/1 54/5/1 58/5/1
f 60/1/1 58/1/1 57/1/1
f 61/1/1 58/1/1 60/1/1
f 66/3/1 63/3/1 62/3/1
f 67/3/1 66/3/1 62/3/1
f 68/3/1 66/3/1 67/3/1
f 69/3/1 65/3/1 64/3/1
f 70/3/1 65/3/1 69/3/1
f 75/1/1 72/1/1 71/1/1
f 76/1/1 72/1/1 75/1/1
f 77/5/1 74/5/1 73/5/1
f 78/5/1 74/5/1 77/5/1
f 79/1/1 77/1/1 76/1/1
f 80/1/1 77/1/1 79/1/1
f 85/2/1 82/2/1 81/2/1
f 86/2/1 82/2/1 85/2/1
f 87/2/1 84/2/1 83/2/1
f 88/2/1 84/2/1 87/2/1
f 89/1/1 86/1/1 85/1/1
f 90/1/1 86/1/1 89/1/1
f 91/1/1 88/1/1 87/1/1
f 92/1/1 88/1/1 91/1/1
f 93/1/1 88/1/1 92/1/1
f 94/2/2 95/2/2 98/2/2
f 98/2/2 95/2/2 99/2/2
f 96/2/2 97/2/2 100/2/2
f 100/2/2 97/2/2 101/2/2
f 98/1/2 99/1/2 102/1/2
f 102/1/2 99/1/2 103/1/2
f 103/1/2 99/1/2 104/1/2
f 100/1/2 101/1/2 105/1/2
f 105/1/2 101/1/2 106/1/2
f 107/3/2 108/3/2 111/3/2
f 107/3/2 111/3/2 112/3/2
f 112/3/2 111/3/2 113/3/2
f 109/3/2 110/3/2 114/3/2
f 114/3/2 110/3/2 115/3/2
f 116/2/2 117/2/2 120/2/2
f 120/2/2 117/2/2 121/2/2
f 118/2/2 119/2/2 122/2/2
f 122/2/2 119/2/2 123/2/2
f 120/1/2 121/1/2 124/1/2
f 124/1/2 121/1/2 125/1/2
f 122/1/2 123/1/2 127/1/2
f 120/1/2 124/1/2 128/1/2
f 125/5/2 126/5/2 129/5/2
f 128/1/2 124/1/2 129/1/2
f 124/5/2 125/5/2 129/5/2
f 126/1/2 127/1/2 130/1/2
f 129/5/2 126/5/2 130/5/2
f 127/1/2 123/1/2 131/1/2
f 130/1/2 127/1/2 131/1/2
f 128/5/2 129/5/2 132/5/2
f 129/5/2 130/5/2 132/5/2
f 130/5/2 131/5/2 132/5/2
f 132/5/2 131/5/2 133/5/2
f 128/5/2 132/5/2 134/5/2
f 132/1/2 133/1/2 135/1/2
f 134/5/2 132/5/2 135/5/2
f 133/5/2 131/5/2 136/5/2
f 135/1/2 133/1/2 136/1/2
f 136/5/2 131/5/2 137/5/2
f 138/5/2 139/5/2 142/5/2
f 142/5/2 139/5/2 143/5/2
f 140/1/2 141/1/2 144/1/2
f 144/1/2 141/1/2 145/1/2
f 143/5/2 144/5/2 146/5/2
f 146/5/2 144/5/2 147/5/2
f 148/1/2 149/1/2 152/1/2
f 150/1/2 151/1/2 153/1/2
f 148/1/2 152/1/2 154/1/2
f 154/1/2 152/1/2 155/1/2
f 153/1/2 151/1/2 156/1/2
f 156/1/2 151/1/2 157/1/2
f 154/7/2 155/7/2 158/7/2
f 148/1/2 154/1/2 158/1/2
f 155/1/2 156/1/2 159/1/2
f 158/7/2 155/7/2 159/7/2
f 156/7/2 157/7/2 160/7/2
f 159/1/2 156/1/2 160/1/2
f 157/1/2 151/1/2 161/1/2
f 160/7/2 157/7/2 161/7/2
f 158/6/2 159/6/2 162/6/2
f 148/1/2 158/1/2 162/1/2
f 159/1/2 160/1/2 163/1/2
f 162/6/2 159/6/2 163/6/2
f 160/6/2 161/6/2 164/6/2
f 163/1/2 160/1/2 164/1/2
f 161/1/2 151/1/2 165/1/2
f 164/6/2 161/6/2 165/6/2
f 148/1/2 162/1/2 166/1/2
f 163/1/2 164/1/2 166/1/2
f 164/1/2 165/1/2 166/1/2
f 162/1/2 163/1/2 166/1/2
f 166/1/2 165/1/2 167/1/2
f 167/1/2 165/1/2 168/1/2
f 165/1/2 151/1/2 169/1/2
f 168/1/2 165/1/2 169/1/2
f 167/1/2 168/1/2 170/1/2
f 170/1/2 168/1/2 171/1/2
f 172/4/2 173/4/2 174/4/2
f 174/4/2 173/4/2 175/4/2
f 176/2/2 177/2/2 178/2/2
f 178/2/2 177/2/2 179/2/2
f 182/3/3 181/3/3 180/3/3
f 183/3/3 181/3/3 182/3/3
f 189/1/3 186/1/3 185/1/3
f 189/5/3 187/5/3 186/5/3
f 190/1/3 188/1/3 187/1/3
f 190/5/3 187/5/3 189/5/3
f 191/1/3 188/1/3 190/1/3
f 192/1/3 188/1/3 191/1/3
f 193/2/3 185/2/3 184/2/3
f 194/1/3 189/1/3 185/1/3
f 194/2/3 185/2/3 193/2/3
f 194/1/3 190/1/3 189/1/3
f 194/1/3 191/1/3 190/1/3
f 195/1/3 191/1/3 194/1/3
f 196/1/3 191/1/3 195/1/3
f 197/5/3 192/5/3 191/5/3
f 197/1/3 191/1/3 196/1/3
f 198/5/3 192/5/3 197/5/3
f 199/5/3 196/5/3 195/5/3
f 200/1/3 197/1/3 196/1/3
f 200/5/3 196/5/3 199/5/3
f 200/1/3 198/1/3 197/1/3
f 201/1/3 198/1/3 200/1/3
f 202/1/3 198/1/3 201/1/3
f 203/1/3 200/1/3 199/1/3
f 203/1/3 201/1/3 200/1/3
f 204/5/3 202/5/3 201/5/3
f 204/1/3 201/1/3 203/1/3
f 205/5/3 199/5/3 195/5/3
f 206/1/3 203/1/3 199/1/3
f 206/5/3 199/5/3 205/5/3
f 207/5/3 204/5/3 203/5/3
f 207/1/3 203/1/3 206/1/3
f 207/1/3 206/1/3 205/1/3
f 208/5/3 202/5/3 204/5/3
f 208/5/3 204/5/3 207/5/3
f 209/5/3 202/5/3 208/5/3
f 213/5/3 209/5/3 208/5/3
f 213/5/3 210/5/3 209/5/3
f 214/1/3 211/1/3 210/1/3
f 214/5/3 210/5/3 213/5/3
f 215/5/3 212/5/3 211/5/3
f 215/1/3 211/1/3 214/1/3
f 216/5/3 212/5/3 215/5/3
f 219/1/3 208/1/3 207/1/3
f 219/1/3 207/1/3 205/1/3
f 220/1/3 208/1/3 219/1/3
f 221/5/3 213/5/3 208/5/3
f 221/1/3 208/1/3 220/1/3
f 222/1/3 214/1/3 213/1/3
f 224/5/3 212/5/3 216/5/3
f 225/2/3 218/2/3 217/2/3
f 226/1/3 220/1/3 219/1/3
f 226/2/3 218/2/3 225/2/3
f 226/1/3 219/1/3 218/1/3
f 227/5/3 221/5/3 220/5/3
f 227/1/3 220/1/3 226/1/3
f 228/5/3 213/5/3 221/5/3
f 228/5/3 221/5/3 227/5/3
f 229/1/3 223/1/3 222/1/3
f 229/5/3 213/5/3 228/5/3
f 229/1/3 222/1/3 213/1/3
f 230/5/3 224/5/3 223/5/3
f 230/1/3 223/1/3 229/1/3
f 231/5/3 212/5/3 224/5/3
f 231/5/3 224/5/3 230/5/3
f 232/1/3 229/1/3 228/1/3
f 232/1/3 231/1/3 230/1/3
f 232/1/3 230/1/3 229/1/3
f 233/1/3 231/1/3 232/1/3
f 236/1/3 235/1/3 234/1/3
f 237/1/3 235/1/3 236/1/3
f 238/5/3 237/5/3 236/5/3
f 239/5/3 237/5/3 238/5/3
f 242/5/3 241/5/3 240/5/3
f 243/5/3 241/5/3 242/5/3
f 244/1/3 243/1/3 242/1/3
f 245/1/3 243/1/3 244/1/3
f 248/1/3 247/1/3 246/1/3
f 249/1/3 247/1/3 248/1/3
f 251/1/3 250/1/3 249/1/3
f 252/1/3 250/1/3 251/1/3
f 254/5/3 252/5/3 251/5/3
f 255/5/3 252/5/3 254/5/3
f 259/1/3 254/1/3 253/1/3
f 260/1/3 254/1/3 259/1/3
f 261/4/3 257/4/3 256/4/3
f 262/2/3 258/2/3 257/2/3
f 262/4/3 257/4/3 261/4/3
f 263/2/3 258/2/3 262/2/3
f 264/2/3 258/2/3 263/2/3
f 268/2/3 266/2/3 265/2/3
f 269/1/3 267/1/3 266/1/3
f 269/2/3 266/2/3 268/2/3
f 270/1/3 267/1/3 269/1/3
f 274/2/3 272/2/3 271/2/3
f 275/1/3 273/1/3 272/1/3
f 275/2/3 272/2/3 274/2/3
f 276/1/3 273/1/3 275/1/3
f 277/2/4 278/2/4 280/2/4
f 278/1/4 279/1/4 281/1/4
f 280/2/4 278/2/4 281/2/4
f 281/1/4 279/1/4 282/1/4
f 284/1/4 285/1/4 286/1/4
f 283/2/4 284/2/4 287/2/4
f 284/1/4 286/1/4 288/1/4
f 287/2/4 284/2/4 288/2/4
f 288/1/4 286/1/4 289/1/4
f 290/5/4 291/5/4 292/5/4
f 292/5/4 291/5/4 293/5/4
f 292/1/4 293/1/4 294/1/4
f 294/1/4 293/1/4 295/1/4
f 296/1/4 297/1/4 298/1/4
f 298/1/4 297/1/4 299/1/4
f 299/1/4 300/1/4 301/1/4
f 301/1/4 300/1/4 302/1/4
f 301/5/4 302/5/4 303/5/4
f 303/5/4 302/5/4 305/5/4
f 305/5/4 302/5/4 306/5/4
f 304/1/4 305/1/4 310/1/4
f 310/1/4 305/1/4 311/1/4
f 307/4/4 308/4/4 312/4/4
f 308/2/4 309/2/4 313/2/4
f 312/4/4 308/4/4 313/4/4
f 313/2/4 309/2/4 314/2/4
f 314/2/4 309/2/4 315/2/4
f 316/5/4 317/5/4 318/5/4
f 318/5/4 317/5/4 319/5/4
f 319/5/4 317/5/4 320/5/4
f 319/1/4 320/1/4 321/1/4
f 321/1/4 320/1/4 322/1/4
f 324/1/4 325/1/4 328/1/4
f 325/5/4 326/5/4 329/5/4
f 328/1/4 325/1/4 329/1/4
f 323/2/4 324/2/4 330/2/4
f 324/1/4 328/1/4 331/1/4
f 330/2/4 324/2/4 331/2/4
f 328/5/4 329/5/4 332/5/4
f 331/1/4 328/1/4 332/1/4
f 329/5/4 326/5/4 333/5/4
f 332/5/4 329/5/4 333/5/4
f 326/1/4 327/1/4 333/1/4
f 332/1/4 333/1/4 334/1/4
f 333/1/4 327/1/4 335/1/4
f 334/1/4 333/1/4 335/1/4
f 334/5/4 335/5/4 336/5/4
f 336/5/4 335/5/4 337/5/4
f 332/1/4 334/1/4 338/1/4
f 334/5/4 336/5/4 338/5/4
f 338/5/4 336/5/4 339/5/4
f 338/1/4 339/1/4 340/1/4
f 339/5/4 336/5/4 340/5/4
f 336/1/4 337/1/4 341/1/4
f 340/5/4 336/5/4 341/5/4
f 341/1/4 337/1/4 342/1/4
f 341/1/4 342/1/4 346/1/4
f 340/1/4 341/1/4 346/1/4
f 338/1/4 340/1/4 346/1/4
f 332/1/4 338/1/4 346/1/4
f 346/1/4 342/1/4 347/1/4
f 347/1/4 342/1/4 348/1/4
f 342/5/4 343/5/4 349/5/4
f 348/1/4 342/1/4 349/1/4
f 343/1/4 344/1/4 350/1/4
f 349/5/4 343/5/4 350/5/4
f 344/5/4 345/5/4 351/5/4
f 350/1/4 344/1/4 351/1/4
f 346/5/4 347/5/4 354/5/4
f 351/5/4 345/5/4 355/5/4
f 355/5/4 345/5/4 356/5/4
f 353/1/4 354/1/4 357/1/4
f 354/5/4 347/5/4 357/5/4
f 357/5/4 347/5/4 358/5/4
f 347/1/4 348/1/4 359/1/4
f 358/5/4 347/5/4 359/5/4
f 349/5/4 350/5/4 360/5/4
f 359/1/4 348/1/4 360/1/4
f 348/5/4 349/5/4 360/5/4
f 360/5/4 350/5/4 361/5/4
f 361/5/4 350/5/4 362/5/4
f 355/1/4 356/1/4 363/1/4
f 352/2/4 353/2/4 364/2/4
f 353/1/4 357/1/4 365/1/4
f 364/2/4 353/2/4 365/2/4
f 357/1/4 358/1/4 365/1/4
f 358/5/4 359/5/4 366/5/4
f 365/1/4 358/1/4 366/1/4
f 359/5/4 360/5/4 366/5/4
f 360/5/4 361/5/4 366/5/4
f 366/5/4 361/5/4 367/5/4
f 362/1/4 363/1/4 368/1/4
f 367/5/4 361/5/4 368/5/4
f 361/1/4 362/1/4 368/1/4
f 367/1/4 368/1/4 369/1/4
f 368/1/4 363/1/4 370/1/4
f 369/1/4 368/1/4 370/1/4
f 363/1/4 356/1/4 370/1/4
f 371/3/4 372/3/4 373/3/4
f 373/3/4 372/3/4 374/3/4
f 379/2/5 376/2/5 375/2/5
f 380/2/5 376/2/5 379/2/5
f 381/2/5 378/2/5 377/2/5
f 382/2/5 378/2/5 381/2/5
f 387/2/5 384/2/5 383/2/5
f 388/2/5 384/2/5 387/2/5
f 389/2/5 386/2/5 385/2/5
f 390/2/5 386/2/5 389/2/5
f 394/5/5 392/5/5 391/5/5
f 395/1/5 393/1/5 392/1/5
f 395/5/5 392/5/5 394/5/5
f 397/1/5 395/1/5 394/1/5
f 398/1/5 393/1/5 395/1/5
f 398/1/5 395/1/5 397/1/5
f 401/1/5 397/1/5 396/1/5
f 401/5/5 400/5/5 399/5/5
f 401/1/5 399/1/5 398/1/5
f 401/1/5 398/1/5 397/1/5
f 402/5/5 400/5/5 401/5/5
f 403/1/5 401/1/5 396/1/5
f 403/1/5 402/1/5 401/1/5
f 404/1/5 402/1/5 403/1/5
f 405/1/5 402/1/5 404/1/5
f 406/1/5 402/1/5 405/1/5
f 407/1/5 405/1/5 404/1/5
f 408/1/5 405/1/5 407/1/5
f 409/1/5 407/1/5 404/1/5
f 410/5/5 408/5/5 407/5/5
f 410/1/5 407/1/5 409/1/5
f 411/5/5 408/5/5 410/5/5
f 415/5/5 413/5/5 412/5/5
f 416/1/5 414/1/5 413/1/5
f 416/5/5 413/5/5 415/5/5
f 417/1/5 414/1/5 416/1/5
f 420/1/5 419/1/5 418/1/5
f 421/1/5 419/1/5 420/1/5
f 423/1/5 421/1/5 420/1/5
f 424/4/5 422/4/5 421/4/5
f 424/1/5 421/1/5 423/1/5
f 425/4/5 422/4/5 424/4/5
f 426/1/5 424/1/5 423/1/5
f 427/1/5 424/1/5 426/1/5
f 430/2/5 429/2/5 428/2/5
f 431/2/5 429/2/5 430/2/5
f 434/3/5 433/3/5 432/3/5
f 435/3/5 433/3/5 434/3/5
f 438/3/5 437/3/5 436/3/5
f 439/3/5 437/3/5 438/3/5
f 440/5/6 441/5/6 443/5/6
f 441/1/6 442/1/6 444/1/6
f 443/5/6 441/5/6 444/5/6
f 444/1/6 442/1/6 445/1/6
f 447/5/6 448/5/6 451/5/6
f 448/1/6 449/1/6 451/1/6
f 449/5/6 450/5/6 452/5/6
f 451/1/6 449/1/6 452/1/6
f 452/5/6 450/5/6 453/5/6
f 453/5/6 450/5/6 454/5/6
f 451/5/6 452/5/6 455/5/6
f 452/5/6 453/5/6 455/5/6
f 453/1/6 454/1/6 456/1/6
f 455/5/6 453/5/6 456/5/6
f 456/1/6 454/1/6 457/1/6
f 446/1/6 447/1/6 458/1/6
f 447/5/6 451/5/6 458/5/6
f 451/5/6 455/5/6 458/5/6
f 458/5/6 455/5/6 459/5/6
f 456/1/6 457/1/6 460/1/6
f 459/5/6 455/5/6 460/5/6
f 455/1/6 456/1/6 460/1/6
f 460/1/6 457/1/6 461/1/6
f 458/1/6 459/1/6 462/1/6
f 459/5/6 460/5/6 462/5/6
f 460/5/6 461/5/6 462/5/6
f 462/5/6 461/5/6 463/5/6
f 463/5/6 461/5/6 464/5/6
f 464/5/6 461/5/6 465/5/6
f 458/1/6 462/1/6 466/1/6
f 462/1/6 463/1/6 466/1/6
f 463/5/6 464/5/6 467/5/6
f 466/1/6 463/1/6 467/1/6
f 467/5/6 464/5/6 468/5/6
f 464/1/6 465/1/6 469/1/6
f 468/5/6 464/5/6 469/5/6
f 469/1/6 465/1/6 470/1/6
f 446/1/6 458/1/6 471/1/6
f 458/1/6 466/1/6 471/1/6
f 467/5/6 468/5/6 472/5/6
f 471/1/6 466/1/6 472/1/6
f 466/5/6 467/5/6 472/5/6
f 469/1/6 470/1/6 473/1/6
f 472/5/6 468/5/6 473/5/6
f 468/1/6 469/1/6 473/1/6
f 473/1/6 470/1/6 474/1/6
f 475/2/6 476/2/6 477/2/6
f 477/2/6 476/2/6 478/2/6
f 479/3/6 480/3/6 481/3/6
f 481/3/6 480/3/6 482/3/6
f 483/3/6 484/3/6 486/3/6
f 484/3/6 485/3/6 486/3/6
f 486/3/6 485/3/6 487/3/6
f 488/5/6 489/5/6 491/5/6
f 491/5/6 489/5/6 492/5/6
f 492/5/6 489/5/6 493/5/6
f 489/1/6 490/1/6 494/1/6
f 493/5/6 489/5/6 494/5/6
f 491/1/6 492/1/6 495/1/6
f 495/1/6 492/1/6 496/1/6
f 494/1/6 490/1/6 497/1/6
f 497/1/6 490/1/6 498/1/6
f 499/5/6 500/5/6 503/5/6
f 501/1/6 502/1/6 506/1/6
f 499/5/6 503/5/6 507/5/6
f 503/5/6 504/5/6 507/5/6
f 504/1/6 505/1/6 508/1/6
f 507/5/6 504/5/6 508/5/6
f 505/1/6 506/1/6 508/1/6
f 506/1/6 502/1/6 509/1/6
f 508/1/6 506/1/6 509/1/6
f 510/1/6 511/1/6 514/1/6
f 511/5/6 512/5/6 515/5/6
f 514/1/6 511/1/6 515/1/6
f 515/5/6 512/5/6 516/5/6
f 513/1/6 514/1/6 518/1/6
f 518/1/6 514/1/6 519/1/6
f 516/1/6 517/1/6 522/1/6
f 522/1/6 517/1/6 523/1/6
f 520/5/6 521/5/6 524/5/6
f 519/5/6 520/5/6 524/5/6
f 521/1/6 522/1/6 525/1/6
f 524/5/6 521/5/6 525/5/6
f 525/1/6 522/1/6 526/1/6
f 527/1/6 528/1/6 530/1/6
f 528/5/6 529/5/6 531/5/6
f 530/1/6 528/1/6 531/1/6
f 531/5/6 529/5/6 532/5/6
