# MagicaVoxel @ Ephtracy

# group
o 

# material
mtllib ConstructionMaterials-106.mtl
usemtl palette

# normals
vn -1 0 0
vn 1 0 0
vn 0 0 1
vn 0 0 -1
vn 0 -1 0
vn 0 1 0

# texcoords
vt 0.947266 0.5
vt 0.951172 0.5

# verts
v -3.1 0.1 -5.7
v -3.1 0.1 -6.2
v -3.1 0.2 -5.8
v -3.1 0.2 -6.1
v -3.1 0.5 -5.8
v -3.1 0.5 -6.1
v -3.1 0.6 -5.7
v -3.1 0.6 -6.2
v -3 1.7 -5.7
v -3 1.7 -6.2
v -3 1.8 -5.8
v -3 1.8 -6.1
v -3 2.1 -5.8
v -3 2.1 -6.1
v -3 2.2 -5.7
v -3 2.2 -6.2
v -2.5 0.6 -5.7
v -2.5 0.6 -5.8
v -2.5 0.6 -6.1
v -2.5 0.6 -6.2
v -2.5 0.9 -5.8
v -2.5 0.9 -6.1
v -2.5 1 -5.7
v -2.5 1 -6.2
v -2.5 1.3 -5.7
v -2.5 1.3 -6.2
v -2.5 1.4 -5.8
v -2.5 1.4 -6.1
v -2.5 1.7 -5.7
v -2.5 1.7 -5.8
v -2.5 1.7 -6.1
v -2.5 1.7 -6.2
v -2 1 -5.7
v -2 1 -5.8
v -2 1 -6.1
v -2 1 -6.2
v -2 1.3 -5.7
v -2 1.3 -5.8
v -2 1.3 -6.1
v -2 1.3 -6.2
v -0.2 0.6 -5.7
v -0.2 0.6 -5.8
v -0.2 0.6 -6.1
v -0.2 0.6 -6.2
v -0.2 0.9 -5.7
v -0.2 0.9 -5.8
v -0.2 0.9 -6.1
v -0.2 0.9 -6.2
v 0.3 0.1 -5.7
v 0.3 0.1 -6.2
v 0.3 0.2 -5.8
v 0.3 0.2 -6.1
v 0.3 0.5 -5.8
v 0.3 0.5 -6.1
v 0.3 0.6 -5.7
v 0.3 0.6 -6.2
v 0.3 0.9 -5.7
v 0.3 0.9 -6.2
v 0.3 1 -5.8
v 0.3 1 -6.1
v 0.3 1.3 -5.7
v 0.3 1.3 -5.8
v 0.3 1.3 -6.1
v 0.3 1.3 -6.2
v 0.4 1.8 -5.7
v 0.4 1.8 -5.8
v 0.4 1.8 -6.1
v 0.4 1.8 -6.2
v 0.4 2.1 -5.8
v 0.4 2.1 -6.1
v 0.4 2.2 -5.7
v 0.4 2.2 -6.2
v 0.9 1.3 -5.7
v 0.9 1.3 -6.2
v 0.9 1.4 -5.8
v 0.9 1.4 -6.1
v 0.9 1.7 -5.8
v 0.9 1.7 -6.1
v 0.9 1.8 -5.7
v 0.9 1.8 -6.2
v -3.1 0.1 -5.7
v -3.1 0.6 -5.7
v -3 0.2 -5.7
v -3 0.5 -5.7
v -3 1.7 -5.7
v -3 2.2 -5.7
v -2.9 1.8 -5.7
v -2.9 2.1 -5.7
v -2.5 0.6 -5.7
v -2.5 1 -5.7
v -2.5 1.3 -5.7
v -2.5 1.7 -5.7
v -2.4 0.6 -5.7
v -2.4 0.9 -5.7
v -2.4 1.4 -5.7
v -2.4 1.7 -5.7
v -2 0.2 -5.7
v -2 0.5 -5.7
v -2 1 -5.7
v -2 1.3 -5.7
v -1.9 0.2 -5.7
v -1.9 0.5 -5.7
v -1.9 1 -5.7
v -1.9 1.3 -5.7
v -1.9 1.8 -5.7
v -1.9 2.1 -5.7
v -1.8 1.8 -5.7
v -1.8 2.1 -5.7
v -1.4 0.6 -5.7
v -1.4 0.9 -5.7
v -1.4 1.4 -5.7
v -1.4 1.7 -5.7
v -1.3 0.6 -5.7
v -1.3 0.9 -5.7
v -1.3 1.4 -5.7
v -1.3 1.7 -5.7
v -0.9 0.2 -5.7
v -0.9 0.5 -5.7
v -0.9 1 -5.7
v -0.9 1.3 -5.7
v -0.8 0.2 -5.7
v -0.8 0.5 -5.7
v -0.8 1 -5.7
v -0.8 1.3 -5.7
v -0.8 1.8 -5.7
v -0.8 2.1 -5.7
v -0.7 1.8 -5.7
v -0.7 2.1 -5.7
v -0.3 0.6 -5.7
v -0.3 0.9 -5.7
v -0.3 1.4 -5.7
v -0.3 1.7 -5.7
v -0.2 0.6 -5.7
v -0.2 0.9 -5.7
v -0.2 1.4 -5.7
v -0.2 1.7 -5.7
v 0.2 0.2 -5.7
v 0.2 0.5 -5.7
v 0.2 1 -5.7
v 0.2 1.3 -5.7
v 0.3 0.1 -5.7
v 0.3 0.6 -5.7
v 0.3 0.9 -5.7
v 0.3 1.3 -5.7
v 0.3 1.8 -5.7
v 0.3 2.1 -5.7
v 0.4 1.8 -5.7
v 0.4 2.2 -5.7
v 0.8 1.4 -5.7
v 0.8 1.7 -5.7
v 0.9 1.3 -5.7
v 0.9 1.8 -5.7
v -3.1 0.1 -6.2
v -3.1 0.6 -6.2
v -3 0.2 -6.2
v -3 0.5 -6.2
v -3 1.7 -6.2
v -3 2.2 -6.2
v -2.9 1.8 -6.2
v -2.9 2.1 -6.2
v -2.5 0.6 -6.2
v -2.5 1 -6.2
v -2.5 1.3 -6.2
v -2.5 1.7 -6.2
v -2.4 0.6 -6.2
v -2.4 0.9 -6.2
v -2.4 1.4 -6.2
v -2.4 1.7 -6.2
v -2 0.2 -6.2
v -2 0.5 -6.2
v -2 1 -6.2
v -2 1.3 -6.2
v -1.9 0.2 -6.2
v -1.9 0.5 -6.2
v -1.9 1 -6.2
v -1.9 1.3 -6.2
v -1.9 1.8 -6.2
v -1.9 2.1 -6.2
v -1.8 1.8 -6.2
v -1.8 2.1 -6.2
v -1.4 0.6 -6.2
v -1.4 0.9 -6.2
v -1.4 1.4 -6.2
v -1.4 1.7 -6.2
v -1.3 0.6 -6.2
v -1.3 0.9 -6.2
v -1.3 1.4 -6.2
v -1.3 1.7 -6.2
v -0.9 0.2 -6.2
v -0.9 0.5 -6.2
v -0.9 1 -6.2
v -0.9 1.3 -6.2
v -0.8 0.2 -6.2
v -0.8 0.5 -6.2
v -0.8 1 -6.2
v -0.8 1.3 -6.2
v -0.8 1.8 -6.2
v -0.8 2.1 -6.2
v -0.7 1.8 -6.2
v -0.7 2.1 -6.2
v -0.3 0.6 -6.2
v -0.3 0.9 -6.2
v -0.3 1.4 -6.2
v -0.3 1.7 -6.2
v -0.2 0.6 -6.2
v -0.2 0.9 -6.2
v -0.2 1.4 -6.2
v -0.2 1.7 -6.2
v 0.2 0.2 -6.2
v 0.2 0.5 -6.2
v 0.2 1 -6.2
v 0.2 1.3 -6.2
v 0.3 0.1 -6.2
v 0.3 0.6 -6.2
v 0.3 0.9 -6.2
v 0.3 1.3 -6.2
v 0.3 1.8 -6.2
v 0.3 2.1 -6.2
v 0.4 1.8 -6.2
v 0.4 2.2 -6.2
v 0.8 1.4 -6.2
v 0.8 1.7 -6.2
v 0.9 1.3 -6.2
v 0.9 1.8 -6.2
v -3.1 0.1 -5.7
v 0.3 0.1 -5.7
v -3 0.1 -5.8
v -2 0.1 -5.8
v -1.9 0.1 -5.8
v -0.9 0.1 -5.8
v -0.8 0.1 -5.8
v 0.2 0.1 -5.8
v -3 0.1 -6.1
v -2 0.1 -6.1
v -1.9 0.1 -6.1
v -0.9 0.1 -6.1
v -0.8 0.1 -6.1
v 0.2 0.1 -6.1
v -3.1 0.1 -6.2
v 0.3 0.1 -6.2
v -0.2 0.9 -5.7
v 0.3 0.9 -5.7
v -0.2 0.9 -5.8
v 0.2 0.9 -5.8
v -0.2 0.9 -6.1
v 0.2 0.9 -6.1
v -0.2 0.9 -6.2
v 0.3 0.9 -6.2
v -2.5 1.3 -5.7
v -2 1.3 -5.7
v 0.3 1.3 -5.7
v 0.9 1.3 -5.7
v -2.4 1.3 -5.8
v -2 1.3 -5.8
v 0.3 1.3 -5.8
v 0.8 1.3 -5.8
v -2.4 1.3 -6.1
v -2 1.3 -6.1
v 0.3 1.3 -6.1
v 0.8 1.3 -6.1
v -2.5 1.3 -6.2
v -2 1.3 -6.2
v 0.3 1.3 -6.2
v 0.9 1.3 -6.2
v -3 1.7 -5.7
v -2.5 1.7 -5.7
v -2.9 1.7 -5.8
v -2.5 1.7 -5.8
v -2.9 1.7 -6.1
v -2.5 1.7 -6.1
v -3 1.7 -6.2
v -2.5 1.7 -6.2
v -3.1 0.6 -5.7
v -2.5 0.6 -5.7
v -0.2 0.6 -5.7
v 0.3 0.6 -5.7
v -3 0.6 -5.8
v -2.5 0.6 -5.8
v -0.2 0.6 -5.8
v 0.2 0.6 -5.8
v -3 0.6 -6.1
v -2.5 0.6 -6.1
v -0.2 0.6 -6.1
v 0.2 0.6 -6.1
v -3.1 0.6 -6.2
v -2.5 0.6 -6.2
v -0.2 0.6 -6.2
v 0.3 0.6 -6.2
v -2.5 1 -5.7
v -2 1 -5.7
v -2.4 1 -5.8
v -2 1 -5.8
v -2.4 1 -6.1
v -2 1 -6.1
v -2.5 1 -6.2
v -2 1 -6.2
v 0.4 1.8 -5.7
v 0.9 1.8 -5.7
v 0.4 1.8 -5.8
v 0.8 1.8 -5.8
v 0.4 1.8 -6.1
v 0.8 1.8 -6.1
v 0.4 1.8 -6.2
v 0.9 1.8 -6.2
v -3 2.2 -5.7
v 0.4 2.2 -5.7
v -2.9 2.2 -5.8
v -1.9 2.2 -5.8
v -1.8 2.2 -5.8
v -0.8 2.2 -5.8
v -0.7 2.2 -5.8
v 0.3 2.2 -5.8
v -2.9 2.2 -6.1
v -1.9 2.2 -6.1
v -1.8 2.2 -6.1
v -0.8 2.2 -6.1
v -0.7 2.2 -6.1
v 0.3 2.2 -6.1
v -3 2.2 -6.2
v 0.4 2.2 -6.2

# faces
f 3/1/1 2/1/1 1/1/1
f 4/1/1 2/1/1 3/1/1
f 5/1/1 3/1/1 1/1/1
f 5/2/1 4/2/1 3/2/1
f 6/1/1 2/1/1 4/1/1
f 6/2/1 4/2/1 5/2/1
f 7/1/1 5/1/1 1/1/1
f 7/1/1 6/1/1 5/1/1
f 8/1/1 2/1/1 6/1/1
f 8/1/1 6/1/1 7/1/1
f 11/1/1 10/1/1 9/1/1
f 12/1/1 10/1/1 11/1/1
f 13/1/1 11/1/1 9/1/1
f 13/2/1 12/2/1 11/2/1
f 14/1/1 10/1/1 12/1/1
f 14/2/1 12/2/1 13/2/1
f 15/1/1 13/1/1 9/1/1
f 15/1/1 14/1/1 13/1/1
f 16/1/1 10/1/1 14/1/1
f 16/1/1 14/1/1 15/1/1
f 21/1/1 18/1/1 17/1/1
f 21/2/1 19/2/1 18/2/1
f 22/1/1 20/1/1 19/1/1
f 22/2/1 19/2/1 21/2/1
f 23/1/1 21/1/1 17/1/1
f 23/1/1 22/1/1 21/1/1
f 24/1/1 20/1/1 22/1/1
f 24/1/1 22/1/1 23/1/1
f 27/1/1 26/1/1 25/1/1
f 28/1/1 26/1/1 27/1/1
f 29/1/1 27/1/1 25/1/1
f 30/2/1 28/2/1 27/2/1
f 30/1/1 27/1/1 29/1/1
f 31/1/1 26/1/1 28/1/1
f 31/2/1 28/2/1 30/2/1
f 32/1/1 26/1/1 31/1/1
f 37/1/1 34/1/1 33/1/1
f 38/2/1 35/2/1 34/2/1
f 38/1/1 34/1/1 37/1/1
f 39/1/1 36/1/1 35/1/1
f 39/2/1 35/2/1 38/2/1
f 40/1/1 36/1/1 39/1/1
f 41/1/2 42/1/2 45/1/2
f 42/2/2 43/2/2 46/2/2
f 45/1/2 42/1/2 46/1/2
f 43/1/2 44/1/2 47/1/2
f 46/2/2 43/2/2 47/2/2
f 47/1/2 44/1/2 48/1/2
f 49/1/2 50/1/2 51/1/2
f 51/1/2 50/1/2 52/1/2
f 49/1/2 51/1/2 53/1/2
f 51/2/2 52/2/2 53/2/2
f 52/1/2 50/1/2 54/1/2
f 53/2/2 52/2/2 54/2/2
f 49/1/2 53/1/2 55/1/2
f 53/1/2 54/1/2 55/1/2
f 54/1/2 50/1/2 56/1/2
f 55/1/2 54/1/2 56/1/2
f 57/1/2 58/1/2 59/1/2
f 59/1/2 58/1/2 60/1/2
f 57/1/2 59/1/2 61/1/2
f 59/2/2 60/2/2 62/2/2
f 61/1/2 59/1/2 62/1/2
f 60/1/2 58/1/2 63/1/2
f 62/2/2 60/2/2 63/2/2
f 63/1/2 58/1/2 64/1/2
f 65/1/2 66/1/2 69/1/2
f 66/2/2 67/2/2 69/2/2
f 67/1/2 68/1/2 70/1/2
f 69/2/2 67/2/2 70/2/2
f 65/1/2 69/1/2 71/1/2
f 69/1/2 70/1/2 71/1/2
f 70/1/2 68/1/2 72/1/2
f 71/1/2 70/1/2 72/1/2
f 73/1/2 74/1/2 75/1/2
f 75/1/2 74/1/2 76/1/2
f 73/1/2 75/1/2 77/1/2
f 75/2/2 76/2/2 77/2/2
f 76/1/2 74/1/2 78/1/2
f 77/2/2 76/2/2 78/2/2
f 73/1/2 77/1/2 79/1/2
f 77/1/2 78/1/2 79/1/2
f 78/1/2 74/1/2 80/1/2
f 79/1/2 78/1/2 80/1/2
f 83/1/3 82/1/3 81/1/3
f 84/1/3 82/1/3 83/1/3
f 87/1/3 86/1/3 85/1/3
f 88/1/3 86/1/3 87/1/3
f 89/1/3 82/1/3 84/1/3
f 92/1/3 87/1/3 85/1/3
f 93/1/3 90/1/3 89/1/3
f 93/1/3 89/1/3 84/1/3
f 94/1/3 90/1/3 93/1/3
f 95/1/3 92/1/3 91/1/3
f 96/1/3 87/1/3 92/1/3
f 96/1/3 92/1/3 95/1/3
f 97/1/3 83/1/3 81/1/3
f 97/2/3 84/2/3 83/2/3
f 98/1/3 93/1/3 84/1/3
f 98/2/3 84/2/3 97/2/3
f 99/1/3 90/1/3 94/1/3
f 100/1/3 95/1/3 91/1/3
f 101/1/3 97/1/3 81/1/3
f 101/1/3 98/1/3 97/1/3
f 102/1/3 93/1/3 98/1/3
f 102/1/3 98/1/3 101/1/3
f 103/1/3 99/1/3 94/1/3
f 103/1/3 100/1/3 99/1/3
f 104/1/3 95/1/3 100/1/3
f 104/1/3 100/1/3 103/1/3
f 105/1/3 87/1/3 96/1/3
f 105/2/3 88/2/3 87/2/3
f 106/1/3 86/1/3 88/1/3
f 106/2/3 88/2/3 105/2/3
f 107/1/3 105/1/3 96/1/3
f 107/1/3 106/1/3 105/1/3
f 108/1/3 86/1/3 106/1/3
f 108/1/3 106/1/3 107/1/3
f 109/1/3 93/1/3 102/1/3
f 109/2/3 94/2/3 93/2/3
f 110/1/3 103/1/3 94/1/3
f 110/2/3 94/2/3 109/2/3
f 111/1/3 95/1/3 104/1/3
f 111/2/3 96/2/3 95/2/3
f 112/1/3 107/1/3 96/1/3
f 112/2/3 96/2/3 111/2/3
f 113/1/3 110/1/3 109/1/3
f 113/1/3 109/1/3 102/1/3
f 114/1/3 103/1/3 110/1/3
f 114/1/3 110/1/3 113/1/3
f 115/1/3 111/1/3 104/1/3
f 115/1/3 112/1/3 111/1/3
f 116/1/3 107/1/3 112/1/3
f 116/1/3 112/1/3 115/1/3
f 117/1/3 101/1/3 81/1/3
f 117/2/3 102/2/3 101/2/3
f 118/1/3 113/1/3 102/1/3
f 118/2/3 102/2/3 117/2/3
f 119/1/3 103/1/3 114/1/3
f 119/2/3 104/2/3 103/2/3
f 120/1/3 115/1/3 104/1/3
f 120/2/3 104/2/3 119/2/3
f 121/1/3 117/1/3 81/1/3
f 121/1/3 118/1/3 117/1/3
f 122/1/3 113/1/3 118/1/3
f 122/1/3 118/1/3 121/1/3
f 123/1/3 119/1/3 114/1/3
f 123/1/3 120/1/3 119/1/3
f 124/1/3 115/1/3 120/1/3
f 124/1/3 120/1/3 123/1/3
f 125/1/3 107/1/3 116/1/3
f 125/2/3 108/2/3 107/2/3
f 126/1/3 86/1/3 108/1/3
f 126/2/3 108/2/3 125/2/3
f 127/1/3 125/1/3 116/1/3
f 127/1/3 126/1/3 125/1/3
f 128/1/3 86/1/3 126/1/3
f 128/1/3 126/1/3 127/1/3
f 129/1/3 113/1/3 122/1/3
f 129/2/3 114/2/3 113/2/3
f 130/1/3 123/1/3 114/1/3
f 130/2/3 114/2/3 129/2/3
f 131/1/3 115/1/3 124/1/3
f 131/2/3 116/2/3 115/2/3
f 132/1/3 127/1/3 116/1/3
f 132/2/3 116/2/3 131/2/3
f 133/1/3 129/1/3 122/1/3
f 133/1/3 130/1/3 129/1/3
f 134/1/3 123/1/3 130/1/3
f 134/1/3 130/1/3 133/1/3
f 135/1/3 131/1/3 124/1/3
f 135/1/3 132/1/3 131/1/3
f 136/1/3 127/1/3 132/1/3
f 136/1/3 132/1/3 135/1/3
f 137/1/3 121/1/3 81/1/3
f 137/2/3 122/2/3 121/2/3
f 138/1/3 133/1/3 122/1/3
f 138/2/3 122/2/3 137/2/3
f 139/1/3 123/1/3 134/1/3
f 139/2/3 124/2/3 123/2/3
f 140/1/3 135/1/3 124/1/3
f 140/2/3 124/2/3 139/2/3
f 141/1/3 137/1/3 81/1/3
f 141/1/3 138/1/3 137/1/3
f 142/1/3 133/1/3 138/1/3
f 142/1/3 138/1/3 141/1/3
f 143/1/3 139/1/3 134/1/3
f 143/1/3 140/1/3 139/1/3
f 144/1/3 135/1/3 140/1/3
f 144/1/3 140/1/3 143/1/3
f 145/1/3 127/1/3 136/1/3
f 145/2/3 128/2/3 127/2/3
f 146/1/3 86/1/3 128/1/3
f 146/2/3 128/2/3 145/2/3
f 147/1/3 145/1/3 136/1/3
f 147/1/3 146/1/3 145/1/3
f 148/1/3 86/1/3 146/1/3
f 148/1/3 146/1/3 147/1/3
f 149/1/3 135/1/3 144/1/3
f 149/2/3 136/2/3 135/2/3
f 150/1/3 147/1/3 136/1/3
f 150/2/3 136/2/3 149/2/3
f 151/1/3 149/1/3 144/1/3
f 151/1/3 150/1/3 149/1/3
f 152/1/3 147/1/3 150/1/3
f 152/1/3 150/1/3 151/1/3
f 153/1/4 154/1/4 155/1/4
f 155/1/4 154/1/4 156/1/4
f 157/1/4 158/1/4 159/1/4
f 159/1/4 158/1/4 160/1/4
f 156/1/4 154/1/4 161/1/4
f 157/1/4 159/1/4 164/1/4
f 161/1/4 162/1/4 165/1/4
f 156/1/4 161/1/4 165/1/4
f 165/1/4 162/1/4 166/1/4
f 163/1/4 164/1/4 167/1/4
f 164/1/4 159/1/4 168/1/4
f 167/1/4 164/1/4 168/1/4
f 153/1/4 155/1/4 169/1/4
f 155/2/4 156/2/4 169/2/4
f 156/1/4 165/1/4 170/1/4
f 169/2/4 156/2/4 170/2/4
f 166/1/4 162/1/4 171/1/4
f 163/1/4 167/1/4 172/1/4
f 153/1/4 169/1/4 173/1/4
f 169/1/4 170/1/4 173/1/4
f 170/1/4 165/1/4 174/1/4
f 173/1/4 170/1/4 174/1/4
f 166/1/4 171/1/4 175/1/4
f 171/1/4 172/1/4 175/1/4
f 172/1/4 167/1/4 176/1/4
f 175/1/4 172/1/4 176/1/4
f 168/1/4 159/1/4 177/1/4
f 159/2/4 160/2/4 177/2/4
f 160/1/4 158/1/4 178/1/4
f 177/2/4 160/2/4 178/2/4
f 168/1/4 177/1/4 179/1/4
f 177/1/4 178/1/4 179/1/4
f 178/1/4 158/1/4 180/1/4
f 179/1/4 178/1/4 180/1/4
f 174/1/4 165/1/4 181/1/4
f 165/2/4 166/2/4 181/2/4
f 166/1/4 175/1/4 182/1/4
f 181/2/4 166/2/4 182/2/4
f 176/1/4 167/1/4 183/1/4
f 167/2/4 168/2/4 183/2/4
f 168/1/4 179/1/4 184/1/4
f 183/2/4 168/2/4 184/2/4
f 181/1/4 182/1/4 185/1/4
f 174/1/4 181/1/4 185/1/4
f 182/1/4 175/1/4 186/1/4
f 185/1/4 182/1/4 186/1/4
f 176/1/4 183/1/4 187/1/4
f 183/1/4 184/1/4 187/1/4
f 184/1/4 179/1/4 188/1/4
f 187/1/4 184/1/4 188/1/4
f 153/1/4 173/1/4 189/1/4
f 173/2/4 174/2/4 189/2/4
f 174/1/4 185/1/4 190/1/4
f 189/2/4 174/2/4 190/2/4
f 186/1/4 175/1/4 191/1/4
f 175/2/4 176/2/4 191/2/4
f 176/1/4 187/1/4 192/1/4
f 191/2/4 176/2/4 192/2/4
f 153/1/4 189/1/4 193/1/4
f 189/1/4 190/1/4 193/1/4
f 190/1/4 185/1/4 194/1/4
f 193/1/4 190/1/4 194/1/4
f 186/1/4 191/1/4 195/1/4
f 191/1/4 192/1/4 195/1/4
f 192/1/4 187/1/4 196/1/4
f 195/1/4 192/1/4 196/1/4
f 188/1/4 179/1/4 197/1/4
f 179/2/4 180/2/4 197/2/4
f 180/1/4 158/1/4 198/1/4
f 197/2/4 180/2/4 198/2/4
f 188/1/4 197/1/4 199/1/4
f 197/1/4 198/1/4 199/1/4
f 198/1/4 158/1/4 200/1/4
f 199/1/4 198/1/4 200/1/4
f 194/1/4 185/1/4 201/1/4
f 185/2/4 186/2/4 201/2/4
f 186/1/4 195/1/4 202/1/4
f 201/2/4 186/2/4 202/2/4
f 196/1/4 187/1/4 203/1/4
f 187/2/4 188/2/4 203/2/4
f 188/1/4 199/1/4 204/1/4
f 203/2/4 188/2/4 204/2/4
f 194/1/4 201/1/4 205/1/4
f 201/1/4 202/1/4 205/1/4
f 202/1/4 195/1/4 206/1/4
f 205/1/4 202/1/4 206/1/4
f 196/1/4 203/1/4 207/1/4
f 203/1/4 204/1/4 207/1/4
f 204/1/4 199/1/4 208/1/4
f 207/1/4 204/1/4 208/1/4
f 153/1/4 193/1/4 209/1/4
f 193/2/4 194/2/4 209/2/4
f 194/1/4 205/1/4 210/1/4
f 209/2/4 194/2/4 210/2/4
f 206/1/4 195/1/4 211/1/4
f 195/2/4 196/2/4 211/2/4
f 196/1/4 207/1/4 212/1/4
f 211/2/4 196/2/4 212/2/4
f 153/1/4 209/1/4 213/1/4
f 209/1/4 210/1/4 213/1/4
f 210/1/4 205/1/4 214/1/4
f 213/1/4 210/1/4 214/1/4
f 206/1/4 211/1/4 215/1/4
f 211/1/4 212/1/4 215/1/4
f 212/1/4 207/1/4 216/1/4
f 215/1/4 212/1/4 216/1/4
f 208/1/4 199/1/4 217/1/4
f 199/2/4 200/2/4 217/2/4
f 200/1/4 158/1/4 218/1/4
f 217/2/4 200/2/4 218/2/4
f 208/1/4 217/1/4 219/1/4
f 217/1/4 218/1/4 219/1/4
f 218/1/4 158/1/4 220/1/4
f 219/1/4 218/1/4 220/1/4
f 216/1/4 207/1/4 221/1/4
f 207/2/4 208/2/4 221/2/4
f 208/1/4 219/1/4 222/1/4
f 221/2/4 208/2/4 222/2/4
f 216/1/4 221/1/4 223/1/4
f 221/1/4 222/1/4 223/1/4
f 222/1/4 219/1/4 224/1/4
f 223/1/4 222/1/4 224/1/4
f 227/1/5 226/1/5 225/1/5
f 228/1/5 226/1/5 227/1/5
f 229/1/5 226/1/5 228/1/5
f 230/1/5 226/1/5 229/1/5
f 231/1/5 226/1/5 230/1/5
f 232/1/5 226/1/5 231/1/5
f 233/1/5 227/1/5 225/1/5
f 233/2/5 228/2/5 227/2/5
f 234/1/5 229/1/5 228/1/5
f 234/2/5 228/2/5 233/2/5
f 235/2/5 230/2/5 229/2/5
f 235/1/5 229/1/5 234/1/5
f 236/1/5 231/1/5 230/1/5
f 236/2/5 230/2/5 235/2/5
f 237/2/5 232/2/5 231/2/5
f 237/1/5 231/1/5 236/1/5
f 238/1/5 226/1/5 232/1/5
f 238/2/5 232/2/5 237/2/5
f 239/1/5 237/1/5 236/1/5
f 239/1/5 236/1/5 235/1/5
f 239/1/5 238/1/5 237/1/5
f 239/1/5 235/1/5 234/1/5
f 239/1/5 234/1/5 233/1/5
f 239/1/5 233/1/5 225/1/5
f 240/1/5 226/1/5 238/1/5
f 240/1/5 238/1/5 239/1/5
f 243/1/5 242/1/5 241/1/5
f 244/1/5 242/1/5 243/1/5
f 245/2/5 244/2/5 243/2/5
f 246/1/5 242/1/5 244/1/5
f 246/2/5 244/2/5 245/2/5
f 247/1/5 246/1/5 245/1/5
f 248/1/5 242/1/5 246/1/5
f 248/1/5 246/1/5 247/1/5
f 253/1/5 250/1/5 249/1/5
f 254/1/5 250/1/5 253/1/5
f 255/1/5 252/1/5 251/1/5
f 256/1/5 252/1/5 255/1/5
f 257/2/5 254/2/5 253/2/5
f 257/1/5 253/1/5 249/1/5
f 258/2/5 254/2/5 257/2/5
f 259/2/5 256/2/5 255/2/5
f 260/1/5 252/1/5 256/1/5
f 260/2/5 256/2/5 259/2/5
f 261/1/5 258/1/5 257/1/5
f 261/1/5 257/1/5 249/1/5
f 262/1/5 258/1/5 261/1/5
f 263/1/5 260/1/5 259/1/5
f 264/1/5 252/1/5 260/1/5
f 264/1/5 260/1/5 263/1/5
f 267/1/5 266/1/5 265/1/5
f 268/1/5 266/1/5 267/1/5
f 269/1/5 267/1/5 265/1/5
f 269/2/5 268/2/5 267/2/5
f 270/2/5 268/2/5 269/2/5
f 271/1/5 269/1/5 265/1/5
f 271/1/5 270/1/5 269/1/5
f 272/1/5 270/1/5 271/1/5
f 273/1/6 274/1/6 277/1/6
f 277/1/6 274/1/6 278/1/6
f 275/1/6 276/1/6 279/1/6
f 279/1/6 276/1/6 280/1/6
f 277/2/6 278/2/6 281/2/6
f 273/1/6 277/1/6 281/1/6
f 281/2/6 278/2/6 282/2/6
f 279/2/6 280/2/6 283/2/6
f 280/1/6 276/1/6 284/1/6
f 283/2/6 280/2/6 284/2/6
f 281/1/6 282/1/6 285/1/6
f 273/1/6 281/1/6 285/1/6
f 285/1/6 282/1/6 286/1/6
f 283/1/6 284/1/6 287/1/6
f 284/1/6 276/1/6 288/1/6
f 287/1/6 284/1/6 288/1/6
f 289/1/6 290/1/6 291/1/6
f 291/1/6 290/1/6 292/1/6
f 289/1/6 291/1/6 293/1/6
f 291/2/6 292/2/6 293/2/6
f 293/2/6 292/2/6 294/2/6
f 289/1/6 293/1/6 295/1/6
f 293/1/6 294/1/6 295/1/6
f 295/1/6 294/1/6 296/1/6
f 297/1/6 298/1/6 299/1/6
f 299/1/6 298/1/6 300/1/6
f 299/2/6 300/2/6 301/2/6
f 300/1/6 298/1/6 302/1/6
f 301/2/6 300/2/6 302/2/6
f 301/1/6 302/1/6 303/1/6
f 302/1/6 298/1/6 304/1/6
f 303/1/6 302/1/6 304/1/6
f 305/1/6 306/1/6 307/1/6
f 307/1/6 306/1/6 308/1/6
f 308/1/6 306/1/6 309/1/6
f 309/1/6 306/1/6 310/1/6
f 310/1/6 306/1/6 311/1/6
f 311/1/6 306/1/6 312/1/6
f 305/1/6 307/1/6 313/1/6
f 307/2/6 308/2/6 313/2/6
f 308/1/6 309/1/6 314/1/6
f 313/2/6 308/2/6 314/2/6
f 309/2/6 310/2/6 315/2/6
f 314/1/6 309/1/6 315/1/6
f 310/1/6 311/1/6 316/1/6
f 315/2/6 310/2/6 316/2/6
f 311/2/6 312/2/6 317/2/6
f 316/1/6 311/1/6 317/1/6
f 312/1/6 306/1/6 318/1/6
f 317/2/6 312/2/6 318/2/6
f 316/1/6 317/1/6 319/1/6
f 315/1/6 316/1/6 319/1/6
f 317/1/6 318/1/6 319/1/6
f 314/1/6 315/1/6 319/1/6
f 313/1/6 314/1/6 319/1/6
f 305/1/6 313/1/6 319/1/6
f 318/1/6 306/1/6 320/1/6
f 319/1/6 318/1/6 320/1/6
