# MagicaVoxel @ Ephtracy

# group
o 

# material
mtllib Animals-43.mtl
usemtl palette

# normals
vn -1 0 0
vn 1 0 0
vn 0 0 1
vn 0 0 -1
vn 0 -1 0
vn 0 1 0

# texcoords
vt 0.939453 0.5
vt 0.943359 0.5
vt 0.947266 0.5
vt 0.951172 0.5
vt 0.955078 0.5
vt 0.958984 0.5
vt 0.962891 0.5
vt 0.966797 0.5
vt 0.978516 0.5

# verts
v 1.1 2.7 14.8
v 1.1 2.7 14.7
v 1.1 2.7 14
v 1.1 2.7 13.9
v 1.1 2.9 14.8
v 1.1 2.9 14.7
v 1.1 2.9 14.4
v 1.1 2.9 14.2
v 1.1 2.9 14
v 1.1 2.9 13.9
v 1.1 3 14.7
v 1.1 3 14.5
v 1.1 3 14.2
v 1.1 3 14.1
v 1.1 3.1 14.1
v 1.1 3.1 13.9
v 1.1 3.2 14.4
v 1.1 3.2 14.2
v 1.1 3.3 14.2
v 1.1 3.3 13.9
v 1.1 3.4 14.7
v 1.1 3.4 14.5
v 1.1 3.4 14.2
v 1.1 3.5 14.8
v 1.1 3.5 14.5
v 1.1 3.5 14.2
v 1.1 3.5 13.9
v 1.5 3.2 15
v 1.5 3.2 14.8
v 1.5 3.2 13.9
v 1.5 3.2 13.7
v 1.5 3.3 14.9
v 1.5 3.3 14.8
v 1.5 3.3 13.9
v 1.5 3.3 13.8
v 1.5 3.4 14.9
v 1.5 3.4 14.8
v 1.5 3.4 13.9
v 1.5 3.4 13.8
v 1.5 3.4 13.7
v 1.5 3.5 15
v 1.5 3.5 14.8
v 1.5 3.5 13.9
v 1.5 3.5 13.7
v 1.6 3.5 14.7
v 1.6 3.5 14.6
v 1.6 3.5 14.1
v 1.6 3.5 14
v 1.6 3.6 14.7
v 1.6 3.6 14.6
v 1.6 3.6 14.1
v 1.6 3.6 14
v 1.9 2.6 14.5
v 1.9 2.6 14.2
v 1.9 2.7 14.5
v 1.9 2.7 14.2
v 1.6 3.2 15
v 1.6 3.2 14.8
v 1.6 3.2 13.9
v 1.6 3.2 13.7
v 1.6 3.3 14.9
v 1.6 3.3 14.8
v 1.6 3.3 13.9
v 1.6 3.3 13.8
v 1.6 3.4 14.9
v 1.6 3.4 14.8
v 1.6 3.4 13.9
v 1.6 3.4 13.8
v 1.6 3.4 13.7
v 1.6 3.5 15
v 1.6 3.5 14.8
v 1.6 3.5 13.9
v 1.6 3.5 13.7
v 1.7 3.5 14.7
v 1.7 3.5 14.6
v 1.7 3.5 14.1
v 1.7 3.5 14
v 1.7 3.6 14.7
v 1.7 3.6 14.6
v 1.7 3.6 14.1
v 1.7 3.6 14
v 1.9 2.7 14.8
v 1.9 2.7 14.7
v 1.9 2.7 14
v 1.9 2.7 13.9
v 1.9 2.9 14.6
v 1.9 2.9 14.5
v 1.9 3 14.7
v 1.9 3 14.6
v 1.9 3 14.5
v 1.9 3 14
v 1.9 3.1 14.7
v 1.9 3.1 14.6
v 1.9 3.1 14.4
v 1.9 3.1 14.3
v 1.9 3.1 14.1
v 1.9 3.1 14
v 1.9 3.2 14.6
v 1.9 3.2 14.5
v 1.9 3.2 14.3
v 1.9 3.2 14.2
v 1.9 3.3 14.5
v 1.9 3.3 14.4
v 1.9 3.3 14.2
v 1.9 3.3 14.1
v 1.9 3.4 14.6
v 1.9 3.4 14.4
v 1.9 3.4 14.3
v 1.9 3.4 14.1
v 1.9 3.5 14.8
v 1.9 3.5 13.9
v 2 2.6 14.5
v 2 2.6 14.2
v 2 2.7 14.5
v 2 2.7 14.2
v 2 2.9 14.2
v 2 2.9 14.1
v 2 3 14.2
v 2 3 14.1
v 2.1 2.7 14.7
v 2.1 2.7 14
v 2.1 2.9 14.6
v 2.1 2.9 14.5
v 2.1 2.9 14.2
v 2.1 2.9 14.1
v 2.1 3 14.6
v 2.1 3 14.5
v 2.1 3 14.2
v 2.1 3 14.1
v 2.1 3.1 14.7
v 2.1 3.1 14
v 1.5 3.2 15
v 1.5 3.5 15
v 1.6 3.2 15
v 1.6 3.5 15
v 1.1 2.7 14.8
v 1.1 2.9 14.8
v 1.1 3.5 14.8
v 1.3 2.9 14.8
v 1.3 3.2 14.8
v 1.5 3.2 14.8
v 1.5 3.3 14.8
v 1.5 3.4 14.8
v 1.5 3.5 14.8
v 1.6 3 14.8
v 1.6 3.2 14.8
v 1.6 3.3 14.8
v 1.6 3.4 14.8
v 1.6 3.5 14.8
v 1.7 2.7 14.8
v 1.7 3 14.8
v 1.9 2.7 14.8
v 1.9 3.5 14.8
v 1.6 3.5 14.7
v 1.6 3.6 14.7
v 1.7 3.5 14.7
v 1.7 3.6 14.7
v 1.9 2.7 14.7
v 1.9 3 14.7
v 1.9 3.1 14.7
v 2 3 14.7
v 2 3.1 14.7
v 2.1 2.7 14.7
v 2.1 3.1 14.7
v 1.9 2.6 14.5
v 1.9 2.7 14.5
v 1.9 2.9 14.5
v 1.9 3 14.5
v 2 2.6 14.5
v 2 2.7 14.5
v 2 3 14.5
v 2.1 2.9 14.5
v 2.1 3 14.5
v 1.6 3.5 14.1
v 1.6 3.6 14.1
v 1.7 3.5 14.1
v 1.7 3.6 14.1
v 2 2.9 14.1
v 2 3 14.1
v 2.1 2.9 14.1
v 2.1 3 14.1
v 1.6 3.5 14.6
v 1.6 3.6 14.6
v 1.7 3.5 14.6
v 1.7 3.6 14.6
v 1.9 2.9 14.6
v 1.9 3 14.6
v 2 3 14.6
v 2.1 2.9 14.6
v 2.1 3 14.6
v 1.9 2.6 14.2
v 1.9 2.7 14.2
v 2 2.6 14.2
v 2 2.7 14.2
v 2 2.9 14.2
v 2 3 14.2
v 2.1 2.9 14.2
v 2.1 3 14.2
v 1.6 3.5 14
v 1.6 3.6 14
v 1.7 3.5 14
v 1.7 3.6 14
v 1.9 2.7 14
v 1.9 3 14
v 1.9 3.1 14
v 2 3 14
v 2 3.1 14
v 2.1 2.7 14
v 2.1 3.1 14
v 1.1 2.7 13.9
v 1.1 2.9 13.9
v 1.1 3.1 13.9
v 1.1 3.3 13.9
v 1.1 3.5 13.9
v 1.2 2.9 13.9
v 1.2 3 13.9
v 1.2 3.1 13.9
v 1.2 3.3 13.9
v 1.3 3.3 13.9
v 1.3 3.5 13.9
v 1.4 2.7 13.9
v 1.4 2.8 13.9
v 1.5 3.2 13.9
v 1.5 3.3 13.9
v 1.5 3.4 13.9
v 1.5 3.5 13.9
v 1.6 2.8 13.9
v 1.6 3 13.9
v 1.6 3.2 13.9
v 1.6 3.3 13.9
v 1.6 3.4 13.9
v 1.6 3.5 13.9
v 1.7 3.3 13.9
v 1.7 3.4 13.9
v 1.8 3.3 13.9
v 1.8 3.5 13.9
v 1.9 2.7 13.9
v 1.9 3.5 13.9
v 1.5 3.2 13.7
v 1.5 3.4 13.7
v 1.5 3.5 13.7
v 1.6 3.2 13.7
v 1.6 3.4 13.7
v 1.6 3.5 13.7
v 1.9 2.6 14.5
v 2 2.6 14.5
v 1.9 2.6 14.2
v 2 2.6 14.2
v 1.1 2.7 14.8
v 1.7 2.7 14.8
v 1.9 2.7 14.8
v 1.1 2.7 14.7
v 1.7 2.7 14.7
v 1.9 2.7 14.7
v 2.1 2.7 14.7
v 1.9 2.7 14.5
v 2 2.7 14.5
v 1.9 2.7 14.2
v 2 2.7 14.2
v 1.1 2.7 14
v 1.4 2.7 14
v 1.9 2.7 14
v 2.1 2.7 14
v 1.1 2.7 13.9
v 1.4 2.7 13.9
v 1.9 2.7 13.9
v 1.9 3 14.6
v 2 3 14.6
v 2.1 3 14.6
v 1.9 3 14.5
v 2 3 14.5
v 2.1 3 14.5
v 2 3 14.2
v 2.1 3 14.2
v 2 3 14.1
v 2.1 3 14.1
v 1.5 3.2 15
v 1.6 3.2 15
v 1.5 3.2 14.8
v 1.6 3.2 14.8
v 1.5 3.2 13.9
v 1.6 3.2 13.9
v 1.5 3.2 13.7
v 1.6 3.2 13.7
v 1.9 2.9 14.6
v 2.1 2.9 14.6
v 1.9 2.9 14.5
v 2.1 2.9 14.5
v 2 2.9 14.2
v 2.1 2.9 14.2
v 2 2.9 14.1
v 2.1 2.9 14.1
v 1.9 3.1 14.7
v 2 3.1 14.7
v 2.1 3.1 14.7
v 1.9 3.1 14.6
v 1.9 3.1 14.4
v 1.9 3.1 14.3
v 1.9 3.1 14.1
v 1.9 3.1 14
v 2 3.1 14
v 2.1 3.1 14
v 1.5 3.5 15
v 1.6 3.5 15
v 1.1 3.5 14.8
v 1.5 3.5 14.8
v 1.6 3.5 14.8
v 1.9 3.5 14.8
v 1.2 3.5 14.7
v 1.6 3.5 14.7
v 1.7 3.5 14.7
v 1.6 3.5 14.6
v 1.7 3.5 14.6
v 1.1 3.5 14.5
v 1.2 3.5 14.5
v 1.4 3.5 14.4
v 1.6 3.5 14.4
v 1.1 3.5 14.2
v 1.4 3.5 14.2
v 1.4 3.5 14.1
v 1.6 3.5 14.1
v 1.7 3.5 14.1
v 1.3 3.5 14
v 1.4 3.5 14
v 1.6 3.5 14
v 1.7 3.5 14
v 1.8 3.5 14
v 1.1 3.5 13.9
v 1.3 3.5 13.9
v 1.5 3.5 13.9
v 1.6 3.5 13.9
v 1.8 3.5 13.9
v 1.9 3.5 13.9
v 1.5 3.5 13.7
v 1.6 3.5 13.7
v 1.6 3.6 14.7
v 1.7 3.6 14.7
v 1.6 3.6 14.6
v 1.7 3.6 14.6
v 1.6 3.6 14.1
v 1.7 3.6 14.1
v 1.6 3.6 14
v 1.7 3.6 14

# faces
f 5/6/1 2/6/1 1/6/1
f 6/1/1 3/1/1 2/1/1
f 6/6/1 2/6/1 5/6/1
f 7/1/1 3/1/1 6/1/1
f 8/1/1 3/1/1 7/1/1
f 9/6/1 4/6/1 3/6/1
f 9/1/1 3/1/1 8/1/1
f 10/6/1 4/6/1 9/6/1
f 11/1/1 6/1/1 5/1/1
f 11/1/1 7/1/1 6/1/1
f 12/1/1 7/1/1 11/1/1
f 13/6/1 8/6/1 7/6/1
f 13/1/1 10/1/1 9/1/1
f 13/1/1 9/1/1 8/1/1
f 14/1/1 10/1/1 13/1/1
f 15/6/1 14/6/1 13/6/1
f 15/1/1 10/1/1 14/1/1
f 16/1/1 10/1/1 15/1/1
f 17/1/1 7/1/1 12/1/1
f 17/6/1 13/6/1 7/6/1
f 17/6/1 16/6/1 15/6/1
f 17/6/1 15/6/1 13/6/1
f 18/6/1 16/6/1 17/6/1
f 19/1/1 18/1/1 17/1/1
f 19/6/1 16/6/1 18/6/1
f 20/6/1 16/6/1 19/6/1
f 21/6/1 12/6/1 11/6/1
f 21/1/1 11/1/1 5/1/1
f 22/1/1 20/1/1 19/1/1
f 22/6/1 12/6/1 21/6/1
f 22/1/1 17/1/1 12/1/1
f 22/1/1 19/1/1 17/1/1
f 23/1/1 20/1/1 22/1/1
f 24/1/1 21/1/1 5/1/1
f 24/1/1 22/1/1 21/1/1
f 25/6/1 23/6/1 22/6/1
f 25/1/1 22/1/1 24/1/1
f 26/1/1 20/1/1 23/1/1
f 26/6/1 23/6/1 25/6/1
f 27/1/1 20/1/1 26/1/1
f 32/1/1 29/1/1 28/1/1
f 33/1/1 29/1/1 32/1/1
f 34/1/1 31/1/1 30/1/1
f 35/1/1 31/1/1 34/1/1
f 36/7/1 33/7/1 32/7/1
f 36/1/1 32/1/1 28/1/1
f 37/7/1 33/7/1 36/7/1
f 38/7/1 35/7/1 34/7/1
f 39/1/1 31/1/1 35/1/1
f 39/7/1 35/7/1 38/7/1
f 40/1/1 31/1/1 39/1/1
f 41/1/1 37/1/1 36/1/1
f 41/1/1 36/1/1 28/1/1
f 42/1/1 37/1/1 41/1/1
f 43/6/1 40/6/1 39/6/1
f 43/6/1 39/6/1 38/6/1
f 44/6/1 40/6/1 43/6/1
f 49/8/1 46/8/1 45/8/1
f 50/8/1 46/8/1 49/8/1
f 51/8/1 48/8/1 47/8/1
f 52/8/1 48/8/1 51/8/1
f 55/2/1 54/2/1 53/2/1
f 56/2/1 54/2/1 55/2/1
f 57/1/2 58/1/2 61/1/2
f 61/1/2 58/1/2 62/1/2
f 59/1/2 60/1/2 63/1/2
f 63/1/2 60/1/2 64/1/2
f 61/7/2 62/7/2 65/7/2
f 57/1/2 61/1/2 65/1/2
f 65/7/2 62/7/2 66/7/2
f 63/7/2 64/7/2 67/7/2
f 64/1/2 60/1/2 68/1/2
f 67/7/2 64/7/2 68/7/2
f 68/1/2 60/1/2 69/1/2
f 65/1/2 66/1/2 70/1/2
f 57/1/2 65/1/2 70/1/2
f 70/1/2 66/1/2 71/1/2
f 68/6/2 69/6/2 72/6/2
f 67/6/2 68/6/2 72/6/2
f 72/6/2 69/6/2 73/6/2
f 74/8/2 75/8/2 78/8/2
f 78/8/2 75/8/2 79/8/2
f 76/8/2 77/8/2 80/8/2
f 80/8/2 77/8/2 81/8/2
f 82/1/2 83/1/2 88/1/2
f 86/3/2 87/3/2 89/3/2
f 89/3/2 87/3/2 90/3/2
f 84/1/2 85/1/2 91/1/2
f 82/1/2 88/1/2 92/1/2
f 91/1/2 85/1/2 97/1/2
f 92/1/2 93/1/2 98/1/2
f 93/9/2 94/9/2 98/9/2
f 98/9/2 94/9/2 99/9/2
f 95/9/2 96/9/2 100/9/2
f 94/1/2 95/1/2 100/1/2
f 100/9/2 96/9/2 101/9/2
f 99/9/2 94/9/2 102/9/2
f 98/5/2 99/5/2 102/5/2
f 94/1/2 100/1/2 103/1/2
f 102/9/2 94/9/2 103/9/2
f 101/9/2 96/9/2 104/9/2
f 100/5/2 101/5/2 104/5/2
f 96/1/2 97/1/2 105/1/2
f 104/9/2 96/9/2 105/9/2
f 102/5/2 103/5/2 106/5/2
f 92/1/2 98/1/2 106/1/2
f 98/5/2 102/5/2 106/5/2
f 103/1/2 100/1/2 107/1/2
f 106/5/2 103/5/2 107/5/2
f 100/5/2 104/5/2 108/5/2
f 107/1/2 100/1/2 108/1/2
f 104/5/2 105/5/2 108/5/2
f 105/1/2 97/1/2 109/1/2
f 108/5/2 105/5/2 109/5/2
f 92/1/2 106/1/2 110/1/2
f 82/1/2 92/1/2 110/1/2
f 108/1/2 109/1/2 110/1/2
f 106/1/2 107/1/2 110/1/2
f 107/1/2 108/1/2 110/1/2
f 109/1/2 97/1/2 111/1/2
f 110/1/2 109/1/2 111/1/2
f 97/1/2 85/1/2 111/1/2
f 112/2/2 113/2/2 114/2/2
f 114/2/2 113/2/2 115/2/2
f 116/3/2 117/3/2 118/3/2
f 118/3/2 117/3/2 119/3/2
f 120/2/2 121/2/2 122/2/2
f 122/2/2 121/2/2 123/2/2
f 123/2/2 121/2/2 124/2/2
f 124/2/2 121/2/2 125/2/2
f 120/2/2 122/2/2 126/2/2
f 123/2/2 124/2/2 127/2/2
f 127/2/2 124/2/2 128/2/2
f 125/2/2 121/2/2 129/2/2
f 127/2/2 128/2/2 130/2/2
f 128/2/2 129/2/2 130/2/2
f 120/2/2 126/2/2 130/2/2
f 126/2/2 127/2/2 130/2/2
f 129/2/2 121/2/2 131/2/2
f 130/2/2 129/2/2 131/2/2
f 134/1/3 133/1/3 132/1/3
f 135/1/3 133/1/3 134/1/3
f 139/6/3 137/6/3 136/6/3
f 139/1/3 138/1/3 137/1/3
f 140/1/3 138/1/3 139/1/3
f 141/6/3 140/6/3 139/6/3
f 141/1/3 138/1/3 140/1/3
f 142/1/3 138/1/3 141/1/3
f 143/1/3 138/1/3 142/1/3
f 144/1/3 138/1/3 143/1/3
f 145/6/3 141/6/3 139/6/3
f 146/6/3 141/6/3 145/6/3
f 150/6/3 139/6/3 136/6/3
f 150/6/3 145/6/3 139/6/3
f 151/1/3 149/1/3 148/1/3
f 151/6/3 145/6/3 150/6/3
f 151/1/3 148/1/3 147/1/3
f 151/1/3 147/1/3 146/1/3
f 151/1/3 146/1/3 145/1/3
f 152/1/3 151/1/3 150/1/3
f 153/1/3 149/1/3 151/1/3
f 153/1/3 151/1/3 152/1/3
f 156/8/3 155/8/3 154/8/3
f 157/8/3 155/8/3 156/8/3
f 161/2/3 159/2/3 158/2/3
f 161/4/3 160/4/3 159/4/3
f 162/4/3 160/4/3 161/4/3
f 163/2/3 161/2/3 158/2/3
f 163/2/3 162/2/3 161/2/3
f 164/2/3 162/2/3 163/2/3
f 169/2/3 166/2/3 165/2/3
f 170/2/3 166/2/3 169/2/3
f 171/2/3 168/2/3 167/2/3
f 172/2/3 171/2/3 167/2/3
f 173/2/3 171/2/3 172/2/3
f 176/8/3 175/8/3 174/8/3
f 177/8/3 175/8/3 176/8/3
f 180/2/3 179/2/3 178/2/3
f 181/2/3 179/2/3 180/2/3
f 182/8/4 183/8/4 184/8/4
f 184/8/4 183/8/4 185/8/4
f 186/2/4 187/2/4 188/2/4
f 186/2/4 188/2/4 189/2/4
f 189/2/4 188/2/4 190/2/4
f 191/2/4 192/2/4 193/2/4
f 193/2/4 192/2/4 194/2/4
f 195/2/4 196/2/4 197/2/4
f 197/2/4 196/2/4 198/2/4
f 199/8/4 200/8/4 201/8/4
f 201/8/4 200/8/4 202/8/4
f 203/2/4 204/2/4 206/2/4
f 204/4/4 205/4/4 206/4/4
f 206/4/4 205/4/4 207/4/4
f 203/2/4 206/2/4 208/2/4
f 206/2/4 207/2/4 208/2/4
f 208/2/4 207/2/4 209/2/4
f 210/6/4 211/6/4 215/6/4
f 211/1/4 212/1/4 215/1/4
f 215/1/4 212/1/4 216/1/4
f 212/6/4 213/6/4 217/6/4
f 216/1/4 212/1/4 217/1/4
f 213/1/4 214/1/4 218/1/4
f 217/6/4 213/6/4 218/6/4
f 216/1/4 217/1/4 219/1/4
f 218/1/4 214/1/4 219/1/4
f 217/1/4 218/1/4 219/1/4
f 219/1/4 214/1/4 220/1/4
f 210/6/4 215/6/4 221/6/4
f 215/6/4 216/6/4 221/6/4
f 221/6/4 216/6/4 222/6/4
f 216/1/4 219/1/4 223/1/4
f 219/6/4 220/6/4 224/6/4
f 223/1/4 219/1/4 224/1/4
f 224/6/4 220/6/4 225/6/4
f 225/6/4 220/6/4 226/6/4
f 222/6/4 216/6/4 227/6/4
f 221/1/4 222/1/4 227/1/4
f 216/1/4 223/1/4 228/1/4
f 227/6/4 216/6/4 228/6/4
f 228/1/4 223/1/4 229/1/4
f 227/1/4 228/1/4 233/1/4
f 228/1/4 229/1/4 233/1/4
f 230/1/4 231/1/4 233/1/4
f 229/1/4 230/1/4 233/1/4
f 231/6/4 232/6/4 234/6/4
f 233/1/4 231/1/4 234/1/4
f 227/1/4 233/1/4 235/1/4
f 233/6/4 234/6/4 235/6/4
f 234/6/4 232/6/4 236/6/4
f 235/6/4 234/6/4 236/6/4
f 221/1/4 227/1/4 237/1/4
f 227/1/4 235/1/4 237/1/4
f 235/1/4 236/1/4 237/1/4
f 237/1/4 236/1/4 238/1/4
f 239/1/4 240/1/4 242/1/4
f 240/6/4 241/6/4 243/6/4
f 242/1/4 240/1/4 243/1/4
f 243/6/4 241/6/4 244/6/4
f 247/2/5 246/2/5 245/2/5
f 248/2/5 246/2/5 247/2/5
f 252/6/5 250/6/5 249/6/5
f 253/1/5 251/1/5 250/1/5
f 253/6/5 250/6/5 252/6/5
f 254/1/5 251/1/5 253/1/5
f 256/1/5 253/1/5 252/1/5
f 256/2/5 255/2/5 254/2/5
f 256/1/5 254/1/5 253/1/5
f 257/2/5 255/2/5 256/2/5
f 258/1/5 256/1/5 252/1/5
f 259/2/5 255/2/5 257/2/5
f 260/1/5 258/1/5 252/1/5
f 261/1/5 258/1/5 260/1/5
f 262/2/5 259/2/5 258/2/5
f 262/1/5 258/1/5 261/1/5
f 263/2/5 255/2/5 259/2/5
f 263/2/5 259/2/5 262/2/5
f 264/6/5 261/6/5 260/6/5
f 265/1/5 262/1/5 261/1/5
f 265/6/5 261/6/5 264/6/5
f 266/1/5 262/1/5 265/1/5
f 270/4/5 268/4/5 267/4/5
f 271/2/5 269/2/5 268/2/5
f 271/4/5 268/4/5 270/4/5
f 272/2/5 269/2/5 271/2/5
f 275/2/5 274/2/5 273/2/5
f 276/2/5 274/2/5 275/2/5
f 279/1/5 278/1/5 277/1/5
f 280/1/5 278/1/5 279/1/5
f 283/1/5 282/1/5 281/1/5
f 284/1/5 282/1/5 283/1/5
f 285/2/6 286/2/6 287/2/6
f 287/2/6 286/2/6 288/2/6
f 289/2/6 290/2/6 291/2/6
f 291/2/6 290/2/6 292/2/6
f 293/4/6 294/4/6 296/4/6
f 296/4/6 294/4/6 297/4/6
f 297/4/6 294/4/6 298/4/6
f 298/4/6 294/4/6 299/4/6
f 299/4/6 294/4/6 300/4/6
f 294/2/6 295/2/6 301/2/6
f 300/4/6 294/4/6 301/4/6
f 301/2/6 295/2/6 302/2/6
f 303/1/6 304/1/6 306/1/6
f 306/1/6 304/1/6 307/1/6
f 305/1/6 306/1/6 309/1/6
f 307/1/6 308/1/6 309/1/6
f 306/1/6 307/1/6 309/1/6
f 309/1/6 308/1/6 310/1/6
f 310/1/6 308/1/6 311/1/6
f 309/6/6 310/6/6 312/6/6
f 311/1/6 308/1/6 313/1/6
f 305/1/6 309/1/6 314/1/6
f 309/6/6 312/6/6 315/6/6
f 314/1/6 309/1/6 315/1/6
f 314/6/6 315/6/6 316/6/6
f 315/6/6 312/6/6 316/6/6
f 312/1/6 313/1/6 317/1/6
f 316/6/6 312/6/6 317/6/6
f 314/6/6 316/6/6 318/6/6
f 316/1/6 317/1/6 319/1/6
f 318/6/6 316/6/6 319/6/6
f 318/1/6 319/1/6 320/1/6
f 319/1/6 317/1/6 320/1/6
f 317/1/6 313/1/6 321/1/6
f 320/1/6 317/1/6 321/1/6
f 313/1/6 308/1/6 322/1/6
f 321/1/6 313/1/6 322/1/6
f 318/1/6 320/1/6 323/1/6
f 320/6/6 321/6/6 324/6/6
f 323/1/6 320/1/6 324/1/6
f 324/6/6 321/6/6 325/6/6
f 322/1/6 308/1/6 326/1/6
f 326/1/6 308/1/6 327/1/6
f 318/1/6 323/1/6 328/1/6
f 324/6/6 325/6/6 329/6/6
f 328/1/6 323/1/6 329/1/6
f 323/6/6 324/6/6 329/6/6
f 326/6/6 327/6/6 329/6/6
f 325/6/6 326/6/6 329/6/6
f 329/6/6 327/6/6 330/6/6
f 330/6/6 327/6/6 331/6/6
f 327/1/6 308/1/6 332/1/6
f 331/6/6 327/6/6 332/6/6
f 332/1/6 308/1/6 333/1/6
f 330/6/6 331/6/6 334/6/6
f 334/6/6 331/6/6 335/6/6
f 336/8/6 337/8/6 338/8/6
f 338/8/6 337/8/6 339/8/6
f 340/8/6 341/8/6 342/8/6
f 342/8/6 341/8/6 343/8/6
