# MagicaVoxel @ Ephtracy

# group
o 

# material
mtllib Animals-42.mtl
usemtl palette

# normals
vn -1 0 0
vn 1 0 0
vn 0 0 1
vn 0 0 -1
vn 0 -1 0
vn 0 1 0

# texcoords
vt 0.939453 0.5
vt 0.958984 0.5

# verts
v 1.7 0 14.8
v 1.7 0 14.6
v 1.7 0.1 14.8
v 1.7 0.1 14.6
v 1.7 0.7 14.7
v 1.7 0.7 14.6
v 1.7 0.9 14.8
v 1.7 0.9 14.7
v 1.7 0.9 14.6
v 1.9 0 14.8
v 1.9 0 14.6
v 1.9 0.1 14.8
v 1.9 0.1 14.6
v 1.9 0.8 14.7
v 1.9 0.8 14.6
v 1.9 0.9 14.8
v 1.9 0.9 14.7
v 1.9 0.9 14.6
v 1.7 0 14.8
v 1.7 0.1 14.8
v 1.7 0.9 14.8
v 1.9 0 14.8
v 1.9 0.1 14.8
v 1.9 0.9 14.8
v 1.7 0 14.6
v 1.7 0.1 14.6
v 1.7 0.7 14.6
v 1.7 0.9 14.6
v 1.8 0.7 14.6
v 1.8 0.8 14.6
v 1.9 0 14.6
v 1.9 0.1 14.6
v 1.9 0.8 14.6
v 1.9 0.9 14.6
v 1.7 0 14.8
v 1.9 0 14.8
v 1.7 0 14.6
v 1.9 0 14.6
v 1.7 0.9 14.8
v 1.9 0.9 14.8
v 1.7 0.9 14.7
v 1.9 0.9 14.7
v 1.7 0.9 14.6
v 1.9 0.9 14.6

# faces
f 3/2/1 2/2/1 1/2/1
f 4/2/1 2/2/1 3/2/1
f 5/1/1 4/1/1 3/1/1
f 6/1/1 4/1/1 5/1/1
f 7/1/1 5/1/1 3/1/1
f 8/2/1 6/2/1 5/2/1
f 8/1/1 5/1/1 7/1/1
f 9/2/1 6/2/1 8/2/1
f 10/2/2 11/2/2 12/2/2
f 12/2/2 11/2/2 13/2/2
f 12/1/2 13/1/2 14/1/2
f 14/1/2 13/1/2 15/1/2
f 12/1/2 14/1/2 16/1/2
f 14/2/2 15/2/2 17/2/2
f 16/1/2 14/1/2 17/1/2
f 17/2/2 15/2/2 18/2/2
f 22/2/3 20/2/3 19/2/3
f 23/1/3 21/1/3 20/1/3
f 23/2/3 20/2/3 22/2/3
f 24/1/3 21/1/3 23/1/3
f 26/1/4 27/1/4 29/1/4
f 27/2/4 28/2/4 29/2/4
f 29/2/4 28/2/4 30/2/4
f 25/2/4 26/2/4 31/2/4
f 26/1/4 29/1/4 32/1/4
f 31/2/4 26/2/4 32/2/4
f 29/1/4 30/1/4 32/1/4
f 30/2/4 28/2/4 33/2/4
f 32/1/4 30/1/4 33/1/4
f 33/2/4 28/2/4 34/2/4
f 37/2/5 36/2/5 35/2/5
f 38/2/5 36/2/5 37/2/5
f 39/1/6 40/1/6 41/1/6
f 41/1/6 40/1/6 42/1/6
f 41/2/6 42/2/6 43/2/6
f 43/2/6 42/2/6 44/2/6
