# MagicaVoxel @ Ephtracy

# group
o 

# material
mtllib Animals-18.mtl
usemtl palette

# normals
vn -1 0 0
vn 1 0 0
vn 0 0 1
vn 0 0 -1
vn 0 -1 0
vn 0 1 0

# texcoords
vt 0.783203 0.5
vt 0.787109 0.5
vt 0.791016 0.5
vt 0.818359 0.5
vt 0.974609 0.5
vt 0.978516 0.5

# verts
v 0.9 1 3
v 0.9 1 2.3
v 0.9 1.5 3
v 0.9 1.5 2.3
v 1 1.5 3
v 1 1.5 2.9
v 1 1.5 2.8
v 1 1.5 2.7
v 1 1.5 2.6
v 1 1.5 2.5
v 1 1.5 2.4
v 1 1.5 2.3
v 1 1.6 3
v 1 1.6 2.9
v 1 1.6 2.8
v 1 1.6 2.7
v 1 1.6 2.6
v 1 1.6 2.5
v 1 1.6 2.4
v 1 1.6 2.3
v 1 1.7 2.9
v 1 1.7 2.8
v 1 1.7 2.5
v 1 1.7 2.4
v 1.1 1.5 3
v 1.1 1.5 2.9
v 1.1 1.5 2.8
v 1.1 1.5 2.7
v 1.1 1.5 2.6
v 1.1 1.5 2.5
v 1.1 1.5 2.4
v 1.1 1.5 2.3
v 1.1 1.6 3
v 1.1 1.6 2.9
v 1.1 1.6 2.8
v 1.1 1.6 2.7
v 1.1 1.6 2.6
v 1.1 1.6 2.5
v 1.1 1.6 2.4
v 1.1 1.6 2.3
v 1.1 1.7 2.9
v 1.1 1.7 2.8
v 1.1 1.7 2.5
v 1.1 1.7 2.4
v 1.4 1 3
v 1.4 1 2.8
v 1.4 1 2.5
v 1.4 1 2.3
v 1.4 1.1 2.9
v 1.4 1.1 2.8
v 1.4 1.1 2.5
v 1.4 1.1 2.4
v 1.4 1.2 3
v 1.4 1.2 2.9
v 1.4 1.2 2.8
v 1.4 1.2 2.7
v 1.4 1.2 2.6
v 1.4 1.2 2.5
v 1.4 1.2 2.4
v 1.4 1.2 2.3
v 1.4 1.3 2.8
v 1.4 1.3 2.7
v 1.4 1.3 2.6
v 1.4 1.3 2.5
v 1.4 1.4 2.8
v 1.4 1.4 2.7
v 1.4 1.4 2.6
v 1.4 1.4 2.5
v 1.4 1.5 3
v 1.4 1.5 2.3
v 1.7 1 2.8
v 1.7 1 2.5
v 1.7 1.1 2.8
v 1.7 1.1 2.7
v 1.7 1.1 2.6
v 1.7 1.1 2.5
v 1.7 1.2 2.8
v 1.7 1.2 2.7
v 1.7 1.2 2.6
v 1.7 1.2 2.5
v 1.8 1.1 2.7
v 1.8 1.1 2.6
v 1.8 1.2 2.7
v 1.8 1.2 2.6
v 0.9 1 3
v 0.9 1.5 3
v 1 1.5 3
v 1 1.6 3
v 1.1 1.5 3
v 1.1 1.6 3
v 1.2 1 3
v 1.2 1.1 3
v 1.3 1.1 3
v 1.3 1.2 3
v 1.4 1 3
v 1.4 1.2 3
v 1.4 1.5 3
v 1 1.6 2.9
v 1 1.7 2.9
v 1.1 1.6 2.9
v 1.1 1.7 2.9
v 1.4 1 2.8
v 1.4 1.1 2.8
v 1.4 1.2 2.8
v 1.7 1 2.8
v 1.7 1.1 2.8
v 1.7 1.2 2.8
v 1.7 1.1 2.7
v 1.7 1.2 2.7
v 1.8 1.1 2.7
v 1.8 1.2 2.7
v 1 1.5 2.6
v 1 1.6 2.6
v 1.1 1.5 2.6
v 1.1 1.6 2.6
v 1 1.6 2.5
v 1 1.7 2.5
v 1.1 1.6 2.5
v 1.1 1.7 2.5
v 1 1.6 2.8
v 1 1.7 2.8
v 1.1 1.6 2.8
v 1.1 1.7 2.8
v 1 1.5 2.7
v 1 1.6 2.7
v 1.1 1.5 2.7
v 1.1 1.6 2.7
v 1.7 1.1 2.6
v 1.7 1.2 2.6
v 1.8 1.1 2.6
v 1.8 1.2 2.6
v 1.4 1 2.5
v 1.4 1.1 2.5
v 1.4 1.2 2.5
v 1.7 1 2.5
v 1.7 1.1 2.5
v 1.7 1.2 2.5
v 1 1.6 2.4
v 1 1.7 2.4
v 1.1 1.6 2.4
v 1.1 1.7 2.4
v 0.9 1 2.3
v 0.9 1.5 2.3
v 1 1.5 2.3
v 1 1.6 2.3
v 1.1 1.5 2.3
v 1.1 1.6 2.3
v 1.2 1 2.3
v 1.2 1.1 2.3
v 1.3 1.1 2.3
v 1.3 1.2 2.3
v 1.4 1 2.3
v 1.4 1.2 2.3
v 1.4 1.5 2.3
v 0.9 1 3
v 1.2 1 3
v 1.4 1 3
v 1.2 1 2.9
v 1.3 1 2.9
v 1.4 1 2.8
v 1.7 1 2.8
v 1.4 1 2.5
v 1.7 1 2.5
v 1.2 1 2.4
v 1.3 1 2.4
v 0.9 1 2.3
v 1.2 1 2.3
v 1.4 1 2.3
v 1.7 1.1 2.7
v 1.8 1.1 2.7
v 1.7 1.1 2.6
v 1.8 1.1 2.6
v 1.4 1.2 2.8
v 1.7 1.2 2.8
v 1.4 1.2 2.7
v 1.7 1.2 2.7
v 1.8 1.2 2.7
v 1.4 1.2 2.6
v 1.7 1.2 2.6
v 1.8 1.2 2.6
v 1.4 1.2 2.5
v 1.7 1.2 2.5
v 0.9 1.5 3
v 1 1.5 3
v 1.1 1.5 3
v 1.4 1.5 3
v 1 1.5 2.9
v 1.1 1.5 2.9
v 1 1.5 2.8
v 1.1 1.5 2.8
v 1 1.5 2.7
v 1.1 1.5 2.7
v 1 1.5 2.6
v 1.1 1.5 2.6
v 1 1.5 2.5
v 1.1 1.5 2.5
v 1 1.5 2.4
v 1.1 1.5 2.4
v 0.9 1.5 2.3
v 1 1.5 2.3
v 1.1 1.5 2.3
v 1.4 1.5 2.3
v 1 1.6 3
v 1.1 1.6 3
v 1 1.6 2.9
v 1.1 1.6 2.9
v 1 1.6 2.8
v 1.1 1.6 2.8
v 1 1.6 2.7
v 1.1 1.6 2.7
v 1 1.6 2.6
v 1.1 1.6 2.6
v 1 1.6 2.5
v 1.1 1.6 2.5
v 1 1.6 2.4
v 1.1 1.6 2.4
v 1 1.6 2.3
v 1.1 1.6 2.3
v 1 1.7 2.9
v 1.1 1.7 2.9
v 1 1.7 2.8
v 1.1 1.7 2.8
v 1 1.7 2.5
v 1.1 1.7 2.5
v 1 1.7 2.4
v 1.1 1.7 2.4

# faces
f 3/1/1 2/1/1 1/1/1
f 4/1/1 2/1/1 3/1/1
f 13/4/1 6/4/1 5/4/1
f 14/2/1 7/2/1 6/2/1
f 14/4/1 6/4/1 13/4/1
f 15/4/1 8/4/1 7/4/1
f 15/2/1 7/2/1 14/2/1
f 16/4/1 8/4/1 15/4/1
f 17/4/1 10/4/1 9/4/1
f 18/2/1 11/2/1 10/2/1
f 18/4/1 10/4/1 17/4/1
f 19/4/1 12/4/1 11/4/1
f 19/2/1 11/2/1 18/2/1
f 20/4/1 12/4/1 19/4/1
f 21/4/1 15/4/1 14/4/1
f 22/4/1 15/4/1 21/4/1
f 23/4/1 19/4/1 18/4/1
f 24/4/1 19/4/1 23/4/1
f 25/4/2 26/4/2 33/4/2
f 26/2/2 27/2/2 34/2/2
f 33/4/2 26/4/2 34/4/2
f 27/4/2 28/4/2 35/4/2
f 34/2/2 27/2/2 35/2/2
f 35/4/2 28/4/2 36/4/2
f 29/4/2 30/4/2 37/4/2
f 30/2/2 31/2/2 38/2/2
f 37/4/2 30/4/2 38/4/2
f 31/4/2 32/4/2 39/4/2
f 38/2/2 31/2/2 39/2/2
f 39/4/2 32/4/2 40/4/2
f 34/4/2 35/4/2 41/4/2
f 41/4/2 35/4/2 42/4/2
f 38/4/2 39/4/2 43/4/2
f 43/4/2 39/4/2 44/4/2
f 45/3/2 46/3/2 49/3/2
f 49/3/2 46/3/2 50/3/2
f 47/3/2 48/3/2 51/3/2
f 51/3/2 48/3/2 52/3/2
f 45/3/2 49/3/2 53/3/2
f 49/1/2 50/1/2 54/1/2
f 53/3/2 49/3/2 54/3/2
f 54/1/2 50/1/2 55/1/2
f 51/1/2 52/1/2 58/1/2
f 52/3/2 48/3/2 59/3/2
f 58/1/2 52/1/2 59/1/2
f 59/3/2 48/3/2 60/3/2
f 53/1/2 54/1/2 61/1/2
f 54/1/2 55/1/2 61/1/2
f 55/6/2 56/6/2 61/6/2
f 56/1/2 57/1/2 62/1/2
f 61/6/2 56/6/2 62/6/2
f 57/6/2 58/6/2 63/6/2
f 62/1/2 57/1/2 63/1/2
f 59/1/2 60/1/2 64/1/2
f 63/6/2 58/6/2 64/6/2
f 58/1/2 59/1/2 64/1/2
f 61/5/2 62/5/2 65/5/2
f 53/1/2 61/1/2 65/1/2
f 62/1/2 63/1/2 66/1/2
f 65/5/2 62/5/2 66/5/2
f 63/5/2 64/5/2 67/5/2
f 66/1/2 63/1/2 67/1/2
f 64/1/2 60/1/2 68/1/2
f 67/5/2 64/5/2 68/5/2
f 66/1/2 67/1/2 69/1/2
f 65/1/2 66/1/2 69/1/2
f 67/1/2 68/1/2 69/1/2
f 53/1/2 65/1/2 69/1/2
f 68/1/2 60/1/2 70/1/2
f 69/1/2 68/1/2 70/1/2
f 71/3/2 72/3/2 73/3/2
f 73/3/2 72/3/2 74/3/2
f 74/3/2 72/3/2 75/3/2
f 75/3/2 72/3/2 76/3/2
f 73/1/2 74/1/2 77/1/2
f 77/1/2 74/1/2 78/1/2
f 75/1/2 76/1/2 79/1/2
f 79/1/2 76/1/2 80/1/2
f 81/4/2 82/4/2 83/4/2
f 83/4/2 82/4/2 84/4/2
f 87/1/3 86/1/3 85/1/3
f 89/1/3 87/1/3 85/1/3
f 89/4/3 88/4/3 87/4/3
f 90/4/3 88/4/3 89/4/3
f 91/1/3 89/1/3 85/1/3
f 92/1/3 89/1/3 91/1/3
f 93/3/3 92/3/3 91/3/3
f 93/1/3 89/1/3 92/1/3
f 94/1/3 89/1/3 93/1/3
f 95/3/3 93/3/3 91/3/3
f 95/3/3 94/3/3 93/3/3
f 96/1/3 89/1/3 94/1/3
f 96/3/3 94/3/3 95/3/3
f 97/1/3 89/1/3 96/1/3
f 100/4/3 99/4/3 98/4/3
f 101/4/3 99/4/3 100/4/3
f 105/3/3 103/3/3 102/3/3
f 106/1/3 104/1/3 103/1/3
f 106/3/3 103/3/3 105/3/3
f 107/1/3 104/1/3 106/1/3
f 110/4/3 109/4/3 108/4/3
f 111/4/3 109/4/3 110/4/3
f 114/4/3 113/4/3 112/4/3
f 115/4/3 113/4/3 114/4/3
f 118/4/3 117/4/3 116/4/3
f 119/4/3 117/4/3 118/4/3
f 120/4/4 121/4/4 122/4/4
f 122/4/4 121/4/4 123/4/4
f 124/4/4 125/4/4 126/4/4
f 126/4/4 125/4/4 127/4/4
f 128/4/4 129/4/4 130/4/4
f 130/4/4 129/4/4 131/4/4
f 132/3/4 133/3/4 135/3/4
f 133/1/4 134/1/4 136/1/4
f 135/3/4 133/3/4 136/3/4
f 136/1/4 134/1/4 137/1/4
f 138/4/4 139/4/4 140/4/4
f 140/4/4 139/4/4 141/4/4
f 142/1/4 143/1/4 144/1/4
f 142/1/4 144/1/4 146/1/4
f 144/4/4 145/4/4 146/4/4
f 146/4/4 145/4/4 147/4/4
f 142/1/4 146/1/4 148/1/4
f 148/1/4 146/1/4 149/1/4
f 148/3/4 149/3/4 150/3/4
f 149/1/4 146/1/4 150/1/4
f 150/1/4 146/1/4 151/1/4
f 148/3/4 150/3/4 152/3/4
f 150/3/4 151/3/4 152/3/4
f 151/1/4 146/1/4 153/1/4
f 152/3/4 151/3/4 153/3/4
f 153/1/4 146/1/4 154/1/4
f 158/1/5 156/1/5 155/1/5
f 158/3/5 157/3/5 156/3/5
f 159/3/5 157/3/5 158/3/5
f 160/3/5 157/3/5 159/3/5
f 162/3/5 160/3/5 159/3/5
f 162/3/5 161/3/5 160/3/5
f 163/3/5 161/3/5 162/3/5
f 164/1/5 158/1/5 155/1/5
f 164/1/5 159/1/5 158/1/5
f 165/3/5 162/3/5 159/3/5
f 165/1/5 159/1/5 164/1/5
f 166/1/5 164/1/5 155/1/5
f 167/3/5 165/3/5 164/3/5
f 167/1/5 164/1/5 166/1/5
f 168/3/5 162/3/5 165/3/5
f 168/3/5 165/3/5 167/3/5
f 171/4/5 170/4/5 169/4/5
f 172/4/5 170/4/5 171/4/5
f 173/1/6 174/1/6 175/1/6
f 175/1/6 174/1/6 176/1/6
f 175/1/6 176/1/6 178/1/6
f 176/4/6 177/4/6 179/4/6
f 178/1/6 176/1/6 179/1/6
f 179/4/6 177/4/6 180/4/6
f 178/1/6 179/1/6 181/1/6
f 181/1/6 179/1/6 182/1/6
f 183/1/6 184/1/6 187/1/6
f 185/1/6 186/1/6 188/1/6
f 183/1/6 187/1/6 189/1/6
f 188/1/6 186/1/6 190/1/6
f 183/1/6 189/1/6 191/1/6
f 190/1/6 186/1/6 192/1/6
f 183/1/6 191/1/6 193/1/6
f 191/1/6 192/1/6 193/1/6
f 192/1/6 186/1/6 194/1/6
f 193/1/6 192/1/6 194/1/6
f 183/1/6 193/1/6 195/1/6
f 194/1/6 186/1/6 196/1/6
f 183/1/6 195/1/6 197/1/6
f 196/1/6 186/1/6 198/1/6
f 183/1/6 197/1/6 199/1/6
f 199/1/6 197/1/6 200/1/6
f 198/1/6 186/1/6 201/1/6
f 201/1/6 186/1/6 202/1/6
f 203/4/6 204/4/6 205/4/6
f 205/4/6 204/4/6 206/4/6
f 207/4/6 208/4/6 209/4/6
f 209/4/6 208/4/6 210/4/6
f 211/4/6 212/4/6 213/4/6
f 213/4/6 212/4/6 214/4/6
f 215/4/6 216/4/6 217/4/6
f 217/4/6 216/4/6 218/4/6
f 219/4/6 220/4/6 221/4/6
f 221/4/6 220/4/6 222/4/6
f 223/4/6 224/4/6 225/4/6
f 225/4/6 224/4/6 226/4/6
