# MagicaVoxel @ Ephtracy

# group
o 

# material
mtllib ConstructionMaterials-78.mtl
usemtl palette

# normals
vn -1 0 0
vn 1 0 0
vn 0 0 1
vn 0 0 -1
vn 0 -1 0
vn 0 1 0

# texcoords
vt 0.908203 0.5
vt 0.912109 0.5

# verts
v 0 0 7.6
v 0 0 7
v 0 0 6.8
v 0 0.1 7.2
v 0 0.1 7.1
v 0 0.2 7.4
v 0 0.2 7.2
v 0 0.2 7.1
v 0 0.2 7
v 0 0.3 7.6
v 0 0.3 7.4
v 0 0.3 7.2
v 0 0.5 7.2
v 0 0.5 6.8
v 0.9 0 7.6
v 0.9 0 7
v 0.9 0 6.8
v 0.9 0.1 7.2
v 0.9 0.1 7.1
v 0.9 0.2 7.4
v 0.9 0.2 7.2
v 0.9 0.2 7.1
v 0.9 0.2 7
v 0.9 0.3 7.6
v 0.9 0.3 7.4
v 0.9 0.3 7.2
v 0.9 0.5 7.2
v 0.9 0.5 6.8
v 0 0 7.6
v 0 0.3 7.6
v 0.2 0.2 7.6
v 0.2 0.3 7.6
v 0.3 0.2 7.6
v 0.3 0.3 7.6
v 0.5 0.1 7.6
v 0.5 0.3 7.6
v 0.6 0.1 7.6
v 0.6 0.3 7.6
v 0.9 0 7.6
v 0.9 0.3 7.6
v 0 0.3 7.2
v 0 0.5 7.2
v 0.9 0.3 7.2
v 0.9 0.5 7.2
v 0 0 6.8
v 0 0.5 6.8
v 0.9 0 6.8
v 0.9 0.5 6.8
v 0 0 7.6
v 0.9 0 7.6
v 0.1 0 7.5
v 0.8 0 7.5
v 0 0 7
v 0.1 0 7
v 0.8 0 7
v 0.9 0 7
v 0 0 6.8
v 0.9 0 6.8
v 0 0.3 7.6
v 0.2 0.3 7.6
v 0.3 0.3 7.6
v 0.5 0.3 7.6
v 0.6 0.3 7.6
v 0.9 0.3 7.6
v 0.1 0.3 7.5
v 0.2 0.3 7.5
v 0.4 0.3 7.5
v 0.5 0.3 7.5
v 0.6 0.3 7.5
v 0.7 0.3 7.5
v 0 0.3 7.4
v 0.1 0.3 7.4
v 0.8 0.3 7.4
v 0.9 0.3 7.4
v 0.3 0.3 7.3
v 0.4 0.3 7.3
v 0.7 0.3 7.3
v 0.8 0.3 7.3
v 0 0.3 7.2
v 0.9 0.3 7.2
v 0 0.5 7.2
v 0.9 0.5 7.2
v 0 0.5 6.8
v 0.9 0.5 6.8

# faces
f 4/2/1 2/2/1 1/2/1
f 5/2/1 2/2/1 4/2/1
f 6/2/1 4/2/1 1/2/1
f 7/1/1 5/1/1 4/1/1
f 7/2/1 4/2/1 6/2/1
f 8/2/1 2/2/1 5/2/1
f 8/1/1 5/1/1 7/1/1
f 9/1/1 3/1/1 2/1/1
f 9/2/1 2/2/1 8/2/1
f 10/2/1 6/2/1 1/2/1
f 11/1/1 8/1/1 7/1/1
f 11/2/1 6/2/1 10/2/1
f 11/1/1 7/1/1 6/1/1
f 11/1/1 9/1/1 8/1/1
f 12/1/1 9/1/1 11/1/1
f 13/1/1 9/1/1 12/1/1
f 14/1/1 3/1/1 9/1/1
f 14/1/1 9/1/1 13/1/1
f 15/2/2 16/2/2 18/2/2
f 18/2/2 16/2/2 19/2/2
f 15/2/2 18/2/2 20/2/2
f 18/1/2 19/1/2 21/1/2
f 20/2/2 18/2/2 21/2/2
f 19/2/2 16/2/2 22/2/2
f 21/1/2 19/1/2 22/1/2
f 16/1/2 17/1/2 23/1/2
f 22/2/2 16/2/2 23/2/2
f 15/2/2 20/2/2 24/2/2
f 21/1/2 22/1/2 25/1/2
f 24/2/2 20/2/2 25/2/2
f 20/1/2 21/1/2 25/1/2
f 22/1/2 23/1/2 25/1/2
f 25/1/2 23/1/2 26/1/2
f 26/1/2 23/1/2 27/1/2
f 23/1/2 17/1/2 28/1/2
f 27/1/2 23/1/2 28/1/2
f 31/2/3 30/2/3 29/2/3
f 32/2/3 30/2/3 31/2/3
f 33/2/3 31/2/3 29/2/3
f 33/1/3 32/1/3 31/1/3
f 34/1/3 32/1/3 33/1/3
f 35/2/3 33/2/3 29/2/3
f 35/2/3 34/2/3 33/2/3
f 36/2/3 34/2/3 35/2/3
f 37/2/3 35/2/3 29/2/3
f 37/1/3 36/1/3 35/1/3
f 38/1/3 36/1/3 37/1/3
f 39/2/3 37/2/3 29/2/3
f 39/2/3 38/2/3 37/2/3
f 40/2/3 38/2/3 39/2/3
f 43/1/3 42/1/3 41/1/3
f 44/1/3 42/1/3 43/1/3
f 45/1/4 46/1/4 47/1/4
f 47/1/4 46/1/4 48/1/4
f 51/2/5 50/2/5 49/2/5
f 52/2/5 50/2/5 51/2/5
f 53/2/5 51/2/5 49/2/5
f 54/1/5 52/1/5 51/1/5
f 54/2/5 51/2/5 53/2/5
f 55/2/5 50/2/5 52/2/5
f 55/1/5 52/1/5 54/1/5
f 56/2/5 50/2/5 55/2/5
f 57/1/5 54/1/5 53/1/5
f 57/1/5 55/1/5 54/1/5
f 57/1/5 56/1/5 55/1/5
f 58/1/5 56/1/5 57/1/5
f 59/2/6 60/2/6 65/2/6
f 60/1/6 61/1/6 66/1/6
f 65/2/6 60/2/6 66/2/6
f 61/2/6 62/2/6 67/2/6
f 62/1/6 63/1/6 68/1/6
f 67/2/6 62/2/6 68/2/6
f 63/2/6 64/2/6 69/2/6
f 68/1/6 63/1/6 69/1/6
f 69/2/6 64/2/6 70/2/6
f 59/2/6 65/2/6 71/2/6
f 65/1/6 66/1/6 72/1/6
f 71/2/6 65/2/6 72/2/6
f 70/2/6 64/2/6 73/2/6
f 73/2/6 64/2/6 74/2/6
f 72/1/6 66/1/6 75/1/6
f 66/1/6 61/1/6 75/1/6
f 61/2/6 67/2/6 75/2/6
f 71/1/6 72/1/6 75/1/6
f 67/1/6 68/1/6 76/1/6
f 75/2/6 67/2/6 76/2/6
f 68/1/6 69/1/6 76/1/6
f 69/1/6 70/1/6 76/1/6
f 70/2/6 73/2/6 77/2/6
f 76/1/6 70/1/6 77/1/6
f 73/1/6 74/1/6 78/1/6
f 77/2/6 73/2/6 78/2/6
f 71/1/6 75/1/6 79/1/6
f 76/1/6 77/1/6 79/1/6
f 77/1/6 78/1/6 79/1/6
f 75/1/6 76/1/6 79/1/6
f 78/1/6 74/1/6 80/1/6
f 79/1/6 78/1/6 80/1/6
f 81/1/6 82/1/6 83/1/6
f 83/1/6 82/1/6 84/1/6
