# MagicaVoxel @ Ephtracy

# group
o 

# material
mtllib ConstructionMaterials-83.mtl
usemtl palette

# normals
vn -1 0 0
vn 1 0 0
vn 0 0 1
vn 0 0 -1
vn 0 -1 0
vn 0 1 0

# texcoords
vt 0.916016 0.5
vt 0.919922 0.5

# verts
v -3 0 8.4
v -3 0 8
v -3 0.2 8.2
v -3 0.2 8
v -3 0.3 8.4
v -3 0.3 8.2
v -3 0.3 8
v -2.1 0 8.4
v -2.1 0 8
v -2.1 0.2 8.2
v -2.1 0.2 8
v -2.1 0.3 8.4
v -2.1 0.3 8.2
v -2.1 0.3 8
v -3 0 8.4
v -3 0.3 8.4
v -2.8 0.2 8.4
v -2.8 0.3 8.4
v -2.7 0.2 8.4
v -2.7 0.3 8.4
v -2.5 0.1 8.4
v -2.5 0.3 8.4
v -2.4 0.1 8.4
v -2.4 0.3 8.4
v -2.1 0 8.4
v -2.1 0.3 8.4
v -3 0 8
v -3 0.2 8
v -3 0.3 8
v -2.9 0 8
v -2.9 0.2 8
v -2.2 0 8
v -2.2 0.2 8
v -2.1 0 8
v -2.1 0.2 8
v -2.1 0.3 8
v -3 0 8.4
v -2.1 0 8.4
v -2.9 0 8.3
v -2.2 0 8.3
v -3 0 8
v -2.9 0 8
v -2.2 0 8
v -2.1 0 8
v -3 0.3 8.4
v -2.8 0.3 8.4
v -2.7 0.3 8.4
v -2.5 0.3 8.4
v -2.4 0.3 8.4
v -2.1 0.3 8.4
v -2.9 0.3 8.3
v -2.8 0.3 8.3
v -2.6 0.3 8.3
v -2.5 0.3 8.3
v -2.4 0.3 8.3
v -2.3 0.3 8.3
v -3 0.3 8.2
v -2.9 0.3 8.2
v -2.2 0.3 8.2
v -2.1 0.3 8.2
v -2.7 0.3 8.1
v -2.6 0.3 8.1
v -2.3 0.3 8.1
v -2.2 0.3 8.1
v -3 0.3 8
v -2.1 0.3 8

# faces
f 3/2/1 2/2/1 1/2/1
f 4/2/1 2/2/1 3/2/1
f 5/2/1 3/2/1 1/2/1
f 6/1/1 4/1/1 3/1/1
f 6/2/1 3/2/1 5/2/1
f 7/1/1 4/1/1 6/1/1
f 8/2/2 9/2/2 10/2/2
f 10/2/2 9/2/2 11/2/2
f 8/2/2 10/2/2 12/2/2
f 10/1/2 11/1/2 13/1/2
f 12/2/2 10/2/2 13/2/2
f 13/1/2 11/1/2 14/1/2
f 17/2/3 16/2/3 15/2/3
f 18/2/3 16/2/3 17/2/3
f 19/2/3 17/2/3 15/2/3
f 19/1/3 18/1/3 17/1/3
f 20/1/3 18/1/3 19/1/3
f 21/2/3 19/2/3 15/2/3
f 21/2/3 20/2/3 19/2/3
f 22/2/3 20/2/3 21/2/3
f 23/2/3 21/2/3 15/2/3
f 23/1/3 22/1/3 21/1/3
f 24/1/3 22/1/3 23/1/3
f 25/2/3 23/2/3 15/2/3
f 25/2/3 24/2/3 23/2/3
f 26/2/3 24/2/3 25/2/3
f 27/2/4 28/2/4 30/2/4
f 28/1/4 29/1/4 31/1/4
f 30/2/4 28/2/4 31/2/4
f 30/1/4 31/1/4 32/1/4
f 31/1/4 29/1/4 33/1/4
f 32/1/4 31/1/4 33/1/4
f 32/2/4 33/2/4 34/2/4
f 33/1/4 29/1/4 35/1/4
f 34/2/4 33/2/4 35/2/4
f 35/1/4 29/1/4 36/1/4
f 39/2/5 38/2/5 37/2/5
f 40/2/5 38/2/5 39/2/5
f 41/2/5 39/2/5 37/2/5
f 42/1/5 40/1/5 39/1/5
f 42/2/5 39/2/5 41/2/5
f 43/2/5 38/2/5 40/2/5
f 43/1/5 40/1/5 42/1/5
f 44/2/5 38/2/5 43/2/5
f 45/2/6 46/2/6 51/2/6
f 46/1/6 47/1/6 52/1/6
f 51/2/6 46/2/6 52/2/6
f 47/2/6 48/2/6 53/2/6
f 48/1/6 49/1/6 54/1/6
f 53/2/6 48/2/6 54/2/6
f 49/2/6 50/2/6 55/2/6
f 54/1/6 49/1/6 55/1/6
f 55/2/6 50/2/6 56/2/6
f 45/2/6 51/2/6 57/2/6
f 51/1/6 52/1/6 58/1/6
f 57/2/6 51/2/6 58/2/6
f 56/2/6 50/2/6 59/2/6
f 59/2/6 50/2/6 60/2/6
f 58/1/6 52/1/6 61/1/6
f 52/1/6 47/1/6 61/1/6
f 47/2/6 53/2/6 61/2/6
f 57/1/6 58/1/6 61/1/6
f 53/1/6 54/1/6 62/1/6
f 61/2/6 53/2/6 62/2/6
f 54/1/6 55/1/6 62/1/6
f 55/1/6 56/1/6 62/1/6
f 56/2/6 59/2/6 63/2/6
f 62/1/6 56/1/6 63/1/6
f 59/1/6 60/1/6 64/1/6
f 63/2/6 59/2/6 64/2/6
f 57/1/6 61/1/6 65/1/6
f 62/1/6 63/1/6 65/1/6
f 63/1/6 64/1/6 65/1/6
f 61/1/6 62/1/6 65/1/6
f 64/1/6 60/1/6 66/1/6
f 65/1/6 64/1/6 66/1/6
