# MagicaVoxel @ Ephtracy

# group
o 

# material
mtllib Animals-8.mtl
usemtl palette

# normals
vn -1 0 0
vn 1 0 0
vn 0 0 1
vn 0 0 -1
vn 0 -1 0
vn 0 1 0

# texcoords
vt 0.720703 0.5
vt 0.767578 0.5
vt 0.970703 0.5
vt 0.978516 0.5
vt 0.982422 0.5
vt 0.986328 0.5

# verts
v 0.8 1.3 19.6
v 0.8 1.3 19.1
v 0.8 1.4 19.4
v 0.8 1.4 19.2
v 0.8 1.5 19.6
v 0.8 1.5 19.5
v 0.8 1.6 19.6
v 0.8 1.6 19.5
v 0.8 1.6 19.4
v 0.8 1.6 19.3
v 0.8 1.6 19.2
v 0.8 1.6 19.1
v 0.8 1.7 19.3
v 0.8 1.7 19.1
v 0.8 1.8 19.6
v 0.8 1.8 19.4
v 0.8 1.8 19.3
v 0.8 1.8 19.1
v 0.8 1.9 19.4
v 0.8 1.9 19.3
v 0.9 1.9 19.4
v 0.9 1.9 19.3
v 0.9 2 19.4
v 0.9 2 19.3
v 1.1 1.9 19.4
v 1.1 1.9 19.3
v 1.1 2 19.4
v 1.1 2 19.3
v 1.2 1.3 19.6
v 1.2 1.3 19.4
v 1.2 1.3 19.3
v 1.2 1.3 19.1
v 1.2 1.5 19.5
v 1.2 1.5 19.4
v 1.2 1.5 19.3
v 1.2 1.5 19.2
v 1.2 1.6 19.5
v 1.2 1.6 19.4
v 1.2 1.6 19.3
v 1.2 1.6 19.2
v 1.2 1.7 19.5
v 1.2 1.7 19.4
v 1.2 1.7 19.3
v 1.2 1.7 19.2
v 1.2 1.8 19.6
v 1.2 1.8 19.4
v 1.2 1.8 19.3
v 1.2 1.8 19.1
v 1.2 1.9 19.4
v 1.2 1.9 19.3
v 1.3 1.3 19.4
v 1.3 1.3 19.3
v 1.3 1.5 19.4
v 1.3 1.5 19.3
v 1.4 1.5 19.4
v 1.4 1.5 19.3
v 1.4 1.6 19.4
v 1.4 1.6 19.3
v 0.8 1.3 19.6
v 0.8 1.5 19.6
v 0.8 1.6 19.6
v 0.8 1.8 19.6
v 0.9 1.4 19.6
v 0.9 1.5 19.6
v 0.9 1.6 19.6
v 1 1.3 19.6
v 1 1.4 19.6
v 1.1 1.3 19.6
v 1.1 1.5 19.6
v 1.2 1.3 19.6
v 1.2 1.8 19.6
v 0.8 1.8 19.4
v 0.8 1.9 19.4
v 0.9 1.9 19.4
v 0.9 2 19.4
v 1.1 1.9 19.4
v 1.1 2 19.4
v 1.2 1.3 19.4
v 1.2 1.5 19.4
v 1.2 1.6 19.4
v 1.2 1.8 19.4
v 1.2 1.9 19.4
v 1.3 1.3 19.4
v 1.3 1.5 19.4
v 1.4 1.5 19.4
v 1.4 1.6 19.4
v 0.8 1.8 19.3
v 0.8 1.9 19.3
v 0.9 1.9 19.3
v 0.9 2 19.3
v 1.1 1.9 19.3
v 1.1 2 19.3
v 1.2 1.3 19.3
v 1.2 1.5 19.3
v 1.2 1.6 19.3
v 1.2 1.8 19.3
v 1.2 1.9 19.3
v 1.3 1.3 19.3
v 1.3 1.5 19.3
v 1.4 1.5 19.3
v 1.4 1.6 19.3
v 0.8 1.3 19.1
v 0.8 1.6 19.1
v 0.8 1.7 19.1
v 0.8 1.8 19.1
v 0.9 1.4 19.1
v 0.9 1.5 19.1
v 0.9 1.6 19.1
v 0.9 1.7 19.1
v 1 1.4 19.1
v 1 1.5 19.1
v 1.2 1.3 19.1
v 1.2 1.8 19.1
v 0.8 1.3 19.6
v 1 1.3 19.6
v 1.1 1.3 19.6
v 1.2 1.3 19.6
v 1 1.3 19.5
v 1.1 1.3 19.5
v 1.2 1.3 19.4
v 1.3 1.3 19.4
v 1.2 1.3 19.3
v 1.3 1.3 19.3
v 0.8 1.3 19.1
v 1.2 1.3 19.1
v 1.3 1.5 19.4
v 1.4 1.5 19.4
v 1.3 1.5 19.3
v 1.4 1.5 19.3
v 1.2 1.6 19.4
v 1.4 1.6 19.4
v 1.2 1.6 19.3
v 1.4 1.6 19.3
v 0.8 1.8 19.6
v 1.2 1.8 19.6
v 0.8 1.8 19.4
v 1.2 1.8 19.4
v 0.8 1.8 19.3
v 1.2 1.8 19.3
v 0.8 1.8 19.1
v 1.2 1.8 19.1
v 0.8 1.9 19.4
v 0.9 1.9 19.4
v 1.1 1.9 19.4
v 1.2 1.9 19.4
v 0.8 1.9 19.3
v 0.9 1.9 19.3
v 1.1 1.9 19.3
v 1.2 1.9 19.3
v 0.9 2 19.4
v 1.1 2 19.4
v 0.9 2 19.3
v 1.1 2 19.3

# faces
f 3/2/1 2/2/1 1/2/1
f 4/2/1 2/2/1 3/2/1
f 5/2/1 3/2/1 1/2/1
f 6/2/1 3/2/1 5/2/1
f 7/1/1 6/1/1 5/1/1
f 8/2/1 3/2/1 6/2/1
f 8/1/1 6/1/1 7/1/1
f 9/1/1 4/1/1 3/1/1
f 9/2/1 3/2/1 8/2/1
f 10/1/1 4/1/1 9/1/1
f 11/2/1 2/2/1 4/2/1
f 11/1/1 4/1/1 10/1/1
f 12/2/1 2/2/1 11/2/1
f 13/2/1 10/2/1 9/2/1
f 13/2/1 8/2/1 7/2/1
f 13/1/1 12/1/1 11/1/1
f 13/1/1 11/1/1 10/1/1
f 13/2/1 9/2/1 8/2/1
f 14/1/1 12/1/1 13/1/1
f 15/2/1 13/2/1 7/2/1
f 15/2/1 14/2/1 13/2/1
f 16/2/1 14/2/1 15/2/1
f 17/2/1 14/2/1 16/2/1
f 18/2/1 14/2/1 17/2/1
f 19/5/1 17/5/1 16/5/1
f 20/5/1 17/5/1 19/5/1
f 23/5/1 22/5/1 21/5/1
f 24/5/1 22/5/1 23/5/1
f 25/5/2 26/5/2 27/5/2
f 27/5/2 26/5/2 28/5/2
f 29/2/2 30/2/2 33/2/2
f 33/2/2 30/2/2 34/2/2
f 31/2/2 32/2/2 35/2/2
f 35/2/2 32/2/2 36/2/2
f 33/6/2 34/6/2 37/6/2
f 29/2/2 33/2/2 37/2/2
f 37/6/2 34/6/2 38/6/2
f 35/6/2 36/6/2 39/6/2
f 36/2/2 32/2/2 40/2/2
f 39/6/2 36/6/2 40/6/2
f 37/4/2 38/4/2 41/4/2
f 29/2/2 37/2/2 41/2/2
f 38/2/2 39/2/2 42/2/2
f 41/4/2 38/4/2 42/4/2
f 39/4/2 40/4/2 43/4/2
f 42/2/2 39/2/2 43/2/2
f 40/2/2 32/2/2 44/2/2
f 43/4/2 40/4/2 44/4/2
f 29/2/2 41/2/2 45/2/2
f 42/2/2 43/2/2 45/2/2
f 43/2/2 44/2/2 45/2/2
f 41/2/2 42/2/2 45/2/2
f 45/2/2 44/2/2 46/2/2
f 46/2/2 44/2/2 47/2/2
f 44/2/2 32/2/2 48/2/2
f 47/2/2 44/2/2 48/2/2
f 46/5/2 47/5/2 49/5/2
f 49/5/2 47/5/2 50/5/2
f 51/5/2 52/5/2 53/5/2
f 53/5/2 52/5/2 54/5/2
f 55/3/2 56/3/2 57/3/2
f 57/3/2 56/3/2 58/3/2
f 63/2/3 60/2/3 59/2/3
f 64/1/3 61/1/3 60/1/3
f 64/2/3 60/2/3 63/2/3
f 65/2/3 62/2/3 61/2/3
f 65/1/3 61/1/3 64/1/3
f 66/2/3 63/2/3 59/2/3
f 67/1/3 64/1/3 63/1/3
f 67/2/3 63/2/3 66/2/3
f 68/1/3 67/1/3 66/1/3
f 69/2/3 65/2/3 64/2/3
f 69/1/3 67/1/3 68/1/3
f 69/1/3 64/1/3 67/1/3
f 70/2/3 69/2/3 68/2/3
f 71/2/3 62/2/3 65/2/3
f 71/2/3 69/2/3 70/2/3
f 71/2/3 65/2/3 69/2/3
f 74/5/3 73/5/3 72/5/3
f 76/5/3 74/5/3 72/5/3
f 76/5/3 75/5/3 74/5/3
f 77/5/3 75/5/3 76/5/3
f 81/5/3 76/5/3 72/5/3
f 82/5/3 76/5/3 81/5/3
f 83/5/3 79/5/3 78/5/3
f 84/3/3 80/3/3 79/3/3
f 84/5/3 79/5/3 83/5/3
f 85/3/3 80/3/3 84/3/3
f 86/3/3 80/3/3 85/3/3
f 87/5/4 88/5/4 89/5/4
f 87/5/4 89/5/4 91/5/4
f 89/5/4 90/5/4 91/5/4
f 91/5/4 90/5/4 92/5/4
f 87/5/4 91/5/4 96/5/4
f 96/5/4 91/5/4 97/5/4
f 93/5/4 94/5/4 98/5/4
f 94/3/4 95/3/4 99/3/4
f 98/5/4 94/5/4 99/5/4
f 99/3/4 95/3/4 100/3/4
f 100/3/4 95/3/4 101/3/4
f 102/2/4 103/2/4 106/2/4
f 106/2/4 103/2/4 107/2/4
f 103/1/4 104/1/4 108/1/4
f 107/2/4 103/2/4 108/2/4
f 104/2/4 105/2/4 109/2/4
f 108/1/4 104/1/4 109/1/4
f 106/1/4 107/1/4 110/1/4
f 102/2/4 106/2/4 110/2/4
f 107/2/4 108/2/4 111/2/4
f 110/1/4 107/1/4 111/1/4
f 108/2/4 109/2/4 111/2/4
f 102/2/4 110/2/4 112/2/4
f 110/2/4 111/2/4 112/2/4
f 111/2/4 109/2/4 113/2/4
f 112/2/4 111/2/4 113/2/4
f 109/2/4 105/2/4 113/2/4
f 118/2/5 115/2/5 114/2/5
f 118/1/5 116/1/5 115/1/5
f 119/2/5 117/2/5 116/2/5
f 119/1/5 116/1/5 118/1/5
f 120/2/5 119/2/5 118/2/5
f 120/2/5 117/2/5 119/2/5
f 122/2/5 120/2/5 118/2/5
f 122/5/5 121/5/5 120/5/5
f 123/5/5 121/5/5 122/5/5
f 124/2/5 118/2/5 114/2/5
f 124/2/5 122/2/5 118/2/5
f 125/2/5 122/2/5 124/2/5
f 128/3/5 127/3/5 126/3/5
f 129/3/5 127/3/5 128/3/5
f 130/3/6 131/3/6 132/3/6
f 132/3/6 131/3/6 133/3/6
f 134/2/6 135/2/6 136/2/6
f 136/2/6 135/2/6 137/2/6
f 138/2/6 139/2/6 140/2/6
f 140/2/6 139/2/6 141/2/6
f 142/5/6 143/5/6 146/5/6
f 146/5/6 143/5/6 147/5/6
f 144/5/6 145/5/6 148/5/6
f 148/5/6 145/5/6 149/5/6
f 150/5/6 151/5/6 152/5/6
f 152/5/6 151/5/6 153/5/6
