# MagicaVoxel @ Ephtracy

# group
o 

# material
mtllib BlocksAndFloors-43.mtl
usemtl palette

# normals
vn -1 0 0
vn 1 0 0
vn 0 0 1
vn 0 0 -1
vn 0 -1 0
vn 0 1 0

# texcoords
vt 0.845703 0.5
vt 0.849609 0.5
vt 0.853516 0.5
vt 0.857422 0.5

# verts
v 15.8 0 -6
v 15.8 0 -7
v 15.8 0.4 -6.7
v 15.8 0.4 -6.8
v 15.8 0.5 -6.3
v 15.8 0.5 -6.4
v 15.8 0.6 -6.1
v 15.8 0.6 -6.2
v 15.8 0.6 -6.5
v 15.8 0.6 -6.6
v 15.8 0.6 -6.8
v 15.8 0.6 -6.9
v 15.8 0.7 -6.1
v 15.8 0.7 -6.2
v 15.8 0.7 -6.3
v 15.8 0.7 -6.4
v 15.8 0.7 -6.5
v 15.8 0.7 -6.6
v 15.8 0.7 -6.7
v 15.8 0.7 -6.8
v 15.8 0.8 -6
v 15.8 0.8 -6.1
v 15.8 0.8 -6.2
v 15.8 0.8 -6.3
v 15.8 0.8 -6.4
v 15.8 0.8 -6.5
v 15.8 0.8 -6.6
v 15.8 0.8 -6.7
v 15.8 0.8 -6.8
v 15.8 0.8 -6.9
v 15.8 0.8 -7
v 15.8 0.9 -6
v 15.8 0.9 -6.1
v 15.8 0.9 -6.2
v 15.8 0.9 -6.4
v 15.8 0.9 -6.5
v 15.8 0.9 -6.6
v 15.8 0.9 -6.7
v 15.8 0.9 -6.9
v 15.8 0.9 -7
v 15.8 1 -6
v 15.8 1 -6.1
v 15.8 1 -6.2
v 15.8 1 -6.3
v 15.8 1 -6.4
v 15.8 1 -6.6
v 15.8 1 -6.8
v 15.8 1 -6.9
v 15.8 1 -7
v 16.8 0 -6
v 16.8 0 -7
v 16.8 0.5 -6
v 16.8 0.5 -6.1
v 16.8 0.5 -6.3
v 16.8 0.5 -6.4
v 16.8 0.5 -6.7
v 16.8 0.5 -6.8
v 16.8 0.6 -6
v 16.8 0.6 -6.1
v 16.8 0.6 -6.3
v 16.8 0.6 -6.4
v 16.8 0.6 -6.5
v 16.8 0.6 -6.6
v 16.8 0.6 -6.8
v 16.8 0.6 -6.9
v 16.8 0.7 -6
v 16.8 0.7 -6.1
v 16.8 0.7 -6.2
v 16.8 0.7 -6.3
v 16.8 0.7 -6.4
v 16.8 0.7 -6.5
v 16.8 0.7 -6.8
v 16.8 0.7 -6.9
v 16.8 0.7 -7
v 16.8 0.8 -6.1
v 16.8 0.8 -6.2
v 16.8 0.8 -6.4
v 16.8 0.8 -6.5
v 16.8 0.8 -6.6
v 16.8 0.8 -6.7
v 16.8 0.8 -6.8
v 16.8 0.8 -6.9
v 16.8 0.8 -7
v 16.8 0.9 -6
v 16.8 0.9 -6.1
v 16.8 0.9 -6.2
v 16.8 0.9 -6.3
v 16.8 0.9 -6.5
v 16.8 0.9 -6.6
v 16.8 0.9 -6.7
v 16.8 0.9 -6.8
v 16.8 0.9 -6.9
v 16.8 1 -6
v 16.8 1 -6.2
v 16.8 1 -6.4
v 16.8 1 -6.6
v 16.8 1 -6.7
v 16.8 1 -6.8
v 16.8 1 -7
v 15.8 0 -6
v 15.8 0.8 -6
v 15.8 0.9 -6
v 15.8 1 -6
v 15.9 0.5 -6
v 15.9 0.8 -6
v 15.9 0.9 -6
v 16 0.5 -6
v 16 0.6 -6
v 16 0.7 -6
v 16 0.8 -6
v 16 0.9 -6
v 16 1 -6
v 16.1 0.5 -6
v 16.1 0.6 -6
v 16.1 0.7 -6
v 16.1 0.9 -6
v 16.2 0.4 -6
v 16.2 0.5 -6
v 16.2 0.6 -6
v 16.2 0.7 -6
v 16.2 1 -6
v 16.3 0.4 -6
v 16.3 0.6 -6
v 16.3 0.7 -6
v 16.3 0.8 -6
v 16.3 1 -6
v 16.4 0.4 -6
v 16.4 0.6 -6
v 16.4 0.7 -6
v 16.4 0.8 -6
v 16.4 0.9 -6
v 16.4 1 -6
v 16.5 0.4 -6
v 16.5 0.6 -6
v 16.5 0.7 -6
v 16.5 0.9 -6
v 16.5 1 -6
v 16.6 0.3 -6
v 16.6 0.6 -6
v 16.6 0.7 -6
v 16.6 0.9 -6
v 16.6 1 -6
v 16.7 0.3 -6
v 16.7 0.5 -6
v 16.7 0.6 -6
v 16.7 0.7 -6
v 16.7 0.9 -6
v 16.7 1 -6
v 16.8 0 -6
v 16.8 0.5 -6
v 16.8 0.6 -6
v 16.8 0.7 -6
v 16.8 0.9 -6
v 16.8 1 -6
v 15.8 0 -7
v 15.8 0.8 -7
v 15.8 0.9 -7
v 15.8 1 -7
v 15.9 0.4 -7
v 15.9 0.8 -7
v 15.9 0.9 -7
v 15.9 1 -7
v 16 0.4 -7
v 16 0.6 -7
v 16 0.7 -7
v 16 0.8 -7
v 16 0.9 -7
v 16 1 -7
v 16.1 0.6 -7
v 16.1 0.7 -7
v 16.1 0.8 -7
v 16.1 0.9 -7
v 16.1 1 -7
v 16.2 0.5 -7
v 16.2 0.7 -7
v 16.2 0.8 -7
v 16.3 0.5 -7
v 16.3 0.7 -7
v 16.3 0.8 -7
v 16.3 0.9 -7
v 16.3 1 -7
v 16.4 0.6 -7
v 16.4 0.7 -7
v 16.4 0.8 -7
v 16.4 0.9 -7
v 16.4 1 -7
v 16.5 0.6 -7
v 16.5 0.7 -7
v 16.5 0.8 -7
v 16.5 1 -7
v 16.6 0.5 -7
v 16.6 0.7 -7
v 16.6 0.8 -7
v 16.6 0.9 -7
v 16.7 0.5 -7
v 16.7 0.7 -7
v 16.7 0.8 -7
v 16.7 0.9 -7
v 16.7 1 -7
v 16.8 0 -7
v 16.8 0.7 -7
v 16.8 0.8 -7
v 16.8 1 -7
v 15.8 0 -6
v 16.8 0 -6
v 15.8 0 -7
v 16.8 0 -7
v 15.8 1 -6
v 16 1 -6
v 16.2 1 -6
v 16.3 1 -6
v 16.4 1 -6
v 16.5 1 -6
v 16.6 1 -6
v 16.7 1 -6
v 16.8 1 -6
v 15.8 1 -6.1
v 16 1 -6.1
v 16.2 1 -6.1
v 16.4 1 -6.1
v 16.5 1 -6.1
v 16.6 1 -6.1
v 15.8 1 -6.2
v 16 1 -6.2
v 16.3 1 -6.2
v 16.5 1 -6.2
v 16.6 1 -6.2
v 16.7 1 -6.2
v 16.8 1 -6.2
v 15.8 1 -6.3
v 15.9 1 -6.3
v 16 1 -6.3
v 16.1 1 -6.3
v 16.2 1 -6.3
v 16.3 1 -6.3
v 16.4 1 -6.3
v 16.5 1 -6.3
v 16.6 1 -6.3
v 16.7 1 -6.3
v 15.8 1 -6.4
v 15.9 1 -6.4
v 16 1 -6.4
v 16.1 1 -6.4
v 16.2 1 -6.4
v 16.4 1 -6.4
v 16.5 1 -6.4
v 16.7 1 -6.4
v 16.8 1 -6.4
v 16 1 -6.5
v 16.1 1 -6.5
v 16.3 1 -6.5
v 16.5 1 -6.5
v 15.8 1 -6.6
v 15.9 1 -6.6
v 16 1 -6.6
v 16.1 1 -6.6
v 16.2 1 -6.6
v 16.4 1 -6.6
v 16.5 1 -6.6
v 16.6 1 -6.6
v 16.8 1 -6.6
v 15.9 1 -6.7
v 16 1 -6.7
v 16.1 1 -6.7
v 16.4 1 -6.7
v 16.5 1 -6.7
v 16.6 1 -6.7
v 16.8 1 -6.7
v 15.8 1 -6.8
v 15.9 1 -6.8
v 16.2 1 -6.8
v 16.5 1 -6.8
v 16.6 1 -6.8
v 16.8 1 -6.8
v 15.8 1 -6.9
v 15.9 1 -6.9
v 16.3 1 -6.9
v 16.4 1 -6.9
v 16.5 1 -6.9
v 16.7 1 -6.9
v 15.8 1 -7
v 15.9 1 -7
v 16 1 -7
v 16.1 1 -7
v 16.3 1 -7
v 16.4 1 -7
v 16.5 1 -7
v 16.7 1 -7
v 16.8 1 -7

# faces
f 3/1/1 2/1/1 1/1/1
f 4/1/1 2/1/1 3/1/1
f 5/1/1 3/1/1 1/1/1
f 6/1/1 3/1/1 5/1/1
f 7/1/1 5/1/1 1/1/1
f 8/1/1 5/1/1 7/1/1
f 9/1/1 3/1/1 6/1/1
f 10/1/1 3/1/1 9/1/1
f 11/1/1 2/1/1 4/1/1
f 11/4/1 4/4/1 3/4/1
f 12/1/1 2/1/1 11/1/1
f 13/1/1 7/1/1 1/1/1
f 13/4/1 8/4/1 7/4/1
f 14/1/1 5/1/1 8/1/1
f 14/4/1 8/4/1 13/4/1
f 15/4/1 6/4/1 5/4/1
f 15/1/1 5/1/1 14/1/1
f 16/1/1 9/1/1 6/1/1
f 16/4/1 6/4/1 15/4/1
f 17/4/1 10/4/1 9/4/1
f 17/1/1 9/1/1 16/1/1
f 18/1/1 3/1/1 10/1/1
f 18/4/1 10/4/1 17/4/1
f 19/4/1 12/4/1 11/4/1
f 19/1/1 3/1/1 18/1/1
f 19/4/1 11/4/1 3/4/1
f 20/4/1 12/4/1 19/4/1
f 21/1/1 13/1/1 1/1/1
f 22/3/1 14/3/1 13/3/1
f 22/1/1 13/1/1 21/1/1
f 23/4/1 15/4/1 14/4/1
f 23/3/1 14/3/1 22/3/1
f 24/2/1 16/2/1 15/2/1
f 24/4/1 15/4/1 23/4/1
f 25/4/1 17/4/1 16/4/1
f 25/2/1 16/2/1 24/2/1
f 26/2/1 18/2/1 17/2/1
f 26/4/1 17/4/1 25/4/1
f 27/4/1 19/4/1 18/4/1
f 27/2/1 18/2/1 26/2/1
f 28/2/1 20/2/1 19/2/1
f 28/4/1 19/4/1 27/4/1
f 29/4/1 12/4/1 20/4/1
f 29/2/1 20/2/1 28/2/1
f 30/1/1 2/1/1 12/1/1
f 30/4/1 12/4/1 29/4/1
f 31/1/1 2/1/1 30/1/1
f 32/4/1 22/4/1 21/4/1
f 33/2/1 24/2/1 23/2/1
f 33/4/1 22/4/1 32/4/1
f 33/2/1 23/2/1 22/2/1
f 34/2/1 24/2/1 33/2/1
f 35/3/1 25/3/1 24/3/1
f 35/3/1 26/3/1 25/3/1
f 36/2/1 28/2/1 27/2/1
f 36/3/1 26/3/1 35/3/1
f 36/2/1 27/2/1 26/2/1
f 37/2/1 28/2/1 36/2/1
f 38/3/1 29/3/1 28/3/1
f 38/2/1 28/2/1 37/2/1
f 39/4/1 31/4/1 30/4/1
f 39/2/1 30/2/1 29/2/1
f 40/4/1 31/4/1 39/4/1
f 41/2/1 33/2/1 32/2/1
f 42/3/1 34/3/1 33/3/1
f 42/2/1 33/2/1 41/2/1
f 43/2/1 24/2/1 34/2/1
f 43/3/1 34/3/1 42/3/1
f 44/3/1 35/3/1 24/3/1
f 44/2/1 24/2/1 43/2/1
f 45/2/1 37/2/1 36/2/1
f 45/3/1 35/3/1 44/3/1
f 45/2/1 36/2/1 35/2/1
f 46/3/1 38/3/1 37/3/1
f 46/2/1 37/2/1 45/2/1
f 47/3/1 29/3/1 38/3/1
f 47/3/1 38/3/1 46/3/1
f 47/2/1 39/2/1 29/2/1
f 48/3/1 40/3/1 39/3/1
f 48/2/1 39/2/1 47/2/1
f 49/3/1 40/3/1 48/3/1
f 50/1/2 51/1/2 52/1/2
f 52/1/2 51/1/2 53/1/2
f 53/1/2 51/1/2 54/1/2
f 54/1/2 51/1/2 55/1/2
f 55/1/2 51/1/2 56/1/2
f 56/1/2 51/1/2 57/1/2
f 52/4/2 53/4/2 58/4/2
f 53/1/2 54/1/2 59/1/2
f 58/4/2 53/4/2 59/4/2
f 54/4/2 55/4/2 60/4/2
f 59/1/2 54/1/2 60/1/2
f 55/1/2 56/1/2 61/1/2
f 60/4/2 55/4/2 61/4/2
f 61/1/2 56/1/2 62/1/2
f 62/1/2 56/1/2 63/1/2
f 57/1/2 51/1/2 64/1/2
f 56/4/2 57/4/2 64/4/2
f 64/1/2 51/1/2 65/1/2
f 58/3/2 59/3/2 66/3/2
f 59/4/2 60/4/2 67/4/2
f 66/3/2 59/3/2 67/3/2
f 67/4/2 60/4/2 68/4/2
f 60/2/2 61/2/2 69/2/2
f 68/4/2 60/4/2 69/4/2
f 61/1/2 62/1/2 70/1/2
f 69/2/2 61/2/2 70/2/2
f 62/4/2 63/4/2 71/4/2
f 70/1/2 62/1/2 71/1/2
f 56/4/2 64/4/2 72/4/2
f 64/4/2 65/4/2 72/4/2
f 65/1/2 51/1/2 73/1/2
f 72/4/2 65/4/2 73/4/2
f 73/1/2 51/1/2 74/1/2
f 67/2/2 68/2/2 75/2/2
f 66/2/2 67/2/2 75/2/2
f 68/3/2 69/3/2 76/3/2
f 75/2/2 68/2/2 76/2/2
f 69/2/2 70/2/2 77/2/2
f 70/4/2 71/4/2 77/4/2
f 71/4/2 63/4/2 78/4/2
f 77/4/2 71/4/2 78/4/2
f 63/1/2 56/1/2 79/1/2
f 78/4/2 63/4/2 79/4/2
f 56/4/2 72/4/2 80/4/2
f 79/1/2 56/1/2 80/1/2
f 72/3/2 73/3/2 81/3/2
f 80/4/2 72/4/2 81/4/2
f 73/4/2 74/4/2 82/4/2
f 81/3/2 73/3/2 82/3/2
f 82/4/2 74/4/2 83/4/2
f 66/2/2 75/2/2 84/2/2
f 75/3/2 76/3/2 85/3/2
f 84/2/2 75/2/2 85/2/2
f 76/3/2 69/3/2 86/3/2
f 85/3/2 76/3/2 86/3/2
f 69/2/2 77/2/2 87/2/2
f 86/3/2 69/3/2 87/3/2
f 77/3/2 78/3/2 88/3/2
f 78/2/2 79/2/2 88/2/2
f 79/4/2 80/4/2 89/4/2
f 88/2/2 79/2/2 89/2/2
f 80/2/2 81/2/2 90/2/2
f 89/4/2 80/4/2 90/4/2
f 81/3/2 82/3/2 91/3/2
f 90/2/2 81/2/2 91/2/2
f 82/2/2 83/2/2 92/2/2
f 91/3/2 82/3/2 92/3/2
f 84/3/2 85/3/2 93/3/2
f 85/3/2 86/3/2 93/3/2
f 86/2/2 87/2/2 94/2/2
f 93/3/2 86/3/2 94/3/2
f 87/2/2 77/2/2 95/2/2
f 94/2/2 87/2/2 95/2/2
f 88/3/2 89/3/2 95/3/2
f 77/3/2 88/3/2 95/3/2
f 89/2/2 90/2/2 96/2/2
f 95/3/2 89/3/2 96/3/2
f 90/3/2 91/3/2 97/3/2
f 96/2/2 90/2/2 97/2/2
f 91/2/2 92/2/2 98/2/2
f 97/3/2 91/3/2 98/3/2
f 92/2/2 83/2/2 99/2/2
f 98/2/2 92/2/2 99/2/2
f 104/1/3 101/1/3 100/1/3
f 105/4/3 102/4/3 101/4/3
f 105/1/3 101/1/3 104/1/3
f 106/2/3 103/2/3 102/2/3
f 106/4/3 102/4/3 105/4/3
f 107/4/3 105/4/3 104/4/3
f 107/1/3 104/1/3 100/1/3
f 108/4/3 105/4/3 107/4/3
f 109/4/3 105/4/3 108/4/3
f 110/2/3 106/2/3 105/2/3
f 110/4/3 105/4/3 109/4/3
f 111/2/3 103/2/3 106/2/3
f 111/2/3 106/2/3 110/2/3
f 112/2/3 103/2/3 111/2/3
f 113/1/3 107/1/3 100/1/3
f 113/1/3 108/1/3 107/1/3
f 114/4/3 109/4/3 108/4/3
f 114/1/3 108/1/3 113/1/3
f 115/2/3 110/2/3 109/2/3
f 115/4/3 109/4/3 114/4/3
f 115/2/3 111/2/3 110/2/3
f 116/3/3 112/3/3 111/3/3
f 116/2/3 111/2/3 115/2/3
f 117/1/3 113/1/3 100/1/3
f 118/4/3 114/4/3 113/4/3
f 118/1/3 113/1/3 117/1/3
f 119/2/3 115/2/3 114/2/3
f 119/4/3 114/4/3 118/4/3
f 120/3/3 116/3/3 115/3/3
f 120/2/3 115/2/3 119/2/3
f 121/3/3 112/3/3 116/3/3
f 121/3/3 116/3/3 120/3/3
f 122/1/3 117/1/3 100/1/3
f 122/4/3 118/4/3 117/4/3
f 122/4/3 119/4/3 118/4/3
f 123/3/3 120/3/3 119/3/3
f 123/4/3 119/4/3 122/4/3
f 124/2/3 121/2/3 120/2/3
f 124/3/3 120/3/3 123/3/3
f 125/2/3 121/2/3 124/2/3
f 126/2/3 121/2/3 125/2/3
f 127/1/3 122/1/3 100/1/3
f 127/1/3 123/1/3 122/1/3
f 128/4/3 124/4/3 123/4/3
f 128/1/3 123/1/3 127/1/3
f 129/2/3 125/2/3 124/2/3
f 129/4/3 124/4/3 128/4/3
f 130/3/3 126/3/3 125/3/3
f 130/2/3 125/2/3 129/2/3
f 131/3/3 126/3/3 130/3/3
f 132/3/3 126/3/3 131/3/3
f 133/1/3 127/1/3 100/1/3
f 133/4/3 128/4/3 127/4/3
f 134/3/3 129/3/3 128/3/3
f 134/4/3 128/4/3 133/4/3
f 134/3/3 130/3/3 129/3/3
f 134/3/3 131/3/3 130/3/3
f 135/3/3 131/3/3 134/3/3
f 136/2/3 132/2/3 131/2/3
f 136/3/3 131/3/3 135/3/3
f 137/2/3 132/2/3 136/2/3
f 138/1/3 133/1/3 100/1/3
f 138/1/3 134/1/3 133/1/3
f 139/4/3 135/4/3 134/4/3
f 139/1/3 134/1/3 138/1/3
f 140/2/3 136/2/3 135/2/3
f 140/4/3 135/4/3 139/4/3
f 141/3/3 137/3/3 136/3/3
f 141/2/3 136/2/3 140/2/3
f 142/3/3 137/3/3 141/3/3
f 143/1/3 138/1/3 100/1/3
f 143/4/3 139/4/3 138/4/3
f 144/4/3 139/4/3 143/4/3
f 145/2/3 140/2/3 139/2/3
f 145/4/3 139/4/3 144/4/3
f 146/3/3 141/3/3 140/3/3
f 146/2/3 140/2/3 145/2/3
f 147/2/3 142/2/3 141/2/3
f 147/3/3 141/3/3 146/3/3
f 148/2/3 142/2/3 147/2/3
f 149/1/3 144/1/3 143/1/3
f 149/1/3 143/1/3 100/1/3
f 150/4/3 145/4/3 144/4/3
f 150/1/3 144/1/3 149/1/3
f 151/3/3 146/3/3 145/3/3
f 151/4/3 145/4/3 150/4/3
f 152/2/3 147/2/3 146/2/3
f 152/3/3 146/3/3 151/3/3
f 153/3/3 148/3/3 147/3/3
f 153/2/3 147/2/3 152/2/3
f 154/3/3 148/3/3 153/3/3
f 155/1/4 156/1/4 159/1/4
f 156/4/4 157/4/4 160/4/4
f 159/1/4 156/1/4 160/1/4
f 157/3/4 158/3/4 161/3/4
f 160/4/4 157/4/4 161/4/4
f 161/3/4 158/3/4 162/3/4
f 159/4/4 160/4/4 163/4/4
f 155/1/4 159/1/4 163/1/4
f 163/4/4 160/4/4 164/4/4
f 164/4/4 160/4/4 165/4/4
f 161/2/4 162/2/4 166/2/4
f 165/4/4 160/4/4 166/4/4
f 160/2/4 161/2/4 166/2/4
f 166/2/4 162/2/4 167/2/4
f 167/2/4 162/2/4 168/2/4
f 164/4/4 165/4/4 169/4/4
f 163/1/4 164/1/4 169/1/4
f 165/2/4 166/2/4 170/2/4
f 169/4/4 165/4/4 170/4/4
f 166/2/4 167/2/4 170/2/4
f 170/2/4 167/2/4 171/2/4
f 167/3/4 168/3/4 172/3/4
f 171/2/4 167/2/4 172/2/4
f 172/3/4 168/3/4 173/3/4
f 163/1/4 169/1/4 174/1/4
f 169/1/4 170/1/4 174/1/4
f 170/4/4 171/4/4 175/4/4
f 174/1/4 170/1/4 175/1/4
f 171/3/4 172/3/4 176/3/4
f 175/4/4 171/4/4 176/4/4
f 163/1/4 174/1/4 177/1/4
f 174/4/4 175/4/4 177/4/4
f 175/2/4 176/2/4 178/2/4
f 177/4/4 175/4/4 178/4/4
f 176/3/4 172/3/4 179/3/4
f 178/2/4 176/2/4 179/2/4
f 172/2/4 173/2/4 180/2/4
f 179/3/4 172/3/4 180/3/4
f 180/2/4 173/2/4 181/2/4
f 177/1/4 178/1/4 182/1/4
f 178/4/4 179/4/4 183/4/4
f 182/1/4 178/1/4 183/1/4
f 179/2/4 180/2/4 184/2/4
f 183/4/4 179/4/4 184/4/4
f 180/3/4 181/3/4 185/3/4
f 184/2/4 180/2/4 185/2/4
f 185/3/4 181/3/4 186/3/4
f 177/1/4 182/1/4 187/1/4
f 182/4/4 183/4/4 187/4/4
f 185/2/4 186/2/4 188/2/4
f 187/4/4 183/4/4 188/4/4
f 183/2/4 184/2/4 188/2/4
f 184/2/4 185/2/4 188/2/4
f 188/2/4 186/2/4 189/2/4
f 189/2/4 186/2/4 190/2/4
f 163/1/4 177/1/4 191/1/4
f 177/1/4 187/1/4 191/1/4
f 187/1/4 188/1/4 191/1/4
f 188/4/4 189/4/4 192/4/4
f 191/1/4 188/1/4 192/1/4
f 189/3/4 190/3/4 193/3/4
f 192/4/4 189/4/4 193/4/4
f 193/3/4 190/3/4 194/3/4
f 191/4/4 192/4/4 195/4/4
f 163/1/4 191/1/4 195/1/4
f 193/2/4 194/2/4 196/2/4
f 195/4/4 192/4/4 196/4/4
f 192/2/4 193/2/4 196/2/4
f 196/2/4 194/2/4 197/2/4
f 194/3/4 190/3/4 198/3/4
f 197/2/4 194/2/4 198/2/4
f 198/3/4 190/3/4 199/3/4
f 155/1/4 163/1/4 200/1/4
f 163/1/4 195/1/4 200/1/4
f 195/1/4 196/1/4 200/1/4
f 196/4/4 197/4/4 201/4/4
f 200/1/4 196/1/4 201/1/4
f 198/2/4 199/2/4 202/2/4
f 201/4/4 197/4/4 202/4/4
f 197/2/4 198/2/4 202/2/4
f 202/2/4 199/2/4 203/2/4
f 206/1/5 205/1/5 204/1/5
f 207/1/5 205/1/5 206/1/5
f 208/2/6 209/2/6 217/2/6
f 209/3/6 210/3/6 218/3/6
f 217/2/6 209/2/6 218/2/6
f 210/2/6 211/2/6 219/2/6
f 218/3/6 210/3/6 219/3/6
f 211/3/6 212/3/6 220/3/6
f 212/2/6 213/2/6 220/2/6
f 213/3/6 214/3/6 221/3/6
f 220/2/6 213/2/6 221/2/6
f 214/2/6 215/2/6 222/2/6
f 221/3/6 214/3/6 222/3/6
f 217/3/6 218/3/6 223/3/6
f 218/2/6 219/2/6 224/2/6
f 223/3/6 218/3/6 224/3/6
f 219/2/6 211/2/6 225/2/6
f 224/2/6 219/2/6 225/2/6
f 211/3/6 220/3/6 225/3/6
f 220/3/6 221/3/6 225/3/6
f 221/2/6 222/2/6 226/2/6
f 225/3/6 221/3/6 226/3/6
f 222/2/6 215/2/6 227/2/6
f 226/2/6 222/2/6 227/2/6
f 215/3/6 216/3/6 228/3/6
f 227/2/6 215/2/6 228/2/6
f 228/3/6 216/3/6 229/3/6
f 223/2/6 224/2/6 230/2/6
f 230/2/6 224/2/6 231/2/6
f 224/3/6 225/3/6 232/3/6
f 231/2/6 224/2/6 232/2/6
f 232/3/6 225/3/6 233/3/6
f 233/3/6 225/3/6 234/3/6
f 225/2/6 226/2/6 235/2/6
f 234/3/6 225/3/6 235/3/6
f 235/2/6 226/2/6 236/2/6
f 226/3/6 227/3/6 237/3/6
f 236/2/6 226/2/6 237/2/6
f 227/2/6 228/2/6 238/2/6
f 237/3/6 227/3/6 238/3/6
f 228/2/6 229/2/6 238/2/6
f 238/2/6 229/2/6 239/2/6
f 230/3/6 231/3/6 240/3/6
f 231/2/6 232/2/6 241/2/6
f 240/3/6 231/3/6 241/3/6
f 232/2/6 233/2/6 241/2/6
f 241/2/6 233/2/6 242/2/6
f 233/3/6 234/3/6 243/3/6
f 242/2/6 233/2/6 243/2/6
f 234/2/6 235/2/6 244/2/6
f 243/3/6 234/3/6 244/3/6
f 235/3/6 236/3/6 245/3/6
f 236/2/6 237/2/6 245/2/6
f 237/2/6 238/2/6 245/2/6
f 245/2/6 238/2/6 246/2/6
f 239/2/6 229/2/6 247/2/6
f 238/3/6 239/3/6 247/3/6
f 247/2/6 229/2/6 248/2/6
f 241/3/6 242/3/6 249/3/6
f 243/2/6 244/2/6 249/2/6
f 242/2/6 243/2/6 249/2/6
f 249/2/6 244/2/6 250/2/6
f 244/2/6 235/2/6 251/2/6
f 250/2/6 244/2/6 251/2/6
f 245/3/6 246/3/6 251/3/6
f 235/3/6 245/3/6 251/3/6
f 246/2/6 238/2/6 252/2/6
f 251/3/6 246/3/6 252/3/6
f 240/2/6 241/2/6 253/2/6
f 249/3/6 250/3/6 254/3/6
f 253/2/6 241/2/6 254/2/6
f 241/3/6 249/3/6 254/3/6
f 254/3/6 250/3/6 255/3/6
f 250/2/6 251/2/6 256/2/6
f 255/3/6 250/3/6 256/3/6
f 251/2/6 252/2/6 256/2/6
f 256/2/6 252/2/6 257/2/6
f 257/2/6 252/2/6 258/2/6
f 252/2/6 238/2/6 259/2/6
f 258/2/6 252/2/6 259/2/6
f 247/3/6 248/3/6 260/3/6
f 259/2/6 238/2/6 260/2/6
f 238/3/6 247/3/6 260/3/6
f 260/3/6 248/3/6 261/3/6
f 254/3/6 255/3/6 262/3/6
f 253/3/6 254/3/6 262/3/6
f 256/2/6 257/2/6 263/2/6
f 262/3/6 255/3/6 263/3/6
f 255/2/6 256/2/6 263/2/6
f 263/2/6 257/2/6 264/2/6
f 258/2/6 259/2/6 265/2/6
f 257/3/6 258/3/6 265/3/6
f 259/3/6 260/3/6 266/3/6
f 265/2/6 259/2/6 266/2/6
f 260/2/6 261/2/6 267/2/6
f 266/3/6 260/3/6 267/3/6
f 267/2/6 261/2/6 268/2/6
f 253/3/6 262/3/6 269/3/6
f 262/2/6 263/2/6 270/2/6
f 269/3/6 262/3/6 270/3/6
f 264/2/6 257/2/6 271/2/6
f 265/3/6 266/3/6 271/3/6
f 257/3/6 265/3/6 271/3/6
f 266/2/6 267/2/6 272/2/6
f 271/3/6 266/3/6 272/3/6
f 267/3/6 268/3/6 273/3/6
f 272/2/6 267/2/6 273/2/6
f 273/3/6 268/3/6 274/3/6
f 269/2/6 270/2/6 275/2/6
f 270/2/6 263/2/6 276/2/6
f 275/2/6 270/2/6 276/2/6
f 271/2/6 272/2/6 277/2/6
f 272/2/6 273/2/6 277/2/6
f 273/2/6 274/2/6 277/2/6
f 277/2/6 274/2/6 278/2/6
f 278/2/6 274/2/6 279/2/6
f 279/2/6 274/2/6 280/2/6
f 275/3/6 276/3/6 281/3/6
f 276/2/6 263/2/6 282/2/6
f 281/3/6 276/3/6 282/3/6
f 263/3/6 264/3/6 283/3/6
f 282/2/6 263/2/6 283/2/6
f 264/2/6 271/2/6 284/2/6
f 283/3/6 264/3/6 284/3/6
f 271/2/6 277/2/6 284/2/6
f 277/3/6 278/3/6 285/3/6
f 284/2/6 277/2/6 285/2/6
f 278/2/6 279/2/6 286/2/6
f 285/3/6 278/3/6 286/3/6
f 279/3/6 280/3/6 287/3/6
f 286/2/6 279/2/6 287/2/6
f 280/2/6 274/2/6 288/2/6
f 287/3/6 280/3/6 288/3/6
f 288/2/6 274/2/6 289/2/6
