# MagicaVoxel @ Ephtracy

# group
o 

# material
mtllib Stones-3.mtl
usemtl palette

# normals
vn -1 0 0
vn 1 0 0
vn 0 0 1
vn 0 0 -1
vn 0 -1 0
vn 0 1 0

# texcoords
vt 0.970703 0.5
vt 0.974609 0.5
vt 0.982422 0.5

# verts
v 0.3 0 -2.5
v 0.3 0 -2.9
v 0.3 0.1 -2.5
v 0.3 0.1 -2.9
v 0.3 0.2 -2.5
v 0.3 0.2 -2.6
v 0.3 0.2 -2.7
v 0.3 0.2 -2.8
v 0.3 0.2 -2.9
v 0.3 0.3 -2.6
v 0.3 0.3 -2.7
v 0.3 0.3 -2.8
v 0.4 0.2 -2.5
v 0.4 0.2 -2.6
v 0.4 0.2 -2.8
v 0.4 0.2 -2.9
v 0.4 0.3 -2.5
v 0.4 0.3 -2.6
v 0.4 0.3 -2.8
v 0.4 0.3 -2.9
v 0.7 0 -2.5
v 0.7 0 -2.6
v 0.7 0.1 -2.6
v 0.7 0.2 -2.5
v 0.7 0.2 -2.6
v 0.7 0.2 -2.8
v 0.7 0.2 -2.9
v 0.7 0.3 -2.5
v 0.7 0.3 -2.6
v 0.7 0.3 -2.8
v 0.7 0.3 -2.9
v 0.8 0 -2.6
v 0.8 0 -2.9
v 0.8 0.1 -2.6
v 0.8 0.1 -2.9
v 0.8 0.2 -2.8
v 0.8 0.2 -2.9
v 0.8 0.3 -2.6
v 0.8 0.3 -2.8
v 0.3 0 -2.5
v 0.3 0.1 -2.5
v 0.3 0.2 -2.5
v 0.4 0.1 -2.5
v 0.4 0.2 -2.5
v 0.4 0.3 -2.5
v 0.5 0.1 -2.5
v 0.5 0.2 -2.5
v 0.6 0.1 -2.5
v 0.6 0.2 -2.5
v 0.7 0 -2.5
v 0.7 0.2 -2.5
v 0.7 0.3 -2.5
v 0.3 0.2 -2.6
v 0.3 0.3 -2.6
v 0.4 0.2 -2.6
v 0.4 0.3 -2.6
v 0.7 0 -2.6
v 0.7 0.1 -2.6
v 0.7 0.2 -2.6
v 0.7 0.3 -2.6
v 0.8 0 -2.6
v 0.8 0.1 -2.6
v 0.8 0.3 -2.6
v 0.3 0.2 -2.8
v 0.3 0.3 -2.8
v 0.4 0.2 -2.8
v 0.4 0.3 -2.8
v 0.7 0.2 -2.8
v 0.7 0.3 -2.8
v 0.8 0.2 -2.8
v 0.8 0.3 -2.8
v 0.3 0 -2.9
v 0.3 0.1 -2.9
v 0.3 0.2 -2.9
v 0.4 0 -2.9
v 0.4 0.1 -2.9
v 0.4 0.2 -2.9
v 0.4 0.3 -2.9
v 0.6 0 -2.9
v 0.6 0.1 -2.9
v 0.7 0.2 -2.9
v 0.7 0.3 -2.9
v 0.8 0 -2.9
v 0.8 0.1 -2.9
v 0.8 0.2 -2.9
v 0.3 0 -2.5
v 0.7 0 -2.5
v 0.4 0 -2.6
v 0.6 0 -2.6
v 0.7 0 -2.6
v 0.8 0 -2.6
v 0.6 0 -2.7
v 0.7 0 -2.7
v 0.6 0 -2.8
v 0.7 0 -2.8
v 0.3 0 -2.9
v 0.4 0 -2.9
v 0.6 0 -2.9
v 0.8 0 -2.9
v 0.3 0.2 -2.5
v 0.4 0.2 -2.5
v 0.3 0.2 -2.6
v 0.4 0.2 -2.6
v 0.3 0.2 -2.8
v 0.4 0.2 -2.8
v 0.7 0.2 -2.8
v 0.8 0.2 -2.8
v 0.3 0.2 -2.9
v 0.4 0.2 -2.9
v 0.7 0.2 -2.9
v 0.8 0.2 -2.9
v 0.4 0.3 -2.5
v 0.7 0.3 -2.5
v 0.3 0.3 -2.6
v 0.4 0.3 -2.6
v 0.7 0.3 -2.6
v 0.8 0.3 -2.6
v 0.3 0.3 -2.7
v 0.5 0.3 -2.7
v 0.3 0.3 -2.8
v 0.4 0.3 -2.8
v 0.5 0.3 -2.8
v 0.7 0.3 -2.8
v 0.8 0.3 -2.8
v 0.4 0.3 -2.9
v 0.7 0.3 -2.9

# faces
f 3/2/1 2/2/1 1/2/1
f 4/2/1 2/2/1 3/2/1
f 5/1/1 4/1/1 3/1/1
f 6/1/1 4/1/1 5/1/1
f 7/1/1 4/1/1 6/1/1
f 8/1/1 4/1/1 7/1/1
f 9/1/1 4/1/1 8/1/1
f 10/1/1 7/1/1 6/1/1
f 11/3/1 8/3/1 7/3/1
f 11/1/1 7/1/1 10/1/1
f 12/3/1 8/3/1 11/3/1
f 17/3/1 14/3/1 13/3/1
f 18/3/1 14/3/1 17/3/1
f 19/3/1 16/3/1 15/3/1
f 20/3/1 16/3/1 19/3/1
f 21/2/2 22/2/2 23/2/2
f 21/2/2 23/2/2 24/2/2
f 24/2/2 23/2/2 25/2/2
f 24/3/2 25/3/2 28/3/2
f 28/3/2 25/3/2 29/3/2
f 26/3/2 27/3/2 30/3/2
f 30/3/2 27/3/2 31/3/2
f 32/2/2 33/2/2 34/2/2
f 34/2/2 33/2/2 35/2/2
f 34/1/2 35/1/2 36/1/2
f 36/1/2 35/1/2 37/1/2
f 34/1/2 36/1/2 38/1/2
f 38/1/2 36/1/2 39/1/2
f 43/2/3 41/2/3 40/2/3
f 43/1/3 42/1/3 41/1/3
f 44/1/3 42/1/3 43/1/3
f 46/2/3 43/2/3 40/2/3
f 46/2/3 44/2/3 43/2/3
f 47/3/3 45/3/3 44/3/3
f 47/2/3 44/2/3 46/2/3
f 48/2/3 46/2/3 40/2/3
f 48/1/3 47/1/3 46/1/3
f 49/3/3 45/3/3 47/3/3
f 49/1/3 47/1/3 48/1/3
f 50/2/3 48/2/3 40/2/3
f 50/2/3 49/2/3 48/2/3
f 51/3/3 45/3/3 49/3/3
f 51/2/3 49/2/3 50/2/3
f 52/3/3 45/3/3 51/3/3
f 55/1/3 54/1/3 53/1/3
f 56/1/3 54/1/3 55/1/3
f 61/2/3 58/2/3 57/2/3
f 62/1/3 60/1/3 59/1/3
f 62/2/3 58/2/3 61/2/3
f 62/1/3 59/1/3 58/1/3
f 63/1/3 60/1/3 62/1/3
f 64/3/4 65/3/4 66/3/4
f 66/3/4 65/3/4 67/3/4
f 68/1/4 69/1/4 70/1/4
f 70/1/4 69/1/4 71/1/4
f 72/2/4 73/2/4 75/2/4
f 73/1/4 74/1/4 76/1/4
f 75/2/4 73/2/4 76/2/4
f 76/1/4 74/1/4 77/1/4
f 75/1/4 76/1/4 79/1/4
f 76/1/4 77/1/4 79/1/4
f 79/1/4 77/1/4 80/1/4
f 77/3/4 78/3/4 81/3/4
f 80/1/4 77/1/4 81/1/4
f 81/3/4 78/3/4 82/3/4
f 79/2/4 80/2/4 83/2/4
f 80/1/4 81/1/4 84/1/4
f 83/2/4 80/2/4 84/2/4
f 84/1/4 81/1/4 85/1/4
f 88/2/5 87/2/5 86/2/5
f 89/2/5 87/2/5 88/2/5
f 90/2/5 87/2/5 89/2/5
f 92/1/5 89/1/5 88/1/5
f 92/2/5 91/2/5 90/2/5
f 92/2/5 90/2/5 89/2/5
f 93/2/5 91/2/5 92/2/5
f 94/1/5 92/1/5 88/1/5
f 94/1/5 93/1/5 92/1/5
f 95/2/5 91/2/5 93/2/5
f 95/1/5 93/1/5 94/1/5
f 96/2/5 88/2/5 86/2/5
f 97/1/5 94/1/5 88/1/5
f 97/2/5 88/2/5 96/2/5
f 98/2/5 95/2/5 94/2/5
f 98/1/5 94/1/5 97/1/5
f 99/2/5 91/2/5 95/2/5
f 99/2/5 95/2/5 98/2/5
f 100/1/6 101/1/6 102/1/6
f 102/1/6 101/1/6 103/1/6
f 104/1/6 105/1/6 108/1/6
f 108/1/6 105/1/6 109/1/6
f 106/1/6 107/1/6 110/1/6
f 110/1/6 107/1/6 111/1/6
f 112/3/6 113/3/6 115/3/6
f 115/3/6 113/3/6 116/3/6
f 114/1/6 115/1/6 118/1/6
f 116/1/6 117/1/6 118/1/6
f 115/1/6 116/1/6 118/1/6
f 118/1/6 117/1/6 119/1/6
f 118/3/6 119/3/6 120/3/6
f 120/3/6 119/3/6 121/3/6
f 119/1/6 117/1/6 122/1/6
f 121/3/6 119/3/6 122/3/6
f 122/1/6 117/1/6 123/1/6
f 123/1/6 117/1/6 124/1/6
f 121/3/6 122/3/6 125/3/6
f 122/3/6 123/3/6 125/3/6
f 125/3/6 123/3/6 126/3/6
