# MagicaVoxel @ Ephtracy

# group
o 

# material
mtllib Stones-5.mtl
usemtl palette

# normals
vn -1 0 0
vn 1 0 0
vn 0 0 1
vn 0 0 -1
vn 0 -1 0
vn 0 1 0

# texcoords
vt 0.970703 0.5
vt 0.974609 0.5
vt 0.978516 0.5

# verts
v 1.4 0 -1.7
v 1.4 0 -2
v 1.4 0.1 -1.8
v 1.4 0.1 -1.9
v 1.4 0.2 -1.7
v 1.4 0.2 -1.8
v 1.4 0.3 -1.9
v 1.4 0.3 -2
v 1.4 0.4 -1.8
v 1.4 0.4 -2
v 1.4 0.5 -1.7
v 1.4 0.5 -1.8
v 1.5 0 -1.5
v 1.5 0 -1.7
v 1.5 0 -2
v 1.5 0 -2.1
v 1.5 0.2 -1.5
v 1.5 0.2 -1.7
v 1.5 0.2 -2
v 1.5 0.2 -2.1
v 1.5 0.3 -1.5
v 1.5 0.3 -1.6
v 1.5 0.3 -2
v 1.5 0.4 -1.8
v 1.5 0.4 -1.9
v 1.5 0.4 -2
v 1.5 0.4 -2.1
v 1.5 0.5 -1.6
v 1.5 0.5 -1.7
v 1.5 0.5 -1.8
v 1.5 0.5 -1.9
v 1.5 0.5 -2
v 1.6 0 -2.1
v 1.6 0 -2.2
v 1.6 0.2 -2.1
v 1.6 0.2 -2.2
v 1.6 0.3 -1.5
v 1.6 0.3 -1.6
v 1.6 0.4 -2
v 1.6 0.4 -2.1
v 1.6 0.4 -2.2
v 1.6 0.5 -1.5
v 1.6 0.5 -1.6
v 1.6 0.5 -1.7
v 1.6 0.5 -2
v 1.6 0.5 -2.1
v 1.6 0.6 -1.5
v 1.6 0.6 -1.7
v 1.7 0 -1.4
v 1.7 0 -1.5
v 1.7 0.1 -1.5
v 1.7 0.3 -1.4
v 1.7 0.3 -1.5
v 1.7 0.4 -1.4
v 1.7 0.4 -1.5
v 1.7 0.5 -1.4
v 1.7 0.5 -1.5
v 1.7 0.5 -1.7
v 1.7 0.5 -2
v 1.7 0.6 -1.7
v 1.7 0.6 -2
v 2 0.3 -2.1
v 2 0.3 -2.2
v 2 0.4 -2.1
v 2 0.4 -2.2
v 1.7 0.3 -2.1
v 1.7 0.3 -2.2
v 1.7 0.4 -2.1
v 1.7 0.4 -2.2
v 1.9 0.5 -1.5
v 1.9 0.5 -1.6
v 1.9 0.6 -1.5
v 1.9 0.6 -1.6
v 2 0 -1.4
v 2 0 -1.5
v 2 0.1 -1.5
v 2 0.2 -1.5
v 2 0.3 -1.4
v 2 0.3 -1.5
v 2.1 0.4 -2
v 2.1 0.4 -2.1
v 2.1 0.5 -1.6
v 2.1 0.5 -1.7
v 2.1 0.5 -2
v 2.1 0.5 -2.1
v 2.1 0.6 -1.6
v 2.1 0.6 -1.7
v 2.2 0 -1.5
v 2.2 0 -1.6
v 2.2 0 -2.1
v 2.2 0 -2.2
v 2.2 0.1 -1.5
v 2.2 0.1 -1.6
v 2.2 0.1 -2.1
v 2.2 0.2 -1.5
v 2.2 0.2 -1.6
v 2.2 0.2 -2.1
v 2.2 0.2 -2.2
v 2.2 0.3 -1.4
v 2.2 0.3 -1.5
v 2.2 0.4 -1.4
v 2.2 0.4 -1.5
v 2.2 0.4 -1.9
v 2.2 0.4 -2
v 2.2 0.4 -2.1
v 2.2 0.4 -2.2
v 2.2 0.5 -1.4
v 2.2 0.5 -1.6
v 2.2 0.5 -1.7
v 2.2 0.5 -1.8
v 2.2 0.5 -1.9
v 2.2 0.6 -1.7
v 2.2 0.6 -2
v 2.3 0 -2
v 2.3 0 -2.1
v 2.3 0.1 -2
v 2.3 0.1 -2.1
v 2.3 0.2 -2
v 2.3 0.3 -1.6
v 2.3 0.3 -1.7
v 2.3 0.3 -1.8
v 2.3 0.3 -1.9
v 2.3 0.3 -2
v 2.3 0.4 -1.9
v 2.3 0.4 -2
v 2.3 0.4 -2.1
v 2.3 0.5 -1.6
v 2.3 0.5 -1.7
v 2.3 0.5 -1.8
v 2.3 0.5 -1.9
v 2.4 0 -1.6
v 2.4 0 -2
v 2.4 0.1 -1.8
v 2.4 0.1 -1.9
v 2.4 0.2 -1.6
v 2.4 0.2 -1.8
v 2.4 0.2 -1.9
v 2.4 0.2 -2
v 2.4 0.3 -1.6
v 2.4 0.3 -2
v 1.7 0 -1.4
v 1.7 0.3 -1.4
v 1.7 0.4 -1.4
v 1.7 0.5 -1.4
v 1.8 0.2 -1.4
v 1.8 0.3 -1.4
v 1.8 0.4 -1.4
v 1.9 0.2 -1.4
v 1.9 0.3 -1.4
v 1.9 0.4 -1.4
v 2 0 -1.4
v 2 0.3 -1.4
v 2 0.4 -1.4
v 2.1 0.3 -1.4
v 2.1 0.4 -1.4
v 2.2 0.3 -1.4
v 2.2 0.4 -1.4
v 2.2 0.5 -1.4
v 1.5 0 -1.5
v 1.5 0.2 -1.5
v 1.5 0.3 -1.5
v 1.6 0.1 -1.5
v 1.6 0.2 -1.5
v 1.6 0.3 -1.5
v 1.6 0.5 -1.5
v 1.6 0.6 -1.5
v 1.7 0 -1.5
v 1.7 0.1 -1.5
v 1.7 0.3 -1.5
v 1.7 0.4 -1.5
v 1.7 0.5 -1.5
v 1.9 0.5 -1.5
v 1.9 0.6 -1.5
v 2 0 -1.5
v 2 0.1 -1.5
v 2 0.2 -1.5
v 2 0.3 -1.5
v 2.1 0.2 -1.5
v 2.1 0.3 -1.5
v 2.2 0 -1.5
v 2.2 0.1 -1.5
v 2.2 0.2 -1.5
v 2.2 0.3 -1.5
v 1.5 0.3 -1.6
v 1.5 0.5 -1.6
v 1.6 0.3 -1.6
v 1.6 0.5 -1.6
v 1.9 0.5 -1.6
v 1.9 0.6 -1.6
v 2.1 0.5 -1.6
v 2.1 0.6 -1.6
v 2.2 0 -1.6
v 2.2 0.1 -1.6
v 2.2 0.2 -1.6
v 2.2 0.5 -1.6
v 2.3 0.3 -1.6
v 2.3 0.5 -1.6
v 2.4 0 -1.6
v 2.4 0.2 -1.6
v 2.4 0.3 -1.6
v 1.4 0 -1.7
v 1.4 0.2 -1.7
v 1.4 0.5 -1.7
v 1.5 0 -1.7
v 1.5 0.2 -1.7
v 1.5 0.5 -1.7
v 2.1 0.5 -1.7
v 2.1 0.6 -1.7
v 2.2 0.5 -1.7
v 2.2 0.6 -1.7
v 1.6 0.5 -1.7
v 1.6 0.6 -1.7
v 1.7 0.5 -1.7
v 1.7 0.6 -1.7
v 1.4 0.4 -1.8
v 1.4 0.5 -1.8
v 1.5 0.4 -1.8
v 1.5 0.5 -1.8
v 2.2 0.4 -1.9
v 2.2 0.5 -1.9
v 2.3 0.4 -1.9
v 2.3 0.5 -1.9
v 1.4 0 -2
v 1.4 0.3 -2
v 1.4 0.4 -2
v 1.5 0 -2
v 1.5 0.2 -2
v 1.5 0.3 -2
v 1.5 0.4 -2
v 1.5 0.5 -2
v 1.6 0.4 -2
v 1.6 0.5 -2
v 1.7 0.5 -2
v 1.7 0.6 -2
v 2.1 0.4 -2
v 2.1 0.5 -2
v 2.2 0.4 -2
v 2.2 0.6 -2
v 2.3 0 -2
v 2.3 0.1 -2
v 2.3 0.2 -2
v 2.3 0.3 -2
v 2.4 0 -2
v 2.4 0.2 -2
v 2.4 0.3 -2
v 1.5 0 -2.1
v 1.5 0.2 -2.1
v 1.5 0.4 -2.1
v 1.6 0 -2.1
v 1.6 0.2 -2.1
v 1.6 0.4 -2.1
v 1.6 0.5 -2.1
v 1.7 0.3 -2.1
v 1.7 0.4 -2.1
v 1.9 0.3 -2.1
v 1.9 0.4 -2.1
v 2 0.3 -2.1
v 2 0.4 -2.1
v 2.1 0.4 -2.1
v 2.1 0.5 -2.1
v 2.2 0 -2.1
v 2.2 0.1 -2.1
v 2.2 0.2 -2.1
v 2.2 0.4 -2.1
v 2.3 0 -2.1
v 2.3 0.1 -2.1
v 2.3 0.4 -2.1
v 1.6 0 -2.2
v 1.6 0.2 -2.2
v 1.6 0.4 -2.2
v 1.7 0.3 -2.2
v 1.7 0.4 -2.2
v 1.9 0.2 -2.2
v 1.9 0.3 -2.2
v 2 0.1 -2.2
v 2 0.3 -2.2
v 2 0.4 -2.2
v 2.1 0.1 -2.2
v 2.1 0.2 -2.2
v 2.2 0 -2.2
v 2.2 0.2 -2.2
v 2.2 0.4 -2.2
v 1.7 0 -1.4
v 2 0 -1.4
v 1.5 0 -1.5
v 1.7 0 -1.5
v 2 0 -1.5
v 2.2 0 -1.5
v 1.6 0 -1.6
v 2 0 -1.6
v 2.2 0 -1.6
v 2.4 0 -1.6
v 1.4 0 -1.7
v 1.5 0 -1.7
v 2 0 -1.7
v 2.2 0 -1.7
v 1.9 0 -1.9
v 2.2 0 -1.9
v 1.4 0 -2
v 1.5 0 -2
v 2.3 0 -2
v 2.4 0 -2
v 1.5 0 -2.1
v 1.6 0 -2.1
v 1.9 0 -2.1
v 2.2 0 -2.1
v 2.3 0 -2.1
v 1.6 0 -2.2
v 2.2 0 -2.2
v 2 0.3 -1.4
v 2.1 0.3 -1.4
v 2.2 0.3 -1.4
v 2 0.3 -1.5
v 2.1 0.3 -1.5
v 2.2 0.3 -1.5
v 1.5 0.3 -1.5
v 1.6 0.3 -1.5
v 1.5 0.3 -1.6
v 1.6 0.3 -1.6
v 2.3 0.3 -1.6
v 2.4 0.3 -1.6
v 2.3 0.3 -1.7
v 2.3 0.3 -1.8
v 2.3 0.3 -1.9
v 2.3 0.3 -2
v 2.4 0.3 -2
v 1.7 0.3 -2.1
v 1.9 0.3 -2.1
v 2 0.3 -2.1
v 1.7 0.3 -2.2
v 1.9 0.3 -2.2
v 2 0.3 -2.2
v 1.4 0.4 -1.8
v 1.5 0.4 -1.8
v 1.5 0.4 -1.9
v 2.2 0.4 -1.9
v 2.3 0.4 -1.9
v 1.4 0.4 -2
v 1.5 0.4 -2
v 1.6 0.4 -2
v 2.1 0.4 -2
v 2.2 0.4 -2
v 2.3 0.4 -2
v 1.5 0.4 -2.1
v 1.6 0.4 -2.1
v 1.7 0.4 -2.1
v 2 0.4 -2.1
v 2.1 0.4 -2.1
v 2.2 0.4 -2.1
v 2.3 0.4 -2.1
v 1.6 0.4 -2.2
v 1.7 0.4 -2.2
v 2 0.4 -2.2
v 2.2 0.4 -2.2
v 1.7 0.5 -1.4
v 2.2 0.5 -1.4
v 1.7 0.5 -1.5
v 1.9 0.5 -1.5
v 1.5 0.5 -1.6
v 1.6 0.5 -1.6
v 1.9 0.5 -1.6
v 2.1 0.5 -1.6
v 2.2 0.5 -1.6
v 2.3 0.5 -1.6
v 1.4 0.5 -1.7
v 1.5 0.5 -1.7
v 1.6 0.5 -1.7
v 1.7 0.5 -1.7
v 2.1 0.5 -1.7
v 2.2 0.5 -1.7
v 2.3 0.5 -1.7
v 1.4 0.5 -1.8
v 1.5 0.5 -1.8
v 1.6 0.5 -1.8
v 2.2 0.5 -1.8
v 2.3 0.5 -1.8
v 1.5 0.5 -1.9
v 1.6 0.5 -1.9
v 2.2 0.5 -1.9
v 2.3 0.5 -1.9
v 1.5 0.5 -2
v 1.6 0.5 -2
v 1.7 0.5 -2
v 2.1 0.5 -2
v 1.6 0.5 -2.1
v 2.1 0.5 -2.1
v 1.6 0.6 -1.5
v 1.9 0.6 -1.5
v 1.9 0.6 -1.6
v 2.1 0.6 -1.6
v 1.6 0.6 -1.7
v 1.7 0.6 -1.7
v 2.1 0.6 -1.7
v 2.2 0.6 -1.7
v 1.7 0.6 -2
v 2.2 0.6 -2

# faces
f 3/2/1 2/2/1 1/2/1
f 4/2/1 2/2/1 3/2/1
f 5/2/1 3/2/1 1/2/1
f 6/1/1 4/1/1 3/1/1
f 6/2/1 3/2/1 5/2/1
f 7/2/1 2/2/1 4/2/1
f 7/1/1 4/1/1 6/1/1
f 7/1/1 6/1/1 5/1/1
f 8/2/1 2/2/1 7/2/1
f 9/1/1 7/1/1 5/1/1
f 9/1/1 8/1/1 7/1/1
f 10/1/1 8/1/1 9/1/1
f 11/1/1 9/1/1 5/1/1
f 12/1/1 9/1/1 11/1/1
f 17/2/1 14/2/1 13/2/1
f 18/2/1 14/2/1 17/2/1
f 19/2/1 16/2/1 15/2/1
f 20/2/1 16/2/1 19/2/1
f 21/1/1 18/1/1 17/1/1
f 22/1/1 18/1/1 21/1/1
f 23/1/1 20/1/1 19/1/1
f 26/1/1 20/1/1 23/1/1
f 27/1/1 20/1/1 26/1/1
f 28/1/1 18/1/1 22/1/1
f 29/1/1 18/1/1 28/1/1
f 30/3/1 25/3/1 24/3/1
f 31/1/1 26/1/1 25/1/1
f 31/3/1 25/3/1 30/3/1
f 32/1/1 26/1/1 31/1/1
f 35/2/1 34/2/1 33/2/1
f 36/2/1 34/2/1 35/2/1
f 40/1/1 36/1/1 35/1/1
f 41/1/1 36/1/1 40/1/1
f 42/1/1 38/1/1 37/1/1
f 43/1/1 38/1/1 42/1/1
f 45/3/1 40/3/1 39/3/1
f 46/3/1 40/3/1 45/3/1
f 47/3/1 44/3/1 43/3/1
f 47/3/1 43/3/1 42/3/1
f 48/3/1 44/3/1 47/3/1
f 51/2/1 50/2/1 49/2/1
f 52/2/1 51/2/1 49/2/1
f 53/2/1 51/2/1 52/2/1
f 54/1/1 53/1/1 52/1/1
f 55/1/1 53/1/1 54/1/1
f 56/3/1 55/3/1 54/3/1
f 57/3/1 55/3/1 56/3/1
f 60/3/1 59/3/1 58/3/1
f 61/3/1 59/3/1 60/3/1
f 64/1/1 63/1/1 62/1/1
f 65/1/1 63/1/1 64/1/1
f 66/1/2 67/1/2 68/1/2
f 68/1/2 67/1/2 69/1/2
f 70/3/2 71/3/2 72/3/2
f 72/3/2 71/3/2 73/3/2
f 74/2/2 75/2/2 76/2/2
f 74/2/2 76/2/2 77/2/2
f 74/2/2 77/2/2 78/2/2
f 78/2/2 77/2/2 79/2/2
f 80/3/2 81/3/2 84/3/2
f 84/3/2 81/3/2 85/3/2
f 82/3/2 83/3/2 86/3/2
f 86/3/2 83/3/2 87/3/2
f 88/2/2 89/2/2 92/2/2
f 92/2/2 89/2/2 93/2/2
f 90/2/2 91/2/2 94/2/2
f 92/1/2 93/1/2 95/1/2
f 95/1/2 93/1/2 96/1/2
f 94/2/2 91/2/2 97/2/2
f 97/2/2 91/2/2 98/2/2
f 95/3/2 96/3/2 100/3/2
f 99/1/2 100/1/2 101/1/2
f 100/3/2 96/3/2 102/3/2
f 101/1/2 100/1/2 102/1/2
f 97/1/2 98/1/2 105/1/2
f 105/1/2 98/1/2 106/1/2
f 101/3/2 102/3/2 107/3/2
f 102/3/2 96/3/2 108/3/2
f 107/3/2 102/3/2 108/3/2
f 103/3/2 104/3/2 111/3/2
f 109/3/2 110/3/2 112/3/2
f 110/3/2 111/3/2 112/3/2
f 111/3/2 104/3/2 113/3/2
f 112/3/2 111/3/2 113/3/2
f 114/2/2 115/2/2 116/2/2
f 116/2/2 115/2/2 117/2/2
f 116/1/2 117/1/2 118/1/2
f 118/1/2 117/1/2 123/1/2
f 121/1/2 122/1/2 124/1/2
f 122/3/2 123/3/2 124/3/2
f 123/1/2 117/1/2 125/1/2
f 124/3/2 123/3/2 125/3/2
f 125/1/2 117/1/2 126/1/2
f 119/1/2 120/1/2 127/1/2
f 120/3/2 121/3/2 128/3/2
f 127/1/2 120/1/2 128/1/2
f 121/1/2 124/1/2 129/1/2
f 128/3/2 121/3/2 129/3/2
f 129/1/2 124/1/2 130/1/2
f 131/2/2 132/2/2 133/2/2
f 133/2/2 132/2/2 134/2/2
f 131/2/2 133/2/2 135/2/2
f 133/1/2 134/1/2 136/1/2
f 135/2/2 133/2/2 136/2/2
f 134/2/2 132/2/2 137/2/2
f 136/1/2 134/1/2 137/1/2
f 137/2/2 132/2/2 138/2/2
f 135/1/2 136/1/2 139/1/2
f 136/1/2 137/1/2 139/1/2
f 137/1/2 138/1/2 139/1/2
f 139/1/2 138/1/2 140/1/2
f 145/2/3 142/2/3 141/2/3
f 146/1/3 143/1/3 142/1/3
f 146/2/3 142/2/3 145/2/3
f 147/3/3 144/3/3 143/3/3
f 147/1/3 143/1/3 146/1/3
f 148/1/3 146/1/3 145/1/3
f 148/2/3 145/2/3 141/2/3
f 149/3/3 147/3/3 146/3/3
f 149/1/3 146/1/3 148/1/3
f 150/3/3 144/3/3 147/3/3
f 150/3/3 147/3/3 149/3/3
f 151/2/3 149/2/3 148/2/3
f 151/2/3 148/2/3 141/2/3
f 152/1/3 150/1/3 149/1/3
f 152/2/3 149/2/3 151/2/3
f 153/3/3 144/3/3 150/3/3
f 153/1/3 150/1/3 152/1/3
f 154/3/3 153/3/3 152/3/3
f 155/3/3 144/3/3 153/3/3
f 155/3/3 153/3/3 154/3/3
f 156/1/3 155/1/3 154/1/3
f 157/3/3 144/3/3 155/3/3
f 157/1/3 155/1/3 156/1/3
f 158/3/3 144/3/3 157/3/3
f 162/2/3 160/2/3 159/2/3
f 163/1/3 161/1/3 160/1/3
f 163/2/3 160/2/3 162/2/3
f 164/1/3 161/1/3 163/1/3
f 167/2/3 162/2/3 159/2/3
f 168/1/3 163/1/3 162/1/3
f 168/2/3 162/2/3 167/2/3
f 168/1/3 164/1/3 163/1/3
f 168/1/3 165/1/3 164/1/3
f 169/1/3 165/1/3 168/1/3
f 170/1/3 165/1/3 169/1/3
f 171/3/3 166/3/3 165/3/3
f 171/1/3 165/1/3 170/1/3
f 172/3/3 166/3/3 171/3/3
f 173/3/3 166/3/3 172/3/3
f 178/1/3 176/1/3 175/1/3
f 178/2/3 177/2/3 176/2/3
f 179/2/3 177/2/3 178/2/3
f 180/2/3 175/2/3 174/2/3
f 181/1/3 178/1/3 175/1/3
f 181/2/3 175/2/3 180/2/3
f 182/3/3 179/3/3 178/3/3
f 182/1/3 178/1/3 181/1/3
f 183/3/3 179/3/3 182/3/3
f 186/1/3 185/1/3 184/1/3
f 187/1/3 185/1/3 186/1/3
f 190/3/3 189/3/3 188/3/3
f 191/3/3 189/3/3 190/3/3
f 196/1/3 195/1/3 194/1/3
f 197/1/3 195/1/3 196/1/3
f 198/2/3 193/2/3 192/2/3
f 198/2/3 194/2/3 193/2/3
f 199/1/3 196/1/3 194/1/3
f 199/2/3 194/2/3 198/2/3
f 200/1/3 196/1/3 199/1/3
f 204/2/3 202/2/3 201/2/3
f 205/1/3 203/1/3 202/1/3
f 205/2/3 202/2/3 204/2/3
f 206/1/3 203/1/3 205/1/3
f 209/3/3 208/3/3 207/3/3
f 210/3/3 208/3/3 209/3/3
f 211/3/4 212/3/4 213/3/4
f 213/3/4 212/3/4 214/3/4
f 215/1/4 216/1/4 217/1/4
f 217/1/4 216/1/4 218/1/4
f 219/1/4 220/1/4 221/1/4
f 221/1/4 220/1/4 222/1/4
f 223/2/4 224/2/4 226/2/4
f 226/2/4 224/2/4 227/2/4
f 224/1/4 225/1/4 228/1/4
f 227/2/4 224/2/4 228/2/4
f 228/1/4 225/1/4 229/1/4
f 229/1/4 230/1/4 231/1/4
f 231/1/4 230/1/4 232/1/4
f 233/3/4 234/3/4 236/3/4
f 235/3/4 236/3/4 237/3/4
f 236/3/4 234/3/4 238/3/4
f 237/3/4 236/3/4 238/3/4
f 239/2/4 240/2/4 243/2/4
f 240/2/4 241/2/4 243/2/4
f 241/1/4 242/1/4 244/1/4
f 243/2/4 241/2/4 244/2/4
f 244/1/4 242/1/4 245/1/4
f 246/2/4 247/2/4 249/2/4
f 247/1/4 248/1/4 250/1/4
f 249/2/4 247/2/4 250/2/4
f 250/1/4 248/1/4 251/1/4
f 251/3/4 252/3/4 254/3/4
f 253/1/4 254/1/4 255/1/4
f 254/3/4 252/3/4 256/3/4
f 255/1/4 254/1/4 256/1/4
f 255/3/4 256/3/4 257/3/4
f 256/3/4 252/3/4 258/3/4
f 257/3/4 256/3/4 258/3/4
f 258/3/4 252/3/4 259/3/4
f 259/3/4 252/3/4 260/3/4
f 261/2/4 262/2/4 265/2/4
f 263/1/4 264/1/4 266/1/4
f 265/2/4 262/2/4 266/2/4
f 262/1/4 263/1/4 266/1/4
f 266/1/4 264/1/4 267/1/4
f 269/1/4 270/1/4 271/1/4
f 271/1/4 270/1/4 272/1/4
f 268/2/4 269/2/4 273/2/4
f 269/1/4 271/1/4 273/1/4
f 273/1/4 271/1/4 274/1/4
f 268/2/4 273/2/4 275/2/4
f 273/2/4 274/2/4 275/2/4
f 275/2/4 274/2/4 276/2/4
f 275/1/4 276/1/4 278/1/4
f 276/1/4 277/1/4 278/1/4
f 268/2/4 275/2/4 278/2/4
f 278/1/4 277/1/4 279/1/4
f 268/2/4 278/2/4 280/2/4
f 278/2/4 279/2/4 280/2/4
f 279/1/4 277/1/4 281/1/4
f 280/2/4 279/2/4 281/2/4
f 281/1/4 277/1/4 282/1/4
f 286/2/5 284/2/5 283/2/5
f 287/2/5 284/2/5 286/2/5
f 289/2/5 286/2/5 285/2/5
f 289/2/5 288/2/5 287/2/5
f 289/2/5 287/2/5 286/2/5
f 290/2/5 288/2/5 289/2/5
f 291/2/5 288/2/5 290/2/5
f 294/2/5 289/2/5 285/2/5
f 295/2/5 292/2/5 291/2/5
f 295/1/5 290/1/5 289/1/5
f 295/2/5 291/2/5 290/2/5
f 296/2/5 292/2/5 295/2/5
f 297/1/5 295/1/5 289/1/5
f 297/1/5 296/1/5 295/1/5
f 298/2/5 292/2/5 296/2/5
f 298/1/5 296/1/5 297/1/5
f 299/2/5 294/2/5 293/2/5
f 300/2/5 289/2/5 294/2/5
f 300/2/5 294/2/5 299/2/5
f 301/2/5 292/2/5 298/2/5
f 301/2/5 298/2/5 297/2/5
f 302/2/5 292/2/5 301/2/5
f 303/2/5 289/2/5 300/2/5
f 304/1/5 297/1/5 289/1/5
f 304/2/5 289/2/5 303/2/5
f 305/2/5 301/2/5 297/2/5
f 305/1/5 297/1/5 304/1/5
f 306/2/5 301/2/5 305/2/5
f 307/2/5 301/2/5 306/2/5
f 308/2/5 305/2/5 304/2/5
f 308/2/5 306/2/5 305/2/5
f 309/2/5 306/2/5 308/2/5
f 313/3/5 311/3/5 310/3/5
f 314/1/5 312/1/5 311/1/5
f 314/3/5 311/3/5 313/3/5
f 315/1/5 312/1/5 314/1/5
f 316/1/6 317/1/6 318/1/6
f 318/1/6 317/1/6 319/1/6
f 320/1/6 321/1/6 322/1/6
f 322/1/6 321/1/6 323/1/6
f 323/1/6 321/1/6 324/1/6
f 324/1/6 321/1/6 325/1/6
f 325/1/6 321/1/6 326/1/6
f 327/1/6 328/1/6 330/1/6
f 328/2/6 329/2/6 331/2/6
f 330/1/6 328/1/6 331/1/6
f 331/2/6 329/2/6 332/2/6
f 333/1/6 334/1/6 335/1/6
f 333/1/6 335/1/6 338/1/6
f 338/1/6 335/1/6 339/1/6
f 336/3/6 337/3/6 342/3/6
f 342/3/6 337/3/6 343/3/6
f 339/1/6 340/1/6 344/1/6
f 344/1/6 340/1/6 345/1/6
f 342/1/6 343/1/6 348/1/6
f 341/1/6 342/1/6 348/1/6
f 348/1/6 343/1/6 349/1/6
f 349/1/6 343/1/6 350/1/6
f 345/1/6 346/1/6 351/1/6
f 351/1/6 346/1/6 352/1/6
f 348/1/6 349/1/6 353/1/6
f 347/1/6 348/1/6 353/1/6
f 353/1/6 349/1/6 354/1/6
f 355/3/6 356/3/6 357/3/6
f 357/3/6 356/3/6 358/3/6
f 358/3/6 356/3/6 361/3/6
f 361/3/6 356/3/6 362/3/6
f 362/3/6 356/3/6 363/3/6
f 359/1/6 360/1/6 366/1/6
f 366/1/6 360/1/6 367/1/6
f 362/3/6 363/3/6 369/3/6
f 363/1/6 364/1/6 370/1/6
f 369/3/6 363/3/6 370/3/6
f 370/1/6 364/1/6 371/1/6
f 365/1/6 366/1/6 372/1/6
f 366/1/6 367/1/6 372/1/6
f 372/1/6 367/1/6 373/1/6
f 367/3/6 368/3/6 374/3/6
f 373/1/6 367/1/6 374/1/6
f 370/3/6 371/3/6 375/3/6
f 375/3/6 371/3/6 376/3/6
f 373/3/6 374/3/6 377/3/6
f 374/3/6 368/3/6 378/3/6
f 377/3/6 374/3/6 378/3/6
f 375/1/6 376/1/6 379/1/6
f 379/1/6 376/1/6 380/1/6
f 377/1/6 378/1/6 381/1/6
f 378/3/6 368/3/6 382/3/6
f 381/1/6 378/1/6 382/1/6
f 382/3/6 368/3/6 383/3/6
f 383/3/6 384/3/6 385/3/6
f 382/3/6 383/3/6 385/3/6
f 385/3/6 384/3/6 386/3/6
f 387/3/6 388/3/6 389/3/6
f 387/3/6 389/3/6 391/3/6
f 389/3/6 390/3/6 391/3/6
f 391/3/6 390/3/6 392/3/6
f 392/3/6 390/3/6 393/3/6
f 393/3/6 394/3/6 395/3/6
f 392/3/6 393/3/6 395/3/6
f 395/3/6 394/3/6 396/3/6
